<svg width="129" height="129" viewBox="0 0 129 129" fill="none" xmlns="http://www.w3.org/2000/svg">
<path d="M108.511 32.609C105.197 32.609 102.078 31.3417 99.739 29.0022C97.3999 26.6627 96.1328 23.5434 96.1328 20.2291C96.1328 16.9148 97.3999 13.7955 99.739 11.456L111.045 0.148438L115.431 13.3081L128.589 17.6947L117.283 29.0022C114.944 31.3417 111.825 32.609 108.511 32.609ZM109.778 5.50978L101.786 13.5031C100.031 15.2577 98.9593 17.6947 98.9593 20.2291C98.9593 22.7636 99.9339 25.1031 101.786 26.9552C103.54 28.7098 105.977 29.6846 108.511 29.6846C111.045 29.6846 113.384 28.7098 115.236 26.8577L123.228 18.8644L113.189 15.5501L109.778 5.50978Z" fill="white"/>
<path d="M108.516 32.6123C105.202 32.6123 102.083 31.3451 99.744 29.0056L98.6719 27.9333L113.876 12.7266L128.594 17.6005L117.288 28.9081C114.949 31.345 111.83 32.6123 108.516 32.6123ZM102.96 27.8358C104.617 29.0056 106.469 29.6879 108.516 29.6879C111.05 29.6879 113.389 28.7131 115.241 26.9585L123.233 18.9652L114.754 16.1383L102.96 27.8358Z" fill="white"/>
<path d="M62.981 113.132C36.8604 113.132 15.5156 91.8817 15.5156 65.6598C15.5156 39.4379 36.763 18.1875 62.981 18.1875C89.199 18.1875 110.446 39.4379 110.446 65.6598C110.446 91.8817 89.199 113.132 62.981 113.132ZM62.981 20.2346C37.9325 20.2346 17.4649 40.6077 17.4649 65.7573C17.4649 90.9069 37.8351 111.28 62.981 111.28C88.1269 111.28 108.497 90.9069 108.497 65.7573C108.497 40.6077 88.1269 20.2346 62.981 20.2346Z" fill="white"/>
<path d="M62.9844 105.418C41.0548 105.418 23.2188 87.5792 23.2188 65.6464C23.2188 43.7137 41.0548 25.875 62.9844 25.875C84.914 25.875 102.75 43.7137 102.75 65.6464C102.75 87.5792 84.914 105.418 62.9844 105.418ZM62.9844 28.8968C42.7117 28.8968 26.1427 45.3708 26.1427 65.7439C26.1427 86.0196 42.6142 102.591 62.9844 102.591C83.2571 102.591 99.8261 86.117 99.8261 65.7439C99.8261 45.3708 83.3545 28.8968 62.9844 28.8968Z" fill="white"/>
<g opacity="0.2">
<path d="M62.9813 104.83C41.3441 104.83 23.8004 87.2836 23.8004 65.6433C23.8004 44.0029 41.3441 26.4567 62.9813 26.4567C84.6185 26.4567 102.162 44.0029 102.162 65.6433C102.162 87.2836 84.6185 104.83 62.9813 104.83ZM62.9813 27.529C41.9289 27.529 24.7751 44.6853 24.7751 65.7407C24.7751 86.7962 41.9289 103.953 62.9813 103.953C84.0337 103.953 101.187 86.7962 101.187 65.7407C101.187 44.6853 84.0337 27.529 62.9813 27.529Z" fill="white"/>
</g>
<path d="M68.4634 65.6552C68.4634 68.6771 66.0268 71.1141 63.0054 71.1141C59.984 71.1141 57.5474 68.6771 57.5474 65.6552C57.5474 62.6334 59.984 60.1964 63.0054 60.1964C66.0268 60.1964 68.4634 62.7309 68.4634 65.6552ZM125.87 65.6552C125.87 66.825 124.993 67.7023 123.823 67.7023H87.5665C86.5919 79.6922 77.0403 89.1476 65.0522 90.2199V126.482C65.0522 127.652 64.175 128.529 63.0054 128.529C61.8358 128.529 60.9587 127.652 60.9587 126.482V90.2199C48.9705 89.2451 39.5164 79.6922 38.4443 67.7023H2.18738C1.01781 67.7023 0.140625 66.825 0.140625 65.6552C0.140625 64.4855 1.01781 63.6082 2.18738 63.6082H38.5418C39.5164 51.6182 49.068 42.1628 61.0561 41.0905V4.8283C61.0561 3.65855 61.9333 2.78125 63.1029 2.78125C64.2725 2.78125 65.1496 3.65855 65.1496 4.8283V41.188C77.1378 42.1628 86.5919 51.7157 87.664 63.7056H123.921C124.993 63.6082 125.87 64.583 125.87 65.6552ZM74.0189 65.6552C74.0189 59.6115 69.1457 54.7376 63.1029 54.7376C57.0601 54.7376 52.1868 59.6115 52.1868 65.6552C52.1868 71.6989 57.0601 76.5729 63.1029 76.5729C69.0482 76.6703 74.0189 71.6989 74.0189 65.6552Z" fill="url(#paint0_linear_1_3334)"/>
<path d="M124.59 6.96237L64.454 67.1069C64.0642 67.4969 63.4794 67.6918 62.9921 67.6918C62.5047 67.6918 61.92 67.4969 61.5301 67.1069C60.7504 66.3271 60.7504 64.9624 61.5301 64.1826L121.666 4.038C122.446 3.25817 123.81 3.25817 124.59 4.038C125.467 4.91531 125.467 6.18254 124.59 6.96237Z" fill="white"/>
<defs>
<linearGradient id="paint0_linear_1_3334" x1="63.0058" y1="-48.6611" x2="70.9114" y2="151.08" gradientUnits="userSpaceOnUse">
<stop stop-color="#4300BD"/>
<stop offset="0.44" stop-color="#792FFF"/>
<stop offset="1" stop-color="#FF77B0"/>
</linearGradient>
</defs>
</svg>
