<svg width="129" height="126" viewBox="0 0 129 126" fill="none" xmlns="http://www.w3.org/2000/svg">
<path d="M104.784 123.569C104.784 124.739 103.907 125.616 102.737 125.616H26.6171C25.4475 125.616 24.5703 124.739 24.5703 123.569C24.5703 122.399 25.4475 121.522 26.6171 121.522H51.763V99.1018C51.763 97.932 52.6402 97.0547 53.8097 97.0547C54.9793 97.0547 55.8565 97.932 55.8565 99.1018V121.522H73.4976V99.1018C73.4976 97.932 74.3748 97.0547 75.5444 97.0547C76.714 97.0547 77.5912 97.932 77.5912 99.1018V121.522H102.737C103.809 121.522 104.784 122.399 104.784 123.569Z" fill="white"/>
<path d="M116.3 102.609H12.9874C6.16488 102.609 0.609375 97.0525 0.609375 90.229V22.2861C0.609375 15.4626 6.16488 9.90625 12.9874 9.90625H116.3C123.123 9.90625 128.678 15.4626 128.678 22.2861V90.229C128.678 97.0525 123.123 102.609 116.3 102.609ZM12.9874 12.8306C7.82178 12.8306 3.53332 17.0222 3.53332 22.2861V90.229C3.53332 95.3953 7.72432 99.6844 12.9874 99.6844H116.3C121.466 99.6844 125.754 95.4928 125.754 90.229V22.2861C125.754 17.1197 121.563 12.8306 116.3 12.8306H12.9874Z" fill="white"/>
<path d="M116.295 97.1599H12.9825C9.18138 97.1599 6.0625 94.0406 6.0625 90.2389V22.296C6.0625 18.4943 9.18138 15.375 12.9825 15.375H116.295C120.096 15.375 123.215 18.4943 123.215 22.296V90.2389C123.215 94.0406 120.096 97.1599 116.295 97.1599ZM12.9825 18.2994C10.7408 18.2994 8.98644 20.054 8.98644 22.296V90.2389C8.98644 92.3834 10.7408 94.2355 12.9825 94.2355H116.295C118.439 94.2355 120.291 92.4809 120.291 90.2389V22.296C120.291 20.1515 118.537 18.2994 116.295 18.2994H12.9825Z" fill="white"/>
<path d="M97.287 106.519H32.083C29.0616 106.519 26.625 104.082 26.625 101.06C26.625 98.0385 29.0616 95.6016 32.083 95.6016H97.287C100.308 95.6016 102.745 98.0385 102.745 101.06C102.745 104.082 100.308 106.519 97.287 106.519Z" fill="white"/>
<path d="M97.2918 79.3137H72.8281V5.91194C72.8281 2.89009 75.2648 0.453125 78.2862 0.453125H91.8338C94.8552 0.453125 97.2918 2.89009 97.2918 5.91194V79.3137Z" fill="url(#paint0_linear_1_3335)"/>
<path d="M78.284 79.3152H53.8203V30.3807C53.8203 27.3589 56.2569 24.9219 59.2783 24.9219H72.8259C75.8474 24.9219 78.284 27.3589 78.284 30.3807V79.3152Z" fill="url(#paint1_linear_1_3335)"/>
<path d="M59.284 79.3089H34.8203V54.8416C34.8203 51.8198 37.2569 49.3828 40.2783 49.3828H53.8259C56.8474 49.3828 59.284 51.8198 59.284 54.8416V79.3089Z" fill="url(#paint2_linear_1_3335)"/>
<path d="M103.616 79.9924C103.616 81.1621 102.739 82.0394 101.57 82.0394H19.7968C18.6272 82.0394 17.75 81.1621 17.75 79.9924C17.75 78.8226 18.6272 77.9453 19.7968 77.9453H101.57C102.642 78.0428 103.616 78.9201 103.616 79.9924ZM109.562 78.0428H109.172C108.002 78.0428 107.125 78.9201 107.125 80.0899C107.125 81.2596 108.002 82.1369 109.172 82.1369H109.562C110.731 82.1369 111.609 81.2596 111.609 80.0899C111.609 78.9201 110.634 78.0428 109.562 78.0428Z" fill="white"/>
<defs>
<linearGradient id="paint0_linear_1_3335" x1="85.06" y1="-31.808" x2="100.808" y2="91.643" gradientUnits="userSpaceOnUse">
<stop stop-color="#4300BD"/>
<stop offset="0.44" stop-color="#792FFF"/>
<stop offset="1" stop-color="#FF77B0"/>
</linearGradient>
<linearGradient id="paint1_linear_1_3335" x1="66.0522" y1="2.67006" x2="73.6078" y2="88.5401" gradientUnits="userSpaceOnUse">
<stop stop-color="#4300BD"/>
<stop offset="0.44" stop-color="#792FFF"/>
<stop offset="1" stop-color="#FF77B0"/>
</linearGradient>
<linearGradient id="paint2_linear_1_3335" x1="47.0522" y1="37.1403" x2="49.3516" y2="84.6387" gradientUnits="userSpaceOnUse">
<stop stop-color="#4300BD"/>
<stop offset="0.44" stop-color="#792FFF"/>
<stop offset="1" stop-color="#FF77B0"/>
</linearGradient>
</defs>
</svg>
