<svg width="141" height="125" viewBox="0 0 141 125" fill="none" xmlns="http://www.w3.org/2000/svg">
<path d="M52.8067 124.079H36.725C33.2163 124.079 30.1948 121.837 29.4151 118.717L18.1092 70.3678H60.214V117.255C60.214 120.959 56.8027 124.079 52.8067 124.079ZM21.7154 73.2922L32.2416 118.035C32.6315 119.887 34.4833 121.154 36.6275 121.154H52.7092C55.1459 121.154 57.1926 119.4 57.1926 117.255V73.2922H21.7154Z" fill="white"/>
<path d="M42.2733 73.3014H19.8564C9.13527 73.3014 0.460938 64.6257 0.460938 53.903C0.460938 43.1803 9.13527 34.5047 19.8564 34.5047H42.2733V73.3014ZM19.8564 37.4291C10.7922 37.4291 3.38488 44.8375 3.38488 53.903C3.38488 62.9686 10.7922 70.377 19.8564 70.377H39.3493V37.4291H19.8564Z" fill="white"/>
<path d="M48.3724 80.047L48.3688 80.0457C44.2096 78.5667 41.2939 74.1947 41.2939 69.1118V38.6983C41.2939 33.7189 44.2052 29.3391 48.3752 27.762C48.3762 27.7617 48.3771 27.7613 48.378 27.761L85.6283 14.1961C86.0732 14.0341 86.543 13.9512 87.0164 13.9512C89.2569 13.9512 91.0731 15.7675 91.0731 18.0079V91.5811C91.0731 92.7852 90.097 93.7614 88.8929 93.7614H86.2527C86.1983 93.7614 86.1458 93.7694 86.0963 93.7844L48.3724 80.047Z" fill="url(#paint0_linear_1_1883)" stroke="url(#paint1_linear_1_1883)"/>
<path d="M87.6798 96.4037L47.6218 81.7818C42.6511 79.9297 39.2398 74.8608 39.2398 69.0121V38.5986C39.2398 32.8474 42.5536 27.681 47.6218 25.8289L85.9254 11.8894H93.0404V95.7213H87.6798V96.4037ZM86.1203 92.797H90.1164V14.9112H86.5102L48.6939 28.6558C44.8928 30.0205 42.2612 34.1146 42.2612 38.5986V69.0121C42.2612 73.5936 44.7953 77.5902 48.6939 78.9549L86.1203 92.797Z" fill="white"/>
<path d="M97.5348 97.1803H96.0728V76.3198H97.5348C109.913 76.3198 119.952 66.2794 119.952 53.8996C119.952 47.9534 117.613 42.2996 113.422 38.0105C109.231 33.8189 103.578 31.4794 97.6323 31.4794H96.1703V10.6189H97.6323C109.133 10.6189 120.049 15.1029 128.236 23.2912C136.423 31.4794 140.907 42.2996 140.907 53.8996C140.809 77.7819 121.414 97.1803 97.5348 97.1803ZM98.9968 79.2441V94.2559C120.536 93.4761 137.885 75.7349 137.885 53.8996C137.885 43.0794 133.694 32.9416 126.092 25.3382C118.782 18.0273 109.231 13.9332 98.9968 13.5433V28.555C105.235 28.945 110.985 31.4794 115.468 35.9634C120.244 40.7399 122.876 47.0761 122.876 53.8996C122.876 67.3517 112.349 78.4643 98.9968 79.2441Z" fill="url(#paint2_linear_1_1883)"/>
<path d="M85.542 98.7466V9.16338C85.542 4.19195 89.538 0.195312 94.5087 0.195312C99.4794 0.195312 103.475 4.19195 103.475 9.16338V98.7466C103.475 103.718 99.4794 107.715 94.5087 107.715C89.6355 107.715 85.542 103.621 85.542 98.7466Z" fill="white"/>
<path d="M94.5087 107.715C89.538 107.715 85.542 103.718 85.542 98.7466V9.16338C85.542 4.19195 89.538 0.195312 94.5087 0.195312V107.715Z" fill="white"/>
<defs>
<linearGradient id="paint0_linear_1_1883" x1="88.0856" y1="94.3588" x2="22.8973" y2="56.3678" gradientUnits="userSpaceOnUse">
<stop/>
<stop offset="1" stop-color="#2D246C"/>
</linearGradient>
<linearGradient id="paint1_linear_1_1883" x1="43.0609" y1="87.2794" x2="110.199" y2="57.0897" gradientUnits="userSpaceOnUse">
<stop/>
<stop offset="1" stop-color="#484274"/>
</linearGradient>
<linearGradient id="paint2_linear_1_1883" x1="118.49" y1="-24.7926" x2="128.951" y2="112.119" gradientUnits="userSpaceOnUse">
<stop stop-color="#4300BD"/>
<stop offset="0.44" stop-color="#792FFF"/>
<stop offset="1" stop-color="#FF77B0"/>
</linearGradient>
</defs>
</svg>
