<svg width="124" height="126" viewBox="0 0 124 126" fill="none" xmlns="http://www.w3.org/2000/svg">
<path d="M111.936 114.375C111.936 115.447 111.059 116.422 109.889 116.422H13.789C12.7169 116.422 11.7422 115.545 11.7422 114.375C11.7422 113.205 12.6194 112.328 13.789 112.328H109.889C111.059 112.426 111.936 113.303 111.936 114.375Z" fill="#353057"/>
<path d="M76.6533 111.151H44.3925V104.425H47.0241V65.9207H44.3925V59.1946H47.0241V31.5106H42.1508C41.0787 31.5106 40.1041 31.0232 39.4218 30.1459C38.0573 28.5862 38.0573 25.9543 39.4218 24.3946L57.4528 2.94922C58.6224 1.58452 60.1818 0.804688 61.8387 0.804688C63.4956 0.804688 65.0551 1.58452 66.2246 2.94922L84.2556 24.3946C85.6201 26.0518 85.6201 28.5862 84.2556 30.1459C83.5734 31.0232 82.5012 31.5106 81.5266 31.5106H76.6533V59.1946H79.2849V65.9207H76.6533V111.151ZM47.3164 108.227H73.7294V62.9963H76.361V62.119H73.7294V28.5862H81.5266C81.7215 28.5862 81.9164 28.4887 82.0139 28.2938C82.5012 27.8064 82.5012 26.8316 82.0139 26.2467L63.9829 4.80133C63.3981 4.11898 62.6184 3.72906 61.8387 3.72906C61.059 3.72906 60.2793 4.11898 59.6945 4.80133L41.6635 26.2467C41.1762 26.8316 41.1762 27.7089 41.6635 28.2938C41.761 28.3912 41.9559 28.5862 42.1508 28.5862H49.948V62.119H47.3164V62.9963H49.948V107.349H47.3164V108.227Z" fill="white"/>
<path d="M109.585 14.8382C109.391 15.0331 109.098 15.2281 108.806 15.2281H101.886V30.6298C101.886 37.3559 96.2328 42.8147 89.2153 42.8147H75.1804H41.8475C36.292 42.8147 31.8086 47.1038 31.8086 52.4651C31.8086 57.8264 36.292 62.1155 41.8475 62.1155H48.475V66.0147H41.8475C34.1477 66.0147 27.8125 59.971 27.8125 52.4651C27.8125 44.9592 34.1477 38.9155 41.8475 38.9155H75.1804H89.2153C93.9911 38.9155 97.8897 35.1138 97.8897 30.5323V15.1306H90.9697C90.6773 15.1306 90.3849 15.0332 90.19 14.7407C89.8001 14.2533 89.8001 13.4735 90.19 12.8886L98.377 2.84828C99.1568 1.87349 100.521 1.87349 101.398 2.84828L109.585 12.8886C109.975 13.4735 109.975 14.3508 109.585 14.8382ZM84.5371 62.213H75.1804V66.1122H84.5371C90.0926 66.1122 94.5759 70.4012 94.5759 75.7626C94.5759 81.1239 90.0926 85.413 84.5371 85.413H77.9094H41.8475C34.1477 85.413 27.8125 91.4567 27.8125 98.9626C27.8125 106.468 34.1477 112.512 41.8475 112.512H48.475V108.613H41.8475C36.292 108.613 31.8086 104.324 31.8086 98.9626C31.8086 93.6013 36.292 89.3122 41.8475 89.3122H77.9094H84.5371C92.2368 89.3122 98.5719 83.2685 98.5719 75.7626C98.5719 68.2567 92.2368 62.213 84.5371 62.213Z" fill="url(#paint0_linear_1_3337)"/>
<path d="M11.1508 103.734H29.8641H48.5773H75.2827H93.9959H112.709C118.654 103.734 123.43 108.511 123.43 114.457C123.43 120.306 118.654 125.082 112.709 125.082H11.1508C5.30293 125.082 0.429688 120.306 0.429688 114.457C0.429688 108.511 5.20546 103.734 11.1508 103.734Z" fill="white"/>
<defs>
<linearGradient id="paint0_linear_1_3337" x1="68.8454" y1="-43.0444" x2="78.1685" y2="132.088" gradientUnits="userSpaceOnUse">
<stop stop-color="#4300BD"/>
<stop offset="0.44" stop-color="#792FFF"/>
<stop offset="1" stop-color="#FF77B0"/>
</linearGradient>
</defs>
</svg>
