<svg width="135" height="119" viewBox="0 0 135 119" fill="none" xmlns="http://www.w3.org/2000/svg">
<path d="M106.376 118.504C104.719 118.504 103.062 118.017 101.6 116.944C87.7597 106.709 60.8594 86.8233 55.0115 82.4368C53.5495 108.171 52.7698 108.854 52.0875 109.341L51.6002 109.731L50.918 109.633C49.0662 109.243 47.5068 107.879 46.8245 106.027L35.5185 71.4216L4.71968 61.5762C2.38052 60.7964 0.82111 58.7493 0.723645 56.4099C0.62618 53.9729 1.99066 51.8283 4.23235 50.951C33.7642 38.8636 104.816 9.71739 127.233 0.846801C129.085 0.0669685 131.132 0.456879 132.691 1.72411C134.25 2.99133 134.933 4.94092 134.543 6.98798L132.788 15.7611C127.818 41.2031 118.266 90.625 114.173 111.875C113.685 114.605 111.834 116.847 109.202 117.822C108.325 118.309 107.35 118.504 106.376 118.504ZM54.5242 78.9275C55.0115 78.9275 55.4988 79.1225 55.8887 79.4149C59.2025 81.8519 88.6369 103.687 103.354 114.605C104.816 115.677 106.57 115.872 108.227 115.287C109.884 114.605 111.054 113.24 111.346 111.485C115.44 90.2351 125.089 40.8132 129.962 15.3712L131.716 6.59806C131.911 5.62327 131.521 4.74596 130.839 4.16108C130.157 3.57621 129.182 3.38126 128.305 3.77117C105.888 12.6418 34.8364 41.788 5.402 53.8754C4.13496 54.3628 3.64757 55.63 3.74503 56.5073C3.74503 57.4821 4.32982 58.5544 5.69433 59.0418L37.8577 69.2771L49.6509 105.247C49.7484 105.637 50.0409 106.027 50.3333 106.222C50.8206 102.81 51.6003 93.3544 52.2825 81.267C52.38 80.3897 52.8674 79.6099 53.6471 79.22C53.842 79.025 54.1343 78.9275 54.5242 78.9275Z" fill="url(#paint0_linear_1_1871)"/>
<path d="M51.5111 109.731L50.8289 109.633C48.9771 109.243 47.3201 107.878 46.7353 106.124L34.8446 69.7641L106.774 26.6784C107.651 26.191 108.723 26.3859 109.21 27.1658C109.795 27.9456 109.698 29.0179 109.015 29.7002L55.1174 80.3893C53.5579 108.171 52.6807 108.951 51.9984 109.438L51.5111 109.731ZM38.3533 70.9339L49.5618 105.149C49.6593 105.539 49.9517 105.929 50.2441 106.124C50.8289 102.127 51.7061 90.2347 52.2909 79.512V78.9271L100.049 34.0868L38.3533 70.9339Z" fill="white"/>
<defs>
<linearGradient id="paint0_linear_1_1871" x1="67.685" y1="-47.8514" x2="74.2288" y2="139.741" gradientUnits="userSpaceOnUse">
<stop stop-color="#4300BD"/>
<stop offset="0.44" stop-color="#792FFF"/>
<stop offset="1" stop-color="#FF77B0"/>
</linearGradient>
</defs>
</svg>
