<svg width="27" height="28" viewBox="0 0 27 28" fill="none" xmlns="http://www.w3.org/2000/svg">
<g clip-path="url(#clip0_305_18481)">
<path d="M3.83715 23.9443C3.83715 24.3033 4.12817 24.5943 4.48715 24.5943C4.84614 24.5943 5.13715 24.3033 5.13715 23.9443H3.83715ZM5.13715 16.1084C5.13715 15.7494 4.84614 15.4584 4.48715 15.4584C4.12817 15.4584 3.83715 15.7494 3.83715 16.1084H5.13715ZM3.83715 11.6307C3.83715 11.9897 4.12817 12.2807 4.48715 12.2807C4.84614 12.2807 5.13715 11.9897 5.13715 11.6307H3.83715ZM5.13715 3.7948C5.13715 3.43581 4.84614 3.1448 4.48715 3.1448C4.12817 3.1448 3.83715 3.43581 3.83715 3.7948H5.13715ZM12.7925 23.9443C12.7925 24.3033 13.0835 24.5943 13.4425 24.5943C13.8015 24.5943 14.0925 24.3033 14.0925 23.9443H12.7925ZM14.0925 13.8695C14.0925 13.5106 13.8015 13.2195 13.4425 13.2195C13.0835 13.2195 12.7925 13.5106 12.7925 13.8695H14.0925ZM12.7925 9.39188C12.7925 9.75086 13.0835 10.0419 13.4425 10.0419C13.8015 10.0419 14.0925 9.75086 14.0925 9.39188H12.7925ZM14.0925 3.7948C14.0925 3.43581 13.8015 3.1448 13.4425 3.1448C13.0835 3.1448 12.7925 3.43581 12.7925 3.7948H14.0925ZM21.7478 23.9443C21.7478 24.3033 22.0388 24.5943 22.3978 24.5943C22.7568 24.5943 23.0478 24.3033 23.0478 23.9443H21.7478ZM23.0478 18.3472C23.0478 17.9882 22.7568 17.6972 22.3978 17.6972C22.0388 17.6972 21.7478 17.9882 21.7478 18.3472H23.0478ZM21.7478 13.8695C21.7478 14.2285 22.0388 14.5195 22.3978 14.5195C22.7568 14.5195 23.0478 14.2285 23.0478 13.8695H21.7478ZM23.0478 3.7948C23.0478 3.43581 22.7568 3.1448 22.3978 3.1448C22.0388 3.1448 21.7478 3.43581 21.7478 3.7948H23.0478ZM1.12891 15.4584C0.769921 15.4584 0.478906 15.7494 0.478906 16.1084C0.478906 16.4674 0.769921 16.7584 1.12891 16.7584V15.4584ZM7.8454 16.7584C8.20439 16.7584 8.4954 16.4674 8.4954 16.1084C8.4954 15.7494 8.20439 15.4584 7.8454 15.4584V16.7584ZM10.0842 8.74188C9.72525 8.74188 9.43423 9.03289 9.43423 9.39188C9.43423 9.75086 9.72525 10.0419 10.0842 10.0419V8.74188ZM16.8007 10.0419C17.1597 10.0419 17.4507 9.75086 17.4507 9.39188C17.4507 9.03289 17.1597 8.74188 16.8007 8.74188V10.0419ZM19.0396 17.6972C18.6806 17.6972 18.3896 17.9882 18.3896 18.3472C18.3896 18.7062 18.6806 18.9972 19.0396 18.9972V17.6972ZM25.7561 18.9972C26.115 18.9972 26.4061 18.7062 26.4061 18.3472C26.4061 17.9882 26.115 17.6972 25.7561 17.6972V18.9972ZM5.13715 23.9443V16.1084H3.83715V23.9443H5.13715ZM5.13715 11.6307V3.7948H3.83715V11.6307H5.13715ZM14.0925 23.9443V13.8695H12.7925V23.9443H14.0925ZM14.0925 9.39188V3.7948H12.7925V9.39188H14.0925ZM23.0478 23.9443V18.3472H21.7478V23.9443H23.0478ZM23.0478 13.8695V3.7948H21.7478V13.8695H23.0478ZM1.12891 16.7584H7.8454V15.4584H1.12891V16.7584ZM10.0842 10.0419H16.8007V8.74188H10.0842V10.0419ZM19.0396 18.9972H25.7561V17.6972H19.0396V18.9972Z" fill="white"/>
</g>
<defs>
<clipPath id="clip0_305_18481">
<rect width="26.866" height="26.866" fill="white" transform="translate(0.0078125 0.436523)"/>
</clipPath>
</defs>
</svg>
