<svg width="37" height="25" viewBox="0 0 37 25" fill="none" xmlns="http://www.w3.org/2000/svg">
<g clip-path="url(#clip0_265_7118)">
<path d="M17.9595 9.35085H16.7596V12.0507H17.9595C18.1426 12.0755 18.3289 12.0576 18.504 11.9985C18.679 11.9394 18.8381 11.8407 18.9688 11.7101C19.0994 11.5794 19.1981 11.4204 19.2572 11.2453C19.3163 11.0702 19.3341 10.8839 19.3094 10.7008C19.3341 10.5177 19.3163 10.3313 19.2572 10.1563C19.1981 9.98118 19.0994 9.82212 18.9688 9.69147C18.8381 9.56082 18.679 9.46211 18.504 9.40302C18.3289 9.34394 18.1426 9.32608 17.9595 9.35085ZM17.9595 9.35085H16.7596V12.0507H17.9595C18.1426 12.0755 18.3289 12.0576 18.504 11.9985C18.679 11.9394 18.8381 11.8407 18.9688 11.7101C19.0994 11.5794 19.1981 11.4204 19.2572 11.2453C19.3163 11.0702 19.3341 10.8839 19.3094 10.7008C19.3341 10.5177 19.3163 10.3313 19.2572 10.1563C19.1981 9.98118 19.0994 9.82212 18.9688 9.69147C18.8381 9.56082 18.679 9.46211 18.504 9.40302C18.3289 9.34394 18.1426 9.32608 17.9595 9.35085ZM17.9595 9.35085H16.7596V12.0507H17.9595C18.1426 12.0755 18.3289 12.0576 18.504 11.9985C18.679 11.9394 18.8381 11.8407 18.9688 11.7101C19.0994 11.5794 19.1981 11.4204 19.2572 11.2453C19.3163 11.0702 19.3341 10.8839 19.3094 10.7008C19.3341 10.5177 19.3163 10.3313 19.2572 10.1563C19.1981 9.98118 19.0994 9.82212 18.9688 9.69147C18.8381 9.56082 18.679 9.46211 18.504 9.40302C18.3289 9.34394 18.1426 9.32608 17.9595 9.35085ZM22.6091 13.0256C22.0092 13.1006 21.6342 13.3256 21.6342 13.7756C21.6342 14.2256 22.0091 14.4506 22.5341 14.4506C22.688 14.4608 22.8424 14.4394 22.9877 14.3875C23.1329 14.3355 23.2659 14.2543 23.3785 14.1488C23.491 14.0433 23.5806 13.9158 23.6418 13.7742C23.703 13.6326 23.7344 13.4799 23.734 13.3256V12.9506L22.6091 13.0256ZM22.6091 13.0256C22.0092 13.1006 21.6342 13.3256 21.6342 13.7756C21.6342 14.2256 22.0091 14.4506 22.5341 14.4506C22.688 14.4608 22.8424 14.4394 22.9877 14.3875C23.1329 14.3355 23.2659 14.2543 23.3785 14.1488C23.491 14.0433 23.5806 13.9158 23.6418 13.7742C23.703 13.6326 23.7344 13.4799 23.734 13.3256V12.9506L22.6091 13.0256ZM17.9595 9.35085H16.7596V12.0507H17.9595C18.1426 12.0755 18.3289 12.0576 18.504 11.9985C18.679 11.9394 18.8381 11.8407 18.9688 11.7101C19.0994 11.5794 19.1981 11.4204 19.2572 11.2453C19.3163 11.0702 19.3341 10.8839 19.3094 10.7008C19.3341 10.5177 19.3163 10.3313 19.2572 10.1563C19.1981 9.98118 19.0994 9.82212 18.9688 9.69147C18.8381 9.56082 18.679 9.46211 18.504 9.40302C18.3289 9.34394 18.1426 9.32608 17.9595 9.35085ZM33.4832 0.50134H4.98553C4.68726 0.490864 4.39002 0.541894 4.11232 0.651254C3.83463 0.760613 3.58241 0.925962 3.37137 1.13701C3.16033 1.34805 2.99498 1.60028 2.88563 1.87798C2.77627 2.15569 2.72524 2.45294 2.73572 2.75121V22.2501C2.73572 22.8468 2.97275 23.4191 3.39467 23.841C3.81659 24.263 4.38884 24.5 4.98553 24.5H33.4832C34.0799 24.5 34.6522 24.263 35.0741 23.841C35.496 23.4191 35.733 22.8468 35.733 22.2501V2.75121C35.7435 2.45294 35.6925 2.15569 35.5831 1.87798C35.4738 1.60028 35.3084 1.34805 35.0974 1.13701C34.8863 0.925962 34.6341 0.760613 34.3564 0.651254C34.0787 0.541894 33.7815 0.490864 33.4832 0.50134ZM12.035 8.52589C12.1626 8.36884 12.3223 8.24079 12.5033 8.15027C12.6844 8.05975 12.8826 8.00883 13.0849 8.00092C13.0764 8.4284 12.9464 8.84463 12.7099 9.20086C12.5784 9.34805 12.4163 9.46463 12.2349 9.54237C12.0535 9.62012 11.8572 9.65714 11.66 9.65083C11.6337 9.24132 11.7682 8.8377 12.035 8.52589ZM14.0598 14.3756C13.7598 14.8255 13.4598 15.2005 13.0099 15.2005C12.5599 15.2005 12.3349 14.9755 11.81 14.9755C11.285 14.9755 11.06 15.2005 10.6101 15.2755C10.1601 15.3505 9.78514 14.7505 9.48517 14.3006C9.18519 13.8506 8.43525 11.8257 9.0352 10.7008C9.17573 10.4253 9.39087 10.1948 9.65607 10.0357C9.92127 9.87654 10.2259 9.79517 10.5351 9.80082C10.985 9.80082 11.435 10.1008 11.735 10.1008C12.035 10.1008 12.4099 9.72583 13.0099 9.72583H13.0849C13.3411 9.743 13.5897 9.81973 13.8111 9.94993C14.0324 10.0801 14.2203 10.2602 14.3598 10.4758C14.1341 10.6225 13.9478 10.8223 13.8171 11.0576C13.6864 11.2929 13.6152 11.5566 13.6098 11.8257C13.6109 12.143 13.7035 12.4532 13.8764 12.7193C14.0493 12.9853 14.2952 13.1958 14.5848 13.3256C14.4648 13.7005 14.2878 14.0547 14.0598 14.3756ZM18.1845 12.8757H16.7596V15.2005H15.7097V8.52589H18.1845C18.4729 8.51539 18.7604 8.56447 19.029 8.67005C19.2976 8.77563 19.5416 8.93546 19.7456 9.13954C19.9497 9.34363 20.1096 9.5876 20.2151 9.85622C20.3207 10.1248 20.3698 10.4123 20.3593 10.7008C20.3698 10.9892 20.3207 11.2767 20.2151 11.5453C20.1096 11.8139 19.9497 12.0579 19.7456 12.262C19.5416 12.4661 19.2976 12.6259 19.029 12.7315C18.7604 12.8371 18.4729 12.8861 18.1845 12.8757ZM24.7089 15.2005H23.809V14.3756H23.734C23.5935 14.6511 23.3783 14.8815 23.1131 15.0407C22.8479 15.1998 22.5434 15.2812 22.2341 15.2755C22.0256 15.2829 21.8179 15.2467 21.6242 15.1692C21.4305 15.0917 21.2551 14.9747 21.1092 14.8255C20.9577 14.6976 20.8382 14.5361 20.7601 14.3538C20.682 14.1715 20.6474 13.9735 20.6593 13.7756C20.6593 12.9506 21.3342 12.4257 22.4591 12.3507H23.734V11.9757C23.7345 11.8608 23.7109 11.747 23.6649 11.6417C23.6188 11.5364 23.5512 11.4418 23.4665 11.3642C23.3818 11.2865 23.2818 11.2274 23.1728 11.1906C23.0639 11.1539 22.9485 11.1403 22.8341 11.1507C22.2341 11.1507 21.8592 11.3757 21.7842 11.8257H20.8092C20.8842 10.9258 21.6342 10.3258 22.8341 10.3258C24.034 10.3258 24.7089 10.9258 24.7089 11.9007V15.2005ZM27.9337 15.4255C27.4837 16.6254 27.0337 17.0004 26.0588 17.0004H25.6089V16.1755H25.9838C26.4338 16.1755 26.6588 16.0255 26.8088 15.5005V15.2005L25.0839 10.3258H26.1338L27.4837 14.3006L28.6836 10.3258H29.7335L27.9337 15.4255ZM21.6342 13.7756C21.6342 14.2256 22.0091 14.4506 22.5341 14.4506C22.688 14.4608 22.8424 14.4394 22.9877 14.3875C23.1329 14.3355 23.2659 14.2543 23.3785 14.1488C23.491 14.0433 23.5806 13.9158 23.6418 13.7742C23.703 13.6326 23.7344 13.4799 23.734 13.3256V12.9506H22.6091C22.0092 13.1006 21.6342 13.3256 21.6342 13.7756ZM17.9595 9.35085H16.7596V12.0507H17.9595C18.1426 12.0755 18.3289 12.0576 18.504 11.9985C18.679 11.9394 18.8381 11.8407 18.9688 11.7101C19.0994 11.5794 19.1981 11.4204 19.2572 11.2453C19.3163 11.0702 19.3341 10.8839 19.3094 10.7008C19.3341 10.5177 19.3163 10.3313 19.2572 10.1563C19.1981 9.98118 19.0994 9.82212 18.9688 9.69147C18.8381 9.56082 18.679 9.46211 18.504 9.40302C18.3289 9.34394 18.1426 9.32608 17.9595 9.35085ZM17.9595 9.35085H16.7596V12.0507H17.9595C18.1426 12.0755 18.3289 12.0576 18.504 11.9985C18.679 11.9394 18.8381 11.8407 18.9688 11.7101C19.0994 11.5794 19.1981 11.4204 19.2572 11.2453C19.3163 11.0702 19.3341 10.8839 19.3094 10.7008C19.3341 10.5177 19.3163 10.3313 19.2572 10.1563C19.1981 9.98118 19.0994 9.82212 18.9688 9.69147C18.8381 9.56082 18.679 9.46211 18.504 9.40302C18.3289 9.34394 18.1426 9.32608 17.9595 9.35085ZM22.6091 13.0256C22.0092 13.1006 21.6342 13.3256 21.6342 13.7756C21.6342 14.2256 22.0091 14.4506 22.5341 14.4506C22.688 14.4608 22.8424 14.4394 22.9877 14.3875C23.1329 14.3355 23.2659 14.2543 23.3785 14.1488C23.491 14.0433 23.5806 13.9158 23.6418 13.7742C23.703 13.6326 23.7344 13.4799 23.734 13.3256V12.9506L22.6091 13.0256ZM22.6091 13.0256C22.0092 13.1006 21.6342 13.3256 21.6342 13.7756C21.6342 14.2256 22.0091 14.4506 22.5341 14.4506C22.688 14.4608 22.8424 14.4394 22.9877 14.3875C23.1329 14.3355 23.2659 14.2543 23.3785 14.1488C23.491 14.0433 23.5806 13.9158 23.6418 13.7742C23.703 13.6326 23.7344 13.4799 23.734 13.3256V12.9506L22.6091 13.0256ZM17.9595 9.35085H16.7596V12.0507H17.9595C18.1426 12.0755 18.3289 12.0576 18.504 11.9985C18.679 11.9394 18.8381 11.8407 18.9688 11.7101C19.0994 11.5794 19.1981 11.4204 19.2572 11.2453C19.3163 11.0702 19.3341 10.8839 19.3094 10.7008C19.3341 10.5177 19.3163 10.3313 19.2572 10.1563C19.1981 9.98118 19.0994 9.82212 18.9688 9.69147C18.8381 9.56082 18.679 9.46211 18.504 9.40302C18.3289 9.34394 18.1426 9.32608 17.9595 9.35085Z" fill="white"/>
</g>
<defs>
<clipPath id="clip0_265_7118">
<rect width="36" height="24" fill="white" transform="translate(0.734375 0.5)"/>
</clipPath>
</defs>
</svg>
