<svg width="37" height="25" viewBox="0 0 37 25" fill="none" xmlns="http://www.w3.org/2000/svg">
<g clip-path="url(#clip0_265_12385)">
<g clip-path="url(#clip1_265_12385)">
<path d="M21.0985 13.4373C20.8218 13.2987 20.2056 13.112 19.4721 13.0634C18.7382 13.015 17.797 13.0634 17.797 13.0634V16.2405C17.797 16.2405 18.7798 16.2614 19.4377 16.2129C20.0949 16.1645 20.7734 15.9984 21.1126 15.8113C21.4515 15.6244 21.86 15.3337 21.86 14.6071C21.86 13.8801 21.3754 13.5757 21.0985 13.4373ZM19.029 11.589C19.5691 11.5681 20.1436 11.4437 20.5585 11.2152C20.9739 10.9868 21.2092 10.6271 21.1956 10.087C21.1815 9.54709 20.8218 9.09032 20.2128 8.90321C19.6035 8.71631 19.1954 8.70245 18.7314 8.69557C18.2676 8.6888 17.7969 8.73028 17.7969 8.73028V11.589C17.797 11.589 18.4891 11.6098 19.029 11.589Z" fill="#FBBB08"/>
<path d="M18.737 0.5C12.1081 0.5 6.73438 5.87367 6.73438 12.5026C6.73438 19.1314 12.1081 24.5052 18.737 24.5052C25.3658 24.5052 30.7394 19.1314 30.7394 12.5026C30.7394 5.87367 25.3658 0.5 18.737 0.5ZM23.624 17.0918C22.7308 17.7149 21.7757 17.8258 21.3534 17.8809C21.145 17.9083 20.7881 17.9372 20.4053 17.9597V20.366H18.9239V17.9986H17.7957V20.366H16.3144V17.9986H13.4003L13.7048 16.2194H14.5907C14.8885 16.2194 15.0129 16.1917 15.1375 16.0742C15.262 15.9564 15.2897 15.7766 15.2897 15.631V9.50165C15.2897 9.1177 15.2585 9.01377 15.082 8.81661C14.9055 8.61902 14.4903 8.5931 14.2565 8.5931H13.4002V7.05506H16.3143V4.68085H17.7955V7.05506H18.9237V4.68085H20.4051V7.08352C21.5094 7.152 22.3315 7.36239 23.049 7.8926C23.9768 8.57786 23.9281 9.76835 23.9073 10.0522C23.8867 10.336 23.7621 10.883 23.5127 11.2357C23.2638 11.5888 22.6546 11.9419 22.6546 11.9419C22.6546 11.9419 23.3744 12.0941 23.8799 12.4749C24.3848 12.8556 24.7591 13.5269 24.7378 14.5099C24.7175 15.4928 24.5168 16.4689 23.624 17.0918Z" fill="#FBBB08"/>
</g>
</g>
<defs>
<clipPath id="clip0_265_12385">
<rect width="36" height="24" fill="white" transform="translate(0.734375 0.5)"/>
</clipPath>
<clipPath id="clip1_265_12385">
<rect width="24" height="24" fill="white" transform="translate(6.73438 0.5)"/>
</clipPath>
</defs>
</svg>
