<svg width="21" height="20" viewBox="0 0 21 20" fill="none" xmlns="http://www.w3.org/2000/svg">
<g opacity="0.6" clip-path="url(#clip0_110_7207)">
<path d="M19.6663 15.8333C19.6663 16.2754 19.4907 16.6993 19.1782 17.0118C18.8656 17.3244 18.4417 17.5 17.9997 17.5H2.99967C2.55765 17.5 2.13372 17.3244 1.82116 17.0118C1.5086 16.6993 1.33301 16.2754 1.33301 15.8333V6.66667C1.33301 6.22464 1.5086 5.80072 1.82116 5.48816C2.13372 5.17559 2.55765 5 2.99967 5H6.33301L7.99967 2.5H12.9997L14.6663 5H17.9997C18.4417 5 18.8656 5.17559 19.1782 5.48816C19.4907 5.80072 19.6663 6.22464 19.6663 6.66667V15.8333Z" stroke="white" stroke-linecap="round" stroke-linejoin="round"/>
<path d="M10.4997 14.1667C12.3406 14.1667 13.833 12.6743 13.833 10.8333C13.833 8.99238 12.3406 7.5 10.4997 7.5C8.65872 7.5 7.16634 8.99238 7.16634 10.8333C7.16634 12.6743 8.65872 14.1667 10.4997 14.1667Z" stroke="white" stroke-linecap="round" stroke-linejoin="round"/>
</g>
<defs>
<clipPath id="clip0_110_7207">
<rect width="20" height="20" fill="white" transform="translate(0.5)"/>
</clipPath>
</defs>
</svg>
