<svg width="27" height="28" viewBox="0 0 27 28" fill="none" xmlns="http://www.w3.org/2000/svg">
<path d="M3.36719 3.55237V2.99266C3.05807 2.99266 2.80748 3.24325 2.80748 3.55237H3.36719ZM11.2031 3.55237H11.7628C11.7628 3.24325 11.5122 2.99266 11.2031 2.99266V3.55237ZM11.2031 11.3883V11.948C11.5122 11.948 11.7628 11.6974 11.7628 11.3883H11.2031ZM3.36719 11.3883H2.80748C2.80748 11.6974 3.05807 11.948 3.36719 11.948V11.3883ZM15.6808 3.55237V2.99266C15.3716 2.99266 15.1211 3.24325 15.1211 3.55237H15.6808ZM23.5167 3.55237H24.0764C24.0764 3.24325 23.8258 2.99266 23.5167 2.99266V3.55237ZM23.5167 11.3883V11.948C23.8258 11.948 24.0764 11.6974 24.0764 11.3883H23.5167ZM15.6808 11.3883H15.1211C15.1211 11.6974 15.3716 11.948 15.6808 11.948V11.3883ZM15.6808 15.8659V15.3062C15.3716 15.3062 15.1211 15.5568 15.1211 15.8659H15.6808ZM23.5167 15.8659H24.0764C24.0764 15.5568 23.8258 15.3062 23.5167 15.3062V15.8659ZM23.5167 23.7019V24.2616C23.8258 24.2616 24.0764 24.011 24.0764 23.7019H23.5167ZM15.6808 23.7019H15.1211C15.1211 24.011 15.3716 24.2616 15.6808 24.2616V23.7019ZM3.36719 15.8659V15.3062C3.05807 15.3062 2.80748 15.5568 2.80748 15.8659H3.36719ZM11.2031 15.8659H11.7628C11.7628 15.5568 11.5122 15.3062 11.2031 15.3062V15.8659ZM11.2031 23.7019V24.2616C11.5122 24.2616 11.7628 24.011 11.7628 23.7019H11.2031ZM3.36719 23.7019H2.80748C2.80748 24.011 3.05807 24.2616 3.36719 24.2616V23.7019ZM3.36719 4.11208H11.2031V2.99266H3.36719V4.11208ZM10.6434 3.55237V11.3883H11.7628V3.55237H10.6434ZM11.2031 10.8286H3.36719V11.948H11.2031V10.8286ZM3.9269 11.3883V3.55237H2.80748V11.3883H3.9269ZM15.6808 4.11208H23.5167V2.99266H15.6808V4.11208ZM22.957 3.55237V11.3883H24.0764V3.55237H22.957ZM23.5167 10.8286H15.6808V11.948H23.5167V10.8286ZM16.2405 11.3883V3.55237H15.1211V11.3883H16.2405ZM15.6808 16.4256H23.5167V15.3062H15.6808V16.4256ZM22.957 15.8659V23.7019H24.0764V15.8659H22.957ZM23.5167 23.1421H15.6808V24.2616H23.5167V23.1421ZM16.2405 23.7019V15.8659H15.1211V23.7019H16.2405ZM3.36719 16.4256H11.2031V15.3062H3.36719V16.4256ZM10.6434 15.8659V23.7019H11.7628V15.8659H10.6434ZM11.2031 23.1421H3.36719V24.2616H11.2031V23.1421ZM3.9269 23.7019V15.8659H2.80748V23.7019H3.9269Z" fill="#00F0FB"/>
</svg>
