<svg width="27" height="28" viewBox="0 0 27 28" fill="none" xmlns="http://www.w3.org/2000/svg">
<path d="M3.35938 3.55225V2.99254C3.05026 2.99254 2.79967 3.24313 2.79967 3.55225H3.35938ZM11.1953 3.55225H11.755C11.755 3.24313 11.5044 2.99254 11.1953 2.99254V3.55225ZM11.1953 11.3882V11.9479C11.5044 11.9479 11.755 11.6973 11.755 11.3882H11.1953ZM3.35938 11.3882H2.79967C2.79967 11.6973 3.05026 11.9479 3.35938 11.9479V11.3882ZM15.6729 3.55225V2.99254C15.3638 2.99254 15.1132 3.24313 15.1132 3.55225H15.6729ZM23.5089 3.55225H24.0686C24.0686 3.24313 23.818 2.99254 23.5089 2.99254V3.55225ZM23.5089 11.3882V11.9479C23.818 11.9479 24.0686 11.6973 24.0686 11.3882H23.5089ZM15.6729 11.3882H15.1132C15.1132 11.6973 15.3638 11.9479 15.6729 11.9479V11.3882ZM15.6729 15.8658V15.3061C15.3638 15.3061 15.1132 15.5567 15.1132 15.8658H15.6729ZM23.5089 15.8658H24.0686C24.0686 15.5567 23.818 15.3061 23.5089 15.3061V15.8658ZM23.5089 23.7017V24.2614C23.818 24.2614 24.0686 24.0108 24.0686 23.7017H23.5089ZM15.6729 23.7017H15.1132C15.1132 24.0108 15.3638 24.2614 15.6729 24.2614V23.7017ZM3.35938 15.8658V15.3061C3.05026 15.3061 2.79967 15.5567 2.79967 15.8658H3.35938ZM11.1953 15.8658H11.755C11.755 15.5567 11.5044 15.3061 11.1953 15.3061V15.8658ZM11.1953 23.7017V24.2614C11.5044 24.2614 11.755 24.0108 11.755 23.7017H11.1953ZM3.35938 23.7017H2.79967C2.79967 24.0108 3.05026 24.2614 3.35938 24.2614V23.7017ZM3.35938 4.11195H11.1953V2.99254H3.35938V4.11195ZM10.6356 3.55225V11.3882H11.755V3.55225H10.6356ZM11.1953 10.8284H3.35938V11.9479H11.1953V10.8284ZM3.91908 11.3882V3.55225H2.79967V11.3882H3.91908ZM15.6729 4.11195H23.5089V2.99254H15.6729V4.11195ZM22.9492 3.55225V11.3882H24.0686V3.55225H22.9492ZM23.5089 10.8284H15.6729V11.9479H23.5089V10.8284ZM16.2327 11.3882V3.55225H15.1132V11.3882H16.2327ZM15.6729 16.4255H23.5089V15.3061H15.6729V16.4255ZM22.9492 15.8658V23.7017H24.0686V15.8658H22.9492ZM23.5089 23.142H15.6729V24.2614H23.5089V23.142ZM16.2327 23.7017V15.8658H15.1132V23.7017H16.2327ZM3.35938 16.4255H11.1953V15.3061H3.35938V16.4255ZM10.6356 15.8658V23.7017H11.755V15.8658H10.6356ZM11.1953 23.142H3.35938V24.2614H11.1953V23.142ZM3.91908 23.7017V15.8658H2.79967V23.7017H3.91908Z" fill="white"/>
</svg>
