<svg width="34" height="25" viewBox="0 0 34 25" fill="none" xmlns="http://www.w3.org/2000/svg">
<path d="M30.7344 0.5H3.73438C2.07752 0.5 0.734375 1.84314 0.734375 3.5V21.5C0.734375 23.1569 2.07752 24.5 3.73438 24.5H30.7344C32.3913 24.5 33.7344 23.1569 33.7344 21.5V3.5C33.7344 1.84314 32.3913 0.5 30.7344 0.5Z" fill="url(#paint0_radial_265_7151)"/>
<g style="mix-blend-mode:soft-light">
<g style="mix-blend-mode:soft-light">
<path d="M33.7344 5H0.734375V11H33.7344V5Z" fill="black"/>
</g>
</g>
<g style="mix-blend-mode:soft-light">
<g style="mix-blend-mode:soft-light">
<path d="M28.4844 17H23.9843C23.5701 17 23.2344 17.3358 23.2344 17.75V19.25C23.2344 19.6642 23.5701 20 23.9843 20H28.4844C28.8985 20 29.2344 19.6642 29.2344 19.25V17.75C29.2344 17.3358 28.8985 17 28.4844 17Z" fill="#00F0FB"/>
</g>
</g>
<g style="mix-blend-mode:soft-light">
<g style="mix-blend-mode:soft-light">
<path fill-rule="evenodd" clip-rule="evenodd" d="M8.98438 20.4839C8.84362 20.6435 8.68764 20.7864 8.51644 20.9129C8.34524 21.0393 8.16266 21.1463 7.9687 21.2339C7.77472 21.3214 7.57372 21.3875 7.36567 21.4324C7.15762 21.4772 6.94719 21.4995 6.73438 21.4995C6.63613 21.4995 6.53811 21.4947 6.44034 21.4851C6.34255 21.4754 6.24548 21.4611 6.14911 21.4419C6.05274 21.4227 5.95755 21.3989 5.86352 21.3703C5.7695 21.3419 5.6771 21.3088 5.58632 21.2712C5.49555 21.2336 5.40684 21.1916 5.32019 21.1453C5.23354 21.099 5.14936 21.0486 5.06767 20.9939C4.98597 20.9394 4.90714 20.8809 4.83119 20.8186C4.75524 20.7562 4.68253 20.6903 4.61305 20.6208C4.54358 20.5514 4.47768 20.4787 4.41534 20.4027C4.35301 20.3268 4.29455 20.2479 4.23997 20.1662C4.18538 20.0846 4.13492 20.0004 4.08861 19.9137C4.0423 19.8271 4.00033 19.7384 3.96274 19.6476C3.92514 19.5568 3.89207 19.4644 3.86355 19.3704C3.83504 19.2764 3.81118 19.1812 3.79202 19.0848C3.77285 18.9884 3.75845 18.8914 3.74882 18.7935C3.73919 18.6958 3.73438 18.5978 3.73438 18.4995C3.73438 18.4012 3.73919 18.3033 3.74882 18.2055C3.75845 18.1076 3.77285 18.0106 3.79202 17.9143C3.81118 17.8179 3.83504 17.7227 3.86355 17.6286C3.89207 17.5347 3.92514 17.4423 3.96274 17.3514C4.00033 17.2607 4.0423 17.172 4.08861 17.0854C4.13492 16.9986 4.18538 16.9145 4.23997 16.8328C4.29455 16.7511 4.35301 16.6723 4.41534 16.5964C4.47768 16.5203 4.54358 16.4476 4.61305 16.3782C4.68253 16.3087 4.75524 16.2428 4.83119 16.1804C4.90714 16.1182 4.98597 16.0597 5.06767 16.0051C5.14936 15.9505 5.23354 15.9 5.32019 15.8537C5.40684 15.8074 5.49555 15.7655 5.58632 15.7279C5.6771 15.6903 5.7695 15.6572 5.86352 15.6287C5.95755 15.6002 6.05274 15.5763 6.14911 15.5572C6.24548 15.538 6.34255 15.5236 6.44034 15.5139C6.53811 15.5044 6.63613 15.4995 6.73438 15.4995C6.94719 15.4995 7.15762 15.5219 7.36567 15.5666C7.57372 15.6115 7.77472 15.6776 7.9687 15.7652C8.16266 15.8528 8.34524 15.9598 8.51644 16.0862C8.68764 16.2126 8.84362 16.3556 8.98438 16.5152C9.12514 16.3556 9.28112 16.2126 9.45232 16.0862C9.62352 15.9598 9.8061 15.8528 10.0001 15.7652C10.194 15.6776 10.395 15.6115 10.6031 15.5666C10.8111 15.5219 11.0216 15.4995 11.2344 15.4995C11.3327 15.4995 11.4306 15.5044 11.5284 15.5139C11.6263 15.5236 11.7233 15.538 11.8196 15.5572C11.916 15.5763 12.0112 15.6002 12.1053 15.6287C12.1992 15.6572 12.2916 15.6903 12.3825 15.7279C12.4732 15.7655 12.5619 15.8074 12.6485 15.8537C12.7353 15.9 12.8194 15.9505 12.9011 16.0051C12.9828 16.0597 13.0617 16.1182 13.1376 16.1804C13.2136 16.2428 13.2863 16.3087 13.3557 16.3782C13.4252 16.4476 13.4911 16.5203 13.5535 16.5964C13.6157 16.6723 13.6742 16.7511 13.7288 16.8328C13.7834 16.9145 13.8339 16.9986 13.8802 17.0854C13.9265 17.172 13.9684 17.2607 14.0061 17.3514C14.0436 17.4423 14.0767 17.5347 14.1052 17.6286C14.1337 17.7227 14.1576 17.8179 14.1767 17.9143C14.1959 18.0106 14.2104 18.1076 14.22 18.2055C14.2295 18.3033 14.2344 18.4012 14.2344 18.4995C14.2344 18.5978 14.2295 18.6958 14.22 18.7935C14.2104 18.8914 14.1959 18.9884 14.1767 19.0848C14.1576 19.1812 14.1337 19.2764 14.1052 19.3704C14.0767 19.4644 14.0436 19.5568 14.0061 19.6476C13.9684 19.7384 13.9265 19.8271 13.8802 19.9137C13.8339 20.0004 13.7834 20.0846 13.7288 20.1662C13.6742 20.2479 13.6157 20.3268 13.5535 20.4027C13.4911 20.4787 13.4252 20.5514 13.3557 20.6208C13.2863 20.6903 13.2136 20.7562 13.1376 20.8186C13.0617 20.8809 12.9828 20.9394 12.9011 20.9939C12.8194 21.0486 12.7353 21.099 12.6485 21.1453C12.5619 21.1916 12.4732 21.2336 12.3825 21.2712C12.2916 21.3088 12.1992 21.3419 12.1053 21.3703C12.0112 21.3989 11.916 21.4227 11.8196 21.4419C11.7233 21.4611 11.6263 21.4754 11.5284 21.4851C11.4306 21.4947 11.3327 21.4995 11.2344 21.4995C11.0216 21.4995 10.8111 21.4772 10.6031 21.4324C10.395 21.3875 10.194 21.3214 10.0001 21.2339C9.8061 21.1463 9.62352 21.0393 9.45232 20.9129C9.28112 20.7864 9.12514 20.6435 8.98438 20.4839Z" fill="#00F0FB"/>
</g>
</g>
<defs>
<radialGradient id="paint0_radial_265_7151" cx="0" cy="0" r="1" gradientUnits="userSpaceOnUse" gradientTransform="translate(1.86268 24.5) rotate(143.02) scale(39.8975 54.8591)">
<stop stop-color="#5E22CD"/>
<stop offset="1" stop-color="#AE76FF"/>
</radialGradient>
</defs>
</svg>
