<svg width="16" height="15" viewBox="0 0 16 15" fill="none" xmlns="http://www.w3.org/2000/svg">
<path d="M5.55547 7.80114C3.62115 6.45778 2.24139 4.98008 1.48773 4.14951C1.2544 3.89239 1.17818 3.70389 1.13229 3.37238C0.975181 2.23702 0.896626 1.66934 1.25518 1.30244C1.61373 0.935547 2.24761 0.935547 3.51538 0.935547H12.4846C13.7524 0.935547 14.3863 0.935547 14.7448 1.30172C15.1034 1.66862 15.0248 2.2363 14.8677 3.37166C14.821 3.70316 14.7448 3.89167 14.5123 4.14879C13.7578 4.9808 12.3757 6.46139 10.4368 7.80692C10.3471 7.87171 10.273 7.95315 10.2191 8.04605C10.1653 8.13895 10.1329 8.24126 10.1241 8.34644C9.93198 10.3189 9.75465 11.3993 9.64421 11.9453C9.4661 12.8279 8.11978 13.3588 7.39801 13.8318C6.96868 14.1135 6.44757 13.7784 6.39235 13.3422C6.18583 11.6799 6.01106 10.0144 5.86813 8.34644C5.86014 8.24026 5.82817 8.13683 5.7743 8.04289C5.72044 7.94894 5.64587 7.86657 5.55547 7.80114Z" stroke="white" stroke-width="1.5" stroke-linecap="round" stroke-linejoin="round"/>
</svg>
