<svg width="28" height="28" viewBox="0 0 28 28" fill="none" xmlns="http://www.w3.org/2000/svg">
<path d="M16.2783 5.81681L19.3642 8.90276M19.3642 8.90276L22.4502 11.9887M19.3642 8.90276L22.4502 5.81681M19.3642 8.90276L16.2783 11.9887M12.8897 8.90276C12.8897 11.0081 11.183 12.7148 9.07768 12.7148C6.97234 12.7148 5.26562 11.0081 5.26562 8.90276C5.26562 6.79742 6.97234 5.0907 9.07768 5.0907C11.183 5.0907 12.8897 6.79742 12.8897 8.90276ZM12.8897 19.1893C12.8897 21.2946 11.183 23.0014 9.07768 23.0014C6.97234 23.0014 5.26562 21.2946 5.26562 19.1893C5.26562 17.0839 6.97234 15.3772 9.07768 15.3772C11.183 15.3772 12.8897 17.0839 12.8897 19.1893ZM23.1763 19.1893C23.1763 21.2946 21.4696 23.0014 19.3642 23.0014C17.2589 23.0014 15.5522 21.2946 15.5522 19.1893C15.5522 17.0839 17.2589 15.3772 19.3642 15.3772C21.4696 15.3772 23.1763 17.0839 23.1763 19.1893Z" stroke="#00F0FB" stroke-width="1.11942" stroke-linecap="round"/>
</svg>
