<svg width="24" height="25" viewBox="0 0 24 25" fill="none" xmlns="http://www.w3.org/2000/svg">
<path d="M9.47877 11.2723C8.11485 9.39161 6.21644 7.74444 4.06505 6.59285C3.80305 6.45231 3.51591 6.36481 3.22006 6.33535C2.92421 6.30589 2.62546 6.33505 2.34089 6.42116C2.05632 6.50728 1.79152 6.64865 1.56165 6.8372C1.33177 7.02575 1.14133 7.25778 1.00121 7.52001C0.718716 8.04939 0.657727 8.6692 0.831619 9.24349C1.00551 9.81778 1.40009 10.2997 1.92879 10.5834C5.2482 12.3594 7.39008 15.7472 7.64089 19.6625V19.6534C7.59942 19.2165 7.68059 18.7767 7.87528 18.3833C7.90209 18.3276 7.93366 18.267 7.97387 18.2017C9.01159 16.4905 9.55924 14.5272 9.55704 12.5259C9.55704 12.1052 9.52677 11.6874 9.47877 11.2723Z" fill="#3158A6"/>
<path d="M22.6195 7.01212C22.219 5.2575 21.6267 3.55223 20.8534 1.92705C20.6488 1.5007 20.328 1.14067 19.9281 0.888266C19.5281 0.635859 19.0651 0.501292 18.5922 0.5C18.2199 0.5 17.8584 0.581299 17.5198 0.743032C16.2748 1.33547 15.7437 2.83518 16.3362 4.07715C17.6067 6.75611 18.2346 9.586 18.2346 12.5262C18.2346 15.465 17.6032 18.2928 16.3574 20.928C16.3388 20.9674 16.1208 21.4336 16.1208 21.9728C16.1202 22.1682 16.1415 22.363 16.1844 22.5536C16.2673 22.923 16.4334 23.2687 16.67 23.5642C16.9067 23.8598 17.2077 24.0975 17.55 24.2591C17.8836 24.4179 18.2483 24.5002 18.6177 24.5C19.0657 24.4984 19.5052 24.3772 19.8907 24.149C20.2762 23.9208 20.5938 23.5938 20.8106 23.2018C21.3097 22.266 21.8139 21.0336 22.2537 19.45C22.3916 18.973 22.5084 18.525 22.6174 18.0402C23.0295 16.2311 23.2375 14.3816 23.2375 12.5262C23.2362 10.6709 23.0289 8.8216 22.6195 7.01212Z" fill="#449F27"/>
<path d="M12.0553 4.3939C12.0105 4.32157 11.9618 4.25171 11.9095 4.1846C11.6886 3.8952 11.4042 3.66023 11.0784 3.49772C10.7526 3.33521 10.3938 3.24947 10.0297 3.24707C9.64743 3.24707 9.45154 3.29421 9.17694 3.40405C8.89455 3.51605 8.59574 3.67 8.32546 3.95541C8.08578 4.20559 7.90107 4.50314 7.78318 4.82894C7.55658 5.43262 7.58339 6.22658 7.97908 6.86227C8.8098 8.19721 9.29845 9.71248 9.47792 11.2723C9.52592 11.6874 9.55532 12.1056 9.55532 12.5268C9.55532 14.5342 9.00828 16.497 7.97216 18.2021C7.70703 18.6392 7.59052 19.1503 7.64004 19.659C7.67371 20.0293 7.7936 20.3864 7.99012 20.702C8.18664 21.0175 8.45433 21.2827 8.77174 21.4762C8.94385 21.5791 9.12677 21.6582 9.31618 21.7157C9.82192 21.8724 10.3656 21.8551 10.8603 21.6665C11.355 21.4779 11.7722 21.1289 12.0453 20.6753C13.5355 18.2188 14.3219 15.4 14.3187 12.5268C14.3206 9.66007 13.5379 6.84748 12.0553 4.3939Z" fill="#F8002E"/>
<path d="M16.3548 20.9285C17.6011 18.2928 18.2324 15.465 18.2324 12.5257C18.2324 11.5151 18.1637 10.7787 18.1109 10.3112C16.4728 7.69105 14.0979 5.34896 11.3164 3.63477C11.3181 3.6352 11.3808 3.67758 11.3856 3.68017C11.5776 3.81812 11.7402 3.96429 11.9097 4.18353C11.9618 4.25092 12.0105 4.32093 12.0554 4.39327C13.538 6.84656 14.3207 9.65885 14.3188 12.5253C14.3188 12.8678 14.3076 13.2107 14.286 13.5515C15.4743 15.8119 16.1221 18.3818 16.1221 21.0764C16.1221 21.2896 16.126 21.6355 16.1204 21.8872C16.1359 21.5989 16.198 21.315 16.3042 21.0465C16.3202 21.0068 16.3362 20.9665 16.3548 20.9285Z" fill="#FBBB08"/>
</svg>
