<svg width="24" height="24" viewBox="0 0 24 24" fill="none" xmlns="http://www.w3.org/2000/svg">
<path d="M20.5404 15.4596C20.7942 15.7135 21.2058 15.7135 21.4596 15.4596C21.7135 15.2058 21.7135 14.7942 21.4596 14.5404L20.5404 15.4596ZM16 10L16.4596 9.54038C16.2058 9.28654 15.7942 9.28654 15.5404 9.54038L16 10ZM5 3.65H19V2.35H5V3.65ZM19 3.65C19.7456 3.65 20.35 4.25442 20.35 5H21.65C21.65 3.53645 20.4636 2.35 19 2.35V3.65ZM20.35 5V19H21.65V5H20.35ZM20.35 19C20.35 19.7456 19.7456 20.35 19 20.35V21.65C20.4636 21.65 21.65 20.4636 21.65 19H20.35ZM19 20.35H5V21.65H19V20.35ZM5 20.35C4.25442 20.35 3.65 19.7456 3.65 19H2.35C2.35 20.4636 3.53645 21.65 5 21.65V20.35ZM3.65 19V5H2.35V19H3.65ZM3.65 5C3.65 4.25442 4.25442 3.65 5 3.65V2.35C3.53645 2.35 2.35 3.53645 2.35 5H3.65ZM9.35 8.5C9.35 8.96944 8.96944 9.35 8.5 9.35V10.65C9.68741 10.65 10.65 9.68741 10.65 8.5H9.35ZM8.5 9.35C8.03056 9.35 7.65 8.96944 7.65 8.5H6.35C6.35 9.68741 7.31259 10.65 8.5 10.65V9.35ZM7.65 8.5C7.65 8.03056 8.03056 7.65 8.5 7.65V6.35C7.31259 6.35 6.35 7.31259 6.35 8.5H7.65ZM8.5 7.65C8.96944 7.65 9.35 8.03056 9.35 8.5H10.65C10.65 7.31259 9.68741 6.35 8.5 6.35V7.65ZM21.4596 14.5404L16.4596 9.54038L15.5404 10.4596L20.5404 15.4596L21.4596 14.5404ZM15.5404 9.54038L4.54038 20.5404L5.45962 21.4596L16.4596 10.4596L15.5404 9.54038Z" fill="white" fill-opacity="0.6"/>
</svg>
