<svg width="38" height="37" viewBox="0 0 38 37" fill="none" xmlns="http://www.w3.org/2000/svg">
<path d="M18.9874 3.33545C23.8794 3.33545 24.5465 3.33545 26.5477 3.33545C28.3267 3.33545 29.2161 3.78017 29.8832 4.00254C30.7726 4.44726 31.4397 4.66963 32.1068 5.33672C32.7739 6.00381 33.2186 6.6709 33.441 7.56035C33.6634 8.22744 33.8857 9.11689 34.1081 10.8958C34.1081 12.8971 34.1081 13.3418 34.1081 18.4561C34.1081 23.5705 34.1081 24.0152 34.1081 26.0165C34.1081 27.7954 33.6634 28.6849 33.441 29.3519C32.9963 30.2414 32.7739 30.9085 32.1068 31.5756C31.4397 32.2427 30.7726 32.6874 29.8832 32.9098C29.2161 33.1321 28.3267 33.3545 26.5477 33.5768C24.5465 33.5768 24.1018 33.5768 18.9874 33.5768C13.873 33.5768 13.4283 33.5768 11.427 33.5768C9.64814 33.5768 8.75869 33.1321 8.0916 32.9098C7.20215 32.465 6.53506 32.2427 5.86797 31.5756C5.20088 30.9085 4.75615 30.2414 4.53379 29.3519C4.31142 28.6849 4.08906 27.7954 3.8667 26.0165C3.8667 24.0152 3.8667 23.5705 3.8667 18.4561C3.8667 13.3418 3.8667 12.8971 3.8667 10.8958C3.8667 9.11689 4.31142 8.22744 4.53379 7.56035C4.97851 6.6709 5.20088 6.00381 5.86797 5.33672C6.53506 4.66963 7.20215 4.2249 8.0916 4.00254C8.75869 3.78017 9.64814 3.55781 11.427 3.33545C13.4283 3.33545 14.0954 3.33545 18.9874 3.33545ZM18.9874 0C13.873 0 13.4283 0 11.427 0C9.42578 0 8.0916 0.444728 6.97978 0.889454C5.86797 1.33418 4.75615 2.00127 3.64434 3.11309C2.53252 4.2249 2.08779 5.11436 1.4207 6.44853C0.975978 7.56035 0.753613 8.89453 0.53125 10.8958C0.53125 12.8971 0.53125 13.5642 0.53125 18.4561C0.53125 23.5705 0.53125 24.0152 0.53125 26.0165C0.53125 28.0178 0.975978 29.3519 1.4207 30.4638C1.86543 31.5756 2.53252 32.6874 3.64434 33.7992C4.75615 34.911 5.64561 35.3558 6.97978 36.0228C8.0916 36.4676 9.42578 36.6899 11.427 36.9123C13.4283 36.9123 14.0954 36.9123 18.9874 36.9123C23.8794 36.9123 24.5465 36.9123 26.5477 36.9123C28.549 36.9123 29.8832 36.4676 30.995 36.0228C32.1068 35.5781 33.2186 34.911 34.3305 33.7992C35.4423 32.6874 35.887 31.7979 36.5541 30.4638C36.9988 29.3519 37.2212 28.0178 37.4435 26.0165C37.4435 24.0152 37.4435 23.3481 37.4435 18.4561C37.4435 13.5642 37.4435 12.8971 37.4435 10.8958C37.4435 8.89453 36.9988 7.56035 36.5541 6.44853C36.1094 5.33672 35.4423 4.2249 34.3305 3.11309C33.2186 2.00127 32.3292 1.55654 30.995 0.889454C29.8832 0.444728 28.549 0.222363 26.5477 0C24.5465 0 24.1018 0 18.9874 0Z" fill="white"/>
<path d="M18.9874 8.89453C13.6507 8.89453 9.42578 13.1194 9.42578 18.4561C9.42578 23.7929 13.6507 28.0178 18.9874 28.0178C24.3241 28.0178 28.549 23.7929 28.549 18.4561C28.549 13.1194 24.3241 8.89453 18.9874 8.89453ZM18.9874 24.6823C15.6519 24.6823 12.7612 22.014 12.7612 18.4561C12.7612 15.1207 15.4296 12.23 18.9874 12.23C22.3228 12.23 25.2136 14.8983 25.2136 18.4561C25.2136 21.7916 22.3228 24.6823 18.9874 24.6823Z" fill="white"/>
<path d="M28.7714 10.8958C29.9995 10.8958 30.995 9.90024 30.995 8.67217C30.995 7.44409 29.9995 6.44853 28.7714 6.44853C27.5433 6.44853 26.5477 7.44409 26.5477 8.67217C26.5477 9.90024 27.5433 10.8958 28.7714 10.8958Z" fill="white"/>
</svg>
