<svg width="34" height="34" viewBox="0 0 34 34" fill="none" xmlns="http://www.w3.org/2000/svg">
<circle cx="16.8365" cy="16.8351" r="16.817" fill="url(#paint0_linear_238_31298)"/>
<path d="M12.3595 7.83375C12.4529 7.58132 12.8099 7.58132 12.9033 7.83375L14.6769 12.6267C14.7063 12.7061 14.7688 12.7687 14.8482 12.7981L19.6412 14.5716C19.8936 14.665 19.8936 15.0221 19.6412 15.1155L14.8482 16.889C14.7688 16.9184 14.7063 16.981 14.6769 17.0604L12.9033 21.8534C12.8099 22.1058 12.4529 22.1058 12.3595 21.8534L10.5859 17.0604C10.5565 16.981 10.494 16.9184 10.4146 16.889L5.62159 15.1155C5.36916 15.0221 5.36916 14.665 5.62159 14.5716L10.4146 12.7981C10.494 12.7687 10.5565 12.7061 10.5859 12.6267L12.3595 7.83375Z" fill="white"/>
<path d="M22.7591 16.6848C22.8525 16.4324 23.2095 16.4324 23.3029 16.6848L24.18 19.0551C24.2094 19.1345 24.272 19.1971 24.3513 19.2265L26.7216 20.1036C26.9741 20.197 26.9741 20.554 26.7217 20.6474L24.3513 21.5245C24.272 21.5539 24.2094 21.6164 24.18 21.6958L23.3029 24.0661C23.2095 24.3186 22.8525 24.3186 22.7591 24.0661L21.882 21.6958C21.8526 21.6164 21.79 21.5539 21.7107 21.5245L19.3403 20.6474C19.0879 20.554 19.0879 20.197 19.3403 20.1036L21.7107 19.2265C21.79 19.1971 21.8526 19.1345 21.882 19.0551L22.7591 16.6848Z" fill="white"/>
<defs>
<linearGradient id="paint0_linear_238_31298" x1="16.8365" y1="0.0180664" x2="16.8365" y2="33.6521" gradientUnits="userSpaceOnUse">
<stop stop-color="#FF77B0"/>
<stop offset="1" stop-color="#7D3CF3" stop-opacity="0"/>
</linearGradient>
</defs>
</svg>
