<svg width="173" height="111" viewBox="0 0 173 111" fill="none" xmlns="http://www.w3.org/2000/svg">
<path d="M105.387 46.3965L95.5948 66.6817H35.7129L65.5834 0.0703125H91.9314L71.2898 46.3965H105.387Z" fill="url(#paint0_linear_2230_37775)"/>
<path d="M91.086 0.631842L70.7966 46.1859L70.4444 46.8878H71.2193H104.471L95.313 66.1202H36.4878L65.9356 0.631842H91.086ZM91.9314 0.0703125H65.5834L35.7129 66.6817H95.5948L105.387 46.3965H71.2898L91.9314 0.0703125Z" fill="url(#paint1_linear_2230_37775)"/>
<path d="M122.999 20.4961H102.498L122.999 66.6819V20.4961Z" fill="url(#paint2_linear_2230_37775)"/>
<path d="M122.435 21.0576V64.2252L103.343 21.0576H122.435ZM122.999 20.4961H102.568L122.999 66.6117V20.4961Z" fill="url(#paint3_linear_2230_37775)"/>
<path d="M122.999 1.6144V0H93.1289L93.9038 1.6144H122.999Z" fill="url(#paint4_linear_2230_37775)"/>
<path d="M100.949 16.9863L101.513 18.2498H123V16.9863H100.949Z" fill="url(#paint5_linear_2230_37775)"/>
<path d="M98.7656 12.2129L99.3292 13.4763H123V12.2129H98.7656Z" fill="url(#paint6_linear_2230_37775)"/>
<path d="M99.8223 14.5996L100.386 15.8631H123V14.5996H99.8223Z" fill="url(#paint7_linear_2230_37775)"/>
<path d="M94.3965 2.73828L94.9601 4.00172H122.999V2.73828H94.3965Z" fill="url(#paint8_linear_2230_37775)"/>
<path d="M95.5234 5.12305L96.087 6.3163H122.999V5.12305H95.5234Z" fill="url(#paint9_linear_2230_37775)"/>
<path d="M97.6387 9.82617L98.2727 11.0896H123V9.82617H97.6387Z" fill="url(#paint10_linear_2230_37775)"/>
<path d="M96.5801 7.43945L97.1437 8.70289H122.999V7.43945H96.5801Z" fill="url(#paint11_linear_2230_37775)"/>
<path d="M4.09219 89.3613H9.85355L6.67671 105.134H16.4226L15.5072 109.694H0L4.09219 89.3613Z" fill="white"/>
<path d="M27.0841 109.211C25.7918 108.621 24.8226 107.762 24.1227 106.689C23.4227 105.563 23.0996 104.275 23.0996 102.773C23.0996 102.129 23.1535 101.432 23.315 100.627L25.5765 89.3613H31.3378L29.0764 100.574C28.9687 101.164 28.9148 101.7 28.9148 102.183C28.9148 104.329 30.0456 105.402 32.307 105.402C33.5454 105.402 34.5146 105.026 35.2146 104.275C35.9146 103.524 36.453 102.29 36.83 100.574L39.0914 89.3613H44.7989L42.4836 100.895C41.2452 107.011 37.6376 110.123 31.6609 110.123C29.884 110.123 28.3764 109.801 27.0841 109.211Z" fill="white"/>
<path d="M51.5297 109.479C50.0221 109.049 48.7837 108.567 47.8145 107.923L50.0759 103.631C51.099 104.275 52.2297 104.811 53.3604 105.133C54.545 105.455 55.6758 105.616 56.8603 105.616C57.9911 105.616 58.8526 105.455 59.4449 105.133C60.0372 104.811 60.3602 104.382 60.3602 103.792C60.3602 103.309 60.091 102.934 59.5526 102.665C59.0141 102.397 58.1526 102.129 56.968 101.807C55.6219 101.431 54.545 101.11 53.6835 100.734C52.822 100.358 52.0682 99.822 51.422 99.071C50.7759 98.3199 50.4528 97.3543 50.4528 96.174C50.4528 94.7255 50.8297 93.438 51.6374 92.3651C52.4451 91.2921 53.5758 90.4338 55.0296 89.8436C56.4834 89.2535 58.2603 88.9316 60.1987 88.9316C61.6525 88.9316 62.9986 89.0926 64.2909 89.3608C65.5293 89.6827 66.66 90.1119 67.5754 90.6484L65.4755 94.9401C64.6678 94.4573 63.8063 94.0281 62.8371 93.8135C61.8679 93.5453 60.8987 93.438 59.8756 93.438C58.7449 93.438 57.8295 93.5989 57.1834 93.9745C56.5373 94.35 56.2142 94.8328 56.2142 95.423C56.2142 95.9058 56.4834 96.335 57.0757 96.6032C57.6142 96.8714 58.5295 97.1397 59.7141 97.4615C61.0602 97.7834 62.1371 98.1053 62.9986 98.4808C63.8601 98.8027 64.6139 99.3392 65.2062 100.09C65.8524 100.788 66.1216 101.753 66.1216 102.934C66.1216 104.382 65.6908 105.616 64.937 106.743C64.1293 107.815 62.9986 108.674 61.491 109.264C59.9833 109.854 58.2603 110.176 56.3219 110.176C54.6527 110.122 53.0374 109.908 51.5297 109.479Z" fill="white"/>
<path d="M74.4672 109.479C72.9596 109.049 71.7212 108.567 70.752 107.923L73.0134 103.631C74.0365 104.275 75.1672 104.811 76.2979 105.133C77.4825 105.455 78.6133 105.616 79.7978 105.616C80.9286 105.616 81.7901 105.455 82.3824 105.133C82.9747 104.811 83.2977 104.382 83.2977 103.792C83.2977 103.309 83.0285 102.934 82.4901 102.665C81.9516 102.397 81.0901 102.129 79.9055 101.807C78.5594 101.431 77.4825 101.11 76.621 100.734C75.7595 100.358 75.0057 99.822 74.3595 99.071C73.7134 98.3199 73.3903 97.3543 73.3903 96.174C73.3903 94.7255 73.7672 93.438 74.5749 92.3651C75.3826 91.2921 76.5133 90.4338 77.9671 89.8436C79.4209 89.2535 81.1978 88.9316 83.1362 88.9316C84.59 88.9316 85.9361 89.0926 87.2284 89.3608C88.4668 89.6827 89.5975 90.1119 90.5129 90.6484L88.413 94.9401C87.6053 94.4573 86.7438 94.0281 85.7746 93.8135C84.8054 93.5453 83.8362 93.438 82.8131 93.438C81.6824 93.438 80.767 93.5989 80.1209 93.9745C79.4748 94.35 79.1517 94.8328 79.1517 95.423C79.1517 95.9058 79.4209 96.335 80.0132 96.6032C80.5517 96.8714 81.467 97.1397 82.6516 97.4615C83.9977 97.7834 85.0746 98.1053 85.9361 98.4808C86.7976 98.8027 87.5514 99.3392 88.1437 100.09C88.7899 100.788 89.0591 101.753 89.0591 102.934C89.0591 104.382 88.6283 105.616 87.8745 106.743C87.0668 107.815 85.9361 108.674 84.4285 109.264C82.9208 109.854 81.1978 110.176 79.2594 110.176C77.5902 110.122 75.9749 109.908 74.4672 109.479Z" fill="white"/>
<path d="M100.259 108.995C98.7513 108.244 97.5667 107.171 96.7052 105.83C95.8976 104.488 95.4668 102.933 95.4668 101.162C95.4668 98.8555 96.0052 96.7632 97.0821 94.8856C98.159 93.0079 99.6667 91.5594 101.605 90.5401C103.543 89.4672 105.751 88.9844 108.228 88.9844C110.274 88.9844 112.105 89.3599 113.612 90.111C115.12 90.862 116.305 91.935 117.166 93.2762C117.974 94.6173 118.405 96.1731 118.405 97.9435C118.405 100.25 117.866 102.343 116.789 104.22C115.712 106.098 114.205 107.546 112.266 108.566C110.328 109.639 108.12 110.121 105.643 110.121C103.597 110.121 101.767 109.746 100.259 108.995ZM109.52 104.381C110.489 103.737 111.243 102.879 111.782 101.806C112.32 100.733 112.589 99.5529 112.589 98.2653C112.589 96.8705 112.159 95.7976 111.297 94.9929C110.436 94.1882 109.251 93.759 107.743 93.759C106.451 93.759 105.32 94.0809 104.351 94.7246C103.382 95.3684 102.628 96.2268 102.09 97.2997C101.551 98.3726 101.282 99.5529 101.282 100.84C101.282 102.235 101.713 103.308 102.574 104.113C103.436 104.918 104.62 105.347 106.128 105.347C107.42 105.347 108.551 105.025 109.52 104.381Z" fill="white"/>
<path d="M123.627 109.211C123.142 108.728 122.873 108.084 122.873 107.333C122.873 106.421 123.142 105.724 123.735 105.134C124.327 104.597 125.027 104.275 125.888 104.275C126.642 104.275 127.288 104.544 127.773 105.026C128.257 105.509 128.527 106.153 128.527 106.904C128.527 107.762 128.204 108.514 127.611 109.05C127.019 109.64 126.319 109.908 125.511 109.908C124.758 109.908 124.111 109.694 123.627 109.211Z" fill="white"/>
<path d="M4.09219 89.3613H9.85355L6.67671 105.134H16.4226L15.5072 109.694H0L4.09219 89.3613Z" fill="#F2F2F2"/>
<path d="M27.0841 109.211C25.7918 108.621 24.8226 107.762 24.1227 106.689C23.4227 105.563 23.0996 104.275 23.0996 102.773C23.0996 102.129 23.1535 101.432 23.315 100.627L25.5765 89.3613H31.3378L29.0764 100.574C28.9687 101.164 28.9148 101.7 28.9148 102.183C28.9148 104.329 30.0456 105.402 32.307 105.402C33.5454 105.402 34.5146 105.026 35.2146 104.275C35.9146 103.524 36.453 102.29 36.83 100.574L39.0914 89.3613H44.7989L42.4836 100.895C41.2452 107.011 37.6376 110.123 31.6609 110.123C29.884 110.123 28.3764 109.801 27.0841 109.211Z" fill="#F2F2F2"/>
<path d="M51.5297 109.479C50.0221 109.049 48.7837 108.567 47.8145 107.923L50.0759 103.631C51.099 104.275 52.2297 104.811 53.3604 105.133C54.545 105.455 55.6758 105.616 56.8603 105.616C57.9911 105.616 58.8526 105.455 59.4449 105.133C60.0372 104.811 60.3602 104.382 60.3602 103.792C60.3602 103.309 60.091 102.934 59.5526 102.665C59.0141 102.397 58.1526 102.129 56.968 101.807C55.6219 101.431 54.545 101.11 53.6835 100.734C52.822 100.358 52.0682 99.822 51.422 99.071C50.7759 98.3199 50.4528 97.3543 50.4528 96.174C50.4528 94.7255 50.8297 93.438 51.6374 92.3651C52.4451 91.2921 53.5758 90.4338 55.0296 89.8436C56.4834 89.2535 58.2603 88.9316 60.1987 88.9316C61.6525 88.9316 62.9986 89.0926 64.2909 89.3608C65.5293 89.6827 66.66 90.1119 67.5754 90.6484L65.4755 94.9401C64.6678 94.4573 63.8063 94.0281 62.8371 93.8135C61.8679 93.5453 60.8987 93.438 59.8756 93.438C58.7449 93.438 57.8295 93.5989 57.1834 93.9745C56.5373 94.35 56.2142 94.8328 56.2142 95.423C56.2142 95.9058 56.4834 96.335 57.0757 96.6032C57.6142 96.8714 58.5295 97.1397 59.7141 97.4615C61.0602 97.7834 62.1371 98.1053 62.9986 98.4808C63.8601 98.8027 64.6139 99.3392 65.2062 100.09C65.8524 100.788 66.1216 101.753 66.1216 102.934C66.1216 104.382 65.6908 105.616 64.937 106.743C64.1293 107.815 62.9986 108.674 61.491 109.264C59.9833 109.854 58.2603 110.176 56.3219 110.176C54.6527 110.122 53.0374 109.908 51.5297 109.479Z" fill="#F2F2F2"/>
<path d="M74.4672 109.479C72.9596 109.049 71.7212 108.567 70.752 107.923L73.0134 103.631C74.0365 104.275 75.1672 104.811 76.2979 105.133C77.4825 105.455 78.6133 105.616 79.7978 105.616C80.9286 105.616 81.7901 105.455 82.3824 105.133C82.9747 104.811 83.2977 104.382 83.2977 103.792C83.2977 103.309 83.0285 102.934 82.4901 102.665C81.9516 102.397 81.0901 102.129 79.9055 101.807C78.5594 101.431 77.4825 101.11 76.621 100.734C75.7595 100.358 75.0057 99.822 74.3595 99.071C73.7134 98.3199 73.3903 97.3543 73.3903 96.174C73.3903 94.7255 73.7672 93.438 74.5749 92.3651C75.3826 91.2921 76.5133 90.4338 77.9671 89.8436C79.4209 89.2535 81.1978 88.9316 83.1362 88.9316C84.59 88.9316 85.9361 89.0926 87.2284 89.3608C88.4668 89.6827 89.5975 90.1119 90.5129 90.6484L88.413 94.9401C87.6053 94.4573 86.7438 94.0281 85.7746 93.8135C84.8054 93.5453 83.8362 93.438 82.8131 93.438C81.6824 93.438 80.767 93.5989 80.1209 93.9745C79.4748 94.35 79.1517 94.8328 79.1517 95.423C79.1517 95.9058 79.4209 96.335 80.0132 96.6032C80.5517 96.8714 81.467 97.1397 82.6516 97.4615C83.9977 97.7834 85.0746 98.1053 85.9361 98.4808C86.7976 98.8027 87.5514 99.3392 88.1437 100.09C88.7899 100.788 89.0591 101.753 89.0591 102.934C89.0591 104.382 88.6283 105.616 87.8745 106.743C87.0668 107.815 85.9361 108.674 84.4285 109.264C82.9208 109.854 81.1978 110.176 79.2594 110.176C77.5902 110.122 75.9749 109.908 74.4672 109.479Z" fill="#F2F2F2"/>
<path d="M100.259 108.995C98.7513 108.244 97.5667 107.171 96.7052 105.83C95.8976 104.488 95.4668 102.933 95.4668 101.162C95.4668 98.8555 96.0052 96.7632 97.0821 94.8856C98.159 93.0079 99.6667 91.5594 101.605 90.5401C103.543 89.4672 105.751 88.9844 108.228 88.9844C110.274 88.9844 112.105 89.3599 113.612 90.111C115.12 90.862 116.305 91.935 117.166 93.2762C117.974 94.6173 118.405 96.1731 118.405 97.9435C118.405 100.25 117.866 102.343 116.789 104.22C115.712 106.098 114.205 107.546 112.266 108.566C110.328 109.639 108.12 110.121 105.643 110.121C103.597 110.121 101.767 109.746 100.259 108.995ZM109.52 104.381C110.489 103.737 111.243 102.879 111.782 101.806C112.32 100.733 112.589 99.5529 112.589 98.2653C112.589 96.8705 112.159 95.7976 111.297 94.9929C110.436 94.1882 109.251 93.759 107.743 93.759C106.451 93.759 105.32 94.0809 104.351 94.7246C103.382 95.3684 102.628 96.2268 102.09 97.2997C101.551 98.3726 101.282 99.5529 101.282 100.84C101.282 102.235 101.713 103.308 102.574 104.113C103.436 104.918 104.62 105.347 106.128 105.347C107.42 105.347 108.551 105.025 109.52 104.381Z" fill="#F2F2F2"/>
<path d="M123.627 109.211C123.142 108.728 122.873 108.084 122.873 107.333C122.873 106.421 123.142 105.724 123.735 105.134C124.327 104.597 125.027 104.275 125.888 104.275C126.642 104.275 127.288 104.544 127.773 105.026C128.257 105.509 128.527 106.153 128.527 106.904C128.527 107.762 128.204 108.514 127.611 109.05C127.019 109.64 126.319 109.908 125.511 109.908C124.758 109.908 124.111 109.694 123.627 109.211Z" fill="#F2F2F2"/>
<path d="M151.25 105.348H141.719L139.081 109.694H134.02L147.211 89.3613H151.896L156.903 109.694H152.165L151.25 105.348ZM150.442 101.754L148.719 93.9213L143.927 101.754H150.442Z" stroke="black" stroke-width="1.056" stroke-miterlimit="10"/>
<path d="M166.649 89.3613H171.387L167.295 109.694H162.557L166.649 89.3613Z" stroke="black" stroke-width="1.056" stroke-miterlimit="10"/>
<path d="M151.25 105.348H141.719L139.081 109.694H134.02L147.211 89.3613H151.896L156.903 109.694H152.165L151.25 105.348ZM150.442 101.754L148.719 93.9213L143.927 101.754H150.442Z" stroke="#F2F2F2" stroke-width="1.32" stroke-miterlimit="10"/>
<path d="M166.649 89.3613H171.387L167.295 109.694H162.557L166.649 89.3613Z" stroke="#F2F2F2" stroke-width="1.32" stroke-miterlimit="10"/>
<defs>
<linearGradient id="paint0_linear_2230_37775" x1="59.8953" y1="77.8974" x2="95.3098" y2="1.67153" gradientUnits="userSpaceOnUse">
<stop stop-color="#F400F6"/>
<stop offset="0.0113494" stop-color="#F103F6"/>
<stop offset="0.2745" stop-color="#AB40F5"/>
<stop offset="0.5115" stop-color="#7471F4"/>
<stop offset="0.7142" stop-color="#4C94F3"/>
<stop offset="0.8748" stop-color="#34A9F3"/>
<stop offset="0.9732" stop-color="#2BB1F3"/>
</linearGradient>
<linearGradient id="paint1_linear_2230_37775" x1="54.9112" y1="77.7058" x2="97.6556" y2="3.39795" gradientUnits="userSpaceOnUse">
<stop stop-color="#EE7DE1"/>
<stop offset="0.4385" stop-color="#0050F2"/>
<stop offset="0.7542" stop-color="#00B5FF"/>
<stop offset="1" stop-color="white"/>
</linearGradient>
<linearGradient id="paint2_linear_2230_37775" x1="105.273" y1="61.9871" x2="128.456" y2="4.54804" gradientUnits="userSpaceOnUse">
<stop stop-color="#000096"/>
<stop offset="0.3855" stop-color="#1600E1"/>
<stop offset="0.7346" stop-color="#8423F4"/>
<stop offset="0.7758" stop-color="#8D20F4"/>
<stop offset="0.8423" stop-color="#A519F5"/>
<stop offset="0.9254" stop-color="#CB0DF5"/>
<stop offset="1" stop-color="#F400F6"/>
</linearGradient>
<linearGradient id="paint3_linear_2230_37775" x1="105.573" y1="52.1147" x2="128.281" y2="24.9526" gradientUnits="userSpaceOnUse">
<stop stop-color="#0024C1"/>
<stop offset="0.7123" stop-color="#772CE1"/>
<stop offset="1" stop-color="#BA50FF"/>
</linearGradient>
<linearGradient id="paint4_linear_2230_37775" x1="86.3005" y1="54.3289" x2="109.484" y2="-3.11009" gradientUnits="userSpaceOnUse">
<stop stop-color="#000096"/>
<stop offset="0.3855" stop-color="#1600E1"/>
<stop offset="0.7346" stop-color="#8423F4"/>
<stop offset="0.7758" stop-color="#8D20F4"/>
<stop offset="0.8423" stop-color="#A519F5"/>
<stop offset="0.9254" stop-color="#CB0DF5"/>
<stop offset="1" stop-color="#F400F6"/>
</linearGradient>
<linearGradient id="paint5_linear_2230_37775" x1="95.505" y1="58.044" x2="118.689" y2="0.604914" gradientUnits="userSpaceOnUse">
<stop stop-color="#000096"/>
<stop offset="0.3855" stop-color="#1600E1"/>
<stop offset="0.7346" stop-color="#8423F4"/>
<stop offset="0.7758" stop-color="#8D20F4"/>
<stop offset="0.8423" stop-color="#A519F5"/>
<stop offset="0.9254" stop-color="#CB0DF5"/>
<stop offset="1" stop-color="#F400F6"/>
</linearGradient>
<linearGradient id="paint6_linear_2230_37775" x1="92.9125" y1="56.9971" x2="116.096" y2="-0.441998" gradientUnits="userSpaceOnUse">
<stop stop-color="#000096"/>
<stop offset="0.3855" stop-color="#1600E1"/>
<stop offset="0.7346" stop-color="#8423F4"/>
<stop offset="0.7758" stop-color="#8D20F4"/>
<stop offset="0.8423" stop-color="#A519F5"/>
<stop offset="0.9254" stop-color="#CB0DF5"/>
<stop offset="1" stop-color="#F400F6"/>
</linearGradient>
<linearGradient id="paint7_linear_2230_37775" x1="94.2088" y1="57.5206" x2="117.393" y2="0.0814213" gradientUnits="userSpaceOnUse">
<stop stop-color="#000096"/>
<stop offset="0.3855" stop-color="#1600E1"/>
<stop offset="0.7346" stop-color="#8423F4"/>
<stop offset="0.7758" stop-color="#8D20F4"/>
<stop offset="0.8423" stop-color="#A519F5"/>
<stop offset="0.9254" stop-color="#CB0DF5"/>
<stop offset="1" stop-color="#F400F6"/>
</linearGradient>
<linearGradient id="paint8_linear_2230_37775" x1="87.7255" y1="54.9052" x2="110.909" y2="-2.53391" gradientUnits="userSpaceOnUse">
<stop stop-color="#000096"/>
<stop offset="0.3855" stop-color="#1600E1"/>
<stop offset="0.7346" stop-color="#8423F4"/>
<stop offset="0.7758" stop-color="#8D20F4"/>
<stop offset="0.8423" stop-color="#A519F5"/>
<stop offset="0.9254" stop-color="#CB0DF5"/>
<stop offset="1" stop-color="#F400F6"/>
</linearGradient>
<linearGradient id="paint9_linear_2230_37775" x1="89.0217" y1="55.4267" x2="112.206" y2="-2.01236" gradientUnits="userSpaceOnUse">
<stop stop-color="#000096"/>
<stop offset="0.3855" stop-color="#1600E1"/>
<stop offset="0.7346" stop-color="#8423F4"/>
<stop offset="0.7758" stop-color="#8D20F4"/>
<stop offset="0.8423" stop-color="#A519F5"/>
<stop offset="0.9254" stop-color="#CB0DF5"/>
<stop offset="1" stop-color="#F400F6"/>
</linearGradient>
<linearGradient id="paint10_linear_2230_37775" x1="91.6162" y1="56.4735" x2="114.8" y2="-0.965497" gradientUnits="userSpaceOnUse">
<stop stop-color="#000096"/>
<stop offset="0.3855" stop-color="#1600E1"/>
<stop offset="0.7346" stop-color="#8423F4"/>
<stop offset="0.7758" stop-color="#8D20F4"/>
<stop offset="0.8423" stop-color="#A519F5"/>
<stop offset="0.9254" stop-color="#CB0DF5"/>
<stop offset="1" stop-color="#F400F6"/>
</linearGradient>
<linearGradient id="paint11_linear_2230_37775" x1="90.3181" y1="55.95" x2="113.502" y2="-1.48899" gradientUnits="userSpaceOnUse">
<stop stop-color="#000096"/>
<stop offset="0.3855" stop-color="#1600E1"/>
<stop offset="0.7346" stop-color="#8423F4"/>
<stop offset="0.7758" stop-color="#8D20F4"/>
<stop offset="0.8423" stop-color="#A519F5"/>
<stop offset="0.9254" stop-color="#CB0DF5"/>
<stop offset="1" stop-color="#F400F6"/>
</linearGradient>
</defs>
</svg>
