<svg width="207" height="42" viewBox="0 0 207 42" fill="none" xmlns="http://www.w3.org/2000/svg">
<path d="M43.7593 29.1422L37.6091 41.8825H0L18.7603 0.046875H35.3083L22.3442 29.1422H43.7593Z" fill="url(#paint0_linear_2143_35055)"/>
<path d="M34.7774 0.399546L22.0345 29.01L21.8133 29.4508H22.3H43.1841L37.4321 41.5298H0.486706L18.9815 0.399546H34.7774ZM35.3083 0.046875H18.7603L0 41.8825H37.6091L43.7593 29.1422H22.3442L35.3083 0.046875Z" fill="url(#paint1_linear_2143_35055)"/>
<path d="M54.8209 12.8672H41.9453L54.8209 41.8744V12.8672Z" fill="url(#paint2_linear_2143_35055)"/>
<path d="M54.4696 13.2199V40.3315L42.4789 13.2199H54.4696ZM54.8235 12.8672H41.9922L54.8235 41.8303V12.8672Z" fill="url(#paint3_linear_2143_35055)"/>
<path d="M54.8189 1.01393V0H36.0586L36.5453 1.01393H54.8189Z" fill="url(#paint4_linear_2143_35055)"/>
<path d="M40.9688 10.6719L41.3227 11.4654H54.8178V10.6719H40.9688Z" fill="url(#paint5_linear_2143_35055)"/>
<path d="M39.5977 7.67188L39.9516 8.46539H54.8183V7.67188H39.5977Z" fill="url(#paint6_linear_2143_35055)"/>
<path d="M40.2617 9.16406L40.6157 9.95757H54.8187V9.16406H40.2617Z" fill="url(#paint7_linear_2143_35055)"/>
<path d="M36.8555 1.72656L37.2094 2.52007H54.8193V1.72656H36.8555Z" fill="url(#paint8_linear_2143_35055)"/>
<path d="M37.5625 3.21875L37.9165 3.96818H54.8184V3.21875H37.5625Z" fill="url(#paint9_linear_2143_35055)"/>
<path d="M38.8906 6.17188L39.2888 6.96539H54.8192V6.17188H38.8906Z" fill="url(#paint10_linear_2143_35055)"/>
<path d="M38.2227 4.67969L38.5766 5.4732H54.8149V4.67969H38.2227Z" fill="url(#paint11_linear_2143_35055)"/>
<path d="M67.9643 12.5234H72.6986L70.0881 25.4841H78.0966L77.3444 29.2312H64.6016L67.9643 12.5234Z" fill="white"/>
<path d="M86.8523 28.8345C85.7904 28.3496 84.994 27.6442 84.4188 26.7625C83.8436 25.8368 83.5781 24.7788 83.5781 23.5444C83.5781 23.0154 83.6224 22.4423 83.7551 21.7811L85.6134 12.5234H90.3478L88.4894 21.737C88.4009 22.2219 88.3567 22.6627 88.3567 23.0595C88.3567 24.8228 89.2859 25.7045 91.1442 25.7045C92.1619 25.7045 92.9583 25.3959 93.5335 24.7788C94.1087 24.1616 94.5511 23.1477 94.8609 21.737L96.7192 12.5234H101.409L99.5067 22.0015C98.489 27.027 95.5246 29.5839 90.6132 29.5839C89.1531 29.5839 87.9142 29.3194 86.8523 28.8345Z" fill="white"/>
<path d="M106.948 29.0482C105.709 28.6955 104.691 28.2988 103.895 27.7698L105.753 24.243C106.594 24.7721 107.523 25.2129 108.452 25.4774C109.425 25.7419 110.354 25.8742 111.328 25.8742C112.257 25.8742 112.965 25.7419 113.452 25.4774C113.938 25.2129 114.204 24.8602 114.204 24.3753C114.204 23.9785 113.983 23.67 113.54 23.4495C113.098 23.2291 112.39 23.0087 111.416 22.7442C110.31 22.4356 109.425 22.1711 108.717 21.8625C108.009 21.5539 107.39 21.1131 106.859 20.4959C106.328 19.8787 106.063 19.0852 106.063 18.1154C106.063 16.9251 106.372 15.8671 107.036 14.9854C107.7 14.1038 108.629 13.3984 109.823 12.9135C111.018 12.4286 112.478 12.1641 114.071 12.1641C115.266 12.1641 116.372 12.2963 117.434 12.5167C118.451 12.7812 119.381 13.1339 120.133 13.5747L118.407 17.1015C117.744 16.7047 117.036 16.352 116.239 16.1757C115.443 15.9553 114.646 15.8671 113.806 15.8671C112.876 15.8671 112.124 15.9994 111.593 16.3079C111.062 16.6165 110.797 17.0133 110.797 17.4982C110.797 17.895 111.018 18.2476 111.505 18.4681C111.947 18.6885 112.699 18.9089 113.673 19.1734C114.779 19.4379 115.664 19.7024 116.372 20.011C117.08 20.2755 117.699 20.7163 118.186 21.3335C118.717 21.9066 118.938 22.7001 118.938 23.67C118.938 24.8602 118.584 25.8742 117.965 26.7999C117.301 27.6816 116.372 28.3869 115.133 28.8719C113.894 29.3568 112.478 29.6213 110.885 29.6213C109.514 29.5772 108.186 29.4009 106.948 29.0482Z" fill="white"/>
<path d="M125.791 29.0482C124.552 28.6955 123.535 28.2988 122.738 27.7698L124.597 24.243C125.437 24.7721 126.366 25.2129 127.296 25.4774C128.269 25.7419 129.198 25.8742 130.172 25.8742C131.101 25.8742 131.809 25.7419 132.295 25.4774C132.782 25.2129 133.048 24.8602 133.048 24.3753C133.048 23.9785 132.826 23.67 132.384 23.4495C131.941 23.2291 131.234 23.0087 130.26 22.7442C129.154 22.4356 128.269 22.1711 127.561 21.8625C126.853 21.5539 126.234 21.1131 125.703 20.4959C125.172 19.8787 124.906 19.0852 124.906 18.1154C124.906 16.9251 125.216 15.8671 125.88 14.9854C126.543 14.1038 127.473 13.3984 128.667 12.9135C129.862 12.4286 131.322 12.1641 132.915 12.1641C134.11 12.1641 135.216 12.2963 136.278 12.5167C137.295 12.7812 138.224 13.1339 138.977 13.5747L137.251 17.1015C136.587 16.7047 135.879 16.352 135.083 16.1757C134.286 15.9553 133.49 15.8671 132.649 15.8671C131.72 15.8671 130.968 15.9994 130.437 16.3079C129.906 16.6165 129.641 17.0133 129.641 17.4982C129.641 17.895 129.862 18.2476 130.349 18.4681C130.791 18.6885 131.543 18.9089 132.517 19.1734C133.623 19.4379 134.508 19.7024 135.216 20.011C135.924 20.2755 136.543 20.7163 137.03 21.3335C137.561 21.9066 137.782 22.7001 137.782 23.67C137.782 24.8602 137.428 25.8742 136.809 26.7999C136.145 27.6816 135.216 28.3869 133.977 28.8719C132.738 29.3568 131.322 29.6213 129.729 29.6213C128.358 29.5772 127.03 29.4009 125.791 29.0482Z" fill="white"/>
<path d="M146.989 28.6542C145.75 28.0371 144.776 27.1554 144.068 26.0533C143.405 24.9512 143.051 23.6728 143.051 22.218C143.051 20.3224 143.493 18.6031 144.378 17.0602C145.263 15.5172 146.502 14.327 148.095 13.4894C149.688 12.6077 151.502 12.2109 153.537 12.2109C155.218 12.2109 156.723 12.5195 157.962 13.1367C159.201 13.7539 160.174 14.6356 160.882 15.7376C161.546 16.8397 161.9 18.1182 161.9 19.5729C161.9 21.4686 161.457 23.1878 160.572 24.7308C159.687 26.2737 158.448 27.464 156.856 28.3016C155.263 29.1832 153.449 29.58 151.413 29.58C149.732 29.58 148.228 29.2714 146.989 28.6542ZM154.599 24.863C155.395 24.334 156.015 23.6287 156.457 22.747C156.9 21.8653 157.121 20.8955 157.121 19.8375C157.121 18.6913 156.767 17.8096 156.059 17.1483C155.351 16.4871 154.378 16.1344 153.139 16.1344C152.077 16.1344 151.148 16.3989 150.351 16.9279C149.555 17.4569 148.936 18.1623 148.493 19.0439C148.051 19.9256 147.829 20.8955 147.829 21.9535C147.829 23.0997 148.183 23.9813 148.891 24.6426C149.599 25.3039 150.573 25.6565 151.811 25.6565C152.873 25.6565 153.803 25.392 154.599 24.863Z" fill="white"/>
<path d="M166.19 28.8292C165.792 28.4324 165.57 27.9034 165.57 27.2862C165.57 26.5368 165.792 25.9637 166.278 25.4788C166.765 25.0379 167.34 24.7734 168.048 24.7734C168.668 24.7734 169.198 24.9939 169.597 25.3906C169.995 25.7874 170.216 26.3164 170.216 26.9335C170.216 27.6389 169.951 28.2561 169.464 28.6969C168.977 29.1818 168.402 29.4022 167.738 29.4022C167.119 29.4022 166.588 29.2259 166.19 28.8292Z" fill="white"/>
<path d="M67.9643 12.5234H72.6986L70.0881 25.4841H78.0966L77.3444 29.2312H64.6016L67.9643 12.5234Z" fill="#F2F2F2"/>
<path d="M86.8523 28.8345C85.7904 28.3496 84.994 27.6442 84.4188 26.7625C83.8436 25.8368 83.5781 24.7788 83.5781 23.5444C83.5781 23.0154 83.6224 22.4423 83.7551 21.7811L85.6134 12.5234H90.3478L88.4894 21.737C88.4009 22.2219 88.3567 22.6627 88.3567 23.0595C88.3567 24.8228 89.2859 25.7045 91.1442 25.7045C92.1619 25.7045 92.9583 25.3959 93.5335 24.7788C94.1087 24.1616 94.5511 23.1477 94.8609 21.737L96.7192 12.5234H101.409L99.5067 22.0015C98.489 27.027 95.5246 29.5839 90.6132 29.5839C89.1531 29.5839 87.9142 29.3194 86.8523 28.8345Z" fill="#F2F2F2"/>
<path d="M106.948 29.0482C105.709 28.6955 104.691 28.2988 103.895 27.7698L105.753 24.243C106.594 24.7721 107.523 25.2129 108.452 25.4774C109.425 25.7419 110.354 25.8742 111.328 25.8742C112.257 25.8742 112.965 25.7419 113.452 25.4774C113.938 25.2129 114.204 24.8602 114.204 24.3753C114.204 23.9785 113.983 23.67 113.54 23.4495C113.098 23.2291 112.39 23.0087 111.416 22.7442C110.31 22.4356 109.425 22.1711 108.717 21.8625C108.009 21.5539 107.39 21.1131 106.859 20.4959C106.328 19.8787 106.063 19.0852 106.063 18.1154C106.063 16.9251 106.372 15.8671 107.036 14.9854C107.7 14.1038 108.629 13.3984 109.823 12.9135C111.018 12.4286 112.478 12.1641 114.071 12.1641C115.266 12.1641 116.372 12.2963 117.434 12.5167C118.451 12.7812 119.381 13.1339 120.133 13.5747L118.407 17.1015C117.744 16.7047 117.036 16.352 116.239 16.1757C115.443 15.9553 114.646 15.8671 113.806 15.8671C112.876 15.8671 112.124 15.9994 111.593 16.3079C111.062 16.6165 110.797 17.0133 110.797 17.4982C110.797 17.895 111.018 18.2476 111.505 18.4681C111.947 18.6885 112.699 18.9089 113.673 19.1734C114.779 19.4379 115.664 19.7024 116.372 20.011C117.08 20.2755 117.699 20.7163 118.186 21.3335C118.717 21.9066 118.938 22.7001 118.938 23.67C118.938 24.8602 118.584 25.8742 117.965 26.7999C117.301 27.6816 116.372 28.3869 115.133 28.8719C113.894 29.3568 112.478 29.6213 110.885 29.6213C109.514 29.5772 108.186 29.4009 106.948 29.0482Z" fill="#F2F2F2"/>
<path d="M125.791 29.0482C124.552 28.6955 123.535 28.2988 122.738 27.7698L124.597 24.243C125.437 24.7721 126.366 25.2129 127.296 25.4774C128.269 25.7419 129.198 25.8742 130.172 25.8742C131.101 25.8742 131.809 25.7419 132.295 25.4774C132.782 25.2129 133.048 24.8602 133.048 24.3753C133.048 23.9785 132.826 23.67 132.384 23.4495C131.941 23.2291 131.234 23.0087 130.26 22.7442C129.154 22.4356 128.269 22.1711 127.561 21.8625C126.853 21.5539 126.234 21.1131 125.703 20.4959C125.172 19.8787 124.906 19.0852 124.906 18.1154C124.906 16.9251 125.216 15.8671 125.88 14.9854C126.543 14.1038 127.473 13.3984 128.667 12.9135C129.862 12.4286 131.322 12.1641 132.915 12.1641C134.11 12.1641 135.216 12.2963 136.278 12.5167C137.295 12.7812 138.224 13.1339 138.977 13.5747L137.251 17.1015C136.587 16.7047 135.879 16.352 135.083 16.1757C134.286 15.9553 133.49 15.8671 132.649 15.8671C131.72 15.8671 130.968 15.9994 130.437 16.3079C129.906 16.6165 129.641 17.0133 129.641 17.4982C129.641 17.895 129.862 18.2476 130.349 18.4681C130.791 18.6885 131.543 18.9089 132.517 19.1734C133.623 19.4379 134.508 19.7024 135.216 20.011C135.924 20.2755 136.543 20.7163 137.03 21.3335C137.561 21.9066 137.782 22.7001 137.782 23.67C137.782 24.8602 137.428 25.8742 136.809 26.7999C136.145 27.6816 135.216 28.3869 133.977 28.8719C132.738 29.3568 131.322 29.6213 129.729 29.6213C128.358 29.5772 127.03 29.4009 125.791 29.0482Z" fill="#F2F2F2"/>
<path d="M146.989 28.6542C145.75 28.0371 144.776 27.1554 144.068 26.0533C143.405 24.9512 143.051 23.6728 143.051 22.218C143.051 20.3224 143.493 18.6031 144.378 17.0602C145.263 15.5172 146.502 14.327 148.095 13.4894C149.688 12.6077 151.502 12.2109 153.537 12.2109C155.218 12.2109 156.723 12.5195 157.962 13.1367C159.201 13.7539 160.174 14.6356 160.882 15.7376C161.546 16.8397 161.9 18.1182 161.9 19.5729C161.9 21.4686 161.457 23.1878 160.572 24.7308C159.687 26.2737 158.448 27.464 156.856 28.3016C155.263 29.1832 153.449 29.58 151.413 29.58C149.732 29.58 148.228 29.2714 146.989 28.6542ZM154.599 24.863C155.395 24.334 156.015 23.6287 156.457 22.747C156.9 21.8653 157.121 20.8955 157.121 19.8375C157.121 18.6913 156.767 17.8096 156.059 17.1483C155.351 16.4871 154.378 16.1344 153.139 16.1344C152.077 16.1344 151.148 16.3989 150.351 16.9279C149.555 17.4569 148.936 18.1623 148.493 19.0439C148.051 19.9256 147.829 20.8955 147.829 21.9535C147.829 23.0997 148.183 23.9813 148.891 24.6426C149.599 25.3039 150.573 25.6565 151.811 25.6565C152.873 25.6565 153.803 25.392 154.599 24.863Z" fill="#F2F2F2"/>
<path d="M166.19 28.8292C165.792 28.4324 165.57 27.9034 165.57 27.2862C165.57 26.5368 165.792 25.9637 166.278 25.4788C166.765 25.0379 167.34 24.7734 168.048 24.7734C168.668 24.7734 169.198 24.9939 169.597 25.3906C169.995 25.7874 170.216 26.3164 170.216 26.9335C170.216 27.6389 169.951 28.2561 169.464 28.6969C168.977 29.1818 168.402 29.4022 167.738 29.4022C167.119 29.4022 166.588 29.2259 166.19 28.8292Z" fill="#F2F2F2"/>
<path d="M188.881 25.6604H181.05L178.882 29.2312H174.723L185.563 12.5234H189.412L193.527 29.2312H189.634L188.881 25.6604ZM188.218 22.7068L186.802 16.2706L182.864 22.7068H188.218Z" stroke="black" stroke-width="1.056" stroke-miterlimit="10"/>
<path d="M201.538 12.5234H205.432L202.069 29.2312H198.176L201.538 12.5234Z" stroke="black" stroke-width="1.056" stroke-miterlimit="10"/>
<path d="M188.881 25.6604H181.05L178.882 29.2312H174.723L185.563 12.5234H189.412L193.527 29.2312H189.634L188.881 25.6604ZM188.218 22.7068L186.802 16.2706L182.864 22.7068H188.218Z" stroke="#F2F2F2" stroke-width="1.32" stroke-miterlimit="10"/>
<path d="M201.538 12.5234H205.432L202.069 29.2312H198.176L201.538 12.5234Z" stroke="#F2F2F2" stroke-width="1.32" stroke-miterlimit="10"/>
<defs>
<linearGradient id="paint0_linear_2143_35055" x1="15.1879" y1="48.9266" x2="37.4301" y2="1.05253" gradientUnits="userSpaceOnUse">
<stop stop-color="#F400F6"/>
<stop offset="0.0113494" stop-color="#F103F6"/>
<stop offset="0.2745" stop-color="#AB40F5"/>
<stop offset="0.5115" stop-color="#7471F4"/>
<stop offset="0.7142" stop-color="#4C94F3"/>
<stop offset="0.8748" stop-color="#34A9F3"/>
<stop offset="0.9732" stop-color="#2BB1F3"/>
</linearGradient>
<linearGradient id="paint1_linear_2143_35055" x1="12.0576" y1="48.8062" x2="38.9034" y2="2.13681" gradientUnits="userSpaceOnUse">
<stop stop-color="#EE7DE1"/>
<stop offset="0.4385" stop-color="#0050F2"/>
<stop offset="0.7542" stop-color="#00B5FF"/>
<stop offset="1" stop-color="white"/>
</linearGradient>
<linearGradient id="paint2_linear_2143_35055" x1="43.6879" y1="38.9258" x2="58.2486" y2="2.85094" gradientUnits="userSpaceOnUse">
<stop stop-color="#000096"/>
<stop offset="0.3855" stop-color="#1600E1"/>
<stop offset="0.7346" stop-color="#8423F4"/>
<stop offset="0.7758" stop-color="#8D20F4"/>
<stop offset="0.8423" stop-color="#A519F5"/>
<stop offset="0.9254" stop-color="#CB0DF5"/>
<stop offset="1" stop-color="#F400F6"/>
</linearGradient>
<linearGradient id="paint3_linear_2143_35055" x1="43.8792" y1="32.7254" x2="58.1412" y2="15.6661" gradientUnits="userSpaceOnUse">
<stop stop-color="#0024C1"/>
<stop offset="0.7123" stop-color="#772CE1"/>
<stop offset="1" stop-color="#BA50FF"/>
</linearGradient>
<linearGradient id="paint4_linear_2143_35055" x1="31.77" y1="34.1216" x2="46.3307" y2="-1.95331" gradientUnits="userSpaceOnUse">
<stop stop-color="#000096"/>
<stop offset="0.3855" stop-color="#1600E1"/>
<stop offset="0.7346" stop-color="#8423F4"/>
<stop offset="0.7758" stop-color="#8D20F4"/>
<stop offset="0.8423" stop-color="#A519F5"/>
<stop offset="0.9254" stop-color="#CB0DF5"/>
<stop offset="1" stop-color="#F400F6"/>
</linearGradient>
<linearGradient id="paint5_linear_2143_35055" x1="37.5495" y1="36.4583" x2="52.1102" y2="0.383451" gradientUnits="userSpaceOnUse">
<stop stop-color="#000096"/>
<stop offset="0.3855" stop-color="#1600E1"/>
<stop offset="0.7346" stop-color="#8423F4"/>
<stop offset="0.7758" stop-color="#8D20F4"/>
<stop offset="0.8423" stop-color="#A519F5"/>
<stop offset="0.9254" stop-color="#CB0DF5"/>
<stop offset="1" stop-color="#F400F6"/>
</linearGradient>
<linearGradient id="paint6_linear_2143_35055" x1="35.9216" y1="35.7988" x2="50.4823" y2="-0.276087" gradientUnits="userSpaceOnUse">
<stop stop-color="#000096"/>
<stop offset="0.3855" stop-color="#1600E1"/>
<stop offset="0.7346" stop-color="#8423F4"/>
<stop offset="0.7758" stop-color="#8D20F4"/>
<stop offset="0.8423" stop-color="#A519F5"/>
<stop offset="0.9254" stop-color="#CB0DF5"/>
<stop offset="1" stop-color="#F400F6"/>
</linearGradient>
<linearGradient id="paint7_linear_2143_35055" x1="36.7362" y1="36.1208" x2="51.2969" y2="0.0458465" gradientUnits="userSpaceOnUse">
<stop stop-color="#000096"/>
<stop offset="0.3855" stop-color="#1600E1"/>
<stop offset="0.7346" stop-color="#8423F4"/>
<stop offset="0.7758" stop-color="#8D20F4"/>
<stop offset="0.8423" stop-color="#A519F5"/>
<stop offset="0.9254" stop-color="#CB0DF5"/>
<stop offset="1" stop-color="#F400F6"/>
</linearGradient>
<linearGradient id="paint8_linear_2143_35055" x1="32.6657" y1="34.4902" x2="47.2265" y2="-1.58466" gradientUnits="userSpaceOnUse">
<stop stop-color="#000096"/>
<stop offset="0.3855" stop-color="#1600E1"/>
<stop offset="0.7346" stop-color="#8423F4"/>
<stop offset="0.7758" stop-color="#8D20F4"/>
<stop offset="0.8423" stop-color="#A519F5"/>
<stop offset="0.9254" stop-color="#CB0DF5"/>
<stop offset="1" stop-color="#F400F6"/>
</linearGradient>
<linearGradient id="paint9_linear_2143_35055" x1="33.479" y1="34.8122" x2="48.0398" y2="-1.26268" gradientUnits="userSpaceOnUse">
<stop stop-color="#000096"/>
<stop offset="0.3855" stop-color="#1600E1"/>
<stop offset="0.7346" stop-color="#8423F4"/>
<stop offset="0.7758" stop-color="#8D20F4"/>
<stop offset="0.8423" stop-color="#A519F5"/>
<stop offset="0.9254" stop-color="#CB0DF5"/>
<stop offset="1" stop-color="#F400F6"/>
</linearGradient>
<linearGradient id="paint10_linear_2143_35055" x1="35.1082" y1="35.469" x2="49.669" y2="-0.605883" gradientUnits="userSpaceOnUse">
<stop stop-color="#000096"/>
<stop offset="0.3855" stop-color="#1600E1"/>
<stop offset="0.7346" stop-color="#8423F4"/>
<stop offset="0.7758" stop-color="#8D20F4"/>
<stop offset="0.8423" stop-color="#A519F5"/>
<stop offset="0.9254" stop-color="#CB0DF5"/>
<stop offset="1" stop-color="#F400F6"/>
</linearGradient>
<linearGradient id="paint11_linear_2143_35055" x1="34.2898" y1="35.147" x2="48.8505" y2="-0.927865" gradientUnits="userSpaceOnUse">
<stop stop-color="#000096"/>
<stop offset="0.3855" stop-color="#1600E1"/>
<stop offset="0.7346" stop-color="#8423F4"/>
<stop offset="0.7758" stop-color="#8D20F4"/>
<stop offset="0.8423" stop-color="#A519F5"/>
<stop offset="0.9254" stop-color="#CB0DF5"/>
<stop offset="1" stop-color="#F400F6"/>
</linearGradient>
</defs>
</svg>
