<svg width="27" height="28" viewBox="0 0 27 28" fill="none" xmlns="http://www.w3.org/2000/svg">
<path d="M21.7372 24.1502C21.7372 24.5092 22.0282 24.8002 22.3872 24.8002C22.7462 24.8002 23.0372 24.5092 23.0372 24.1502H21.7372ZM17.9096 17.4337V16.7837V17.4337ZM8.95423 17.4337V16.7837V17.4337ZM4.47656 21.9114H3.82656H4.47656ZM3.82656 24.1502C3.82656 24.5092 4.11758 24.8002 4.47656 24.8002C4.83555 24.8002 5.12656 24.5092 5.12656 24.1502H3.82656ZM23.0372 24.1502V21.9114H21.7372V24.1502H23.0372ZM23.0372 21.9114C23.0372 20.5514 22.497 19.2472 21.5354 18.2856L20.6161 19.2048C21.3339 19.9226 21.7372 20.8962 21.7372 21.9114H23.0372ZM21.5354 18.2856C20.5737 17.324 19.2695 16.7837 17.9096 16.7837V18.0837C18.9247 18.0837 19.8983 18.487 20.6161 19.2048L21.5354 18.2856ZM17.9096 16.7837H8.95423V18.0837H17.9096V16.7837ZM8.95423 16.7837C7.59428 16.7837 6.29004 17.324 5.32842 18.2856L6.24766 19.2048C6.96549 18.487 7.93907 18.0837 8.95423 18.0837V16.7837ZM5.32842 18.2856C4.3668 19.2472 3.82656 20.5514 3.82656 21.9114H5.12656C5.12656 20.8962 5.52983 19.9226 6.24766 19.2048L5.32842 18.2856ZM3.82656 21.9114V24.1502H5.12656V21.9114H3.82656ZM17.2596 8.4784C17.2596 10.5924 15.5458 12.3061 13.4319 12.3061V13.6061C16.2638 13.6061 18.5596 11.3103 18.5596 8.4784H17.2596ZM13.4319 12.3061C11.3179 12.3061 9.60423 10.5924 9.60423 8.4784H8.30423C8.30423 11.3103 10.6 13.6061 13.4319 13.6061V12.3061ZM9.60423 8.4784C9.60423 6.36444 11.3179 4.65073 13.4319 4.65073V3.35073C10.6 3.35073 8.30423 5.64647 8.30423 8.4784H9.60423ZM13.4319 4.65073C15.5458 4.65073 17.2596 6.36444 17.2596 8.4784H18.5596C18.5596 5.64647 16.2638 3.35073 13.4319 3.35073V4.65073Z" fill="white"/>
</svg>
