<svg width="25" height="25" viewBox="0 0 25 25" fill="none" xmlns="http://www.w3.org/2000/svg">
<path d="M12.6562 2.125V1.475V2.125ZM6.65625 8.125H6.00625H6.65625ZM3.65625 17.125L3.29569 16.5842C3.05737 16.7431 2.95114 17.0392 3.03414 17.3134C3.11714 17.5875 3.36982 17.775 3.65625 17.775V17.125ZM21.6562 17.125V17.775C21.9427 17.775 22.1954 17.5875 22.2784 17.3134C22.3614 17.0392 22.2551 16.7431 22.0168 16.5842L21.6562 17.125ZM14.9485 21.4512C15.1286 21.1406 15.0229 20.7429 14.7124 20.5627C14.4019 20.3826 14.0041 20.4883 13.824 20.7988L14.9485 21.4512ZM11.4885 20.7988C11.3084 20.4883 10.9106 20.3826 10.6001 20.5627C10.2896 20.7429 10.1839 21.1406 10.364 21.4512L11.4885 20.7988ZM19.3062 8.125C19.3062 6.36131 18.6056 4.66986 17.3585 3.42274L16.4393 4.34198C17.4426 5.3453 18.0063 6.70609 18.0063 8.125H19.3062ZM17.3585 3.42274C16.1114 2.17562 14.4199 1.475 12.6562 1.475V2.775C14.0752 2.775 15.436 3.33866 16.4393 4.34198L17.3585 3.42274ZM12.6562 1.475C10.8926 1.475 9.20111 2.17562 7.95399 3.42274L8.87323 4.34198C9.87655 3.33866 11.2373 2.775 12.6562 2.775V1.475ZM7.95399 3.42274C6.70687 4.66986 6.00625 6.36131 6.00625 8.125H7.30625C7.30625 6.70609 7.86991 5.3453 8.87323 4.34198L7.95399 3.42274ZM6.00625 8.125C6.00625 11.5292 5.27766 13.67 4.58562 14.9387C4.2387 15.5748 3.89745 15.9982 3.65313 16.2561C3.5308 16.3852 3.43234 16.4733 3.36904 16.526C3.33738 16.5524 3.31449 16.57 3.3018 16.5794C3.29545 16.5842 3.29165 16.5869 3.29057 16.5876C3.29003 16.588 3.29018 16.5879 3.29102 16.5873C3.29145 16.587 3.29205 16.5866 3.29282 16.5861C3.29321 16.5858 3.29365 16.5855 3.29412 16.5852C3.29436 16.5851 3.29476 16.5848 3.29488 16.5847C3.29528 16.5844 3.29569 16.5842 3.65625 17.125C4.01681 17.6658 4.01724 17.6655 4.01769 17.6652C4.01786 17.6651 4.01832 17.6648 4.01865 17.6646C4.01931 17.6642 4.02002 17.6637 4.02077 17.6632C4.02227 17.6622 4.02396 17.661 4.02582 17.6597C4.02955 17.6572 4.034 17.6541 4.03914 17.6505C4.04942 17.6432 4.06246 17.6338 4.07809 17.6222C4.10934 17.599 4.1509 17.5667 4.20128 17.5247C4.30204 17.4408 4.43795 17.3179 4.59687 17.1502C4.91505 16.8143 5.3238 16.3002 5.72688 15.5613C6.53484 14.08 7.30625 11.7208 7.30625 8.125H6.00625ZM3.65625 17.775H21.6562V16.475H3.65625V17.775ZM21.6562 17.125C22.0168 16.5842 22.0172 16.5844 22.0176 16.5847C22.0177 16.5848 22.0181 16.5851 22.0184 16.5852C22.0189 16.5855 22.0193 16.5858 22.0197 16.5861C22.0205 16.5866 22.0211 16.587 22.0215 16.5873C22.0223 16.5879 22.0225 16.588 22.0219 16.5876C22.0209 16.5869 22.017 16.5842 22.0107 16.5794C21.998 16.57 21.9751 16.5524 21.9435 16.526C21.8802 16.4733 21.7817 16.3852 21.6594 16.2561C21.4151 15.9982 21.0738 15.5748 20.7269 14.9387C20.0348 13.67 19.3062 11.5292 19.3062 8.125H18.0063C18.0063 11.7208 18.7777 14.08 19.5856 15.5613C19.9887 16.3002 20.3974 16.8143 20.7156 17.1502C20.8746 17.3179 21.0105 17.4408 21.1112 17.5247C21.1616 17.5667 21.2032 17.599 21.2344 17.6222C21.25 17.6338 21.2631 17.6432 21.2734 17.6505C21.2785 17.6541 21.2829 17.6572 21.2867 17.6597C21.2885 17.661 21.2902 17.6622 21.2917 17.6632C21.2925 17.6637 21.2932 17.6642 21.2938 17.6646C21.2942 17.6648 21.2946 17.6651 21.2948 17.6652C21.2953 17.6655 21.2957 17.6658 21.6562 17.125ZM13.824 20.7988C13.7053 21.0034 13.535 21.1732 13.3301 21.2913L13.9789 22.4178C14.3812 22.1861 14.7156 21.8527 14.9485 21.4512L13.824 20.7988ZM13.3301 21.2913C13.1251 21.4093 12.8928 21.4715 12.6562 21.4715V22.7715C13.1205 22.7715 13.5766 22.6495 13.9789 22.4178L13.3301 21.2913ZM12.6562 21.4715C12.4197 21.4715 12.1874 21.4093 11.9824 21.2913L11.3336 22.4178C11.7359 22.6495 12.192 22.7715 12.6562 22.7715V21.4715ZM11.9824 21.2913C11.7775 21.1732 11.6072 21.0034 11.4885 20.7988L10.364 21.4512C10.5969 21.8527 10.9313 22.1861 11.3336 22.4178L11.9824 21.2913Z" fill="#00F0FB"/>
</svg>
