<svg width="845" height="1239" viewBox="0 0 845 1239" fill="none" xmlns="http://www.w3.org/2000/svg">
<path d="M664.469 472.413L664.48 472.419L664.49 472.424C720.924 504.555 764.633 550.25 795.634 609.558L795.637 609.565L795.641 609.571C827.193 668.877 843 737.378 843 815.132C843 951.26 801.953 1055.44 720.096 1127.98L720.091 1127.99C638.779 1200.54 515.216 1237 349.022 1237C207.296 1237 91.658 1215.19 2 1171.7V905.194C49.856 926.968 103.59 944.968 163.192 959.202L163.196 959.203C224.52 973.716 277.286 980.994 321.467 980.994C382.944 980.994 430.484 968.128 463.81 942.113L463.818 942.107L463.826 942.1C497.244 915.445 513.843 876.352 513.843 825.164C513.843 777.804 496.915 740.687 462.978 714.07C429.071 687.476 377.887 674.35 309.778 674.35C257.983 674.35 202.088 684.067 142.107 703.457L22.9646 644.223L68.6612 2H761.172V273.055H347.352H345.529L345.36 274.869L330.331 436.223L330.084 438.877L332.7 438.373C376.119 430.013 406.873 425.583 425.066 425.031L425.096 425.031L425.126 425.029C443.462 423.916 460.399 423.36 475.939 423.36C545.75 423.36 608.577 439.722 664.469 472.413Z" stroke="#FF87FF" stroke-width="4"/>
</svg>
