<svg width="224" height="308" viewBox="0 0 224 308" fill="none" xmlns="http://www.w3.org/2000/svg">
<path d="M108.581 242.127H221.171V305.564H5.31544V254.603L78.712 180.511L78.7239 180.499L78.7355 180.487C99.8624 158.431 113.734 143.341 120.287 135.268L120.292 135.262L120.297 135.255C126.833 127.065 131.443 119.947 134.033 113.922C136.77 107.877 138.14 101.534 138.14 94.9109C138.14 86.5732 135.406 79.7883 129.803 74.7997C124.213 69.8227 116.494 67.467 106.923 67.467C96.9917 67.467 86.9886 70.3432 76.9368 75.9958C67.5129 81.2377 56.926 88.8905 45.1826 98.9149L2.79587 49.3856C17.7151 36.182 30.2245 26.7953 40.3447 21.1535L40.3533 21.1487L40.3618 21.1438C50.835 15.1693 62.201 10.6151 74.4674 7.4855C86.8493 4.36159 100.771 2.78906 116.248 2.78906C135.628 2.78906 152.816 6.19453 167.853 12.9562L167.859 12.9589C183.019 19.7152 194.655 29.3388 202.85 41.8115L202.857 41.8219L202.864 41.8323C211.197 54.1768 215.368 68.0578 215.368 83.5335C215.368 95.2224 213.871 105.989 210.895 115.846L210.891 115.859L210.888 115.871C208.046 125.734 203.572 135.488 197.449 145.134C191.321 154.65 183.122 164.753 172.827 175.44L172.818 175.45C162.66 186.139 140.826 206.496 107.246 236.569L106.581 237.165V238.059V240.127V242.127H108.581Z" stroke="#FF87FF" stroke-width="4"/>
</svg>
