<svg width="213" height="306" viewBox="0 0 213 306" fill="none" xmlns="http://www.w3.org/2000/svg">
<path d="M88.7665 304C72.8454 304 58.0955 302.853 44.5116 300.567C31.4607 298.348 17.292 294.344 2 288.539V226.374C14.2224 232.365 26.6326 236.89 39.2294 239.944L39.2408 239.946L39.2523 239.949C52.9411 243.098 65.5807 244.683 77.1617 244.683C94.9006 244.683 108.189 242.243 116.682 237.061L116.69 237.056C125.496 231.625 129.856 223.132 129.856 211.94C129.856 203.468 127.665 196.659 122.992 191.829C118.403 186.95 111.187 183.501 101.651 181.288C92.0688 178.929 79.6796 177.772 64.5389 177.772H48.2156V121.305H64.9461C85.479 121.305 101.181 118.69 111.818 113.248C117.166 110.512 121.291 107.032 124.073 102.761C126.862 98.4797 128.228 93.5183 128.228 87.9521C128.228 79.4706 124.883 72.9556 118.131 68.7506C111.728 64.6786 103.236 62.7425 92.8383 62.7425C73.9114 62.7425 54.4369 68.9232 34.442 81.1293L3.11698 30.7037C18.1964 20.5201 33.5563 13.2435 49.198 8.84807C65.5456 4.29247 84.2927 2 105.461 2C136.036 2 159.741 8.06502 176.796 19.9636C193.766 31.8031 202.204 48.0195 202.204 68.8144C202.204 86.8283 196.721 102.241 185.783 115.158C174.838 127.948 158.935 137.342 137.903 143.236L136.443 143.645V145.162V146.383V148.148L138.194 148.368C162.798 151.46 180.959 158.789 192.955 170.13C204.899 181.421 210.958 196.903 210.958 216.826C210.958 243.889 200.26 265.063 178.805 280.558L178.8 280.562C157.411 296.106 127.478 304 88.7665 304Z" stroke="#FF87FF" stroke-width="4"/>
</svg>
