<svg width="173" height="306" viewBox="0 0 173 306" fill="none" xmlns="http://www.w3.org/2000/svg">
<path d="M128.311 2H201.651V185.023V187.023H203.651H235.349V244.767H203.651H201.651V246.767V304H124.023V246.767V244.767H122.023H2V186.688L128.311 2ZM122.023 187.023H124.023V185.023V149.442C124.023 142.782 124.231 133.814 124.649 122.528C124.928 116.817 125.171 112.476 125.379 109.5C125.483 108.008 125.577 106.876 125.66 106.092C125.702 105.698 125.739 105.415 125.77 105.229C125.773 105.206 125.777 105.186 125.78 105.168L127.143 102.442H123.907H121.605H120.301L119.775 103.634C115.073 114.282 109.753 124.231 103.817 133.483L69.9215 183.908L67.8271 187.023H71.5814H122.023ZM125.801 105.066C125.801 105.064 125.8 105.07 125.797 105.082C125.797 105.079 125.798 105.077 125.798 105.076C125.799 105.07 125.8 105.067 125.801 105.066Z" stroke="#FF87FF" stroke-width="4"/>
</svg>
