<svg width="76" height="84" viewBox="0 0 76 84" fill="none" xmlns="http://www.w3.org/2000/svg">
<path d="M35.1797 40.6328L0.351562 77.1219C0.742637 78.508 1.44545 79.7863 2.40628 80.8592C3.36712 81.932 4.56053 82.7709 5.89528 83.3118C7.23004 83.8528 8.6708 84.0813 10.1074 83.9801C11.5441 83.8788 12.9385 83.4505 14.1842 82.7277L53.3724 60.4086L35.1797 40.6328Z" fill="#EA4335"/>
<path d="M70.4126 34.4328L53.4657 24.7266L34.3906 41.4659L53.5435 60.3593L70.3607 50.7569C71.8506 49.9768 73.0986 48.8038 73.9693 47.365C74.84 45.9262 75.3004 44.2766 75.3004 42.5948C75.3004 40.9131 74.84 39.2634 73.9693 37.8246C73.0986 36.3858 71.8506 35.2129 70.3607 34.4328H70.4126Z" fill="#FBBC04"/>
<path d="M0.350594 7.87109C0.140065 8.64938 0.0353138 9.45247 0.0391649 10.2587V74.7246C0.0412707 75.5304 0.145921 76.3328 0.350594 77.1122L36.3726 41.5574L0.350594 7.87109Z" fill="#4285F4"/>
<path d="M35.4393 42.4966L53.4503 24.7192L14.314 2.29625C12.8417 1.43395 11.1671 0.97726 9.46087 0.972675C7.4002 0.968591 5.39471 1.63843 3.75011 2.88008C2.10551 4.12172 0.912018 5.86707 0.351562 7.85007L35.4393 42.4966Z" fill="#34A853"/>
</svg>
