<svg width="809" height="974" viewBox="0 0 809 974" fill="none" xmlns="http://www.w3.org/2000/svg">
<rect width="808.516" height="973.769" rx="8" fill="#1A98FF"/>
<path d="M352.444 163.119C346.394 163.119 341.497 161.037 337.896 157.047C334.295 153.057 332.423 147.506 332.423 140.567C332.423 133.628 334.295 128.251 337.896 124.087C341.497 120.097 346.394 118.016 352.444 118.016C358.493 118.016 363.391 120.097 366.991 124.087C370.592 128.077 372.465 133.628 372.465 140.567C372.465 147.506 370.592 152.884 366.991 157.047C363.391 161.037 358.493 163.119 352.444 163.119Z" fill="#000008"/>
<path d="M340.921 332.95C338.905 332.95 337.32 332.429 336.456 331.215C335.448 330.001 335.016 328.266 335.016 325.837V193.13C335.016 190.354 335.448 188.62 336.456 187.579C337.464 186.538 338.905 186.017 340.921 186.017H363.823C365.983 186.017 367.568 186.538 368.432 187.579C369.296 188.62 369.728 190.528 369.728 193.13V325.837C369.728 328.266 369.296 330.174 368.432 331.215C367.568 332.429 365.983 332.95 363.823 332.95H340.921Z" fill="#000008"/>
<path fill-rule="evenodd" clip-rule="evenodd" d="M99.3622 390.719C100.226 391.76 101.811 392.28 103.827 392.28H126.873C129.033 392.28 130.618 391.76 131.482 390.719C132.346 389.678 132.778 387.77 132.778 385.168V322.197C136.955 326.707 141.997 330.176 147.902 332.605C153.663 335.207 160.001 336.421 166.483 336.421C176.421 336.421 185.207 333.125 192.841 326.707C200.475 320.115 206.524 311.094 210.989 299.124C215.31 287.155 217.615 273.277 217.615 257.317C217.615 234.072 213.15 215.683 204.076 201.979C195.001 188.275 182.758 181.509 167.347 181.509C160.289 181.509 153.375 183.07 146.606 186.366C139.836 189.489 134.075 193.999 129.322 199.55L127.593 192.091C126.873 187.928 124.568 185.846 120.967 185.846H103.827C101.811 185.846 100.37 186.366 99.3622 187.407C98.354 188.448 97.9219 190.183 97.9219 192.958V385.168C97.9219 387.77 98.354 389.678 99.3622 390.719ZM175.989 293.573C171.812 300.859 165.186 304.502 156.256 304.502C147.614 304.502 139.836 301.9 132.778 296.869V221.061C140.124 215.857 147.902 213.255 156.256 213.255C165.33 213.255 171.956 216.898 176.133 224.184C180.31 231.47 182.326 243.092 182.326 259.052C182.326 274.838 180.166 286.287 175.989 293.573Z" fill="#000008"/>
<path d="M242.274 331.222C243.138 332.436 244.722 332.957 246.739 332.957L269.784 332.61C271.945 332.61 273.529 332.089 274.394 330.875C275.258 329.834 275.69 327.926 275.69 325.497V228.699C279.291 226.791 283.9 225.229 289.085 224.015C294.414 222.801 298.879 222.107 302.48 222.107C305.073 222.107 307.378 222.28 309.106 222.454L309.97 222.542C311.32 222.682 312.472 222.801 313.427 222.801C315.587 222.801 317.172 222.28 318.036 221.066C318.9 220.025 319.332 218.117 319.332 215.688V191.575C319.332 188.973 318.9 187.065 317.892 186.024C317.028 184.983 315.299 184.463 313.139 184.463H309.826C303.489 184.463 297.439 186.198 291.822 189.841C286.204 193.484 280.155 199.382 273.817 207.882L270.649 192.269C269.928 188.106 267.624 186.024 264.023 186.024H246.739C244.722 186.024 243.282 186.545 242.274 187.586C241.265 188.626 240.833 190.361 240.833 193.137V325.844C240.833 328.273 241.265 330.008 242.274 331.222Z" fill="#000008"/>
<path d="M400.187 331.264C401.051 332.478 402.635 332.998 404.652 332.998L427.986 333.172C430.146 333.172 431.731 332.651 432.595 331.437C433.459 330.396 433.891 328.488 433.891 326.059V221.801C442.533 216.597 451.319 213.995 460.249 213.995C469.9 213.995 474.797 220.587 474.797 233.598V326.059C474.797 328.488 475.229 330.223 476.237 331.437C477.102 332.651 478.686 333.172 480.702 333.172H503.604C505.764 333.172 507.349 332.651 508.213 331.437C509.077 330.396 509.509 328.488 509.509 326.059V221.455C518.296 216.424 526.938 213.995 535.58 213.995C545.23 213.995 550.127 220.587 550.127 233.598V326.059C550.127 328.488 550.703 330.223 551.568 331.437C552.432 332.651 554.016 333.172 556.033 333.172H578.934C581.095 333.172 582.679 332.651 583.543 331.437C584.408 330.396 584.84 328.488 584.84 326.059V224.404C584.84 211.046 581.815 200.464 575.621 193.005C569.572 185.545 560.786 181.729 549.695 181.729C542.061 181.729 534.572 183.29 527.514 186.066C520.456 188.841 512.678 193.525 504.612 200.117C498.707 187.801 488.624 181.729 474.221 181.729C467.019 181.729 460.105 183.117 453.336 185.892C446.422 188.668 438.932 193.352 430.434 200.117L428.562 192.311C427.842 188.148 425.537 186.066 421.936 186.066H404.652C402.635 186.066 401.195 186.586 400.187 187.627C399.179 188.668 398.747 190.403 398.747 193.178V325.886C398.747 328.314 399.179 330.049 400.187 331.264Z" fill="#000008"/>
<path fill-rule="evenodd" clip-rule="evenodd" d="M666.972 337.419C647.527 337.419 632.691 331.868 620.737 317.296C612.959 307.755 605.613 289.887 605.613 259.529C605.613 234.896 612.094 216.16 622.609 202.629C633.124 188.925 649.255 182.68 664.379 182.68C683.392 182.68 694.626 187.884 703.269 198.293C704.709 200.027 713.351 210.783 713.351 228.13L713.351 228.838C713.357 234.531 713.363 240.619 710.182 248.947C707.878 254.845 704.421 258.488 703.413 259.529C689.297 275.142 661.643 274.101 652.28 273.407L637.157 270.631C638.165 283.295 641.045 293.183 647.527 298.734C653.577 304.112 660.202 306.193 673.741 306.193C680.511 306.193 689.585 304.632 701.252 300.816C701.427 300.763 701.667 300.695 701.929 300.62C702.534 300.448 703.255 300.243 703.557 300.122C703.61 300.122 703.693 300.116 703.798 300.108C704.257 300.075 705.131 300.013 705.717 300.295C707.013 300.816 708.454 302.204 708.454 306.54V319.724C708.454 322.847 708.166 324.929 707.446 326.143C706.725 327.357 705.285 328.572 703.269 329.612C690.882 334.817 679.647 337.419 666.972 337.419ZM681.519 229.518C681.519 215.467 673.309 211.477 663.227 211.477C656.601 211.477 650.12 214.426 645.655 220.15C641.333 225.875 638.741 234.375 637.589 245.304C637.589 245.304 655.449 249.294 668.412 246.692C675.182 245.304 681.519 240.794 681.519 229.518Z" fill="#000008"/>
<path fill-rule="evenodd" clip-rule="evenodd" d="M466.57 606.511C478.99 621.65 494.403 627.417 514.605 627.417C527.773 627.417 539.595 624.714 552.314 619.307C554.409 618.226 555.906 616.964 556.654 615.703C557.402 614.441 557.701 612.278 557.701 609.034V595.337C557.701 590.831 556.205 589.39 554.858 588.849C554.249 588.555 553.341 588.621 552.864 588.655C552.756 588.663 552.669 588.669 552.613 588.669C552.3 588.794 551.55 589.008 550.922 589.187C550.65 589.264 550.4 589.335 550.219 589.39C538.098 593.355 528.671 594.977 521.638 594.977C507.572 594.977 500.688 592.814 494.403 587.227C487.669 581.46 484.677 571.187 483.629 558.03L499.341 560.914C509.068 561.635 537.799 562.716 552.464 546.496C553.511 545.415 557.103 541.63 559.497 535.502C562.801 526.85 562.795 520.524 562.789 514.61L562.789 513.875C562.789 495.853 553.811 484.679 552.314 482.877C543.336 472.063 531.664 466.656 511.911 466.656C496.199 466.656 479.439 473.144 468.515 487.382C457.592 501.44 450.858 520.904 450.858 546.496C450.858 578.036 458.49 596.599 466.57 606.511ZM510.714 496.574C521.189 496.574 529.718 500.719 529.718 515.317C529.718 527.032 523.134 531.718 516.101 533.159C502.633 535.863 484.078 531.718 484.078 531.718C485.275 520.363 487.969 511.532 492.458 505.585C497.097 499.638 503.831 496.574 510.714 496.574Z" fill="#000008"/>
<path d="M153.263 622.673C151.617 622.673 150.271 622.493 149.223 621.952C148.176 621.411 147.278 620.69 146.53 619.609C145.781 618.528 145.033 616.906 144.435 614.923L101.937 481.737C101.69 480.844 101.443 480.006 101.22 479.253C101.039 478.637 100.874 478.078 100.74 477.592C100.44 476.33 100.291 475.249 100.291 474.348C100.291 471.284 101.937 469.842 105.229 469.842H130.069C132.763 469.842 134.708 470.383 135.905 471.644C137.102 472.906 138.15 474.888 138.748 477.592L164.337 583.564L190.374 477.592C190.973 474.708 192.02 472.726 193.217 471.644C194.415 470.563 196.36 469.842 199.053 469.842H223.145C226.438 469.842 228.084 471.284 228.084 474.348C228.084 475.429 227.934 476.51 227.635 477.592C227.462 478.318 227.24 479.045 226.997 479.841C226.818 480.426 226.628 481.05 226.438 481.737L183.94 614.923C183.341 616.906 182.593 618.528 181.845 619.609C181.096 620.69 180.199 621.592 179.301 621.952C178.403 622.312 176.907 622.673 175.111 622.673H153.263Z" fill="#000008"/>
<path d="M246.52 439.928C250.261 444.073 255.348 446.235 261.633 446.235C267.918 446.235 272.856 444.073 276.747 439.928C280.488 435.602 282.433 430.015 282.433 422.806C282.433 415.597 280.488 409.83 276.747 405.685C273.006 401.54 267.918 399.377 261.633 399.377C255.348 399.377 250.261 401.54 246.52 405.685C242.779 410.01 240.833 415.597 240.833 422.806C240.833 430.015 242.779 435.782 246.52 439.928Z" fill="#000008"/>
<path d="M244.874 620.874C245.921 622.135 247.567 622.676 249.662 622.676H273.455C275.7 622.676 277.346 622.135 278.243 620.874C279.141 619.792 279.59 617.81 279.59 615.287V477.414C279.59 474.711 279.141 472.729 278.243 471.647C277.346 470.566 275.7 470.025 273.455 470.025H249.662C247.418 470.025 245.921 470.566 244.874 471.647C243.826 472.729 243.377 474.531 243.377 477.414V615.287C243.377 617.81 243.826 619.612 244.874 620.874Z" fill="#000008"/>
<path fill-rule="evenodd" clip-rule="evenodd" d="M355.883 625.897C345.108 625.897 335.681 622.473 327.75 615.804C319.819 609.136 313.684 599.764 309.494 588.05C305.304 576.155 303.209 562.458 303.209 546.958C303.209 522.267 308.147 502.443 317.874 487.664C327.601 472.886 340.619 465.316 356.631 465.316C369.649 465.316 381.022 469.822 390.599 478.833V408.906C390.599 406.022 391.048 404.22 392.096 403.139C393.143 402.057 394.639 401.517 396.884 401.517H420.677C422.921 401.517 424.568 402.057 425.465 403.139C426.363 404.22 426.812 406.202 426.812 408.906V615.264C426.812 617.787 426.363 619.769 425.465 620.851C424.568 622.112 422.921 622.653 420.677 622.653H400.775C398.829 622.653 397.333 622.112 396.136 621.211C395.088 620.13 394.34 618.508 393.742 616.165L392.245 609.316C382.219 620.31 369.949 625.897 355.883 625.897ZM367.854 593.096C375.785 593.096 383.416 590.212 390.749 584.806V505.867C383.566 500.821 375.485 498.478 366.208 498.478C357.379 498.478 350.944 502.443 346.605 510.373C342.265 518.302 340.17 530.197 340.17 546.057C340.17 562.097 342.415 573.812 347.054 581.742C351.393 589.131 358.426 593.096 367.854 593.096Z" fill="#000008"/>
<path fill-rule="evenodd" clip-rule="evenodd" d="M596.957 605.744C608.03 619.982 623.443 627.191 643.196 627.191C662.948 627.191 678.361 619.982 689.435 605.744C700.508 591.506 706.045 571.682 706.045 546.09C706.045 520.858 700.508 501.033 689.435 486.796C678.361 472.558 662.948 465.349 643.196 465.349C623.443 465.349 608.03 472.558 596.957 486.796C585.883 501.033 580.347 520.678 580.347 546.09C580.347 571.682 585.883 591.506 596.957 605.744ZM669.233 546.09C669.233 577.809 660.554 593.669 643.196 593.669C625.837 593.669 617.158 577.809 617.158 546.09C617.158 514.55 625.837 498.871 643.196 498.871C660.554 498.871 669.233 514.55 669.233 546.09Z" fill="#000008"/>
<path d="M101.08 704.429V706.718C101.352 708.68 102.166 710.643 103.66 712.442C184.043 806.637 290.224 863.219 408.218 863.219C492.402 863.219 590.164 828.877 657.512 764.282C668.646 753.489 659.141 737.462 647.736 743.84C572.106 785.541 489.958 805.656 415.278 805.656C304.481 805.656 197.213 766.244 110.585 700.667C109.091 699.523 107.598 699.032 106.24 699.032C103.524 699.032 101.487 701.321 101.08 704.429Z" fill="#000008"/>
<path d="M598.507 721.438C598.778 719.312 600 716.695 602.444 714.569C622.268 696.581 648.746 690.53 671.014 690.366C691.653 690.366 708.218 695.6 711.748 701.323C719.081 713.261 709.847 795.191 673.594 834.276C668.027 840.327 662.731 837.056 665.175 829.206C665.409 828.439 665.651 827.643 665.902 826.822C674.232 799.482 691.264 743.591 682.827 729.778C674.137 715.551 625.799 722.91 604.074 726.344C600.679 726.834 598.778 725.199 598.507 722.746V721.438Z" fill="#000008"/>
</svg>
