<svg width="27" height="27" viewBox="0 0 27 27" fill="none" xmlns="http://www.w3.org/2000/svg">
<path d="M23.5167 18.0018L24.1667 18.0025V18.0018H23.5167ZM23.5167 9.04647H24.1667V9.04581L23.5167 9.04647ZM22.3973 7.10988L22.7223 6.54696L22.7197 6.54553L22.3973 7.10988ZM14.5613 2.63222L14.2363 3.19514L14.2389 3.19658L14.5613 2.63222ZM12.3225 2.63222L12.645 3.19659L12.6475 3.19514L12.3225 2.63222ZM4.4866 7.10988L4.16411 6.54552L4.1616 6.54697L4.4866 7.10988ZM3.36719 9.04647L2.71719 9.04581V9.04647H3.36719ZM3.36719 18.0018H2.71719L2.71719 18.0025L3.36719 18.0018ZM4.4866 19.9384L4.1616 20.5013L4.16411 20.5027L4.4866 19.9384ZM12.3225 24.4161L12.6475 23.8531L12.645 23.8517L12.3225 24.4161ZM14.5613 24.4161L14.2389 23.8517L14.2363 23.8531L14.5613 24.4161ZM22.3973 19.9384L22.7197 20.5028L22.7223 20.5013L22.3973 19.9384ZM3.9949 7.31964C3.68416 7.13988 3.28654 7.24607 3.10679 7.55681C2.92703 7.86755 3.03322 8.26517 3.34396 8.44493L3.9949 7.31964ZM13.4419 13.5353L13.1165 14.098C13.3178 14.2145 13.5661 14.2145 13.7674 14.098L13.4419 13.5353ZM23.5399 8.44493C23.8506 8.26517 23.9568 7.86755 23.7771 7.55681C23.5973 7.24607 23.1997 7.13988 22.889 7.31964L23.5399 8.44493ZM12.7919 24.8078C12.7919 25.1668 13.0829 25.4578 13.4419 25.4578C13.8009 25.4578 14.0919 25.1668 14.0919 24.8078H12.7919ZM14.0919 13.5241C14.0919 13.1652 13.8009 12.8741 13.4419 12.8741C13.0829 12.8741 12.7919 13.1652 12.7919 13.5241H14.0919ZM24.1667 18.0018V9.04647H22.8667V18.0018H24.1667ZM24.1667 9.04581C24.1662 8.53921 24.0324 8.04166 23.7789 7.60307L22.6534 8.25365C22.7928 8.49487 22.8664 8.76852 22.8667 9.04714L24.1667 9.04581ZM23.7789 7.60307C23.5254 7.16448 23.161 6.80026 22.7223 6.54697L22.0723 7.6728C22.3136 7.81211 22.514 8.01243 22.6534 8.25365L23.7789 7.60307ZM22.7197 6.54553L14.8838 2.06786L14.2389 3.19658L22.0748 7.67424L22.7197 6.54553ZM14.8863 2.06931C14.4472 1.81576 13.949 1.68228 13.4419 1.68228V2.98228C13.7208 2.98228 13.9948 3.05569 14.2363 3.19514L14.8863 2.06931ZM13.4419 1.68228C12.9348 1.68228 12.4367 1.81576 11.9975 2.06931L12.6475 3.19514C12.889 3.05569 13.163 2.98228 13.4419 2.98228V1.68228ZM12 2.06786L4.16411 6.54553L4.80909 7.67424L12.645 3.19658L12 2.06786ZM4.1616 6.54697C3.72288 6.80026 3.35848 7.16448 3.10496 7.60307L4.23046 8.25365C4.36989 8.01243 4.57031 7.81211 4.8116 7.6728L4.1616 6.54697ZM3.10496 7.60307C2.85144 8.04166 2.71771 8.53921 2.71719 9.04581L4.01719 9.04714C4.01747 8.76852 4.09102 8.49487 4.23046 8.25365L3.10496 7.60307ZM2.71719 9.04647V18.0018H4.01719V9.04647H2.71719ZM2.71719 18.0025C2.71771 18.5091 2.85144 19.0066 3.10496 19.4452L4.23046 18.7946C4.09102 18.5534 4.01747 18.2798 4.01719 18.0011L2.71719 18.0025ZM3.10496 19.4452C3.35848 19.8838 3.72288 20.248 4.1616 20.5013L4.8116 19.3755C4.57031 19.2362 4.36989 19.0358 4.23046 18.7946L3.10496 19.4452ZM4.16411 20.5027L12 24.9804L12.645 23.8517L4.80909 19.374L4.16411 20.5027ZM11.9975 24.979C12.4367 25.2325 12.9348 25.366 13.4419 25.366V24.066C13.163 24.066 12.889 23.9926 12.6475 23.8531L11.9975 24.979ZM13.4419 25.366C13.949 25.366 14.4472 25.2325 14.8863 24.979L14.2363 23.8531C13.9948 23.9926 13.7208 24.066 13.4419 24.066V25.366ZM14.8838 24.9804L22.7197 20.5027L22.0748 19.374L14.2389 23.8517L14.8838 24.9804ZM22.7223 20.5013C23.161 20.248 23.5254 19.8838 23.7789 19.4452L22.6534 18.7946C22.514 19.0358 22.3135 19.2362 22.0723 19.3755L22.7223 20.5013ZM23.7789 19.4452C24.0324 19.0066 24.1662 18.5091 24.1667 18.0025L22.8667 18.0011C22.8664 18.2798 22.7928 18.5534 22.6534 18.7946L23.7789 19.4452ZM3.34396 8.44493L13.1165 14.098L13.7674 12.9727L3.9949 7.31964L3.34396 8.44493ZM13.7674 14.098L23.5399 8.44493L22.889 7.31964L13.1165 12.9727L13.7674 14.098ZM14.0919 24.8078V13.5241H12.7919V24.8078H14.0919Z" fill="#00F0FB"/>
</svg>
