<svg width="27" height="28" viewBox="0 0 27 28" fill="none" xmlns="http://www.w3.org/2000/svg">
<path d="M13.4319 16.6009C15.0056 16.6009 16.2814 15.3981 16.2814 13.9143C16.2814 12.4305 15.0056 11.2277 13.4319 11.2277C11.8581 11.2277 10.5823 12.4305 10.5823 13.9143C10.5823 15.3981 11.8581 16.6009 13.4319 16.6009Z" stroke="#E4E4E4" stroke-width="1.11942"/>
<path d="M15.1087 5.09532C14.7596 4.95898 14.3171 4.95898 13.4319 4.95898C12.5467 4.95898 12.1042 4.95898 11.755 5.09532C11.2896 5.2771 10.9198 5.62578 10.727 6.06464C10.6389 6.26498 10.6045 6.49796 10.591 6.8378C10.5712 7.33723 10.2996 7.79952 9.84048 8.0494C9.38142 8.29929 8.82097 8.28995 8.35231 8.05642C8.03341 7.8975 7.80218 7.80912 7.57415 7.78083C7.07463 7.71882 6.56945 7.84644 6.16973 8.13562C5.86994 8.3525 5.64866 8.71386 5.20609 9.43658C4.76352 10.1593 4.54223 10.5207 4.49291 10.8739C4.42715 11.3448 4.56251 11.8211 4.86923 12.198C5.00922 12.3701 5.20597 12.5146 5.51133 12.6955C5.96024 12.9615 6.24907 13.4145 6.24905 13.9143C6.24902 14.4141 5.96019 14.8671 5.51132 15.133C5.20592 15.3139 5.00914 15.4586 4.86913 15.6306C4.56242 16.0074 4.42706 16.4837 4.49282 16.9546C4.54214 17.3078 4.76342 17.6693 5.20599 18.392C5.64857 19.1147 5.86986 19.4761 6.16964 19.6929C6.56935 19.9821 7.07454 20.1097 7.57406 20.0477C7.80207 20.0194 8.03329 19.931 8.35217 19.7722C8.82085 19.5386 9.38134 19.5293 9.84044 19.7792C10.2995 20.0291 10.5712 20.4914 10.591 20.9909C10.6045 21.3307 10.6389 21.5637 10.727 21.764C10.9198 22.2028 11.2896 22.5515 11.755 22.7333C12.1042 22.8696 12.5467 22.8696 13.4319 22.8696C14.3171 22.8696 14.7596 22.8696 15.1087 22.7333C15.5742 22.5515 15.944 22.2028 16.1368 21.764C16.2248 21.5637 16.2593 21.3307 16.2728 20.9908C16.2925 20.4914 16.5642 20.0291 17.0233 19.7792C17.4823 19.5292 18.0428 19.5386 18.5116 19.7722C18.8304 19.931 19.0616 20.0193 19.2896 20.0476C19.7891 20.1097 20.2943 19.9821 20.694 19.6929C20.9938 19.476 21.2151 19.1147 21.6576 18.3919C22.1003 17.6692 22.3216 17.3078 22.3709 16.9546C22.4366 16.4837 22.3012 16.0073 21.9945 15.6305C21.8545 15.4585 21.6577 15.3138 21.3524 15.133C20.9036 14.8671 20.6147 14.414 20.6147 13.9142C20.6147 13.4144 20.9036 12.9616 21.3524 12.6957C21.6578 12.5147 21.8546 12.3701 21.9946 12.198C22.3013 11.8212 22.4367 11.3449 22.371 10.8739C22.3217 10.5207 22.1004 10.1594 21.6577 9.43665C21.2152 8.71393 20.9939 8.35256 20.6941 8.13568C20.2944 7.8465 19.7892 7.71888 19.2897 7.78089C19.0617 7.80919 18.8305 7.89755 18.5116 8.05645C18.0429 8.29 17.4824 8.29934 17.0233 8.04943C16.5642 7.79953 16.2925 7.33721 16.2728 6.83776C16.2593 6.49794 16.2248 6.26497 16.1368 6.06464C15.944 5.62578 15.5742 5.2771 15.1087 5.09532Z" stroke="#E4E4E4" stroke-width="1.11942"/>
</svg>
