<svg width="900" height="1239" viewBox="0 0 900 1239" fill="none" xmlns="http://www.w3.org/2000/svg">
<path d="M437.883 968.637H898V1237H15.3705V1022.6L313.121 721.58L313.133 721.568L313.145 721.556C398.372 632.449 454.14 571.68 480.384 539.301L480.389 539.295L480.394 539.288C506.621 506.372 524.848 478.09 534.979 454.464C545.675 430.819 551.025 406.037 551.025 380.138C551.025 347.914 540.541 322.272 519.437 303.453C498.346 284.646 468.84 275.376 431.198 275.376C392.357 275.376 353.026 286.634 313.227 309.05C274.471 330.639 230.577 362.597 181.551 404.881L2.79191 195.688C65.0588 140.157 117.371 100.599 159.749 76.9384L159.758 76.9336L159.766 76.9288C202.499 52.5155 248.848 33.9227 298.82 21.1545C349.327 8.39193 405.983 2 468.802 2C547.674 2 617.861 15.8821 679.402 43.597L679.408 43.5998C741.491 71.3093 789.367 110.896 823.119 162.343L823.126 162.353L823.133 162.363C857.442 213.263 874.602 270.518 874.602 334.187C874.602 381.917 868.496 426 856.302 466.45L856.299 466.462L856.295 466.474C844.655 506.93 826.355 546.858 801.378 586.258C776.397 625.109 743.06 666.222 701.344 709.597L701.335 709.607C660.174 752.983 571.934 835.363 436.548 956.794L435.883 957.39V958.283V966.637V968.637H437.883Z" stroke="#FF87FF" stroke-width="4"/>
</svg>
