<svg width="13" height="12" viewBox="0 0 13 12" fill="none" xmlns="http://www.w3.org/2000/svg">
<g clip-path="url(#clip0_567_19662)">
<path d="M12.1963 4.34627C12.1536 4.21872 12.0431 4.12579 11.9101 4.10534L8.38081 3.5661L6.79949 0.19751C6.74029 0.0715777 6.61364 -0.00878906 6.47461 -0.00878906C6.33558 -0.00878906 6.20911 0.0715777 6.14974 0.19751L4.56841 3.5661L1.03909 4.10552C0.906162 4.12579 0.795837 4.2189 0.752963 4.34644C0.710268 4.47381 0.742379 4.61445 0.836379 4.71079L3.40058 7.34011L2.7946 11.0542C2.77236 11.1898 2.82958 11.3263 2.94206 11.4053C3.00377 11.4489 3.07607 11.4709 3.14854 11.4709C3.2081 11.4709 3.26801 11.4559 3.32219 11.4261L6.47443 9.68258L9.62668 11.4261C9.68085 11.4559 9.74077 11.4709 9.80032 11.4709C9.8728 11.4709 9.94527 11.4489 10.0068 11.4053C10.1193 11.3263 10.1765 11.1898 10.1543 11.0542L9.54828 7.34011L12.1125 4.71079C12.2067 4.61427 12.239 4.47363 12.1963 4.34627Z" fill="#EABA12"/>
</g>
<defs>
<clipPath id="clip0_567_19662">
<rect width="11.481" height="11.481" fill="white" transform="translate(0.734375 -0.00878906)"/>
</clipPath>
</defs>
</svg>
