<svg width="27" height="28" viewBox="0 0 27 28" fill="none" xmlns="http://www.w3.org/2000/svg">
<g clip-path="url(#clip0_305_18471)">
<path d="M1.12891 1.00894C0.769921 1.00894 0.478906 1.29995 0.478906 1.65894C0.478906 2.01792 0.769921 2.30894 1.12891 2.30894V1.00894ZM5.60657 1.65894L6.24393 1.53137C6.18313 1.22759 5.91638 1.00894 5.60657 1.00894V1.65894ZM8.6066 16.6479L9.24415 16.5213L9.24396 16.5203L8.6066 16.6479ZM10.8454 18.4502L10.8454 17.8001L10.833 17.8003L10.8454 18.4502ZM21.7262 18.4502L21.7386 17.8002H21.7262V18.4502ZM23.965 16.6479L24.6026 16.7745L24.6035 16.7697L23.965 16.6479ZM25.7561 7.25601L26.3945 7.37778C26.4308 7.18749 26.3804 6.99093 26.2569 6.84168C26.1334 6.69242 25.9498 6.60601 25.7561 6.60601V7.25601ZM6.72599 6.60601C6.367 6.60601 6.07599 6.89703 6.07599 7.25601C6.07599 7.615 6.367 7.90601 6.72599 7.90601V6.60601ZM10.5536 24.0473C10.5536 24.3065 10.3435 24.5167 10.0842 24.5167V25.8167C11.0615 25.8167 11.8536 25.0245 11.8536 24.0473H10.5536ZM10.0842 24.5167C9.82498 24.5167 9.61482 24.3065 9.61482 24.0473H8.31482C8.31482 25.0245 9.10701 25.8167 10.0842 25.8167V24.5167ZM9.61482 24.0473C9.61482 23.788 9.82498 23.5778 10.0842 23.5778V22.2778C9.10701 22.2778 8.31482 23.07 8.31482 24.0473H9.61482ZM10.0842 23.5778C10.3435 23.5778 10.5536 23.788 10.5536 24.0473H11.8536C11.8536 23.07 11.0615 22.2778 10.0842 22.2778V23.5778ZM22.8672 24.0473C22.8672 24.3065 22.6571 24.5167 22.3978 24.5167V25.8167C23.375 25.8167 24.1672 25.0245 24.1672 24.0473H22.8672ZM22.3978 24.5167C22.1386 24.5167 21.9284 24.3065 21.9284 24.0473H20.6284C20.6284 25.0245 21.4206 25.8167 22.3978 25.8167V24.5167ZM21.9284 24.0473C21.9284 23.788 22.1386 23.5778 22.3978 23.5778V22.2778C21.4206 22.2778 20.6284 23.07 20.6284 24.0473H21.9284ZM22.3978 23.5778C22.6571 23.5778 22.8672 23.788 22.8672 24.0473H24.1672C24.1672 23.07 23.375 22.2778 22.3978 22.2778V23.5778ZM1.12891 2.30894H5.60657V1.00894H1.12891V2.30894ZM4.96921 1.7865L7.96924 16.7755L9.24396 16.5203L6.24393 1.53137L4.96921 1.7865ZM7.96906 16.7745C8.10114 17.4395 8.46292 18.0369 8.99105 18.4621L9.80623 17.4494C9.51577 17.2156 9.31679 16.887 9.24415 16.5213L7.96906 16.7745ZM8.99105 18.4621C9.51918 18.8872 10.18 19.113 10.8579 19.1001L10.833 17.8003C10.4602 17.8074 10.0967 17.6832 9.80623 17.4494L8.99105 18.4621ZM10.8454 19.1002H21.7262V17.8002H10.8454V19.1002ZM21.7137 19.1001C22.3916 19.113 23.0524 18.8872 23.5805 18.4621L22.7654 17.4494C22.4749 17.6832 22.1114 17.8074 21.7386 17.8003L21.7137 19.1001ZM23.5805 18.4621C24.1087 18.0369 24.4704 17.4395 24.6025 16.7745L23.3274 16.5213C23.2548 16.887 23.0558 17.2156 22.7654 17.4494L23.5805 18.4621ZM24.6035 16.7697L26.3945 7.37778L25.1176 7.13425L23.3265 16.5262L24.6035 16.7697ZM25.7561 6.60601H6.72599V7.90601H25.7561V6.60601Z" fill="white"/>
</g>
<defs>
<clipPath id="clip0_305_18471">
<rect width="26.866" height="26.866" fill="white" transform="translate(0.0078125 0.539551)"/>
</clipPath>
</defs>
</svg>
