<svg width="27" height="28" viewBox="0 0 27 28" fill="none" xmlns="http://www.w3.org/2000/svg">
<g clip-path="url(#clip0_305_18476)">
<path d="M18.3896 24.4958C18.3896 24.8548 18.6806 25.1458 19.0396 25.1458C19.3985 25.1458 19.6896 24.8548 19.6896 24.4958H18.3896ZM14.5619 17.7793V17.1293V17.7793ZM5.60657 17.7793V17.1293V17.7793ZM1.12891 22.257H0.478906H1.12891ZM0.478906 24.4958C0.478906 24.8548 0.769921 25.1458 1.12891 25.1458C1.48789 25.1458 1.77891 24.8548 1.77891 24.4958H0.478906ZM25.1061 24.4958C25.1061 24.8548 25.3971 25.1458 25.7561 25.1458C26.115 25.1458 26.4061 24.8548 26.4061 24.4958H25.1061ZM25.7561 22.257H26.4061V22.2565L25.7561 22.257ZM22.5603 17.2955C22.2127 17.2057 21.8582 17.4147 21.7684 17.7623C21.6787 18.1099 21.8877 18.4644 22.2353 18.5542L22.5603 17.2955ZM18.0814 3.86215C17.7336 3.77311 17.3795 3.98285 17.2905 4.33061C17.2014 4.67838 17.4111 5.03248 17.7589 5.12153L18.0814 3.86215ZM21.2872 8.82957H21.9372H21.2872ZM17.7589 12.5376C17.4111 12.6267 17.2014 12.9808 17.2905 13.3285C17.3795 13.6763 17.7336 13.886 18.0814 13.797L17.7589 12.5376ZM19.6896 24.4958V22.257H18.3896V24.4958H19.6896ZM19.6896 22.257C19.6896 20.897 19.1493 19.5928 18.1877 18.6312L17.2685 19.5504C17.9863 20.2682 18.3896 21.2418 18.3896 22.257H19.6896ZM18.1877 18.6312C17.2261 17.6695 15.9218 17.1293 14.5619 17.1293V18.4293C15.5771 18.4293 16.5506 18.8326 17.2685 19.5504L18.1877 18.6312ZM14.5619 17.1293H5.60657V18.4293H14.5619V17.1293ZM5.60657 17.1293C4.24663 17.1293 2.94239 17.6695 1.98076 18.6312L2.9 19.5504C3.61783 18.8326 4.59141 18.4293 5.60657 18.4293V17.1293ZM1.98076 18.6312C1.01914 19.5928 0.478906 20.897 0.478906 22.257H1.77891C1.77891 21.2418 2.18218 20.2682 2.9 19.5504L1.98076 18.6312ZM0.478906 22.257V24.4958H1.77891V22.257H0.478906ZM13.9119 8.82398C13.9119 10.9379 12.1982 12.6516 10.0842 12.6516V13.9516C12.9162 13.9516 15.2119 11.6559 15.2119 8.82398H13.9119ZM10.0842 12.6516C7.97027 12.6516 6.25657 10.9379 6.25657 8.82398H4.95657C4.95657 11.6559 7.2523 13.9516 10.0842 13.9516V12.6516ZM6.25657 8.82398C6.25657 6.71002 7.97027 4.99631 10.0842 4.99631V3.69631C7.2523 3.69631 4.95657 5.99205 4.95657 8.82398H6.25657ZM10.0842 4.99631C12.1982 4.99631 13.9119 6.71002 13.9119 8.82398H15.2119C15.2119 5.99205 12.9162 3.69631 10.0842 3.69631V4.99631ZM26.4061 24.4958V22.257H25.1061V24.4958H26.4061ZM26.4061 22.2565C26.4052 21.1204 26.0271 20.0167 25.331 19.1188L24.3036 19.9152C24.8231 20.5855 25.1054 21.4094 25.1061 22.2575L26.4061 22.2565ZM25.331 19.1188C24.6349 18.2208 23.6604 17.5795 22.5603 17.2955L22.2353 18.5542C23.0565 18.7662 23.784 19.2449 24.3036 19.9152L25.331 19.1188ZM17.7589 5.12153C18.5823 5.33233 19.312 5.81118 19.8332 6.48256L20.8601 5.68543C20.162 4.78603 19.1843 4.14456 18.0814 3.86215L17.7589 5.12153ZM19.8332 6.48256C20.3543 7.15394 20.6372 7.97967 20.6372 8.82957H21.9372C21.9372 7.69101 21.5582 6.58484 20.8601 5.68543L19.8332 6.48256ZM20.6372 8.82957C20.6372 9.67948 20.3543 10.5052 19.8332 11.1766L20.8601 11.9737C21.5582 11.0743 21.9372 9.96813 21.9372 8.82957H20.6372ZM19.8332 11.1766C19.312 11.848 18.5823 12.3268 17.7589 12.5376L18.0814 13.797C19.1843 13.5146 20.162 12.8731 20.8601 11.9737L19.8332 11.1766Z" fill="white"/>
</g>
<defs>
<clipPath id="clip0_305_18476">
<rect width="26.866" height="26.866" fill="white" transform="translate(0.0078125 0.988037)"/>
</clipPath>
</defs>
</svg>
