<svg width="42" height="35" viewBox="0 0 42 35" fill="none" xmlns="http://www.w3.org/2000/svg">
<path d="M2.85472 15.0498C14.0018 10.1663 21.435 6.94671 25.1542 5.39119C35.7732 0.949846 37.9798 0.178338 39.418 0.152591C39.7343 0.147259 40.4416 0.226087 40.8997 0.599895C41.2865 0.915532 41.393 1.34191 41.4439 1.64117C41.4949 1.94043 41.5583 2.62214 41.5079 3.15482C40.9324 9.23468 38.4424 23.9889 37.1757 30.7984C36.6397 33.6798 35.5843 34.6459 34.5625 34.7405C32.3419 34.9459 30.6558 33.2648 28.5051 31.8472C25.1396 29.6289 23.2384 28.248 19.9716 26.0833C16.1964 23.5816 18.6437 22.2067 20.7952 19.9596C21.3583 19.3716 31.1421 10.4231 31.3314 9.61132C31.3551 9.5098 31.3771 9.13136 31.1535 8.93153C30.9299 8.7317 30.5999 8.80004 30.3618 8.85439C30.0243 8.93142 24.648 12.5047 14.2329 19.5742C12.7068 20.6279 11.3246 21.1413 10.0861 21.1144C8.72083 21.0847 6.09456 20.3382 4.1422 19.7C1.74755 18.9173 -0.155668 18.5034 0.0100601 17.1741C0.0963813 16.4817 1.0446 15.7736 2.85472 15.0498Z" fill="white"/>
</svg>
