<svg width="24" height="24" viewBox="0 0 24 24" fill="none" xmlns="http://www.w3.org/2000/svg">
<path d="M23 7H23.65C23.65 6.75652 23.5139 6.53345 23.2974 6.42204C23.0809 6.31063 22.8203 6.32955 22.6222 6.47107L23 7ZM16 12L15.6222 11.4711C15.4514 11.5931 15.35 11.7901 15.35 12C15.35 12.2099 15.4514 12.4069 15.6222 12.5289L16 12ZM23 17L22.6222 17.5289C22.8203 17.6704 23.0809 17.6894 23.2974 17.578C23.5139 17.4665 23.65 17.2435 23.65 17H23ZM22.6222 6.47107L15.6222 11.4711L16.3778 12.5289L23.3778 7.52893L22.6222 6.47107ZM15.6222 12.5289L22.6222 17.5289L23.3778 16.4711L16.3778 11.4711L15.6222 12.5289ZM23.65 17V7H22.35V17H23.65ZM3 5.65H14V4.35H3V5.65ZM14 5.65C14.7456 5.65 15.35 6.25442 15.35 7H16.65C16.65 5.53645 15.4636 4.35 14 4.35V5.65ZM15.35 7V17H16.65V7H15.35ZM15.35 17C15.35 17.7456 14.7456 18.35 14 18.35V19.65C15.4636 19.65 16.65 18.4636 16.65 17H15.35ZM14 18.35H3V19.65H14V18.35ZM3 18.35C2.25442 18.35 1.65 17.7456 1.65 17H0.35C0.35 18.4636 1.53645 19.65 3 19.65V18.35ZM1.65 17V7H0.35V17H1.65ZM1.65 7C1.65 6.25442 2.25442 5.65 3 5.65V4.35C1.53645 4.35 0.35 5.53645 0.35 7H1.65Z" fill="white" fill-opacity="0.6"/>
</svg>
