<svg width="1077" height="1220" viewBox="0 0 1077 1220" fill="none" xmlns="http://www.w3.org/2000/svg">
<path d="M195.118 266.713L68.8438 396.37L112.536 458.689C131.993 444.988 170.908 409.246 188.262 409.246C227.177 409.246 262.161 528.687 295.542 660.037C325.517 777.986 356.544 1071.07 499.583 1071.07C664.183 1071.07 1010.21 567.703 1010.21 343.67C1010.21 262.606 996.012 145.945 853.499 145.945C700.784 145.945 625.651 312.895 607.174 396.37C620.466 386.331 656.65 379.639 676.588 379.639C757.817 379.639 740.469 475.015 729.392 513.494C718.315 551.973 633.156 739.333 587.235 739.333C531.113 739.333 497.883 463.289 481.637 343.67C465.391 224.051 423.3 158.804 359.055 158.804C307.658 158.804 228.349 230.743 195.118 266.713Z" fill="#3CB9E6"/>
</svg>
