<svg width="27" height="27" viewBox="0 0 27 27" fill="none" xmlns="http://www.w3.org/2000/svg">
<path d="M4.47656 10.4805V20.8288C4.47656 21.3862 4.47656 21.6646 4.58501 21.8774C4.68042 22.0647 4.83253 22.2171 5.01975 22.3125C5.23239 22.4209 5.5109 22.4209 6.06709 22.4209H16.4171M15.422 14.4606V11.4755M15.422 11.4755V8.4904M15.422 11.4755H12.4369M15.422 11.4755H18.4071M8.45671 15.2568V7.69457C8.45671 6.58002 8.45671 6.02233 8.67362 5.59663C8.8644 5.22217 9.16863 4.91795 9.54309 4.72716C9.96878 4.51025 10.5265 4.51025 11.641 4.51025H19.2033C20.3178 4.51025 20.8749 4.51025 21.3005 4.72716C21.675 4.91795 21.9797 5.22217 22.1705 5.59663C22.3874 6.02233 22.3874 6.57962 22.3874 7.69415V15.2564C22.3874 16.371 22.3874 16.9283 22.1705 17.354C21.9797 17.7284 21.675 18.0333 21.3005 18.224C20.8753 18.4408 20.319 18.4408 19.2067 18.4408H11.6377C10.5254 18.4408 9.96837 18.4408 9.54309 18.224C9.16863 18.0333 8.8644 17.7285 8.67362 17.3541C8.45671 16.9284 8.45671 16.3714 8.45671 15.2568Z" stroke="#E4E4E4" stroke-width="1.11942" stroke-linecap="round" stroke-linejoin="round"/>
</svg>
