<svg width="1043" height="1220" viewBox="0 0 1043 1220" fill="none" xmlns="http://www.w3.org/2000/svg">
<path d="M73.1569 379.005C77.3462 303.564 129.2 244.441 193.752 240.7C287.229 235.283 420.833 228.75 521.5 228.75C622.167 228.75 755.771 235.283 849.248 240.7C913.8 244.441 965.654 303.564 969.843 379.005C973.857 451.283 977.812 540.218 977.812 610C977.812 679.782 973.857 768.717 969.843 840.995C965.654 916.436 913.8 975.559 849.248 979.3C755.771 984.717 622.167 991.25 521.5 991.25C420.833 991.25 287.229 984.717 193.752 979.3C129.2 975.559 77.3462 916.436 73.1569 840.995C69.1432 768.717 65.1875 679.782 65.1875 610C65.1875 540.218 69.1432 451.283 73.1569 379.005Z" fill="#FC0D1B"/>
<path d="M423.719 457.5V762.5L684.469 610L423.719 457.5Z" fill="white"/>
</svg>
