<svg width="47" height="35" viewBox="0 0 47 35" fill="none" xmlns="http://www.w3.org/2000/svg">
<path id="youtube" d="M45.4244 5.40493C44.8476 3.2421 43.4057 1.69722 41.3871 1.07927C37.9266 0.152344 23.2193 0.152344 23.2193 0.152344C23.2193 0.152344 8.80046 0.152344 5.05155 1.07927C3.03291 1.69722 1.591 3.2421 1.01425 5.40493C0.437491 9.42161 0.4375 17.455 0.4375 17.455C0.4375 17.455 0.437509 25.4883 1.30264 29.505C1.87939 31.6679 3.32126 33.2127 5.3399 33.8307C8.80043 34.7576 23.5077 34.7576 23.5077 34.7576C23.5077 34.7576 37.9265 34.7576 41.6754 33.8307C43.694 33.2127 45.136 31.6679 45.7128 29.505C46.5779 25.4883 46.5779 17.455 46.5779 17.455C46.5779 17.455 46.5779 9.42161 45.4244 5.40493ZM18.8936 24.8704V10.0396L31.0055 17.455L18.8936 24.8704Z" fill="white"/>
</svg>
