<svg width="204" height="50" viewBox="0 0 204 50" fill="none" xmlns="http://www.w3.org/2000/svg">
<g opacity="0.7">
<path d="M42.6 19.4906C42.5 19.2906 42.1 18.5906 42 18.3906C41.8 18.0906 41.4 17.8906 41 17.8906H38.8C37.1 18.1906 34.2 21.6906 34 31.2906C34 31.9906 34.4 32.5906 34.9 32.9906C35.4 33.4906 36 33.6906 36.7 33.5906C37.2 33.5906 37.7 33.3906 38.1 32.9906L40.8 29.9906C41 29.7906 41.3 29.5906 41.7 29.5906H48.8C49.1 29.5906 49.5 29.6906 49.7 29.9906L52.4 32.9906C52.8 33.3906 53.4 33.6906 54 33.5906C54.7 33.5906 55.3 33.0906 55.8 32.6906C56.3 32.2906 56.5 31.7906 56.5 31.1906C56.4 28.3906 55.8 21.4906 52.4 18.2906C52.1 17.9906 51.8 17.8906 51.5 17.8906H49.5C49.1 17.8906 48.8 18.0906 48.6 18.3906C48.3 18.7906 48.1 19.0906 47.8 19.4906H42.6ZM47.6 20.2906C47.5 20.5906 47.7 21.1906 47.2 21.1906H43.1C42.6 21.1906 42.8 20.5906 42.7 20.2906H47.6ZM55.2 31.9906L54.6 32.4906C54.3 32.6906 54 32.7906 53.7 32.6906C53.4 32.6906 53.1 32.5906 52.9 32.3906L50.2 29.3906C49.8 28.9906 49.3 28.7906 48.7 28.7906H41.6C41 28.7906 40.5 28.9906 40.1 29.4906L37.4 32.4906C37.2 32.6906 36.9 32.7906 36.6 32.7906C36.2 32.8906 35.7 32.6906 35.4 32.3906C35.1 32.0906 34.7 31.7906 34.7 31.2906C34.9 21.6906 37.7 19.1906 38.7 18.6906H40.9C41 18.6906 41.1 18.7906 41.2 18.8906L41.7 19.6906C42 19.9906 42.1 20.3906 42 20.7906C42 21.3906 42.5 21.8906 43.1 21.8906H47.2C47.8 21.8906 48.3 21.3906 48.3 20.7906C48.3 20.2906 48.4 19.8906 48.6 19.4906L49.1 18.7906C49.2 18.6906 49.3 18.6906 49.4 18.6906H51.4C51.5 18.6906 51.6 18.6906 51.6 18.7906C55 21.8906 55.5 29.0906 55.6 31.1906C55.6 31.4906 55.5 31.7906 55.2 31.9906Z" fill="white"/>
<path d="M40.9969 23.1938H40.6969V22.7938C40.6969 22.0938 40.0969 21.5938 39.3969 21.5938C38.6969 21.5938 38.1969 22.1938 38.1969 22.7938V23.1938C35.9969 22.8938 35.9969 25.8938 38.1969 25.6938V26.0938C38.1969 26.7937 38.7969 27.2937 39.4969 27.2937C40.1969 27.2937 40.6969 26.6937 40.6969 26.0938V25.6938H40.9969C41.6969 25.6938 42.1969 25.0938 42.1969 24.3937C42.2969 23.6937 41.6969 23.1938 40.9969 23.1938ZM41.3969 24.6938C41.1969 24.9938 40.4969 24.7938 40.2969 24.8937C40.0969 24.8937 39.8969 24.9938 39.8969 25.2938V26.0938C39.8969 26.2937 39.6969 26.4938 39.3969 26.4938C39.1969 26.4938 38.9969 26.2938 38.9969 25.9938V25.2938C38.9969 24.9938 38.7969 24.8937 38.5969 24.8937H37.7969C37.5969 24.8937 37.3969 24.6937 37.3969 24.3937C37.3969 24.1937 37.5969 23.9937 37.7969 23.9937H38.5969C38.7969 23.9937 38.9969 23.7937 38.9969 23.5937V22.7938C38.9969 22.5938 39.1969 22.2938 39.4969 22.2938C39.6969 22.2938 39.8969 22.4938 39.8969 22.7938V23.5937C39.8969 23.7937 40.0969 23.9937 40.2969 23.9937H40.9969C41.2969 23.9937 41.4969 24.1937 41.3969 24.4937C41.4969 24.4937 41.4969 24.5938 41.3969 24.6938Z" fill="white"/>
<path d="M49.5 22.5875C49.5 23.3875 50.1 23.9875 50.9 23.9875C51.6 23.9875 52.3 23.3875 52.3 22.5875C52.3 21.7875 51.7 21.1875 50.9 21.1875C50.1 21.2875 49.5 21.8875 49.5 22.5875ZM51.5 22.5875C51.5 22.8875 51.2 23.1875 50.9 23.1875C50.6 23.1875 50.3 22.8875 50.3 22.5875C50.3 22.2875 50.6 21.9875 50.9 21.9875C51.2 22.0875 51.5 22.2875 51.5 22.5875Z" fill="white"/>
<path d="M48.6031 23.5938C47.8031 23.5938 47.2031 24.1938 47.2031 24.9938C47.2031 25.7938 47.8031 26.3938 48.6031 26.3938C49.4031 26.3938 50.0031 25.7938 50.0031 24.9938C49.9031 24.1938 49.3031 23.5938 48.6031 23.5938ZM48.6031 25.4938C48.2031 25.4938 48.0031 25.1938 48.0031 24.8938C48.0031 24.5938 48.3031 24.2938 48.6031 24.2938C48.9031 24.2938 49.2031 24.5938 49.2031 24.8938C49.1031 25.2938 48.9031 25.4938 48.6031 25.4938Z" fill="white"/>
<path d="M51 25.5875C51 26.3875 51.6 26.9875 52.4 26.9875C53.1 26.9875 53.8 26.3875 53.8 25.5875C53.8 24.7875 53.2 24.1875 52.4 24.1875C51.6 24.2875 51 24.8875 51 25.5875ZM52.4 25.0875C52.7 25.0875 53 25.3875 53 25.6875C53 25.9875 52.7 26.2875 52.4 26.2875C52.1 26.2875 51.8 25.9875 51.8 25.6875C51.8 25.2875 52.1 25.0875 52.4 25.0875Z" fill="white"/>
<path d="M43.9016 27.3906H43.0016C42.8016 27.3906 42.6016 27.5906 42.6016 27.7906C42.6016 27.9906 42.8016 28.1906 43.0016 28.1906H43.9016C44.1016 28.1906 44.3016 27.9906 44.3016 27.7906C44.3016 27.5906 44.2016 27.3906 43.9016 27.3906Z" fill="white"/>
<path d="M47.4016 27.3906H46.5016C46.3016 27.3906 46.1016 27.5906 46.1016 27.7906C46.1016 27.9906 46.3016 28.1906 46.5016 28.1906H47.4016C47.6016 28.1906 47.8016 27.9906 47.8016 27.7906C47.8016 27.5906 47.6016 27.3906 47.4016 27.3906Z" fill="white"/>
<path d="M79.8328 23.0312C79.7253 22.6935 79.5806 22.3912 79.3988 22.124C79.2207 21.8532 79.0073 21.6232 78.7588 21.4339C78.5102 21.241 78.2263 21.0945 77.9073 20.9943C77.5919 20.8941 77.245 20.844 76.8666 20.844C76.2247 20.844 75.6459 21.0091 75.1302 21.3393C74.6145 21.6695 74.2064 22.1537 73.9058 22.7919C73.609 23.4263 73.4606 24.2036 73.4606 25.1237C73.4606 26.0476 73.6109 26.8285 73.9114 27.4667C74.2119 28.1048 74.6238 28.589 75.1469 28.9192C75.67 29.2494 76.2655 29.4145 76.9333 29.4145C77.5529 29.4145 78.0928 29.2884 78.5528 29.0361C79.0166 28.7838 79.3746 28.4276 79.6269 27.9676C79.8829 27.5038 80.0109 26.9584 80.0109 26.3314L80.4562 26.4149H77.1949V24.9957H81.675V26.2924C81.675 27.2497 81.4709 28.0807 81.0628 28.7857C80.6584 29.4869 80.0981 30.0286 79.3821 30.4107C78.6697 30.7929 77.8535 30.984 76.9333 30.984C75.9019 30.984 74.9966 30.7465 74.2175 30.2716C73.4421 29.7967 72.8373 29.1233 72.4032 28.2514C71.9691 27.3758 71.7521 26.3369 71.7521 25.1348C71.7521 24.2259 71.8782 23.4096 72.1305 22.6861C72.3828 21.9626 72.7371 21.3486 73.1935 20.844C73.6535 20.3357 74.1934 19.948 74.813 19.6809C75.4363 19.41 76.1171 19.2746 76.8554 19.2746C77.4713 19.2746 78.0445 19.3655 78.5751 19.5473C79.1094 19.7291 79.5843 19.987 79.9998 20.3209C80.4191 20.6548 80.766 21.0518 81.0405 21.5119C81.3151 21.9682 81.5006 22.4746 81.597 23.0312H79.8328ZM86.212 31.0173C85.6704 31.0173 85.1806 30.9172 84.7428 30.7168C84.305 30.5128 83.9581 30.2178 83.7021 29.8319C83.4498 29.4461 83.3237 28.973 83.3237 28.4128C83.3237 27.9305 83.4164 27.5335 83.6019 27.2218C83.7874 26.9102 84.0379 26.6634 84.3532 26.4816C84.6686 26.2998 85.0211 26.1626 85.4106 26.0698C85.8002 25.9771 86.1972 25.9066 86.6016 25.8583C87.1136 25.799 87.5292 25.7507 87.8482 25.7136C88.1673 25.6728 88.3992 25.6079 88.5439 25.5189C88.6886 25.4298 88.7609 25.2851 88.7609 25.0848V25.0458C88.7609 24.5598 88.6237 24.1832 88.3491 23.916C88.0783 23.6489 87.6739 23.5153 87.1359 23.5153C86.5756 23.5153 86.1341 23.6396 85.8113 23.8882C85.4923 24.1331 85.2715 24.4058 85.1491 24.7063L83.5852 24.3501C83.7707 23.8307 84.0416 23.4115 84.3978 23.0924C84.7577 22.7696 85.1713 22.5359 85.6388 22.3912C86.1063 22.2428 86.5979 22.1686 87.1136 22.1686C87.455 22.1686 87.8167 22.2094 88.1989 22.291C88.5847 22.3689 88.9446 22.5136 89.2785 22.7251C89.6161 22.9366 89.8926 23.2389 90.1077 23.6322C90.3229 24.0218 90.4305 24.5282 90.4305 25.1515V30.8281H88.8055V29.6594H88.7387C88.6311 29.8746 88.4697 30.0861 88.2545 30.2939C88.0393 30.5016 87.7629 30.6742 87.4253 30.8114C87.0877 30.9487 86.6832 31.0173 86.212 31.0173ZM86.5738 29.6817C87.0339 29.6817 87.4271 29.5908 87.7536 29.409C88.0838 29.2272 88.3343 28.9897 88.5049 28.6966C88.6793 28.3998 88.7665 28.0826 88.7665 27.745V26.643C88.7071 26.7024 88.5921 26.7581 88.4215 26.81C88.2545 26.8582 88.0634 26.9009 87.8482 26.938C87.6331 26.9714 87.4234 27.0029 87.2194 27.0326C87.0153 27.0586 86.8446 27.0808 86.7074 27.0994C86.3846 27.1402 86.0896 27.2088 85.8225 27.3053C85.5591 27.4018 85.3476 27.5409 85.188 27.7227C85.0322 27.9008 84.9543 28.1382 84.9543 28.4351C84.9543 28.8469 85.1064 29.1585 85.4106 29.37C85.7149 29.5778 86.1026 29.6817 86.5738 29.6817ZM92.6469 30.8281V22.2799H94.2441V23.6712H94.3499C94.528 23.2 94.8192 22.8327 95.2236 22.5693C95.628 22.3021 96.1122 22.1686 96.6762 22.1686C97.2475 22.1686 97.7261 22.3021 98.112 22.5693C98.5016 22.8364 98.7891 23.2037 98.9746 23.6712H99.0637C99.2677 23.2148 99.5924 22.8512 100.038 22.5804C100.483 22.3058 101.013 22.1686 101.629 22.1686C102.405 22.1686 103.037 22.4116 103.527 22.8976C104.02 23.3836 104.267 24.1164 104.267 25.0959V30.8281H102.603V25.2517C102.603 24.6729 102.446 24.2537 102.13 23.994C101.815 23.7343 101.438 23.6044 101 23.6044C100.459 23.6044 100.038 23.7714 99.7371 24.1053C99.4365 24.4355 99.2863 24.8603 99.2863 25.3797V30.8281H97.6278V25.146C97.6278 24.6822 97.4831 24.3093 97.1937 24.0274C96.9043 23.7454 96.5278 23.6044 96.064 23.6044C95.7486 23.6044 95.4574 23.6879 95.1902 23.8548C94.9268 24.0181 94.7135 24.2463 94.5502 24.5394C94.3907 24.8325 94.3109 25.1719 94.3109 25.5578V30.8281H92.6469ZM110.182 31.0006C109.339 31.0006 108.614 30.8207 108.006 30.4608C107.401 30.0972 106.933 29.5871 106.603 28.9304C106.277 28.27 106.113 27.4964 106.113 26.6096C106.113 25.734 106.277 24.9623 106.603 24.2945C106.933 23.6267 107.393 23.1054 107.983 22.7306C108.577 22.3559 109.271 22.1686 110.065 22.1686C110.547 22.1686 111.015 22.2483 111.467 22.4079C111.92 22.5674 112.326 22.8178 112.686 23.1592C113.046 23.5005 113.33 23.9439 113.538 24.4893C113.745 25.031 113.849 25.6895 113.849 26.4649V27.0549H107.054V25.8082H112.219C112.219 25.3704 112.13 24.9827 111.951 24.6451C111.773 24.3038 111.523 24.0348 111.2 23.8381C110.881 23.6415 110.506 23.5432 110.076 23.5432C109.608 23.5432 109.2 23.6582 108.852 23.8882C108.507 24.1145 108.239 24.4114 108.05 24.7787C107.865 25.1423 107.772 25.5374 107.772 25.9641V26.938C107.772 27.5094 107.872 27.9954 108.072 28.3961C108.277 28.7968 108.56 29.1029 108.924 29.3144C109.288 29.5221 109.712 29.626 110.198 29.626C110.514 29.626 110.801 29.5815 111.061 29.4925C111.321 29.3997 111.545 29.2624 111.734 29.0806C111.924 28.8988 112.068 28.6744 112.169 28.4072L113.743 28.6911C113.617 29.1548 113.391 29.5611 113.065 29.9099C112.742 30.2549 112.335 30.5239 111.846 30.7168C111.36 30.906 110.805 31.0006 110.182 31.0006ZM122.101 24.3668L120.593 24.634C120.53 24.441 120.43 24.2574 120.292 24.083C120.159 23.9086 119.977 23.7658 119.747 23.6545C119.517 23.5432 119.229 23.4875 118.884 23.4875C118.413 23.4875 118.02 23.5933 117.705 23.8047C117.389 24.0125 117.232 24.2815 117.232 24.6117C117.232 24.8974 117.337 25.1274 117.549 25.3018C117.76 25.4762 118.102 25.619 118.573 25.7303L119.931 26.042C120.717 26.2238 121.303 26.5039 121.689 26.8823C122.075 27.2608 122.268 27.7524 122.268 28.3571C122.268 28.8691 122.12 29.3255 121.823 29.7262C121.53 30.1232 121.12 30.4348 120.593 30.6612C120.07 30.8875 119.463 31.0006 118.773 31.0006C117.816 31.0006 117.035 30.7966 116.43 30.3885C115.825 29.9766 115.454 29.3923 115.317 28.6354L116.925 28.3905C117.026 28.8098 117.232 29.127 117.543 29.3422C117.855 29.5537 118.261 29.6594 118.762 29.6594C119.307 29.6594 119.743 29.5463 120.07 29.3199C120.396 29.0899 120.56 28.8098 120.56 28.4796C120.56 28.2124 120.459 27.988 120.259 27.8062C120.062 27.6244 119.76 27.4871 119.352 27.3943L117.905 27.0771C117.107 26.8953 116.517 26.6059 116.135 26.2089C115.757 25.812 115.567 25.3092 115.567 24.7008C115.567 24.1962 115.708 23.7547 115.99 23.3762C116.272 22.9978 116.662 22.7028 117.159 22.4913C117.656 22.2761 118.226 22.1686 118.868 22.1686C119.792 22.1686 120.519 22.3689 121.049 22.7696C121.58 23.1666 121.93 23.699 122.101 24.3668Z" fill="white"/>
</g>
</svg>
