<svg width="245" height="44" viewBox="0 0 245 44" fill="none" xmlns="http://www.w3.org/2000/svg">
<rect x="1" y="1" width="243" height="42" rx="21" stroke="url(#paint0_linear_2796_49616)" stroke-width="2"/>
<path d="M25.0401 28V16.3636H29.631C30.5136 16.3636 31.2655 16.5322 31.8867 16.8693C32.5079 17.2027 32.9814 17.6667 33.3072 18.2614C33.6367 18.8523 33.8015 19.5341 33.8015 20.3068C33.8015 21.0795 33.6348 21.7614 33.3015 22.3523C32.9681 22.9432 32.4852 23.4034 31.8526 23.733C31.2238 24.0625 30.4625 24.2273 29.5685 24.2273H26.6424V22.2557H29.1708C29.6443 22.2557 30.0344 22.1742 30.3412 22.0114C30.6519 21.8447 30.8829 21.6155 31.0344 21.3239C31.1897 21.0284 31.2674 20.6894 31.2674 20.3068C31.2674 19.9205 31.1897 19.5833 31.0344 19.2955C30.8829 19.0038 30.6519 18.7784 30.3412 18.6193C30.0306 18.4564 29.6367 18.375 29.1594 18.375H27.5003V28H25.0401ZM35.994 28V19.2727H38.3406V20.7955H38.4315C38.5906 20.2538 38.8577 19.8447 39.2327 19.5682C39.6077 19.2879 40.0395 19.1477 40.5281 19.1477C40.6493 19.1477 40.78 19.1553 40.9202 19.1705C41.0603 19.1856 41.1834 19.2064 41.2895 19.233V21.3807C41.1759 21.3466 41.0187 21.3163 40.8179 21.2898C40.6171 21.2633 40.4334 21.25 40.2668 21.25C39.9107 21.25 39.5925 21.3277 39.3122 21.483C39.0357 21.6345 38.816 21.8466 38.6531 22.1193C38.494 22.392 38.4145 22.7064 38.4145 23.0625V28H35.994ZM46.7178 28.1705C45.8353 28.1705 45.072 27.983 44.4281 27.608C43.7879 27.2292 43.2936 26.7027 42.9451 26.0284C42.5966 25.3504 42.4224 24.5644 42.4224 23.6705C42.4224 22.7689 42.5966 21.9811 42.9451 21.3068C43.2936 20.6288 43.7879 20.1023 44.4281 19.7273C45.072 19.3485 45.8353 19.1591 46.7178 19.1591C47.6004 19.1591 48.3618 19.3485 49.0019 19.7273C49.6459 20.1023 50.1421 20.6288 50.4906 21.3068C50.8391 21.9811 51.0133 22.7689 51.0133 23.6705C51.0133 24.5644 50.8391 25.3504 50.4906 26.0284C50.1421 26.7027 49.6459 27.2292 49.0019 27.608C48.3618 27.983 47.6004 28.1705 46.7178 28.1705ZM46.7292 26.2955C47.1307 26.2955 47.4659 26.1818 47.7349 25.9545C48.0038 25.7235 48.2065 25.4091 48.3428 25.0114C48.483 24.6136 48.5531 24.161 48.5531 23.6534C48.5531 23.1458 48.483 22.6932 48.3428 22.2955C48.2065 21.8977 48.0038 21.5833 47.7349 21.3523C47.4659 21.1212 47.1307 21.0057 46.7292 21.0057C46.3239 21.0057 45.983 21.1212 45.7065 21.3523C45.4337 21.5833 45.2273 21.8977 45.0872 22.2955C44.9508 22.6932 44.8826 23.1458 44.8826 23.6534C44.8826 24.161 44.9508 24.6136 45.0872 25.0114C45.2273 25.4091 45.4337 25.7235 45.7065 25.9545C45.983 26.1818 46.3239 26.2955 46.7292 26.2955ZM56.4431 28.142C55.7802 28.142 55.1798 27.9716 54.6419 27.6307C54.1078 27.286 53.6836 26.7803 53.3692 26.1136C53.0586 25.4432 52.9033 24.6212 52.9033 23.6477C52.9033 22.6477 53.0643 21.8163 53.3862 21.1534C53.7082 20.4867 54.1362 19.9886 54.6703 19.6591C55.2082 19.3258 55.7972 19.1591 56.4374 19.1591C56.926 19.1591 57.3332 19.2424 57.659 19.4091C57.9885 19.572 58.2537 19.7765 58.4544 20.0227C58.659 20.2652 58.8143 20.5038 58.9203 20.7386H58.9942V16.3636H61.409V28H59.0226V26.6023H58.9203C58.8067 26.8447 58.6457 27.0852 58.4374 27.3239C58.2328 27.5587 57.9658 27.7538 57.6362 27.9091C57.3105 28.0644 56.9128 28.142 56.4431 28.142ZM57.2101 26.2159C57.6003 26.2159 57.9298 26.1098 58.1987 25.8977C58.4715 25.6818 58.6798 25.3807 58.8237 24.9943C58.9715 24.608 59.0453 24.1553 59.0453 23.6364C59.0453 23.1174 58.9734 22.6667 58.8294 22.2841C58.6855 21.9015 58.4772 21.6061 58.2044 21.3977C57.9317 21.1894 57.6003 21.0852 57.2101 21.0852C56.8124 21.0852 56.4772 21.1932 56.2044 21.4091C55.9317 21.625 55.7253 21.9242 55.5851 22.3068C55.445 22.6894 55.3749 23.1326 55.3749 23.6364C55.3749 24.1439 55.445 24.5928 55.5851 24.983C55.7291 25.3693 55.9355 25.6723 56.2044 25.892C56.4772 26.108 56.8124 26.2159 57.2101 26.2159ZM69.6356 24.2841V19.2727H72.0561V28H69.7322V26.4148H69.6413C69.4443 26.9261 69.1167 27.3371 68.6584 27.6477C68.2038 27.9583 67.6489 28.1136 66.9936 28.1136C66.4102 28.1136 65.897 27.9811 65.4538 27.7159C65.0106 27.4508 64.664 27.0739 64.414 26.5852C64.1678 26.0966 64.0428 25.5114 64.039 24.8295V19.2727H66.4595V24.3977C66.4633 24.9129 66.6015 25.3201 66.8743 25.6193C67.147 25.9186 67.5125 26.0682 67.9709 26.0682C68.2625 26.0682 68.5352 26.0019 68.789 25.8693C69.0428 25.733 69.2474 25.5322 69.4027 25.267C69.5618 25.0019 69.6394 24.6742 69.6356 24.2841ZM78.5753 28.1705C77.6814 28.1705 76.9125 27.9811 76.2685 27.6023C75.6284 27.2197 75.1359 26.6894 74.7912 26.0114C74.4503 25.3333 74.2799 24.553 74.2799 23.6705C74.2799 22.7765 74.4522 21.9924 74.7969 21.3182C75.1454 20.6402 75.6397 20.1117 76.2799 19.733C76.92 19.3504 77.6814 19.1591 78.564 19.1591C79.3253 19.1591 79.992 19.2973 80.564 19.5739C81.1359 19.8504 81.5886 20.2386 81.9219 20.7386C82.2553 21.2386 82.439 21.8258 82.4731 22.5H80.189C80.1246 22.0644 79.9541 21.714 79.6776 21.4489C79.4049 21.1799 79.0469 21.0455 78.6037 21.0455C78.2287 21.0455 77.9011 21.1477 77.6208 21.3523C77.3443 21.553 77.1284 21.8466 76.9731 22.233C76.8178 22.6193 76.7401 23.0871 76.7401 23.6364C76.7401 24.1932 76.8159 24.6667 76.9674 25.0568C77.1227 25.447 77.3405 25.7443 77.6208 25.9489C77.9011 26.1534 78.2287 26.2557 78.6037 26.2557C78.8803 26.2557 79.1284 26.1989 79.3481 26.0852C79.5716 25.9716 79.7553 25.8068 79.8992 25.5909C80.0469 25.3712 80.1435 25.108 80.189 24.8011H82.4731C82.4352 25.4678 82.2534 26.0549 81.9276 26.5625C81.6056 27.0663 81.1606 27.4602 80.5924 27.7443C80.0242 28.0284 79.3519 28.1705 78.5753 28.1705ZM89.3048 19.2727V21.0909H84.0491V19.2727H89.3048ZM85.2423 17.1818H87.6628V25.3182C87.6628 25.5417 87.6969 25.7159 87.7651 25.8409C87.8332 25.9621 87.9279 26.0473 88.0491 26.0966C88.1741 26.1458 88.3181 26.1705 88.481 26.1705C88.5946 26.1705 88.7082 26.161 88.8219 26.142C88.9355 26.1193 89.0226 26.1023 89.0832 26.0909L89.4639 27.892C89.3427 27.9299 89.1723 27.9735 88.9526 28.0227C88.7329 28.0758 88.4658 28.108 88.1514 28.1193C87.5681 28.142 87.0567 28.0644 86.6173 27.8864C86.1817 27.7083 85.8427 27.4318 85.6003 27.0568C85.3579 26.6818 85.2385 26.2083 85.2423 25.6364V17.1818ZM106.603 22.1818C106.603 23.4508 106.363 24.5303 105.882 25.4205C105.404 26.3106 104.753 26.9905 103.927 27.4602C103.105 27.9261 102.181 28.1591 101.154 28.1591C100.12 28.1591 99.1923 27.9242 98.3703 27.4545C97.5484 26.9848 96.8988 26.3049 96.4215 25.4148C95.9442 24.5246 95.7056 23.447 95.7056 22.1818C95.7056 20.9129 95.9442 19.8333 96.4215 18.9432C96.8988 18.053 97.5484 17.375 98.3703 16.9091C99.1923 16.4394 100.12 16.2045 101.154 16.2045C102.181 16.2045 103.105 16.4394 103.927 16.9091C104.753 17.375 105.404 18.053 105.882 18.9432C106.363 19.8333 106.603 20.9129 106.603 22.1818ZM104.109 22.1818C104.109 21.3598 103.986 20.6667 103.74 20.1023C103.497 19.5379 103.154 19.1098 102.711 18.8182C102.268 18.5265 101.749 18.3807 101.154 18.3807C100.56 18.3807 100.041 18.5265 99.5976 18.8182C99.1544 19.1098 98.8097 19.5379 98.5635 20.1023C98.3211 20.6667 98.1999 21.3598 98.1999 22.1818C98.1999 23.0038 98.3211 23.697 98.5635 24.2614C98.8097 24.8258 99.1544 25.2538 99.5976 25.5455C100.041 25.8371 100.56 25.983 101.154 25.983C101.749 25.983 102.268 25.8371 102.711 25.5455C103.154 25.2538 103.497 24.8258 103.74 24.2614C103.986 23.697 104.109 23.0038 104.109 22.1818ZM113.713 19.2727V21.0909H108.327V19.2727H113.713ZM109.56 28V18.642C109.56 18.0095 109.683 17.4848 109.929 17.0682C110.179 16.6515 110.52 16.339 110.952 16.1307C111.384 15.9223 111.874 15.8182 112.424 15.8182C112.795 15.8182 113.134 15.8466 113.441 15.9034C113.751 15.9602 113.982 16.0114 114.134 16.0568L113.702 17.875C113.607 17.8447 113.49 17.8163 113.35 17.7898C113.213 17.7633 113.073 17.75 112.929 17.75C112.573 17.75 112.325 17.8333 112.185 18C112.045 18.1629 111.975 18.392 111.975 18.6875V28H109.56ZM119.778 18.392V16.3636H129.334V18.392H125.772V28H123.34V18.392H119.778ZM133.923 22.9545V28H131.503V16.3636H133.855V20.8125H133.957C134.154 20.2973 134.472 19.8939 134.912 19.6023C135.351 19.3068 135.902 19.1591 136.565 19.1591C137.171 19.1591 137.7 19.2917 138.151 19.5568C138.605 19.8182 138.957 20.1951 139.207 20.6875C139.461 21.1761 139.586 21.7614 139.582 22.4432V28H137.162V22.875C137.166 22.3371 137.029 21.9186 136.753 21.6193C136.48 21.3201 136.097 21.1705 135.605 21.1705C135.276 21.1705 134.984 21.2405 134.73 21.3807C134.48 21.5208 134.283 21.7254 134.139 21.9943C133.999 22.2595 133.927 22.5795 133.923 22.9545ZM146.104 28.1705C145.207 28.1705 144.434 27.9886 143.786 27.625C143.142 27.2576 142.646 26.7386 142.298 26.0682C141.949 25.3939 141.775 24.5966 141.775 23.6761C141.775 22.7784 141.949 21.9905 142.298 21.3125C142.646 20.6345 143.137 20.1061 143.769 19.7273C144.406 19.3485 145.152 19.1591 146.008 19.1591C146.584 19.1591 147.12 19.2519 147.616 19.4375C148.116 19.6193 148.551 19.8939 148.923 20.2614C149.298 20.6288 149.589 21.0909 149.798 21.6477C150.006 22.2008 150.11 22.8485 150.11 23.5909V24.2557H142.741V22.7557H147.832C147.832 22.4072 147.756 22.0985 147.604 21.8295C147.453 21.5606 147.243 21.3504 146.974 21.1989C146.709 21.0436 146.4 20.9659 146.048 20.9659C145.68 20.9659 145.354 21.0511 145.07 21.2216C144.79 21.3883 144.57 21.6136 144.411 21.8977C144.252 22.178 144.171 22.4905 144.167 22.8352V24.2614C144.167 24.6932 144.246 25.0663 144.406 25.3807C144.568 25.6951 144.798 25.9375 145.093 26.108C145.389 26.2784 145.739 26.3636 146.144 26.3636C146.413 26.3636 146.659 26.3258 146.883 26.25C147.106 26.1742 147.298 26.0606 147.457 25.9091C147.616 25.7576 147.737 25.572 147.82 25.3523L150.059 25.5C149.945 26.0379 149.712 26.5076 149.36 26.9091C149.012 27.3068 148.561 27.6174 148.008 27.8409C147.459 28.0606 146.824 28.1705 146.104 28.1705ZM160.843 28H156.718V16.3636H160.877C162.048 16.3636 163.055 16.5966 163.9 17.0625C164.745 17.5246 165.394 18.1894 165.849 19.0568C166.307 19.9242 166.536 20.9621 166.536 22.1705C166.536 23.3826 166.307 24.4242 165.849 25.2955C165.394 26.1667 164.741 26.8352 163.889 27.3011C163.04 27.767 162.025 28 160.843 28ZM159.178 25.892H160.741C161.468 25.892 162.08 25.7633 162.576 25.5057C163.076 25.2443 163.451 24.8409 163.701 24.2955C163.955 23.7462 164.082 23.0379 164.082 22.1705C164.082 21.3106 163.955 20.608 163.701 20.0625C163.451 19.517 163.078 19.1155 162.582 18.858C162.086 18.6004 161.474 18.4716 160.747 18.4716H159.178V25.892ZM171.442 28.1648C170.885 28.1648 170.389 28.0682 169.953 27.875C169.518 27.678 169.173 27.3883 168.919 27.0057C168.669 26.6193 168.544 26.1383 168.544 25.5625C168.544 25.0777 168.633 24.6705 168.811 24.3409C168.989 24.0114 169.232 23.7462 169.539 23.5455C169.845 23.3447 170.194 23.1932 170.584 23.0909C170.978 22.9886 171.391 22.9167 171.823 22.875C172.33 22.822 172.739 22.7727 173.05 22.7273C173.361 22.678 173.586 22.6061 173.726 22.5114C173.866 22.4167 173.936 22.2765 173.936 22.0909V22.0568C173.936 21.697 173.823 21.4186 173.595 21.2216C173.372 21.0246 173.054 20.9261 172.641 20.9261C172.205 20.9261 171.859 21.0227 171.601 21.2159C171.344 21.4053 171.173 21.6439 171.09 21.9318L168.851 21.75C168.965 21.2197 169.188 20.7614 169.522 20.375C169.855 19.9848 170.285 19.6856 170.811 19.4773C171.342 19.2652 171.955 19.1591 172.652 19.1591C173.137 19.1591 173.601 19.2159 174.044 19.3295C174.491 19.4432 174.887 19.6193 175.232 19.858C175.58 20.0966 175.855 20.4034 176.056 20.7784C176.256 21.1496 176.357 21.5947 176.357 22.1136V28H174.061V26.7898H173.993C173.853 27.0625 173.666 27.303 173.431 27.5114C173.196 27.7159 172.914 27.8769 172.584 27.9943C172.255 28.108 171.874 28.1648 171.442 28.1648ZM172.135 26.4943C172.491 26.4943 172.806 26.4242 173.078 26.2841C173.351 26.1402 173.565 25.947 173.72 25.7045C173.876 25.4621 173.953 25.1875 173.953 24.8807V23.9545C173.878 24.0038 173.773 24.0492 173.641 24.0909C173.512 24.1288 173.366 24.1648 173.203 24.1989C173.041 24.2292 172.878 24.2576 172.715 24.2841C172.552 24.3068 172.404 24.3277 172.272 24.3466C171.988 24.3883 171.739 24.4545 171.527 24.5455C171.315 24.6364 171.15 24.7595 171.033 24.9148C170.916 25.0663 170.857 25.2557 170.857 25.483C170.857 25.8125 170.976 26.0644 171.215 26.2386C171.457 26.4091 171.764 26.4943 172.135 26.4943ZM180.056 31.2727C179.75 31.2727 179.462 31.2481 179.193 31.1989C178.928 31.1534 178.708 31.0947 178.534 31.0227L179.079 29.2159C179.363 29.303 179.619 29.3504 179.846 29.358C180.077 29.3655 180.276 29.3125 180.443 29.1989C180.613 29.0852 180.752 28.892 180.858 28.6193L181 28.25L177.869 19.2727H180.414L182.221 25.6818H182.312L184.136 19.2727H186.699L183.306 28.9432C183.144 29.4129 182.922 29.822 182.642 30.1705C182.365 30.5227 182.015 30.7936 181.591 30.983C181.166 31.1761 180.655 31.2727 180.056 31.2727Z" fill="#F2F0FF"/>
<g clip-path="url(#clip0_2796_49616)">
<path d="M219.694 23.6828C219.632 23.6523 219.571 23.6218 219.51 23.5913C218.867 23.3474 218.223 23.1035 217.611 22.8901C217.12 22.7072 216.63 22.5547 216.14 22.3108C215.221 21.8535 214.7 21.0913 214.363 20.1461C214.026 19.1705 213.628 18.1949 213.26 17.2193C213.23 17.1278 213.107 17.0058 212.985 17.0058C212.862 16.9754 212.74 17.0668 212.678 17.2193C212.311 18.1644 211.974 19.0791 211.606 20.0242C211.422 20.451 211.269 20.8779 211.024 21.2742C210.748 21.701 210.319 22.0669 209.86 22.2498C208.972 22.6157 208.083 22.9511 207.195 23.2864C206.858 23.4084 206.521 23.5304 206.184 23.7133C206.092 23.7438 206 23.8962 206 23.9877C206 24.0791 206.123 24.1706 206.184 24.2621C206.214 24.2926 206.276 24.323 206.337 24.323C207.287 24.6889 208.236 25.0243 209.186 25.3597C210.228 25.7255 211.024 26.3658 211.453 27.4024C211.729 28.0731 211.974 28.7439 212.219 29.3841C212.372 29.811 212.556 30.2378 212.709 30.6951C212.77 30.8476 212.862 30.9695 213.077 31C213.168 30.878 213.291 30.7866 213.322 30.6646C213.689 29.75 214.026 28.8048 214.363 27.8902C214.7 26.945 215.221 26.1523 216.109 25.695C216.569 25.4511 217.059 25.2987 217.549 25.1157C218.254 24.8414 218.989 24.5974 219.694 24.2926C219.816 24.2316 219.939 24.1096 220 23.9877C219.969 23.8962 219.786 23.7438 219.694 23.6828Z" fill="white"/>
<path d="M198.215 17.1662C198.92 17.4381 199.626 17.71 200.331 17.9517C201.037 18.2236 201.589 18.6465 201.865 19.3716C201.957 19.5831 202.049 19.7946 202.141 20.0363C202.356 20.5801 202.54 21.1239 202.755 21.6677C202.785 21.7583 202.908 21.8489 203 22C203.092 21.8792 203.184 21.8187 203.215 21.7281C203.491 21.0634 203.736 20.3686 203.982 19.7039C204.258 18.9184 204.748 18.3444 205.546 18.0423C206.252 17.7704 206.957 17.5287 207.663 17.2266C207.785 17.1662 207.877 17.0453 208 16.9547C207.908 16.864 207.785 16.7734 207.693 16.713C207.049 16.4713 206.405 16.2296 205.761 15.9879C204.871 15.6858 204.288 15.1118 203.982 14.2054C203.767 13.5408 203.491 12.8761 203.215 12.2417C203.184 12.1511 203.061 12.0906 203 12C202.908 12.0906 202.785 12.1511 202.755 12.2719C202.509 12.8761 202.264 13.4804 202.049 14.1148C201.773 14.8399 201.374 15.4441 200.638 15.7764C200.393 15.8973 200.117 15.9879 199.871 16.0785C199.319 16.29 198.798 16.4713 198.245 16.6828C198.153 16.713 198.092 16.864 198 16.9245C198.061 17.0151 198.123 17.1057 198.215 17.1662Z" fill="white"/>
<path d="M204.139 28.2263C203.453 27.9959 202.963 27.535 202.735 26.8107C202.539 26.284 202.343 25.7572 202.147 25.2305C202.114 25.1317 202.016 25.0658 201.951 25C201.886 25.0658 201.788 25.1317 201.755 25.2305C201.592 25.6584 201.429 26.1193 201.265 26.5473C201.037 27.2387 200.678 27.8313 199.959 28.0947C199.698 28.1934 199.437 28.2922 199.143 28.4239C198.816 28.5556 198.457 28.6872 198.131 28.8189C198.065 28.8848 198 28.9506 198 29.0165C198 29.0823 198.098 29.1481 198.131 29.1811C198.229 29.2469 198.359 29.2798 198.49 29.3457C198.947 29.5103 199.404 29.6749 199.861 29.8395C200.416 30.037 200.808 30.3992 201.037 30.9588C201.298 31.5844 201.494 32.177 201.755 32.8025C201.788 32.9012 201.886 32.9342 201.951 33C202.016 32.9342 202.114 32.8683 202.147 32.8025C202.31 32.4403 202.441 32.0782 202.571 31.7161C202.702 31.3868 202.833 31.0247 202.996 30.6955C203.29 30.1029 203.878 29.9054 204.465 29.6749C204.857 29.5103 205.249 29.3786 205.641 29.214C205.739 29.1811 205.837 29.0823 206 28.9835C205.869 28.8848 205.804 28.8189 205.706 28.786C205.184 28.6214 204.661 28.4239 204.139 28.2263Z" fill="white"/>
</g>
<defs>
<linearGradient id="paint0_linear_2796_49616" x1="0" y1="22" x2="245" y2="22" gradientUnits="userSpaceOnUse">
<stop stop-color="#4B03CE"/>
<stop offset="0.525" stop-color="#5899FF"/>
<stop offset="1" stop-color="#00F0FB"/>
</linearGradient>
<clipPath id="clip0_2796_49616">
<rect width="24" height="24" fill="white" transform="translate(197 10)"/>
</clipPath>
</defs>
</svg>
