<svg width="106" height="80" viewBox="0 0 106 80" fill="none" xmlns="http://www.w3.org/2000/svg">
<path d="M2.35065 65.5481L2.41592 65.7439H13.316C13.5119 65.7439 13.6424 65.7439 13.8382 65.7439C19.0598 65.7439 23.2371 61.3051 22.9108 56.0177C22.6497 51.4483 18.9293 47.7928 14.3604 47.5317C9.07348 47.2053 4.6351 51.4483 4.6351 56.6704V56.8663V61.762C4.70037 63.4592 3.72132 64.9606 2.35065 65.5481Z" fill="white"/>
<path d="M19.1242 66.577H8.5504C3.78567 66.577 0 70.4283 0 75.1935V79.3712L27.7398 79.3059V75.1282C27.6746 70.4283 23.8236 66.577 19.1242 66.577Z" fill="white"/>
<path d="M27.8061 58.0294C27.8061 61.7502 30.8738 64.8182 34.5942 64.8182C38.3146 64.8182 41.3823 61.7502 41.3823 58.0294C41.3823 54.3086 38.3146 51.2406 34.5942 51.2406C30.8085 51.2406 27.8061 54.3086 27.8061 58.0294Z" fill="white"/>
<path d="M43.7309 56.4028C43.7309 61.4943 47.8429 65.6068 52.934 65.6068C58.0251 65.6068 62.1371 61.4943 62.1371 56.4028C62.1371 51.3112 58.0251 47.1987 52.934 47.1987C47.7776 47.1987 43.6656 51.3112 43.7309 56.4028Z" fill="white"/>
<path d="M58.2263 66.448H47.5872C42.8225 66.448 38.9716 70.2993 38.9716 75.1298V79.3075L66.9072 79.2422V75.0645C66.9072 70.2993 62.991 66.448 58.2263 66.448Z" fill="white"/>
<path d="M82.759 56.3311C82.759 61.4227 86.871 65.5351 91.9621 65.5351C97.0531 65.5351 101.165 61.4227 101.165 56.3311C101.165 51.2395 97.0531 47.1271 91.9621 47.1271C86.871 47.1271 82.759 51.2395 82.759 56.3311Z" fill="white"/>
<path d="M97.3125 66.3906H86.6734C81.9087 66.3906 78.0577 70.2419 78.0577 75.0724V79.2502L105.993 79.1849V75.0072C105.928 70.242 102.077 66.3906 97.3125 66.3906Z" fill="white"/>
<path d="M67.2826 65.4017C65.7814 65.4017 64.476 65.9239 63.3664 66.7725C66.1077 68.4697 67.9353 71.4724 68.0006 74.8668H77.0079C77.0731 72.0599 78.3133 69.5794 80.2061 67.8822C79.0312 66.3808 77.2037 65.4017 75.1803 65.4017H67.2826Z" fill="white"/>
<path d="M25.6561 67.9538C27.6142 69.651 28.7891 72.1968 28.8544 74.9385H37.8617C37.9269 71.4788 39.7545 68.5413 42.4958 66.8441C41.3863 65.9955 40.0156 65.4733 38.5796 65.4733H30.7472C28.5933 65.4733 26.7657 66.4525 25.6561 67.9538Z" fill="white"/>
<path d="M70.6875 51.1778C67.2934 51.3737 64.5521 54.1805 64.3563 57.5749C64.0952 61.5568 67.2282 64.8207 71.1444 64.8207H71.536H79.6295V64.6901C78.6505 64.2984 77.9325 63.1235 77.9325 61.8179V58.1624V58.0319C77.9325 54.05 74.669 50.982 70.6875 51.1778Z" fill="white"/>
<path d="M20.1075 3.068L86.9442 2.93745C87.858 2.93745 88.6412 3.78605 88.6412 4.83047L88.7065 45.6284C89.6203 45.1715 90.5993 44.9104 91.7089 44.7146L91.6436 4.89576C91.6436 2.21941 89.555 0 86.9442 0L20.1075 0.130551C17.4967 0.130551 15.408 2.34996 15.408 5.02631L15.4733 45.3673C16.5176 45.4326 17.5619 45.6284 18.4757 45.9548L18.4104 5.02631C18.4104 3.9166 19.1284 3.068 20.1075 3.068Z" fill="white"/>
<path d="M46.7995 19.1813L36.6826 33.3463L32.5053 29.4297L22.9759 42.4851L25.7825 44.7698L31.7221 36.8713L37.0743 41.1795L47.2564 27.0145L59.723 37.1977L75.0615 19.7688L84.1341 26.7534L82.8287 3.84125L60.7674 8.4759L68.404 14.5466L58.2871 27.9936L46.7995 19.1813Z" fill="white"/>
</svg>
