<svg width="88" height="79" viewBox="0 0 88 79" fill="none" xmlns="http://www.w3.org/2000/svg">
<path d="M71.0677 77.6392C71.0677 78.4188 70.4181 79.0035 69.7035 79.0035H17.734C16.9544 79.0035 16.3698 78.3538 16.3698 77.6392C16.3698 76.8596 17.0194 76.2748 17.734 76.2748H34.8839V60.9423C34.8839 60.1627 35.5335 59.5779 36.2481 59.5779C37.0277 59.5779 37.6123 60.2276 37.6123 60.9423V76.2748H49.6952V60.9423C49.6952 60.1627 50.3449 59.5779 51.0594 59.5779C51.839 59.5779 52.4236 60.2276 52.4236 60.9423V76.2748H69.5736C70.4181 76.2099 71.0677 76.8596 71.0677 77.6392Z" fill="white"/>
<path d="M78.9288 63.2793H8.44505C3.83276 63.2793 0 59.5111 0 54.8334V8.4459C0 3.83314 3.76779 0 8.44505 0H78.9288C83.5411 0 87.3738 3.76817 87.3738 8.4459V54.8334C87.3738 59.5111 83.5411 63.2793 78.9288 63.2793ZM8.44505 2.07899C4.87215 2.07899 2.0138 4.9376 2.0138 8.51086V54.8983C2.0138 58.4716 4.87215 61.3302 8.44505 61.3302H78.9288C82.5017 61.3302 85.36 58.4716 85.36 54.8983V8.51086C85.36 4.9376 82.5017 2.07899 78.9288 2.07899H8.44505Z" fill="white"/>
<path d="M78.9308 59.5777H8.44705C5.84858 59.5777 3.70482 57.4337 3.70482 54.835V8.44753C3.70482 5.84879 5.84858 3.70483 8.44705 3.70483H78.9308C81.5293 3.70483 83.673 5.84879 83.673 8.44753V54.835C83.608 57.4987 81.5293 59.5777 78.9308 59.5777ZM8.44705 5.78382C6.95293 5.78382 5.71864 7.01822 5.71864 8.5125V54.9C5.71864 56.3943 6.95293 57.6286 8.44705 57.6286H78.9308C80.4249 57.6286 81.6592 56.3943 81.6592 54.9V8.5125C81.6592 7.01822 80.4249 5.78382 78.9308 5.78382H8.44705Z" fill="white"/>
<path d="M29.7573 45.928V36.897C29.7573 35.8207 28.8847 34.9482 27.8084 34.9482C26.7321 34.9482 25.8596 35.8207 25.8596 36.897V45.928C25.8596 47.0044 26.7321 47.8769 27.8084 47.8769C28.8847 47.8769 29.7573 47.0044 29.7573 45.928Z" fill="#F2F2F2"/>
<path d="M39.3684 45.9282V28.6462C39.3684 27.5699 38.4959 26.6974 37.4195 26.6974C36.3432 26.6974 35.4707 27.5699 35.4707 28.6462V45.9282C35.4707 47.0046 36.3432 47.8771 37.4195 47.8771C38.4959 47.8771 39.3684 47.0046 39.3684 45.9282Z" fill="#F2F2F2"/>
<path d="M49.2383 45.927V31.9584C49.2383 30.8821 48.3657 30.0095 47.2894 30.0095C46.2131 30.0095 45.3405 30.8821 45.3405 31.9584V45.927C45.3405 47.0033 46.2131 47.8758 47.2894 47.8758C48.3657 47.8758 49.2383 47.0033 49.2383 45.927Z" fill="#F2F2F2"/>
<path d="M58.8494 45.9268V23.3823C58.8494 22.306 57.9768 21.4335 56.9005 21.4335C55.8242 21.4335 54.9517 22.306 54.9517 23.3823V45.9268C54.9517 47.0031 55.8242 47.8756 56.9005 47.8756C57.9768 47.8756 58.8494 47.0031 58.8494 45.9268Z" fill="#F2F2F2"/>
<path d="M56.7753 13.8998C55.0862 13.8998 53.722 15.2642 53.722 16.9534C53.722 17.3432 53.787 17.733 53.9169 18.1228L49.1747 22.6706C48.655 22.2158 47.9404 21.9559 47.1609 21.9559C45.7967 21.9559 44.6923 22.8005 44.2376 24.0349L40.4698 22.2808C40.4698 22.1508 40.5348 22.0209 40.5348 21.826C40.5348 20.1368 39.1706 18.7725 37.4815 18.7725C35.7925 18.7725 34.4283 20.1368 34.4283 21.826C34.4283 22.1508 34.4933 22.4107 34.5583 22.7356L29.4263 27.6082C28.9715 27.2833 28.3869 27.0884 27.7373 27.0884C26.0482 27.0884 24.6841 28.4528 24.6841 30.142C24.6841 31.8311 26.0482 33.1955 27.7373 33.1955C29.4263 33.1955 30.7905 31.8311 30.7905 30.142C30.7905 29.7521 30.7255 29.3623 30.5306 28.9725L35.5327 24.1649C36.0524 24.5547 36.702 24.8145 37.4166 24.8145C38.326 24.8145 39.1056 24.4247 39.6903 23.84L44.2376 25.984C44.6274 27.2184 45.7967 28.063 47.1609 28.063C48.8499 28.063 50.2141 26.6986 50.2141 25.0095C50.2141 24.7496 50.1491 24.4897 50.1491 24.2948L55.0862 19.6171C55.6059 19.9419 56.1906 20.1368 56.7753 20.1368C58.4643 20.1368 59.8285 18.7725 59.8285 17.0833C59.8285 15.3941 58.4643 13.8998 56.7753 13.8998ZM27.6723 31.3114C27.0227 31.3114 26.438 30.7916 26.438 30.077C26.438 29.4273 26.9577 28.8426 27.6723 28.8426C28.3869 28.8426 28.9066 29.3623 28.9066 30.077C28.9066 30.7916 28.3219 31.3114 27.6723 31.3114ZM37.4166 22.9305C36.767 22.9305 36.1823 22.4107 36.1823 21.6961C36.1823 20.9814 36.702 20.4617 37.4166 20.4617C38.1312 20.4617 38.6509 20.9814 38.6509 21.6961C38.6509 22.4107 38.0662 22.9305 37.4166 22.9305ZM47.1609 26.1789C46.5113 26.1789 45.9266 25.6591 45.9266 24.9445C45.9266 24.2948 46.4463 23.7101 47.1609 23.7101C47.8755 23.7101 48.3952 24.2298 48.3952 24.9445C48.3302 25.6591 47.8105 26.1789 47.1609 26.1789ZM56.7753 18.1878C56.1256 18.1878 55.541 17.668 55.541 16.9534C55.541 16.2387 56.0607 15.719 56.7753 15.719C57.4898 15.719 58.0095 16.2387 58.0095 16.9534C58.0095 17.668 57.4249 18.1878 56.7753 18.1878Z" fill="#F2F2F2"/>
</svg>
