<svg width="71" height="79" viewBox="0 0 71 79" fill="none" xmlns="http://www.w3.org/2000/svg">
<path d="M70.9343 44.4456V44.2504C70.9343 43.3394 70.5403 42.9489 69.5551 42.9489C68.5699 42.9489 67.6503 42.9489 66.6651 42.9489H65.5486H62.6587V33.9687C64.1036 33.4481 64.8261 32.8624 65.4172 31.8863C66.4681 30.1944 66.1397 27.7867 64.7604 26.4852C64.0379 25.8344 63.4468 26.1598 63.1841 26.355C62.6587 26.8105 62.593 27.3962 63.0527 27.9819L63.1184 28.047C63.1841 28.112 63.2498 28.1771 63.3155 28.2422C63.7096 28.7628 63.8409 29.4786 63.6439 30.1293C63.4468 30.7801 62.9871 31.3007 62.3959 31.561C61.4107 31.9514 60.3599 31.6911 59.7031 30.9102C59.0463 30.0643 59.0463 28.958 59.7031 28.112L59.7687 28.047C59.9658 27.7867 60.2285 27.4613 60.1628 27.1359C60.1628 26.8106 59.8344 26.2249 59.3747 26.0947C58.9806 26.0297 58.3895 26.2249 58.1268 26.4852C57.0759 27.5264 56.6818 29.0231 57.0102 30.5198C57.4043 32.0165 58.4551 33.2529 59.9658 33.7084C60.2942 33.8386 60.3599 33.9036 60.2942 34.229C60.2942 36.1162 60.2942 38.0033 60.2942 39.8904V42.4283C60.2942 42.5585 60.2942 42.6886 60.2942 42.7537H53.8576V42.2982C53.8576 41.1919 53.8576 40.1507 53.8576 39.0445C53.8576 36.7018 53.8576 34.229 53.8576 31.8863C53.7262 25.3789 50.9019 20.2381 45.3848 16.5288C42.9547 14.902 40.0648 13.9259 36.9778 13.6005C36.9121 13.6005 36.7808 13.5354 36.7808 13.4704C36.7151 12.8847 36.7808 12.3641 36.7808 11.7784V11.388C40.3932 9.89127 41.9038 7.67876 41.3127 4.68535C40.7873 1.95223 38.4228 0 35.5328 0C32.84 0 30.4098 2.0173 29.95 4.62027C29.3589 7.67875 30.8696 9.89128 34.482 11.3229V13.4704C34.3506 13.4704 34.2193 13.4703 34.1536 13.5354C24.5643 14.1862 16.9454 22.1903 16.9454 31.7562C16.9454 34.1639 16.9454 36.5066 16.9454 38.9143V42.6236H10.5088V33.7084C12.0851 33.1227 12.8733 32.4069 13.4644 31.2356C14.1869 29.6087 13.9242 27.5914 12.7419 26.355C12.0194 25.5741 11.4283 25.8344 11.0999 26.1598C10.8372 26.4201 10.7058 26.6804 10.6402 26.9407C10.6402 27.2661 10.7715 27.5264 11.0342 27.8517C11.0999 27.9168 11.1656 27.9819 11.2313 28.047C11.7567 28.8278 11.8224 29.6087 11.3626 30.4547C10.9029 31.2356 10.1804 31.626 9.26086 31.561C8.34134 31.4959 7.68454 31.0404 7.29046 30.1293C6.96206 29.2834 7.09343 28.5025 7.75023 27.7867C8.07863 27.3962 8.21 26.9407 8.01296 26.5503C7.8816 26.2249 7.55319 25.9646 7.22479 25.9646C6.83071 25.8995 6.23958 26.1598 5.97686 26.4852C4.99166 27.5914 4.59758 29.0231 4.99166 30.4547C5.32006 31.9514 6.43663 33.1227 7.88159 33.6433L8.27566 33.7735V42.7537H5.84553C4.33489 42.7537 2.8899 42.7537 1.37926 42.7537C0.459744 42.7537 0.0656799 43.1442 0 44.0552C0 45.0964 0 46.2026 0 47.2438C0 50.4325 2.16745 52.5148 5.38576 52.5148H9.39222L9.72062 53.2957C10.049 54.1417 10.3774 54.9226 10.7715 55.7035C10.9029 55.9638 10.9029 56.0288 10.7058 56.159C9.52358 57.3303 8.60406 58.1763 7.75023 59.0223C5.77983 61.0395 5.84553 64.1631 7.81593 66.1153L9.06382 67.3517C10.3117 68.5881 11.5597 69.8246 12.8733 71.126C15.1064 73.3386 18.259 73.3386 20.4264 71.126C21.1489 70.4102 21.8057 69.7595 22.5282 69.0437L23.2507 68.2628L23.9732 68.5231C24.8927 68.9135 25.8122 69.2389 26.666 69.6293C26.7317 69.6944 26.7974 69.8245 26.7974 69.9547C26.7974 70.7356 26.7974 71.5816 26.7974 72.3624C26.7974 72.883 26.7974 73.3386 26.7974 73.8591C26.7974 76.8526 29.0305 79 32.0518 79C33.1027 79 34.2193 79 35.2701 79C36.5181 79 37.766 79 39.0796 79C42.1665 79 44.3339 76.8526 44.3996 73.7941C44.3996 73.3385 44.3996 72.818 44.3996 72.3624C44.3996 71.5165 44.3996 70.7356 44.3996 69.8896C44.3996 69.8246 44.4653 69.6293 44.531 69.5643C45.3848 69.1738 46.3044 68.8484 47.2239 68.458L47.9464 68.1977L48.6688 68.9786C49.3913 69.6944 50.1138 70.4102 50.8363 71.1911C53.0037 73.2735 56.0907 73.2735 58.1924 71.1911C59.9001 69.5643 61.5421 67.8723 63.1841 66.2455C65.2859 64.098 65.2859 61.0395 63.1841 58.8921C62.79 58.5017 62.4616 58.1112 62.0675 57.7858C61.4764 57.2002 60.951 56.6796 60.4255 56.0939C60.3599 56.0288 60.2942 55.8987 60.2942 55.8336C60.6226 54.9226 61.0167 54.0766 61.4107 53.1656L61.6735 52.5148H62.79C63.8409 52.5148 64.8918 52.5148 65.9427 52.5148C68.7012 52.4498 70.9343 50.3023 71 47.5692C70.9343 46.6582 70.9343 45.5519 70.9343 44.4456ZM32.1175 5.92175C32.1175 4.94564 32.5116 4.09967 33.1684 3.44893C33.8252 2.79819 34.679 2.47282 35.5985 2.47282H35.6642C37.6346 2.53789 39.1452 4.09967 39.1452 6.0519C39.1452 6.96293 38.7512 7.87397 38.0287 8.45964C37.3719 9.11038 36.4524 9.43575 35.5328 9.43575C33.6281 9.37068 32.0518 7.8089 32.1175 5.92175ZM19.1128 32.1466C19.1128 23.8822 25.5495 16.7891 33.8252 16.0082C42.1008 15.2274 49.7854 20.9539 51.296 29.0881C51.5587 30.5849 51.5587 32.2117 51.6244 33.7735C51.6244 34.229 51.6244 34.6845 51.6244 35.075C51.6901 36.832 51.6244 38.589 51.6244 40.346C51.6244 41.0618 51.6244 41.7776 51.6244 42.4934C51.6244 42.6236 51.6244 42.6886 51.6244 42.8188H43.0204V35.6606C44.5967 35.2051 45.7132 34.2941 46.3044 32.8624C46.7641 31.8213 46.8298 30.715 46.5014 29.6087C45.8446 27.4613 43.7428 25.9646 41.5097 26.0947C39.1453 26.29 37.3062 28.047 36.9778 30.3896C36.7151 32.6672 38.0287 34.6194 40.6559 35.5305V42.6886H30.0157V35.5305C32.7743 34.4242 34.0879 32.4069 33.6281 29.9992C33.1684 27.7216 31.198 26.0297 28.8992 26.0297C26.5347 26.0297 24.4986 27.7867 24.1045 30.0643C23.7105 32.5371 25.0241 34.4893 27.7169 35.5305V42.6886H19.1786C19.1786 42.6236 19.1786 42.5585 19.1786 42.4283C19.1129 39.1096 19.1128 35.6606 19.1128 32.1466ZM51.4931 45.1614C51.3617 52.1244 45.1878 59.7381 35.9926 60.0634C31.5264 60.2587 27.3885 58.6969 24.1702 55.7035C21.1489 52.9053 19.3099 48.9357 19.1786 45.1614H51.4931ZM28.7678 33.5783C28.111 33.5783 27.4542 33.318 26.9944 32.8624C26.469 32.3418 26.2063 31.6911 26.2063 31.0404C26.2063 29.6738 27.3885 28.5025 28.7678 28.5025C30.2128 28.5025 31.3293 29.6738 31.3293 31.0404C31.4607 32.4069 30.2784 33.5783 28.7678 33.5783ZM41.7724 33.5783C41.1156 33.5783 40.4589 33.2529 39.9991 32.7974C39.5393 32.2768 39.2766 31.626 39.2766 30.9753C39.3423 29.6087 40.4589 28.5025 41.8381 28.5025C41.8381 28.5025 41.8381 28.5025 41.9038 28.5025C42.5606 28.5025 43.2174 28.7628 43.6772 29.2834C44.1369 29.7389 44.3996 30.3896 44.3996 31.1054C44.3996 31.8213 44.1369 32.472 43.6115 32.9275C43.1517 33.318 42.4292 33.5783 41.7724 33.5783ZM68.7012 46.0074C68.7012 46.9185 68.6355 47.7644 68.5042 48.6104C68.3071 49.6516 67.2563 50.4325 65.9427 50.4975C64.3664 50.5626 62.79 50.5626 61.148 50.4975C60.2942 50.4975 59.7687 50.8229 59.506 51.6689C59.0463 52.9053 58.5208 54.2068 57.864 55.5083C57.4699 56.2891 57.6013 56.8748 58.1924 57.4605C59.1119 58.3064 59.9658 59.2175 60.8196 60.0634L61.3451 60.584C62.79 62.0157 62.79 63.5774 61.3451 65.0091L56.5504 69.7595C55.2368 71.061 53.5292 71.061 52.2156 69.7595L52.1499 69.6944C51.0333 68.6532 49.9824 67.547 48.9316 66.5058C48.4061 65.9852 47.815 65.855 47.1582 66.1804C45.9103 66.7661 44.5967 67.2867 43.086 67.8723C42.5606 68.0676 41.9695 68.3929 41.9695 69.369C41.9695 70.6705 41.9695 71.972 41.9695 73.2735V73.9893C41.9695 75.8114 40.7873 76.9176 39.0139 76.9827C36.7151 76.9827 34.3506 76.9827 31.7891 76.9827C30.0814 76.9827 28.8992 75.7463 28.8992 74.0544C28.8992 72.5577 28.8992 70.9308 28.8992 69.369C28.8992 68.3929 28.3737 68.0676 27.7826 67.8723C26.272 67.2867 24.9584 66.7661 23.7761 66.2455C23.4477 66.1153 23.185 66.0503 22.988 66.0503C22.5939 66.0503 22.2655 66.2455 21.8714 66.5709C21.0176 67.4819 20.0981 68.3279 19.2442 69.1738L18.6531 69.7595C17.2738 71.126 15.6318 71.126 14.3182 69.7595C12.6762 68.1326 11.0999 66.5709 9.45793 64.944C8.14433 63.6425 8.14433 61.9506 9.45793 60.6491L9.85199 60.2587C10.7715 59.3476 11.7567 58.3715 12.7419 57.3954C13.333 56.8748 13.3987 56.2891 13.0703 55.5733C12.4792 54.2718 11.8881 52.9053 11.3626 51.5387C11.0999 50.8229 10.6402 50.4975 9.85199 50.4975C8.27567 50.4975 6.76503 50.4975 5.2544 50.4975C3.284 50.4975 2.16743 49.3262 2.16743 47.374V45.1614H16.9454C17.4052 50.8229 19.9667 55.3781 24.4329 58.6969C27.8483 61.2348 31.7891 62.4712 36.124 62.276C45.6476 61.9506 53.4635 54.402 53.9889 45.0964H68.8326C68.7012 45.4218 68.7012 45.7471 68.7012 46.0074Z" fill="white"/>
</svg>
