<svg width="79" height="79" viewBox="0 0 79 79" fill="none" xmlns="http://www.w3.org/2000/svg">
<path d="M48.4556 70.1412H27.9491V65.8658H29.6218V41.3907H27.9491V37.1153H29.6218V19.5181H26.5242C25.8427 19.5181 25.2232 19.2083 24.7895 18.6506C23.9221 17.6592 23.9221 15.9862 24.7895 14.9948L36.2508 1.36317C36.9943 0.495696 37.9855 0 39.0387 0C40.0919 0 41.0832 0.495696 41.8266 1.36317L53.2879 14.9948C54.1553 16.0482 54.1553 17.6592 53.2879 18.6506C52.8543 19.2083 52.1727 19.5181 51.5532 19.5181H48.4556V37.1153H50.1283V41.3907H48.4556V70.1412ZM29.8077 68.2823H46.597V39.5319H48.2697V38.9742H46.597V17.6592H51.5532C51.6771 17.6592 51.801 17.5973 51.863 17.4733C52.1727 17.1635 52.1727 16.5439 51.863 16.1721L40.4016 2.54045C40.0299 2.10672 39.5343 1.85887 39.0387 1.85887C38.5431 1.85887 38.0475 2.10672 37.6758 2.54045L26.2144 16.1721C25.9046 16.5439 25.9046 17.1016 26.2144 17.4733C26.2764 17.5353 26.4003 17.6592 26.5242 17.6592H31.4804V38.9742H29.8077V39.5319H31.4804V67.7247H29.8077V68.2823Z" fill="white"/>
<path d="M69.383 8.91852C69.2591 9.04244 69.0732 9.16637 68.8873 9.16637H64.4887V18.9564C64.4887 23.2318 60.8954 26.7017 56.4348 26.7017H47.5135H26.3256C22.7942 26.7017 19.9444 29.428 19.9444 32.8359C19.9444 36.2438 22.7942 38.9702 26.3256 38.9702H30.5384V41.4487H26.3256C21.4313 41.4487 17.4043 37.607 17.4043 32.8359C17.4043 28.0648 21.4313 24.2232 26.3256 24.2232H47.5135H56.4348C59.4705 24.2232 61.9486 21.8067 61.9486 18.8944V9.1044H57.55C57.3641 9.1044 57.1782 9.04245 57.0543 8.85656C56.8065 8.54675 56.8065 8.05105 57.0543 7.67927L62.2584 1.29717C62.754 0.677553 63.6213 0.677553 64.1789 1.29717L69.383 7.67927C69.6308 8.05105 69.6308 8.60871 69.383 8.91852ZM53.4611 39.0321H47.5135V41.5106H53.4611C56.9924 41.5106 59.8422 44.237 59.8422 47.6449C59.8422 51.0528 56.9924 53.7791 53.4611 53.7791H49.2482H26.3256C21.4313 53.7791 17.4043 57.6208 17.4043 62.3919C17.4043 67.163 21.4313 71.0046 26.3256 71.0046H30.5384V68.5261H26.3256C22.7942 68.5261 19.9444 65.7998 19.9444 62.3919C19.9444 58.984 22.7942 56.2576 26.3256 56.2576H49.2482H53.4611C58.3554 56.2576 62.3823 52.416 62.3823 47.6449C62.3823 42.8738 58.3554 39.0321 53.4611 39.0321Z" fill="#F2F2F2"/>
<path d="M6.81485 65.4327H18.7099H30.6049H47.58H59.475H71.37C75.1491 65.4327 78.1848 68.4688 78.1848 72.2485C78.1848 75.9663 75.1491 79.0024 71.37 79.0024H6.81485C3.09766 79.0024 0 75.9663 0 72.2485C0 68.4688 3.0357 65.4327 6.81485 65.4327Z" fill="white"/>
</svg>
