<svg width="27" height="28" viewBox="0 0 27 28" fill="none" xmlns="http://www.w3.org/2000/svg">
<path d="M15.4912 6.4888L18.5771 9.57476M18.5771 9.57476L21.6631 12.6607M18.5771 9.57476L21.6631 6.4888M18.5771 9.57476L15.4912 12.6607M12.1026 9.57476C12.1026 11.6801 10.3959 13.3868 8.29057 13.3868C6.18523 13.3868 4.47852 11.6801 4.47852 9.57476C4.47852 7.46942 6.18523 5.7627 8.29057 5.7627C10.3959 5.7627 12.1026 7.46942 12.1026 9.57476ZM12.1026 19.8613C12.1026 21.9666 10.3959 23.6733 8.29057 23.6733C6.18523 23.6733 4.47852 21.9666 4.47852 19.8613C4.47852 17.7559 6.18523 16.0492 8.29057 16.0492C10.3959 16.0492 12.1026 17.7559 12.1026 19.8613ZM22.3892 19.8613C22.3892 21.9666 20.6825 23.6733 18.5771 23.6733C16.4718 23.6733 14.7651 21.9666 14.7651 19.8613C14.7651 17.7559 16.4718 16.0492 18.5771 16.0492C20.6825 16.0492 22.3892 17.7559 22.3892 19.8613Z" stroke="#F400F6" stroke-width="1.11942" stroke-linecap="round"/>
</svg>
