<svg width="20" height="17" viewBox="0 0 20 17" fill="none" xmlns="http://www.w3.org/2000/svg">
<path d="M19.1654 14.2982C19.1654 14.7402 18.9898 15.1641 18.6772 15.4767C18.3646 15.7892 17.9407 15.9648 17.4987 15.9648H2.4987C2.05667 15.9648 1.63275 15.7892 1.32019 15.4767C1.00763 15.1641 0.832031 14.7402 0.832031 14.2982V5.13151C0.832031 4.68948 1.00763 4.26556 1.32019 3.953C1.63275 3.64044 2.05667 3.46484 2.4987 3.46484H5.83203L7.4987 0.964844H12.4987L14.1654 3.46484H17.4987C17.9407 3.46484 18.3646 3.64044 18.6772 3.953C18.9898 4.26556 19.1654 4.68948 19.1654 5.13151V14.2982Z" stroke="white" stroke-linecap="round" stroke-linejoin="round"/>
<path d="M9.9987 12.6315C11.8396 12.6315 13.332 11.1391 13.332 9.29818C13.332 7.45723 11.8396 5.96484 9.9987 5.96484C8.15775 5.96484 6.66536 7.45723 6.66536 9.29818C6.66536 11.1391 8.15775 12.6315 9.9987 12.6315Z" stroke="white" stroke-linecap="round" stroke-linejoin="round"/>
</svg>
