<svg width="24" height="24" viewBox="0 0 24 24" fill="none" xmlns="http://www.w3.org/2000/svg">
<g clip-path="url(#clip0_10929_55925)">
<path d="M11.7826 20.2868C11.6954 20.1996 11.5745 20.1494 11.4512 20.1494C11.3279 20.1494 11.207 20.1996 11.1198 20.2868C11.0326 20.3739 10.9824 20.4949 10.9824 20.6182C10.9824 20.742 11.0326 20.8624 11.1198 20.9496C11.207 21.0372 11.3279 21.0869 11.4512 21.0869C11.5745 21.0869 11.6954 21.0372 11.7826 20.9496C11.8698 20.8624 11.9199 20.7415 11.9199 20.6182C11.9199 20.4949 11.8697 20.3739 11.7826 20.2868Z" fill="#00F0FB"/>
<path d="M14.0148 15.9628V12.5136C14.0148 12.3579 13.9374 12.2123 13.8084 12.1252C13.6793 12.038 13.5154 12.0207 13.3709 12.0788L5.29372 15.3318H2.69217C1.20773 15.3318 0 16.5395 0 18.0241C0 19.5086 1.20773 20.7163 2.69226 20.7163H3.00206V23.5313C3.00206 23.7901 3.21192 24 3.47081 24H5.38443C5.64332 24 5.85318 23.7901 5.85318 23.5313V20.9425L13.3711 23.9662C13.4275 23.9889 13.4869 24.0001 13.546 24.0001C13.6382 24.0001 13.7298 23.9728 13.8085 23.9197C13.9375 23.8326 14.0148 23.687 14.0148 23.5313V20.0822C14.9548 19.8683 15.6587 19.0263 15.6587 18.0225C15.6587 17.0187 14.9548 16.1767 14.0148 15.9628ZM4.91563 23.0625H3.93955V20.7163H4.91568V23.0625H4.91563ZM4.91572 19.7788H2.69226C1.72467 19.7788 0.937498 18.9916 0.937498 18.0241C0.937498 17.0565 1.72467 16.2693 2.69226 16.2693H4.91591L4.91572 19.7788ZM13.0773 22.8375H13.0773L5.85341 19.932V16.1171L10.9828 14.0513V18.7031C10.9828 18.962 11.1926 19.1719 11.4515 19.1719C11.7104 19.1719 11.9203 18.962 11.9203 18.7031V13.6737L13.0773 13.2077V22.8375ZM14.0148 19.0999V16.9451C14.4301 17.1265 14.7213 17.541 14.7213 18.0225C14.7213 18.5039 14.4302 18.9185 14.0148 19.0999Z" fill="#00F0FB"/>
<path d="M20.1305 17.5674H17.4766C17.2177 17.5674 17.0078 17.7773 17.0078 18.0361C17.0078 18.295 17.2177 18.5049 17.4766 18.5049H20.1305C20.3894 18.5049 20.5993 18.295 20.5993 18.0361C20.5993 17.7773 20.3894 17.5674 20.1305 17.5674Z" fill="#00F0FB"/>
<path d="M17.954 14.1324C17.7709 13.9494 17.4741 13.9494 17.291 14.1324L16.3756 15.0478C16.1925 15.2309 16.1925 15.5277 16.3756 15.7108C16.4672 15.8023 16.5871 15.8481 16.7071 15.8481C16.827 15.8481 16.947 15.8023 17.0385 15.7108L17.954 14.7953C18.137 14.6123 18.137 14.3155 17.954 14.1324Z" fill="#00F0FB"/>
<path d="M17.9885 21.2328L17.0424 20.2867C16.8594 20.1037 16.5626 20.1037 16.3795 20.2867C16.1964 20.4697 16.1964 20.7665 16.3795 20.9496L17.3256 21.8957C17.4171 21.9872 17.5371 22.033 17.657 22.033C17.777 22.033 17.897 21.9872 17.9885 21.8957C18.1715 21.7127 18.1715 21.4159 17.9885 21.2328Z" fill="#00F0FB"/>
<path d="M22.125 0H13.4062C12.3724 0 11.5312 0.841123 11.5312 1.875V2.0625H3.65625C3.03591 2.0625 2.53125 2.5672 2.53125 3.18749V10.5937C2.53125 11.214 3.03591 11.7187 3.65625 11.7187H4.14061V13.1562C4.14061 13.3458 4.25484 13.5168 4.42997 13.5893C4.48795 13.6133 4.54884 13.625 4.60926 13.625C4.73123 13.625 4.85114 13.5774 4.94081 13.4877L6.70977 11.7187H16.0209C16.6413 11.7187 17.1459 11.214 17.1459 10.5937V9.18748H22.125C23.1588 9.18748 24 8.34636 24 7.31249V1.875C23.9999 0.841123 23.1588 0 22.125 0ZM16.2084 10.5937C16.2084 10.6971 16.1243 10.7812 16.0209 10.7812H6.51562C6.39131 10.7812 6.27205 10.8306 6.18416 10.9185L5.07815 12.0246V11.25C5.07815 10.9911 4.86829 10.7812 4.6094 10.7812H3.65625C3.55284 10.7812 3.46875 10.6971 3.46875 10.5937V3.18749C3.46875 3.08409 3.55284 2.99999 3.65625 2.99999H11.5312V7.31249C11.5312 8.34636 12.3724 9.18748 13.4062 9.18748H16.2084V10.5937ZM23.0625 7.31249C23.0625 7.82942 22.6419 8.24998 22.125 8.24998H13.4062C12.8893 8.24998 12.4687 7.82942 12.4687 7.31249V1.875C12.4687 1.35806 12.8893 0.937498 13.4062 0.937498H22.125C22.6419 0.937498 23.0625 1.35806 23.0625 1.875V7.31249Z" fill="#00F0FB"/>
<path d="M19.6495 4.1875L16.4414 2.33529C16.2964 2.25152 16.1177 2.25152 15.9727 2.33529C15.8276 2.419 15.7383 2.57378 15.7383 2.74122V6.44561C15.7383 6.61304 15.8276 6.76782 15.9727 6.85154C16.0452 6.89345 16.1261 6.91435 16.207 6.91435C16.288 6.91435 16.3689 6.89345 16.4414 6.85154L19.6495 4.99933C19.7946 4.91561 19.8839 4.76083 19.8839 4.59339C19.8839 4.42595 19.7946 4.27122 19.6495 4.1875ZM16.6758 5.63373V3.55314L18.4777 4.59344L16.6758 5.63373Z" fill="#00F0FB"/>
<path d="M10.0547 4.92188H5.36719C5.1083 4.92188 4.89844 5.13178 4.89844 5.39062C4.89844 5.64947 5.1083 5.85937 5.36719 5.85937H10.0547C10.3136 5.85937 10.5234 5.64947 10.5234 5.39062C10.5234 5.13178 10.3136 4.92188 10.0547 4.92188Z" fill="#00F0FB"/>
<path d="M10.3861 7.68422C10.2989 7.59698 10.178 7.54688 10.0547 7.54688C9.93141 7.54688 9.81047 7.59698 9.72328 7.68422C9.63609 7.77141 9.58594 7.89234 9.58594 8.01562C9.58594 8.13891 9.63609 8.25984 9.72328 8.34698C9.81047 8.43417 9.93141 8.48437 10.0547 8.48437C10.1784 8.48437 10.2989 8.43422 10.3861 8.34698C10.4733 8.25984 10.5234 8.13891 10.5234 8.01562C10.5234 7.89234 10.4733 7.77141 10.3861 7.68422Z" fill="#00F0FB"/>
<path d="M8.29635 7.54688H5.36719C5.1083 7.54688 4.89844 7.75678 4.89844 8.01562C4.89844 8.27447 5.1083 8.48437 5.36719 8.48437H8.29635C8.55524 8.48437 8.7651 8.27447 8.7651 8.01562C8.7651 7.75678 8.55524 7.54688 8.29635 7.54688Z" fill="#00F0FB"/>
</g>
<defs>
<clipPath id="clip0_10929_55925">
<rect width="24" height="24" fill="white"/>
</clipPath>
</defs>
</svg>
