<svg width="10" height="10" viewBox="0 0 10 10" fill="none" xmlns="http://www.w3.org/2000/svg">
<path d="M9.06502 1.99502C9.13669 1.92587 9.19386 1.84314 9.23321 1.75165C9.27256 1.66017 9.29329 1.56176 9.29421 1.46218C9.29512 1.3626 9.27619 1.26383 9.23852 1.17164C9.20085 1.07945 9.1452 0.995685 9.07482 0.925232C9.00443 0.85478 8.92072 0.799051 8.82857 0.761297C8.73641 0.723543 8.63766 0.70452 8.53808 0.705338C8.43849 0.706156 8.34007 0.726799 8.24855 0.766062C8.15703 0.805325 8.07424 0.862422 8.00502 0.934021L4.99902 3.93902L1.99402 0.934021C1.92536 0.860334 1.84256 0.801232 1.75056 0.76024C1.65856 0.719248 1.55925 0.697206 1.45854 0.695429C1.35784 0.693652 1.25781 0.712177 1.16442 0.749898C1.07104 0.787619 0.986201 0.843764 0.914983 0.914983C0.843764 0.986201 0.787619 1.07103 0.749898 1.16442C0.712177 1.25781 0.693652 1.35784 0.695429 1.45854C0.697206 1.55925 0.719248 1.65856 0.76024 1.75056C0.801232 1.84256 0.860334 1.92536 0.934021 1.99402L3.93702 5.00002L0.932021 8.00502C0.799541 8.1472 0.727418 8.33524 0.730846 8.52954C0.734274 8.72384 0.812986 8.90923 0.950399 9.04664C1.08781 9.18406 1.2732 9.26277 1.4675 9.2662C1.6618 9.26962 1.84985 9.1975 1.99202 9.06502L4.99902 6.06002L8.00402 9.06602C8.1462 9.1985 8.33424 9.27063 8.52854 9.2672C8.72285 9.26377 8.90823 9.18506 9.04564 9.04764C9.18305 8.91023 9.26177 8.72484 9.26519 8.53054C9.26862 8.33624 9.1965 8.1482 9.06402 8.00602L6.06102 5.00002L9.06502 1.99502Z" fill="#FF0011"/>
</svg>
