<svg width="27" height="27" viewBox="0 0 27 27" fill="none" xmlns="http://www.w3.org/2000/svg">
<mask id="path-1-inside-1_10822_123426" fill="white">
<path d="M6.88477 9.40625H18.916V19.25C18.916 20.7141 17.7238 21.9062 16.2598 21.9062H10.0098C8.5457 21.9062 7.35352 20.7141 7.35352 19.25V11.125C7.35352 10.8656 7.14414 10.6562 6.88477 10.6562C6.62539 10.6562 6.41602 10.8656 6.41602 11.125V19.25C6.41602 21.2312 8.02852 22.8438 10.0098 22.8438H16.2598C18.241 22.8438 19.8535 21.2312 19.8535 19.25V9.35C20.7473 9.1375 21.416 8.33437 21.416 7.375C21.416 6.25469 20.5051 5.34375 19.3848 5.34375H6.88477C5.76445 5.34375 4.85352 6.25469 4.85352 7.375C4.85352 8.49531 5.76445 9.40625 6.88477 9.40625ZM6.88477 6.28125H19.3848C19.9879 6.28125 20.4785 6.77188 20.4785 7.375C20.4785 7.97813 19.9879 8.46875 19.3848 8.46875H6.88477C6.28164 8.46875 5.79102 7.97813 5.79102 7.375C5.79102 6.77188 6.28164 6.28125 6.88477 6.28125Z"/>
</mask>
<path d="M18.916 9.40625H19.916V8.40625H18.916V9.40625ZM19.8535 9.35L19.6222 8.37712L18.8535 8.55989V9.35H19.8535ZM6.88477 10.4062H18.916V8.40625H6.88477V10.4062ZM17.916 9.40625V19.25H19.916V9.40625H17.916ZM17.916 19.25C17.916 20.1618 17.1715 20.9062 16.2598 20.9062V22.9062C18.2761 22.9062 19.916 21.2663 19.916 19.25H17.916ZM16.2598 20.9062H10.0098V22.9062H16.2598V20.9062ZM10.0098 20.9062C9.09799 20.9062 8.35352 20.1618 8.35352 19.25H6.35352C6.35352 21.2663 7.99342 22.9062 10.0098 22.9062V20.9062ZM8.35352 19.25V11.125H6.35352V19.25H8.35352ZM8.35352 11.125C8.35352 10.3133 7.69643 9.65625 6.88477 9.65625V11.6562C6.59186 11.6562 6.35352 11.4179 6.35352 11.125H8.35352ZM6.88477 9.65625C6.07311 9.65625 5.41602 10.3133 5.41602 11.125H7.41602C7.41602 11.4179 7.17768 11.6562 6.88477 11.6562V9.65625ZM5.41602 11.125V19.25H7.41602V11.125H5.41602ZM5.41602 19.25C5.41602 21.7835 7.47623 23.8438 10.0098 23.8438V21.8438C8.5808 21.8438 7.41602 20.679 7.41602 19.25H5.41602ZM10.0098 23.8438H16.2598V21.8438H10.0098V23.8438ZM16.2598 23.8438C18.7933 23.8438 20.8535 21.7835 20.8535 19.25H18.8535C18.8535 20.679 17.6887 21.8438 16.2598 21.8438V23.8438ZM20.8535 19.25V9.35H18.8535V19.25H20.8535ZM20.0848 10.3229C21.4159 10.0064 22.416 8.81104 22.416 7.375H20.416C20.416 7.85771 20.0786 8.26861 19.6222 8.37712L20.0848 10.3229ZM22.416 7.375C22.416 5.7024 21.0574 4.34375 19.3848 4.34375V6.34375C19.9528 6.34375 20.416 6.80697 20.416 7.375H22.416ZM19.3848 4.34375H6.88477V6.34375H19.3848V4.34375ZM6.88477 4.34375C5.21217 4.34375 3.85352 5.7024 3.85352 7.375H5.85352C5.85352 6.80697 6.31674 6.34375 6.88477 6.34375V4.34375ZM3.85352 7.375C3.85352 9.0476 5.21217 10.4062 6.88477 10.4062V8.40625C6.31674 8.40625 5.85352 7.94303 5.85352 7.375H3.85352ZM6.88477 7.28125H19.3848V5.28125H6.88477V7.28125ZM19.3848 7.28125C19.4356 7.28125 19.4785 7.32416 19.4785 7.375H21.4785C21.4785 6.21959 20.5402 5.28125 19.3848 5.28125V7.28125ZM19.4785 7.375C19.4785 7.42584 19.4356 7.46875 19.3848 7.46875V9.46875C20.5402 9.46875 21.4785 8.53041 21.4785 7.375H19.4785ZM19.3848 7.46875H6.88477V9.46875H19.3848V7.46875ZM6.88477 7.46875C6.83393 7.46875 6.79102 7.42584 6.79102 7.375H4.79102C4.79102 8.53041 5.72936 9.46875 6.88477 9.46875V7.46875ZM6.79102 7.375C6.79102 7.32416 6.83393 7.28125 6.88477 7.28125V5.28125C5.72936 5.28125 4.79102 6.21959 4.79102 7.375H6.79102Z" fill="#B1ADCD" mask="url(#path-1-inside-1_10822_123426)"/>
<path d="M10.791 4.09375H15.4785C15.7379 4.09375 15.9473 3.88437 15.9473 3.625C15.9473 3.36563 15.7379 3.15625 15.4785 3.15625H10.791C10.5316 3.15625 10.3223 3.36563 10.3223 3.625C10.3223 3.88437 10.5316 4.09375 10.791 4.09375Z" fill="#B1ADCD"/>
<path d="M11.416 19.25V12.0625C11.416 11.8031 11.2066 11.5938 10.9473 11.5938C10.6879 11.5938 10.4785 11.8031 10.4785 12.0625V19.25C10.4785 19.5094 10.6879 19.7188 10.9473 19.7188C11.2066 19.7188 11.416 19.5094 11.416 19.25Z" fill="#B1ADCD"/>
<path d="M15.791 19.25V12.0625C15.791 11.8031 15.5816 11.5938 15.3223 11.5938C15.0629 11.5938 14.8535 11.8031 14.8535 12.0625V19.25C14.8535 19.5094 15.0629 19.7188 15.3223 19.7188C15.5816 19.7188 15.791 19.5094 15.791 19.25Z" fill="#B1ADCD"/>
</svg>
