<svg width="27" height="28" viewBox="0 0 27 28" fill="none" xmlns="http://www.w3.org/2000/svg">
<path d="M5.25586 6.06934H21.7441C22.3422 6.06999 22.9156 6.30787 23.3386 6.73078C23.7615 7.1537 23.9993 7.7271 24 8.3252V19.8096C23.9993 20.4077 23.7615 20.9811 23.3386 21.404C22.9156 21.8269 22.3422 22.0648 21.7441 22.0654H5.25586C4.65777 22.0648 4.08436 21.8269 3.66145 21.404C3.23853 20.9811 3.00065 20.4077 3 19.8096V8.3252C3.00065 7.7271 3.23853 7.1537 3.66145 6.73078C4.08436 6.30787 4.65777 6.06999 5.25586 6.06934ZM4.23047 8.3252V19.8096C4.23042 19.8594 4.23413 19.9092 4.24154 19.9585L10.1568 14.0674L4.24154 8.17631C4.23413 8.22559 4.23042 8.27536 4.23047 8.3252ZM5.25586 7.2998C5.20866 7.29996 5.16153 7.30325 5.11477 7.30965L13.5 15.66L21.8852 7.30965C21.8385 7.30325 21.7913 7.29996 21.7441 7.2998H5.25586ZM22.7585 19.9585C22.7659 19.9092 22.7696 19.8594 22.7695 19.8096V8.3252C22.7696 8.27536 22.7659 8.22559 22.7585 8.17631L16.8432 14.0674L22.7585 19.9585ZM21.7441 20.835C21.7913 20.8348 21.8385 20.8315 21.8852 20.8251L15.9712 14.9357L13.9339 16.9643C13.8187 17.079 13.6626 17.1434 13.5 17.1434C13.3374 17.1434 13.1813 17.079 13.0661 16.9643L11.0288 14.9357L5.11477 20.8251C5.16153 20.8315 5.20866 20.8348 5.25586 20.835H21.7441Z" fill="#5B97FF"/>
</svg>
