<svg width="9" height="10" viewBox="0 0 9 10" fill="none" xmlns="http://www.w3.org/2000/svg">
<path d="M7.6895 2.68813C7.32455 2.18446 6.84537 1.77451 6.29128 1.49193C5.73719 1.20934 5.12399 1.06217 4.502 1.0625C2.46687 1.0625 0.79325 2.60563 0.585875 4.586L0.546875 4.95875L1.29313 5.03713L1.33175 4.664C1.4016 4.00393 1.67574 3.38212 2.11592 2.88532C2.55611 2.38852 3.1404 2.04152 3.78726 1.89272C4.43412 1.74391 5.1113 1.80074 5.72432 2.05525C6.33734 2.30977 6.85563 2.74929 7.20687 3.3125H5.8145V4.0625H8.4395V1.4375H7.6895V2.68813ZM7.71088 4.96288L7.67188 5.336C7.60193 5.99597 7.32776 6.61765 6.8876 7.11434C6.44744 7.61104 5.86323 7.95797 5.21646 8.10676C4.56969 8.25555 3.89261 8.19878 3.27966 7.94436C2.6667 7.68994 2.14843 7.25056 1.79713 6.6875H3.1895V5.9375H0.5645V8.5625H1.3145V7.31188C1.67945 7.81554 2.15863 8.22549 2.71272 8.50808C3.26681 8.79066 3.88001 8.93783 4.502 8.9375C6.53675 8.9375 8.21075 7.39438 8.41775 5.414L8.45675 5.04125L7.71088 4.96288Z" fill="#B1ADCD"/>
</svg>
