<svg width="33" height="30" viewBox="0 0 33 30" fill="none" xmlns="http://www.w3.org/2000/svg">
<rect x="0.5" y="0.5" width="32" height="29" rx="7.5" stroke="#FFCD1E"/>
<path d="M9.32 23V19.7H2.88V18.24C2.90667 18.1733 2.94667 18.0933 3 18C3.06667 17.9067 3.14 17.8 3.22 17.68L8.72 9.8H11.34V18.04H13.58V19.7H11.34V23H9.32ZM4.88 18.04H9.32V13.38C9.32 13.06 9.32667 12.7333 9.34 12.4C9.36667 12.0533 9.38667 11.7133 9.4 11.38H9.36C9.21333 11.7 9.02 12.0533 8.78 12.44C8.55333 12.8133 8.34 13.14 8.14 13.42L5.02 17.86C4.99333 17.8867 4.96667 17.9133 4.94 17.94C4.92667 17.9667 4.90667 18 4.88 18.04ZM27.2214 9.8L21.3414 16.16L21.1014 16.18L17.6814 19.86L17.4814 17.52L24.6014 9.8H27.2214ZM18.5414 9.8V23H16.4014V9.8H18.5414ZM21.7814 14.52L27.3414 23H24.8214L20.0814 15.72L21.7814 14.52Z" fill="#FFCD1E"/>
</svg>
