<svg width="18" height="19" viewBox="0 0 18 19" fill="none" xmlns="http://www.w3.org/2000/svg">
<g id="profile-circle-svgrepo-com 1">
<path id="Vector" d="M9.08909 9.7122C9.03659 9.7047 8.96909 9.7047 8.90909 9.7122C7.58909 9.6672 6.53906 8.5872 6.53906 7.25968C6.53906 5.90218 7.63409 4.79968 8.99909 4.79968C10.3566 4.79968 11.4591 5.90218 11.4591 7.25968C11.4516 8.5872 10.4091 9.6672 9.08909 9.7122Z" stroke="#00F0FB" stroke-linecap="round" stroke-linejoin="round"/>
<path id="Vector_2" d="M14.0553 14.6622C12.7203 15.8847 10.9503 16.6272 9.0003 16.6272C7.05031 16.6272 5.28031 15.8847 3.94531 14.6622C4.02031 13.9572 4.47031 13.2672 5.27281 12.7272C7.32781 11.3622 10.6878 11.3622 12.7278 12.7272C13.5303 13.2672 13.9803 13.9572 14.0553 14.6622Z" stroke="#00F0FB" stroke-linecap="round" stroke-linejoin="round"/>
<path id="Vector_3" d="M9 16.6272C13.1421 16.6272 16.5 13.2693 16.5 9.1272C16.5 4.98506 13.1421 1.6272 9 1.6272C4.85786 1.6272 1.5 4.98506 1.5 9.1272C1.5 13.2693 4.85786 16.6272 9 16.6272Z" stroke="#00F0FB" stroke-linecap="round" stroke-linejoin="round"/>
</g>
</svg>
