<svg width="22" height="23" viewBox="0 0 22 23" fill="none" xmlns="http://www.w3.org/2000/svg">
<g clip-path="url(#clip0_533_2178)">
<path d="M18.9379 0.802002H2.98164C2.27633 0.802002 1.59991 1.08219 1.10118 1.58091C0.602449 2.07964 0.322266 2.75607 0.322266 3.46138L0.322266 9.66658C0.324574 10.3229 0.571048 10.9549 1.0137 11.4395C0.571048 11.9241 0.324574 12.5561 0.322266 13.2124L0.322266 19.4176C0.322266 20.1229 0.602449 20.7994 1.10118 21.2981C1.59991 21.7968 2.27633 22.077 2.98164 22.077H18.9379C19.6432 22.077 20.3196 21.7968 20.8184 21.2981C21.3171 20.7994 21.5973 20.1229 21.5973 19.4176V13.2124C21.595 12.5561 21.3485 11.9241 20.9058 11.4395C21.3485 10.9549 21.595 10.3229 21.5973 9.66658V3.46138C21.5973 2.75607 21.3171 2.07964 20.8184 1.58091C20.3196 1.08219 19.6432 0.802002 18.9379 0.802002V0.802002ZM2.09518 3.46138C2.09518 3.22627 2.18858 3.0008 2.35482 2.83456C2.52106 2.66831 2.74654 2.57492 2.98164 2.57492H18.9379C19.173 2.57492 19.3985 2.66831 19.5647 2.83456C19.731 3.0008 19.8243 3.22627 19.8243 3.46138V9.66658C19.8243 9.90169 19.731 10.1272 19.5647 10.2934C19.3985 10.4596 19.173 10.553 18.9379 10.553H2.98164C2.74654 10.553 2.52106 10.4596 2.35482 10.2934C2.18858 10.1272 2.09518 9.90169 2.09518 9.66658V3.46138ZM19.8243 19.4176C19.8243 19.6527 19.731 19.8782 19.5647 20.0444C19.3985 20.2107 19.173 20.3041 18.9379 20.3041H2.98164C2.74654 20.3041 2.52106 20.2107 2.35482 20.0444C2.18858 19.8782 2.09518 19.6527 2.09518 19.4176V13.2124C2.09518 12.9773 2.18858 12.7518 2.35482 12.5856C2.52106 12.4194 2.74654 12.326 2.98164 12.326H18.9379C19.173 12.326 19.3985 12.4194 19.5647 12.5856C19.731 12.7518 19.8243 12.9773 19.8243 13.2124V19.4176Z" fill="#00F0FB"/>
<path d="M10.0734 7.89373H11.8463C12.5517 7.89373 13.2281 7.61354 13.7268 7.11482C14.2255 6.61609 14.5057 5.93967 14.5057 5.23436C14.5057 4.99925 14.4123 4.77378 14.2461 4.60754C14.0798 4.44129 13.8544 4.3479 13.6193 4.3479C13.3842 4.3479 13.1587 4.44129 12.9924 4.60754C12.8262 4.77378 12.7328 4.99925 12.7328 5.23436C12.7328 5.46946 12.6394 5.69493 12.4732 5.86118C12.3069 6.02742 12.0814 6.12081 11.8463 6.12081H10.0734C9.83833 6.12081 9.61286 6.02742 9.44661 5.86118C9.28037 5.69493 9.18698 5.46946 9.18698 5.23436C9.18698 4.99925 9.09358 4.77378 8.92734 4.60754C8.7611 4.44129 8.53562 4.3479 8.30052 4.3479C8.06542 4.3479 7.83994 4.44129 7.6737 4.60754C7.50746 4.77378 7.41406 4.99925 7.41406 5.23436C7.41406 5.93967 7.69425 6.61609 8.19297 7.11482C8.6917 7.61354 9.36812 7.89373 10.0734 7.89373Z" fill="#00F0FB"/>
<path d="M13.6193 14.0989C13.3842 14.0989 13.1587 14.1923 12.9924 14.3585C12.8262 14.5248 12.7328 14.7502 12.7328 14.9853C12.7328 15.2204 12.6394 15.4459 12.4732 15.6122C12.3069 15.7784 12.0814 15.8718 11.8463 15.8718H10.0734C9.83833 15.8718 9.61286 15.7784 9.44661 15.6122C9.28037 15.4459 9.18698 15.2204 9.18698 14.9853C9.18698 14.7502 9.09358 14.5248 8.92734 14.3585C8.7611 14.1923 8.53562 14.0989 8.30052 14.0989C8.06542 14.0989 7.83994 14.1923 7.6737 14.3585C7.50746 14.5248 7.41406 14.7502 7.41406 14.9853C7.41406 15.6906 7.69425 16.3671 8.19297 16.8658C8.6917 17.3645 9.36812 17.6447 10.0734 17.6447H11.8463C12.5517 17.6447 13.2281 17.3645 13.7268 16.8658C14.2255 16.3671 14.5057 15.6906 14.5057 14.9853C14.5057 14.7502 14.4123 14.5248 14.2461 14.3585C14.0798 14.1923 13.8544 14.0989 13.6193 14.0989Z" fill="#00F0FB"/>
</g>
<defs>
<clipPath id="clip0_533_2178">
<rect width="21.275" height="21.275" fill="white" transform="translate(0.322266 0.802002)"/>
</clipPath>
</defs>
</svg>
