<svg width="58" height="58" viewBox="0 0 58 58" fill="none" xmlns="http://www.w3.org/2000/svg">
<circle cx="29" cy="29" r="29" fill="url(#paint0_linear_205_512)"/>
<path d="M21.2809 13.4777C21.4419 13.0424 22.0576 13.0424 22.2187 13.4777L25.2771 21.743C25.3278 21.8798 25.4357 21.9877 25.5725 22.0384L33.8378 25.0968C34.2731 25.2579 34.2731 25.8736 33.8378 26.0346L25.5725 29.0931C25.4357 29.1437 25.3278 29.2516 25.2771 29.3885L22.2187 37.6537C22.0576 38.089 21.4419 38.089 21.2809 37.6537L18.2224 29.3885C18.1718 29.2516 18.0639 29.1437 17.927 29.0931L9.66178 26.0346C9.22648 25.8736 9.22648 25.2579 9.66178 25.0968L17.927 22.0384C18.0639 21.9877 18.1718 21.8798 18.2224 21.743L21.2809 13.4777Z" fill="white"/>
<path d="M39.2154 28.7409C39.3765 28.3056 39.9922 28.3056 40.1532 28.7409L41.6657 32.8284C41.7164 32.9652 41.8243 33.0731 41.9612 33.1238L46.0486 34.6363C46.4839 34.7974 46.4839 35.4131 46.0486 35.5741L41.9612 37.0866C41.8243 37.1373 41.7164 37.2452 41.6657 37.3821L40.1532 41.4695C39.9922 41.9048 39.3765 41.9048 39.2154 41.4695L37.7029 37.3821C37.6522 37.2452 37.5443 37.1373 37.4075 37.0866L33.32 35.5741C32.8847 35.4131 32.8847 34.7974 33.32 34.6363L37.4075 33.1238C37.5443 33.0731 37.6522 32.9652 37.7029 32.8284L39.2154 28.7409Z" fill="white"/>
<defs>
<linearGradient id="paint0_linear_205_512" x1="29" y1="0" x2="29" y2="58" gradientUnits="userSpaceOnUse">
<stop stop-color="#FF77B0"/>
<stop offset="1" stop-color="#7D3CF3" stop-opacity="0"/>
</linearGradient>
</defs>
</svg>
