<svg width="26" height="20" viewBox="0 0 26 20" fill="none" xmlns="http://www.w3.org/2000/svg">
<g clip-path="url(#clip0_146_2714)">
<path d="M18.269 19.6849C18.5856 19.6849 18.8168 19.3821 18.731 19.0766C18.3309 17.6502 17.0232 16.6044 15.4717 16.6044H10.5203C8.96874 16.6044 7.6611 17.6502 7.26093 19.0766C7.17522 19.3821 7.40628 19.6849 7.72299 19.6849H18.269Z" fill="#F7F7F7"/>
<path d="M11.2573 16.6044H10.8049C9.24293 16.6044 7.96035 17.9576 7.82129 19.6849H8.88977C9.00011 17.9576 10.0179 16.6044 11.2573 16.6044Z" fill="#E5E5E5"/>
<path d="M15.1868 16.6044H14.7345C15.9739 16.6044 16.9917 17.9576 17.1021 19.6849H18.1705C18.0315 17.9576 16.7488 16.6044 15.1868 16.6044Z" fill="white"/>
<path d="M18.0341 3.36151H17.2195V5.56179H18.0341V3.36151Z" fill="#F7F7F7"/>
<path d="M17.5106 3.36151H17.3083V5.56179H17.5106V3.36151Z" fill="#E5E5E5"/>
<path d="M17.6268 2.84814C17.3084 2.84814 17.0494 2.58858 17.0494 2.26955C17.0494 1.95052 17.3084 1.69098 17.6268 1.69098C17.9452 1.69098 18.2042 1.95052 18.2042 2.26955C18.2042 2.58858 17.9452 2.84814 17.6268 2.84814ZM17.6268 0.874756C16.8591 0.874756 16.2347 1.50047 16.2347 2.26955C16.2347 3.03863 16.8591 3.66435 17.6268 3.66435C18.3945 3.66435 19.019 3.03863 19.019 2.26955C19.019 1.50047 18.3945 0.874756 17.6268 0.874756Z" fill="#F7F7F7"/>
<path d="M17.6268 2.84728C17.3088 2.84728 17.0502 2.58812 17.0502 2.26955C17.0502 1.95098 17.3088 1.69182 17.6268 1.69182C17.9448 1.69182 18.2034 1.95098 18.2034 2.26955C18.2034 2.58812 17.9448 2.84728 17.6268 2.84728ZM17.6268 1.26978C17.0766 1.26978 16.6289 1.71829 16.6289 2.26955C16.6289 2.82082 17.0766 3.26933 17.6268 3.26933C18.177 3.26933 18.6247 2.82082 18.6247 2.26955C18.6247 1.71829 18.177 1.26978 17.6268 1.26978Z" fill="#E5E5E5"/>
<path d="M8.77248 3.36151H7.95776V5.56179H8.77248V3.36151Z" fill="#F7F7F7"/>
<path d="M8.24889 3.36151H8.04663V5.56179H8.24889V3.36151Z" fill="#E5E5E5"/>
<path d="M8.36504 2.84814C8.04661 2.84814 7.78756 2.58858 7.78756 2.26955C7.78756 1.95052 8.04661 1.69098 8.36504 1.69098C8.68346 1.69098 8.94252 1.95052 8.94252 2.26955C8.94252 2.58858 8.68346 2.84814 8.36504 2.84814ZM8.36504 0.874756C7.59742 0.874756 6.9729 1.50047 6.9729 2.26955C6.9729 3.03863 7.59742 3.66435 8.36504 3.66435C9.13265 3.66435 9.75726 3.03863 9.75726 2.26955C9.75726 1.50047 9.13265 0.874756 8.36504 0.874756Z" fill="#F7F7F7"/>
<path d="M8.36504 2.84728C8.04707 2.84728 7.78842 2.58812 7.78842 2.26955C7.78842 1.95098 8.04707 1.69182 8.36504 1.69182C8.68302 1.69182 8.94167 1.95098 8.94167 2.26955C8.94167 2.58812 8.68302 2.84728 8.36504 2.84728ZM8.36504 1.26978C7.81483 1.26978 7.36719 1.71829 7.36719 2.26955C7.36719 2.82082 7.81483 3.26933 8.36504 3.26933C8.91526 3.26933 9.36298 2.82082 9.36298 2.26955C9.36298 1.71829 8.91526 1.26978 8.36504 1.26978Z" fill="#E5E5E5"/>
<path d="M10.6499 15.3436H15.3419C16.1151 15.3436 16.7418 14.7211 16.7418 13.9532V13.947H9.25V13.9532C9.25 14.7211 9.87676 15.3436 10.6499 15.3436Z" fill="#F7F7F7"/>
<path d="M1.67834 11.3657H3.34212V8.01709H1.67834C0.751422 8.01709 0 8.76341 0 9.68407V9.69859C0 10.6192 0.751422 11.3657 1.67834 11.3657Z" fill="#F7F7F7"/>
<path d="M0.831797 9.69133C0.831797 8.76667 1.57996 8.01709 2.50285 8.01709H2.01358C1.09069 8.01709 0.342529 8.76667 0.342529 9.69133C0.342529 10.616 1.09069 11.3657 2.01358 11.3657H2.50285C1.57996 11.3657 0.831797 10.616 0.831797 9.69133Z" fill="#E5E5E5"/>
<path d="M24.3135 8.01709H22.6498V11.3657H24.3135C25.2405 11.3657 25.9919 10.6192 25.9919 9.69859V9.68407C25.9919 8.76341 25.2405 8.01709 24.3135 8.01709Z" fill="#F7F7F7"/>
<path d="M25.1601 9.69133C25.1601 10.616 24.4119 11.3657 23.4891 11.3657H23.9783C24.9013 11.3657 25.6493 10.616 25.6493 9.69133C25.6493 8.76667 24.9013 8.01709 23.9783 8.01709H23.4891C24.4119 8.01709 25.1601 8.76667 25.1601 9.69133Z" fill="white"/>
<path d="M19.1015 4.44623H6.89023C3.99898 4.44623 1.65515 6.79453 1.65515 9.6913C1.65515 12.588 3.99898 14.9364 6.89023 14.9364H19.1015C21.9927 14.9364 24.3366 12.588 24.3366 9.69132C24.3366 6.79455 21.9927 4.44623 19.1015 4.44623Z" fill="#F7F7F7"/>
<path d="M2.67294 9.69132C2.67294 6.79455 4.80641 4.44623 7.43819 4.44623H6.89024C3.99898 4.44623 1.65515 6.79453 1.65515 9.6913C1.65515 12.588 3.99898 14.9364 6.89024 14.9364H7.43819C4.80641 14.9364 2.67294 12.588 2.67294 9.69132Z" fill="#E5E5E5"/>
<path d="M19.1016 4.44623H18.5536C21.1854 4.44623 23.319 6.79453 23.319 9.6913C23.319 12.588 21.1854 14.9364 18.5536 14.9364H19.1016C21.9928 14.9364 24.3366 12.588 24.3366 9.69132C24.3366 6.79455 21.9928 4.44623 19.1016 4.44623Z" fill="white"/>
<path d="M19.1015 13.2895H6.89023C4.90992 13.2895 3.29883 11.6755 3.29883 9.69126C3.29883 7.70721 4.90992 6.09302 6.89023 6.09302H19.1015C21.0818 6.09302 22.693 7.70721 22.693 9.69126C22.693 11.6755 21.0818 13.2895 19.1015 13.2895Z" fill="#18162E"/>
<path d="M6.89023 6.66909H19.1015C21.0317 6.66909 22.6108 8.07981 22.6896 9.84128C22.6916 9.79149 22.693 9.74152 22.693 9.69126C22.693 7.70721 21.0818 6.09302 19.1015 6.09302H6.89023C4.90992 6.09302 3.29883 7.70721 3.29883 9.69126C3.29883 9.74152 3.30014 9.79149 3.30217 9.84128C3.38098 8.07981 4.96009 6.66909 6.89023 6.66909Z" fill="#0A0A11"/>
<path d="M14.8204 10.877C14.7015 10.6755 14.4421 10.6089 14.2413 10.7282C13.4033 11.2246 12.5886 11.2246 11.7506 10.7282C11.5497 10.6087 11.2904 10.6757 11.1715 10.877C11.0526 11.0782 11.1192 11.3381 11.3201 11.4571C11.8761 11.7867 12.4361 11.9515 12.996 11.9515C13.5558 11.9515 14.1159 11.7867 14.6717 11.4571C14.8727 11.3381 14.9394 11.0782 14.8204 10.877Z" fill="#F7F7F7"/>
<path d="M8.4785 9.39636C8.4785 10.1581 7.86217 10.7756 7.10187 10.7756C6.34157 10.7756 5.72522 10.1581 5.72522 9.39636C5.72522 8.63461 6.34157 8.01709 7.10187 8.01709C7.86217 8.01709 8.4785 8.63461 8.4785 9.39636Z" fill="#46E6F2"/>
<path d="M20.2666 9.39636C20.2666 10.1581 19.6501 10.7756 18.8898 10.7756C18.1296 10.7756 17.5133 10.1581 17.5133 9.39636C17.5133 8.63461 18.1296 8.01709 18.8898 8.01709C19.6501 8.01709 20.2666 8.63461 20.2666 9.39636Z" fill="#46E6F2"/>
</g>
<defs>
<clipPath id="clip0_146_2714">
<rect width="26" height="18.8229" fill="white" transform="translate(0 0.874756)"/>
</clipPath>
</defs>
</svg>
