<svg width="15" height="9" viewBox="0 0 15 9" fill="none" xmlns="http://www.w3.org/2000/svg">
<path fill-rule="evenodd" clip-rule="evenodd" d="M6.56654 8.30272C6.77393 8.50407 7.05517 8.61719 7.34842 8.61719C7.64166 8.61719 7.9229 8.50407 8.13029 8.30272L14.3864 2.22686C14.5878 2.02429 14.6993 1.75298 14.6968 1.47137C14.6943 1.18976 14.578 0.920377 14.3729 0.721241C14.1679 0.522104 13.8905 0.409148 13.6005 0.406701C13.3106 0.404254 13.0312 0.512512 12.8226 0.708158L7.34842 6.02468L1.87419 0.708158C1.66561 0.512512 1.38626 0.404254 1.09629 0.406701C0.80633 0.409148 0.528955 0.522104 0.323912 0.721241C0.118868 0.920377 0.00256152 1.18976 4.18061e-05 1.47137C-0.00247791 1.75298 0.108991 2.02429 0.31044 2.22686L6.56654 8.30272Z" fill="white"/>
</svg>
