<svg width="18" height="12" viewBox="0 0 18 12" fill="none" xmlns="http://www.w3.org/2000/svg">
<path d="M9.26874 8.18518C9.26874 6.81605 8.61752 5.80402 7.2721 5.4247C8.25375 4.95721 8.76569 4.24894 8.76569 3.14726C8.76569 0.975034 7.14171 0.445312 5.26805 0.445312H0.109375V11.3517H5.41252C7.40101 11.3517 9.26874 10.4011 9.26874 8.18518ZM2.51424 2.30712H4.77093C5.63848 2.30712 6.41936 2.55012 6.41936 3.55326C6.41936 4.47935 5.81185 4.852 4.95244 4.852H2.51424V2.30712ZM2.5135 9.49948V6.49599H5.13469C6.19339 6.49599 6.86314 6.93607 6.86314 8.0533C6.86314 9.15497 6.06374 9.49948 5.08505 9.49948H2.5135Z" fill="white"/>
<path d="M14.0365 11.5564C15.9286 11.5564 17.154 10.7066 17.7438 8.90034H15.8234C15.6167 9.57453 14.7647 9.93089 14.1039 9.93089C12.8288 9.93089 12.1591 9.18632 12.1591 7.92091H17.8734C18.0542 5.38862 16.6436 3.23047 14.0357 3.23047C11.6212 3.23047 9.98242 5.03967 9.98242 7.40971C9.98242 9.8694 11.5353 11.5564 14.0365 11.5564ZM13.9683 4.86927C15.0611 4.86927 15.6108 5.50938 15.7027 6.55623H12.1621C12.2339 5.51827 12.9252 4.86927 13.9683 4.86927Z" fill="white"/>
<path d="M11.7148 1.01953H16.1512V2.09379H11.7148V1.01953Z" fill="white"/>
</svg>
