<svg width="20" height="20" viewBox="0 0 20 20" fill="none" xmlns="http://www.w3.org/2000/svg">
<path fill-rule="evenodd" clip-rule="evenodd" d="M8.48911 9.46801C8.93409 9.27228 9.32074 8.9532 9.6082 8.54449C9.87243 8.11044 10.0037 7.60096 9.98414 7.08534C10.0013 6.61512 9.91447 6.14715 9.7306 5.71853C9.57612 5.3472 9.32815 5.02777 9.01368 4.79502C8.68027 4.55303 8.30167 4.38928 7.90334 4.31479C7.43194 4.21035 6.95112 4.1608 6.4695 4.16703H1.5C1.36193 4.16703 1.25 4.27895 1.25 4.41703V15.5349C1.25 15.6729 1.36193 15.7849 1.5 15.7849H6.58316C7.06987 15.7852 7.55463 15.7201 8.02574 15.5909C8.47227 15.4689 8.89532 15.2658 9.27597 14.9906C9.64469 14.7207 9.94493 14.3592 10.1503 13.9378C10.3775 13.4666 10.4887 12.9426 10.4737 12.414C10.4903 11.759 10.3164 11.1144 9.9754 10.567C9.60871 10.0165 9.06485 9.62585 8.44539 9.46801H8.48911ZM3.79165 6.0415C3.6996 6.0415 3.62498 6.11612 3.62498 6.20817V8.7915C3.62498 8.88355 3.6996 8.95817 3.79165 8.95817H6.12498C6.9304 8.95817 7.58331 8.30525 7.58331 7.49984C7.58331 6.69442 6.9304 6.0415 6.12498 6.0415H3.79165ZM3.62498 10.5832C3.62498 10.4911 3.6996 10.4165 3.79165 10.4165H6.22915C7.20715 10.4165 7.99998 11.2093 7.99998 12.1873C7.99998 13.1653 7.20715 13.9582 6.22915 13.9582H3.79165C3.6996 13.9582 3.62498 13.8836 3.62498 13.7915V10.5832Z" fill="#053EFF"/>
<path d="M12.8658 4.75808H16.8017C16.9385 4.75808 17.0499 4.86797 17.0517 5.00472L17.0625 5.80688C17.0644 5.94625 16.9519 6.06023 16.8125 6.06023H12.8658C12.7277 6.06023 12.6158 5.9483 12.6158 5.81023V5.00808C12.6158 4.87 12.7277 4.75808 12.8658 4.75808Z" fill="#053EFF"/>
<path fill-rule="evenodd" clip-rule="evenodd" d="M14.9763 14.0579C15.3795 14.0709 15.7766 13.9515 16.1129 13.7162C16.3295 13.572 16.5019 13.3661 16.6111 13.1233C16.64 13.059 16.702 13.0143 16.7725 13.0143H18.3733C18.4819 13.0143 18.5615 13.1165 18.5295 13.2202C18.2855 14.0111 17.8069 14.7005 17.1621 15.1846C16.4688 15.6331 15.6665 15.8578 14.8539 15.831C14.2748 15.8415 13.6991 15.7349 13.1578 15.517C12.6724 15.3137 12.2362 14.9982 11.8813 14.5935C11.5383 14.1814 11.2768 13.701 11.112 13.1805C10.918 12.6058 10.8232 11.999 10.8322 11.3889C10.8269 10.7874 10.9246 10.1898 11.1207 9.625C11.3035 9.10185 11.5862 8.62402 11.9513 8.22126C12.3174 7.82639 12.7543 7.51246 13.2365 7.29774C13.7631 7.06782 14.3279 6.95164 14.8976 6.95604C15.5035 6.94616 16.1028 7.08861 16.6462 7.37163C17.1346 7.64029 17.5591 8.02234 17.8877 8.48908C18.2142 8.97026 18.4515 9.51236 18.5871 10.0868C18.7273 10.6905 18.7775 11.3137 18.7358 11.9338H12.948C12.9224 12.5293 13.1167 13.1121 13.49 13.5592C13.692 13.7459 13.9282 13.8865 14.1839 13.9723C14.4397 14.0582 14.7094 14.0873 14.9763 14.0579ZM13 10.3322C13 10.3788 13.0377 10.4165 13.0843 10.4165H16.4573C16.5039 10.4165 16.5416 10.3788 16.5416 10.3322C16.5416 9.40075 15.7866 8.64567 14.8551 8.64567H14.6865C13.7551 8.64567 13 9.40075 13 10.3322Z" fill="#053EFF"/>
</svg>
