<svg width="25" height="25" viewBox="0 0 25 25" fill="none" xmlns="http://www.w3.org/2000/svg">
<path d="M20.1664 14.0401V11.5649C20.1639 9.64952 19.447 7.80393 18.156 6.38898C16.865 4.97403 15.0927 4.09146 13.1855 3.91383V2.32692C13.1855 2.12121 13.1038 1.92392 12.9584 1.77845C12.8129 1.63299 12.6156 1.55127 12.4099 1.55127C12.2042 1.55127 12.0069 1.63299 11.8614 1.77845C11.716 1.92392 11.6342 2.12121 11.6342 2.32692V3.91398C9.72712 4.09161 7.95482 4.97416 6.66382 6.38908C5.37282 7.804 4.65596 9.64955 4.65339 11.5649V14.0399C3.77807 14.2199 2.99154 14.696 2.42637 15.3882C1.86121 16.0804 1.55197 16.9463 1.55078 17.8399C1.55146 18.4569 1.79684 19.0484 2.23308 19.4846C2.66932 19.9208 3.2608 20.1662 3.87773 20.1669H8.61006C8.7889 21.0427 9.26478 21.8298 9.95719 22.3951C10.6496 22.9604 11.516 23.2692 12.4099 23.2692C13.3038 23.2692 14.1702 22.9604 14.8626 22.3951C15.555 21.8298 16.0309 21.0427 16.2097 20.1669H20.9421C21.559 20.1662 22.1505 19.9208 22.5867 19.4846C23.023 19.0484 23.2683 18.4569 23.269 17.8399C23.2678 16.9464 22.9585 16.0805 22.3934 15.3883C21.8282 14.6962 21.0417 14.22 20.1664 14.0401ZM6.20469 11.5649C6.20674 9.93834 6.85381 8.37897 8.00397 7.22881C9.15414 6.07864 10.7135 5.43158 12.3401 5.42952H12.4797C14.1063 5.43158 15.6657 6.07864 16.8158 7.22881C17.966 8.37897 18.6131 9.93834 18.6151 11.5649V13.9617H6.20469V11.5649ZM12.4099 21.7182C11.9302 21.7167 11.4628 21.5668 11.0718 21.2891C10.6807 21.0113 10.3852 20.6193 10.2259 20.1669H14.5939C14.4345 20.6193 14.1391 21.0113 13.748 21.2891C13.357 21.5668 12.8895 21.7167 12.4099 21.7182ZM20.9421 18.6156H3.87773C3.67206 18.6155 3.47484 18.5337 3.3294 18.3883C3.18397 18.2428 3.10221 18.0456 3.10208 17.8399C3.10276 17.223 3.34814 16.6315 3.78438 16.1953C4.22062 15.759 4.8121 15.5137 5.42904 15.513H19.3908C20.0077 15.5137 20.5992 15.759 21.0354 16.1953C21.4717 16.6315 21.717 17.223 21.7177 17.8399C21.7176 18.0456 21.6358 18.2428 21.4904 18.3883C21.345 18.5337 21.1477 18.6155 20.9421 18.6156Z" fill="#CC00F2"/>
</svg>
