<svg width="201" height="48" viewBox="0 0 201 48" fill="none" xmlns="http://www.w3.org/2000/svg">
<g clip-path="url(#clip0_205_632)">
<path d="M34.2274 24.1716C35.0006 23.9624 35.9011 23.9078 36.7061 24.2398C37.0063 24.3626 37.3019 24.5036 37.5975 24.6582C37.8886 24.8128 38.166 24.9857 38.448 25.1721C39.012 25.5496 39.5213 25.9862 40.0171 26.4956C40.9812 27.5098 41.768 28.8014 42.2638 30.3114C42.7595 31.8213 42.9551 33.5541 42.7595 35.3688C42.5594 37.1789 41.9682 39.0663 40.9721 40.84C40.3809 41.8906 39.3894 42.7275 38.3525 43.1504C38.0933 43.255 37.8295 43.3323 37.5702 43.3869C37.311 43.4415 37.0563 43.4733 36.8062 43.4733C36.3059 43.4733 35.8511 43.3824 35.4554 43.1732C34.6686 42.7548 34.3093 42.0225 34.2684 41.2357C34.2274 40.4398 34.4821 39.5757 35.0142 38.7934C35.6692 37.8111 36.1194 36.7286 36.3514 35.6417C36.5833 34.5547 36.6015 33.4677 36.4241 32.458C36.3787 32.2034 36.3195 31.9532 36.2559 31.7122C36.224 31.5894 36.1876 31.4711 36.1512 31.3529C36.1103 31.2346 36.0694 31.1164 36.0239 30.9981C35.9329 30.7662 35.8374 30.5433 35.7328 30.325C35.6191 30.1067 35.5009 29.893 35.3781 29.6929C34.8733 28.8788 34.2274 28.1829 33.4998 27.6144C32.8949 27.1323 32.5037 26.6275 32.3673 26.1818C32.2127 25.7315 32.3173 25.3359 32.7084 24.9538C32.8858 24.781 33.1041 24.6309 33.3724 24.4945C33.618 24.3762 33.9091 24.258 34.2274 24.1716Z" fill="#C1C1C1"/>
<path d="M28.9556 32.9611C29.5195 33.5159 30.0153 34.2709 30.1381 35.1396C30.1835 35.467 30.2063 35.7854 30.2199 36.1174C30.229 36.4449 30.229 36.786 30.2017 37.118C30.179 37.45 30.1335 37.7865 30.0744 38.1231C30.0153 38.4642 29.9334 38.7916 29.8333 39.1327C29.4377 40.4744 28.7145 41.807 27.6503 42.9895C26.5906 44.1719 25.1898 45.2043 23.5298 45.9411C21.8743 46.6779 19.9368 47.1236 17.8948 47.1418C16.6805 47.1554 15.4616 46.7052 14.5702 46.023C13.6833 45.3271 13.133 44.413 13.1012 43.5216C13.0693 42.6347 13.5241 41.9571 14.1882 41.525C14.5202 41.3112 14.9113 41.1475 15.3297 41.052C15.7481 40.961 16.2075 40.9156 16.6805 40.9519C17.8584 41.0293 19.0227 40.8792 20.0824 40.5335C20.61 40.3698 21.1148 40.1379 21.5787 39.8877C21.8152 39.7513 22.038 39.6148 22.2518 39.4693C22.4655 39.3283 22.6748 39.1555 22.8703 38.9963C23.2614 38.6779 23.6162 38.2959 23.93 37.923C24.0846 37.732 24.2302 37.5273 24.3666 37.3272C24.5031 37.1225 24.6259 36.927 24.7396 36.7086C25.1944 35.8582 25.4718 34.9531 25.6037 34.0435C25.6583 33.6569 25.7538 33.3204 25.8675 33.0384C25.9266 32.8929 25.9857 32.761 26.0585 32.6473C26.0949 32.5881 26.1267 32.5381 26.1676 32.4881C26.204 32.4381 26.2404 32.388 26.2813 32.3426C26.5997 32.0014 26.9863 31.8696 27.5138 32.0287C27.6321 32.0606 27.7503 32.1106 27.8731 32.1697C27.9959 32.2288 28.1142 32.2925 28.237 32.3744C28.478 32.529 28.7282 32.7337 28.9556 32.9611Z" fill="white"/>
<path d="M18.7236 32.7939C18.5235 33.5579 18.1188 34.3629 17.4229 34.9041C16.3951 35.6909 15.1716 36.314 13.8163 36.6324C12.4565 36.9553 10.942 36.9962 9.38656 36.6733C7.83114 36.3504 6.23479 35.6591 4.75668 34.5858C3.27857 33.517 1.94146 32.048 0.90451 30.2924C0.295075 29.2509 0.0494824 27.9684 0.217759 26.8587C0.235951 26.7177 0.258691 26.5858 0.290527 26.4494C0.322363 26.3175 0.358748 26.1856 0.404228 26.0628C0.49064 25.8126 0.590696 25.5762 0.708945 25.3624C0.94999 24.9303 1.27745 24.5847 1.65038 24.3482C2.39626 23.8797 3.21035 23.9343 3.91984 24.2936C4.27914 24.471 4.6066 24.7302 4.89767 25.044C5.04775 25.2032 5.18874 25.376 5.31609 25.5625C5.44343 25.749 5.55258 25.9491 5.66628 26.1628C6.18476 27.2225 6.8897 28.1594 7.72199 28.9008C8.54973 29.6466 9.48662 30.2015 10.4462 30.5517C10.9374 30.7245 11.415 30.8564 11.9107 30.9246C12.3928 31.0065 12.8885 31.0292 13.3661 31.011C13.8391 30.9974 14.3212 30.9292 14.7714 30.8337C15.2308 30.7336 15.681 30.5926 16.104 30.4243C16.4587 30.2833 16.8089 30.1878 17.1091 30.1515C17.2592 30.1333 17.4093 30.1196 17.5412 30.1196C17.6776 30.1196 17.7958 30.1378 17.9186 30.1606C18.3825 30.2652 18.6918 30.5426 18.8146 31.0793C18.9192 31.5522 18.8874 32.1571 18.7236 32.7939Z" fill="#C1C1C1"/>
<path d="M13.7456 23.8299C12.9724 24.0391 12.0719 24.0936 11.2669 23.7616C10.9667 23.6388 10.6711 23.4978 10.3755 23.3432C10.0844 23.1886 9.80699 23.0158 9.52502 22.8293C8.96106 22.4518 8.45168 22.0152 7.95595 21.5058C6.99177 20.4916 6.20496 19.2 5.70923 17.69C5.2135 16.1801 5.01793 14.4473 5.2135 12.6326C5.41361 10.8225 6.00485 8.9351 7.00087 7.16138C7.59211 6.11079 8.58358 5.27395 9.62052 4.85099C9.87976 4.74638 10.1435 4.66906 10.4028 4.61449C10.662 4.55991 10.9167 4.52808 11.1669 4.52808C11.6671 4.52808 12.1219 4.61904 12.5176 4.82825C13.3044 5.24666 13.6637 5.97889 13.7046 6.7657C13.7456 7.5616 13.4909 8.42572 12.9588 9.20798C12.3039 10.1904 11.8536 11.2728 11.6217 12.3598C11.3897 13.4467 11.3715 14.5337 11.5489 15.5434C11.5944 15.7981 11.6535 16.0482 11.7172 16.2892C11.749 16.412 11.7854 16.5303 11.8218 16.6485C11.8627 16.7668 11.9036 16.885 11.9491 17.0033C12.0401 17.2352 12.1356 17.4581 12.2402 17.6764C12.3539 17.8947 12.4721 18.1084 12.5949 18.3086C13.0998 19.1227 13.7456 19.8185 14.4733 20.387C15.0781 20.8691 15.4693 21.3739 15.6057 21.8196C15.7603 22.2699 15.6557 22.6656 15.2646 23.0476C15.0872 23.2204 14.8689 23.3705 14.6006 23.5069C14.355 23.6297 14.0639 23.7434 13.7456 23.8299Z" fill="white"/>
<path d="M19.0139 15.0431C18.45 14.4882 17.9542 13.7332 17.8314 12.8646C17.786 12.5371 17.7632 12.2188 17.7496 11.8868C17.7405 11.5593 17.7405 11.2182 17.7678 10.8862C17.7905 10.5542 17.836 10.2176 17.8951 9.88108C17.9542 9.53997 18.0361 9.21252 18.1362 8.87142C18.5318 7.52975 19.255 6.19718 20.3192 5.0147C21.3789 3.83222 22.7797 2.79982 24.4397 2.06304C26.0952 1.32626 28.0326 0.880554 30.0747 0.862362C31.289 0.848718 32.5079 1.29897 33.3993 1.98117C34.2862 2.67702 34.8365 3.59117 34.8683 4.48258C34.9001 5.36944 34.4453 6.0471 33.7813 6.47916C33.4493 6.69292 33.0582 6.85665 32.6398 6.95215C32.2214 7.04311 31.762 7.08859 31.289 7.05221C30.1111 6.97489 28.9468 7.12498 27.8871 7.47063C27.3595 7.63436 26.8547 7.8663 26.3908 8.11645C26.1543 8.25289 25.9315 8.38933 25.7177 8.53486C25.5039 8.67585 25.2947 8.84868 25.0992 9.00786C24.708 9.32622 24.3533 9.70825 24.0395 10.0812C23.8849 10.2722 23.7393 10.4769 23.6029 10.677C23.4664 10.8816 23.3436 11.0772 23.2299 11.2955C22.7751 12.146 22.4977 13.051 22.3658 13.9606C22.3112 14.3472 22.2157 14.6838 22.102 14.9658C22.0429 15.1113 21.9838 15.2432 21.911 15.3569C21.8746 15.416 21.8428 15.466 21.8019 15.5161C21.7655 15.5661 21.7291 15.6161 21.6882 15.6616C21.3698 16.0027 20.9832 16.1346 20.4557 15.9754C20.3374 15.9436 20.2192 15.8935 20.0964 15.8344C19.9736 15.7753 19.8553 15.7116 19.7325 15.6298C19.4915 15.4706 19.2413 15.2659 19.0139 15.0431Z" fill="#C1C1C1"/>
<path d="M29.2491 15.2123C29.4492 14.4482 29.8539 13.6432 30.5498 13.102C31.5776 12.3152 32.8011 11.6921 34.1564 11.3737C35.5162 11.0508 37.0307 11.0099 38.5861 11.3328C40.1416 11.6557 41.7379 12.347 43.216 13.4203C44.6941 14.4891 46.0312 15.9581 47.0682 17.7137C47.6776 18.7552 47.9232 20.0377 47.7549 21.1474C47.7367 21.2884 47.714 21.4203 47.6822 21.5567C47.6503 21.6886 47.6139 21.8205 47.5685 21.9433C47.482 22.1935 47.382 22.43 47.2637 22.6437C47.0227 23.0758 46.6952 23.4214 46.3223 23.6579C45.5764 24.1264 44.7623 24.0718 44.0528 23.7125C43.6936 23.5351 43.3661 23.2759 43.075 22.9621C42.9249 22.8029 42.7839 22.6301 42.6566 22.4436C42.5293 22.2571 42.4201 22.057 42.3064 21.8433C41.7879 20.7836 41.083 19.8467 40.2507 19.1054C39.423 18.3595 38.4861 17.8046 37.5264 17.4544C37.0353 17.2816 36.5577 17.1497 36.062 17.0815C35.5799 16.9996 35.0842 16.9769 34.6066 16.9951C34.1336 17.0087 33.6515 17.0769 33.2013 17.1724C32.7419 17.2725 32.2917 17.4135 31.8687 17.5818C31.514 17.7228 31.1638 17.8183 30.8636 17.8546C30.7135 17.8728 30.5634 17.8865 30.4315 17.8819C30.2951 17.8819 30.1769 17.8637 30.0541 17.841C29.5902 17.7364 29.2809 17.459 29.1581 16.9223C29.0489 16.4539 29.0853 15.8444 29.2491 15.2123Z" fill="white"/>
</g>
<path d="M69.2411 35.0067C68.4725 35.0067 67.8785 34.8087 67.4592 34.4127C67.0632 33.9935 66.8652 33.3995 66.8652 32.6308V12.7501C66.8652 11.9815 67.0632 11.3991 67.4592 11.0032C67.8785 10.5839 68.4725 10.3742 69.2411 10.3742H77.6267C79.3503 10.3742 80.8178 10.6305 82.0291 11.1429C83.2403 11.6554 84.1604 12.3891 84.7893 13.3441C85.4415 14.2991 85.7676 15.4405 85.7676 16.7682C85.7676 18.259 85.3367 19.5168 84.4748 20.5417C83.613 21.5666 82.4367 22.2537 80.9459 22.6031V22.079C82.6696 22.3353 84.009 22.9875 84.964 24.0357C85.919 25.0838 86.3965 26.4465 86.3965 28.1236C86.3965 30.3132 85.6511 32.0136 84.1604 33.2248C82.6929 34.4127 80.6431 35.0067 78.011 35.0067H69.2411ZM71.1628 31.6176H77.452C79.0359 31.6176 80.2005 31.3148 80.9459 30.7091C81.6913 30.0802 82.064 29.1485 82.064 27.914C82.064 26.6561 81.6913 25.7244 80.9459 25.1188C80.2005 24.5132 79.0359 24.2104 77.452 24.2104H71.1628V31.6176ZM71.1628 20.8212H76.858C78.3953 20.8212 79.5367 20.53 80.2821 19.9477C81.0507 19.3421 81.4351 18.457 81.4351 17.2923C81.4351 16.1276 81.0507 15.2542 80.2821 14.6718C79.5367 14.0662 78.3953 13.7634 76.858 13.7634H71.1628V20.8212Z" fill="white"/>
<path d="M93.2963 35.0067C92.5276 35.0067 91.9336 34.8087 91.5144 34.4127C91.1184 33.9935 90.9204 33.3995 90.9204 32.6308V12.7501C90.9204 11.9815 91.1184 11.3991 91.5144 11.0032C91.9336 10.5839 92.5276 10.3742 93.2963 10.3742H105.77C106.352 10.3742 106.795 10.5256 107.097 10.8285C107.424 11.1313 107.587 11.5622 107.587 12.1212C107.587 12.7036 107.424 13.1578 107.097 13.4839C106.795 13.7867 106.352 13.9381 105.77 13.9381H95.218V20.7164H105.001C105.607 20.7164 106.061 20.8678 106.364 21.1706C106.667 21.4734 106.818 21.916 106.818 22.4983C106.818 23.0806 106.667 23.5232 106.364 23.826C106.061 24.1288 105.607 24.2802 105.001 24.2802H95.218V31.4429H105.77C106.352 31.4429 106.795 31.5943 107.097 31.8971C107.424 32.1999 107.587 32.6425 107.587 33.2248C107.587 33.8071 107.424 34.2497 107.097 34.5525C106.795 34.8553 106.352 35.0067 105.77 35.0067H93.2963Z" fill="white"/>
<path d="M119.773 35.2862C119.051 35.2862 118.492 35.0882 118.096 34.6923C117.724 34.273 117.537 33.7023 117.537 32.9802V14.1128H110.724C110.118 14.1128 109.641 13.9497 109.292 13.6236C108.965 13.2742 108.802 12.8084 108.802 12.226C108.802 11.6204 108.965 11.1662 109.292 10.8634C109.641 10.5373 110.118 10.3742 110.724 10.3742L128.823 10.3742C129.428 10.3742 129.894 10.5373 130.22 10.8634C130.57 11.1662 130.745 11.6204 130.745 12.226C130.745 12.8084 130.57 13.2742 130.22 13.6236C129.894 13.9497 129.428 14.1128 128.823 14.1128H122.01V32.9802C122.01 33.7023 121.823 34.273 121.451 34.6923C121.078 35.0882 120.519 35.2862 119.773 35.2862Z" fill="white"/>
<path d="M130.813 35.2862C130.254 35.2862 129.8 35.1581 129.451 34.9019C129.125 34.6457 128.927 34.3079 128.857 33.8886C128.787 33.4461 128.868 32.9569 129.101 32.4212L138.325 11.9815C138.628 11.306 138.989 10.8285 139.408 10.5489C139.851 10.2461 140.352 10.0947 140.911 10.0947C141.447 10.0947 141.924 10.2461 142.343 10.5489C142.786 10.8285 143.159 11.306 143.461 11.9815L152.72 32.4212C152.977 32.9569 153.07 33.4461 153 33.8886C152.93 34.3312 152.732 34.6806 152.406 34.9368C152.08 35.1698 151.649 35.2862 151.113 35.2862C150.461 35.2862 149.949 35.1348 149.576 34.832C149.227 34.5059 148.912 34.0168 148.633 33.3646L146.361 28.0887L148.248 29.3116H133.504L135.39 28.0887L133.154 33.3646C132.851 34.0401 132.537 34.5292 132.211 34.832C131.885 35.1348 131.419 35.2862 130.813 35.2862ZM140.841 15.2309L135.949 26.8658L135.041 25.7477H145.529L140.911 15.2309H140.841Z" fill="white"/>
<path d="M158.928 35.1814C158.136 35.1814 157.496 34.9368 157.007 34.4477C156.541 33.9585 156.308 33.3296 156.308 32.5609C156.308 31.8156 156.541 31.2099 157.007 30.7441C157.496 30.2549 158.136 30.0103 158.928 30.0103C159.744 30.0103 160.372 30.2549 160.815 30.7441C161.281 31.2099 161.514 31.8156 161.514 32.5609C161.514 33.3296 161.281 33.9585 160.815 34.4477C160.372 34.9368 159.744 35.1814 158.928 35.1814Z" fill="white"/>
<path d="M168.154 35.2862C167.432 35.2862 166.873 35.0882 166.477 34.6923C166.104 34.273 165.918 33.7023 165.918 32.9802V12.4007C165.918 11.6554 166.104 11.0847 166.477 10.6887C166.873 10.2927 167.432 10.0947 168.154 10.0947C168.876 10.0947 169.423 10.2927 169.796 10.6887C170.192 11.0847 170.39 11.6554 170.39 12.4007V32.9802C170.39 33.7023 170.204 34.273 169.831 34.6923C169.458 35.0882 168.899 35.2862 168.154 35.2862Z" fill="white"/>
<path d="M177.875 35.2862C177.223 35.2862 176.722 35.0999 176.373 34.7272C176.023 34.3545 175.849 33.8421 175.849 33.1899V12.1911C175.849 11.5156 176.035 11.0032 176.408 10.6538C176.78 10.2811 177.293 10.0947 177.945 10.0947C178.527 10.0947 178.982 10.2112 179.308 10.4441C179.657 10.6538 179.972 11.0265 180.251 11.5622L188.881 27.5296H187.763L196.393 11.5622C196.673 11.0265 196.975 10.6538 197.302 10.4441C197.628 10.2112 198.082 10.0947 198.664 10.0947C199.316 10.0947 199.817 10.2811 200.167 10.6538C200.516 11.0032 200.691 11.5156 200.691 12.1911V33.1899C200.691 33.8421 200.516 34.3545 200.167 34.7272C199.841 35.0999 199.34 35.2862 198.664 35.2862C198.012 35.2862 197.511 35.0999 197.162 34.7272C196.812 34.3545 196.638 33.8421 196.638 33.1899V17.0128H197.406L190.069 30.3947C189.836 30.7907 189.592 31.0818 189.335 31.2682C189.079 31.4545 188.73 31.5477 188.287 31.5477C187.845 31.5477 187.484 31.4545 187.204 31.2682C186.924 31.0585 186.68 30.7674 186.47 30.3947L179.063 16.9778H179.902V33.1899C179.902 33.8421 179.727 34.3545 179.378 34.7272C179.051 35.0999 178.551 35.2862 177.875 35.2862Z" fill="white"/>
<defs>
<clipPath id="clip0_205_632">
<rect width="47.645" height="46.2761" fill="white" transform="translate(0.162109 0.862061)"/>
</clipPath>
</defs>
</svg>
