<svg width="15" height="14" viewBox="0 0 15 14" fill="none" xmlns="http://www.w3.org/2000/svg">
<path d="M7.49998 0L8.03868 2.39156C8.49568 4.42014 10.0798 6.0043 12.1084 6.46126L14.5 6.99998L12.1084 7.53871C10.0798 7.99567 8.49568 9.57978 8.03868 11.6084L7.49998 14L6.96129 11.6084C6.50429 9.57978 4.92019 7.99567 2.89159 7.53871L0.5 6.99998L2.89159 6.46126C4.92009 6.0043 6.50429 4.42014 6.96129 2.39157L7.49998 0Z" fill="white"/>
<path d="M1.875 10.0002L2.0193 10.6409C2.1417 11.1842 2.56603 11.6085 3.10938 11.7309L3.74999 11.8752L3.10938 12.0195C2.56603 12.1419 2.1417 12.5663 2.0193 13.1096L1.875 13.7502L1.73069 13.1096C1.60829 12.5663 1.18397 12.1419 0.6406 12.0195L0 11.8752L0.6406 11.7309C1.18397 11.6085 1.60829 11.1842 1.73069 10.6409L1.875 10.0002Z" fill="white"/>
<path d="M1.875 0.250244L2.0193 0.890855C2.1417 1.43419 2.56603 1.85854 3.10938 1.98094L3.74999 2.12524L3.10938 2.26954C2.56603 2.39194 2.1417 2.81625 2.0193 3.35962L1.875 4.00024L1.73069 3.35962C1.60829 2.81625 1.18397 2.39194 0.6406 2.26954L0 2.12524L0.6406 1.98094C1.18397 1.85854 1.60829 1.43423 1.73069 0.890855L1.875 0.250244Z" fill="white"/>
</svg>
