<svg width="22" height="22" viewBox="0 0 22 22" fill="none" xmlns="http://www.w3.org/2000/svg">
<g clip-path="url(#clip0_533_2157)">
<path d="M18.9379 2.83223H18.0514C18.0514 2.12692 17.7712 1.45049 17.2725 0.951764C16.7738 0.453035 16.0974 0.172852 15.3921 0.172852C14.6867 0.172852 14.0103 0.453035 13.5116 0.951764C13.0129 1.45049 12.7327 2.12692 12.7327 2.83223H9.18685C9.18685 2.12692 8.90667 1.45049 8.40794 0.951765C7.90921 0.453035 7.23278 0.172852 6.52747 0.172852C5.82216 0.172852 5.14574 0.453035 4.64701 0.951765C4.14828 1.45049 3.8681 2.12692 3.8681 2.83223H2.98164C2.27633 2.83223 1.59991 3.11241 1.10118 3.61114C0.602449 4.10987 0.322266 4.78629 0.322266 5.4916L0.322266 18.7885C0.322266 19.4938 0.602449 20.1702 1.10118 20.6689C1.59991 21.1677 2.27633 21.4479 2.98164 21.4479H18.9379C19.6432 21.4479 20.3196 21.1677 20.8184 20.6689C21.3171 20.1702 21.5973 19.4938 21.5973 18.7885V5.4916C21.5973 4.78629 21.3171 4.10987 20.8184 3.61114C20.3196 3.11241 19.6432 2.83223 18.9379 2.83223ZM2.98164 4.60514H3.8681C3.8681 5.31045 4.14828 5.98688 4.64701 6.48561C5.14574 6.98433 5.82216 7.26452 6.52747 7.26452C6.76258 7.26452 6.98805 7.17112 7.15429 7.00488C7.32054 6.83864 7.41393 6.61316 7.41393 6.37806C7.41393 6.14296 7.32054 5.91748 7.15429 5.75124C6.98805 5.585 6.76258 5.4916 6.52747 5.4916C6.29237 5.4916 6.0669 5.39821 5.90065 5.23196C5.73441 5.06572 5.64102 4.84025 5.64102 4.60514V2.83223C5.64102 2.59712 5.73441 2.37165 5.90065 2.20541C6.0669 2.03916 6.29237 1.94577 6.52747 1.94577C6.76258 1.94577 6.98805 2.03916 7.15429 2.20541C7.32054 2.37165 7.41393 2.59712 7.41393 2.83223V3.71868C7.41393 3.95379 7.50733 4.17926 7.67357 4.34551C7.83981 4.51175 8.06529 4.60514 8.30039 4.60514H12.7327C12.7327 5.31045 13.0129 5.98688 13.5116 6.48561C14.0103 6.98433 14.6867 7.26452 15.3921 7.26452C15.6272 7.26452 15.8526 7.17112 16.0189 7.00488C16.1851 6.83864 16.2785 6.61316 16.2785 6.37806C16.2785 6.14296 16.1851 5.91748 16.0189 5.75124C15.8526 5.585 15.6272 5.4916 15.3921 5.4916C15.157 5.4916 14.9315 5.39821 14.7652 5.23196C14.599 5.06572 14.5056 4.84025 14.5056 4.60514V2.83223C14.5056 2.59712 14.599 2.37165 14.7652 2.20541C14.9315 2.03916 15.157 1.94577 15.3921 1.94577C15.6272 1.94577 15.8526 2.03916 16.0189 2.20541C16.1851 2.37165 16.2785 2.59712 16.2785 2.83223V3.71868C16.2785 3.95379 16.3719 4.17926 16.5382 4.34551C16.7044 4.51175 16.9299 4.60514 17.165 4.60514H18.9379C19.173 4.60514 19.3985 4.69854 19.5647 4.86478C19.731 5.03102 19.8243 5.2565 19.8243 5.4916V9.03743H2.09518V5.4916C2.09518 5.2565 2.18858 5.03102 2.35482 4.86478C2.52106 4.69854 2.74654 4.60514 2.98164 4.60514ZM18.9379 19.6749H2.98164C2.74654 19.6749 2.52106 19.5815 2.35482 19.4153C2.18858 19.2491 2.09518 19.0236 2.09518 18.7885V10.8104H19.8243V18.7885C19.8243 19.0236 19.731 19.2491 19.5647 19.4153C19.3985 19.5815 19.173 19.6749 18.9379 19.6749Z" fill="#00F0FB"/>
<path d="M10.9587 14.3562C11.4483 14.3562 11.8452 13.9593 11.8452 13.4697C11.8452 12.9801 11.4483 12.5833 10.9587 12.5833C10.4691 12.5833 10.0723 12.9801 10.0723 13.4697C10.0723 13.9593 10.4691 14.3562 10.9587 14.3562Z" fill="#00F0FB"/>
<path d="M16.279 14.3562C16.7686 14.3562 17.1655 13.9593 17.1655 13.4697C17.1655 12.9801 16.7686 12.5833 16.279 12.5833C15.7895 12.5833 15.3926 12.9801 15.3926 13.4697C15.3926 13.9593 15.7895 14.3562 16.279 14.3562Z" fill="#00F0FB"/>
<path d="M5.64036 14.3562C6.12994 14.3562 6.52682 13.9593 6.52682 13.4697C6.52682 12.9801 6.12994 12.5833 5.64036 12.5833C5.15079 12.5833 4.75391 12.9801 4.75391 13.4697C4.75391 13.9593 5.15079 14.3562 5.64036 14.3562Z" fill="#00F0FB"/>
<path d="M10.9587 17.9021C11.4483 17.9021 11.8452 17.5052 11.8452 17.0156C11.8452 16.526 11.4483 16.1292 10.9587 16.1292C10.4691 16.1292 10.0723 16.526 10.0723 17.0156C10.0723 17.5052 10.4691 17.9021 10.9587 17.9021Z" fill="#00F0FB"/>
<path d="M16.279 17.9021C16.7686 17.9021 17.1655 17.5052 17.1655 17.0156C17.1655 16.526 16.7686 16.1292 16.279 16.1292C15.7895 16.1292 15.3926 16.526 15.3926 17.0156C15.3926 17.5052 15.7895 17.9021 16.279 17.9021Z" fill="#00F0FB"/>
<path d="M5.64036 17.9021C6.12994 17.9021 6.52682 17.5052 6.52682 17.0156C6.52682 16.526 6.12994 16.1292 5.64036 16.1292C5.15079 16.1292 4.75391 16.526 4.75391 17.0156C4.75391 17.5052 5.15079 17.9021 5.64036 17.9021Z" fill="#00F0FB"/>
</g>
<defs>
<clipPath id="clip0_533_2157">
<rect width="21.275" height="21.275" fill="white" transform="translate(0.322266 0.172852)"/>
</clipPath>
</defs>
</svg>
