<svg width="20" height="20" viewBox="0 0 20 20" fill="none" xmlns="http://www.w3.org/2000/svg">
<path d="M13.3333 5.62508H6.66667C6.3904 5.62508 6.12545 5.51534 5.9301 5.31998C5.73475 5.12463 5.625 4.85968 5.625 4.58341V2.08341C5.625 1.80715 5.73475 1.5422 5.9301 1.34685C6.12545 1.15149 6.3904 1.04175 6.66667 1.04175H13.3333C13.6096 1.04175 13.8746 1.15149 14.0699 1.34685C14.2653 1.5422 14.375 1.80715 14.375 2.08341V4.58341C14.375 4.85968 14.2653 5.12463 14.0699 5.31998C13.8746 5.51534 13.6096 5.62508 13.3333 5.62508ZM6.875 4.37508H13.125V2.29175H6.875V4.37508Z" fill="white"/>
<path d="M15.833 18.9585H4.16634C3.78024 18.9563 3.41058 18.802 3.13756 18.5289C2.86454 18.2559 2.7102 17.8863 2.70801 17.5002V4.16683C2.7102 3.78073 2.86454 3.41107 3.13756 3.13805C3.41058 2.86503 3.78024 2.71068 4.16634 2.7085H6.24967C6.41544 2.7085 6.57441 2.77434 6.69162 2.89155C6.80883 3.00876 6.87467 3.16774 6.87467 3.3335C6.87467 3.49926 6.80883 3.65823 6.69162 3.77544C6.57441 3.89265 6.41544 3.9585 6.24967 3.9585H4.16634C4.11109 3.9585 4.0581 3.98045 4.01903 4.01952C3.97996 4.05859 3.95801 4.11158 3.95801 4.16683V17.5002C3.95801 17.5554 3.97996 17.6084 4.01903 17.6475C4.0581 17.6865 4.11109 17.7085 4.16634 17.7085H15.833C15.8883 17.7085 15.9413 17.6865 15.9803 17.6475C16.0194 17.6084 16.0413 17.5554 16.0413 17.5002V4.16683C16.0413 4.11158 16.0194 4.05859 15.9803 4.01952C15.9413 3.98045 15.8883 3.9585 15.833 3.9585C15.6672 3.9585 15.5083 3.89265 15.3911 3.77544C15.2739 3.65823 15.208 3.49926 15.208 3.3335C15.208 3.16774 15.2739 3.00876 15.3911 2.89155C15.5083 2.77434 15.6672 2.7085 15.833 2.7085C16.2191 2.71068 16.5888 2.86503 16.8618 3.13805C17.1348 3.41107 17.2892 3.78073 17.2913 4.16683V17.5002C17.2892 17.8863 17.1348 18.2559 16.8618 18.5289C16.5888 18.802 16.2191 18.9563 15.833 18.9585Z" fill="white"/>
<path d="M9.37489 13.6752C9.22097 13.677 9.07207 13.6204 8.95822 13.5168L7.08322 11.8502C7.02187 11.7955 6.9719 11.7293 6.93617 11.6553C6.90045 11.5813 6.87967 11.5009 6.87502 11.4189C6.87038 11.3368 6.88196 11.2547 6.90911 11.1771C6.93625 11.0995 6.97843 11.0281 7.03322 10.9668C7.14481 10.8449 7.29966 10.7714 7.46471 10.762C7.62976 10.7527 7.79192 10.8083 7.91655 10.9168L9.33322 12.1835L12.0416 9.30852C12.1587 9.19147 12.3176 9.12573 12.4832 9.12573C12.6488 9.12573 12.8077 9.19147 12.9249 9.30852C13.0419 9.4257 13.1077 9.58456 13.1077 9.75018C13.1077 9.91581 13.0419 10.0747 12.9249 10.1918L9.79989 13.5252C9.68064 13.6243 9.52991 13.6775 9.37489 13.6752Z" fill="white"/>
</svg>
