<svg width="33" height="30" viewBox="0 0 33 30" fill="none" xmlns="http://www.w3.org/2000/svg">
<rect x="0.5" y="0.5" width="32" height="29" rx="7.5" stroke="white"/>
<path d="M14.9 19.5C14.6333 20.3 14.2333 20.98 13.7 21.54C13.1667 22.0867 12.54 22.5 11.82 22.78C11.1 23.06 10.3067 23.2 9.44 23.2C8.17333 23.2 7.07333 22.9267 6.14 22.38C5.20667 21.8333 4.48667 21.0533 3.98 20.04C3.47333 19.0267 3.22 17.8133 3.22 16.4C3.22 14.9867 3.47333 13.7733 3.98 12.76C4.48667 11.7467 5.20667 10.9667 6.14 10.42C7.07333 9.87333 8.16667 9.6 9.42 9.6C10.2867 9.6 11.0667 9.72 11.76 9.96C12.4667 10.2 13.0667 10.56 13.56 11.04C14.0533 11.52 14.4333 12.12 14.7 12.84L12.68 13.74C12.4133 12.9533 12.0267 12.38 11.52 12.02C11.0133 11.6467 10.3533 11.46 9.54 11.46C8.72667 11.46 8.01333 11.6533 7.4 12.04C6.78667 12.4267 6.30667 12.9867 5.96 13.72C5.62667 14.4533 5.46 15.3467 5.46 16.4C5.46 17.44 5.62 18.3333 5.94 19.08C6.26 19.8133 6.72 20.3733 7.32 20.76C7.92 21.1467 8.64 21.34 9.48 21.34C10.2933 21.34 10.9933 21.1333 11.58 20.72C12.18 20.2933 12.6067 19.66 12.86 18.82L14.9 19.5ZM28.5719 19.5C28.3052 20.3 27.9052 20.98 27.3719 21.54C26.8385 22.0867 26.2119 22.5 25.4919 22.78C24.7719 23.06 23.9785 23.2 23.1119 23.2C21.8452 23.2 20.7452 22.9267 19.8119 22.38C18.8785 21.8333 18.1585 21.0533 17.6519 20.04C17.1452 19.0267 16.8919 17.8133 16.8919 16.4C16.8919 14.9867 17.1452 13.7733 17.6519 12.76C18.1585 11.7467 18.8785 10.9667 19.8119 10.42C20.7452 9.87333 21.8385 9.6 23.0919 9.6C23.9585 9.6 24.7385 9.72 25.4319 9.96C26.1385 10.2 26.7385 10.56 27.2319 11.04C27.7252 11.52 28.1052 12.12 28.3719 12.84L26.3519 13.74C26.0852 12.9533 25.6985 12.38 25.1919 12.02C24.6852 11.6467 24.0252 11.46 23.2119 11.46C22.3985 11.46 21.6852 11.6533 21.0719 12.04C20.4585 12.4267 19.9785 12.9867 19.6319 13.72C19.2985 14.4533 19.1319 15.3467 19.1319 16.4C19.1319 17.44 19.2919 18.3333 19.6119 19.08C19.9319 19.8133 20.3919 20.3733 20.9919 20.76C21.5919 21.1467 22.3119 21.34 23.1519 21.34C23.9652 21.34 24.6652 21.1333 25.2519 20.72C25.8519 20.2933 26.2785 19.66 26.5319 18.82L28.5719 19.5Z" fill="white"/>
</svg>
