<svg width="64" height="64" viewBox="0 0 64 64" fill="none" xmlns="http://www.w3.org/2000/svg">
<path d="M27.9596 41.8639H22.8174L26.0312 22.1132H31.1739L27.9596 41.8639ZM18.4915 22.1132L13.5892 35.6979L13.0091 32.7726L13.0097 32.7736L11.2794 23.8915C11.2794 23.8915 11.0702 22.1132 8.84017 22.1132H0.735723L0.640625 22.4476C0.640625 22.4476 3.11898 22.9632 6.01946 24.7051L10.4869 41.8645H15.8446L24.0257 22.1132H18.4915ZM58.9372 41.8639H63.6588L59.5421 22.1126H55.4085C53.4997 22.1126 53.0348 23.5845 53.0348 23.5845L45.3656 41.8639H50.726L51.798 38.9302H58.3349L58.9372 41.8639ZM53.2788 34.8774L55.9807 27.4862L57.5006 34.8774H53.2788ZM45.7677 26.8628L46.5015 22.6214C46.5015 22.6214 44.2371 21.7603 41.8766 21.7603C39.3248 21.7603 33.265 22.8755 33.265 28.2988C33.265 33.4013 40.3772 33.4647 40.3772 36.1449C40.3772 38.825 33.9978 38.3448 31.8924 36.6547L31.1279 41.0894C31.1279 41.0894 33.424 42.2047 36.9321 42.2047C40.4412 42.2047 45.7349 40.3878 45.7349 35.4427C45.7349 30.3074 38.5588 29.8293 38.5588 27.5966C38.5593 25.3634 43.5672 25.6503 45.7677 26.8628Z" fill="white"/>
<path d="M13.0097 32.7732L11.2794 23.8911C11.2794 23.8911 11.0702 22.1128 8.84016 22.1128H0.735723L0.640625 22.4472C0.640625 22.4472 4.53593 23.2545 8.27222 26.2791C11.8447 29.1701 13.0097 32.7732 13.0097 32.7732Z" fill="#E6A540"/>
</svg>
