<svg width="186" height="27" viewBox="0 0 186 27" fill="none" xmlns="http://www.w3.org/2000/svg">
<path d="M25.2578 13.4735C25.2578 6.29351 31.1811 0.5 38.5973 0.5C46.0633 0.5 51.9863 6.29351 51.9863 13.4735C51.9863 20.6036 46.0633 26.496 38.5973 26.496C31.1811 26.496 25.2578 20.5541 25.2578 13.4735ZM45.6154 13.4735C45.6154 9.90859 42.4795 6.73879 38.5973 6.73879C34.7646 6.73879 31.6789 9.90859 31.6789 13.4735C31.6789 17.0882 34.8145 20.2572 38.5973 20.2572C42.4795 20.2572 45.6154 17.0882 45.6154 13.4735Z" fill="white"/>
<path d="M159.273 13.671C159.273 5.79801 165.719 0.5 171.563 0.5C175.561 0.5 177.858 1.68816 179.407 4.01613L180.006 0.946028H186.002V26.0013H180.006L179.257 23.4259C177.508 25.3078 175.31 26.496 171.614 26.496C165.769 26.496 159.273 21.4454 159.273 13.671ZM179.657 13.6215C179.657 9.80964 176.509 6.73879 172.613 6.73879C168.766 6.73879 165.668 9.85912 165.668 13.7216C165.668 17.1871 168.816 20.3067 172.613 20.3067C176.559 20.2572 179.657 17.1376 179.657 13.6215Z" fill="white"/>
<path d="M152.088 4.00535V1.13314H145.727V25.7635H152.088V12.4743C152.088 8.48309 154.03 6.38986 157.477 6.38986C157.72 6.38986 157.915 6.38986 158.109 6.43859L159.274 0.5C155.973 0.548732 153.593 1.66808 152.088 4.00535Z" fill="white"/>
<path d="M87.1104 4.00535V1.13314H80.5547L80.6049 25.7635H87.1614L87.1104 12.4743C87.1104 8.48309 89.1125 6.38986 92.6164 6.38986C92.8664 6.38986 93.0661 6.38986 93.2674 6.43859L94.4682 0.5C91.0644 0.548732 88.6125 1.66808 87.1104 4.00535Z" fill="white"/>
<path d="M54.5547 16.2058V0.867188H60.9564V15.4138C60.9564 18.6298 62.716 20.5098 65.7946 20.5098C69.2155 20.5098 71.2195 18.3827 71.2195 14.3257V0.867188H77.6212V25.9027H71.2195V22.9844C69.7043 25.3588 67.261 26.4968 63.8889 26.4968C58.1222 26.5463 54.5547 22.3408 54.5547 16.2058Z" fill="white"/>
<path d="M117.531 13.4492C117.531 6.4307 122.598 0.450829 130.546 0.500305C137.946 0.500305 143.161 6.43071 143.161 13.3495C143.161 14.0418 143.111 14.7832 143.012 15.426L123.889 15.3765C124.635 18.3912 127.118 20.5161 130.843 20.5655C133.128 20.5655 135.562 19.7252 137.052 17.847L141.473 21.4059C139.188 24.6177 135.164 26.4959 130.893 26.4959C123.343 26.3974 117.531 20.7631 117.531 13.4492ZM136.655 10.8791C136.306 8.35803 133.625 6.38123 130.546 6.38123C127.516 6.38123 125.081 8.1605 124.138 10.8296L136.655 10.8791Z" fill="white"/>
<path d="M94.4609 20.5879L100.235 17.5848C101.181 19.6524 103.122 20.8338 105.809 20.8338C108.298 20.8338 109.244 20.0459 109.244 18.963C109.244 14.9748 95.5063 17.388 95.5063 8.22977C95.5063 3.15906 99.9862 0.5 105.511 0.5C109.692 0.5 113.425 2.32168 115.465 5.76862L109.741 8.77177C108.896 7.09778 107.303 6.1622 105.262 6.1622C103.271 6.1622 102.325 6.85188 102.325 7.98387C102.325 11.8735 116.063 9.41123 116.063 18.7172C116.063 23.542 112.081 26.496 105.66 26.496C100.185 26.4469 96.3526 24.6743 94.4609 20.5879Z" fill="white"/>
<path d="M0 13.3395C0 6.21167 5.87375 0.5 13.2282 0.5C17.9666 0.5 22.0636 2.84397 24.4329 6.35787L18.9046 9.53176C17.6211 7.77444 15.5975 6.60301 13.2282 6.60301C9.42756 6.60301 6.36732 9.72706 6.36732 13.2908C6.36732 16.8538 9.47685 19.9779 13.2282 19.9779C15.6961 19.9779 17.868 18.709 19.0527 16.8051L24.5315 20.0266C22.2117 23.6882 18.016 26.1296 13.2282 26.1296C5.87375 26.1783 0 20.3205 0 13.3395Z" fill="white"/>
</svg>
