<svg width="49" height="29" viewBox="0 0 49 29" fill="none" xmlns="http://www.w3.org/2000/svg">
<path d="M0.390064 27.4777C0.634111 28.0653 1.10111 28.5323 1.68876 28.7764C1.9779 28.8996 2.28838 28.965 2.60266 28.9687L14.6276 28.9687C15.2655 28.9687 15.8772 28.7154 16.3282 28.2643C16.7793 27.8133 17.0326 27.2016 17.0326 26.5638C17.0326 25.9259 16.7793 25.3142 16.3282 24.8632C15.8772 24.4121 15.2655 24.1588 14.6276 24.1588L8.3987 24.1588L21.8426 10.7148L29.7551 18.6513C29.9786 18.8767 30.2446 19.0557 30.5377 19.1778C30.8308 19.2998 31.1451 19.3627 31.4626 19.3627C31.7801 19.3627 32.0944 19.2998 32.3875 19.1778C32.6806 19.0557 32.9466 18.8767 33.1702 18.6513L47.6001 4.22134C47.8255 3.99777 48.0045 3.73177 48.1266 3.4387C48.2487 3.14563 48.3115 2.83129 48.3115 2.5138C48.3115 2.19631 48.2487 1.88196 48.1266 1.58889C48.0045 1.29582 47.8255 1.02983 47.6001 0.806253C47.3766 0.580836 47.1106 0.401914 46.8175 0.279816C46.5244 0.157717 46.2101 0.0948569 45.8926 0.0948569C45.5751 0.0948569 45.2607 0.157717 44.9677 0.279816C44.6746 0.401914 44.4086 0.580836 44.185 0.806253L31.4626 13.5527L23.5502 5.61624C23.3266 5.39083 23.0606 5.21191 22.7675 5.08981C22.4745 4.96771 22.1601 4.90485 21.8426 4.90485C21.5251 4.90485 21.2108 4.96771 20.9177 5.08981C20.6246 5.21191 20.3587 5.39083 20.1351 5.61624L5.00766 20.7677V14.5388C5.00766 13.9009 4.75428 13.2892 4.30325 12.8382C3.85223 12.3872 3.24051 12.1338 2.60266 12.1338C1.96482 12.1338 1.35309 12.3872 0.90207 12.8382C0.451046 13.2892 0.197665 13.9009 0.197665 14.5388V26.5638C0.201465 26.878 0.26683 27.1885 0.390064 27.4777Z" fill="#F04438"/>
</svg>
