<svg width="24" height="24" viewBox="0 0 24 24" fill="none" xmlns="http://www.w3.org/2000/svg">
<g clip-path="url(#clip0_205_1100)">
<path d="M19.4434 9.21254C19.3867 9.07548 19.2906 8.95833 19.1672 8.87589C19.0439 8.79346 18.8989 8.74944 18.7506 8.74941H5.25059C5.10217 8.7493 4.95705 8.79322 4.8336 8.87562C4.71016 8.95802 4.61394 9.0752 4.55712 9.21232C4.50031 9.34944 4.48546 9.50033 4.51444 9.64589C4.54343 9.79146 4.61496 9.92515 4.71997 10.03L11.47 16.78C11.5396 16.8498 11.6223 16.9051 11.7134 16.9428C11.8044 16.9806 11.902 17 12.0006 17C12.0992 17 12.1967 16.9806 12.2878 16.9428C12.3788 16.9051 12.4616 16.8498 12.5312 16.78L19.2812 10.03C19.3861 9.92509 19.4574 9.7914 19.4863 9.64589C19.5152 9.50037 19.5003 9.34956 19.4434 9.21254Z" fill="white"/>
</g>
<defs>
<clipPath id="clip0_205_1100">
<rect width="24" height="24" fill="white" transform="matrix(1 0 0 -1 0 24)"/>
</clipPath>
</defs>
</svg>
