<svg width="19" height="19" viewBox="0 0 19 19" fill="none" xmlns="http://www.w3.org/2000/svg">
<g clip-path="url(#clip0_300_1575)">
<path d="M18.4435 13.1246C17.314 13.1246 16.2532 12.6889 15.4562 11.8975C14.6595 11.1066 14.2208 10.0532 14.2208 8.9314C14.2208 8.62394 13.9715 8.37476 13.6642 8.37476C13.3567 8.37476 13.1076 8.62394 13.1076 8.9314C13.1076 10.0532 12.6688 11.1066 11.8721 11.8975C11.0751 12.6889 10.0143 13.1246 8.88477 13.1246C8.57731 13.1246 8.32812 13.3738 8.32812 13.6813C8.32812 13.9887 8.57731 14.2379 8.88477 14.2379C11.2131 14.2379 13.1076 16.1245 13.1076 18.4434C13.1076 18.7509 13.3567 19.0001 13.6642 19.0001C13.9715 19.0001 14.2208 18.7509 14.2208 18.4434C14.2208 16.1245 16.1152 14.2379 18.4435 14.2379C18.7509 14.2379 19.0001 13.9887 19.0001 13.6813C19.0001 13.3738 18.7509 13.1246 18.4435 13.1246ZM13.6642 16.0793C13.1473 15.0453 12.3023 14.2015 11.2661 13.6843C11.7742 13.4324 12.2433 13.0978 12.6564 12.6876C13.0715 12.2756 13.4096 11.8074 13.664 11.3C13.9186 11.8074 14.2568 12.2756 14.6717 12.6876C15.0848 13.0978 15.554 13.4324 16.062 13.6843C15.0259 14.2015 14.181 15.0453 13.6642 16.0793Z" fill="white"/>
<path d="M7.61612 8.77216C5.97678 8.77216 4.64302 7.44825 4.64302 5.8208C4.64302 5.51349 4.39384 5.26416 4.08638 5.26416C3.77892 5.26416 3.52974 5.51349 3.52974 5.8208C3.52974 7.44825 2.19598 8.77216 0.556641 8.77216C0.249184 8.77216 0 9.02148 0 9.3288C0 9.63625 0.249184 9.88544 0.556641 9.88544C2.19598 9.88544 3.52974 11.2135 3.52974 12.8459C3.52974 13.1532 3.77892 13.4026 4.08638 13.4026C4.39384 13.4026 4.64302 13.1532 4.64302 12.8459C4.64302 11.2135 5.97678 9.88544 7.61612 9.88544C7.92358 9.88544 8.17276 9.63625 8.17276 9.3288C8.17276 9.02148 7.92358 8.77216 7.61612 8.77216ZM4.08638 10.7951C3.73138 10.1901 3.22431 9.68409 2.61795 9.32952C3.22431 8.97568 3.73138 8.47079 4.08638 7.86718C4.44138 8.47079 4.94845 8.97568 5.55481 9.32952C4.94845 9.68409 4.44138 10.19 4.08638 10.7951Z" fill="white"/>
<path d="M8.52148 3.84662C9.7271 3.84662 10.708 4.82001 10.708 6.01636C10.708 6.32367 10.9572 6.573 11.2647 6.573C11.5721 6.573 11.8213 6.32367 11.8213 6.01636C11.8213 4.8161 12.8023 3.83966 14.0079 3.83966C14.3153 3.83966 14.5645 3.59033 14.5645 3.28302C14.5645 2.97556 14.3153 2.72638 14.0079 2.72638C12.8023 2.72638 11.8213 1.75298 11.8213 0.556641C11.8213 0.249184 11.5721 0 11.2647 0C10.9572 0 10.708 0.249184 10.708 0.556641C10.708 1.7569 9.7271 2.73334 8.52148 2.73334C8.21403 2.73334 7.96484 2.98252 7.96484 3.28998C7.96484 3.59743 8.21403 3.84662 8.52148 3.84662ZM11.266 2.38152C11.5062 2.73754 11.8145 3.04442 12.1723 3.2836C11.8132 3.52409 11.504 3.83299 11.2634 4.19147C11.0232 3.83546 10.7149 3.52858 10.3571 3.2894C10.7162 3.04891 11.0255 2.74001 11.266 2.38152Z" fill="white"/>
</g>
<defs>
<clipPath id="clip0_300_1575">
<rect width="19" height="19" fill="white"/>
</clipPath>
</defs>
</svg>
