<svg width="164" height="44" viewBox="0 0 164 44" fill="none" xmlns="http://www.w3.org/2000/svg">
<g clip-path="url(#clip0_205_648)">
<path d="M19.6468 32.7824C18.6694 33.6188 17.2447 33.6709 16.2061 32.9111C16.2061 32.9111 19.2852 35.2917 20.3637 36.0607C20.5751 36.2109 20.7835 36.364 20.9949 36.5172C22.7045 37.7642 24.3835 38.9959 26.3597 38.9929C29.1509 38.9929 31.4121 36.7286 31.409 33.9375C31.409 31.1463 29.1448 28.8851 26.3536 28.8882C23.5594 28.8913 21.5004 31.1983 19.6468 32.7824Z" fill="#C1C1C1"/>
<path d="M20.9932 36.5163C20.2977 36.0291 19.3908 36.0904 18.7596 36.6572C16.4832 38.6947 12.5154 43.2139 8.04832 43.217C4.1143 43.217 0.927871 40.0336 0.924807 36.0996C0.921743 32.1686 4.10817 28.9791 8.04219 28.9761C11.5626 28.973 14.8348 31.85 17.6291 33.9457C18.6187 34.6871 20.9932 36.5163 20.9932 36.5163Z" fill="white"/>
<path d="M21.348 19.6114C21.1151 18.346 21.78 17.0868 22.9565 16.5659C22.9565 16.5659 19.3564 18.0427 18.1493 18.5911C17.9134 18.6984 17.6774 18.8025 17.4385 18.9098C15.5052 19.7677 13.5994 20.6041 12.6129 22.3168C11.2188 24.7342 12.0491 27.8226 14.4665 29.2167C16.8839 30.6107 19.9723 29.7804 21.3663 27.363C22.7604 24.9456 21.7922 22.0104 21.348 19.6114Z" fill="#C1C1C1"/>
<path d="M17.4386 18.9091C18.2076 18.5506 18.609 17.7326 18.4344 16.9023C17.8063 13.9119 15.8791 8.21618 18.1096 4.3465C20.0736 0.939472 24.4273 -0.227865 27.8344 1.73608C31.2414 3.70002 32.4087 8.05379 30.4448 11.4608C28.6861 14.5094 24.5591 15.9065 21.3481 17.2791C20.2084 17.7663 17.4386 18.9091 17.4386 18.9091Z" fill="white"/>
<path d="M31.9044 27.6697C33.1177 28.0986 33.8745 29.3058 33.7366 30.5865C33.7366 30.5865 34.2575 26.7321 34.3862 25.4116C34.4107 25.1542 34.4383 24.8969 34.4658 24.6364C34.6895 22.5315 34.9162 20.4634 33.9297 18.7538C32.5325 16.3395 29.4441 15.5122 27.0267 16.9093C24.6124 18.3065 23.7852 21.3949 25.1823 23.8123C26.5794 26.2266 29.6065 26.8547 31.9044 27.6697Z" fill="#C1C1C1"/>
<path d="M34.4702 24.6362C34.3967 25.4819 34.9022 26.2356 35.7111 26.5021C38.6156 27.455 44.5105 28.6315 46.7472 32.4981C48.7142 35.9021 47.5499 40.2559 44.1459 42.2259C40.742 44.193 36.3882 43.0287 34.4181 39.6247C32.6564 36.5762 33.5112 32.3051 33.9279 28.8368C34.0719 27.6051 34.4702 24.6362 34.4702 24.6362Z" fill="white"/>
<path opacity="0.2" d="M33.9222 28.8368C33.7506 30.2584 33.5086 31.8149 33.4014 33.3652C33.766 30.9907 34.7066 28.4906 35.6196 26.4684C34.8628 26.1804 34.3941 25.4512 34.4676 24.6362C34.4676 24.6362 34.0693 27.6051 33.9222 28.8368Z" fill="white"/>
<path opacity="0.2" d="M20.9934 36.5181C20.9934 36.5181 18.6189 34.6889 17.6292 33.9475C16.6488 33.2121 15.6101 32.3818 14.5225 31.6128C16.3455 32.9823 17.8345 35.124 18.7567 36.6621C18.7598 36.6621 18.7598 36.659 18.7629 36.659C19.391 36.0952 20.2979 36.0309 20.9934 36.5181Z" fill="white"/>
<path opacity="0.2" d="M18.4515 16.9951C18.5802 17.7948 18.1819 18.5638 17.4404 18.91C17.4404 18.91 20.2102 17.7672 21.3499 17.2831C22.263 16.894 23.2465 16.5018 24.23 16.0698C22.3947 16.7408 20.1428 16.9461 18.4515 16.9951Z" fill="white"/>
</g>
<path d="M80.7692 34.6463C78.0938 34.6463 75.83 34.1432 73.9778 33.1371C72.1484 32.1309 70.7536 30.7017 69.7932 28.8495C68.8327 26.9973 68.3525 24.8021 68.3525 22.2639C68.3525 20.3431 68.6269 18.6166 69.1757 17.0845C69.7474 15.5524 70.5592 14.249 71.6111 13.1743C72.6858 12.0767 73.9892 11.242 75.5213 10.6704C77.0534 10.0758 78.7913 9.77856 80.7349 9.77856C82.0155 9.77856 83.296 9.93862 84.5766 10.2588C85.88 10.556 87.1034 11.0705 88.2467 11.8023C88.6355 12.0538 88.887 12.3625 89.0013 12.7284C89.1385 13.0943 89.1614 13.4716 89.0699 13.8603C88.9785 14.2262 88.807 14.5463 88.5554 14.8207C88.3039 15.0951 87.9837 15.2666 87.595 15.3352C87.2291 15.4038 86.8175 15.3123 86.3602 15.0608C85.4913 14.5577 84.6109 14.1919 83.7191 13.9632C82.8273 13.7345 81.8326 13.6202 80.7349 13.6202C79.0428 13.6202 77.6136 13.9632 76.4474 14.6492C75.2812 15.3123 74.4008 16.2842 73.8063 17.5647C73.2346 18.8453 72.9488 20.4117 72.9488 22.2639C72.9488 25.0765 73.6234 27.2145 74.9725 28.678C76.3216 30.1415 78.3225 30.8732 80.9751 30.8732C81.8897 30.8732 82.8158 30.7818 83.7534 30.5988C84.6909 30.4159 85.6056 30.1644 86.4974 29.8442L85.6399 31.7994V24.4934H81.8669C81.2952 24.4934 80.8493 24.3448 80.5291 24.0475C80.2319 23.7502 80.0832 23.35 80.0832 22.847C80.0832 22.321 80.2319 21.9209 80.5291 21.6465C80.8493 21.3721 81.2952 21.2349 81.8669 21.2349H87.5264C88.0981 21.2349 88.5326 21.3949 88.8298 21.7151C89.15 22.0123 89.31 22.4468 89.31 23.0185V31.3535C89.31 31.8565 89.2071 32.2796 89.0013 32.6226C88.8184 32.9656 88.5097 33.2171 88.0752 33.3772C87.0691 33.743 85.9143 34.0517 84.6109 34.3033C83.3075 34.5319 82.0269 34.6463 80.7692 34.6463Z" fill="white"/>
<path d="M102.252 34.6463C100.355 34.6463 98.7196 34.2918 97.3475 33.583C95.9755 32.8741 94.9122 31.868 94.1576 30.5645C93.4259 29.2611 93.06 27.7176 93.06 25.934C93.06 24.1961 93.4144 22.6755 94.1233 21.3721C94.8551 20.0686 95.8498 19.0511 97.1074 18.3193C98.388 17.5647 99.84 17.1874 101.464 17.1874C102.653 17.1874 103.716 17.3818 104.654 17.7705C105.614 18.1593 106.426 18.7195 107.089 19.4512C107.775 20.183 108.289 21.0748 108.632 22.1267C108.998 23.1557 109.181 24.3219 109.181 25.6253C109.181 26.0369 109.033 26.357 108.735 26.5857C108.461 26.7915 108.061 26.8944 107.535 26.8944H96.5243V24.4248H106.163L105.614 24.9393C105.614 23.8874 105.454 23.007 105.134 22.2982C104.836 21.5893 104.391 21.0519 103.796 20.6861C103.224 20.2973 102.504 20.1029 101.635 20.1029C100.675 20.1029 99.8515 20.3316 99.1655 20.789C98.5023 21.2234 97.9878 21.8523 97.6219 22.6755C97.2789 23.4758 97.1074 24.4362 97.1074 25.5567V25.7968C97.1074 27.6719 97.5419 29.0782 98.4109 30.0157C99.3027 30.9304 100.606 31.3878 102.321 31.3878C102.916 31.3878 103.579 31.3192 104.311 31.182C105.065 31.0219 105.774 30.7589 106.437 30.393C106.917 30.1186 107.34 30.0043 107.706 30.05C108.072 30.0729 108.358 30.1987 108.564 30.4273C108.792 30.656 108.93 30.9418 108.975 31.2849C109.021 31.605 108.952 31.9366 108.77 32.2796C108.609 32.6226 108.324 32.9198 107.912 33.1714C107.112 33.6744 106.186 34.0517 105.134 34.3033C104.105 34.5319 103.144 34.6463 102.252 34.6463Z" fill="white"/>
<path d="M114.703 34.5777C114.017 34.5777 113.491 34.3947 113.125 34.0289C112.76 33.6401 112.577 33.0913 112.577 32.3825V19.4169C112.577 18.7081 112.76 18.1707 113.125 17.8048C113.491 17.439 114.006 17.256 114.669 17.256C115.332 17.256 115.847 17.439 116.212 17.8048C116.578 18.1707 116.761 18.7081 116.761 19.4169V21.7494L116.384 20.8919C116.887 19.6799 117.664 18.7652 118.716 18.1478C119.791 17.5076 121.003 17.1874 122.352 17.1874C123.701 17.1874 124.81 17.439 125.679 17.942C126.548 18.4451 127.2 19.2111 127.634 20.2402C128.069 21.2463 128.286 22.5268 128.286 24.0818V32.3825C128.286 33.0913 128.103 33.6401 127.737 34.0289C127.371 34.3947 126.846 34.5777 126.16 34.5777C125.474 34.5777 124.936 34.3947 124.547 34.0289C124.182 33.6401 123.999 33.0913 123.999 32.3825V24.2876C123.999 22.9842 123.747 22.0352 123.244 21.4407C122.764 20.8461 122.009 20.5489 120.98 20.5489C119.723 20.5489 118.716 20.949 117.962 21.7494C117.23 22.5268 116.864 23.5673 116.864 24.8707V32.3825C116.864 33.8459 116.144 34.5777 114.703 34.5777Z" fill="white"/>
<path d="M142.657 34.5777C142.039 34.5777 141.525 34.4405 141.113 34.1661C140.724 33.8688 140.404 33.4343 140.153 32.8627L131.2 12.7627C130.949 12.191 130.88 11.6879 130.995 11.2535C131.109 10.819 131.349 10.476 131.715 10.2245C132.081 9.97292 132.515 9.84715 133.018 9.84715C133.681 9.84715 134.173 9.99579 134.493 10.2931C134.836 10.5675 135.122 10.9905 135.351 11.5622L143.48 30.393H142.005L150.1 11.5279C150.351 10.9791 150.649 10.5675 150.992 10.2931C151.335 9.99579 151.815 9.84715 152.432 9.84715C152.935 9.84715 153.347 9.97292 153.667 10.2245C154.01 10.476 154.227 10.819 154.319 11.2535C154.41 11.6879 154.33 12.191 154.079 12.7627L145.126 32.8627C144.875 33.4343 144.555 33.8688 144.166 34.1661C143.8 34.4405 143.297 34.5777 142.657 34.5777Z" fill="white"/>
<path d="M160.928 34.5434C160.242 34.5434 159.716 34.3376 159.35 33.926C158.985 33.5144 158.802 32.9427 158.802 32.211V19.6227C158.802 18.8681 158.985 18.2965 159.35 17.9077C159.716 17.4961 160.242 17.2903 160.928 17.2903C161.614 17.2903 162.14 17.4961 162.506 17.9077C162.895 18.2965 163.089 18.8681 163.089 19.6227V32.211C163.089 32.9427 162.906 33.5144 162.54 33.926C162.174 34.3376 161.637 34.5434 160.928 34.5434ZM160.928 14.1004C160.128 14.1004 159.499 13.906 159.042 13.5173C158.607 13.1057 158.39 12.5454 158.39 11.8366C158.39 11.1048 158.607 10.5446 159.042 10.1559C159.499 9.76712 160.128 9.57275 160.928 9.57275C161.751 9.57275 162.38 9.76712 162.815 10.1559C163.249 10.5446 163.466 11.1048 163.466 11.8366C163.466 12.5454 163.249 13.1057 162.815 13.5173C162.38 13.906 161.751 14.1004 160.928 14.1004Z" fill="white"/>
<defs>
<clipPath id="clip0_205_648">
<rect width="46.7731" height="42.4347" fill="white" transform="translate(0.924805 0.782715)"/>
</clipPath>
</defs>
</svg>
