<svg width="22" height="23" viewBox="0 0 22 23" fill="none" xmlns="http://www.w3.org/2000/svg">
<path d="M19.6823 4.32009H18.9066V1.21749C18.9066 1.08241 18.8713 0.94968 18.8043 0.832429C18.7372 0.715177 18.6407 0.617472 18.5243 0.548985C18.4078 0.480498 18.2755 0.443603 18.1405 0.441952C18.0054 0.440301 17.8722 0.473952 17.7542 0.539572L11.1501 4.20848L4.54608 0.539572C4.42801 0.473952 4.29486 0.440301 4.15979 0.441952C4.02472 0.443603 3.89243 0.480498 3.776 0.548985C3.65957 0.617472 3.56305 0.715177 3.49598 0.832429C3.42891 0.94968 3.39363 1.08241 3.39362 1.21749V4.32009H2.61797C2.00103 4.32077 1.40955 4.56615 0.973313 5.00239C0.537071 5.43863 0.291693 6.03011 0.291016 6.64705V8.974C0.291693 9.59094 0.537071 10.1824 0.973313 10.6187C1.40955 11.0549 2.00103 11.3003 2.61797 11.301H3.39362V19.8331C3.3943 20.45 3.63968 21.0415 4.07592 21.4778C4.51216 21.914 5.10363 22.1594 5.72057 22.1601H16.5797C17.1966 22.1594 17.7881 21.914 18.2243 21.4778C18.6606 21.0415 18.906 20.45 18.9066 19.8331V11.301H19.6823C20.2992 11.3003 20.8907 11.0549 21.3269 10.6187C21.7632 10.1824 22.0086 9.59094 22.0092 8.974V6.64705C22.0086 6.03011 21.7632 5.43863 21.3269 5.00239C20.8907 4.56615 20.2992 4.32077 19.6823 4.32009ZM17.3553 4.32009H14.1436L17.3553 2.5361V4.32009ZM4.94492 2.5361L8.15666 4.32009H4.94492V2.5361ZM4.94492 19.8331V11.301H10.3745V20.6088H5.72057C5.51494 20.6085 5.3178 20.5267 5.1724 20.3813C5.02699 20.2359 4.94519 20.0387 4.94492 19.8331ZM17.3553 19.8331C17.3551 20.0387 17.2733 20.2359 17.1279 20.3813C16.9825 20.5267 16.7853 20.6085 16.5797 20.6088H11.9258V11.301H17.3553V19.8331ZM20.4579 8.974C20.4577 9.17963 20.3759 9.37677 20.2305 9.52217C20.0851 9.66758 19.8879 9.74938 19.6823 9.74965H2.61797C2.41234 9.74938 2.2152 9.66758 2.0698 9.52217C1.92439 9.37677 1.84258 9.17963 1.84232 8.974V6.64705C1.84258 6.44141 1.92439 6.24428 2.0698 6.09887C2.2152 5.95347 2.41234 5.87166 2.61797 5.8714H19.6823C19.8879 5.87166 20.0851 5.95347 20.2305 6.09887C20.3759 6.24428 20.4577 6.44141 20.4579 6.64705V8.974Z" fill="#8D98A4"/>
</svg>
