<svg width="17" height="17" viewBox="0 0 17 17" fill="none" xmlns="http://www.w3.org/2000/svg">
<path fill-rule="evenodd" clip-rule="evenodd" d="M6.46993 12.3516C6.31848 12.2001 6.2334 11.9947 6.2334 11.7805C6.2334 11.5663 6.31848 11.3608 6.46993 11.2093L9.13026 8.54898L6.46993 5.88865C6.32277 5.73628 6.24134 5.53221 6.24318 5.32039C6.24502 5.10856 6.32999 4.90594 6.47977 4.75615C6.62956 4.60637 6.83219 4.5214 7.04401 4.51956C7.25583 4.51772 7.4599 4.59915 7.61227 4.74631L10.8438 7.97781C10.9952 8.12931 11.0803 8.33476 11.0803 8.54898C11.0803 8.76319 10.9952 8.96864 10.8438 9.12014L7.61227 12.3516C7.46077 12.5031 7.25532 12.5882 7.0411 12.5882C6.82688 12.5882 6.62143 12.5031 6.46993 12.3516Z" fill="white"/>
</svg>
