<svg width="18" height="18" viewBox="0 0 18 18" fill="none" xmlns="http://www.w3.org/2000/svg">
<g clip-path="url(#clip0_39_883)">
<path d="M15.2275 2.3584L7.07674 10.5092C6.85705 10.7289 6.50085 10.7289 6.28116 10.5092L2.77246 7.0005L0 9.77296L5.29267 15.0657C5.66033 15.4334 6.15899 15.6399 6.67891 15.6399C7.1988 15.6399 7.6975 15.4333 8.06513 15.0657L18 5.13082L15.2275 2.3584Z" fill="#A5EB78"/>
<g opacity="0.1">
<path d="M17.0832 4.21484L6.59496 14.7031C6.30478 14.9932 5.9399 15.1911 5.54565 15.2793C5.87482 15.5126 6.27015 15.6407 6.67892 15.6407C7.19881 15.6407 7.6975 15.4342 8.06513 15.0665L18 5.13165L17.0832 4.21484Z" fill="black"/>
</g>
</g>
<defs>
<clipPath id="clip0_39_883">
<rect width="18" height="18" fill="white"/>
</clipPath>
</defs>
</svg>
