<svg width="15" height="15" viewBox="0 0 15 15" fill="none" xmlns="http://www.w3.org/2000/svg">
<path fill-rule="evenodd" clip-rule="evenodd" d="M0 7.5C0 5.51088 0.790176 3.60322 2.1967 2.1967C3.60322 0.790176 5.51088 0 7.5 0C9.48912 0 11.3968 0.790176 12.8033 2.1967C14.2098 3.60322 15 5.51088 15 7.5C15 9.48912 14.2098 11.3968 12.8033 12.8033C11.3968 14.2098 9.48912 15 7.5 15C5.51088 15 3.60322 14.2098 2.1967 12.8033C0.790176 11.3968 0 9.48912 0 7.5ZM5.3592 9.283C6.29958 10.0665 7.70001 9.92491 8.46459 8.96911L11.078 5.70204C11.2503 5.48662 11.2154 5.17231 11 4.99998C10.7846 4.82767 10.4703 4.86257 10.298 5.07793L7.99904 7.95064C7.41098 8.68548 6.33414 8.79419 5.61107 8.19172L4.70399 7.43594C4.49191 7.25924 4.17675 7.2879 4.00003 7.49996C3.82329 7.71205 3.85196 8.02727 4.06407 8.20399L5.3592 9.283Z" fill="#27AE60"/>
</svg>
