<svg width="57" height="57" viewBox="0 0 57 57" fill="none" xmlns="http://www.w3.org/2000/svg">
<g id="Burger Menu">
<g id="Group 1171275390">
<path id="Vector (Stroke)" fill-rule="evenodd" clip-rule="evenodd" d="M13 28.9062C13 27.9225 13.7975 27.125 14.7812 27.125H41.5C42.4838 27.125 43.2812 27.9225 43.2812 28.9062C43.2812 29.89 42.4838 30.6875 41.5 30.6875H14.7812C13.7975 30.6875 13 29.89 13 28.9062Z" fill="white"/>
<path id="Vector (Stroke)_2" fill-rule="evenodd" clip-rule="evenodd" d="M13 16.7812C13 15.7975 13.7975 15 14.7812 15H41.5C42.4838 15 43.2812 15.7975 43.2812 16.7812C43.2812 17.765 42.4838 18.5625 41.5 18.5625H14.7812C13.7975 18.5625 13 17.765 13 16.7812Z" fill="white"/>
<path id="Vector (Stroke)_3" fill-rule="evenodd" clip-rule="evenodd" d="M13 39.9062C13 38.9225 13.7975 38.125 14.7812 38.125H41.5C42.4838 38.125 43.2812 38.9225 43.2812 39.9062C43.2812 40.89 42.4838 41.6875 41.5 41.6875H14.7812C13.7975 41.6875 13 40.89 13 39.9062Z" fill="white"/>
</g>
</g>
</svg>
