<svg width="22" height="22" viewBox="0 0 22 22" fill="none" xmlns="http://www.w3.org/2000/svg">
<path d="M2.98145 21.9529H18.9377C19.1728 21.9529 19.3983 21.8595 19.5645 21.6933C19.7308 21.527 19.8242 21.3016 19.8242 21.0665V11.6833L20.083 11.9421C20.2492 12.1085 20.4747 12.202 20.7099 12.2021C20.945 12.2021 21.1706 12.1088 21.3369 11.9426C21.5032 11.7764 21.5967 11.5509 21.5968 11.3157C21.5969 11.0806 21.5036 10.855 21.3373 10.6887L11.5863 0.937631C11.4169 0.777473 11.1927 0.688232 10.9596 0.688232C10.7265 0.688232 10.5022 0.777473 10.3329 0.937631L0.581809 10.6887C0.415623 10.8549 0.322266 11.0804 0.322266 11.3154C0.322266 11.5505 0.415623 11.7759 0.581809 11.9421C0.751075 12.1025 0.97537 12.1919 1.20853 12.1919C1.4417 12.1919 1.66599 12.1025 1.83526 11.9421L2.09499 11.6824V21.0665C2.09499 21.3016 2.18839 21.527 2.35463 21.6933C2.52087 21.8595 2.74635 21.9529 2.98145 21.9529ZM12.7325 20.18H9.18666V16.6342C9.18666 16.164 9.37345 15.713 9.70594 15.3805C10.0384 15.048 10.4894 14.8612 10.9596 14.8612C11.4298 14.8612 11.8807 15.048 12.2132 15.3805C12.5457 15.713 12.7325 16.164 12.7325 16.6342V20.18ZM10.9596 2.81781L18.0512 9.90949V20.18H14.5054V16.6342C14.5054 15.6938 14.1318 14.7919 13.4669 14.1269C12.8019 13.4619 11.9 13.0883 10.9596 13.0883C10.0192 13.0883 9.11727 13.4619 8.45229 14.1269C7.78732 14.7919 7.41374 15.6938 7.41374 16.6342V20.18H3.86791V9.90949L10.9596 2.81781Z" fill="#00FFFF"/>
</svg>
