<svg width="30" height="30" viewBox="0 0 30 30" fill="none" xmlns="http://www.w3.org/2000/svg">
<path d="M26.2508 2.5L23.7508 5M23.7508 5L27.5008 8.75L23.1258 13.125L19.3758 9.375M23.7508 5L19.3758 9.375M14.2383 14.5125C14.8838 15.1493 15.3968 15.9075 15.748 16.7435C16.0992 17.5794 16.2816 18.4766 16.2846 19.3833C16.2877 20.29 16.1113 21.1884 15.7657 22.0266C15.4201 22.8649 14.9122 23.6265 14.271 24.2677C13.6299 24.9088 12.8682 25.4168 12.03 25.7624C11.1917 26.108 10.2933 26.2843 9.38662 26.2813C8.47991 26.2782 7.58276 26.0959 6.74682 25.7447C5.91088 25.3935 5.15266 24.8804 4.51583 24.235C3.26349 22.9384 2.57053 21.2017 2.5862 19.3991C2.60186 17.5965 3.3249 15.8722 4.59958 14.5975C5.87426 13.3228 7.5986 12.5998 9.4012 12.5841C11.2038 12.5685 12.9404 13.2614 14.2371 14.5138L14.2383 14.5125ZM14.2383 14.5125L19.3758 9.375" stroke="white" stroke-width="1.4" stroke-linecap="round" stroke-linejoin="round"/>
</svg>
