<svg width="40" height="21" viewBox="0 0 40 21" fill="none" xmlns="http://www.w3.org/2000/svg">
<path d="M12.9883 18.7812C12.9883 19.237 12.8743 19.6032 12.6465 19.8799C12.4186 20.1729 12.0687 20.3193 11.5967 20.3193C11.2223 20.3193 10.8724 20.2054 10.5469 19.9775C10.2376 19.7497 9.94466 19.473 9.66797 19.1475C9.40755 18.8057 9.17155 18.4476 8.95996 18.0732C8.76465 17.6989 8.60189 17.3734 8.47168 17.0967C8.12988 16.4131 7.78809 15.7295 7.44629 15.0459C7.12077 14.3623 6.79525 13.6706 6.46973 12.9707L5.00488 13.874C5.02116 14.346 4.99674 14.818 4.93164 15.29C4.86654 15.762 4.81771 16.234 4.78516 16.7061C4.7526 17.0316 4.69564 17.3896 4.61426 17.7803C4.54915 18.1546 4.43522 18.5127 4.27246 18.8545C4.1097 19.18 3.88997 19.4567 3.61328 19.6846C3.33659 19.9124 2.99479 20.0264 2.58789 20.0264C2.21354 20.0264 1.9043 19.9531 1.66016 19.8066C1.41602 19.6439 1.21257 19.4404 1.0498 19.1963C0.90332 18.9521 0.797526 18.6755 0.732422 18.3662C0.667318 18.057 0.634766 17.7396 0.634766 17.4141V17.2188C0.634766 16.2585 0.683594 15.2982 0.78125 14.3379C0.895182 13.3613 0.968424 12.3848 1.00098 11.4082C1.03353 10.1224 1.07422 8.83659 1.12305 7.55078C1.17188 6.26497 1.23698 4.97917 1.31836 3.69336C1.33464 3.40039 1.38346 3.11556 1.46484 2.83887C1.54622 2.56217 1.66829 2.31803 1.83105 2.10645C1.99382 1.87858 2.18913 1.69954 2.41699 1.56934C2.66113 1.43913 2.94596 1.37402 3.27148 1.37402C3.77604 1.37402 4.15039 1.55306 4.39453 1.91113C4.65495 2.26921 4.83398 2.70052 4.93164 3.20508C5.0293 3.70964 5.06999 4.23047 5.05371 4.76758C5.05371 5.30469 5.05371 5.75228 5.05371 6.11035C5.05371 7.13574 5.0293 8.16113 4.98047 9.18652C5.45247 8.7959 5.9082 8.34831 6.34766 7.84375C6.80339 7.33919 7.20215 6.8265 7.54395 6.30566C7.75553 5.99642 7.99967 5.57324 8.27637 5.03613C8.55306 4.48275 8.85417 3.95378 9.17969 3.44922C9.50521 2.92839 9.86328 2.48079 10.2539 2.10645C10.6445 1.71582 11.0596 1.52051 11.499 1.52051C11.971 1.52051 12.3128 1.65885 12.5244 1.93555C12.7523 2.19596 12.8662 2.5459 12.8662 2.98535C12.8662 3.63639 12.7604 4.30371 12.5488 4.9873C12.3535 5.6709 12.085 6.34635 11.7432 7.01367C11.4014 7.66471 11.0107 8.29134 10.5713 8.89355C10.1481 9.47949 9.7168 9.99219 9.27734 10.4316C9.73307 11.1966 10.1644 11.9697 10.5713 12.751C10.9782 13.516 11.3851 14.2891 11.792 15.0703C11.9385 15.3307 12.0768 15.6156 12.207 15.9248C12.3535 16.234 12.4837 16.5514 12.5977 16.877C12.7116 17.2025 12.8011 17.528 12.8662 17.8535C12.9476 18.179 12.9883 18.4883 12.9883 18.7812ZM17.8955 2.81445C17.8955 3.04232 17.8304 3.24577 17.7002 3.4248C17.5863 3.60384 17.4316 3.7666 17.2363 3.91309C17.041 4.04329 16.8294 4.14909 16.6016 4.23047C16.3737 4.29557 16.1621 4.32812 15.9668 4.32812C15.6413 4.32812 15.3564 4.24674 15.1123 4.08398C14.8682 3.92122 14.7461 3.66895 14.7461 3.32715C14.7461 3.08301 14.8031 2.87142 14.917 2.69238C15.0472 2.49707 15.2018 2.34245 15.3809 2.22852C15.5599 2.09831 15.7633 2.00065 15.9912 1.93555C16.2191 1.87044 16.4388 1.83789 16.6504 1.83789C16.9596 1.83789 17.2445 1.91113 17.5049 2.05762C17.7653 2.2041 17.8955 2.45638 17.8955 2.81445ZM18.0908 11.1152C18.0908 11.3431 18.0908 11.5872 18.0908 11.8477C18.0908 12.0918 18.0827 12.3278 18.0664 12.5557C18.0501 12.8324 18.042 13.2067 18.042 13.6787C18.042 14.1344 18.0257 14.6309 17.9932 15.168C17.9606 15.7051 17.9036 16.2503 17.8223 16.8037C17.7572 17.3571 17.6432 17.8617 17.4805 18.3174C17.3177 18.7731 17.098 19.1475 16.8213 19.4404C16.5609 19.7171 16.2272 19.8636 15.8203 19.8799C15.5111 19.8962 15.2507 19.7741 15.0391 19.5137C14.8275 19.2533 14.6484 18.9196 14.502 18.5127C14.3717 18.0895 14.2741 17.6257 14.209 17.1211C14.1439 16.6003 14.0951 16.1038 14.0625 15.6318C14.0299 15.1436 14.0137 14.696 14.0137 14.2891C14.0137 13.8822 14.0137 13.5811 14.0137 13.3857C14.0137 13.1253 14.0137 12.7591 14.0137 12.2871C14.0137 11.7988 14.0299 11.278 14.0625 10.7246C14.0951 10.1712 14.152 9.6097 14.2334 9.04004C14.3311 8.47038 14.4613 7.94954 14.624 7.47754C14.8031 7.00553 15.0309 6.62305 15.3076 6.33008C15.5843 6.03711 15.9342 5.89062 16.3574 5.89062C16.7969 5.89062 17.1305 6.11035 17.3584 6.5498C17.5863 6.98926 17.7572 7.50195 17.8711 8.08789C17.985 8.67383 18.0501 9.25977 18.0664 9.8457C18.0827 10.4154 18.0908 10.8385 18.0908 11.1152ZM30.3467 3.79102C30.3467 4.97917 30.2979 6.15918 30.2002 7.33105C30.1188 8.50293 30.0781 9.68294 30.0781 10.8711C30.0781 11.8314 30.1025 12.7835 30.1514 13.7275C30.2165 14.6715 30.249 15.6237 30.249 16.584C30.249 16.8444 30.2409 17.1618 30.2246 17.5361C30.2083 17.8942 30.1514 18.2441 30.0537 18.5859C29.9723 18.9277 29.8258 19.2207 29.6143 19.4648C29.4189 19.709 29.1341 19.8311 28.7598 19.8311C28.2715 19.8311 27.8646 19.652 27.5391 19.2939C27.2298 18.9196 27.0345 18.5046 26.9531 18.0488C26.6439 18.6348 26.1963 19.1312 25.6104 19.5381C25.0244 19.945 24.3896 20.1484 23.7061 20.1484C22.9736 20.1484 22.3389 19.8962 21.8018 19.3916C21.2809 18.887 20.8415 18.2767 20.4834 17.5605C20.1416 16.8444 19.8812 16.0957 19.7021 15.3145C19.5394 14.5332 19.458 13.8577 19.458 13.2881C19.458 12.8812 19.4824 12.4173 19.5312 11.8965C19.5801 11.3757 19.6615 10.8467 19.7754 10.3096C19.9056 9.77246 20.0684 9.25163 20.2637 8.74707C20.459 8.22624 20.7031 7.76237 20.9961 7.35547C21.3053 6.94857 21.6634 6.62305 22.0703 6.37891C22.4935 6.13477 22.9736 6.0127 23.5107 6.0127C24.0967 6.0127 24.6582 6.18359 25.1953 6.52539C25.7324 6.86719 26.1393 7.29036 26.416 7.79492L26.6357 3.91309C26.652 3.60384 26.6764 3.24577 26.709 2.83887C26.7415 2.41569 26.8066 2.01693 26.9043 1.64258C27.0182 1.26823 27.1891 0.950846 27.417 0.69043C27.6449 0.430013 27.9785 0.299805 28.418 0.299805C28.89 0.299805 29.2562 0.413737 29.5166 0.641602C29.777 0.869466 29.9642 1.16243 30.0781 1.52051C30.2083 1.8623 30.2816 2.23665 30.2979 2.64355C30.3304 3.05046 30.3467 3.43294 30.3467 3.79102ZM26.3672 14.6309C26.3672 14.2565 26.359 13.8903 26.3428 13.5322C26.3265 13.1742 26.3265 12.8079 26.3428 12.4336C26.2451 12.222 26.1312 11.9941 26.001 11.75C25.8708 11.4896 25.708 11.2536 25.5127 11.042C25.3337 10.8141 25.1302 10.627 24.9023 10.4805C24.6745 10.334 24.4303 10.2607 24.1699 10.2607C23.877 10.2607 23.641 10.3503 23.4619 10.5293C23.2829 10.7083 23.1527 10.9281 23.0713 11.1885C22.9899 11.4326 22.9329 11.7012 22.9004 11.9941C22.8841 12.2871 22.876 12.5394 22.876 12.751C22.876 12.9463 22.8923 13.2393 22.9248 13.6299C22.9574 14.0042 23.0143 14.3867 23.0957 14.7773C23.1934 15.168 23.3236 15.5098 23.4863 15.8027C23.6491 16.0957 23.8688 16.2422 24.1455 16.2422C24.3571 16.2422 24.5687 16.2015 24.7803 16.1201C24.9919 16.0225 25.1872 15.9085 25.3662 15.7783C25.5615 15.6318 25.7406 15.4772 25.9033 15.3145C26.0824 15.1354 26.237 14.9727 26.3672 14.8262V14.6309ZM39.1113 6.42773C39.1113 6.89974 38.9486 7.24967 38.623 7.47754C38.3138 7.7054 37.9639 7.92513 37.5732 8.13672C37.1826 8.33203 36.8245 8.56803 36.499 8.84473C36.1898 9.12142 36.0352 9.53646 36.0352 10.0898C36.0352 10.3828 36.1003 10.6351 36.2305 10.8467C36.377 11.0583 36.5479 11.2536 36.7432 11.4326C36.9548 11.5954 37.1826 11.7663 37.4268 11.9453C37.6709 12.1243 37.8906 12.3278 38.0859 12.5557C38.2975 12.7835 38.4684 13.0602 38.5986 13.3857C38.7451 13.7113 38.8184 14.11 38.8184 14.582C38.8184 15.2656 38.6393 15.9411 38.2812 16.6084C37.9395 17.2594 37.4919 17.8454 36.9385 18.3662C36.4014 18.8708 35.791 19.2777 35.1074 19.5869C34.4238 19.8962 33.7484 20.0508 33.0811 20.0508C32.8044 20.0508 32.5277 20.0264 32.251 19.9775C31.9743 19.945 31.722 19.8717 31.4941 19.7578C31.2826 19.6439 31.1035 19.4893 30.957 19.2939C30.8105 19.0824 30.7373 18.8138 30.7373 18.4883C30.7373 18.0326 30.8268 17.6826 31.0059 17.4385C31.1849 17.1781 31.4128 16.9746 31.6895 16.8281C31.9661 16.6816 32.2591 16.5677 32.5684 16.4863C32.8939 16.4049 33.195 16.3073 33.4717 16.1934C33.7484 16.0632 33.9762 15.9004 34.1553 15.7051C34.3343 15.5098 34.4238 15.2331 34.4238 14.875C34.4238 14.5332 34.2855 14.1833 34.0088 13.8252C33.7484 13.4508 33.4554 13.0602 33.1299 12.6533C32.8044 12.2301 32.5033 11.7826 32.2266 11.3105C31.9661 10.8385 31.8359 10.3177 31.8359 9.74805C31.8359 9.04818 31.9743 8.40527 32.251 7.81934C32.5439 7.21712 32.9264 6.69629 33.3984 6.25684C33.8867 5.81738 34.4401 5.47559 35.0586 5.23145C35.6771 4.97103 36.3281 4.84082 37.0117 4.84082C37.2721 4.84082 37.5244 4.86523 37.7686 4.91406C38.029 4.96289 38.2568 5.05241 38.4521 5.18262C38.6475 5.29655 38.8021 5.45931 38.916 5.6709C39.0462 5.86621 39.1113 6.11849 39.1113 6.42773Z" fill="white"/>
<path d="M12.9883 18.7812C12.9883 19.237 12.8743 19.6032 12.6465 19.8799C12.4186 20.1729 12.0687 20.3193 11.5967 20.3193C11.2223 20.3193 10.8724 20.2054 10.5469 19.9775C10.2376 19.7497 9.94466 19.473 9.66797 19.1475C9.40755 18.8057 9.17155 18.4476 8.95996 18.0732C8.76465 17.6989 8.60189 17.3734 8.47168 17.0967C8.12988 16.4131 7.78809 15.7295 7.44629 15.0459C7.12077 14.3623 6.79525 13.6706 6.46973 12.9707L5.00488 13.874C5.02116 14.346 4.99674 14.818 4.93164 15.29C4.86654 15.762 4.81771 16.234 4.78516 16.7061C4.7526 17.0316 4.69564 17.3896 4.61426 17.7803C4.54915 18.1546 4.43522 18.5127 4.27246 18.8545C4.1097 19.18 3.88997 19.4567 3.61328 19.6846C3.33659 19.9124 2.99479 20.0264 2.58789 20.0264C2.21354 20.0264 1.9043 19.9531 1.66016 19.8066C1.41602 19.6439 1.21257 19.4404 1.0498 19.1963C0.90332 18.9521 0.797526 18.6755 0.732422 18.3662C0.667318 18.057 0.634766 17.7396 0.634766 17.4141V17.2188C0.634766 16.2585 0.683594 15.2982 0.78125 14.3379C0.895182 13.3613 0.968424 12.3848 1.00098 11.4082C1.03353 10.1224 1.07422 8.83659 1.12305 7.55078C1.17188 6.26497 1.23698 4.97917 1.31836 3.69336C1.33464 3.40039 1.38346 3.11556 1.46484 2.83887C1.54622 2.56217 1.66829 2.31803 1.83105 2.10645C1.99382 1.87858 2.18913 1.69954 2.41699 1.56934C2.66113 1.43913 2.94596 1.37402 3.27148 1.37402C3.77604 1.37402 4.15039 1.55306 4.39453 1.91113C4.65495 2.26921 4.83398 2.70052 4.93164 3.20508C5.0293 3.70964 5.06999 4.23047 5.05371 4.76758C5.05371 5.30469 5.05371 5.75228 5.05371 6.11035C5.05371 7.13574 5.0293 8.16113 4.98047 9.18652C5.45247 8.7959 5.9082 8.34831 6.34766 7.84375C6.80339 7.33919 7.20215 6.8265 7.54395 6.30566C7.75553 5.99642 7.99967 5.57324 8.27637 5.03613C8.55306 4.48275 8.85417 3.95378 9.17969 3.44922C9.50521 2.92839 9.86328 2.48079 10.2539 2.10645C10.6445 1.71582 11.0596 1.52051 11.499 1.52051C11.971 1.52051 12.3128 1.65885 12.5244 1.93555C12.7523 2.19596 12.8662 2.5459 12.8662 2.98535C12.8662 3.63639 12.7604 4.30371 12.5488 4.9873C12.3535 5.6709 12.085 6.34635 11.7432 7.01367C11.4014 7.66471 11.0107 8.29134 10.5713 8.89355C10.1481 9.47949 9.7168 9.99219 9.27734 10.4316C9.73307 11.1966 10.1644 11.9697 10.5713 12.751C10.9782 13.516 11.3851 14.2891 11.792 15.0703C11.9385 15.3307 12.0768 15.6156 12.207 15.9248C12.3535 16.234 12.4837 16.5514 12.5977 16.877C12.7116 17.2025 12.8011 17.528 12.8662 17.8535C12.9476 18.179 12.9883 18.4883 12.9883 18.7812ZM17.8955 2.81445C17.8955 3.04232 17.8304 3.24577 17.7002 3.4248C17.5863 3.60384 17.4316 3.7666 17.2363 3.91309C17.041 4.04329 16.8294 4.14909 16.6016 4.23047C16.3737 4.29557 16.1621 4.32812 15.9668 4.32812C15.6413 4.32812 15.3564 4.24674 15.1123 4.08398C14.8682 3.92122 14.7461 3.66895 14.7461 3.32715C14.7461 3.08301 14.8031 2.87142 14.917 2.69238C15.0472 2.49707 15.2018 2.34245 15.3809 2.22852C15.5599 2.09831 15.7633 2.00065 15.9912 1.93555C16.2191 1.87044 16.4388 1.83789 16.6504 1.83789C16.9596 1.83789 17.2445 1.91113 17.5049 2.05762C17.7653 2.2041 17.8955 2.45638 17.8955 2.81445ZM18.0908 11.1152C18.0908 11.3431 18.0908 11.5872 18.0908 11.8477C18.0908 12.0918 18.0827 12.3278 18.0664 12.5557C18.0501 12.8324 18.042 13.2067 18.042 13.6787C18.042 14.1344 18.0257 14.6309 17.9932 15.168C17.9606 15.7051 17.9036 16.2503 17.8223 16.8037C17.7572 17.3571 17.6432 17.8617 17.4805 18.3174C17.3177 18.7731 17.098 19.1475 16.8213 19.4404C16.5609 19.7171 16.2272 19.8636 15.8203 19.8799C15.5111 19.8962 15.2507 19.7741 15.0391 19.5137C14.8275 19.2533 14.6484 18.9196 14.502 18.5127C14.3717 18.0895 14.2741 17.6257 14.209 17.1211C14.1439 16.6003 14.0951 16.1038 14.0625 15.6318C14.0299 15.1436 14.0137 14.696 14.0137 14.2891C14.0137 13.8822 14.0137 13.5811 14.0137 13.3857C14.0137 13.1253 14.0137 12.7591 14.0137 12.2871C14.0137 11.7988 14.0299 11.278 14.0625 10.7246C14.0951 10.1712 14.152 9.6097 14.2334 9.04004C14.3311 8.47038 14.4613 7.94954 14.624 7.47754C14.8031 7.00553 15.0309 6.62305 15.3076 6.33008C15.5843 6.03711 15.9342 5.89062 16.3574 5.89062C16.7969 5.89062 17.1305 6.11035 17.3584 6.5498C17.5863 6.98926 17.7572 7.50195 17.8711 8.08789C17.985 8.67383 18.0501 9.25977 18.0664 9.8457C18.0827 10.4154 18.0908 10.8385 18.0908 11.1152ZM30.3467 3.79102C30.3467 4.97917 30.2979 6.15918 30.2002 7.33105C30.1188 8.50293 30.0781 9.68294 30.0781 10.8711C30.0781 11.8314 30.1025 12.7835 30.1514 13.7275C30.2165 14.6715 30.249 15.6237 30.249 16.584C30.249 16.8444 30.2409 17.1618 30.2246 17.5361C30.2083 17.8942 30.1514 18.2441 30.0537 18.5859C29.9723 18.9277 29.8258 19.2207 29.6143 19.4648C29.4189 19.709 29.1341 19.8311 28.7598 19.8311C28.2715 19.8311 27.8646 19.652 27.5391 19.2939C27.2298 18.9196 27.0345 18.5046 26.9531 18.0488C26.6439 18.6348 26.1963 19.1312 25.6104 19.5381C25.0244 19.945 24.3896 20.1484 23.7061 20.1484C22.9736 20.1484 22.3389 19.8962 21.8018 19.3916C21.2809 18.887 20.8415 18.2767 20.4834 17.5605C20.1416 16.8444 19.8812 16.0957 19.7021 15.3145C19.5394 14.5332 19.458 13.8577 19.458 13.2881C19.458 12.8812 19.4824 12.4173 19.5312 11.8965C19.5801 11.3757 19.6615 10.8467 19.7754 10.3096C19.9056 9.77246 20.0684 9.25163 20.2637 8.74707C20.459 8.22624 20.7031 7.76237 20.9961 7.35547C21.3053 6.94857 21.6634 6.62305 22.0703 6.37891C22.4935 6.13477 22.9736 6.0127 23.5107 6.0127C24.0967 6.0127 24.6582 6.18359 25.1953 6.52539C25.7324 6.86719 26.1393 7.29036 26.416 7.79492L26.6357 3.91309C26.652 3.60384 26.6764 3.24577 26.709 2.83887C26.7415 2.41569 26.8066 2.01693 26.9043 1.64258C27.0182 1.26823 27.1891 0.950846 27.417 0.69043C27.6449 0.430013 27.9785 0.299805 28.418 0.299805C28.89 0.299805 29.2562 0.413737 29.5166 0.641602C29.777 0.869466 29.9642 1.16243 30.0781 1.52051C30.2083 1.8623 30.2816 2.23665 30.2979 2.64355C30.3304 3.05046 30.3467 3.43294 30.3467 3.79102ZM26.3672 14.6309C26.3672 14.2565 26.359 13.8903 26.3428 13.5322C26.3265 13.1742 26.3265 12.8079 26.3428 12.4336C26.2451 12.222 26.1312 11.9941 26.001 11.75C25.8708 11.4896 25.708 11.2536 25.5127 11.042C25.3337 10.8141 25.1302 10.627 24.9023 10.4805C24.6745 10.334 24.4303 10.2607 24.1699 10.2607C23.877 10.2607 23.641 10.3503 23.4619 10.5293C23.2829 10.7083 23.1527 10.9281 23.0713 11.1885C22.9899 11.4326 22.9329 11.7012 22.9004 11.9941C22.8841 12.2871 22.876 12.5394 22.876 12.751C22.876 12.9463 22.8923 13.2393 22.9248 13.6299C22.9574 14.0042 23.0143 14.3867 23.0957 14.7773C23.1934 15.168 23.3236 15.5098 23.4863 15.8027C23.6491 16.0957 23.8688 16.2422 24.1455 16.2422C24.3571 16.2422 24.5687 16.2015 24.7803 16.1201C24.9919 16.0225 25.1872 15.9085 25.3662 15.7783C25.5615 15.6318 25.7406 15.4772 25.9033 15.3145C26.0824 15.1354 26.237 14.9727 26.3672 14.8262V14.6309ZM39.1113 6.42773C39.1113 6.89974 38.9486 7.24967 38.623 7.47754C38.3138 7.7054 37.9639 7.92513 37.5732 8.13672C37.1826 8.33203 36.8245 8.56803 36.499 8.84473C36.1898 9.12142 36.0352 9.53646 36.0352 10.0898C36.0352 10.3828 36.1003 10.6351 36.2305 10.8467C36.377 11.0583 36.5479 11.2536 36.7432 11.4326C36.9548 11.5954 37.1826 11.7663 37.4268 11.9453C37.6709 12.1243 37.8906 12.3278 38.0859 12.5557C38.2975 12.7835 38.4684 13.0602 38.5986 13.3857C38.7451 13.7113 38.8184 14.11 38.8184 14.582C38.8184 15.2656 38.6393 15.9411 38.2812 16.6084C37.9395 17.2594 37.4919 17.8454 36.9385 18.3662C36.4014 18.8708 35.791 19.2777 35.1074 19.5869C34.4238 19.8962 33.7484 20.0508 33.0811 20.0508C32.8044 20.0508 32.5277 20.0264 32.251 19.9775C31.9743 19.945 31.722 19.8717 31.4941 19.7578C31.2826 19.6439 31.1035 19.4893 30.957 19.2939C30.8105 19.0824 30.7373 18.8138 30.7373 18.4883C30.7373 18.0326 30.8268 17.6826 31.0059 17.4385C31.1849 17.1781 31.4128 16.9746 31.6895 16.8281C31.9661 16.6816 32.2591 16.5677 32.5684 16.4863C32.8939 16.4049 33.195 16.3073 33.4717 16.1934C33.7484 16.0632 33.9762 15.9004 34.1553 15.7051C34.3343 15.5098 34.4238 15.2331 34.4238 14.875C34.4238 14.5332 34.2855 14.1833 34.0088 13.8252C33.7484 13.4508 33.4554 13.0602 33.1299 12.6533C32.8044 12.2301 32.5033 11.7826 32.2266 11.3105C31.9661 10.8385 31.8359 10.3177 31.8359 9.74805C31.8359 9.04818 31.9743 8.40527 32.251 7.81934C32.5439 7.21712 32.9264 6.69629 33.3984 6.25684C33.8867 5.81738 34.4401 5.47559 35.0586 5.23145C35.6771 4.97103 36.3281 4.84082 37.0117 4.84082C37.2721 4.84082 37.5244 4.86523 37.7686 4.91406C38.029 4.96289 38.2568 5.05241 38.4521 5.18262C38.6475 5.29655 38.8021 5.45931 38.916 5.6709C39.0462 5.86621 39.1113 6.11849 39.1113 6.42773Z" fill="url(#paint0_linear_489_2606)"/>
<defs>
<linearGradient id="paint0_linear_489_2606" x1="0" y1="7.41102" x2="40" y2="7.41102" gradientUnits="userSpaceOnUse">
<stop stop-color="#00DAF4"/>
<stop offset="0.2" stop-color="#5EDC99"/>
<stop offset="0.4" stop-color="#BADA6D"/>
<stop offset="0.6" stop-color="#FFC800"/>
<stop offset="0.8" stop-color="#FFAF00"/>
<stop offset="1" stop-color="#FF7800"/>
</linearGradient>
</defs>
</svg>
