<svg width="17" height="17" viewBox="0 0 17 17" fill="none" xmlns="http://www.w3.org/2000/svg">
<path fill-rule="evenodd" clip-rule="evenodd" d="M10.9598 12.3516C11.1112 12.2001 11.1963 11.9947 11.1963 11.7805C11.1963 11.5663 11.1112 11.3608 10.9598 11.2093L8.29942 8.54898L10.9598 5.88865C11.1069 5.73628 11.1883 5.53221 11.1865 5.32039C11.1847 5.10856 11.0997 4.90594 10.9499 4.75615C10.8001 4.60637 10.5975 4.5214 10.3857 4.51956C10.1739 4.51772 9.96979 4.59915 9.81742 4.74631L6.58592 7.97781C6.43447 8.12931 6.34939 8.33476 6.34939 8.54898C6.34939 8.76319 6.43447 8.96864 6.58592 9.12014L9.81742 12.3516C9.96892 12.5031 10.1744 12.5882 10.3886 12.5882C10.6028 12.5882 10.8083 12.5031 10.9598 12.3516Z" fill="white"/>
</svg>
