<svg width="30" height="30" viewBox="0 0 30 30" fill="none" xmlns="http://www.w3.org/2000/svg">
<path d="M15 20C17.7614 20 20 17.7614 20 15C20 12.2386 17.7614 10 15 10C12.2386 10 10 12.2386 10 15C10 17.7614 12.2386 20 15 20Z" stroke="white" stroke-width="1.4" stroke-linecap="round" stroke-linejoin="round"/>
<path d="M20 9.99922V16.2492C20 17.2438 20.3951 18.1976 21.0984 18.9009C21.8016 19.6041 22.7555 19.9992 23.75 19.9992C24.7446 19.9992 25.6984 19.6041 26.4017 18.9009C27.1049 18.1976 27.5 17.2438 27.5 16.2492V14.9992C27.4998 12.178 26.5453 9.43982 24.7916 7.22989C23.0379 5.01996 20.5882 3.46826 17.8408 2.8271C15.0934 2.18594 12.2099 2.49303 9.6592 3.69843C7.10846 4.90384 5.04051 6.93667 3.79158 9.46638C2.54266 11.9961 2.18622 14.8739 2.78022 17.6319C3.37422 20.3898 4.88373 22.8658 7.0633 24.6571C9.24287 26.4484 11.9643 27.4497 14.7851 27.4982C17.6059 27.5467 20.3601 26.6395 22.6 24.9242" stroke="white" stroke-width="1.4" stroke-linecap="round" stroke-linejoin="round"/>
</svg>
