<svg width="24" height="24" viewBox="0 0 24 24" fill="none" xmlns="http://www.w3.org/2000/svg">
<path d="M17.003 13.0004L13.003 22.0004C12.2073 22.0004 11.4442 21.6843 10.8816 21.1217C10.319 20.5591 10.003 19.796 10.003 19.0004V15.0004H4.34296C4.05305 15.0036 3.7659 14.9439 3.50139 14.8251C3.23688 14.7064 3.00135 14.5316 2.8111 14.3128C2.62086 14.0941 2.48046 13.8365 2.39962 13.5581C2.31879 13.2797 2.29945 12.987 2.34296 12.7004L3.72296 3.70036C3.79528 3.22346 4.03753 2.78875 4.40505 2.47636C4.77258 2.16396 5.24063 1.99491 5.72296 2.00036H17.003M17.003 13.0004V2.00036M17.003 13.0004H19.673C20.2389 13.0104 20.7889 12.8122 21.2184 12.4435C21.6479 12.0749 21.9271 11.5613 22.003 11.0004V4.00036C21.9271 3.43942 21.6479 2.92586 21.2184 2.55718C20.7889 2.1885 20.2389 1.99035 19.673 2.00036H17.003" stroke="white" stroke-width="2" stroke-linecap="round" stroke-linejoin="round"/>
</svg>
