<svg width="18" height="18" viewBox="0 0 18 18" fill="none" xmlns="http://www.w3.org/2000/svg">
<g clip-path="url(#clip0_300_1561)">
<path d="M17.7681 14.2872L10.3848 2.04255C10.0939 1.56017 9.56329 1.2605 8.99998 1.2605C8.43667 1.2605 7.90606 1.56017 7.61514 2.04258L0.231871 14.2872C-0.0687501 14.7858 -0.0776446 15.4104 0.208633 15.9174C0.49498 16.4243 1.03449 16.7393 1.61668 16.7393H16.3833C16.9655 16.7393 17.505 16.4243 17.7914 15.9173C18.0776 15.4104 18.0687 14.7857 17.7681 14.2872ZM16.7709 15.3411C16.6921 15.4806 16.5436 15.5674 16.3833 15.5674H1.61668C1.4564 15.5674 1.30786 15.4807 1.22908 15.3411C1.15026 15.2016 1.15272 15.0296 1.23544 14.8924L8.61878 2.64773C8.69887 2.51494 8.84494 2.43243 9.00002 2.43243C9.15505 2.43243 9.30113 2.51494 9.38121 2.64773L16.7645 14.8924C16.8473 15.0296 16.8497 15.2016 16.7709 15.3411Z" fill="white"/>
<path d="M9.0056 6.08228C8.55982 6.08228 8.21191 6.32148 8.21191 6.74553C8.21191 8.03935 8.36411 9.89856 8.36411 11.1924C8.36414 11.5295 8.65773 11.6708 9.00564 11.6708C9.26657 11.6708 9.63623 11.5295 9.63623 11.1924C9.63623 9.89859 9.78843 8.03939 9.78843 6.74553C9.78843 6.32151 9.42966 6.08228 9.0056 6.08228Z" fill="white"/>
<path d="M9.01592 12.4209C8.53755 12.4209 8.17871 12.8014 8.17871 13.2581C8.17871 13.7039 8.53752 14.0953 9.01592 14.0953C9.4617 14.0953 9.84227 13.7039 9.84227 13.2581C9.84227 12.8014 9.46167 12.4209 9.01592 12.4209Z" fill="white"/>
</g>
<defs>
<clipPath id="clip0_300_1561">
<rect width="18" height="18" fill="white"/>
</clipPath>
</defs>
</svg>
