<svg width="20" height="20" viewBox="0 0 20 20" fill="none" xmlns="http://www.w3.org/2000/svg">
<path d="M10.0003 0C6.06171 0 2.85742 3.15422 2.85742 7.03125C2.85742 8.34117 3.22603 9.61953 3.92365 10.7286L9.59369 19.723C9.7023 19.8953 9.89365 20 10.0994 20C10.101 20 10.1026 20 10.1042 20C10.3117 19.9984 10.5035 19.8905 10.6101 19.7152L16.1356 10.6336C16.7948 9.54797 17.1431 8.30231 17.1431 7.03125C17.1431 3.15422 13.9389 0 10.0003 0ZM15.114 10.032L10.0904 18.2885L4.93548 10.1112C4.3548 9.18805 4.03996 8.12305 4.03996 7.03125C4.03996 3.80039 6.71814 1.16406 10.0003 1.16406C13.2824 1.16406 15.9566 3.80039 15.9566 7.03125C15.9566 8.09066 15.6625 9.12844 15.114 10.032Z" fill="white"/>
<path d="M10.0001 3.51562C8.03085 3.51562 6.42871 5.09273 6.42871 7.03125C6.42871 8.95738 8.00478 10.5469 10.0001 10.5469C12.0201 10.5469 13.5716 8.93621 13.5716 7.03125C13.5716 5.09273 11.9694 3.51562 10.0001 3.51562ZM10.0001 9.38281C8.68042 9.38281 7.61125 8.32684 7.61125 7.03125C7.61125 5.73891 8.68728 4.67969 10.0001 4.67969C11.313 4.67969 12.3851 5.73891 12.3851 7.03125C12.3851 8.30793 11.3408 9.38281 10.0001 9.38281Z" fill="white"/>
</svg>
