<svg width="18" height="19" viewBox="0 0 18 19" fill="none" xmlns="http://www.w3.org/2000/svg">
<g id="power">
<path id="Icon" d="M14.1235 5.00797C13.9282 4.81268 13.6116 4.81263 13.4164 5.00786C13.2211 5.20309 13.221 5.51967 13.4162 5.71497L14.1235 5.00797ZM8.9961 16.8837V17.3837V16.8837ZM4.57596 5.71497C4.77119 5.51967 4.77114 5.20309 4.57584 5.00786C4.38055 4.81263 4.06397 4.81268 3.86874 5.00797L4.57596 5.71497ZM9.49985 1.88147C9.49985 1.60533 9.27599 1.38147 8.99985 1.38147C8.7237 1.38147 8.49985 1.60533 8.49985 1.88147H9.49985ZM8.49985 9.38147C8.49985 9.65761 8.7237 9.88147 8.99985 9.88147C9.27599 9.88147 9.49985 9.65761 9.49985 9.38147H8.49985ZM13.4162 5.71497C14.2901 6.58912 14.8852 7.70277 15.1262 8.9151L16.107 8.72013C15.8274 7.31383 15.1372 6.022 14.1235 5.00797L13.4162 5.71497ZM15.1262 8.9151C15.3671 10.1274 15.2433 11.384 14.7701 12.5259L15.694 12.9087C16.2428 11.584 16.3865 10.1264 16.107 8.72013L15.1262 8.9151ZM14.7701 12.5259C14.297 13.6678 13.496 14.6438 12.4682 15.3305L13.0237 16.162C14.2159 15.3654 15.1452 14.2333 15.694 12.9087L14.7701 12.5259ZM12.4682 15.3305C11.4404 16.0172 10.2321 16.3837 8.9961 16.3837V17.3837C10.4299 17.3837 11.8315 16.9585 13.0237 16.162L12.4682 15.3305ZM8.9961 16.3837C7.76005 16.3837 6.55176 16.0172 5.52399 15.3305L4.96846 16.162C6.16066 16.9585 7.56228 17.3837 8.9961 17.3837V16.3837ZM5.52399 15.3305C4.49623 14.6438 3.69515 13.6678 3.22204 12.5259L2.2982 12.9087C2.847 14.2333 3.77625 15.3654 4.96846 16.162L5.52399 15.3305ZM3.22204 12.5259C2.74894 11.384 2.62505 10.1274 2.86604 8.9151L1.88523 8.72013C1.60568 10.1264 1.74939 11.584 2.2982 12.9087L3.22204 12.5259ZM2.86604 8.9151C3.10703 7.70277 3.70208 6.58912 4.57596 5.71497L3.86874 5.00797C2.85504 6.022 2.16478 7.31383 1.88523 8.72013L2.86604 8.9151ZM8.49985 1.88147V9.38147H9.49985V1.88147H8.49985Z" fill="#00F0FB"/>
</g>
</svg>
