<svg width="230" height="48" viewBox="0 0 230 48" fill="none" xmlns="http://www.w3.org/2000/svg">
<g clip-path="url(#clip0_205_600)">
<path d="M37.0829 5.14071L36.244 3.01013C36.244 3.01013 35.8992 2.01173 35.7294 1.7081C35.6522 1.564 35.4721 1.35815 35.3125 1.19861C34.4891 0.375194 33.3312 0.0200957 32.3019 0.349462C31.6638 0.555316 31.0565 0.838365 31.0565 0.838365C31.0565 0.838365 31.0514 0.833219 31.0514 0.838365L28.9259 1.76985C28.2312 2.07349 27.521 2.29993 26.7902 2.45432C25.272 2.77339 23.7075 2.77339 22.1996 2.45432C21.4689 2.29993 20.7535 2.07349 20.0588 1.76985L18.0671 0.900122C18.0671 0.900122 16.9452 0.354608 16.5489 0.236242C15.5608 -0.0570995 14.4544 0.38034 13.6721 1.16259C13.5383 1.29639 13.3222 1.58459 13.2347 1.74927C13.0546 2.09407 12.7355 3.05644 12.7355 3.05644L11.9121 5.15101C11.6342 5.85606 11.2894 6.51994 10.8828 7.14779C11.4695 7.02428 12.1231 7.10662 12.8384 7.42055L16.0086 8.80492L18.6847 9.97314L18.7876 10.0195L21.9835 11.409C23.584 12.1089 25.4058 12.1089 27.0063 11.4141L30.2022 10.0195L30.3051 9.97314L32.9812 8.80492L36.1514 7.42055C36.8667 7.11177 37.5203 7.01913 38.107 7.14779C37.7056 6.50964 37.3608 5.84576 37.0829 5.14071Z" fill="white"/>
<path d="M43.3316 36.6063L45.4622 35.7675L46.7643 35.2528H46.7694L46.7746 35.2477C46.9547 35.1242 47.1142 34.9904 47.2737 34.836C48.0972 34.0126 48.3956 32.8598 48.1692 31.8048C48.1744 31.7996 48.1692 31.7996 48.1692 31.7996L48.1641 31.7945L47.634 30.5799C47.634 30.5799 47.6391 30.5748 47.634 30.5748L46.7025 28.4494C46.3989 27.7546 46.1724 27.0444 46.018 26.3136C45.699 24.7954 45.699 23.231 46.018 21.7231C46.1724 20.9923 46.3989 20.2769 46.7025 19.5822L47.5722 17.5906L48.2361 16.0724C48.4008 15.0586 48.092 13.9778 47.3098 13.1956C47.176 13.0618 47.0267 12.9383 46.8775 12.8302L45.4211 12.2589L43.3265 11.4355C42.6215 11.1576 41.9576 10.8128 41.3297 10.4062C41.4532 10.9929 41.3709 11.6465 41.057 12.3619L39.6726 15.532L38.5044 18.2081L38.4581 18.311L37.0685 21.5069C36.3686 23.1074 36.3686 24.9293 37.0634 26.5298L38.4581 29.7256L38.5044 29.8286L39.6726 32.5047L41.057 35.6748C41.3657 36.3902 41.4584 37.0438 41.3297 37.6304C41.9576 37.229 42.6266 36.8842 43.3316 36.6063Z" fill="white"/>
<path d="M11.8562 42.8583L12.695 44.9889C12.695 44.9889 13.0398 45.9873 13.2096 46.2909C13.2868 46.435 13.467 46.6409 13.6265 46.8004C14.4499 47.6238 15.6078 47.9789 16.6371 47.6495C17.2753 47.4437 17.8825 47.1606 17.8825 47.1606C17.8825 47.1606 17.8877 47.1658 17.8877 47.1606L20.0131 46.2291C20.7079 45.9255 21.4181 45.6991 22.1489 45.5447C23.667 45.2256 25.2315 45.2256 26.7394 45.5447C27.4702 45.6991 28.1855 45.9255 28.8803 46.2291L30.8719 47.0989C30.8719 47.0989 31.9938 47.6444 32.3901 47.7628C33.3782 48.0561 34.4847 47.6187 35.2669 46.8364C35.4007 46.7026 35.6169 46.4144 35.7043 46.2497C35.8845 45.9049 36.2035 44.9426 36.2035 44.9426L37.027 42.848C37.3049 42.1429 37.6497 41.4791 38.0562 40.8512C37.4695 40.9747 36.816 40.8924 36.1006 40.5784L32.9305 39.1941L30.2544 38.0259L30.1514 37.9795L26.9555 36.59C25.355 35.8901 23.5332 35.8901 21.9327 36.5849L18.7368 37.9795L18.6339 38.0259L15.9578 39.1941L12.7876 40.5784C12.0723 40.8872 11.4187 40.9799 10.832 40.8512C11.2334 41.4894 11.5783 42.1532 11.8562 42.8583Z" fill="white"/>
<path d="M5.61457 11.3933L3.48399 12.2321L2.18196 12.7468H2.17167L2.16652 12.7519C1.9864 12.8754 1.82686 13.0092 1.66732 13.1636C0.843907 13.987 0.545419 15.1398 0.771858 16.1948C0.766712 16.2 0.771858 16.2 0.771858 16.2L0.777005 16.2051L1.30708 17.4196C1.30708 17.4196 1.30193 17.4248 1.30708 17.4248L2.23857 19.5502C2.5422 20.245 2.76864 20.9552 2.92303 21.686C3.24211 23.2041 3.24211 24.7686 2.92303 26.2765C2.76864 27.0073 2.5422 27.7226 2.23857 28.4174L1.36884 30.409L0.704956 31.9272C0.535126 32.941 0.849054 34.0218 1.6313 34.804C1.7651 34.9378 1.91435 35.0613 2.06359 35.1694L3.52001 35.7406L5.61457 36.5641C6.31962 36.842 6.9835 37.1868 7.61136 37.5933C7.48785 37.0067 7.57019 36.3531 7.88412 35.6377L9.26848 32.4676L10.4367 29.7915L10.483 29.6885L11.8725 26.4927C12.5724 24.8921 12.5724 23.0703 11.8777 21.4698L10.483 18.2739L10.4367 18.171L9.26848 15.4949L7.88412 12.3248C7.57533 11.6094 7.4827 10.9558 7.61136 10.3691C6.9835 10.7706 6.31448 11.1154 5.61457 11.3933Z" fill="white"/>
<path d="M20.0407 1.5542L17.9255 0.627854C17.9255 0.627854 16.9683 0.159537 16.6287 0.0617562C16.4691 0.0205854 16.1912 0 15.9699 0C14.7914 0 13.7158 0.576391 13.2166 1.5439C12.9078 2.14603 12.6763 2.77903 12.6763 2.77903C12.6763 2.77903 12.6711 2.77903 12.6711 2.78417L11.8168 4.96108C11.5389 5.67127 11.1941 6.3403 10.7824 6.9733C9.92811 8.28562 8.81135 9.40238 7.50933 10.2464C6.88147 10.6581 6.20215 11.008 5.49196 11.2859L3.44886 12.0888C3.44886 12.0888 2.26005 12.5005 1.88951 12.696C0.97861 13.1901 0.5 14.2914 0.5 15.4082C0.5 15.5986 0.551463 15.9588 0.608073 16.1338C0.726439 16.5095 1.17932 17.4204 1.17932 17.4204L2.09022 19.4995C2.33725 20.0656 2.53281 20.6471 2.68205 21.239C2.72322 21.3985 2.91878 21.4551 3.032 21.3316C3.35622 20.9765 3.80396 20.6832 4.37005 20.4619L7.6174 19.1856L10.3604 18.11L10.4685 18.0688L13.7364 16.7771C15.3781 16.1338 16.675 14.8318 17.3183 13.2004L18.6049 9.9273L18.646 9.81923L19.7216 7.07623L20.9979 3.82888C21.2243 3.26278 21.5125 2.81505 21.8728 2.49083C21.9963 2.37761 21.9397 2.18205 21.7801 2.14088C21.1883 1.99678 20.6068 1.80122 20.0407 1.5542Z" fill="#C1C1C1"/>
<path d="M46.9394 19.5407L47.8658 17.4255L48.4319 16.1287L48.437 16.1235V16.1184C48.4782 15.9074 48.4988 15.6912 48.4988 15.4699C48.4988 14.2914 47.8915 13.2621 46.9755 12.6652C46.9755 12.66 46.9703 12.66 46.9703 12.66H46.9652L45.7198 12.1711C45.7198 12.1711 45.7198 12.166 45.7146 12.166L43.5377 11.3117C42.8275 11.0338 42.1585 10.689 41.5255 10.2773C40.2132 9.42297 39.0964 8.30621 38.2524 7.00418C37.8407 6.37633 37.4907 5.69701 37.2128 4.98681L36.41 2.94371L35.813 1.41525C35.8079 1.39466 35.7976 1.37922 35.7822 1.35864C35.1697 0.53522 34.1868 0 33.0855 0C32.8951 0 32.6995 0.015439 32.5194 0.0514635L31.0681 0.679318L28.989 1.59022C28.4229 1.83725 27.8413 2.03281 27.2495 2.18205C27.09 2.22322 27.0334 2.41878 27.1569 2.532C27.512 2.85622 27.8053 3.30396 28.0266 3.87005L29.3029 7.1174L30.3785 9.8604L30.4197 9.96848L31.7114 13.2364C32.3547 14.8781 33.6567 16.175 35.2933 16.8183L38.5663 18.1049L38.6744 18.146L41.4174 19.2216L44.6648 20.4979C45.2309 20.7243 45.6786 21.0125 46.0028 21.3728C46.116 21.4963 46.3116 21.4397 46.3528 21.2802C46.4969 20.6883 46.6924 20.1068 46.9394 19.5407Z" fill="#C1C1C1"/>
<path d="M28.9487 46.4448L31.0638 47.3711C31.0638 47.3711 32.021 47.8394 32.3607 47.9372C32.5202 47.9835 32.7981 48.0041 33.0194 48.0041C34.198 48.0041 35.2735 47.4277 35.7727 46.4602C36.0815 45.8581 36.3131 45.2251 36.3131 45.2251C36.3131 45.2251 36.3182 45.2251 36.3182 45.2199L37.1725 43.043C37.4504 42.3328 37.7952 41.6638 38.207 41.0308C39.0613 39.7185 40.178 38.6017 41.48 37.7577C42.1079 37.346 42.7872 36.9961 43.4974 36.7182L45.5405 35.9153C45.5405 35.9153 46.7293 35.5036 47.0999 35.3081C48.0108 34.814 48.4894 33.7127 48.4894 32.596C48.4894 32.4055 48.4379 32.0453 48.3813 31.8703C48.2629 31.4946 47.81 30.5837 47.81 30.5837L46.8991 28.5046C46.6521 27.9385 46.4566 27.357 46.3073 26.7651C46.2661 26.6056 46.0706 26.549 45.9574 26.6725C45.6331 27.0276 45.1854 27.3209 44.6193 27.5422L41.372 28.8185L38.629 29.8941L38.5209 29.9353L35.253 31.227C33.6113 31.8703 32.3144 33.1723 31.6711 34.8037L30.3845 38.0768L30.3485 38.1746L29.2729 40.9176L27.9966 44.1649C27.7702 44.731 27.482 45.1788 27.1217 45.503C26.9982 45.6162 27.0548 45.8118 27.2144 45.8529C27.8062 46.0022 28.3877 46.1977 28.9487 46.4448Z" fill="#C1C1C1"/>
<path d="M2.0542 28.4584L1.12785 30.5736L0.561756 31.8705L0.55661 31.8756V31.8808C0.520585 32.0918 0.5 32.3079 0.5 32.5292C0.5 33.7077 1.10727 34.737 2.02332 35.334C2.02332 35.3391 2.02847 35.3391 2.02847 35.3391H2.03361L3.27903 35.828C3.27903 35.828 3.27903 35.8332 3.28417 35.8332L5.46108 36.6875C6.17127 36.9654 6.8403 37.3102 7.4733 37.7219C8.78562 38.5762 9.90238 39.6929 10.7464 40.995C11.1581 41.6228 11.508 42.3021 11.7859 43.0123L12.5888 45.0554L13.1857 46.5839C13.1909 46.6045 13.2012 46.6199 13.2166 46.6405C13.8239 47.4691 14.8017 48.0043 15.9082 48.0043C16.0986 48.0043 16.2941 47.9888 16.4743 47.9528L17.9204 47.325L19.9995 46.4141C20.5656 46.167 21.1471 45.9715 21.739 45.8222C21.8985 45.7811 21.9551 45.5855 21.8316 45.4723C21.4765 45.1481 21.1832 44.7003 20.9619 44.1342L19.6856 40.8869L18.61 38.1439L18.5688 38.0358L17.2771 34.7679C16.6338 33.1262 15.3318 31.8293 13.7004 31.186L10.4273 29.8994L10.3192 29.8583L7.57623 28.7827L4.32888 27.5064C3.76278 27.2799 3.31505 26.9917 2.99083 26.6315C2.87761 26.508 2.68205 26.5646 2.64088 26.7241C2.49678 27.316 2.30122 27.8923 2.0542 28.4584Z" fill="#C1C1C1"/>
</g>
<path d="M72.901 35.4861C72.2439 35.4861 71.7394 35.2984 71.3874 34.9229C71.0354 34.5475 70.8594 34.0312 70.8594 33.3741V12.2189C70.8594 11.5384 71.0471 11.0221 71.4226 10.6701C71.798 10.2947 72.3143 10.1069 72.9714 10.1069C73.558 10.1069 74.0156 10.2243 74.3442 10.4589C74.6962 10.6701 75.013 11.0456 75.2946 11.5853L83.989 27.6717H82.8626L91.557 11.5853C91.8386 11.0456 92.1436 10.6701 92.4722 10.4589C92.8007 10.2243 93.2583 10.1069 93.845 10.1069C94.5021 10.1069 95.0066 10.2947 95.3586 10.6701C95.7106 11.0221 95.8866 11.5384 95.8866 12.2189V33.3741C95.8866 34.0312 95.7106 34.5475 95.3586 34.9229C95.0301 35.2984 94.5255 35.4861 93.845 35.4861C93.1879 35.4861 92.6834 35.2984 92.3314 34.9229C91.9794 34.5475 91.8034 34.0312 91.8034 33.3741V17.0765H92.5778L85.1858 30.5581C84.9511 30.9571 84.7047 31.2504 84.4466 31.4381C84.1884 31.6259 83.8364 31.7197 83.3906 31.7197C82.9447 31.7197 82.581 31.6259 82.2994 31.4381C82.0178 31.2269 81.7714 30.9336 81.5602 30.5581L74.0978 17.0413H74.9426V33.3741C74.9426 34.0312 74.7666 34.5475 74.4146 34.9229C74.086 35.2984 73.5815 35.4861 72.901 35.4861Z" fill="white"/>
<path d="M109.409 35.5565C107.461 35.5565 105.784 35.1928 104.376 34.4653C102.968 33.7379 101.876 32.7053 101.102 31.3677C100.351 30.0301 99.9756 28.4461 99.9756 26.6157C99.9756 24.8323 100.339 23.2717 101.067 21.9341C101.818 20.5965 102.838 19.5523 104.129 18.8013C105.443 18.0269 106.933 17.6397 108.6 17.6397C109.82 17.6397 110.911 17.8392 111.873 18.2381C112.859 18.6371 113.692 19.212 114.372 19.9629C115.076 20.7139 115.604 21.6291 115.956 22.7085C116.332 23.7645 116.52 24.9613 116.52 26.2989C116.52 26.7213 116.367 27.0499 116.062 27.2845C115.78 27.4957 115.37 27.6013 114.83 27.6013H103.531V25.0669H113.422L112.859 25.5949C112.859 24.5155 112.694 23.612 112.366 22.8845C112.061 22.1571 111.603 21.6056 110.993 21.2301C110.406 20.8312 109.667 20.6317 108.776 20.6317C107.79 20.6317 106.945 20.8664 106.241 21.3357C105.561 21.7816 105.033 22.4269 104.657 23.2717C104.305 24.0931 104.129 25.0787 104.129 26.2285V26.4749C104.129 28.3992 104.575 29.8424 105.467 30.8045C106.382 31.7432 107.72 32.2125 109.48 32.2125C110.09 32.2125 110.77 32.1421 111.521 32.0013C112.296 31.8371 113.023 31.5672 113.704 31.1917C114.196 30.9101 114.63 30.7928 115.006 30.8397C115.381 30.8632 115.675 30.9923 115.886 31.2269C116.121 31.4616 116.261 31.7549 116.308 32.1069C116.355 32.4355 116.285 32.7757 116.097 33.1277C115.933 33.4797 115.64 33.7848 115.217 34.0429C114.396 34.5592 113.445 34.9464 112.366 35.2045C111.31 35.4392 110.324 35.5565 109.409 35.5565Z" fill="white"/>
<path d="M128.03 41.8925C126.762 41.8925 125.53 41.7752 124.334 41.5405C123.16 41.3059 122.093 40.9421 121.13 40.4493C120.685 40.2147 120.38 39.9331 120.215 39.6045C120.074 39.276 120.028 38.9357 120.074 38.5837C120.145 38.2552 120.286 37.9619 120.497 37.7037C120.732 37.4456 121.013 37.2696 121.342 37.1757C121.67 37.0819 122.01 37.1288 122.362 37.3165C123.395 37.8328 124.369 38.1613 125.284 38.3021C126.223 38.4664 127.021 38.5485 127.678 38.5485C129.25 38.5485 130.423 38.1613 131.198 37.3869C131.996 36.636 132.394 35.5096 132.394 34.0077V30.8397H132.711C132.359 32.0365 131.62 32.9987 130.494 33.7261C129.391 34.4301 128.135 34.7821 126.727 34.7821C125.178 34.7821 123.829 34.4301 122.679 33.7261C121.529 32.9987 120.638 31.9896 120.004 30.6989C119.37 29.4083 119.054 27.9064 119.054 26.1933C119.054 24.9027 119.23 23.7411 119.582 22.7085C119.957 21.6525 120.473 20.7491 121.13 19.9981C121.811 19.2472 122.621 18.6723 123.559 18.2733C124.521 17.8509 125.577 17.6397 126.727 17.6397C128.182 17.6397 129.449 18.0035 130.529 18.7309C131.632 19.4349 132.348 20.3736 132.676 21.5469L132.324 22.4269V19.9277C132.324 19.2003 132.512 18.6488 132.887 18.2733C133.286 17.8979 133.826 17.7101 134.506 17.7101C135.21 17.7101 135.75 17.8979 136.126 18.2733C136.501 18.6488 136.689 19.2003 136.689 19.9277V33.4797C136.689 36.2723 135.95 38.3725 134.471 39.7805C132.993 41.1885 130.846 41.8925 128.03 41.8925ZM127.924 31.4381C128.839 31.4381 129.625 31.2269 130.282 30.8045C130.94 30.3821 131.444 29.7837 131.796 29.0093C132.172 28.2115 132.359 27.2728 132.359 26.1933C132.359 24.5741 131.96 23.3069 131.162 22.3917C130.365 21.4531 129.285 20.9837 127.924 20.9837C127.009 20.9837 126.223 21.1949 125.566 21.6173C124.909 22.0397 124.392 22.6381 124.017 23.4125C123.665 24.1869 123.489 25.1139 123.489 26.1933C123.489 27.8125 123.888 29.0915 124.686 30.0301C125.484 30.9688 126.563 31.4381 127.924 31.4381Z" fill="white"/>
<path d="M146.915 35.5565C145.671 35.5565 144.557 35.3219 143.571 34.8525C142.609 34.3597 141.846 33.7027 141.283 32.8813C140.743 32.06 140.473 31.1331 140.473 30.1005C140.473 28.8333 140.802 27.836 141.459 27.1085C142.116 26.3576 143.184 25.8179 144.662 25.4893C146.141 25.1608 148.124 24.9965 150.611 24.9965H152.371V27.5309H150.646C149.191 27.5309 148.03 27.6013 147.161 27.7421C146.293 27.8829 145.671 28.1293 145.296 28.4813C144.944 28.8099 144.768 29.2792 144.768 29.8893C144.768 30.6637 145.038 31.2973 145.577 31.7901C146.117 32.2829 146.868 32.5293 147.83 32.5293C148.605 32.5293 149.285 32.3533 149.872 32.0013C150.482 31.6259 150.963 31.1213 151.315 30.4877C151.667 29.8541 151.843 29.1267 151.843 28.3053V24.2573C151.843 23.084 151.585 22.2392 151.069 21.7229C150.552 21.2067 149.684 20.9485 148.464 20.9485C147.783 20.9485 147.044 21.0307 146.246 21.1949C145.472 21.3592 144.651 21.6408 143.782 22.0397C143.336 22.2509 142.937 22.3096 142.585 22.2157C142.257 22.1219 141.999 21.9341 141.811 21.6525C141.623 21.3475 141.529 21.0189 141.529 20.6669C141.529 20.3149 141.623 19.9747 141.811 19.6461C141.999 19.2941 142.316 19.036 142.761 18.8717C143.841 18.4259 144.873 18.1091 145.859 17.9213C146.868 17.7336 147.783 17.6397 148.605 17.6397C150.294 17.6397 151.679 17.8979 152.758 18.4141C153.861 18.9304 154.683 19.7165 155.222 20.7725C155.762 21.8051 156.032 23.1427 156.032 24.7853V33.2333C156.032 33.9608 155.856 34.524 155.504 34.9229C155.152 35.2984 154.647 35.4861 153.99 35.4861C153.333 35.4861 152.817 35.2984 152.441 34.9229C152.089 34.524 151.913 33.9608 151.913 33.2333V31.5437H152.195C152.031 32.3651 151.702 33.0808 151.209 33.6909C150.74 34.2776 150.142 34.7352 149.414 35.0637C148.687 35.3923 147.854 35.5565 146.915 35.5565Z" fill="white"/>
<path d="M161.167 35.4861C160.603 35.4861 160.146 35.3571 159.794 35.0989C159.465 34.8408 159.266 34.5005 159.195 34.0781C159.125 33.6323 159.207 33.1395 159.442 32.5997L168.735 12.0077C169.04 11.3272 169.403 10.8461 169.826 10.5645C170.272 10.2595 170.776 10.1069 171.339 10.1069C171.879 10.1069 172.36 10.2595 172.783 10.5645C173.229 10.8461 173.604 11.3272 173.909 12.0077L183.237 32.5997C183.495 33.1395 183.589 33.6323 183.519 34.0781C183.448 34.524 183.249 34.876 182.92 35.1341C182.592 35.3688 182.158 35.4861 181.618 35.4861C180.961 35.4861 180.445 35.3336 180.069 35.0285C179.717 34.7 179.4 34.2072 179.119 33.5501L176.831 28.2349L178.731 29.4669H163.877L165.778 28.2349L163.525 33.5501C163.22 34.2307 162.903 34.7235 162.575 35.0285C162.246 35.3336 161.777 35.4861 161.167 35.4861ZM171.269 15.2813L166.341 27.0029L165.426 25.8765H177.183L176.303 27.0029L171.339 15.2813H171.269Z" fill="white"/>
<path d="M189.367 35.4861C188.639 35.4861 188.076 35.2867 187.677 34.8877C187.302 34.4653 187.114 33.8904 187.114 33.1629V12.6765C187.114 11.9256 187.313 11.3624 187.712 10.9869C188.111 10.588 188.675 10.3885 189.402 10.3885H197.885C200.607 10.3885 202.708 11.0456 204.186 12.3597C205.664 13.6504 206.404 15.4691 206.404 17.8157C206.404 19.3411 206.063 20.6552 205.383 21.7581C204.726 22.8611 203.764 23.7059 202.496 24.2925C201.229 24.8792 199.692 25.1725 197.885 25.1725L198.202 24.6445H199.364C200.326 24.6445 201.159 24.8792 201.863 25.3485C202.59 25.8179 203.224 26.5571 203.764 27.5661L206.404 32.4589C206.685 32.9517 206.814 33.4328 206.791 33.9021C206.767 34.3715 206.591 34.7587 206.263 35.0637C205.934 35.3453 205.453 35.4861 204.82 35.4861C204.186 35.4861 203.67 35.3571 203.271 35.0989C202.872 34.8173 202.52 34.3949 202.215 33.8317L198.66 27.2845C198.237 26.4867 197.733 25.9587 197.146 25.7005C196.583 25.4189 195.855 25.2781 194.964 25.2781H191.62V33.1629C191.62 33.8904 191.432 34.4653 191.056 34.8877C190.681 35.2867 190.118 35.4861 189.367 35.4861ZM191.62 21.9341H197.111C198.73 21.9341 199.95 21.6056 200.772 20.9485C201.616 20.268 202.039 19.2589 202.039 17.9213C202.039 16.6072 201.616 15.6216 200.772 14.9645C199.95 14.284 198.73 13.9437 197.111 13.9437H191.62V21.9341Z" fill="white"/>
<path d="M218.795 35.4861C218.067 35.4861 217.504 35.2867 217.105 34.8877C216.729 34.4653 216.542 33.8904 216.542 33.1629V14.1549L209.678 14.1549C209.068 14.1549 208.587 13.9907 208.235 13.6621C207.906 13.3101 207.742 12.8408 207.742 12.2541C207.742 11.644 207.906 11.1864 208.235 10.8813C208.587 10.5528 209.068 10.3885 209.678 10.3885H227.911C228.522 10.3885 228.991 10.5528 229.319 10.8813C229.671 11.1864 229.847 11.644 229.847 12.2541C229.847 12.8408 229.671 13.3101 229.319 13.6621C228.991 13.9907 228.522 14.1549 227.911 14.1549H221.047V33.1629C221.047 33.8904 220.86 34.4653 220.484 34.8877C220.109 35.2867 219.546 35.4861 218.795 35.4861Z" fill="white"/>
<defs>
<clipPath id="clip0_205_600">
<rect width="47.9949" height="48" fill="white" transform="translate(0.5)"/>
</clipPath>
</defs>
</svg>
