<svg width="151" height="48" viewBox="0 0 151 48" fill="none" xmlns="http://www.w3.org/2000/svg">
<g clip-path="url(#clip0_205_616)">
<path d="M30.6261 30.5383C29.2514 33.5886 26.9533 36.1304 24.0846 37.8008C21.7243 39.1807 18.9853 39.964 16.0544 39.964C13.7252 39.964 11.5101 39.466 9.51292 38.5634C4.0816 36.1304 0.268781 30.751 0.0872188 24.4637C0.0820313 24.3081 0.0820313 24.1577 0.0820313 24.0021C0.0820313 23.8464 0.0820313 23.6908 0.0872188 23.5404C0.263594 17.2531 4.0816 11.8737 9.50773 9.43555C8.61029 11.4327 8.11229 13.6426 8.11229 15.9718C8.11229 18.8976 8.90079 21.6417 10.2755 24.0021C11.9459 26.8708 14.4877 29.1688 17.538 30.5383C19.5352 31.4358 21.7451 31.9338 24.0794 31.9338C26.4138 31.9338 28.6289 31.4358 30.6261 30.5383Z" fill="#C1C1C1"/>
<path d="M48.0805 24.0036C48.0805 24.1592 48.0805 24.3148 48.0754 24.4653C47.899 30.7525 44.081 36.132 38.66 38.5701C39.5575 36.5729 40.0555 34.3579 40.0555 32.0287C40.0555 29.1029 39.267 26.3587 37.8923 23.9984C36.2219 21.1297 33.68 18.8265 30.6298 17.457C28.6326 16.5595 26.4227 16.0615 24.0883 16.0615C21.7539 16.0615 19.5441 16.5595 17.5469 17.457C18.9164 14.4067 21.2196 11.87 24.0831 10.1944C26.4434 8.81456 29.1825 8.03125 32.1134 8.03125C34.4478 8.03125 36.6628 8.52925 38.66 9.43188C44.081 11.87 47.899 17.2494 48.0754 23.5367C48.0754 23.6923 48.0805 23.848 48.0805 24.0036Z" fill="#C1C1C1"/>
<path d="M38.6573 9.43089C36.6601 8.53345 34.4451 8.03026 32.1107 8.03026C29.1849 8.03026 26.4407 8.81876 24.0804 10.1934C21.2117 11.8638 18.9137 14.4057 17.5442 17.456C16.6467 19.4532 16.1435 21.6682 16.1435 23.9974C16.1435 26.3266 16.6415 28.5417 17.539 30.5337C14.4887 29.1642 11.952 26.8609 10.2765 23.9974C8.89659 21.6371 8.11328 18.8981 8.11328 15.9671C8.11328 13.638 8.61128 11.4229 9.50872 9.43089C11.9468 4.00476 17.3315 0.18675 23.6187 0.00518751C23.7744 0 23.93 0 24.0856 0C24.2412 0 24.3969 0 24.5473 0.00518751C30.8397 0.18675 36.2192 4.00476 38.6573 9.43089Z" fill="white"/>
<path d="M40.0506 32.0281C40.0506 34.3573 39.5526 36.5724 38.6551 38.5696C36.217 43.9957 30.8324 47.8137 24.5451 47.9901C24.3895 47.9953 24.2339 47.9953 24.0834 47.9953C23.9278 47.9953 23.7722 47.9953 23.6217 47.9901C17.3345 47.8137 11.9498 43.9957 9.51172 38.5696C11.5089 39.467 13.7188 39.9702 16.0532 39.9702C18.9789 39.9702 21.7231 39.1817 24.0834 37.807C26.9521 36.1366 29.2554 33.5948 30.6249 30.5445C31.5223 28.5473 32.0203 26.3374 32.0203 24.0082C32.0203 21.6791 31.5223 19.4588 30.6249 17.4668C33.6751 18.8363 36.217 21.1396 37.8874 24.0082C39.2621 26.3582 40.0506 29.1024 40.0506 32.0281Z" fill="white"/>
</g>
<path d="M69.3263 37.0844C68.6692 37.0844 68.1647 36.8966 67.8127 36.5212C67.4607 36.1457 67.2847 35.6294 67.2847 34.9724V13.8172C67.2847 13.1366 67.4724 12.6204 67.8479 12.2684C68.2233 11.8929 68.7396 11.7052 69.3967 11.7052C69.9833 11.7052 70.4409 11.8225 70.7695 12.0572C71.1215 12.2684 71.4383 12.6439 71.7199 13.1836L80.4143 29.27H79.2879L87.9823 13.1836C88.2639 12.6439 88.5689 12.2684 88.8975 12.0572C89.226 11.8225 89.6836 11.7052 90.2703 11.7052C90.9273 11.7052 91.4319 11.8929 91.7839 12.2684C92.1359 12.6204 92.3119 13.1366 92.3119 13.8172V34.9724C92.3119 35.6294 92.1359 36.1457 91.7839 36.5212C91.4553 36.8966 90.9508 37.0844 90.2703 37.0844C89.6132 37.0844 89.1087 36.8966 88.7567 36.5212C88.4047 36.1457 88.2287 35.6294 88.2287 34.9724V18.6748H89.0031L81.6111 32.1564C81.3764 32.5553 81.13 32.8486 80.8719 33.0364C80.6137 33.2241 80.2617 33.318 79.8159 33.318C79.37 33.318 79.0063 33.2241 78.7247 33.0364C78.4431 32.8252 78.1967 32.5318 77.9855 32.1564L70.5231 18.6396H71.3679V34.9724C71.3679 35.6294 71.1919 36.1457 70.8399 36.5212C70.5113 36.8966 70.0068 37.0844 69.3263 37.0844Z" fill="white"/>
<path d="M99.5336 37.0492C98.8296 37.0492 98.2899 36.838 97.9144 36.4156C97.539 35.9932 97.3512 35.4065 97.3512 34.6556V21.7372C97.3512 20.9628 97.539 20.3761 97.9144 19.9772C98.2899 19.5548 98.8296 19.3436 99.5336 19.3436C100.238 19.3436 100.777 19.5548 101.153 19.9772C101.552 20.3761 101.751 20.9628 101.751 21.7372V34.6556C101.751 35.4065 101.564 35.9932 101.188 36.4156C100.813 36.838 100.261 37.0492 99.5336 37.0492ZM99.5336 16.07C98.7123 16.07 98.067 15.8705 97.5976 15.4716C97.1518 15.0492 96.9288 14.4743 96.9288 13.7468C96.9288 12.9958 97.1518 12.4209 97.5976 12.022C98.067 11.6231 98.7123 11.4236 99.5336 11.4236C100.378 11.4236 101.024 11.6231 101.47 12.022C101.916 12.4209 102.138 12.9958 102.138 13.7468C102.138 14.4743 101.916 15.0492 101.47 15.4716C101.024 15.8705 100.378 16.07 99.5336 16.07Z" fill="white"/>
<path d="M111.99 37.1548C110.747 37.1548 109.632 36.9201 108.646 36.4508C107.684 35.958 106.922 35.3009 106.358 34.4796C105.819 33.6582 105.549 32.7313 105.549 31.6988C105.549 30.4316 105.877 29.4342 106.534 28.7068C107.191 27.9558 108.259 27.4161 109.738 27.0876C111.216 26.759 113.199 26.5948 115.686 26.5948H117.446V29.1292H115.722C114.267 29.1292 113.105 29.1996 112.237 29.3404C111.368 29.4812 110.747 29.7276 110.371 30.0796C110.019 30.4081 109.843 30.8774 109.843 31.4876C109.843 32.262 110.113 32.8956 110.653 33.3884C111.192 33.8812 111.943 34.1276 112.906 34.1276C113.68 34.1276 114.36 33.9516 114.947 33.5996C115.557 33.2241 116.038 32.7196 116.39 32.086C116.742 31.4524 116.918 30.7249 116.918 29.9036V25.8556C116.918 24.6822 116.66 23.8374 116.144 23.3212C115.628 22.8049 114.759 22.5468 113.539 22.5468C112.859 22.5468 112.119 22.6289 111.322 22.7932C110.547 22.9574 109.726 23.239 108.858 23.638C108.412 23.8492 108.013 23.9078 107.661 23.814C107.332 23.7201 107.074 23.5324 106.886 23.2508C106.699 22.9457 106.605 22.6172 106.605 22.2652C106.605 21.9132 106.699 21.5729 106.886 21.2444C107.074 20.8924 107.391 20.6342 107.837 20.47C108.916 20.0241 109.949 19.7073 110.934 19.5196C111.943 19.3318 112.859 19.238 113.68 19.238C115.37 19.238 116.754 19.4961 117.834 20.0124C118.936 20.5286 119.758 21.3148 120.298 22.3708C120.837 23.4033 121.107 24.7409 121.107 26.3836V34.8316C121.107 35.559 120.931 36.1222 120.579 36.5212C120.227 36.8966 119.723 37.0844 119.066 37.0844C118.408 37.0844 117.892 36.8966 117.517 36.5212C117.165 36.1222 116.989 35.559 116.989 34.8316V33.142H117.27C117.106 33.9633 116.778 34.679 116.285 35.2892C115.815 35.8758 115.217 36.3334 114.49 36.662C113.762 36.9905 112.929 37.1548 111.99 37.1548Z" fill="white"/>
<path d="M127.756 37.0844C127.052 37.0844 126.512 36.8966 126.136 36.5212C125.761 36.1222 125.573 35.559 125.573 34.8316V21.526C125.573 20.7985 125.761 20.247 126.136 19.8716C126.512 19.4961 127.04 19.3084 127.72 19.3084C128.401 19.3084 128.929 19.4961 129.304 19.8716C129.68 20.247 129.868 20.7985 129.868 21.526V23.9196L129.48 23.0396C129.997 21.7958 130.794 20.8572 131.874 20.2236C132.977 19.5665 134.221 19.238 135.605 19.238C136.99 19.238 138.128 19.4961 139.02 20.0124C139.911 20.5286 140.58 21.3148 141.026 22.3708C141.472 23.4033 141.695 24.7174 141.695 26.3132V34.8316C141.695 35.559 141.507 36.1222 141.132 36.5212C140.756 36.8966 140.216 37.0844 139.512 37.0844C138.808 37.0844 138.257 36.8966 137.858 36.5212C137.482 36.1222 137.295 35.559 137.295 34.8316V26.5244C137.295 25.1868 137.037 24.2129 136.52 23.6028C136.028 22.9926 135.253 22.6876 134.197 22.6876C132.906 22.6876 131.874 23.0982 131.1 23.9196C130.349 24.7174 129.973 25.7852 129.973 27.1228V34.8316C129.973 36.3334 129.234 37.0844 127.756 37.0844Z" fill="white"/>
<path d="M148.276 36.9788C147.478 36.9788 146.833 36.7324 146.34 36.2396C145.87 35.7468 145.636 35.1132 145.636 34.3388C145.636 33.5878 145.87 32.9777 146.34 32.5084C146.833 32.0156 147.478 31.7692 148.276 31.7692C149.097 31.7692 149.731 32.0156 150.177 32.5084C150.646 32.9777 150.881 33.5878 150.881 34.3388C150.881 35.1132 150.646 35.7468 150.177 36.2396C149.731 36.7324 149.097 36.9788 148.276 36.9788Z" fill="white"/>
<defs>
<clipPath id="clip0_205_616">
<rect width="48" height="48" fill="white" transform="translate(0.0820312)"/>
</clipPath>
</defs>
</svg>
