<svg width="258" height="48" viewBox="0 0 258 48" fill="none" xmlns="http://www.w3.org/2000/svg">
<g clip-path="url(#clip0_205_624)">
<path d="M30.6588 30.5383C29.2841 33.5886 26.986 36.1304 24.1173 37.8008C21.757 39.1807 19.018 39.964 16.0871 39.964C13.7579 39.964 11.5428 39.466 9.54563 38.5634C4.11431 36.1304 0.301496 30.751 0.119934 24.4637C0.114746 24.3081 0.114746 24.1577 0.114746 24.0021C0.114746 23.8464 0.114746 23.6908 0.119934 23.5404C0.296309 17.2531 4.11431 11.8737 9.54044 9.43555C8.64301 11.4327 8.145 13.6426 8.145 15.9718C8.145 18.8976 8.93351 21.6417 10.3082 24.0021C11.9786 26.8708 14.5204 29.1688 17.5707 30.5383C19.5679 31.4358 21.7778 31.9338 24.1121 31.9338C26.4465 31.9338 28.6616 31.4358 30.6588 30.5383Z" fill="#C1C1C1"/>
<path d="M48.1133 24.0036C48.1133 24.1592 48.1133 24.3148 48.1081 24.4653C47.9317 30.7525 44.1137 36.132 38.6927 38.5701C39.5902 36.5729 40.0882 34.3579 40.0882 32.0287C40.0882 29.1029 39.2997 26.3587 37.925 23.9984C36.2546 21.1297 33.7127 18.8265 30.6625 17.457C28.6653 16.5595 26.4554 16.0615 24.121 16.0615C21.7867 16.0615 19.5768 16.5595 17.5796 17.457C18.9491 14.4067 21.2523 11.87 24.1158 10.1944C26.4762 8.81456 29.2152 8.03125 32.1461 8.03125C34.4805 8.03125 36.6956 8.52925 38.6927 9.43188C44.1137 11.87 47.9317 17.2494 48.1081 23.5367C48.1081 23.6923 48.1133 23.848 48.1133 24.0036Z" fill="#C1C1C1"/>
<path d="M38.69 9.43089C36.6928 8.53345 34.4778 8.03026 32.1434 8.03026C29.2176 8.03026 26.4735 8.81876 24.1131 10.1934C21.2444 11.8638 18.9464 14.4057 17.5769 17.456C16.6794 19.4532 16.1763 21.6682 16.1763 23.9974C16.1763 26.3266 16.6743 28.5417 17.5717 30.5337C14.5214 29.1642 11.9848 26.8609 10.3092 23.9974C8.92931 21.6371 8.146 18.8981 8.146 15.9671C8.146 13.638 8.644 11.4229 9.54144 9.43089C11.9796 4.00476 17.3642 0.18675 23.6514 0.00518751C23.8071 0 23.9627 0 24.1183 0C24.274 0 24.4296 0 24.58 0.00518751C30.8725 0.18675 36.2519 4.00476 38.69 9.43089Z" fill="white"/>
<path d="M40.0833 32.0281C40.0833 34.3573 39.5853 36.5724 38.6879 38.5696C36.2497 43.9957 30.8651 47.8137 24.5778 47.9901C24.4222 47.9953 24.2666 47.9953 24.1161 47.9953C23.9605 47.9953 23.8049 47.9953 23.6545 47.9901C17.3672 47.8137 11.9826 43.9957 9.54443 38.5696C11.5416 39.467 13.7515 39.9702 16.0859 39.9702C19.0116 39.9702 21.7558 39.1817 24.1161 37.807C26.9848 36.1366 29.2881 33.5948 30.6576 30.5445C31.555 28.5473 32.053 26.3374 32.053 24.0082C32.053 21.6791 31.555 19.4588 30.6576 17.4668C33.7078 18.8363 36.2497 21.1396 37.9201 24.0082C39.2948 26.3582 40.0833 29.1024 40.0833 32.0281Z" fill="white"/>
</g>
<path d="M69.359 37.0844C68.7019 37.0844 68.1974 36.8966 67.8454 36.5212C67.4934 36.1457 67.3174 35.6294 67.3174 34.9724V13.8172C67.3174 13.1366 67.5051 12.6204 67.8806 12.2684C68.256 11.8929 68.7723 11.7052 69.4294 11.7052C70.016 11.7052 70.4736 11.8225 70.8022 12.0572C71.1542 12.2684 71.471 12.6439 71.7526 13.1836L80.447 29.27H79.3206L88.015 13.1836C88.2966 12.6439 88.6016 12.2684 88.9302 12.0572C89.2587 11.8225 89.7163 11.7052 90.303 11.7052C90.9601 11.7052 91.4646 11.8929 91.8166 12.2684C92.1686 12.6204 92.3446 13.1366 92.3446 13.8172V34.9724C92.3446 35.6294 92.1686 36.1457 91.8166 36.5212C91.488 36.8966 90.9835 37.0844 90.303 37.0844C89.6459 37.0844 89.1414 36.8966 88.7894 36.5212C88.4374 36.1457 88.2614 35.6294 88.2614 34.9724V18.6748H89.0358L81.6438 32.1564C81.4091 32.5553 81.1627 32.8486 80.9046 33.0364C80.6464 33.2241 80.2944 33.318 79.8486 33.318C79.4027 33.318 79.039 33.2241 78.7574 33.0364C78.4758 32.8252 78.2294 32.5318 78.0182 32.1564L70.5558 18.6396H71.4006V34.9724C71.4006 35.6294 71.2246 36.1457 70.8726 36.5212C70.544 36.8966 70.0395 37.0844 69.359 37.0844Z" fill="white"/>
<path d="M99.5664 37.0492C98.8624 37.0492 98.3226 36.838 97.9472 36.4156C97.5717 35.9932 97.384 35.4065 97.384 34.6556V21.7372C97.384 20.9628 97.5717 20.3761 97.9472 19.9772C98.3226 19.5548 98.8624 19.3436 99.5664 19.3436C100.27 19.3436 100.81 19.5548 101.186 19.9772C101.584 20.3761 101.784 20.9628 101.784 21.7372V34.6556C101.784 35.4065 101.596 35.9932 101.221 36.4156C100.845 36.838 100.294 37.0492 99.5664 37.0492ZM99.5664 16.07C98.745 16.07 98.0997 15.8705 97.6304 15.4716C97.1845 15.0492 96.9616 14.4743 96.9616 13.7468C96.9616 12.9958 97.1845 12.4209 97.6304 12.022C98.0997 11.6231 98.745 11.4236 99.5664 11.4236C100.411 11.4236 101.056 11.6231 101.502 12.022C101.948 12.4209 102.171 12.9958 102.171 13.7468C102.171 14.4743 101.948 15.0492 101.502 15.4716C101.056 15.8705 100.411 16.07 99.5664 16.07Z" fill="white"/>
<path d="M112.023 37.1548C110.779 37.1548 109.665 36.9201 108.679 36.4508C107.717 35.958 106.954 35.3009 106.391 34.4796C105.851 33.6582 105.581 32.7313 105.581 31.6988C105.581 30.4316 105.91 29.4342 106.567 28.7068C107.224 27.9558 108.292 27.4161 109.77 27.0876C111.249 26.759 113.232 26.5948 115.719 26.5948H117.479V29.1292H115.754C114.299 29.1292 113.138 29.1996 112.269 29.3404C111.401 29.4812 110.779 29.7276 110.404 30.0796C110.052 30.4081 109.876 30.8774 109.876 31.4876C109.876 32.262 110.146 32.8956 110.685 33.3884C111.225 33.8812 111.976 34.1276 112.938 34.1276C113.713 34.1276 114.393 33.9516 114.98 33.5996C115.59 33.2241 116.071 32.7196 116.423 32.086C116.775 31.4524 116.951 30.7249 116.951 29.9036V25.8556C116.951 24.6822 116.693 23.8374 116.177 23.3212C115.66 22.8049 114.792 22.5468 113.572 22.5468C112.891 22.5468 112.152 22.6289 111.354 22.7932C110.58 22.9574 109.758 23.239 108.89 23.638C108.444 23.8492 108.045 23.9078 107.693 23.814C107.365 23.7201 107.107 23.5324 106.919 23.2508C106.731 22.9457 106.637 22.6172 106.637 22.2652C106.637 21.9132 106.731 21.5729 106.919 21.2444C107.107 20.8924 107.424 20.6342 107.869 20.47C108.949 20.0241 109.981 19.7073 110.967 19.5196C111.976 19.3319 112.891 19.238 113.713 19.238C115.402 19.238 116.787 19.4961 117.866 20.0124C118.969 20.5286 119.79 21.3148 120.33 22.3708C120.87 23.4033 121.14 24.7409 121.14 26.3836V34.8316C121.14 35.559 120.964 36.1222 120.612 36.5212C120.26 36.8966 119.755 37.0844 119.098 37.0844C118.441 37.0844 117.925 36.8966 117.549 36.5212C117.197 36.1222 117.021 35.559 117.021 34.8316V33.142H117.303C117.139 33.9633 116.81 34.679 116.317 35.2892C115.848 35.8758 115.25 36.3334 114.522 36.662C113.795 36.9905 112.962 37.1548 112.023 37.1548Z" fill="white"/>
<path d="M127.788 37.0844C127.084 37.0844 126.544 36.8966 126.169 36.5212C125.794 36.1222 125.606 35.559 125.606 34.8316V21.526C125.606 20.7985 125.794 20.247 126.169 19.8716C126.544 19.4961 127.072 19.3084 127.753 19.3084C128.434 19.3084 128.962 19.4961 129.337 19.8716C129.712 20.247 129.9 20.7985 129.9 21.526V23.9196L129.513 23.0396C130.029 21.7958 130.827 20.8572 131.907 20.2236C133.01 19.5665 134.253 19.238 135.638 19.238C137.022 19.238 138.16 19.4961 139.052 20.0124C139.944 20.5286 140.613 21.3148 141.059 22.3708C141.504 23.4033 141.727 24.7174 141.727 26.3132V34.8316C141.727 35.559 141.54 36.1222 141.164 36.5212C140.789 36.8966 140.249 37.0844 139.545 37.0844C138.841 37.0844 138.29 36.8966 137.891 36.5212C137.515 36.1222 137.327 35.559 137.327 34.8316V26.5244C137.327 25.1868 137.069 24.2129 136.553 23.6028C136.06 22.9926 135.286 22.6876 134.23 22.6876C132.939 22.6876 131.907 23.0982 131.132 23.9196C130.381 24.7174 130.006 25.7852 130.006 27.1228V34.8316C130.006 36.3334 129.267 37.0844 127.788 37.0844Z" fill="white"/>
<path d="M148.308 36.9788C147.511 36.9788 146.865 36.7324 146.372 36.2396C145.903 35.7468 145.668 35.1132 145.668 34.3388C145.668 33.5878 145.903 32.9777 146.372 32.5084C146.865 32.0156 147.511 31.7692 148.308 31.7692C149.13 31.7692 149.763 32.0156 150.209 32.5084C150.679 32.9777 150.913 33.5878 150.913 34.3388C150.913 35.1132 150.679 35.7468 150.209 36.2396C149.763 36.7324 149.13 36.9788 148.308 36.9788Z" fill="white"/>
<path d="M164.247 37.1548C163.215 37.1548 162.182 37.0726 161.15 36.9084C160.117 36.7676 159.143 36.5446 158.228 36.2396C157.313 35.911 156.492 35.5121 155.764 35.0428C155.342 34.7612 155.049 34.4209 154.884 34.022C154.72 33.623 154.661 33.2358 154.708 32.8604C154.779 32.4614 154.931 32.1212 155.166 31.8396C155.424 31.5345 155.741 31.3468 156.116 31.2764C156.492 31.206 156.902 31.3116 157.348 31.5932C158.381 32.2033 159.472 32.6492 160.622 32.9308C161.772 33.2124 162.98 33.3532 164.247 33.3532C166.101 33.3532 167.451 33.0481 168.295 32.438C169.14 31.8044 169.563 30.9948 169.563 30.0092C169.563 29.1878 169.258 28.5425 168.647 28.0732C168.061 27.6038 167.04 27.2166 165.585 26.9116L161.713 26.102C159.484 25.6326 157.818 24.8465 156.715 23.7436C155.635 22.6172 155.095 21.1388 155.095 19.3084C155.095 18.1585 155.33 17.1143 155.799 16.1756C156.269 15.2369 156.926 14.4273 157.771 13.7468C158.639 13.0663 159.66 12.55 160.833 12.198C162.03 11.8225 163.344 11.6348 164.775 11.6348C166.183 11.6348 167.521 11.8108 168.788 12.1628C170.055 12.5148 171.194 13.031 172.203 13.7116C172.578 13.9697 172.825 14.2865 172.942 14.662C173.083 15.0374 173.118 15.4129 173.047 15.7884C172.977 16.1404 172.813 16.4454 172.555 16.7036C172.297 16.9617 171.968 17.1143 171.569 17.1612C171.194 17.2081 170.759 17.0908 170.267 16.8092C169.398 16.3164 168.518 15.9644 167.627 15.7532C166.735 15.542 165.773 15.4364 164.74 15.4364C163.661 15.4364 162.734 15.5889 161.959 15.894C161.185 16.199 160.587 16.6332 160.164 17.1964C159.765 17.7361 159.566 18.3814 159.566 19.1324C159.566 19.9772 159.847 20.6577 160.411 21.174C160.974 21.6668 161.936 22.054 163.297 22.3356L167.134 23.1452C169.457 23.638 171.182 24.4124 172.308 25.4684C173.458 26.5244 174.033 27.9324 174.033 29.6924C174.033 30.8188 173.798 31.8396 173.329 32.7548C172.883 33.67 172.226 34.4561 171.358 35.1132C170.513 35.7702 169.492 36.2748 168.295 36.6268C167.099 36.9788 165.749 37.1548 164.247 37.1548Z" fill="white"/>
<path d="M185.191 37.1548C183.665 37.1548 182.386 36.8966 181.354 36.3804C180.345 35.8641 179.594 35.1132 179.101 34.1276C178.608 33.1185 178.362 31.8748 178.362 30.3964V22.8988H176.531C175.968 22.8988 175.534 22.758 175.229 22.4764C174.924 22.1713 174.771 21.7606 174.771 21.2444C174.771 20.7046 174.924 20.294 175.229 20.0124C175.534 19.7308 175.968 19.59 176.531 19.59H178.362V16.3868C178.362 15.6593 178.55 15.1079 178.925 14.7324C179.324 14.3569 179.875 14.1692 180.579 14.1692C181.283 14.1692 181.823 14.3569 182.199 14.7324C182.574 15.1079 182.762 15.6593 182.762 16.3868V19.59L186.493 19.59C187.056 19.59 187.49 19.7308 187.795 20.0124C188.1 20.294 188.253 20.7046 188.253 21.2444C188.253 21.7606 188.1 22.1713 187.795 22.4764C187.49 22.758 187.056 22.8988 186.493 22.8988L182.762 22.8988V30.15C182.762 31.2764 183.008 32.1212 183.501 32.6844C183.994 33.2476 184.792 33.5292 185.895 33.5292C186.294 33.5292 186.646 33.494 186.951 33.4236C187.256 33.3532 187.526 33.3062 187.76 33.2828C188.042 33.2593 188.276 33.3532 188.464 33.5644C188.652 33.7521 188.746 34.151 188.746 34.7612C188.746 35.2305 188.664 35.6529 188.499 36.0284C188.359 36.3804 188.089 36.6268 187.69 36.7676C187.385 36.8614 186.986 36.9436 186.493 37.014C186 37.1078 185.566 37.1548 185.191 37.1548Z" fill="white"/>
<path d="M197.046 37.1548C195.614 37.1548 194.429 36.8966 193.49 36.3804C192.552 35.8406 191.848 35.0428 191.378 33.9868C190.933 32.9308 190.71 31.6166 190.71 30.0444V21.526C190.71 20.775 190.897 20.2236 191.273 19.8716C191.648 19.4961 192.188 19.3084 192.892 19.3084C193.596 19.3084 194.136 19.4961 194.511 19.8716C194.91 20.2236 195.11 20.775 195.11 21.526V30.1148C195.11 31.335 195.356 32.2385 195.849 32.8252C196.342 33.4118 197.128 33.7052 198.207 33.7052C199.381 33.7052 200.343 33.3062 201.094 32.5084C201.845 31.687 202.22 30.6076 202.22 29.27V21.526C202.22 20.775 202.408 20.2236 202.783 19.8716C203.159 19.4961 203.698 19.3084 204.402 19.3084C205.106 19.3084 205.646 19.4961 206.022 19.8716C206.421 20.2236 206.62 20.775 206.62 21.526V34.8316C206.62 36.3334 205.904 37.0844 204.473 37.0844C203.792 37.0844 203.264 36.8966 202.889 36.5212C202.513 36.1222 202.326 35.559 202.326 34.8316V32.1564L202.818 33.2124C202.326 34.4796 201.575 35.4534 200.566 36.134C199.58 36.8145 198.407 37.1548 197.046 37.1548Z" fill="white"/>
<path d="M217.817 37.1548C216.315 37.1548 214.989 36.791 213.84 36.0636C212.713 35.3361 211.833 34.3036 211.2 32.966C210.566 31.6049 210.249 30.0092 210.249 28.1788C210.249 26.3249 210.566 24.7409 211.2 23.4268C211.833 22.0892 212.713 21.0567 213.84 20.3292C214.989 19.6017 216.315 19.238 217.817 19.238C219.249 19.238 220.492 19.59 221.548 20.294C222.628 20.998 223.355 21.9249 223.731 23.0748H223.344V13.9228C223.344 13.1953 223.531 12.6438 223.907 12.2684C224.282 11.8929 224.822 11.7052 225.526 11.7052C226.23 11.7052 226.77 11.8929 227.145 12.2684C227.544 12.6438 227.744 13.1953 227.744 13.9228V34.8316C227.744 35.559 227.556 36.1222 227.18 36.5212C226.805 36.8966 226.265 37.0844 225.561 37.0844C224.857 37.0844 224.317 36.8966 223.942 36.5212C223.566 36.1222 223.379 35.559 223.379 34.8316V32.086L223.766 33.142C223.414 34.3622 222.698 35.3361 221.619 36.0636C220.539 36.791 219.272 37.1548 217.817 37.1548ZM219.049 33.8108C219.917 33.8108 220.68 33.5996 221.337 33.1772C221.994 32.7548 222.499 32.1329 222.851 31.3116C223.226 30.4668 223.414 29.4225 223.414 28.1788C223.414 26.3014 223.015 24.9052 222.217 23.99C221.419 23.0513 220.363 22.582 219.049 22.582C218.181 22.582 217.418 22.7932 216.761 23.2156C216.104 23.6145 215.588 24.2364 215.212 25.0812C214.86 25.9025 214.684 26.935 214.684 28.1788C214.684 30.0326 215.083 31.4406 215.881 32.4028C216.679 33.3414 217.735 33.8108 219.049 33.8108Z" fill="white"/>
<path d="M234.488 37.0492C233.784 37.0492 233.244 36.838 232.869 36.4156C232.494 35.9932 232.306 35.4065 232.306 34.6556V21.7372C232.306 20.9628 232.494 20.3761 232.869 19.9772C233.244 19.5548 233.784 19.3436 234.488 19.3436C235.192 19.3436 235.732 19.5548 236.107 19.9772C236.506 20.3761 236.706 20.9628 236.706 21.7372V34.6556C236.706 35.4065 236.518 35.9932 236.143 36.4156C235.767 36.838 235.216 37.0492 234.488 37.0492ZM234.488 16.07C233.667 16.07 233.022 15.8705 232.552 15.4716C232.106 15.0492 231.883 14.4743 231.883 13.7468C231.883 12.9958 232.106 12.4209 232.552 12.022C233.022 11.6231 233.667 11.4236 234.488 11.4236C235.333 11.4236 235.978 11.6231 236.424 12.022C236.87 12.4209 237.093 12.9958 237.093 13.7468C237.093 14.4743 236.87 15.0492 236.424 15.4716C235.978 15.8705 235.333 16.07 234.488 16.07Z" fill="white"/>
<path d="M249.127 37.1548C247.344 37.1548 245.795 36.791 244.481 36.0636C243.167 35.3361 242.146 34.3036 241.419 32.966C240.691 31.6049 240.327 30.0092 240.327 28.1788C240.327 26.7942 240.527 25.5622 240.926 24.4828C241.348 23.3798 241.947 22.4412 242.721 21.6668C243.495 20.8689 244.422 20.2705 245.502 19.8716C246.581 19.4492 247.79 19.238 249.127 19.238C250.911 19.238 252.46 19.6017 253.774 20.3292C255.088 21.0567 256.109 22.0892 256.836 23.4268C257.564 24.7644 257.927 26.3484 257.927 28.1788C257.927 29.5633 257.716 30.807 257.294 31.91C256.895 33.0129 256.308 33.9633 255.534 34.7612C254.759 35.5356 253.832 36.134 252.753 36.5564C251.673 36.9553 250.465 37.1548 249.127 37.1548ZM249.127 33.8108C249.996 33.8108 250.758 33.5996 251.415 33.1772C252.072 32.7548 252.577 32.1329 252.929 31.3116C253.304 30.4668 253.492 29.4225 253.492 28.1788C253.492 26.3014 253.093 24.9052 252.295 23.99C251.497 23.0513 250.441 22.582 249.127 22.582C248.259 22.582 247.496 22.7932 246.839 23.2156C246.182 23.6145 245.666 24.2364 245.29 25.0812C244.938 25.9025 244.762 26.935 244.762 28.1788C244.762 30.0326 245.161 31.4406 245.959 32.4028C246.757 33.3414 247.813 33.8108 249.127 33.8108Z" fill="white"/>
<defs>
<clipPath id="clip0_205_624">
<rect width="48" height="48" fill="white" transform="translate(0.114746)"/>
</clipPath>
</defs>
</svg>
