<svg width="12" height="13" viewBox="0 0 12 13" fill="none" xmlns="http://www.w3.org/2000/svg">
<path d="M6.793 1.91406C7.0582 1.91412 7.31251 2.01951 7.5 2.20706L9.707 4.41406C9.89455 4.60156 9.99994 4.85587 10 5.12106V10.9141C10 11.1793 9.89464 11.4336 9.70711 11.6212C9.51957 11.8087 9.26522 11.9141 9 11.9141H3C2.73478 11.9141 2.48043 11.8087 2.29289 11.6212C2.10536 11.4336 2 11.1793 2 10.9141V2.91406C2 2.64885 2.10536 2.39449 2.29289 2.20696C2.48043 2.01942 2.73478 1.91406 3 1.91406H6.793ZM6 2.91406H3V10.9141H9V5.91406H6.75C6.55109 5.91406 6.36032 5.83505 6.21967 5.69439C6.07902 5.55374 6 5.36298 6 5.16406V2.91406ZM4.5 7.91406C4.63261 7.91406 4.75979 7.96674 4.85355 8.06051C4.94732 8.15428 5 8.28146 5 8.41406C5 8.54667 4.94732 8.67385 4.85355 8.76762C4.75979 8.86138 4.63261 8.91406 4.5 8.91406C4.36739 8.91406 4.24021 8.86138 4.14645 8.76762C4.05268 8.67385 4 8.54667 4 8.41406C4 8.28146 4.05268 8.15428 4.14645 8.06051C4.24021 7.96674 4.36739 7.91406 4.5 7.91406ZM6 7.91406C6.13261 7.91406 6.25979 7.96674 6.35355 8.06051C6.44732 8.15428 6.5 8.28146 6.5 8.41406C6.5 8.54667 6.44732 8.67385 6.35355 8.76762C6.25979 8.86138 6.13261 8.91406 6 8.91406C5.86739 8.91406 5.74021 8.86138 5.64645 8.76762C5.55268 8.67385 5.5 8.54667 5.5 8.41406C5.5 8.28146 5.55268 8.15428 5.64645 8.06051C5.74021 7.96674 5.86739 7.91406 6 7.91406ZM7.5 7.91406C7.63261 7.91406 7.75979 7.96674 7.85355 8.06051C7.94732 8.15428 8 8.28146 8 8.41406C8 8.54667 7.94732 8.67385 7.85355 8.76762C7.75979 8.86138 7.63261 8.91406 7.5 8.91406C7.36739 8.91406 7.24021 8.86138 7.14645 8.76762C7.05268 8.67385 7 8.54667 7 8.41406C7 8.28146 7.05268 8.15428 7.14645 8.06051C7.24021 7.96674 7.36739 7.91406 7.5 7.91406ZM7 3.12106V4.91406H8.793L7 3.12106Z" fill="white"/>
</svg>
