<svg width="49" height="49" viewBox="0 0 49 49" fill="none" xmlns="http://www.w3.org/2000/svg">
<path d="M45.6131 12.6544L9.58875 2.73438C9.24728 2.73438 8.90582 2.73438 8.56436 2.89438C8.22289 3.05438 8.05216 3.21437 7.88143 3.53438L6.00338 9.77438C5.83265 10.4144 6.17411 11.0544 6.85704 11.2144L34.3448 18.7344H5.83265C4.97899 18.7344 4.4668 19.3744 4.4668 20.0144V45.6144C4.4668 46.2544 4.97899 46.8944 5.83265 46.8944H43.3936C44.0766 46.8944 44.7595 46.4144 44.7595 45.6144V20.1744L46.6375 14.2544C46.6375 13.6144 46.2961 12.8144 45.6131 12.6544ZM10.1009 5.45438L12.8327 6.25438L8.90582 9.29437L10.1009 5.45438ZM11.8083 10.0944L15.7351 7.05438L19.3205 8.01438L15.3936 11.0544L11.8083 10.0944ZM18.4668 11.8544L22.3936 8.81437L25.979 9.77438L22.0522 12.8144L18.4668 11.8544ZM24.9546 13.7744L28.8814 10.7344L32.4668 11.6944L28.54 14.7344L24.9546 13.7744ZM31.4424 15.5344L35.3692 12.4944L38.9546 13.4544L35.1985 16.4944L31.4424 15.5344ZM42.0278 44.3344H7.02777V25.9344H42.0278V44.3344ZM42.0278 23.5344H7.02777V21.1344H42.0278V23.5344ZM42.3692 18.5744L38.1009 17.2944L42.0278 14.2544L43.7351 14.7344L42.3692 18.5744Z" fill="white"/>
<path d="M22.2234 40.4947L30.2478 36.4947C31.2722 36.0147 31.2722 34.5747 30.2478 34.0947L22.2234 29.9347C21.199 29.4547 20.0039 30.0947 20.0039 31.2147V39.3747C20.0039 40.3347 21.199 40.9747 22.2234 40.4947Z" fill="white"/>
</svg>
