<svg width="21" height="20" viewBox="0 0 21 20" fill="none" xmlns="http://www.w3.org/2000/svg">
<path d="M17.9098 0.411865H2.71276C2.11937 0.412517 1.55046 0.648531 1.13087 1.06813C0.711275 1.48772 0.475261 2.05662 0.474609 2.65002V13.0947C0.475261 13.6881 0.711275 14.257 1.13087 14.6766C1.55046 15.0962 2.11937 15.3322 2.71276 15.3329C2.91059 15.333 3.10028 15.4116 3.24017 15.5515C3.38006 15.6914 3.4587 15.8811 3.45881 16.0789V17.6694C3.45881 17.9394 3.53211 18.2045 3.6709 18.4361C3.80968 18.6678 4.00874 18.8575 4.24686 18.9849C4.48497 19.1124 4.75321 19.1728 5.02296 19.1597C5.29272 19.1467 5.55387 19.0607 5.77859 18.9109L10.9572 15.4582C11.0796 15.3762 11.2237 15.3326 11.3711 15.3329H15.0081C15.4968 15.332 15.9719 15.1718 16.3614 14.8767C16.7509 14.5815 17.0337 14.1675 17.1668 13.6972L20.0694 3.24962C20.1609 2.91694 20.1745 2.56761 20.1091 2.22882C20.0436 1.89003 19.9008 1.57092 19.6918 1.29633C19.4829 1.02174 19.2134 0.799075 18.9043 0.645668C18.5952 0.492262 18.2549 0.412251 17.9098 0.411865ZM18.6304 2.85332L15.7293 13.2973C15.6844 13.4539 15.5898 13.5917 15.4596 13.6898C15.3295 13.7878 15.171 13.8408 15.0081 13.8408H11.3711C10.9291 13.8402 10.497 13.9711 10.1296 14.2167L4.95092 17.6694V16.0789C4.95027 15.4855 4.71425 14.9166 4.29466 14.497C3.87506 14.0775 3.30616 13.8414 2.71276 13.8408C2.51493 13.8407 2.32524 13.762 2.18536 13.6221C2.04547 13.4823 1.96683 13.2926 1.96671 13.0947V2.65002C1.96683 2.45219 2.04547 2.2625 2.18536 2.12261C2.32524 1.98273 2.51493 1.90409 2.71276 1.90397H17.9098C18.0252 1.90426 18.1388 1.93116 18.2421 1.98257C18.3453 2.03397 18.4353 2.10851 18.505 2.20036C18.5747 2.29222 18.6223 2.39893 18.644 2.51218C18.6658 2.62543 18.6611 2.74217 18.6304 2.85332Z" fill="#CC00F2"/>
<path d="M4.95113 7.12638H8.68139C8.87925 7.12638 9.06901 7.04778 9.20892 6.90787C9.34884 6.76795 9.42744 6.57819 9.42744 6.38033C9.42744 6.18246 9.34884 5.9927 9.20892 5.85279C9.06901 5.71288 8.87925 5.63428 8.68139 5.63428H4.95113C4.75326 5.63428 4.5635 5.71288 4.42359 5.85279C4.28368 5.9927 4.20508 6.18246 4.20508 6.38033C4.20508 6.57819 4.28368 6.76795 4.42359 6.90787C4.5635 7.04778 4.75326 7.12638 4.95113 7.12638Z" fill="#CC00F2"/>
<path d="M11.6656 8.61865H4.95113C4.75326 8.61865 4.5635 8.69725 4.42359 8.83717C4.28368 8.97708 4.20508 9.16684 4.20508 9.3647C4.20508 9.56257 4.28368 9.75233 4.42359 9.89224C4.5635 10.0322 4.75326 10.1108 4.95113 10.1108H11.6656C11.8635 10.1108 12.0532 10.0322 12.1931 9.89224C12.333 9.75233 12.4116 9.56257 12.4116 9.3647C12.4116 9.16684 12.333 8.97708 12.1931 8.83717C12.0532 8.69725 11.8635 8.61865 11.6656 8.61865Z" fill="#CC00F2"/>
</svg>
