<svg width="44" height="44" viewBox="0 0 44 44" fill="none" xmlns="http://www.w3.org/2000/svg">
<path d="M22.0366 37.6383C17.7649 37.6383 13.4933 36.9599 9.44159 35.6033C7.90159 35.0716 6.72826 33.9899 6.21492 32.5783C5.68326 31.1666 5.86659 29.6083 6.70992 28.2149L8.81826 24.7133C9.25826 23.9799 9.66159 22.5133 9.66159 21.6516V16.3533C9.66159 9.53327 15.2166 3.97827 22.0366 3.97827C28.8566 3.97827 34.4116 9.53327 34.4116 16.3533V21.6516C34.4116 22.4949 34.8149 23.9799 35.2549 24.7316L37.3449 28.2149C38.1333 29.5349 38.2799 31.1299 37.7483 32.5783C37.2166 34.0266 36.0616 35.1266 34.6133 35.6033C30.5799 36.9599 26.3083 37.6383 22.0366 37.6383ZM22.0366 6.72827C16.7383 6.72827 12.4116 11.0366 12.4116 16.3533V21.6516C12.4116 22.9899 11.8616 24.9699 11.1833 26.1249L9.07492 29.6266C8.67159 30.3049 8.56159 31.0199 8.79992 31.6249C9.01992 32.2483 9.56992 32.7249 10.3216 32.9816C17.9849 35.5483 26.1066 35.5483 33.7699 32.9816C34.4299 32.7616 34.9433 32.2666 35.1816 31.6066C35.4199 30.9466 35.3649 30.2316 34.9983 29.6266L32.8899 26.1249C32.1933 24.9333 31.6616 22.9716 31.6616 21.6333V16.3533C31.6616 11.0366 27.3533 6.72827 22.0366 6.72827Z" fill="white"/>
<path d="M25.4465 7.22333C25.3181 7.22333 25.1898 7.205 25.0615 7.16833C24.5298 7.02166 24.0165 6.91166 23.5215 6.83833C21.9631 6.63666 20.4598 6.74666 19.0481 7.16833C18.5348 7.33333 17.9848 7.16833 17.6365 6.78333C17.2881 6.39833 17.1781 5.84833 17.3798 5.35333C18.1315 3.42833 19.9648 2.16333 22.0548 2.16333C24.1448 2.16333 25.9781 3.41 26.7298 5.35333C26.9131 5.84833 26.8215 6.39833 26.4731 6.78333C26.1981 7.07666 25.8131 7.22333 25.4465 7.22333Z" fill="white"/>
<path d="M22.0366 41.8184C20.2216 41.8184 18.4616 41.085 17.1783 39.8017C15.895 38.5184 15.1616 36.7584 15.1616 34.9434H17.9116C17.9116 36.025 18.3516 37.0884 19.1216 37.8584C19.8916 38.6284 20.955 39.0684 22.0366 39.0684C24.31 39.0684 26.1616 37.2167 26.1616 34.9434H28.9116C28.9116 38.7384 25.8316 41.8184 22.0366 41.8184Z" fill="white"/>
</svg>
