<svg width="6" height="10" viewBox="0 0 6 10" fill="none" xmlns="http://www.w3.org/2000/svg">
<path fill-rule="evenodd" clip-rule="evenodd" d="M4.96012 8.80281C5.11157 8.65131 5.19666 8.44586 5.19666 8.23164C5.19666 8.01743 5.11157 7.81198 4.96012 7.66048L2.29979 5.00015L4.96012 2.33982C5.10728 2.18745 5.18871 1.98338 5.18687 1.77156C5.18503 1.55974 5.10007 1.35711 4.95028 1.20732C4.80049 1.05754 4.59787 0.972574 4.38605 0.970734C4.17422 0.968893 3.97015 1.05032 3.81779 1.19748L0.58629 4.42898C0.434837 4.58048 0.349755 4.78593 0.349755 5.00015C0.349755 5.21437 0.434837 5.41982 0.58629 5.57131L3.81779 8.80281C3.96929 8.95426 4.17473 9.03935 4.38895 9.03935C4.60317 9.03935 4.80862 8.95426 4.96012 8.80281Z" fill="white"/>
</svg>
