<svg width="6" height="10" viewBox="0 0 6 10" fill="none" xmlns="http://www.w3.org/2000/svg">
<path fill-rule="evenodd" clip-rule="evenodd" d="M0.855797 8.80281C0.704344 8.65131 0.619263 8.44586 0.619263 8.23164C0.619263 8.01743 0.704344 7.81198 0.855797 7.66048L3.51613 5.00015L0.855797 2.33982C0.708637 2.18745 0.627207 1.98338 0.629048 1.77156C0.630888 1.55974 0.715852 1.35711 0.865638 1.20732C1.01542 1.05754 1.21805 0.972574 1.42987 0.970734C1.64169 0.968893 1.84576 1.05032 1.99813 1.19748L5.22963 4.42898C5.38108 4.58048 5.46616 4.78593 5.46616 5.00015C5.46616 5.21437 5.38108 5.41982 5.22963 5.57131L1.99813 8.80281C1.84663 8.95426 1.64118 9.03935 1.42696 9.03935C1.21275 9.03935 1.0073 8.95426 0.855797 8.80281Z" fill="white"/>
</svg>
