<svg width="172" height="149" viewBox="0 0 172 149" fill="none" xmlns="http://www.w3.org/2000/svg">
<path d="M137.324 142.052C141.054 146.125 147.431 146.438 151.044 142.261C160.262 131.603 166.756 118.802 169.884 104.958C173.751 87.85 172.294 69.9689 165.709 53.7126C159.124 37.4562 147.726 23.6019 133.044 14.0076C118.361 4.41324 101.096 -0.462394 83.5635 0.0345218C66.0312 0.531438 49.0699 6.37714 34.9543 16.7877C20.8388 27.1983 10.2438 41.6759 4.59022 58.2791C-1.06335 74.8823 -1.50517 92.8172 3.32401 109.679C7.23178 123.323 14.4398 135.736 24.2469 145.855C28.0907 149.82 34.4399 149.147 37.9329 144.869L44.8563 136.39C48.3493 132.112 47.6267 125.861 44.0502 121.652C38.9991 115.709 35.2431 108.729 33.0746 101.158C29.9832 90.3641 30.266 78.883 33.8852 68.2544C37.5044 57.6258 44.2868 48.3578 53.3229 41.6935C62.3591 35.0291 73.2169 31.287 84.4403 30.9689C95.6637 30.6508 106.716 33.7719 116.115 39.9138C125.514 46.0556 132.811 54.9245 137.026 65.3311C141.241 75.7376 142.174 87.1843 139.699 98.136C137.963 105.818 134.608 112.999 129.902 119.219C126.569 123.623 126.202 129.905 129.932 133.978L137.324 142.052Z" fill="url(#paint0_linear_62_1403)"/>
<defs>
<linearGradient id="paint0_linear_62_1403" x1="19.5" y1="148.5" x2="149.5" y2="148.5" gradientUnits="userSpaceOnUse">
<stop stop-color="#F57567"/>
<stop offset="0.373762" stop-color="#6F28EF"/>
<stop offset="0.571949" stop-color="#6E27EF"/>
<stop offset="0.746681" stop-color="#8062E3"/>
<stop offset="1" stop-color="#A9E4C9"/>
</linearGradient>
</defs>
</svg>
