<svg width="55" height="15" viewBox="0 0 55 15" fill="none" xmlns="http://www.w3.org/2000/svg">
<path d="M6.04 0.799999C6.98667 0.799999 7.8 0.966666 8.48 1.3C9.17333 1.63333 9.71333 2.10667 10.1 2.72C10.4867 3.33333 10.68 4.07333 10.68 4.94C10.68 5.79333 10.4867 6.53333 10.1 7.16C9.71333 7.77333 9.17333 8.24667 8.48 8.58C7.8 8.91333 6.98667 9.08 6.04 9.08H3.1V14H0.96V0.799999H6.04ZM5.7 7.24C6.64667 7.24 7.34 7.04667 7.78 6.66C8.23333 6.26 8.46 5.68667 8.46 4.94C8.46 4.18 8.23333 3.60667 7.78 3.22C7.34 2.82 6.64667 2.62 5.7 2.62H3.1V7.24H5.7ZM18.8591 14.2C17.6191 14.2 16.5457 13.9267 15.6391 13.38C14.7324 12.8333 14.0257 12.06 13.5191 11.06C13.0124 10.0467 12.7591 8.82667 12.7591 7.4C12.7591 6 13.0191 4.79333 13.5391 3.78C14.0724 2.76667 14.8191 1.98667 15.7791 1.44C16.7524 0.88 17.8657 0.6 19.1191 0.6C20.4924 0.6 21.5991 0.853333 22.4391 1.36C23.2924 1.86667 23.9724 2.65333 24.4791 3.72L22.4991 4.66C22.2457 3.92667 21.8257 3.38 21.2391 3.02C20.6657 2.64667 19.9657 2.46 19.1391 2.46C18.3124 2.46 17.5857 2.65333 16.9591 3.04C16.3457 3.42667 15.8657 3.99333 15.5191 4.74C15.1724 5.47333 14.9991 6.36 14.9991 7.4C14.9991 8.45333 15.1524 9.35333 15.4591 10.1C15.7657 10.8333 16.2257 11.3933 16.8391 11.78C17.4657 12.1667 18.2324 12.36 19.1391 12.36C19.6324 12.36 20.0924 12.3 20.5191 12.18C20.9457 12.0467 21.3191 11.86 21.6391 11.62C21.9591 11.3667 22.2057 11.0533 22.3791 10.68C22.5657 10.2933 22.6591 9.84 22.6591 9.32V8.94H18.8191V7.2H24.5591V14H22.9591L22.8391 11.34L23.2391 11.54C22.9191 12.38 22.3857 13.0333 21.6391 13.5C20.9057 13.9667 19.9791 14.2 18.8591 14.2ZM34.5717 7.74V9.72H27.7517V7.74H34.5717ZM39.5444 14V4.94C39.5444 4.67333 39.5444 4.4 39.5444 4.12C39.5577 3.82667 39.571 3.52 39.5844 3.2C39.131 3.64 38.611 4.02 38.0244 4.34C37.451 4.64667 36.8577 4.86667 36.2444 5L35.8444 3.14C36.1244 3.1 36.451 3.00667 36.8244 2.86C37.1977 2.71333 37.5844 2.52667 37.9844 2.3C38.3844 2.07333 38.751 1.83333 39.0844 1.58C39.4177 1.31333 39.6777 1.05333 39.8644 0.799999H41.6644V14H39.5444ZM49.3913 14.2C48.1513 14.2 47.0713 13.9267 46.1513 13.38C45.2446 12.82 44.6246 12.04 44.2913 11.04L46.3713 10.06C46.4913 10.54 46.6779 10.9533 46.9313 11.3C47.1846 11.6467 47.5179 11.9133 47.9313 12.1C48.3446 12.2733 48.8579 12.36 49.4713 12.36C49.9913 12.36 50.4313 12.2667 50.7913 12.08C51.1513 11.8933 51.4246 11.6333 51.6113 11.3C51.8113 10.9667 51.9113 10.5867 51.9113 10.16C51.9113 9.72 51.8246 9.35333 51.6513 9.06C51.4913 8.76667 51.2313 8.55333 50.8713 8.42C50.5246 8.28667 50.0779 8.22 49.5313 8.22C49.3713 8.22 49.2046 8.22667 49.0313 8.24C48.8713 8.24 48.6979 8.25333 48.5113 8.28V6.48C48.6313 6.49333 48.7446 6.50667 48.8513 6.52C48.9713 6.52 49.0846 6.52 49.1913 6.52C50.0579 6.52 50.6779 6.34667 51.0513 6C51.4246 5.65333 51.6113 5.11333 51.6113 4.38C51.6113 3.75333 51.4179 3.27333 51.0313 2.94C50.6579 2.60667 50.1179 2.44 49.4112 2.44C48.6779 2.44 48.1046 2.61333 47.6913 2.96C47.2913 3.29333 46.9846 3.78 46.7713 4.42L44.8113 3.6C44.9979 2.98667 45.3113 2.45333 45.7513 2C46.1913 1.54667 46.7313 1.2 47.3713 0.96C48.0246 0.706667 48.7379 0.58 49.5113 0.58C50.4579 0.58 51.2446 0.733333 51.8713 1.04C52.5113 1.34667 52.9846 1.76667 53.2913 2.3C53.6113 2.83333 53.7713 3.42667 53.7713 4.08C53.7713 4.58667 53.6979 5.03333 53.5513 5.42C53.4046 5.79333 53.2046 6.12 52.9513 6.4C52.7113 6.66667 52.4446 6.87333 52.1513 7.02C51.8713 7.16667 51.5846 7.26667 51.2913 7.32V7.36C51.6779 7.37333 52.0313 7.45333 52.3513 7.6C52.6846 7.73333 52.9779 7.92667 53.2313 8.18C53.4979 8.42 53.7046 8.71333 53.8513 9.06C53.9979 9.40667 54.0713 9.78667 54.0713 10.2C54.0713 11 53.8713 11.7 53.4713 12.3C53.0713 12.9 52.5179 13.3667 51.8113 13.7C51.1179 14.0333 50.3113 14.2 49.3913 14.2Z" fill="white"/>
</svg>
