<svg width="20" height="20" viewBox="0 0 20 20" fill="none" xmlns="http://www.w3.org/2000/svg">
<path d="M9.94279 1.979C8.08324 1.99167 6.28588 2.65007 4.85816 3.84158C3.43044 5.03308 2.4611 6.68366 2.11595 8.51093C1.77079 10.3382 2.07128 12.2286 2.96601 13.8588C3.86074 15.489 5.29411 16.7577 7.02091 17.4478C6.90486 16.6883 6.90486 15.9156 7.02091 15.1561L7.96623 11.1457C7.81663 10.7825 7.74255 10.3926 7.74852 9.99984C7.74852 8.88838 8.39591 8.05192 9.198 8.05192C9.3433 8.04974 9.48736 8.07898 9.62031 8.13766C9.75325 8.19634 9.87195 8.28306 9.96826 8.39188C10.0646 8.50071 10.1362 8.62906 10.1783 8.76815C10.2204 8.90725 10.2319 9.05379 10.2121 9.19775C10.2121 9.64097 10.0311 10.2271 9.84109 10.8424C9.73637 11.1816 9.6289 11.5296 9.54748 11.8675C9.49815 12.0449 9.49229 12.2315 9.53038 12.4116C9.56847 12.5918 9.6494 12.76 9.76631 12.9022C9.88321 13.0444 10.0327 13.1564 10.202 13.2286C10.3713 13.3008 10.5556 13.3311 10.7391 13.317C12.16 13.317 13.26 11.8103 13.26 9.64463C13.2743 9.20456 13.1967 8.76635 13.0321 8.35795C12.8676 7.94954 12.6198 7.57992 12.3044 7.27265C11.9891 6.96538 11.6131 6.72721 11.2006 6.57335C10.788 6.41948 10.348 6.35329 9.90841 6.379C9.43914 6.35885 8.97065 6.43412 8.53131 6.60028C8.09196 6.76643 7.6909 7.02 7.3524 7.34565C7.0139 7.67129 6.745 8.06224 6.56197 8.49482C6.37894 8.92741 6.2856 9.39263 6.28758 9.86234C6.28121 10.5167 6.48172 11.1563 6.8605 11.6899C6.88804 11.7206 6.90766 11.7575 6.91765 11.7974C6.92763 11.8373 6.92768 11.8791 6.91779 11.9191C6.85474 12.1713 6.71726 12.7212 6.69435 12.83C6.67143 12.9389 6.57404 13.0076 6.42508 12.9389C5.42248 12.4691 4.798 11.0082 4.798 9.82796C4.798 7.3014 6.63706 4.97536 10.0975 4.97536C12.8761 4.97536 15.0417 6.95765 15.0417 9.61025C15.0417 12.3717 13.323 14.5946 10.8766 14.5946C10.518 14.6071 10.1619 14.5298 9.84077 14.3697C9.5196 14.2096 9.24351 13.9718 9.03758 13.678L8.53914 15.5858C8.30021 16.3272 7.96506 17.0341 7.54227 17.6884C8.32131 17.9186 9.1305 18.0306 9.94279 18.0207C12.07 18.0207 14.1102 17.1756 15.6144 15.6714C17.1186 14.1672 17.9636 12.1271 17.9636 9.99984C17.9636 7.87258 17.1186 5.83245 15.6144 4.32825C14.1102 2.82405 12.07 1.979 9.94279 1.979Z" fill="#E60023"/>
</svg>
