<svg width="80" height="80" viewBox="0 0 80 80" fill="none" xmlns="http://www.w3.org/2000/svg">
<path d="M72.7922 17.1967C73.9277 18.3673 74.7341 19.8167 75.13 21.3987C76.1875 27.261 76.7008 33.2085 76.6634 39.1654C76.6845 45.0331 76.1712 50.8907 75.13 56.6654C74.7341 58.2473 73.9277 59.6968 72.7922 60.8673C71.6568 62.0379 70.2325 62.8881 68.6634 63.332C62.93 64.8654 39.9967 64.8654 39.9967 64.8654C39.9967 64.8654 17.0634 64.8654 11.33 63.332C9.79277 62.9114 8.38997 62.1014 7.25718 60.9803C6.12439 59.8592 5.29989 58.4649 4.86336 56.932C3.80592 51.0697 3.29263 45.1222 3.33003 39.1654C3.30082 33.2531 3.81408 27.3505 4.86336 21.532C5.25933 19.9501 6.06575 18.5006 7.20119 17.3301C8.33662 16.1595 9.76085 15.3093 11.33 14.8654C17.0634 13.332 39.9967 13.332 39.9967 13.332C39.9967 13.332 62.93 13.332 68.6634 14.732C70.2325 15.176 71.6568 16.0262 72.7922 17.1967Z" fill="#171616" stroke="white" stroke-width="2" stroke-linecap="round" stroke-linejoin="round"/>
<path d="M51.6667 39.1656L32.5 50.0656V28.2656L51.6667 39.1656Z" stroke="white" stroke-width="2" stroke-linecap="round" stroke-linejoin="round"/>
</svg>
