<svg width="81" height="81" viewBox="0 0 81 81" fill="none" xmlns="http://www.w3.org/2000/svg">
<path d="M14.0835 40.2162C14.0835 54.5756 25.7241 66.2162 40.0835 66.2162C54.4429 66.2162 66.0835 54.5756 66.0835 40.2162C66.0835 25.8568 54.4429 14.2162 40.0835 14.2162C25.7241 14.2162 14.0835 25.8568 14.0835 40.2162Z" fill="white"/>
<path d="M40.0835 7.71619C33.6556 7.71619 27.3721 9.62228 22.0275 13.1934C16.6829 16.7646 12.5173 21.8404 10.0574 27.779C7.59758 33.7176 6.95397 40.2522 8.20799 46.5566C9.46201 52.861 12.5573 58.6519 17.1025 63.1971C21.6478 67.7424 27.4387 70.8377 33.7431 72.0917C40.0475 73.3457 46.5821 72.7021 52.5207 70.2423C58.4593 67.7824 63.5352 63.6168 67.1063 58.2722C70.6774 52.9276 72.5835 46.6441 72.5835 40.2162C72.5728 31.5999 69.1452 23.3397 63.0526 17.2471C56.96 11.1545 48.6998 7.72694 40.0835 7.71619ZM51.471 42.2974L36.471 52.2974C36.0596 52.5701 35.5771 52.7157 35.0835 52.7162C34.4205 52.7162 33.7846 52.4528 33.3158 51.9839C32.8469 51.5151 32.5835 50.8792 32.5835 50.2162V30.2162C32.5832 29.7635 32.7059 29.3192 32.9384 28.9307C33.1708 28.5423 33.5044 28.2242 33.9036 28.0105C34.3027 27.7969 34.7523 27.6956 35.2045 27.7175C35.6567 27.7394 36.0944 27.8837 36.471 28.1349L51.471 38.1349C51.8139 38.3631 52.0952 38.6725 52.2897 39.0356C52.4842 39.3987 52.586 39.8043 52.586 40.2162C52.586 40.6281 52.4842 41.0336 52.2897 41.3967C52.0952 41.7598 51.8139 42.0692 51.471 42.2974Z" fill="#7D3CF3"/>
</svg>
