<svg width="20" height="21" viewBox="0 0 20 21" fill="none" xmlns="http://www.w3.org/2000/svg">
<path d="M10 2.26562C14.411 2.26562 18 5.85463 18 10.2656C18 14.6766 14.411 18.2656 10 18.2656C5.589 18.2656 2 14.6766 2 10.2656C2 5.85463 5.589 2.26562 10 2.26562ZM10 0.265625C4.477 0.265625 0 4.74263 0 10.2656C0 15.7886 4.477 20.2656 10 20.2656C15.523 20.2656 20 15.7886 20 10.2656C20 4.74263 15.523 0.265625 10 0.265625ZM15 9.26562H11V5.26562H9V9.26562H5V11.2656H9V15.2656H11V11.2656H15V9.26562Z" fill="white"/>
</svg>
