<svg width="22" height="22" viewBox="0 0 22 22" fill="none" xmlns="http://www.w3.org/2000/svg">
<g clip-path="url(#clip0_533_2146)">
<path d="M18.9384 21.4686H2.98216C2.74706 21.4686 2.52158 21.3752 2.35534 21.209C2.1891 21.0427 2.0957 20.8173 2.0957 20.5821V19.7028C2.09825 18.3325 2.55685 17.002 3.39918 15.9211C4.24152 14.8403 5.41966 14.0706 6.74784 13.7334C6.93617 13.6872 7.10383 13.5798 7.22449 13.428C7.34515 13.2762 7.41197 13.0887 7.41445 12.8948V12.003L6.42428 11.0137C6.17625 10.7702 5.97927 10.4797 5.84487 10.1591C5.71047 9.83856 5.64134 9.49443 5.64154 9.14684V5.47867C5.65778 4.10903 6.19842 2.79771 7.15219 1.81459C8.10596 0.831474 9.40029 0.25135 10.7688 0.193608C11.4915 0.192676 12.2073 0.334096 12.8753 0.609794C13.5433 0.885492 14.1505 1.29007 14.6622 1.80042C15.1739 2.31078 15.58 2.91692 15.8574 3.58423C16.1348 4.25155 16.2781 4.96697 16.279 5.68965V9.14684C16.2788 9.4969 16.2084 9.84336 16.0722 10.1658C15.9359 10.4883 15.7365 10.7802 15.4857 11.0244L14.5061 12.003V12.8948C14.5087 13.0888 14.5756 13.2765 14.6964 13.4283C14.8173 13.5801 14.9851 13.6874 15.1736 13.7334C16.5016 14.0709 17.6794 14.8407 18.5216 15.9215C19.3637 17.0023 19.8222 18.3326 19.8249 19.7028V20.5821C19.8249 20.8173 19.7315 21.0427 19.5652 21.209C19.399 21.3752 19.1735 21.4686 18.9384 21.4686ZM3.86862 19.6957H18.052C18.0478 18.7202 17.7194 17.7738 17.1184 17.0054C16.5174 16.237 15.678 15.6903 14.7322 15.4513C14.1626 15.3072 13.6572 14.9778 13.2953 14.515C12.9334 14.0522 12.7357 13.4823 12.7332 12.8948V11.636C12.7333 11.4009 12.8267 11.1755 12.9929 11.0093L14.2428 9.76027C14.3258 9.68101 14.3918 9.58582 14.4371 9.48041C14.4823 9.375 14.5058 9.26154 14.5061 9.14684V5.68965C14.5076 4.71003 14.1224 3.76943 13.4342 3.07227C12.746 2.3751 11.8104 1.97774 10.8309 1.96652C9.91995 2.00301 9.05776 2.38765 8.42209 3.04113C7.78643 3.69461 7.42576 4.56709 7.41445 5.47867V9.14684C7.41427 9.25908 7.43652 9.37022 7.47991 9.47374C7.5233 9.57726 7.58694 9.67106 7.66709 9.74963L8.92764 11.0084C9.09389 11.1746 9.18732 11.4 9.18737 11.6351V12.8939C9.18492 13.4813 8.98731 14.0511 8.62562 14.5139C8.26392 14.9767 7.75866 15.3062 7.18929 15.4504C6.24319 15.6893 5.40341 16.236 4.80222 17.0046C4.20103 17.7732 3.87258 18.7199 3.86862 19.6957Z" fill="#00F0FB"/>
</g>
<defs>
<clipPath id="clip0_533_2146">
<rect width="21.275" height="21.275" fill="white" transform="translate(0.322266 0.193604)"/>
</clipPath>
</defs>
</svg>
