<svg width="94" height="70" viewBox="0 0 94 70" fill="none" xmlns="http://www.w3.org/2000/svg">
<path d="M43.3552 51.6907C43.4646 54.1739 43.0117 56.65 42.0288 58.9429C41.0459 61.2358 39.5571 63.289 37.6685 64.9564L37.6536 64.9681C33.7441 68.3511 28.6527 70.1396 23.4309 69.9642L23.4637 69.9642C20.3074 70.1308 17.1523 69.617 14.2224 68.4593C11.2925 67.3016 8.65972 65.5284 6.51115 63.2658L6.49921 63.2541C2.19175 58.2655 -0.00529643 51.8621 0.355543 45.3479L0.352552 45.4091C0.152379 38.6442 1.44073 31.916 4.13075 25.6782L4.01127 25.9901C6.15911 21.1001 9.13797 16.5994 12.8221 12.6778L12.7892 12.7128C15.8344 9.48865 19.363 6.73385 23.2547 4.54236L23.4697 4.43159C26.413 2.77442 29.4848 1.34467 32.6568 0.155439L33.1228 0.00095123L42.4831 15.4207C38.5934 16.9524 35.1792 19.4457 32.5762 22.6555L32.5374 22.705C29.9455 25.7182 28.3198 29.4093 27.8632 33.3182L27.8542 33.4114C29.891 33.4612 31.8941 33.9305 33.7321 34.7885C35.5701 35.6465 37.2016 36.8738 38.5197 38.3901L38.5377 38.4105C41.8891 42.0524 43.6228 46.8433 43.3582 51.7315L43.3612 51.6878L43.3552 51.6907ZM93.974 51.6907C94.0817 54.174 93.6278 56.6499 92.6445 58.9426C91.6611 61.2353 90.1725 63.2885 88.2843 64.9564L88.2694 64.9681C84.3607 68.3524 79.2687 70.1411 74.0467 69.9642L74.0795 69.9642C70.9231 70.1316 67.7677 69.6181 64.8377 68.4604C61.9077 67.3027 59.275 65.5291 57.127 63.2658L57.115 63.2512C52.8058 58.2625 50.6085 51.8574 50.9713 45.3421L50.9684 45.4033C50.7682 38.6384 52.0565 31.9102 54.7465 25.6724L54.6271 25.9843C56.7739 21.0944 59.7517 16.5936 63.4349 12.672L63.402 12.707C66.4483 9.48275 69.9779 6.72795 73.8705 4.53652L74.0855 4.42575C77.0282 2.76742 80.1001 1.33762 83.2726 0.149606L83.7386 -0.00488194L93.0959 15.4149C89.2057 16.9484 85.7915 19.4437 83.189 22.6555L83.1502 22.705C80.5583 25.7182 78.9327 29.4093 78.476 33.3182L78.467 33.4114C80.503 33.4609 82.5053 33.9301 84.3424 34.7881C86.1795 35.6462 87.8099 36.8737 89.1266 38.3901L89.1445 38.4105C92.4995 42.0496 94.2367 46.84 93.974 51.7286L93.977 51.6849L93.974 51.6907Z" fill="white" fill-opacity="0.1"/>
</svg>
