<svg width="30" height="30" viewBox="0 0 30 30" fill="none" xmlns="http://www.w3.org/2000/svg">
<path d="M6.25039 27.1874C5.91267 27.1861 5.57952 27.1092 5.27539 26.9624C4.90258 26.7872 4.58719 26.5098 4.3659 26.1624C4.14461 25.8149 4.02653 25.4118 4.02539 24.9999V3.7499C4.02702 3.45993 4.08596 3.17314 4.19881 2.90603C4.31167 2.63892 4.47622 2.39675 4.683 2.19346C4.88978 1.99016 5.1347 1.82975 5.40369 1.72145C5.67269 1.61315 5.96043 1.5591 6.25039 1.5624H23.7504C24.3295 1.56568 24.884 1.7972 25.2936 2.20673C25.7031 2.61625 25.9346 3.17075 25.9379 3.7499V24.9999C25.9298 25.3958 25.8144 25.782 25.604 26.1174C25.3936 26.4528 25.0961 26.7248 24.7433 26.9045C24.3904 27.0841 23.9955 27.1646 23.6005 27.1374C23.2055 27.1101 22.8253 26.9762 22.5004 26.7499L15.2504 21.3124C15.1972 21.2698 15.1311 21.2466 15.0629 21.2466C14.9947 21.2466 14.9286 21.2698 14.8754 21.3124L7.56289 26.7499C7.18341 27.0323 6.72341 27.1856 6.25039 27.1874ZM6.25039 3.4374C6.16751 3.4374 6.08802 3.47032 6.02942 3.52893C5.97081 3.58753 5.93789 3.66702 5.93789 3.7499V24.9999C5.93745 25.0577 5.95374 25.1145 5.98478 25.1632C6.01583 25.212 6.06032 25.2508 6.11289 25.2749C6.16074 25.3077 6.21739 25.3252 6.27539 25.3252C6.33339 25.3252 6.39004 25.3077 6.43789 25.2749L13.7504 19.8124C14.1306 19.5322 14.5906 19.3811 15.0629 19.3811C15.5352 19.3811 15.9951 19.5322 16.3754 19.8124L23.6254 25.2499C23.6732 25.2827 23.7299 25.3002 23.7879 25.3002C23.8459 25.3002 23.9025 25.2827 23.9504 25.2499C24.003 25.2258 24.0475 25.187 24.0785 25.1382C24.1095 25.0895 24.1258 25.0327 24.1254 24.9749V3.7499C24.1263 3.70303 24.1167 3.65655 24.0973 3.61389C24.0778 3.57124 24.049 3.53351 24.013 3.5035C23.977 3.47349 23.9347 3.45197 23.8892 3.44052C23.8438 3.42908 23.7963 3.42801 23.7504 3.4374H6.25039Z" fill="#5B97FF"/>
</svg>
