<svg width="22" height="22" viewBox="0 0 22 22" fill="none" xmlns="http://www.w3.org/2000/svg">
<path d="M21.1097 20.7401L15.9396 15.5699C17.3265 13.9755 18.1662 11.8951 18.1662 9.62141C18.1662 4.61636 14.0951 0.550049 9.0948 0.550049C4.08975 0.550049 0.0234375 4.62107 0.0234375 9.62141C0.0234375 14.6217 4.09446 18.6928 9.0948 18.6928C11.3685 18.6928 13.4489 17.8531 15.0433 16.4662L20.2135 21.6364C20.3361 21.759 20.5012 21.825 20.6616 21.825C20.822 21.825 20.9871 21.7637 21.1097 21.6364C21.355 21.3911 21.355 20.9854 21.1097 20.7401ZM1.29239 9.62141C1.29239 5.31923 4.79262 1.82372 9.09008 1.82372C13.3923 1.82372 16.8878 5.32395 16.8878 9.62141C16.8878 13.9189 13.3923 17.4238 9.09008 17.4238C4.79262 17.4238 1.29239 13.9236 1.29239 9.62141Z" fill="#A4A4A4"/>
</svg>
