<svg width="30" height="29" viewBox="0 0 30 29" fill="none" xmlns="http://www.w3.org/2000/svg">
<g clip-path="url(#clip0_300_1476)">
<path d="M8.28356 6.59958C7.8509 6.181 7.14895 6.181 6.71629 6.59958C5.10988 8.15243 4.32033 10.3157 4.54979 12.5349C4.60703 13.0878 5.08885 13.4999 5.65152 13.4999C5.6885 13.4999 5.72576 13.4981 5.76274 13.4946C6.37199 13.4356 6.81643 12.9102 6.75549 12.3217C6.59219 10.7445 7.14936 9.21099 8.28356 8.11454C8.71656 7.69636 8.71656 7.01775 8.28356 6.59958Z" fill="#5B97FF"/>
<path d="M12.6724 0C5.68482 0 0 5.49533 0 12.25C0 19.0047 5.68482 24.5 12.6724 24.5C19.66 24.5 25.3448 19.0047 25.3448 12.25C25.3448 5.49533 19.66 0 12.6724 0ZM12.6724 22.3571C6.90703 22.3571 2.21678 17.8232 2.21678 12.25C2.21678 6.6768 6.90703 2.14288 12.6724 2.14288C18.4375 2.14288 23.1281 6.6768 23.1281 12.25C23.1281 17.8232 18.4378 22.3571 12.6724 22.3571Z" fill="#5B97FF"/>
<path d="M29.6758 27.1712L21.6215 19.3855C21.1885 18.9669 20.4873 18.9669 20.0542 19.3855C19.6212 19.8037 19.6212 20.4823 20.0542 20.9005L28.1085 28.6862C28.325 28.8955 28.6083 29.0001 28.8921 29.0001C29.1759 29.0001 29.4592 28.8955 29.6758 28.6862C30.1087 28.268 30.1087 27.5894 29.6758 27.1712Z" fill="#5B97FF"/>
</g>
<defs>
<clipPath id="clip0_300_1476">
<rect width="30" height="29" fill="white"/>
</clipPath>
</defs>
</svg>
