<svg width="95" height="95" viewBox="0 0 95 95" fill="none" xmlns="http://www.w3.org/2000/svg">
<path d="M61.794 62.6973L58.8162 67.8742L44.8432 67.8284C44.8891 68.1491 44.9807 68.5156 44.9807 68.8821C44.9349 69.2028 44.9349 69.5693 44.7974 69.89H60.0073L64.1763 62.6973H61.794Z" fill="url(#paint0_linear_553_37801)"/>
<path d="M34.15 25.1045L29.981 32.2971H32.3632L35.2953 27.166L47.7106 27.1202C47.6648 26.7995 47.619 26.4788 47.619 26.1123C47.619 25.7458 47.6648 25.4251 47.7106 25.1045H34.15Z" fill="url(#paint1_linear_553_37801)"/>
<path d="M47.7406 25.0736L48.611 25.1194V27.1352H47.6948C48.1529 29.1509 49.9854 30.6169 52.1386 30.6628C54.6125 30.6628 56.6741 28.6012 56.6741 26.1273C56.6283 23.6076 54.6125 21.5918 52.1386 21.5918C49.9396 21.5918 48.1529 23.1036 47.7406 25.0736ZM49.6189 26.1273C49.6189 24.7529 50.7642 23.6076 52.0928 23.6534C53.4672 23.6534 54.5667 24.7529 54.5667 26.1273C54.6125 27.4558 53.4672 28.6012 52.0928 28.6012C50.7642 28.5554 49.6647 27.4558 49.6189 26.1273Z" fill="url(#paint2_linear_553_37801)"/>
<path d="M45.9337 70.0458L45.0633 70V67.9842H45.9795C45.5214 65.9685 43.6889 64.5025 41.5357 64.4566C39.0618 64.4566 37.0002 66.5182 37.0002 68.9921C37.046 71.5118 39.0618 73.5276 41.5357 73.5276C43.7347 73.5276 45.5214 72.0158 45.9337 70.0458ZM44.0554 68.9921C44.0554 70.3665 42.9101 71.5118 41.5815 71.466C40.2071 71.466 39.1076 70.3665 39.1076 68.9921C39.0618 67.6636 40.2071 66.5182 41.5815 66.5182C42.9101 66.564 44.0096 67.6636 44.0554 68.9921Z" fill="#FFFFFF"/>
<path d="M47.7059 25.1084C47.6601 25.4291 47.6143 25.7498 47.6143 26.1163C47.6143 26.4828 47.6601 26.8035 47.7059 27.1242H48.6222V25.1084H47.7059Z" fill="url(#paint3_linear_553_37801)"/>
<path fill-rule="evenodd" clip-rule="evenodd" d="M18.8312 32C16.4342 36.4854 15.0752 41.6091 15.0752 47.0502C15.0752 52.8587 16.6239 58.3054 19.3308 63H74.7696C77.4765 58.3054 79.0252 52.8587 79.0252 47.0502C79.0252 41.6091 77.6662 36.4854 75.2691 32H18.8312ZM44.0654 34.3359L37.0669 46.4545L38.4963 46.4707H37.0643L36.9728 46.6144L37.0518 46.4829H26.7896L26.7898 46.4847C26.8355 46.8048 26.8813 47.125 26.8813 47.4908C26.8813 47.8566 26.8355 48.1768 26.7898 48.4969L26.7896 48.4987L37.6381 48.5445C37.4594 48.543 37.3236 48.4972 37.1433 48.4071C36.8161 48.1988 36.6433 47.8745 36.6378 47.5222C36.6558 47.8621 36.8285 48.1864 37.1559 48.3948C37.3392 48.4865 37.4766 48.5323 37.6599 48.5323C37.6777 48.5323 37.6954 48.5319 37.7131 48.531L54 48.4881V48.5H55.0242L48.0312 60.6135L50.4099 60.6401L57.4002 48.5312H66.7057C66.6599 48.2105 66.6141 47.8898 66.6141 47.5233C66.6141 47.2114 66.6472 46.9327 66.7135 46.6308C66.6754 46.9047 66.6421 47.1836 66.6421 47.4957C66.6421 47.8615 66.6878 48.1817 66.7335 48.5018L66.7338 48.5036H67.638V48.5165H66.7217C67.1799 50.5322 69.0124 51.9982 71.1656 52.0441C73.6395 52.0441 75.701 49.9825 75.701 47.5086C75.6552 44.9889 73.6395 42.9731 71.1656 42.9731C68.9666 42.9731 67.1799 44.4849 66.7675 46.4549L67.3918 46.4878H66.7469L66.7515 46.4696H57.7058C56.8728 46.2691 56.0665 46.3194 55.3951 46.4696H39.4524L46.444 34.3628L44.0654 34.3359ZM57.3796 48.5L57.367 48.5198L55.5955 48.5H57.3796ZM17.8184 47.4827C17.8642 50.0025 19.88 52.0182 22.3539 52.0182C24.5529 52.0182 26.2938 50.5522 26.7519 48.5364L26.0919 48.5016H26.7874C26.8332 48.1809 26.879 47.8602 26.879 47.4937C26.879 47.1272 26.8332 46.8065 26.7874 46.4858H25.8815V46.4749H26.7977C26.3396 44.4591 24.5071 42.9931 22.3539 42.9473C19.88 42.9473 17.8184 45.0089 17.8184 47.4827ZM19.9258 47.4827C19.88 46.1542 21.0253 45.0089 22.3997 45.0089C23.7283 45.0547 24.8278 46.1542 24.8736 47.4827C24.8736 48.8571 23.7283 50.0025 22.3997 49.9566C21.0253 49.9566 19.9258 48.8571 19.9258 47.4827ZM71.1198 45.0347C69.7912 44.9889 68.6459 46.1342 68.6459 47.5086C68.6917 48.8372 69.7912 49.9367 71.1198 49.9825C72.4941 49.9825 73.6395 48.8372 73.5936 47.5086C73.5936 46.1342 72.4941 45.0347 71.1198 45.0347Z" fill="url(#paint4_linear_553_37801)"/>
<path d="M32.3447 32.2812L31.4181 33.8256L29.6679 32.7961L29.9767 32.2812H19.0636L17.8281 34.3404H44.0814L44.9566 32.8475C45.2654 32.3328 45.8831 32.1268 46.3979 32.4356C46.8612 32.693 47.0156 33.3623 46.7582 33.8256L46.4494 34.3404H76.3061L75.0707 32.2812H32.3447Z" fill="url(#paint5_linear_553_37801)"/>
<path d="M29.9838 32.2866L29.6929 32.7919L31.4895 33.8265L32.3624 32.3106L29.9838 32.2866Z" fill="url(#paint6_linear_553_37801)"/>
<path d="M44.9739 32.7891L44.0576 34.3468H46.4399L46.7606 33.8428C46.9897 33.3389 46.8523 32.7433 46.3483 32.4226C46.1651 32.331 46.0276 32.2852 45.8444 32.2852C45.4779 32.2852 45.1572 32.5142 44.9739 32.7891Z" fill="url(#paint7_linear_553_37801)"/>
<path d="M50.3872 60.6343L49.5189 62.2175C49.3146 62.524 48.9571 62.6772 48.5996 62.7283H61.7765L62.6447 61.145L64.4833 62.1665L64.1769 62.6772H74.4937L75.7194 60.6343H50.3872Z" fill="url(#paint8_linear_553_37801)"/>
<path d="M17.8438 60.6191L19.0127 62.7029H48.5933C48.4409 62.6521 48.2375 62.6521 48.1359 62.5504C47.6276 62.2455 47.4244 61.6356 47.7294 61.1273L48.0342 60.6191H17.8438Z" fill="url(#paint9_linear_553_37801)"/>
<path d="M61.7632 62.7195H64.1604L64.4843 62.2012L62.6702 61.1646L61.7632 62.7195Z" fill="url(#paint10_linear_553_37801)"/>
<path d="M15.0752 47.0502C15.0752 29.3903 29.3909 15.0742 47.0502 15.0742C64.7095 15.0742 79.0252 29.3903 79.0252 47.0502C79.0252 64.7101 64.7095 79.0262 47.0502 79.0262C29.3909 79.0262 15.0752 64.7101 15.0752 47.0502Z" stroke="url(#paint11_linear_553_37801)" stroke-miterlimit="10"/>
<path d="M63.0767 13.666C75.4742 19.638 84.092 32.3379 84.092 47.0789C84.092 55.3187 81.3706 62.9538 76.8349 69.077C76.9861 69.3038 77.1373 69.455 77.2885 69.6817C82.051 63.3318 84.848 55.5455 84.848 47.0789C84.848 31.9599 75.9278 18.882 63.0767 12.8345C63.0767 13.1368 63.0767 13.3636 63.0767 13.666Z" fill="url(#paint12_linear_553_37801)"/>
<path d="M9.25342 47.0547C9.25342 49.3982 9.4802 51.666 9.85818 53.8582C10.085 53.707 10.3117 53.5559 10.5385 53.4047C10.2361 51.3636 10.0094 49.247 10.0094 47.0547C10.0094 28.6096 23.6164 13.1883 41.3056 10.4669C41.3056 10.1645 41.3056 9.93773 41.3056 9.71094C23.1628 12.4323 9.25342 28.156 9.25342 47.0547Z" fill="url(#paint13_linear_553_37801)"/>
<path d="M19.9121 73.2691C26.7913 80.4506 36.3918 84.8351 47.0507 84.8351C51.5108 84.8351 55.8197 84.0791 59.8263 82.6428C59.6751 82.4161 59.4483 82.1893 59.2971 82.0381C55.4418 83.3232 51.3596 84.0791 47.0507 84.0791C36.6942 84.0791 27.2448 79.7702 20.5169 72.8911C20.2901 73.0423 20.1389 73.1935 19.9121 73.2691Z" fill="url(#paint14_linear_553_37801)"/>
<path d="M24.5571 10.915C24.7275 11.0854 24.8979 11.2558 25.0683 11.5114C31.4582 7.50711 38.9558 5.20673 47.0497 5.20673C60.1703 5.20673 71.9278 11.2558 79.5957 20.7981C79.8513 20.6277 80.0217 20.5425 80.2773 20.4573C72.439 10.6594 60.5111 4.43994 47.0497 4.43994C38.7854 4.43994 31.0323 6.82551 24.5571 10.915Z" fill="url(#paint15_linear_553_37801)"/>
<path d="M4.4502 47.0702C4.4502 63.8544 14.2481 78.4235 28.4763 85.3246C28.4763 85.069 28.5615 84.8134 28.6467 84.5578C14.7593 77.7419 5.21699 63.5136 5.21699 47.0702C5.21699 43.3215 5.72818 39.6579 6.66537 36.25C6.40977 36.0796 6.15418 35.9944 5.98378 35.9092C4.96139 39.4023 4.4502 43.1511 4.4502 47.0702Z" fill="url(#paint16_linear_553_37801)"/>
<path d="M88.7121 50.3923C87.0081 71.9477 69.0311 88.9024 47.0496 88.9024C46.2828 88.9024 45.6013 88.9024 44.8345 88.8172C44.8345 89.0727 44.7493 89.3283 44.6641 89.5839C45.5161 89.5839 46.2828 89.6691 47.0496 89.6691C69.4571 89.6691 87.8601 72.2885 89.4789 50.3071C89.2233 50.3923 88.9677 50.3923 88.7121 50.3923Z" fill="url(#paint17_linear_553_37801)"/>
<path d="M79.3823 21.9773C79.3823 21.2455 79.9755 20.6523 80.7073 20.6523C81.4391 20.6523 82.0323 21.2455 82.0323 21.9773C82.0323 22.7091 81.4391 23.3023 80.7073 23.3023C79.9755 23.3023 79.3823 22.7091 79.3823 21.9773Z" stroke="#FFFFFF" stroke-width="0.75" stroke-miterlimit="10"/>
<path d="M87.6523 49.0008C87.6523 48.269 88.2456 47.6758 88.9773 47.6758C89.7091 47.6758 90.3023 48.269 90.3023 49.0008C90.3023 49.7326 89.7091 50.3258 88.9773 50.3258C88.2456 50.3258 87.6523 49.7326 87.6523 49.0008Z" stroke="#FFFFFF" stroke-width="0.75" stroke-miterlimit="10"/>
<path d="M60.4644 12.8387C60.4644 12.1069 61.0576 11.5137 61.7894 11.5137C62.5211 11.5137 63.1144 12.1069 63.1144 12.8387C63.1144 13.5705 62.5211 14.1637 61.7894 14.1637C61.0576 14.1637 60.4644 13.5705 60.4644 12.8387Z" stroke="#FFFFFF" stroke-width="0.75" stroke-miterlimit="10"/>
<path d="M41.3193 10.1888C41.3193 9.45699 41.9126 8.86377 42.6443 8.86377C43.3761 8.86377 43.9693 9.45699 43.9693 10.1888C43.9693 10.9206 43.3761 11.5138 42.6443 11.5138C41.9126 11.5138 41.3193 10.9206 41.3193 10.1888Z" stroke="#FFFFFF" stroke-width="0.75" stroke-miterlimit="10"/>
<path d="M22.3765 11.9319C22.3765 11.2001 22.9697 10.6069 23.7015 10.6069C24.4332 10.6069 25.0265 11.2001 25.0265 11.9319C25.0265 12.6637 24.4332 13.2569 23.7015 13.2569C22.9697 13.2569 22.3765 12.6637 22.3765 11.9319Z" stroke="#FFFFFF" stroke-width="0.75" stroke-miterlimit="10"/>
<path d="M5.62354 34.6507C5.62354 33.9189 6.21676 33.3257 6.94854 33.3257C7.68031 33.3257 8.27354 33.9189 8.27354 34.6507C8.27354 35.3825 7.68031 35.9757 6.94854 35.9757C6.21676 35.9757 5.62354 35.3825 5.62354 34.6507Z" stroke="#FFFFFF" stroke-width="0.75" stroke-miterlimit="10"/>
<path d="M9.30908 54.5828C9.30908 53.851 9.90231 53.2578 10.6341 53.2578C11.3659 53.2578 11.9591 53.851 11.9591 54.5828C11.9591 55.3146 11.3659 55.9078 10.6341 55.9078C9.90231 55.9078 9.30908 55.3146 9.30908 54.5828Z" stroke="#FFFFFF" stroke-width="0.75" stroke-miterlimit="10"/>
<path d="M18.2896 72.0809C18.2896 71.3491 18.8828 70.7559 19.6146 70.7559C20.3463 70.7559 20.9396 71.3491 20.9396 72.0809C20.9396 72.8127 20.3463 73.4059 19.6146 73.4059C18.8828 73.4059 18.2896 72.8127 18.2896 72.0809Z" stroke="#FFFFFF" stroke-width="0.75" stroke-miterlimit="10"/>
<path d="M28.4072 85.3519C28.4072 84.6201 29.0005 84.0269 29.7322 84.0269C30.464 84.0269 31.0572 84.6201 31.0572 85.3519C31.0572 86.0837 30.464 86.6769 29.7322 86.6769C29.0005 86.6769 28.4072 86.0837 28.4072 85.3519Z" stroke="#FFFFFF" stroke-width="0.75" stroke-miterlimit="10"/>
<path d="M42.0571 88.9031C42.0571 88.1713 42.6504 87.5781 43.3821 87.5781C44.1139 87.5781 44.7071 88.1713 44.7071 88.9031C44.7071 89.6349 44.1139 90.2281 43.3821 90.2281C42.6504 90.2281 42.0571 89.6349 42.0571 88.9031Z" stroke="#FFFFFF" stroke-width="0.75" stroke-miterlimit="10"/>
<path d="M59.1401 81.867C59.1401 81.1352 59.7334 80.542 60.4651 80.542C61.1969 80.542 61.7901 81.1352 61.7901 81.867C61.7901 82.5988 61.1969 83.192 60.4651 83.192C59.7334 83.192 59.1401 82.5988 59.1401 81.867Z" stroke="#FFFFFF" stroke-width="0.75" stroke-miterlimit="10"/>
<path d="M74.9434 70.202C74.9434 69.4702 75.5366 68.877 76.2684 68.877C77.0001 68.877 77.5934 69.4702 77.5934 70.202C77.5934 70.9338 77.0001 71.527 76.2684 71.527C75.5366 71.527 74.9434 70.9338 74.9434 70.202Z" stroke="#FFFFFF" stroke-width="0.75" stroke-miterlimit="10"/>
<path fill-rule="evenodd" clip-rule="evenodd" d="M71.1199 45.0345C69.7913 44.9887 68.646 46.134 68.646 47.5084C68.6918 48.837 69.7913 49.9365 71.1199 49.9823C72.4942 49.9823 73.6396 48.837 73.5937 47.5084C73.5937 46.134 72.4942 45.0345 71.1199 45.0345Z" fill="#FFFFFF"/>
<path fill-rule="evenodd" clip-rule="evenodd" d="M19.9256 47.4826C19.8798 46.1541 21.0251 45.0088 22.3995 45.0088C23.7281 45.0546 24.8276 46.1541 24.8734 47.4826C24.8734 48.857 23.7281 50.0024 22.3995 49.9565C21.0251 49.9565 19.9256 48.857 19.9256 47.4826Z" fill="#FFFFFF"/>
<defs>
<linearGradient id="paint0_linear_553_37801" x1="18.4544" y1="30.2624" x2="64.2673" y2="76.0753" gradientUnits="userSpaceOnUse">
<stop stop-color="#FFFFFF"/>
<stop offset="1" stop-color="#FFFFFF"/>
</linearGradient>
<linearGradient id="paint1_linear_553_37801" x1="29.4313" y1="19.2862" x2="75.2443" y2="65.0992" gradientUnits="userSpaceOnUse">
<stop stop-color="#FFFFFF"/>
<stop offset="1" stop-color="#FFFFFF"/>
</linearGradient>
<linearGradient id="paint2_linear_553_37801" x1="37.3602" y1="11.3564" x2="83.1731" y2="57.1693" gradientUnits="userSpaceOnUse">
<stop stop-color="#FFFFFF"/>
<stop offset="1" stop-color="#FFFFFF"/>
</linearGradient>
<linearGradient id="paint3_linear_553_37801" x1="35.3822" y1="13.3342" x2="81.1958" y2="59.1478" gradientUnits="userSpaceOnUse">
<stop stop-color="#FFFFFF"/>
<stop offset="1" stop-color="#FFFFFF"/>
</linearGradient>
<linearGradient id="paint4_linear_553_37801" x1="47.0502" y1="32" x2="47.0502" y2="63" gradientUnits="userSpaceOnUse">
<stop stop-color="#FFFFFF"/>
<stop offset="1" stop-color="#FFFFFF"/>
</linearGradient>
<linearGradient id="paint5_linear_553_37801" x1="28.9473" y1="15.8084" x2="80.4243" y2="67.2855" gradientUnits="userSpaceOnUse">
<stop stop-color="#FFFFFF"/>
<stop offset="1" stop-color="#FFFFFF"/>
</linearGradient>
<linearGradient id="paint6_linear_553_37801" x1="23.5834" y1="25.1344" x2="69.3955" y2="70.9466" gradientUnits="userSpaceOnUse">
<stop stop-color="#FFFFFF"/>
<stop offset="1" stop-color="#FFFFFF"/>
</linearGradient>
<linearGradient id="paint7_linear_553_37801" x1="30.2805" y1="18.4367" x2="76.0941" y2="64.2503" gradientUnits="userSpaceOnUse">
<stop stop-color="#FFFFFF"/>
<stop offset="1" stop-color="#FFFFFF"/>
</linearGradient>
<linearGradient id="paint8_linear_553_37801" x1="21.0198" y1="20.5423" x2="72.0929" y2="71.6154" gradientUnits="userSpaceOnUse">
<stop stop-color="#FFFFFF"/>
<stop offset="1" stop-color="#FFFFFF"/>
</linearGradient>
<linearGradient id="paint9_linear_553_37801" x1="6.86479" y1="35.0034" x2="57.6906" y2="85.8293" gradientUnits="userSpaceOnUse">
<stop stop-color="#FFFFFF"/>
<stop offset="1" stop-color="#FFFFFF"/>
</linearGradient>
<linearGradient id="paint10_linear_553_37801" x1="24.7012" y1="24.0168" x2="70.5135" y2="69.8291" gradientUnits="userSpaceOnUse">
<stop stop-color="#FFFFFF"/>
<stop offset="1" stop-color="#FFFFFF"/>
</linearGradient>
<linearGradient id="paint11_linear_553_37801" x1="13" y1="44.976" x2="79" y2="44.976" gradientUnits="userSpaceOnUse">
<stop stop-color="#FFFFFF"/>
<stop offset="1" stop-color="#FFFFFF"/>
</linearGradient>
<linearGradient id="paint12_linear_553_37801" x1="9.25312" y1="41.258" x2="84.848" y2="41.258" gradientUnits="userSpaceOnUse">
<stop stop-color="#FFFFFF"/>
<stop offset="1" stop-color="#FFFFFF"/>
</linearGradient>
<linearGradient id="paint13_linear_553_37801" x1="9.25342" y1="31.785" x2="84.8481" y2="31.785" gradientUnits="userSpaceOnUse">
<stop stop-color="#FFFFFF"/>
<stop offset="1" stop-color="#FFFFFF"/>
</linearGradient>
<linearGradient id="paint14_linear_553_37801" x1="9.25322" y1="78.8638" x2="84.8482" y2="78.8638" gradientUnits="userSpaceOnUse">
<stop stop-color="#FFFFFF"/>
<stop offset="1" stop-color="#FFFFFF"/>
</linearGradient>
<linearGradient id="paint15_linear_553_37801" x1="4.45019" y1="12.6194" x2="89.6492" y2="12.6194" gradientUnits="userSpaceOnUse">
<stop stop-color="#FFFFFF"/>
<stop offset="1" stop-color="#FFFFFF"/>
</linearGradient>
<linearGradient id="paint16_linear_553_37801" x1="4.4502" y1="60.6171" x2="89.6492" y2="60.6171" gradientUnits="userSpaceOnUse">
<stop stop-color="#FFFFFF"/>
<stop offset="1" stop-color="#FFFFFF"/>
</linearGradient>
<linearGradient id="paint17_linear_553_37801" x1="4.44995" y1="69.9881" x2="89.6493" y2="69.9881" gradientUnits="userSpaceOnUse">
<stop stop-color="#FFFFFF"/>
<stop offset="1" stop-color="#FFFFFF"/>
</linearGradient>
</defs>
</svg>
