<svg width="85" height="78" viewBox="0 0 85 78" fill="none" xmlns="http://www.w3.org/2000/svg">
<g clip-path="url(#clip0_205_710)">
<path d="M57.8178 9.37033C57.8178 10.8342 56.6311 12.0209 55.1672 12.0209C53.7033 12.0209 52.5166 10.8342 52.5166 9.37033C52.5166 7.90646 53.7033 6.71976 55.1672 6.71976C56.6311 6.71976 57.8178 7.90646 57.8178 9.37033Z" fill="url(#paint0_linear_205_710)"/>
<path d="M45.1088 18.3308C45.1088 19.7947 43.9221 20.9814 42.4582 20.9814C40.9943 20.9814 39.8076 19.7947 39.8076 18.3308C39.8076 16.8669 40.9943 15.6802 42.4582 15.6802C43.9221 15.6802 45.1088 16.8669 45.1088 18.3308Z" fill="url(#paint1_linear_205_710)"/>
<path d="M72.2603 25.7787C72.2603 26.536 72.5127 27.1671 73.0176 27.6719C73.5224 28.1768 74.1535 28.4292 74.9108 28.4292C76.4254 28.4292 77.5614 27.2933 77.5614 25.7787C77.5614 24.264 76.4254 23.1281 74.9108 23.1281C73.3962 23.1281 72.2603 24.264 72.2603 25.7787Z" fill="url(#paint2_linear_205_710)"/>
<path d="M30.8886 0.00801849V4.71534C32.9729 5.23057 34.5186 7.10413 34.5186 9.32898C34.5186 11.6007 32.9261 13.4977 30.7949 13.9895C30.7949 14.5515 30.7715 15.1136 30.7715 15.6757C30.748 16.9872 30.7246 18.2284 30.7949 19.493C31.0291 19.6804 31.2399 19.8678 31.4741 20.0551C31.9659 20.4532 32.4811 20.8748 32.9963 21.2495C33.0432 21.2729 33.0666 21.3198 33.1134 21.3432C33.1603 21.4134 33.2071 21.4603 33.2774 21.554C33.816 21.9521 34.3312 22.3736 34.8465 22.7952C35.4085 23.2402 35.9706 23.7086 36.5561 24.1535C36.8371 24.3409 36.9776 24.6453 36.9776 24.9732V36.964H41.4039C41.4039 31.4838 41.4039 25.9334 41.4273 23.006C39.3664 22.5376 37.7973 20.7577 37.7036 18.6031C37.7036 18.5094 37.6802 18.4392 37.6802 18.3455C37.6802 18.2752 37.7036 18.1816 37.7036 18.1113C37.8207 15.582 39.9051 13.5913 42.4578 13.5913C45.0105 13.5913 47.0949 15.582 47.212 18.1113C47.212 18.1816 47.2354 18.2752 47.2354 18.3455C47.2354 18.4392 47.212 18.5094 47.212 18.6031C47.1183 20.7577 45.5492 22.5376 43.4883 23.006C43.5117 25.9334 43.5117 31.4838 43.5117 36.964H47.938V24.9732C47.938 24.6453 48.0785 24.3409 48.3595 24.1535C48.945 23.7086 49.5071 23.2402 50.0691 22.7952C50.5844 22.3736 51.0996 21.9521 51.6382 21.554C51.7085 21.4603 51.7553 21.4134 51.8022 21.3432C51.849 21.3198 51.8724 21.2729 51.9193 21.2495C52.4345 20.8748 52.9497 20.4532 53.4415 20.0551C53.6757 19.8678 53.8865 19.6804 54.1207 19.493C54.191 18.2284 54.1675 16.9872 54.1441 15.6757C54.1441 15.1136 54.1207 14.5515 54.1207 13.9895C51.9895 13.4977 50.397 11.6007 50.397 9.32898C50.397 7.17439 51.8256 5.3945 53.7928 4.7856V0.00801849H30.8886ZM37.9847 24.9732C37.9847 24.3409 37.6802 23.732 37.165 23.3573C36.5795 22.9123 36.0409 22.4673 35.4788 22.0223C34.987 21.6242 34.4952 21.2261 33.9799 20.828C33.9331 20.7577 33.8863 20.7109 33.816 20.6406C33.7457 20.5703 33.6755 20.5001 33.5818 20.4532C33.09 20.0785 32.5982 19.6804 32.1064 19.2823C31.9893 19.1886 31.8956 19.0949 31.7785 19.0012C31.7317 17.9239 31.7551 16.8466 31.7785 15.6991C31.7785 15.3712 31.7785 15.0433 31.7785 14.7155C33.9799 13.8958 35.5256 11.7412 35.5256 9.32898C35.5256 6.94019 34.0502 4.85585 31.8956 3.98933V0.991638H52.7858V4.10643C50.7249 5.01979 49.39 7.03387 49.39 9.32898C49.39 11.7412 50.9357 13.8958 53.1371 14.7155C53.1371 15.0433 53.1371 15.3712 53.1371 15.6991C53.1605 16.8466 53.1839 17.9239 53.1371 19.0012C53.0434 19.0949 52.9263 19.1886 52.8092 19.2823C52.3174 19.6804 51.8256 20.0785 51.3338 20.4298C51.2401 20.5001 51.1699 20.5703 51.0996 20.6406C51.0528 20.7109 50.9825 20.7577 50.9357 20.828C50.4204 21.2261 49.9286 21.6242 49.4368 22.0223C48.8747 22.4907 48.3127 22.9123 47.7506 23.3573C47.2354 23.732 46.9309 24.3409 46.9309 24.9732V35.9804H44.4953C44.4953 31.2496 44.4953 26.6126 44.4953 23.732C46.603 22.9357 48.1019 20.9451 48.219 18.6499C48.219 18.5563 48.219 18.4392 48.219 18.3455C48.219 18.2518 48.219 18.1581 48.219 18.041C48.0551 14.9731 45.5258 12.5843 42.4578 12.5843C39.3898 12.5843 36.8605 14.9731 36.6966 18.041C36.6966 18.1581 36.6966 18.2518 36.6966 18.3455C36.6966 18.4392 36.6966 18.5563 36.6966 18.6499C36.8137 20.9451 38.3125 22.9357 40.4203 23.732C40.4203 26.6126 40.4203 31.2496 40.4203 35.9804H37.9847V24.9732Z" fill="url(#paint3_linear_205_710)"/>
<path d="M21.2219 0.0302124L9.10498 21.1086C9.35742 20.9824 9.73607 20.9824 9.98851 20.9824C12.6391 20.9824 14.7848 23.1281 14.7848 25.7787C14.7848 26.7884 14.5324 27.672 13.9013 28.4293C14.1537 28.6817 15.7945 30.1963 16.2994 30.8274C16.5518 31.0798 16.5518 31.3323 16.5518 31.5847V37.0121H24.756V30.4488C22.989 29.0604 21.3481 27.672 19.5811 26.1573C19.5811 26.1573 19.3286 25.7787 19.2024 25.5262C19.0762 24.8952 19.2024 23.8854 19.2024 23.0019V22.7495C17.0567 22.2446 15.4159 20.3513 15.4159 18.0794C15.4159 15.4288 17.5616 13.2831 20.2122 13.2831C22.8627 13.2831 25.0084 15.4288 25.0084 18.0794C25.0084 20.3513 23.3676 22.2446 21.2219 22.7495C21.2219 22.7495 21.2219 24.3903 21.2219 24.8952C22.989 26.2836 24.756 27.7982 26.3968 29.1866C26.6493 29.3128 26.7755 29.6914 26.7755 29.9439V37.0121H34.8535V25.5262C34.4748 25.1476 32.4553 23.5068 31.9504 23.1281L31.8242 23.0019L31.5718 22.8757C31.0669 22.497 29.4261 21.1086 29.1736 20.8562C28.9212 20.6037 28.795 20.3513 28.795 20.0989C28.6688 18.5843 28.6688 17.0696 28.6688 15.6812C28.6688 15.0502 28.6688 14.5453 28.6688 14.0404C26.5231 13.5355 25.0084 11.6423 25.0084 9.37035C25.0084 7.22464 26.3968 5.33137 28.4163 4.8265V0.0302124H21.2219Z" fill="url(#paint4_linear_205_710)"/>
<path d="M56.2462 0.0302124V4.70028C58.3919 5.20515 59.9065 7.09842 59.9065 9.37035C59.9065 11.6423 58.3919 13.5355 56.2462 14.0404C56.2462 14.5453 56.2462 15.0502 56.2462 15.6812C56.2462 17.0696 56.2462 18.5843 56.12 20.0989C56.12 20.3513 55.9938 20.6037 55.7413 20.8562C55.4889 21.1086 53.8481 22.497 53.3432 22.8757L53.0908 23.0019L52.9645 23.1281C52.4597 23.5068 50.4402 25.1476 50.0615 25.5262V37.0121H58.1395V29.9439C58.1395 29.6914 58.2657 29.3128 58.5181 29.1866C60.159 27.7982 61.926 26.2836 63.6931 24.8952C63.6931 24.3903 63.6931 23.633 63.6931 23.1281V22.7495C61.5474 22.2446 59.9065 20.3513 59.9065 18.0794C59.9065 15.4288 62.0522 13.2831 64.7028 13.2831C67.3534 13.2831 69.4991 15.4288 69.4991 18.0794C69.4991 20.3513 67.8583 22.2446 65.7126 22.7495V23.0019C65.7126 23.8854 65.8388 24.8952 65.7126 25.5262C65.5863 25.7787 65.3339 26.1573 65.3339 26.1573C63.5668 27.672 61.926 29.0604 60.159 30.4488V37.0121H68.3631V31.5847C68.3631 31.3323 68.3631 31.0798 68.6156 30.8274C69.1204 30.1963 69.6253 29.6914 70.2564 29.1866C70.5088 28.9341 70.7613 28.6817 71.0137 28.4293C70.3826 27.672 70.1302 26.7884 70.1302 25.7787C70.1302 23.1281 72.2759 20.9824 74.9265 20.9824C75.1789 20.9824 75.5576 20.9824 75.81 21.1086L63.6931 0.0302124H56.2462Z" fill="url(#paint5_linear_205_710)"/>
<path d="M32.3988 9.37033C32.3988 10.8342 31.2121 12.0209 29.7482 12.0209C28.2844 12.0209 27.0977 10.8342 27.0977 9.37033C27.0977 7.90646 28.2844 6.71976 29.7482 6.71976C31.2121 6.71976 32.3988 7.90646 32.3988 9.37033Z" fill="url(#paint6_linear_205_710)"/>
<path d="M74.9113 30.5249C74.0112 30.5249 73.1836 30.2781 72.4577 29.8426C72.1963 30.1184 71.935 30.3797 71.6737 30.6411C71.2526 31.0621 70.817 31.4977 70.396 31.9333V36.9713H84.7986L84.9148 36.768L79.4267 27.2727C78.8024 29.1602 77.0166 30.5249 74.9113 30.5249ZM79.4557 29.3054L83.3032 35.9695H71.3978V32.3398C71.7172 32.0059 72.0511 31.6719 72.3851 31.3525C72.4722 31.2509 72.5593 31.1638 72.6609 31.0621C73.3723 31.367 74.1273 31.5267 74.9113 31.5267C76.7262 31.5267 78.3813 30.6846 79.4557 29.3054Z" fill="url(#paint7_linear_205_710)"/>
<path d="M7.35547 25.7787C7.35547 27.2933 8.49143 28.4292 10.006 28.4292C10.7634 28.4292 11.3944 28.1768 11.7731 27.6719C12.278 27.1671 12.6566 26.536 12.6566 25.7787C12.6566 24.264 11.5207 23.1281 10.006 23.1281C8.49143 23.1281 7.35547 24.264 7.35547 25.7787Z" fill="url(#paint8_linear_205_710)"/>
<path d="M67.3388 18.0794C67.3388 19.5433 66.152 20.73 64.6882 20.73C63.2243 20.73 62.0376 19.5433 62.0376 18.0794C62.0376 16.6155 63.2243 15.4288 64.6882 15.4288C66.152 15.4288 67.3388 16.6155 67.3388 18.0794Z" fill="url(#paint9_linear_205_710)"/>
<path d="M22.8788 18.0794C22.8788 19.5433 21.6921 20.73 20.2282 20.73C18.7643 20.73 17.5776 19.5433 17.5776 18.0794C17.5776 16.6155 18.7643 15.4288 20.2282 15.4288C21.6921 15.4288 22.8788 16.6155 22.8788 18.0794Z" fill="url(#paint10_linear_205_710)"/>
<path d="M0.000488281 36.768L0.116639 36.9713H14.5193V31.9333C14.0982 31.4977 13.6627 31.0621 13.2416 30.6411C12.9803 30.3797 12.719 30.1184 12.4576 29.8426C11.7317 30.2781 10.9041 30.5249 10.0039 30.5249C7.89872 30.5249 6.1129 29.1602 5.48859 27.2727L0.000488281 36.768ZM5.45956 29.3054C6.53395 30.6846 8.18909 31.5267 10.0039 31.5267C10.788 31.5267 11.5429 31.367 12.2544 31.0621C12.356 31.1638 12.4431 31.2509 12.5302 31.3525C12.8641 31.6719 13.1981 32.0059 13.5175 32.3398V35.9695H1.61208L5.45956 29.3054Z" fill="url(#paint11_linear_205_710)"/>
<path d="M73.0176 50.0125C72.5127 50.5174 72.2603 51.1485 72.2603 51.9058C72.2603 53.4204 73.3962 54.5564 74.9108 54.5564C76.4254 54.5564 77.5614 53.4204 77.5614 51.9058C77.5614 50.3912 76.4254 49.2552 74.9108 49.2552C74.1535 49.2552 73.5224 49.5077 73.0176 50.0125Z" fill="url(#paint12_linear_205_710)"/>
<path d="M57.8178 68.3141C57.8178 69.778 56.6311 70.9647 55.1672 70.9647C53.7033 70.9647 52.5166 69.778 52.5166 68.3141C52.5166 66.8502 53.7033 65.6635 55.1672 65.6635C56.6311 65.6635 57.8178 66.8502 57.8178 68.3141Z" fill="url(#paint13_linear_205_710)"/>
<path d="M7.35547 51.9058C7.35547 53.4204 8.49143 54.5564 10.006 54.5564C11.5207 54.5564 12.6566 53.4204 12.6566 51.9058C12.6566 51.1485 12.4042 50.5174 11.8993 50.0125C11.3944 49.5077 10.7634 49.2552 10.006 49.2552C8.49143 49.2552 7.35547 50.3912 7.35547 51.9058Z" fill="url(#paint14_linear_205_710)"/>
<path d="M67.3388 59.6051C67.3388 61.069 66.152 62.2557 64.6882 62.2557C63.2243 62.2557 62.0376 61.069 62.0376 59.6051C62.0376 58.1412 63.2243 56.9545 64.6882 56.9545C66.152 56.9545 67.3388 58.1412 67.3388 59.6051Z" fill="url(#paint15_linear_205_710)"/>
<path d="M26.8214 41.3035V47.7406C26.8214 47.9931 26.6952 48.3717 26.4427 48.4979C24.6757 49.8863 22.9086 51.4009 21.2678 52.7893C21.2678 53.2942 21.2678 54.935 21.2678 54.935C23.4135 55.4399 25.0543 57.3332 25.0543 59.6051C25.0543 62.2557 22.9086 64.4014 20.2581 64.4014C17.6075 64.4014 15.4618 62.2557 15.4618 59.6051C15.4618 57.3332 17.1026 55.4399 19.1221 54.935V54.6826C19.1221 53.7991 19.1221 52.7893 19.2483 52.1582C19.2483 51.9058 19.3745 51.6534 19.627 51.5272C21.2678 50.0125 23.0349 48.6241 24.6757 47.2357V41.3035H16.5977V46.0998C16.5977 46.3522 16.4715 46.6047 16.3453 46.8571C15.8404 47.362 15.2093 47.993 14.7045 48.4979C14.452 48.7504 14.1996 49.0028 13.9472 49.2552C14.452 50.0125 14.8307 50.8961 14.8307 51.9058C14.8307 54.5564 12.685 56.7021 10.0344 56.7021C9.65575 56.7021 9.27709 56.5759 8.89844 56.5759L21.2678 77.9067H28.336V72.858C26.4427 72.2269 24.9281 70.4599 24.9281 68.3141C24.9281 66.0422 26.569 64.149 28.7147 63.6441C28.7147 63.1392 28.7147 62.6343 28.7147 62.0033C28.7147 60.6149 28.5884 59.1002 28.7147 57.5856C28.7147 57.3332 28.8409 57.0807 29.0933 56.8283C29.472 56.5759 31.1128 55.1875 31.6177 54.8088L31.7439 54.6826C31.7439 54.6826 33.0061 53.6729 33.5109 53.2942C34.0158 52.9156 34.3945 52.5369 34.8993 52.1582V41.3035H26.8214Z" fill="url(#paint16_linear_205_710)"/>
<path d="M43.5117 41.3384C43.5117 46.6078 43.5117 51.8538 43.4883 54.6641C45.5492 55.1325 47.1183 56.9124 47.212 59.067C47.212 59.1607 47.2354 59.2309 47.2354 59.3246C47.2354 59.3949 47.212 59.4885 47.212 59.5588C47.0949 62.0881 45.0105 64.0788 42.4578 64.0788C39.9051 64.0788 37.8207 62.0881 37.7036 59.5588C37.7036 59.4885 37.6802 59.3949 37.6802 59.3246C37.6802 59.2309 37.7036 59.1607 37.7036 59.067C37.7973 56.9124 39.3664 55.1325 41.4273 54.6641C41.4039 51.8538 41.4039 46.6078 41.4039 41.3384H36.9776V52.6969C36.9776 53.0247 36.8371 53.3292 36.5561 53.5166C35.9706 53.9615 35.4085 54.4299 34.8465 54.8749C34.3312 55.2964 33.816 55.718 33.2774 56.1161C33.2305 56.1864 33.1837 56.2566 33.1134 56.3269C33.0666 56.3503 33.0432 56.3972 32.9963 56.4206C32.4811 56.7953 31.9659 57.2168 31.4741 57.615C31.2399 57.8023 31.0291 57.9897 30.7949 58.177C30.7246 59.4417 30.748 60.6829 30.7715 61.9944C30.7715 62.5565 30.7949 63.1186 30.7949 63.6806C32.9261 64.1724 34.5186 66.0694 34.5186 68.3411C34.5186 70.5894 32.9495 72.4629 30.8417 72.9782V77.9197H54.0973V72.9782C51.9895 72.4864 50.397 70.6128 50.397 68.3411C50.397 66.0694 51.9895 64.1724 54.1207 63.6806C54.1207 63.1186 54.1441 62.5565 54.1441 61.9944C54.1675 60.6829 54.191 59.4417 54.1207 58.177C53.8865 57.9897 53.6757 57.8023 53.4415 57.615C52.9497 57.2168 52.4345 56.7953 51.9193 56.4206C51.8724 56.3972 51.849 56.3503 51.8022 56.3269C51.7319 56.2566 51.6851 56.1864 51.6382 56.1161C51.0996 55.718 50.5844 55.2964 50.0691 54.8749C49.5071 54.4299 48.945 53.9615 48.3595 53.5166C48.0785 53.3292 47.938 53.0247 47.938 52.6969V41.3384H43.5117ZM48.219 59.629C48.219 59.5119 48.219 59.4183 48.219 59.3246C48.219 59.2309 48.219 59.1138 48.219 59.0201C48.1019 56.725 46.603 54.7344 44.4953 53.9381C44.4953 51.198 44.4953 46.842 44.4953 42.3455H46.9309V52.6969C46.9309 53.3292 47.2354 53.9381 47.7506 54.3362C48.3361 54.7578 48.8747 55.2028 49.4602 55.6712C49.9286 56.0459 50.4204 56.444 50.9357 56.8421C50.9825 56.9124 51.0528 56.9826 51.123 57.0529C51.1933 57.0997 51.2635 57.17 51.3338 57.2168C51.8256 57.5916 52.294 57.9663 52.8092 58.3878C52.9263 58.4815 53.02 58.5752 53.1371 58.6688C53.1839 59.7461 53.1605 60.8234 53.1371 61.971C53.1371 62.2989 53.1371 62.6267 53.1371 62.9546C50.9357 63.7743 49.39 65.9289 49.39 68.3411C49.39 70.7767 50.8888 72.8845 53.1137 73.7276V76.9126H31.8488V73.7042C34.0502 72.8611 35.5256 70.7533 35.5256 68.3411C35.5256 65.9289 33.9799 63.7743 31.7785 62.9546C31.7785 62.6267 31.7785 62.2989 31.7785 61.971C31.7551 60.8234 31.7317 59.7461 31.7785 58.6688C31.8956 58.5752 32.0127 58.4815 32.1532 58.3644C32.6216 57.9897 33.09 57.5916 33.5818 57.2168C33.6521 57.17 33.7223 57.0997 33.816 57.0295C33.8628 56.9592 33.9331 56.9124 33.9799 56.8421C34.4952 56.444 34.987 56.0459 35.4554 55.6712C36.0409 55.2028 36.5795 54.7578 37.165 54.3362C37.6802 53.9381 37.9847 53.3292 37.9847 52.6969V42.3455H40.4203C40.4203 46.842 40.4203 51.198 40.4203 53.9381C38.3125 54.7344 36.8137 56.725 36.6966 59.0201C36.6966 59.1138 36.6966 59.2309 36.6966 59.3246C36.6966 59.4183 36.6966 59.5119 36.6966 59.629C36.8605 62.697 39.3898 65.0858 42.4578 65.0858C45.5258 65.0858 48.0551 62.697 48.219 59.629Z" fill="url(#paint17_linear_205_710)"/>
<path d="M60.2403 41.3035V47.2357C61.8811 48.6241 63.6481 50.0125 65.289 51.5272C65.5414 51.6534 65.6676 51.9058 65.6676 52.1582C65.7939 52.7893 65.7939 53.7991 65.7939 54.6826V54.935C67.8133 55.4399 69.4542 57.3332 69.4542 59.6051C69.4542 62.2557 67.3085 64.4014 64.6579 64.4014C62.0073 64.4014 59.8616 62.2557 59.8616 59.6051C59.8616 57.3332 61.5024 55.4399 63.6481 54.935V54.5564C63.6481 54.0515 63.6481 53.2942 63.6481 52.7893C62.0073 51.4009 60.2403 49.8863 58.4732 48.4979C58.2208 48.3717 58.0946 47.9931 58.0946 47.7406V41.3035H50.0166V52.1582C50.5215 52.5369 52.4147 54.1777 53.0458 54.5564L53.1721 54.6826L53.2983 54.8088C53.8031 55.1875 55.444 56.5759 55.8226 56.8283C56.0751 57.0807 56.2013 57.3332 56.2013 57.5856C56.3275 59.1002 56.2013 60.6149 56.2013 62.0033C56.2013 62.6343 56.2013 63.1392 56.2013 63.6441C58.347 64.149 59.9878 66.0422 59.9878 68.3141C59.9878 70.4599 58.4732 72.2269 56.5799 72.858V77.9067H63.6481L76.0175 56.5759C75.6389 56.5759 75.2602 56.7021 74.8815 56.7021C72.231 56.7021 70.0853 54.5564 70.0853 51.9058C70.0853 50.8961 70.4639 50.0125 70.9688 49.2552C70.7164 49.0028 70.4639 48.7504 70.2115 48.4979C69.7066 47.993 69.0755 47.362 68.5706 46.8571C68.4444 46.6047 68.3182 46.3522 68.3182 46.0998V41.3035H60.2403Z" fill="url(#paint18_linear_205_710)"/>
<path d="M22.8788 59.6051C22.8788 61.069 21.6921 62.2557 20.2282 62.2557C18.7643 62.2557 17.5776 61.069 17.5776 59.6051C17.5776 58.1412 18.7643 56.9545 20.2282 56.9545C21.6921 56.9545 22.8788 58.1412 22.8788 59.6051Z" fill="url(#paint19_linear_205_710)"/>
<path d="M32.3988 68.3141C32.3988 69.778 31.2121 70.9647 29.7482 70.9647C28.2844 70.9647 27.0977 69.778 27.0977 68.3141C27.0977 66.8502 28.2844 65.6635 29.7482 65.6635C31.2121 65.6635 32.3988 66.8502 32.3988 68.3141Z" fill="url(#paint20_linear_205_710)"/>
<path d="M45.1087 59.3529C45.1087 60.8167 43.922 62.0034 42.4582 62.0034C40.9943 62.0034 39.8076 60.8167 39.8076 59.3529C39.8076 57.889 40.9943 56.7023 42.4582 56.7023C43.922 56.7023 45.1087 57.889 45.1087 59.3529Z" fill="url(#paint21_linear_205_710)"/>
<path d="M70.396 41.3426V45.735C70.8136 46.1814 71.2457 46.6135 71.6777 47.0311C71.9369 47.2903 72.1961 47.5639 72.4554 47.8232C73.1754 47.3911 74.0107 47.1463 74.918 47.1463C77.0638 47.1463 78.8927 48.5864 79.4832 50.5594L84.7972 41.3426H70.396ZM72.3834 46.3254C72.0521 45.9942 71.7209 45.663 71.3897 45.3318V42.3507H83.0691L79.5264 48.4712C78.4607 47.0455 76.7469 46.1382 74.918 46.1382C74.1403 46.1382 73.3626 46.2966 72.657 46.5991C72.5706 46.5127 72.4698 46.4118 72.3834 46.3254Z" fill="url(#paint22_linear_205_710)"/>
<path d="M0.118164 41.3427L5.43217 50.5594C6.02261 48.5864 7.85155 47.1463 10.0117 47.1463C10.9046 47.1463 11.7399 47.3911 12.4599 47.8231C12.7191 47.5639 12.9783 47.2903 13.2376 47.0311C13.6696 46.6135 14.1016 46.1814 14.5193 45.735V41.3427H0.118164ZM1.8463 42.3507H13.5256V45.3318C13.1944 45.663 12.8631 45.9942 12.5319 46.3254C12.4455 46.4118 12.3447 46.5126 12.2583 46.5991C11.5526 46.2966 10.775 46.1382 10.0117 46.1382C8.16838 46.1382 6.45465 47.0455 5.38897 48.4712L1.8463 42.3507Z" fill="url(#paint23_linear_205_710)"/>
</g>
<defs>
<linearGradient id="paint0_linear_205_710" x1="55.1673" y1="-40.612" x2="55.1673" y2="85.606" gradientUnits="userSpaceOnUse">
<stop stop-color="#00FFFF"/>
<stop offset="1" stop-color="#5B97FF"/>
</linearGradient>
<linearGradient id="paint1_linear_205_710" x1="42.4578" y1="-40.613" x2="42.4578" y2="85.605" gradientUnits="userSpaceOnUse">
<stop stop-color="#00FFFF"/>
<stop offset="1" stop-color="#5B97FF"/>
</linearGradient>
<linearGradient id="paint2_linear_205_710" x1="74.9107" y1="-40.612" x2="74.9107" y2="85.606" gradientUnits="userSpaceOnUse">
<stop stop-color="#00FFFF"/>
<stop offset="1" stop-color="#5B97FF"/>
</linearGradient>
<linearGradient id="paint3_linear_205_710" x1="30.748" y1="18.4861" x2="54.1675" y2="18.4861" gradientUnits="userSpaceOnUse">
<stop stop-color="#00FFFF"/>
<stop offset="1" stop-color="#5B97FF"/>
</linearGradient>
<linearGradient id="paint4_linear_205_710" x1="21.9792" y1="-40.612" x2="21.9792" y2="85.606" gradientUnits="userSpaceOnUse">
<stop stop-color="#00FFFF"/>
<stop offset="0.2" stop-color="#00C7FF"/>
<stop offset="0.42" stop-color="#5B97FF"/>
<stop offset="0.63" stop-color="#7362FF"/>
<stop offset="0.83" stop-color="#853CFF"/>
<stop offset="1" stop-color="#9214F7"/>
</linearGradient>
<linearGradient id="paint5_linear_205_710" x1="62.9359" y1="-40.612" x2="62.9359" y2="85.606" gradientUnits="userSpaceOnUse">
<stop stop-color="#00FFFF"/>
<stop offset="0.2" stop-color="#00C7FF"/>
<stop offset="0.42" stop-color="#5B97FF"/>
<stop offset="0.63" stop-color="#7362FF"/>
<stop offset="0.83" stop-color="#853CFF"/>
<stop offset="1" stop-color="#9214F7"/>
</linearGradient>
<linearGradient id="paint6_linear_205_710" x1="29.7481" y1="-40.612" x2="29.7481" y2="85.606" gradientUnits="userSpaceOnUse">
<stop stop-color="#00FFFF"/>
<stop offset="1" stop-color="#5B97FF"/>
</linearGradient>
<linearGradient id="paint7_linear_205_710" x1="70.396" y1="32.1215" x2="84.9148" y2="32.1215" gradientUnits="userSpaceOnUse">
<stop stop-color="#00FFFF"/>
<stop offset="1" stop-color="#5B97FF"/>
</linearGradient>
<linearGradient id="paint8_linear_205_710" x1="10.0051" y1="-40.612" x2="10.0051" y2="85.606" gradientUnits="userSpaceOnUse">
<stop stop-color="#00FFFF"/>
<stop offset="1" stop-color="#5B97FF"/>
</linearGradient>
<linearGradient id="paint9_linear_205_710" x1="64.6871" y1="-40.612" x2="64.6871" y2="85.606" gradientUnits="userSpaceOnUse">
<stop stop-color="#00FFFF"/>
<stop offset="1" stop-color="#5B97FF"/>
</linearGradient>
<linearGradient id="paint10_linear_205_710" x1="20.2284" y1="-40.612" x2="20.2284" y2="85.606" gradientUnits="userSpaceOnUse">
<stop stop-color="#00FFFF"/>
<stop offset="1" stop-color="#5B97FF"/>
</linearGradient>
<linearGradient id="paint11_linear_205_710" x1="0.000488281" y1="32.1216" x2="14.5193" y2="32.1216" gradientUnits="userSpaceOnUse">
<stop stop-color="#00FFFF"/>
<stop offset="1" stop-color="#5B97FF"/>
</linearGradient>
<linearGradient id="paint12_linear_205_710" x1="74.9107" y1="-40.612" x2="74.9107" y2="85.606" gradientUnits="userSpaceOnUse">
<stop stop-color="#00FFFF"/>
<stop offset="1" stop-color="#5B97FF"/>
</linearGradient>
<linearGradient id="paint13_linear_205_710" x1="55.1673" y1="-40.612" x2="55.1673" y2="85.606" gradientUnits="userSpaceOnUse">
<stop stop-color="#00FFFF"/>
<stop offset="1" stop-color="#5B97FF"/>
</linearGradient>
<linearGradient id="paint14_linear_205_710" x1="10.0051" y1="-40.612" x2="10.0051" y2="85.606" gradientUnits="userSpaceOnUse">
<stop stop-color="#00FFFF"/>
<stop offset="1" stop-color="#5B97FF"/>
</linearGradient>
<linearGradient id="paint15_linear_205_710" x1="64.6871" y1="-40.612" x2="64.6871" y2="85.606" gradientUnits="userSpaceOnUse">
<stop stop-color="#00FFFF"/>
<stop offset="1" stop-color="#5B97FF"/>
</linearGradient>
<linearGradient id="paint16_linear_205_710" x1="21.8993" y1="-40.612" x2="21.8993" y2="85.606" gradientUnits="userSpaceOnUse">
<stop stop-color="#00FFFF"/>
<stop offset="0.2" stop-color="#00C7FF"/>
<stop offset="0.42" stop-color="#5B97FF"/>
<stop offset="0.63" stop-color="#7362FF"/>
<stop offset="0.83" stop-color="#853CFF"/>
<stop offset="1" stop-color="#9214F7"/>
</linearGradient>
<linearGradient id="paint17_linear_205_710" x1="30.748" y1="59.6285" x2="54.1675" y2="59.6285" gradientUnits="userSpaceOnUse">
<stop stop-color="#00FFFF"/>
<stop offset="1" stop-color="#5B97FF"/>
</linearGradient>
<linearGradient id="paint18_linear_205_710" x1="63.0167" y1="-40.612" x2="63.0167" y2="85.606" gradientUnits="userSpaceOnUse">
<stop stop-color="#00FFFF"/>
<stop offset="0.2" stop-color="#00C7FF"/>
<stop offset="0.42" stop-color="#5B97FF"/>
<stop offset="0.63" stop-color="#7362FF"/>
<stop offset="0.83" stop-color="#853CFF"/>
<stop offset="1" stop-color="#9214F7"/>
</linearGradient>
<linearGradient id="paint19_linear_205_710" x1="20.2284" y1="-40.612" x2="20.2284" y2="85.606" gradientUnits="userSpaceOnUse">
<stop stop-color="#00FFFF"/>
<stop offset="1" stop-color="#5B97FF"/>
</linearGradient>
<linearGradient id="paint20_linear_205_710" x1="29.7481" y1="-40.612" x2="29.7481" y2="85.606" gradientUnits="userSpaceOnUse">
<stop stop-color="#00FFFF"/>
<stop offset="1" stop-color="#5B97FF"/>
</linearGradient>
<linearGradient id="paint21_linear_205_710" x1="42.4578" y1="-40.611" x2="42.4578" y2="85.606" gradientUnits="userSpaceOnUse">
<stop stop-color="#00FFFF"/>
<stop offset="1" stop-color="#5B97FF"/>
</linearGradient>
<linearGradient id="paint22_linear_205_710" x1="70.396" y1="45.9508" x2="84.7972" y2="45.9508" gradientUnits="userSpaceOnUse">
<stop stop-color="#00FFFF"/>
<stop offset="1" stop-color="#5B97FF"/>
</linearGradient>
<linearGradient id="paint23_linear_205_710" x1="0.118164" y1="45.9508" x2="14.5193" y2="45.9508" gradientUnits="userSpaceOnUse">
<stop stop-color="#00FFFF"/>
<stop offset="1" stop-color="#5B97FF"/>
</linearGradient>
<clipPath id="clip0_205_710">
<rect width="85" height="78" fill="white"/>
</clipPath>
</defs>
</svg>
