<svg width="126" height="92" viewBox="0 0 126 92" fill="none" xmlns="http://www.w3.org/2000/svg">
<path d="M63.9449 72.6859C66.6726 73.3319 68.7183 75.7725 68.7183 78.7155C68.7183 82.125 65.9548 84.8886 62.5452 84.8886C59.1356 84.8886 56.3721 82.125 56.3721 78.7155C56.3721 75.7725 58.4178 73.3319 61.1455 72.6859V59.9449L44.6001 50.3622V81.2278L62.5452 91.5641L80.4903 81.2278V44.9787L63.9449 35.4319V72.6859ZM69.7232 78.7155C69.7232 75.6289 67.7852 72.9371 64.9498 71.9322V37.1546L79.4854 45.5529V80.6176L62.5452 90.4157L45.605 80.6176V52.1208L60.1406 60.5191V71.9322C57.3052 72.9371 55.3672 75.6289 55.3672 78.7155C55.3672 82.6634 58.5973 85.8935 62.5452 85.8935C66.4931 85.8935 69.7232 82.6634 69.7232 78.7155Z" fill="url(#paint0_linear_205_911)"/>
<path d="M64.6132 78.6971C64.6132 79.8389 63.6876 80.7644 62.5459 80.7644C61.4041 80.7644 60.4785 79.8389 60.4785 78.6971C60.4785 77.5553 61.4041 76.6298 62.5459 76.6298C63.6876 76.6298 64.6132 77.5553 64.6132 78.6971Z" fill="url(#paint1_linear_205_911)"/>
<path d="M95.094 52.7148C95.094 54.5711 93.5891 56.076 91.7328 56.076C89.8765 56.076 88.3716 54.5711 88.3716 52.7148C88.3716 50.8584 89.8765 49.3536 91.7328 49.3536C93.5891 49.3536 95.094 50.8584 95.094 52.7148Z" fill="url(#paint2_linear_205_911)"/>
<path d="M64.5846 12.1287C64.5846 13.255 63.6715 14.168 62.5452 14.168C61.4189 14.168 60.5059 13.255 60.5059 12.1287C60.5059 11.0024 61.4189 10.0893 62.5452 10.0893C63.6715 10.0893 64.5846 11.0024 64.5846 12.1287Z" fill="url(#paint3_linear_205_911)"/>
<path d="M36.7172 36.7415C36.7172 38.5979 35.2123 40.1027 33.3559 40.1027C31.4995 40.1027 29.9946 38.5979 29.9946 36.7415C29.9946 34.8851 31.4995 33.3802 33.3559 33.3802C35.2123 33.3802 36.7172 34.8851 36.7172 36.7415Z" fill="url(#paint4_linear_205_911)"/>
<path d="M44.6001 10.3654V47.1529L61.1455 56.6996V33.0121V18.1536C58.4178 17.5075 56.3721 15.0311 56.3721 12.124C56.3721 8.71445 59.1356 5.9509 62.5452 5.9509C65.9548 5.9509 68.7183 8.71445 68.7183 12.124C68.7183 15.0311 66.6726 17.5075 63.9449 18.1536V32.1866L80.4903 41.7334V10.3654L62.5452 -0.00686646L44.6001 10.3654ZM45.605 46.5786V10.9396L62.5452 1.14162L79.4854 10.9396V40.0107L64.9498 31.6124V18.8714C67.7852 17.8665 69.7232 15.2106 69.7232 12.124C69.7232 8.1761 66.4931 4.94598 62.5452 4.94598C58.5973 4.94598 55.3672 8.1761 55.3672 12.124C55.3672 15.2106 57.3052 17.8665 60.1406 18.8714V32.8686V33.1198V54.9769L45.605 46.5786Z" fill="url(#paint5_linear_205_911)"/>
<path d="M83.2983 22.5072L93.118 28.1988V46.7124C95.87 47.3378 97.934 49.7771 97.8715 52.7168C97.934 56.1568 95.182 58.9088 91.6795 58.9088C88.302 58.9088 85.55 56.1568 85.55 52.7793C85.55 49.7771 87.614 47.3378 90.366 46.7124L90.3035 29.7625L83.2983 25.7596V79.5489L102.187 68.6659V22.8825L83.2983 11.9995L83.2983 22.5072Z" fill="url(#paint6_linear_205_911)"/>
<path d="M22.9031 22.9065V68.6901L41.792 79.5731L41.792 69.1905L31.9723 63.4988L31.9723 42.7336C29.2203 42.1081 27.1563 39.6688 27.1563 36.7917C27.2188 33.3517 29.9708 30.5997 33.3483 30.5997C36.7883 30.5371 39.5403 33.2891 39.5403 36.7917C39.5403 39.6688 37.4763 42.1081 34.7869 42.7961L34.7243 61.8726L41.792 65.9381V12.0235L22.9031 22.9065Z" fill="url(#paint7_linear_205_911)"/>
<defs>
<linearGradient id="paint0_linear_205_911" x1="44.6001" y1="63.4981" x2="80.4903" y2="63.4981" gradientUnits="userSpaceOnUse">
<stop stop-color="#00FFFF"/>
<stop offset="1" stop-color="#5B97FF"/>
</linearGradient>
<linearGradient id="paint1_linear_205_911" x1="91.9036" y1="49.3474" x2="53.4343" y2="87.8167" gradientUnits="userSpaceOnUse">
<stop stop-color="#00FFFF"/>
<stop offset="1" stop-color="#5B97FF"/>
</linearGradient>
<linearGradient id="paint2_linear_205_911" x1="111.884" y1="32.58" x2="49.3386" y2="95.1258" gradientUnits="userSpaceOnUse">
<stop stop-color="#00FFFF"/>
<stop offset="1" stop-color="#5B97FF"/>
</linearGradient>
<linearGradient id="paint3_linear_205_911" x1="71.3077" y1="3.36115" x2="33.3594" y2="41.3095" gradientUnits="userSpaceOnUse">
<stop stop-color="#00FFFF"/>
<stop offset="1" stop-color="#5B97FF"/>
</linearGradient>
<linearGradient id="paint4_linear_205_911" x1="74.7078" y1="-4.59824" x2="12.1612" y2="57.9484" gradientUnits="userSpaceOnUse">
<stop stop-color="#00FFFF"/>
<stop offset="1" stop-color="#5B97FF"/>
</linearGradient>
<linearGradient id="paint5_linear_205_911" x1="44.6001" y1="28.3456" x2="80.4903" y2="28.3456" gradientUnits="userSpaceOnUse">
<stop stop-color="#00FFFF"/>
<stop offset="1" stop-color="#5B97FF"/>
</linearGradient>
<linearGradient id="paint6_linear_205_911" x1="106.19" y1="26.8857" x2="43.6447" y2="89.4314" gradientUnits="userSpaceOnUse">
<stop stop-color="#00FFFF"/>
<stop offset="0.2" stop-color="#00C7FF"/>
<stop offset="0.42" stop-color="#5B97FF"/>
<stop offset="0.63" stop-color="#7362FF"/>
<stop offset="0.83" stop-color="#853CFF"/>
<stop offset="1" stop-color="#9214F7"/>
</linearGradient>
<linearGradient id="paint7_linear_205_911" x1="81.4456" y1="2.1408" x2="18.8997" y2="64.6867" gradientUnits="userSpaceOnUse">
<stop stop-color="#00FFFF"/>
<stop offset="0.2" stop-color="#00C7FF"/>
<stop offset="0.42" stop-color="#5B97FF"/>
<stop offset="0.63" stop-color="#7362FF"/>
<stop offset="0.83" stop-color="#853CFF"/>
<stop offset="1" stop-color="#9214F7"/>
</linearGradient>
</defs>
</svg>
