<svg width="112" height="112" viewBox="0 0 112 112" fill="none" xmlns="http://www.w3.org/2000/svg">
<path d="M47.9772 65.9132C47.0536 66.8369 46.9612 68.407 47.8848 69.3306C48.8084 70.2542 50.4709 70.2542 51.3946 69.3306C52.3182 68.407 52.3182 66.7445 51.3946 65.8209C50.9327 65.3591 50.1939 65.1744 49.6397 65.1744C49.0855 65.1744 48.439 65.4514 47.9772 65.9132Z" fill="url(#paint0_linear_205_871)"/>
<path d="M39.066 54.5053C38.1424 55.429 38.0501 56.9991 39.066 58.0151C39.9897 58.9387 41.5598 58.8463 42.4834 57.9227C43.407 56.9991 43.4994 55.429 42.5758 54.5053C42.0216 53.9512 41.3751 53.8588 40.7285 53.7664C40.1744 53.7664 39.5278 54.0435 39.066 54.5053Z" fill="url(#paint1_linear_205_871)"/>
<path d="M91.6878 51.0198C91.6878 51.7587 92.0573 52.3129 92.5191 52.7747C92.8885 53.1441 93.4427 53.5136 94.1816 53.5136C95.4747 53.5136 96.583 52.4052 96.583 51.1122C96.583 49.6344 95.567 48.6184 94.0892 48.6184C92.7962 48.6184 91.6878 49.7268 91.6878 51.0198Z" fill="url(#paint2_linear_205_871)"/>
<path d="M16.7857 56.6509C15.4002 56.5585 14.2919 57.6668 14.3843 59.0522C14.2919 59.6988 14.6614 60.2529 15.1232 60.7147C15.585 61.1765 16.0468 61.4536 16.7856 61.4536C18.0787 61.4536 19.187 60.3453 19.187 59.0522C19.2794 57.6668 18.1711 56.5585 16.7857 56.6509Z" fill="url(#paint3_linear_205_871)"/>
<path d="M73.309 70.3225C72.0159 70.3225 70.9076 71.4309 70.9076 72.7239C70.9076 73.4628 71.277 74.017 71.6465 74.3864C72.1083 74.8482 72.6625 75.2177 73.4013 75.2177C74.6944 75.2177 75.8027 74.1093 75.8027 72.8163C75.8027 71.3385 74.7868 70.3225 73.309 70.3225Z" fill="url(#paint4_linear_205_871)"/>
<path d="M35.164 37.349C35.0716 37.9955 35.441 38.5497 35.9029 39.0115C36.3647 39.4733 36.8265 39.7504 37.5654 39.7504C38.8584 39.7504 39.9668 38.6421 39.9668 37.349C40.0591 35.9636 38.9508 34.8552 37.5654 34.9476C36.2723 34.9476 35.164 36.0559 35.164 37.349Z" fill="url(#paint5_linear_205_871)"/>
<path d="M57.2789 41.8342C56.3553 42.7578 56.263 44.328 57.2789 45.3439C58.2025 46.2675 59.7727 46.1752 60.6963 45.2516C61.6199 44.328 61.7123 42.7578 60.7887 41.8342C60.3269 41.3724 59.588 41.1877 59.0338 41.1877C58.3873 41.0953 57.7407 41.3724 57.2789 41.8342Z" fill="url(#paint6_linear_205_871)"/>
<path d="M69.089 53.8531C68.1654 54.7767 68.1654 56.4392 69.089 57.3628C70.0126 58.2864 71.5828 58.194 72.5064 57.2704C73.43 56.3468 73.5223 54.7767 72.5987 53.8531C72.1369 53.3913 71.398 53.2065 70.8439 53.2065C70.1974 53.1142 69.5508 53.3913 69.089 53.8531Z" fill="url(#paint7_linear_205_871)"/>
<path d="M57.1134 26.5407C56.1898 27.4643 56.0974 29.0344 57.021 29.9581C57.9447 30.8817 59.6072 30.8817 60.5308 29.9581C61.4544 29.0344 61.4544 27.3719 60.5308 26.4483C60.069 25.9865 59.3301 25.8018 58.7759 25.8018C58.2217 25.8018 57.5752 26.0789 57.1134 26.5407Z" fill="url(#paint8_linear_205_871)"/>
<path d="M48.1598 81.433C47.2362 82.3566 47.1438 83.9268 48.0675 84.8504C49.0834 85.8664 50.6536 85.774 51.5772 84.8504C52.5008 83.9268 52.5931 82.3566 51.5772 81.3407C51.1154 80.8789 50.4688 80.7865 49.8223 80.6941C49.2681 80.6941 48.6216 80.9712 48.1598 81.433Z" fill="url(#paint9_linear_205_871)"/>
<path d="M16.8072 64.3524C15.8468 64.3524 14.9567 64.0831 14.172 63.638L10.998 66.812L16.7252 72.5391L22.71 66.5543L19.6766 63.5209C18.8451 64.0479 17.8613 64.3524 16.8072 64.3524ZM19.501 64.7506L21.2929 66.5543L16.7252 71.122L12.4152 66.812L14.3711 64.8561C15.1558 65.184 15.9756 65.3597 16.8072 65.3597C17.7324 65.3597 18.646 65.1489 19.501 64.7506Z" fill="url(#paint10_linear_205_871)"/>
<path d="M24.1466 69.3613L18.8584 74.6495L47.3704 103.162C49.7001 105.491 52.7325 106.675 55.8389 106.675C58.9083 106.638 61.9777 105.491 64.3074 103.162L76.6219 90.847L70.0024 84.2275L55.1732 84.1905C54.9144 85.189 54.4336 86.1135 53.694 86.8531C52.6216 87.9255 51.2533 88.4802 49.885 88.4433C48.4798 88.4433 47.0745 87.9255 46.0391 86.8901C43.9312 84.7822 43.9312 81.306 46.0391 79.1981C46.7417 78.4955 47.5553 78.0517 48.4428 77.8299V72.8005C47.4813 72.5786 46.5938 72.0609 45.8542 71.3213C45.2995 70.7666 44.8557 70.1009 44.5968 69.3983L24.1466 69.3613ZM48.073 102.459L20.2637 74.6495L24.5534 70.3598L43.9312 70.3598C44.264 70.9885 44.6338 71.5802 45.1146 72.0609C45.7802 72.7266 46.5568 73.2073 47.4443 73.5031L47.4813 77.0902C46.6308 77.4231 45.9281 77.9038 45.3364 78.4955C42.8218 81.0102 42.8218 85.078 45.3364 87.5927C46.5568 88.8131 48.147 89.4417 49.885 89.4787C51.5861 89.4787 53.2133 88.8131 54.4336 87.5927C55.0993 86.9271 55.617 86.1135 55.9129 85.226H69.5956L75.2167 90.847L63.6048 102.459C61.5339 104.53 58.7604 105.676 55.8389 105.639C52.8805 105.639 50.1069 104.493 48.073 102.459Z" fill="url(#paint11_linear_205_871)"/>
<path d="M88.3149 43.1173L91.4932 46.2955C92.2878 45.8302 93.1959 45.5464 94.1834 45.5464C95.2618 45.5464 96.2493 45.8756 97.0893 46.4091L99.6659 43.8437L93.6272 37.805L88.3149 43.1173ZM89.7338 43.1173L93.6272 39.2125L98.2471 43.8437L96.919 45.1718C96.0563 44.7632 95.1255 44.5475 94.1834 44.5475C93.3207 44.5475 92.4921 44.7291 91.6862 45.0696L89.7338 43.1173Z" fill="url(#paint12_linear_205_871)"/>
<path d="M47.3496 8.47736L35.4326 20.3943L35.504 20.323L42.1404 26.9593L53.5221 26.9237C53.7362 25.996 54.2 25.0327 54.9493 24.2834C56.0197 23.213 57.4112 22.6778 58.8027 22.7135C60.1942 22.6778 61.5857 23.213 62.6561 24.2834C64.7612 26.3885 64.7612 29.8137 62.6204 31.9545C61.9068 32.6681 61.0862 33.1319 60.1585 33.346L60.1585 38.1984C61.1575 38.4125 62.1209 38.8763 62.8702 39.6256C63.4767 40.2321 63.9049 40.9457 64.1546 41.695L85.491 41.695L91.5208 35.6651L64.333 8.47736C61.9782 6.12252 58.9097 4.98077 55.8413 4.98077C52.7729 4.98077 49.6687 6.1582 47.3496 8.47736ZM36.9312 20.323L48.0632 9.19095C50.1326 7.12154 52.8799 6.01548 55.8413 5.9798C58.767 5.9798 61.55 7.12154 63.6194 9.19095L90.0936 35.6651L85.0628 40.696L64.7968 40.696C64.5114 40.0537 64.1189 39.4472 63.5837 38.912C62.9058 38.2341 62.0495 37.7346 61.1575 37.4134L61.1932 34.0952C62.0138 33.7741 62.7274 33.2746 63.334 32.6681C64.5471 31.455 65.225 29.8494 65.225 28.1368C65.225 26.4242 64.5828 24.7829 63.3697 23.5698C62.1566 22.3567 60.5153 21.7145 58.8027 21.7145C57.0901 21.7145 55.4845 22.3924 54.2714 23.6055C53.5935 24.2834 53.094 25.0683 52.7729 25.9603L42.5328 25.9246L36.9312 20.323Z" fill="url(#paint13_linear_205_871)"/>
<path d="M8.58303 47.3465C3.85099 52.0293 3.88446 59.6773 8.44725 64.294L9.047 64.8705L12.2801 61.7472C11.6757 60.9354 11.4218 59.999 11.2833 58.9427C11.3428 55.9997 13.7642 53.4808 16.8225 53.4203C17.6482 53.5217 18.3586 53.743 19.1889 54.0796L33.0345 40.156C32.4301 39.3442 32.1762 38.4079 32.153 37.2316C32.2125 34.2886 34.6338 31.7696 37.5768 31.8292C39.1083 31.9166 40.4138 32.4791 41.3734 33.4015C42.453 34.4393 43.0667 35.7215 42.9793 37.253C43.0397 40.3113 40.6137 42.595 37.5554 42.6554C36.8497 42.6694 36.0239 42.568 35.3089 42.1115L21.4633 56.0351C21.9524 56.9668 22.2063 57.9032 22.2249 58.8442C22.2435 59.7852 22.0268 60.7308 21.5703 61.4459L26.373 66.2932L44.3768 66.2905C44.5934 65.3448 45.0454 64.3945 45.7372 63.6748C47.9326 61.631 51.4614 61.5612 53.5052 63.7566C55.6643 65.8321 55.6141 69.2456 53.5386 71.4047C52.8468 72.1244 52.0304 72.4935 51.094 72.7474L51.1917 77.6877C52.022 78.0243 52.9723 78.4762 53.6921 79.168C54.2918 79.7445 54.7763 80.441 54.9102 81.2621L71.2672 81.2918L78.7088 88.6758L103.056 64.3072C107.788 59.6244 107.755 51.9764 103.192 47.3596L101.513 45.7454L98.976 48.3843C99.3451 49.2008 99.599 50.1371 99.6176 51.0781C99.558 54.0211 97.252 56.4201 94.1937 56.4806C93.368 56.3792 92.6576 56.1579 91.9472 55.9366L77.9817 69.7449C78.4708 70.6766 78.7246 71.613 78.8632 72.6693C78.8037 75.6123 76.3823 78.1313 73.4394 78.0718C70.3811 78.1322 67.9774 75.5909 68.0369 72.6479C67.9765 69.5896 70.4025 67.3059 73.4608 67.2455C74.1665 67.2315 75.1122 67.4482 75.7073 67.7894L89.4422 54.221L89.5528 53.8658C89.1837 53.0494 88.8099 51.9977 88.7913 51.0567C88.768 49.8805 89.1046 49.0501 89.5565 48.0998L86.078 44.756L64.3054 44.5979C63.9735 45.6635 63.6369 46.4939 62.8298 47.3336C60.7543 49.4927 57.3408 49.4425 55.1817 47.367C53.1379 45.1716 53.0682 41.6428 55.2636 39.599C55.8401 38.9993 56.5365 38.5148 57.4729 38.261L57.3753 33.3207C56.5495 33.2193 55.7145 32.6474 54.9948 31.9556C54.3951 31.3791 53.9106 30.6827 53.6614 29.9816L40.8332 29.882L33.3915 22.4981L33.5069 22.3781L8.58303 47.3465ZM65.557 54.34C65.7737 53.3944 66.2256 52.444 67.0327 51.6044C69.2281 49.5606 72.5216 49.4955 74.6807 51.5709C76.7246 53.7663 76.7943 57.2951 74.5989 59.3389C72.5235 61.498 69.11 61.4478 66.9509 59.3724C66.3511 58.7959 66.1019 58.0948 65.7328 57.2783L46.0821 57.3137C45.8655 58.2593 45.4136 59.2096 44.6065 60.0493C42.5264 61.9732 39.1175 62.1582 37.0737 59.9628C34.9146 57.8874 34.8449 54.3586 37.0403 52.3148C39.1157 50.1556 42.5292 50.2059 44.6883 52.2813C45.2881 52.8578 45.6572 53.6742 45.9064 54.3753L65.557 54.34Z" fill="url(#paint14_linear_205_871)"/>
<defs>
<linearGradient id="paint0_linear_205_871" x1="111.338" y1="129.272" x2="18.9765" y2="36.9111" gradientUnits="userSpaceOnUse">
<stop stop-color="#FFFFFF"/>
<stop offset="1" stop-color="#FFFFFF"/>
</linearGradient>
<linearGradient id="paint1_linear_205_871" x1="112.586" y1="128.025" x2="20.2244" y2="35.6635" gradientUnits="userSpaceOnUse">
<stop stop-color="#FFFFFF"/>
<stop offset="1" stop-color="#FFFFFF"/>
</linearGradient>
<linearGradient id="paint2_linear_205_871" x1="141.857" y1="98.7535" x2="49.4958" y2="6.39216" gradientUnits="userSpaceOnUse">
<stop stop-color="#FFFFFF"/>
<stop offset="1" stop-color="#FFFFFF"/>
</linearGradient>
<linearGradient id="paint3_linear_205_871" x1="99.1892" y1="141.419" x2="6.8289" y2="49.0592" gradientUnits="userSpaceOnUse">
<stop stop-color="#FFFFFF"/>
<stop offset="1" stop-color="#FFFFFF"/>
</linearGradient>
<linearGradient id="paint4_linear_205_871" x1="120.615" y1="119.995" x2="28.2544" y2="27.6342" gradientUnits="userSpaceOnUse">
<stop stop-color="#FFFFFF"/>
<stop offset="1" stop-color="#FFFFFF"/>
</linearGradient>
<linearGradient id="paint5_linear_205_871" x1="120.432" y1="120.18" x2="28.0703" y2="27.8175" gradientUnits="userSpaceOnUse">
<stop stop-color="#FFFFFF"/>
<stop offset="1" stop-color="#FFFFFF"/>
</linearGradient>
<linearGradient id="paint6_linear_205_871" x1="128.028" y1="112.583" x2="35.6668" y2="20.2211" gradientUnits="userSpaceOnUse">
<stop stop-color="#FFFFFF"/>
<stop offset="1" stop-color="#FFFFFF"/>
</linearGradient>
<linearGradient id="paint7_linear_205_871" x1="127.922" y1="112.688" x2="35.5615" y2="20.3265" gradientUnits="userSpaceOnUse">
<stop stop-color="#FFFFFF"/>
<stop offset="1" stop-color="#FFFFFF"/>
</linearGradient>
<linearGradient id="paint8_linear_205_871" x1="133.866" y1="103.293" x2="41.5045" y2="10.9315" gradientUnits="userSpaceOnUse">
<stop stop-color="#FFFFFF"/>
<stop offset="1" stop-color="#FFFFFF"/>
</linearGradient>
<linearGradient id="paint9_linear_205_871" x1="103.669" y1="136.942" x2="11.3081" y2="44.5807" gradientUnits="userSpaceOnUse">
<stop stop-color="#FFFFFF"/>
<stop offset="1" stop-color="#FFFFFF"/>
</linearGradient>
<linearGradient id="paint10_linear_205_871" x1="10.998" y1="68.0299" x2="22.71" y2="68.0299" gradientUnits="userSpaceOnUse">
<stop stop-color="#FFFFFF"/>
<stop offset="1" stop-color="#FFFFFF"/>
</linearGradient>
<linearGradient id="paint11_linear_205_871" x1="29.2499" y1="64.258" x2="66.2304" y2="101.239" gradientUnits="userSpaceOnUse">
<stop stop-color="#FFFFFF"/>
<stop offset="1" stop-color="#FFFFFF"/>
</linearGradient>
<linearGradient id="paint12_linear_205_871" x1="88.3149" y1="42.107" x2="99.6659" y2="42.107" gradientUnits="userSpaceOnUse">
<stop stop-color="#FFFFFF"/>
<stop offset="1" stop-color="#FFFFFF"/>
</linearGradient>
<linearGradient id="paint13_linear_205_871" x1="45.6369" y1="10.19" x2="81.3164" y2="45.8695" gradientUnits="userSpaceOnUse">
<stop stop-color="#FFFFFF"/>
<stop offset="1" stop-color="#FFFFFF"/>
</linearGradient>
<linearGradient id="paint14_linear_205_871" x1="119.697" y1="-10.6255" x2="4.39542" y2="109.325" gradientUnits="userSpaceOnUse">
<stop stop-color="#FFFFFF"/>
<stop offset="0.2" stop-color="#FFFFFF"/>
<stop offset="0.42" stop-color="#FFFFFF"/>
<stop offset="0.63" stop-color="#FFFFFF"/>
<stop offset="0.83" stop-color="#FFFFFF"/>
<stop offset="1" stop-color="#FFFFFF"/>
</linearGradient>
</defs>
</svg>
