<svg width="30" height="28" viewBox="0 0 30 28" fill="none" xmlns="http://www.w3.org/2000/svg">
<g clip-path="url(#clip0_300_1486)">
<path d="M16.4 28H13.6C12.6538 28 11.855 27.3385 11.7425 26.46L11.4437 24.2713C10.8475 24.0905 10.2725 23.8677 9.72625 23.6075L7.85875 24.962C7.10125 25.5092 6.035 25.4462 5.3775 24.815L3.40875 22.9775C2.7375 22.3697 2.67 21.3745 3.25625 20.6687L4.7075 18.9245C4.4275 18.4147 4.18875 17.878 3.99625 17.3215L1.64625 17.0427C0.70875 16.9353 0 16.1898 0 15.3067V12.6933C0 11.8102 0.70875 11.0647 1.65 10.9597L3.995 10.6808C4.18875 10.1243 4.4275 9.58767 4.70625 9.07783L3.25625 7.33483C2.66875 6.62783 2.7375 5.6315 3.415 5.01783L5.38375 3.18033C6.035 2.55383 7.1025 2.492 7.8575 3.038L9.725 4.39367C10.2713 4.1335 10.8462 3.91067 11.4437 3.72983L11.7425 1.5365C11.855 0.6615 12.6538 0 13.6 0H16.4C17.3463 0 18.145 0.6615 18.2575 1.54L18.5562 3.72867C19.1537 3.9095 19.7287 4.13233 20.275 4.3925L22.1425 3.038C22.9013 2.49083 23.9662 2.55383 24.6237 3.18617L26.5925 5.02367C27.2638 5.6315 27.3312 6.62667 26.745 7.3325L25.2938 9.07667C25.5738 9.5865 25.8125 10.1232 26.005 10.6797L28.355 10.9585C29.2913 11.0647 30 11.8102 30 12.6933V15.3067C30 16.1898 29.2913 16.9353 28.35 17.0403L26.005 17.3192C25.8113 17.8757 25.5725 18.4123 25.2938 18.9222L26.745 20.6652C27.3325 21.3722 27.2637 22.3673 26.5862 22.981L24.6175 24.8185C23.9662 25.445 22.8988 25.5092 22.1437 24.9608L20.275 23.6063C19.7287 23.8677 19.1537 24.0905 18.5575 24.2702L18.2588 26.4635C18.145 27.3385 17.3463 28 16.4 28ZM9.6625 22.33C9.76625 22.33 9.8725 22.3545 9.9675 22.4035C10.6562 22.7628 11.4025 23.0522 12.185 23.2622C12.425 23.3263 12.6012 23.5177 12.6325 23.7487L12.9825 26.3153C13.02 26.6082 13.2913 26.8333 13.6 26.8333H16.4C16.7087 26.8333 16.98 26.6082 17.0163 26.3212L17.3675 23.7498C17.3988 23.5188 17.575 23.3275 17.815 23.2633C18.5975 23.0533 19.3437 22.764 20.0325 22.4047C20.2512 22.2903 20.5238 22.3102 20.72 22.4537L22.9075 24.0403C23.1588 24.2223 23.5113 24.2072 23.7263 24.0007L25.7075 22.1515C25.9338 21.9462 25.9513 21.6172 25.7562 21.3815L24.0563 19.3398C23.9025 19.1555 23.8812 18.9023 24.0037 18.6982C24.3887 18.0553 24.6987 17.3588 24.9237 16.6285C24.9925 16.4045 25.1975 16.24 25.445 16.2108L28.195 15.8842C28.5087 15.848 28.75 15.5948 28.75 15.3067V12.6933C28.75 12.4052 28.5088 12.152 28.2013 12.1182L25.4463 11.7903C25.1987 11.7612 24.9938 11.5967 24.925 11.3727C24.7 10.6423 24.39 9.94583 24.005 9.303C23.8825 9.09883 23.9025 8.84567 24.0575 8.66133L25.7575 6.61967C25.9538 6.384 25.9363 6.055 25.7162 5.85667L23.735 4.0075C23.5163 3.79517 23.1625 3.77883 22.91 3.962L20.7225 5.54867C20.5237 5.69217 20.2525 5.712 20.0338 5.59767C19.3475 5.23833 18.6012 4.95017 17.8162 4.739C17.5763 4.67483 17.4 4.4835 17.3688 4.2525L17.0187 1.68583C16.98 1.39183 16.7087 1.16667 16.4 1.16667H13.6C13.2913 1.16667 13.02 1.39183 12.9838 1.67883L12.6325 4.25017C12.6012 4.48117 12.425 4.6725 12.185 4.73783C11.4 4.94783 10.6538 5.23717 9.9675 5.59533C9.74875 5.71083 9.4775 5.68983 9.27875 5.5475L7.09125 3.96083C6.83875 3.77767 6.4875 3.794 6.27375 3.99933L4.2925 5.84967C4.06625 6.055 4.04875 6.384 4.24375 6.61967L5.94375 8.66133C6.0975 8.84567 6.11875 9.09883 5.99625 9.303C5.61 9.94583 5.30125 10.6423 5.07625 11.3727C5.0075 11.5967 4.8025 11.7612 4.555 11.7903L1.805 12.117C1.49125 12.152 1.25 12.4052 1.25 12.6933V15.3067C1.25 15.5948 1.49125 15.848 1.79875 15.8818L4.55375 16.2097C4.80125 16.2388 5.00625 16.4033 5.075 16.6273C5.3 17.3577 5.61 18.0542 5.995 18.697C6.1175 18.9012 6.0975 19.1543 5.9425 19.3387L4.2425 21.3803C4.04625 21.616 4.06375 21.945 4.28375 22.1433L6.265 23.9925C6.48375 24.2037 6.835 24.22 7.09 24.038L9.2775 22.4513C9.39125 22.372 9.52625 22.33 9.6625 22.33Z" fill="#5B97FF"/>
<path d="M15 19.8334C11.5538 19.8334 8.75 17.2166 8.75 14.0001C8.75 10.7836 11.5538 8.16675 15 8.16675C18.4463 8.16675 21.25 10.7836 21.25 14.0001C21.25 17.2166 18.4463 19.8334 15 19.8334ZM15 9.33341C12.2425 9.33341 10 11.4264 10 14.0001C10 16.5737 12.2425 18.6667 15 18.6667C17.7575 18.6667 20 16.5737 20 14.0001C20 11.4264 17.7575 9.33341 15 9.33341Z" fill="#5B97FF"/>
</g>
<defs>
<clipPath id="clip0_300_1486">
<rect width="30" height="28" fill="white"/>
</clipPath>
</defs>
</svg>
