<svg width="26" height="26" viewBox="0 0 26 26" fill="none" xmlns="http://www.w3.org/2000/svg">
<path d="M13.0091 9.30933C12.2421 9.30933 11.4922 9.53678 10.8545 9.96293C10.2167 10.3891 9.71961 10.9948 9.42608 11.7034C9.13254 12.4121 9.05574 13.1919 9.20538 13.9442C9.35502 14.6965 9.72439 15.3875 10.2668 15.9299C10.8092 16.4723 11.5002 16.8417 12.2525 16.9913C13.0048 17.1409 13.7846 17.0641 14.4933 16.7706C15.2019 16.4771 15.8076 15.98 16.2338 15.3422C16.6599 14.7044 16.8874 13.9546 16.8874 13.1876C16.8861 12.1594 16.4772 11.1736 15.7501 10.4466C15.0231 9.71953 14.0373 9.31054 13.0091 9.30933ZM13.0091 15.5145C12.5489 15.5145 12.099 15.3781 11.7163 15.1224C11.3337 14.8667 11.0354 14.5033 10.8593 14.0781C10.6832 13.6529 10.6371 13.185 10.7269 12.7336C10.8167 12.2822 11.0383 11.8676 11.3637 11.5422C11.6891 11.2167 12.1038 10.9951 12.5551 10.9053C13.0065 10.8156 13.4744 10.8616 13.8996 11.0378C14.3248 11.2139 14.6882 11.5121 14.9439 11.8948C15.1996 12.2775 15.3361 12.7273 15.3361 13.1876C15.3354 13.8045 15.09 14.396 14.6538 14.8322C14.2175 15.2685 13.626 15.5138 13.0091 15.5145Z" fill="white"/>
<path d="M5.46472 8.36517C5.08331 8.22188 4.66112 8.23257 4.28746 8.39499C3.9138 8.55741 3.61797 8.85881 3.46255 9.23544C3.30714 9.61207 3.30432 10.0344 3.45471 10.413C3.6051 10.7917 3.89689 11.097 4.26835 11.2644C4.64625 11.4242 4.96868 11.6919 5.19537 12.0339C5.42206 12.3759 5.54295 12.7771 5.54295 13.1874C5.54295 13.5977 5.42206 13.999 5.19537 14.341C4.96868 14.683 4.64625 14.9506 4.26835 15.1105C3.8968 15.2778 3.60494 15.5832 3.45453 15.962C3.30412 16.3407 3.30697 16.7631 3.46247 17.1398C3.61797 17.5165 3.91392 17.8179 4.28769 17.9802C4.66147 18.1426 5.08375 18.1532 5.46518 18.0097C5.8458 17.8547 6.26371 17.8154 6.66654 17.8969C7.06937 17.9783 7.43921 18.1768 7.72975 18.4674C8.02028 18.7581 8.21859 19.1281 8.29982 19.5309C8.38105 19.9338 8.34159 20.3517 8.1864 20.7322C8.03846 21.1147 8.04764 21.5401 8.21195 21.9157C8.37625 22.2914 8.68235 22.587 9.06358 22.738C9.2545 22.817 9.4591 22.8577 9.66572 22.8577C9.96757 22.8598 10.2633 22.7728 10.5159 22.6075C10.7685 22.4422 10.9667 22.206 11.0856 21.9286C11.2455 21.5507 11.5131 21.2283 11.8551 21.0016C12.1971 20.7749 12.5983 20.654 13.0087 20.654C13.419 20.654 13.8202 20.7749 14.1622 21.0016C14.5042 21.2283 14.7719 21.5507 14.9317 21.9286C15.0991 22.3001 15.4044 22.592 15.7832 22.7424C16.1619 22.8928 16.5843 22.89 16.961 22.7345C17.3377 22.579 17.6391 22.283 17.8015 21.9093C17.9638 21.5355 17.9744 21.1132 17.8309 20.7318C17.6759 20.3511 17.6367 19.9332 17.7181 19.5304C17.7995 19.1276 17.998 18.7577 18.2887 18.4672C18.5793 18.1767 18.9493 17.9784 19.3522 17.8971C19.755 17.8159 20.1729 17.8554 20.5535 18.0105C20.9335 18.1581 21.3563 18.1502 21.7306 17.9885C22.1048 17.8269 22.4004 17.5245 22.5535 17.1466L21.8423 16.8376L21.1364 16.5733C20.4735 16.3024 19.7453 16.2336 19.0434 16.3756C18.3415 16.5175 17.6972 16.8638 17.1915 17.3709C16.6863 17.8802 16.3392 18.5248 16.192 19.227C16.0448 19.9291 16.1039 20.6589 16.3621 21.3282C16.0854 20.6676 15.6193 20.1037 15.0227 19.7076C14.426 19.3115 13.7254 19.1009 13.0092 19.1024C12.2914 19.1046 11.5897 19.3148 10.9889 19.7075C10.3881 20.1003 9.914 20.6587 9.62399 21.3153C9.89464 20.6523 9.96333 19.9242 9.82142 19.2223C9.67951 18.5204 9.33333 17.8761 8.82639 17.3704C8.31702 16.8652 7.67241 16.5181 6.97026 16.3709C6.26811 16.2238 5.53838 16.2828 4.86902 16.5409C5.5296 16.2642 6.09345 15.798 6.48949 15.2013C6.88553 14.6045 7.09602 13.9038 7.09444 13.1876C7.09221 12.4699 6.88201 11.7681 6.48927 11.1673C6.09652 10.5666 5.53808 10.0925 4.8815 9.80246C5.54443 10.0733 6.27264 10.142 6.97455 10.0001C7.67646 9.85822 8.32074 9.51194 8.82639 9.00485C9.33164 8.49552 9.67879 7.85092 9.82596 7.14875C9.97314 6.44659 9.91407 5.71684 9.65587 5.04748C9.93264 5.70806 10.3988 6.27191 10.9955 6.66795C11.5923 7.06399 12.2929 7.27449 13.0092 7.2729C13.7269 7.27068 14.4287 7.06048 15.0295 6.66773C15.6302 6.27499 16.1043 5.71654 16.3943 5.05997C16.1237 5.72293 16.055 6.45109 16.1969 7.15296C16.3388 7.85484 16.685 8.49912 17.1919 9.00485C17.7014 9.50985 18.346 9.85682 19.0481 10.004C19.7502 10.1511 20.4799 10.0922 21.1493 9.83434C20.4919 10.1105 19.9304 10.5741 19.5346 11.1672C19.1389 11.7604 18.9265 12.4569 18.9239 13.17C18.9213 13.883 19.1287 14.581 19.5201 15.1771C19.9115 15.7731 20.4697 16.2407 21.1251 16.5216C21.1272 16.528 21.1272 16.5349 21.1251 16.5413L21.842 16.8371L22.5548 17.1428L22.559 17.1329C22.7173 16.7573 22.7212 16.3344 22.5697 15.9559C22.4183 15.5774 22.1237 15.2739 21.75 15.1112C21.3721 14.9514 21.0496 14.6838 20.823 14.3418C20.5963 13.9997 20.4754 13.5985 20.4754 13.1882C20.4754 12.7779 20.5963 12.3767 20.823 12.0347C21.0496 11.6927 21.3721 11.425 21.75 11.2652C22.1215 11.0978 22.4134 10.7924 22.5638 10.4137C22.7142 10.0349 22.7114 9.61254 22.5559 9.23586C22.4004 8.85918 22.1044 8.55777 21.7306 8.39541C21.3569 8.23306 20.9346 8.22249 20.5531 8.36595C20.1725 8.52096 19.7546 8.56021 19.3518 8.47879C18.949 8.39736 18.5791 8.19888 18.2886 7.9082C17.998 7.61753 17.7997 7.24758 17.7185 6.84472C17.6373 6.44185 17.6767 6.02396 17.8319 5.64342C17.9753 5.262 17.9647 4.83976 17.8024 4.46603C17.64 4.0923 17.3386 3.7964 16.9619 3.64093C16.5853 3.48547 16.1629 3.48264 15.7842 3.63305C15.4055 3.78346 15.1001 4.07529 14.9328 4.44682C14.7729 4.82472 14.5053 5.14715 14.1633 5.37384C13.8213 5.60052 13.4201 5.72142 13.0097 5.72142C12.5994 5.72142 12.1982 5.60052 11.8562 5.37384C11.5142 5.14715 11.2466 4.82472 11.0867 4.44682C10.9193 4.07526 10.614 3.7834 10.2352 3.633C9.85648 3.48259 9.43407 3.48544 9.05739 3.64094C8.68071 3.79643 8.3793 4.09238 8.21694 4.46616C8.05459 4.83994 8.04402 5.26222 8.18748 5.64365C8.34249 6.02427 8.38175 6.44217 8.30032 6.845C8.21889 7.24783 8.02041 7.61768 7.72974 7.90821C7.43906 8.19875 7.06912 8.39705 6.66625 8.47828C6.26338 8.55951 5.8455 8.52006 5.46495 8.36486L5.46472 8.36517Z" fill="white"/>
</svg>
