<svg width="22" height="22" viewBox="0 0 22 22" fill="none" xmlns="http://www.w3.org/2000/svg">
<g clip-path="url(#clip0_533_2128)">
<path d="M20.4449 8.42769L19.3811 8.02435C19.2448 7.60706 19.0761 7.20102 18.8767 6.8099L19.3519 5.763C19.4986 5.43496 19.5427 5.07025 19.4784 4.7167C19.4142 4.36314 19.2447 4.03725 18.992 3.78176L17.9672 2.76056C17.711 2.51094 17.3855 2.34434 17.0332 2.28251C16.6809 2.22068 16.3181 2.26649 15.9922 2.41396L14.9488 2.88644C14.5575 2.68757 14.1515 2.51895 13.7344 2.38205L13.3355 1.3245C13.2116 0.984259 12.9861 0.690309 12.6896 0.482444C12.3931 0.27458 12.0399 0.16284 11.6778 0.162354H10.2417C9.88128 0.162327 9.52948 0.272776 9.23372 0.478823C8.93797 0.68487 8.71247 0.976613 8.58761 1.31475L8.18427 2.3785C7.76718 2.5154 7.36118 2.68403 6.96982 2.88289L5.9238 2.40864C5.59576 2.26153 5.23089 2.21709 4.87714 2.28116C4.52338 2.34524 4.19728 2.51483 3.94168 2.76765L2.92136 3.79683C2.67211 4.05251 2.50564 4.37735 2.44366 4.729C2.38168 5.08065 2.42705 5.44282 2.57387 5.76832L3.04636 6.81079C2.84579 7.20151 2.67597 7.60726 2.53841 8.02435L1.48176 8.42237C1.14158 8.5466 0.847863 8.77247 0.640442 9.06933C0.43302 9.36619 0.321939 9.71968 0.322269 10.0818V11.5179C0.321608 11.8785 0.431808 12.2306 0.63794 12.5265C0.844071 12.8223 1.13617 13.0477 1.47466 13.172L2.54373 13.5754C2.68009 13.9926 2.84874 14.3987 3.04813 14.7898L2.57299 15.8367C2.4263 16.1647 2.38218 16.5295 2.44641 16.883C2.51063 17.2366 2.68021 17.5625 2.93289 17.8179L3.95675 18.8391C4.21289 19.0889 4.5384 19.2555 4.89075 19.3174C5.2431 19.3792 5.60591 19.3333 5.93178 19.1857L6.97071 18.7133C7.36206 18.9121 7.76806 19.0808 8.18515 19.2177L8.58406 20.2752C8.70797 20.6154 8.93343 20.9094 9.22993 21.1173C9.52643 21.3251 9.87963 21.4369 10.2417 21.4374H11.6778C12.0383 21.4374 12.3901 21.3269 12.6858 21.1209C12.9816 20.9148 13.2071 20.6231 13.3319 20.285L13.7353 19.215C14.1524 19.0781 14.5584 18.9095 14.9497 18.7106L15.9966 19.1857C16.3246 19.3328 16.6894 19.3771 17.043 19.3129C17.3967 19.2486 17.7226 19.0789 17.9779 18.8258L18.9982 17.8046C19.2482 17.5485 19.4152 17.2229 19.4772 16.8704C19.5392 16.5178 19.4933 16.1548 19.3457 15.8287L18.8732 14.7889C19.0726 14.3978 19.2412 13.9918 19.3776 13.5745L20.4333 13.1764C20.7742 13.053 21.0688 12.8276 21.277 12.5308C21.4853 12.2341 21.5971 11.8804 21.5973 11.5179V10.0818C21.5979 9.72122 21.4877 9.36913 21.2816 9.07325C21.0755 8.77738 20.7834 8.55201 20.4449 8.42769ZM19.8244 11.5135L18.344 12.0719C17.5532 12.4478 17.657 13.6675 17.1207 14.3049C16.7209 14.8767 17.4823 15.8562 17.7412 16.5645L16.7217 17.5715L15.2768 16.9155C14.4134 16.631 13.7007 17.5485 12.8266 17.6389C12.1494 17.7665 11.9996 18.9686 11.6743 19.6644H10.2506L9.69213 18.1841C9.3145 17.3942 8.09651 17.4953 7.45737 16.9607C6.88649 16.5627 5.91227 17.3198 5.19956 17.5813L4.18723 16.5618L4.84321 15.1205C5.13308 14.2712 4.20939 13.5417 4.12074 12.6703C3.99309 11.9921 2.79105 11.8423 2.0943 11.5179L2.09519 10.0907L3.57557 9.53222C4.36629 9.15636 4.26258 7.93659 4.79888 7.29923C5.19779 6.72215 4.43987 5.74704 4.18457 5.03787L5.19779 4.0282L6.64272 4.68418C7.50613 4.96873 8.21884 4.05125 9.09289 3.96083C9.77014 3.83318 9.91995 2.63114 10.2453 1.93527H11.6769C12.0022 2.62848 12.1583 3.8314 12.8293 3.95817C13.7034 4.04681 14.417 4.96696 15.2795 4.68152L16.7244 4.02199L17.7323 5.03787L17.0763 6.47926C16.7865 7.32848 17.7101 8.05804 17.7988 8.92943C17.9256 9.60579 19.1285 9.76004 19.8252 10.0818L19.8244 11.5135Z" fill="#00FFFF"/>
<path d="M10.9594 5.48096C9.90743 5.48096 8.8791 5.7929 8.00444 6.37733C7.12977 6.96176 6.44806 7.79244 6.04549 8.76431C5.64293 9.73618 5.5376 10.8056 5.74283 11.8373C5.94805 12.8691 6.45461 13.8168 7.19845 14.5606C7.94229 15.3045 8.89 15.811 9.92174 16.0163C10.9535 16.2215 12.0229 16.1162 12.9948 15.7136C13.9667 15.311 14.7973 14.6293 15.3818 13.7546C15.9662 12.88 16.2781 11.8517 16.2781 10.7997C16.2767 9.38952 15.7159 8.03749 14.7187 7.04034C13.7216 6.04318 12.3696 5.48237 10.9594 5.48096ZM10.9594 14.3455C10.2581 14.3455 9.57253 14.1376 8.98942 13.748C8.40631 13.3583 7.95183 12.8046 7.68345 12.1566C7.41508 11.5087 7.34486 10.7958 7.48168 10.1079C7.61849 9.42013 7.9562 8.78832 8.45209 8.29242C8.94799 7.79653 9.5798 7.45882 10.2676 7.32201C10.9554 7.18519 11.6684 7.25541 12.3163 7.52378C12.9642 7.79216 13.518 8.24664 13.9076 8.82975C14.2973 9.41286 14.5052 10.0984 14.5052 10.7997C14.5052 11.7401 14.1316 12.642 13.4667 13.307C12.8017 13.972 11.8998 14.3455 10.9594 14.3455Z" fill="#00FFFF"/>
</g>
<defs>
<clipPath id="clip0_533_2128">
<rect width="21.275" height="21.275" fill="white" transform="translate(0.322266 0.162354)"/>
</clipPath>
</defs>
</svg>
