<svg width="40" height="40" viewBox="0 0 40 40" fill="none" xmlns="http://www.w3.org/2000/svg">
<g clip-path="url(#clip0_205_1022)">
<path d="M19.9991 28.0344C24.4039 28.0344 27.9747 24.4415 27.9747 20.0094C27.9747 15.5773 24.4039 11.9844 19.9991 11.9844C15.5942 11.9844 12.0234 15.5773 12.0234 20.0094C12.0234 24.4415 15.5942 28.0344 19.9991 28.0344Z" stroke="white" stroke-width="2.6" stroke-miterlimit="10" stroke-linecap="round" stroke-linejoin="round"/>
<path d="M5.89648 19.9531H12.0252L27.9765 20.0098H34.1052M25.6709 25.653L29.9899 29.9912M14.4866 25.8078L9.94977 30.3728" stroke="white" stroke-width="2.6" stroke-miterlimit="10" stroke-linecap="round" stroke-linejoin="round"/>
<path d="M31.6587 34.045C32.9632 34.045 34.0206 32.981 34.0206 31.6685C34.0206 30.356 32.9632 29.292 31.6587 29.292C30.3543 29.292 29.2969 30.356 29.2969 31.6685C29.2969 32.981 30.3543 34.045 31.6587 34.045Z" stroke="white" stroke-width="2.6" stroke-miterlimit="10" stroke-linecap="round" stroke-linejoin="round"/>
<path d="M20.0005 38.8282C21.305 38.8282 22.3624 37.7642 22.3624 36.4517C22.3624 35.1392 21.305 34.0752 20.0005 34.0752C18.6961 34.0752 17.6387 35.1392 17.6387 36.4517C17.6387 37.7642 18.6961 38.8282 20.0005 38.8282Z" stroke="white" stroke-width="2.6" stroke-miterlimit="10" stroke-linecap="round" stroke-linejoin="round"/>
<path d="M8.43121 34.5635C9.73564 34.5635 10.7931 33.4995 10.7931 32.187C10.7931 30.8745 9.73564 29.8105 8.43121 29.8105C7.12678 29.8105 6.06934 30.8745 6.06934 32.187C6.06934 33.4995 7.12678 34.5635 8.43121 34.5635Z" stroke="white" stroke-width="2.6" stroke-miterlimit="10" stroke-linecap="round" stroke-linejoin="round"/>
<path d="M3.53375 22.3291C4.83818 22.3291 5.89562 21.2652 5.89562 19.9527C5.89562 18.6402 4.83818 17.5762 3.53375 17.5762C2.22932 17.5762 1.17188 18.6402 1.17188 19.9527C1.17188 21.2652 2.22932 22.3291 3.53375 22.3291Z" stroke="white" stroke-width="2.6" stroke-miterlimit="10" stroke-linecap="round" stroke-linejoin="round"/>
<path d="M36.4654 22.3858C37.7698 22.3858 38.8273 21.3218 38.8273 20.0093C38.8273 18.6968 37.7698 17.6328 36.4654 17.6328C35.161 17.6328 34.1035 18.6968 34.1035 20.0093C34.1035 21.3218 35.161 22.3858 36.4654 22.3858Z" stroke="white" stroke-width="2.6" stroke-miterlimit="10" stroke-linecap="round" stroke-linejoin="round"/>
<path d="M20.0037 5.9248L19.9989 11.9843C19.9989 11.9843 13.345 19.4241 19.9989 28.0343V34.075M14.3366 14.3579L10.0146 10.0091M25.5059 14.2046L30.0548 9.62746" stroke="white" stroke-width="2.6" stroke-miterlimit="10" stroke-linecap="round" stroke-linejoin="round"/>
<path d="M8.34625 10.708C9.65068 10.708 10.7081 9.64406 10.7081 8.33156C10.7081 7.01907 9.65068 5.95508 8.34625 5.95508C7.04182 5.95508 5.98438 7.01907 5.98438 8.33156C5.98438 9.64406 7.04182 10.708 8.34625 10.708Z" stroke="white" stroke-width="2.6" stroke-miterlimit="10" stroke-linecap="round" stroke-linejoin="round"/>
<path d="M20.0064 5.92484C21.3108 5.92484 22.3683 4.86086 22.3683 3.54836C22.3683 2.23586 21.3108 1.17188 20.0064 1.17188C18.702 1.17188 17.6445 2.23586 17.6445 3.54836C17.6445 4.86086 18.702 5.92484 20.0064 5.92484Z" stroke="white" stroke-width="2.6" stroke-miterlimit="10" stroke-linecap="round" stroke-linejoin="round"/>
<path d="M31.5757 10.1905C32.8802 10.1905 33.9376 9.12648 33.9376 7.81398C33.9376 6.50149 32.8802 5.4375 31.5757 5.4375C30.2713 5.4375 29.2139 6.50149 29.2139 7.81398C29.2139 9.12648 30.2713 10.1905 31.5757 10.1905Z" stroke="white" stroke-width="2.6" stroke-miterlimit="10" stroke-linecap="round" stroke-linejoin="round"/>
<path d="M20 11.998C20 11.998 26.6538 19.4378 20 28.048" stroke="white" stroke-width="2.6" stroke-miterlimit="10" stroke-linecap="round" stroke-linejoin="round"/>
</g>
<defs>
<clipPath id="clip0_205_1022">
<rect width="40" height="40" fill="white"/>
</clipPath>
</defs>
</svg>
