<svg width="40" height="40" viewBox="0 0 40 40" fill="none" xmlns="http://www.w3.org/2000/svg">
<path d="M36.2347 26.4785V11.5289C37.5324 11.1046 38.4714 9.8849 38.4714 8.44528C38.4714 6.65293 37.0175 5.19972 35.2258 5.19972C34.0952 5.19972 33.1011 5.77827 32.5202 6.65497L23.1516 3.5456C23.1612 3.44579 23.1768 3.34764 23.1768 3.24564C23.1768 1.45329 21.723 0 19.9308 0C18.138 0 16.6853 1.45329 16.6853 3.24564C16.6853 3.35104 16.6913 3.4547 16.701 3.55693L7.47315 6.64734C6.89135 5.77457 5.89846 5.19926 4.77095 5.19926C2.9786 5.19926 1.52539 6.65247 1.52539 8.44483C1.52539 10.003 2.62368 11.3029 4.08784 11.6169V26.39C2.62368 26.704 1.52539 28.0038 1.52539 29.5621C1.52539 31.3544 2.9786 32.8079 4.77095 32.8079C6.12277 32.8079 7.28131 31.9805 7.76903 30.8049L17.1091 35.1503C16.8304 35.6389 16.6843 36.1919 16.6852 36.7544C16.6852 38.5469 18.138 39.9999 19.9308 39.9999C21.7229 39.9999 23.1767 38.5469 23.1767 36.7544C23.1767 36.1735 23.0181 35.6327 22.7501 35.161L32.2236 30.7933C32.7083 31.9753 33.8694 32.8082 35.2263 32.8082C37.0185 32.8082 38.4717 31.3552 38.4717 29.5627C38.4714 28.1219 37.5324 26.9032 36.2347 26.4785ZM5.78053 26.4785V11.5289C6.36052 11.3392 6.86123 10.9848 7.24635 10.5297L16.7585 14.9548C16.7101 15.179 16.6856 15.4078 16.6854 15.6371C16.6854 17.1952 17.7836 18.4952 19.2478 18.8092V22.7372L6.68524 26.9438C6.40992 26.7422 6.10463 26.5852 5.78053 26.4785ZM7.77756 28.3628L19.2474 24.5219V33.5823C18.9512 33.6455 18.6714 33.7512 18.411 33.8892L7.97409 29.0337C7.93543 28.7987 7.86356 28.5773 7.77756 28.3628ZM20.9403 33.6704V24.6274L32.2104 28.3683C32.1263 28.5788 32.0648 28.7976 32.0269 29.0211L21.455 33.8943C21.2905 33.8072 21.1194 33.729 20.9403 33.6704ZM20.9403 22.8443V18.7207C22.2379 18.2964 23.1768 17.0767 23.1768 15.6371C23.1768 15.4065 23.1513 15.1819 23.1058 14.965L32.7367 10.5246C33.192 11.0692 33.8224 11.4628 34.5429 11.6174V26.3906C34.0878 26.4877 33.6679 26.6818 33.3052 26.948L20.9403 22.8443ZM31.9897 8.26212C31.9861 8.3235 31.9808 8.3836 31.9808 8.44536C31.9808 8.63071 31.9974 8.8116 32.027 8.98865L22.3317 13.4585C21.9573 13.046 21.4811 12.73 20.9403 12.5531V6.32971C21.6016 6.11303 22.1675 5.68827 22.5662 5.13448L31.9897 8.26212ZM17.2992 5.14166C17.7615 5.78106 18.4494 6.24682 19.2473 6.41805V12.4651C18.5756 12.6088 17.9839 12.9617 17.5369 13.4504L7.96835 8.99824C7.9987 8.81787 8.01712 8.6338 8.01712 8.44483C8.01712 8.3802 8.01116 8.31656 8.00716 8.25276L17.2992 5.14166Z" fill="white"/>
</svg>
