<svg width="23" height="22" viewBox="0 0 23 22" fill="none" xmlns="http://www.w3.org/2000/svg">
<path d="M22.1937 12.1789C22.1324 12.1484 22.0711 12.1179 22.0098 12.0874C21.3665 11.8435 20.7232 11.5996 20.1105 11.3862C19.6203 11.2033 19.1302 11.0508 18.64 10.8069C17.721 10.3496 17.2002 9.58738 16.8632 8.64224C16.5263 7.66661 16.128 6.69098 15.7604 5.71535C15.7298 5.62389 15.6072 5.50194 15.4847 5.50194C15.3621 5.47145 15.2396 5.56291 15.1783 5.71535C14.8107 6.66049 14.4737 7.57514 14.1061 8.52028C13.9223 8.94712 13.7691 9.37396 13.5241 9.77031C13.2484 10.1971 12.8195 10.563 12.36 10.7459C11.4716 11.1118 10.5832 11.4472 9.69475 11.7825C9.35777 11.9045 9.02079 12.0264 8.68381 12.2094C8.5919 12.2399 8.5 12.3923 8.5 12.4838C8.5 12.5752 8.62254 12.6667 8.68381 12.7582C8.71444 12.7887 8.77571 12.8191 8.83698 12.8191C9.78665 13.185 10.7363 13.5204 11.686 13.8557C12.7276 14.2216 13.5241 14.8619 13.953 15.8985C14.2287 16.5692 14.4737 17.24 14.7188 17.8802C14.872 18.307 15.0558 18.7339 15.209 19.1912C15.2702 19.3437 15.3621 19.4656 15.5766 19.4961C15.6685 19.3741 15.791 19.2827 15.8217 19.1607C16.1893 18.2461 16.5263 17.3009 16.8632 16.3863C17.2002 15.4411 17.721 14.6484 18.6094 14.1911C19.0689 13.9472 19.5591 13.7948 20.0492 13.6118C20.7538 13.3374 21.4891 13.0935 22.1937 12.7887C22.3162 12.7277 22.4387 12.6057 22.5 12.4838C22.4694 12.3923 22.2856 12.2399 22.1937 12.1789Z" fill="white"/>
<path d="M0.714724 5.66226C1.42025 5.93416 2.12577 6.20606 2.83129 6.44775C3.53681 6.71966 4.08896 7.14262 4.36503 7.86769C4.45706 8.07917 4.54908 8.29066 4.6411 8.53235C4.85583 9.07615 5.03988 9.61996 5.2546 10.1638C5.28528 10.2544 5.40798 10.345 5.5 10.4961C5.59203 10.3752 5.68405 10.3148 5.71472 10.2242C5.9908 9.55954 6.2362 8.86467 6.4816 8.20002C6.75767 7.41452 7.24847 6.8405 8.04601 6.53839C8.75153 6.26649 9.45706 6.02479 10.1626 5.72268C10.2853 5.66226 10.3773 5.54141 10.5 5.45078C10.408 5.36014 10.2853 5.26951 10.1933 5.20908C9.54908 4.96739 8.90491 4.7257 8.26074 4.48401C7.37117 4.18189 6.78834 3.60788 6.4816 2.70153C6.26687 2.03688 5.9908 1.37223 5.71472 0.737786C5.68405 0.647151 5.56135 0.586728 5.5 0.496094C5.40798 0.586728 5.28528 0.647151 5.2546 0.767997C5.0092 1.37223 4.7638 1.97646 4.54908 2.6109C4.27301 3.33597 3.87423 3.9402 3.13804 4.27253C2.89264 4.39337 2.61656 4.48401 2.37117 4.57464C1.81902 4.78612 1.29755 4.96739 0.745399 5.17887C0.653374 5.20908 0.592025 5.36014 0.5 5.42056C0.56135 5.5112 0.622699 5.60183 0.714724 5.66226Z" fill="white"/>
<path d="M6.63878 16.7224C5.95306 16.492 5.46327 16.0311 5.23469 15.3068C5.03878 14.78 4.84286 14.2533 4.64694 13.7265C4.61429 13.6278 4.51633 13.5619 4.45102 13.4961C4.38571 13.5619 4.28776 13.6278 4.2551 13.7265C4.09184 14.1545 3.92857 14.6154 3.76531 15.0434C3.53673 15.7348 3.17755 16.3274 2.45918 16.5907C2.19796 16.6895 1.93673 16.7883 1.64286 16.92C1.31633 17.0517 0.957143 17.1833 0.630612 17.315C0.565306 17.3809 0.5 17.4467 0.5 17.5126C0.5 17.5784 0.597959 17.6442 0.630612 17.6772C0.728571 17.743 0.859184 17.7759 0.989796 17.8418C1.44694 18.0064 1.90408 18.171 2.36122 18.3356C2.91633 18.5331 3.30816 18.8953 3.53673 19.4549C3.79796 20.0805 3.99388 20.673 4.2551 21.2986C4.28776 21.3973 4.38571 21.4303 4.45102 21.4961C4.51633 21.4303 4.61429 21.3644 4.64694 21.2986C4.8102 20.9364 4.94082 20.5743 5.07143 20.2121C5.20204 19.8829 5.33265 19.5208 5.49592 19.1916C5.7898 18.599 6.37755 18.4014 6.96531 18.171C7.35714 18.0064 7.74898 17.8747 8.14082 17.7101C8.23878 17.6772 8.33673 17.5784 8.5 17.4796C8.36939 17.3809 8.30408 17.315 8.20612 17.2821C7.68367 17.1175 7.16122 16.92 6.63878 16.7224Z" fill="white"/>
</svg>
