<svg width="15" height="17" viewBox="0 0 15 17" fill="none" xmlns="http://www.w3.org/2000/svg">
<path d="M13.3333 0.539062H1.66667C1.22464 0.539063 0.800716 0.726363 0.488155 1.05976C0.175595 1.39316 0 1.84534 0 2.31684V14.7613C0 15.2328 0.175595 15.685 0.488155 16.0184C0.800716 16.3518 1.22464 16.5391 1.66667 16.5391H13.3333C13.7754 16.5391 14.1993 16.3518 14.5118 16.0184C14.8244 15.685 15 15.2328 15 14.7613V2.31684C15 1.84534 14.8244 1.39316 14.5118 1.05976C14.1993 0.726363 13.7754 0.539063 13.3333 0.539062ZM13.3333 14.7613H1.66667V2.31684H13.3333V14.7613ZM5 12.9835H3.33333V8.53906H5V12.9835ZM8.33333 12.9835H6.66667V4.09462H8.33333V12.9835ZM11.6667 12.9835H10V6.76128H11.6667V12.9835Z" fill="white"/>
</svg>
