<svg width="24" height="22" viewBox="0 0 24 22" fill="none" xmlns="http://www.w3.org/2000/svg">
<path d="M2.66667 0.335938H21.3333C22.0406 0.335938 22.7189 0.616889 23.219 1.11699C23.719 1.61708 24 2.29536 24 3.0026V19.0026C24 19.7098 23.719 20.3881 23.219 20.8882C22.7189 21.3883 22.0406 21.6693 21.3333 21.6693H2.66667C1.95942 21.6693 1.28115 21.3883 0.781048 20.8882C0.280951 20.3881 0 19.7098 0 19.0026V3.0026C0 2.29536 0.280951 1.61708 0.781048 1.11699C1.28115 0.616889 1.95942 0.335938 2.66667 0.335938ZM2.66667 5.66927V11.0026H10.6667V5.66927H2.66667ZM13.3333 5.66927V11.0026H21.3333V5.66927H13.3333ZM2.66667 13.6693V19.0026H10.6667V13.6693H2.66667ZM13.3333 13.6693V19.0026H21.3333V13.6693H13.3333Z" fill="white"/>
</svg>
