<svg width="20" height="20" viewBox="0 0 20 20" fill="none" xmlns="http://www.w3.org/2000/svg">
<path d="M18.1763 5.18953C18.2246 5.12222 18.1532 5.03531 18.076 5.06525C17.5271 5.27803 16.9534 5.42158 16.3682 5.49233C17.0197 5.10306 17.5226 4.51049 17.8014 3.80894C17.8298 3.73747 17.7517 3.67365 17.6844 3.71083C17.0788 4.04528 16.4257 4.28611 15.7472 4.42481C15.7188 4.43061 15.6896 4.42094 15.6696 4.39991C15.1605 3.86268 14.4903 3.50498 13.7597 3.38137C13.0137 3.25517 12.2469 3.38013 11.5796 3.73665C10.9124 4.09318 10.3823 4.66111 10.0725 5.35136C9.77801 6.00766 9.69854 6.73925 9.8438 7.44186C9.85507 7.49637 9.8124 7.54784 9.75684 7.54439C8.43679 7.4624 7.14704 7.1113 5.96703 6.51221C4.79002 5.91466 3.74775 5.08335 2.90369 4.06958C2.86623 4.02458 2.79523 4.03041 2.76794 4.0822C2.50529 4.58059 2.36778 5.13608 2.36815 5.70066C2.36709 6.26265 2.505 6.81618 2.76962 7.31197C3.03423 7.80776 3.41734 8.23042 3.88482 8.54233C3.38905 8.52884 2.90295 8.40628 2.46086 8.18406C2.40389 8.15542 2.33555 8.1962 2.33851 8.25989C2.37299 9.00092 2.64503 9.74486 3.11592 10.3156C3.61702 10.923 4.31253 11.3387 5.08482 11.4923C4.78753 11.5828 4.47888 11.6305 4.16815 11.634C3.99904 11.632 3.83025 11.6195 3.66277 11.5966C3.60067 11.5882 3.54996 11.6471 3.5717 11.7059C3.80205 12.3288 4.20899 12.8724 4.74405 13.2691C5.31609 13.6933 6.00613 13.9286 6.71815 13.9423C5.51582 14.8884 4.03139 15.4047 2.50149 15.409C2.34428 15.4095 2.18715 15.4044 2.03039 15.3937C1.94205 15.3877 1.90142 15.5054 1.97757 15.5506C3.46821 16.4352 5.17198 16.9028 6.90982 16.9007C8.1929 16.914 9.46577 16.6715 10.6541 16.1874C11.8424 15.7033 12.9223 14.9872 13.8308 14.0811C14.7393 13.1749 15.4581 12.0968 15.9453 10.9098C16.4324 9.72268 16.6782 8.45044 16.6682 7.16733V6.76747C16.6682 6.74116 16.6806 6.71642 16.7016 6.70057C17.2668 6.27378 17.7639 5.76425 18.1763 5.18953Z" fill="#1DA1F2"/>
</svg>
