<svg width="160" height="60" viewBox="0 0 160 60" fill="none" xmlns="http://www.w3.org/2000/svg">
<path d="M24.7041 14.1176L12.3503 7.05882L0 14.1176V7.05882L12.3521 0L24.7059 7.05882L24.7041 14.1176Z" fill="#A435F0"/>
<path d="M0 20.3506H6.51032V36.119C6.51032 40.1929 9.56203 42.1788 12.428 42.1788C15.3187 42.1788 18.3474 40.14 18.3474 36.0643V20.3506H24.8578V36.4947C24.8578 40.2476 23.6742 43.1435 21.3071 45.1293C18.9383 47.1133 15.9804 48.0798 12.3731 48.0798C8.76947 48.0798 5.80975 47.1151 3.49753 45.1293C1.18353 43.1452 0 40.357 0 36.6551V20.3506ZM81.142 39.9478C79.1712 41.6973 76.9262 42.5544 74.3663 42.5544C69.6958 42.5544 66.5645 39.9019 66.2107 35.7945H87.2454C87.2454 35.7945 87.3869 34.4683 87.3869 33.2232C87.3869 29.3609 86.1485 26.1423 83.6187 23.5145C81.1455 20.8867 77.9186 19.5993 73.9895 19.5993C69.848 19.5993 66.4566 20.8867 63.7658 23.5145C61.1298 26.1423 59.7853 29.5743 59.7853 33.8669V34.0785C59.7853 38.3165 61.1298 41.6955 63.7658 44.2175C66.4017 46.7377 69.8993 48.0251 74.1504 48.0251C79.0933 48.0251 83.0261 46.0816 85.9769 42.7308L81.142 39.9478ZM68.7688 26.786C70.2195 25.6591 71.9974 25.07 73.9877 25.07C75.87 25.07 77.4304 25.6591 78.7767 26.8407C80.061 27.9165 80.7545 29.2374 80.8147 30.7559H66.377C66.5857 29.1863 67.3818 27.8636 68.7706 26.7878L68.7688 26.786ZM146.677 51.6687C144.036 57.8854 141.272 60 137.035 60H134.098V54.2471H136.473C137.93 54.2471 139.285 53.7004 140.577 50.7305L141.868 47.757L130.73 20.3506H137.348L145.258 40.0889L153.384 20.3506H160L146.677 51.6687ZM50.202 10V22.7985C48.0685 20.8938 44.7496 19.7598 41.5405 19.7598C37.7192 19.7598 34.4923 21.1001 31.8563 23.8337C29.2734 26.5162 27.982 29.8406 27.982 33.8634C27.982 37.8879 29.2734 41.2123 31.8563 43.9477C34.4923 46.6301 37.7209 47.9722 41.5405 47.9722C45.9455 47.9722 48.7301 46.2456 50.202 44.8929V47.3814H56.6593V10.0018L50.202 10ZM48.2648 39.7661C46.7045 41.3216 44.7142 42.1276 42.4002 42.1276C40.0862 42.1276 38.2039 41.3216 36.6436 39.7661C35.1398 38.2106 34.3844 36.2266 34.3844 33.8669C34.3844 31.5054 35.138 29.5214 36.6436 27.9659C38.2039 26.4104 40.0862 25.6062 42.4002 25.6062C44.7142 25.6062 46.7045 26.4104 48.2648 27.9659C49.8783 29.5214 50.6885 31.5054 50.6885 33.8669C50.6885 36.2266 49.8783 38.2106 48.2648 39.7661ZM120.692 19.8145C115.788 19.8145 113.239 21.8426 111.493 23.7967C110.794 22.4687 108.827 19.8145 104.231 19.8145C100.346 19.8145 98.0564 21.7721 96.9136 23.1653V20.3541H90.5129V47.3849H96.9136V31.8299C96.9136 28.1828 99.1745 25.555 102.186 25.555C105.255 25.555 107.029 27.8618 107.029 31.5618V47.3832H113.432V31.8282C113.432 28.1281 115.636 25.5532 118.81 25.5532C121.877 25.5532 123.652 27.86 123.652 31.5583V47.3814H130.109V30.6483C130.109 23.6009 126.309 19.8162 120.692 19.8162V19.8145Z" fill="white"/>
</svg>
