<svg width="49" height="30" viewBox="0 0 49 30" fill="none" xmlns="http://www.w3.org/2000/svg">
<path d="M47.9937 2.47547C47.7497 1.88781 47.2827 1.42082 46.695 1.17677C46.4059 1.05354 46.0954 0.988175 45.7811 0.984375H33.7562C33.1183 0.984375 32.5066 1.23776 32.0556 1.68878C31.6045 2.13981 31.3512 2.75153 31.3512 3.38937C31.3512 4.02722 31.6045 4.63893 32.0556 5.08996C32.5066 5.54098 33.1183 5.79437 33.7562 5.79437H39.9851L26.5412 19.2383L18.6287 11.3018C18.4052 11.0764 18.1392 10.8975 17.8461 10.7754C17.553 10.6533 17.2387 10.5904 16.9212 10.5904C16.6037 10.5904 16.2893 10.6533 15.9963 10.7754C15.7032 10.8975 15.4372 11.0764 15.2136 11.3018L0.783659 25.7318C0.558243 25.9554 0.379325 26.2214 0.257226 26.5144C0.135128 26.8075 0.0722656 27.1218 0.0722656 27.4393C0.0722656 27.7568 0.135128 28.0712 0.257226 28.3642C0.379325 28.6573 0.558243 28.9233 0.783659 29.1469C1.00723 29.3723 1.27323 29.5512 1.5663 29.6733C1.85937 29.7954 2.17372 29.8583 2.49121 29.8583C2.80869 29.8583 3.12304 29.7954 3.41611 29.6733C3.70918 29.5512 3.97518 29.3723 4.19875 29.1469L16.9212 16.4004L24.8336 24.3369C25.0572 24.5623 25.3232 24.7412 25.6163 24.8633C25.9093 24.9854 26.2237 25.0483 26.5412 25.0483C26.8587 25.0483 27.173 24.9854 27.4661 24.8633C27.7591 24.7412 28.0251 24.5623 28.2487 24.3369L43.3761 9.18541V15.4143C43.3761 16.0522 43.6295 16.6639 44.0805 17.1149C44.5316 17.566 45.1433 17.8193 45.7811 17.8193C46.419 17.8193 47.0307 17.566 47.4817 17.1149C47.9327 16.6639 48.1861 16.0522 48.1861 15.4143V3.38937C48.1823 3.07509 48.117 2.76461 47.9937 2.47547Z" fill="#5B97FF"/>
</svg>
