<svg width="72" height="72" viewBox="0 0 72 72" fill="none" xmlns="http://www.w3.org/2000/svg">
<g clip-path="url(#clip0_300_1537)">
<path d="M36 0.00170898C16.1198 0.00170898 0 16.1184 0 36.0001C0 55.8819 16.1182 71.9985 36 71.9985C55.8833 71.9985 72 55.8819 72 36.0001C72 16.1184 55.8833 0.00170898 36 0.00170898ZM36 10.7657C42.5782 10.7657 47.9088 16.0978 47.9088 22.6729C47.9088 29.2495 42.5782 34.5801 36 34.5801C29.4249 34.5801 24.0944 29.2495 24.0944 22.6729C24.0944 16.0978 29.4249 10.7657 36 10.7657ZM35.9921 62.5866C29.4313 62.5866 23.4223 60.1973 18.7875 56.2424C17.6584 55.2794 17.0069 53.8673 17.0069 52.3856C17.0069 45.7172 22.4039 40.3803 29.0739 40.3803H42.9293C49.6008 40.3803 54.9772 45.7172 54.9772 52.3856C54.9772 53.8689 54.3289 55.2778 53.1983 56.2408C48.565 60.1973 42.5545 62.5866 35.9921 62.5866Z" fill="#4800CB"/>
</g>
<defs>
<clipPath id="clip0_300_1537">
<rect width="72" height="72" fill="white"/>
</clipPath>
</defs>
</svg>
