<svg width="11" height="12" viewBox="0 0 11 12" fill="none" xmlns="http://www.w3.org/2000/svg">
<path d="M3.77801 11.1597C3.74152 11.1648 3.7045 11.1648 3.66801 11.1597C2.80877 10.8895 2.03379 10.4021 1.41801 9.74472C0.801409 9.08681 0.364834 8.28104 0.15043 7.40521C-0.0639732 6.52938 -0.0489639 5.61306 0.194009 4.74472C0.436573 3.87659 0.898569 3.08553 1.53551 2.44772C2.17218 1.81093 2.96234 1.34913 3.82964 1.10695C4.69693 0.864767 5.61204 0.850396 6.48651 1.06523C7.36096 1.2807 8.16504 1.71813 8.82101 2.33523C9.47713 2.9533 9.96306 3.72989 10.232 4.59022C10.2553 4.66086 10.2568 4.73685 10.2364 4.80836C10.216 4.87987 10.1746 4.94361 10.1175 4.99133C10.0605 5.03905 9.99044 5.06856 9.91645 5.07602C9.84246 5.08349 9.76793 5.06858 9.70251 5.03322C9.61481 4.98741 9.54844 4.9092 9.51751 4.81522C9.29044 4.07318 8.87533 3.40247 8.31251 2.86822C7.75015 2.33464 7.05935 1.95556 6.30721 1.76781C5.55507 1.58006 4.76716 1.59002 4.02001 1.79673C3.27283 2.00433 2.59199 2.40151 2.04351 2.94973C1.49449 3.49846 1.09658 4.17975 0.888347 4.92753C0.680115 5.67531 0.668631 6.4642 0.855009 7.21772C1.04022 7.97119 1.41731 8.66389 1.9496 9.22841C2.48188 9.79294 3.15122 10.2101 3.89251 10.4392C3.94212 10.4549 3.98803 10.4806 4.02746 10.5145C4.0669 10.5485 4.09903 10.5901 4.12193 10.6368C4.14483 10.6836 4.15802 10.7345 4.1607 10.7864C4.16337 10.8384 4.15549 10.8904 4.13751 10.9392C4.1065 11.0078 4.05558 11.0654 3.99138 11.1047C3.92718 11.1439 3.85266 11.1629 3.77751 11.1592" fill="white"/>
</svg>
