<svg width="12" height="7" viewBox="0 0 12 7" fill="none" xmlns="http://www.w3.org/2000/svg">
<path fill-rule="evenodd" clip-rule="evenodd" d="M5.3616 6.7319C5.53093 6.90356 5.76056 7 6 7C6.23944 7 6.46907 6.90356 6.6384 6.7319L11.7465 1.55183C11.911 1.37913 12.002 1.14783 12 0.907734C11.9979 0.667643 11.9029 0.437976 11.7355 0.268199C11.5681 0.098423 11.3416 0.00212097 11.1049 3.48091e-05C10.8681 -0.00205183 10.64 0.0902448 10.4697 0.257045L6 4.78972L1.53028 0.257045C1.35998 0.0902448 1.13188 -0.00205183 0.895127 3.48091e-05C0.65837 0.00212097 0.431893 0.098423 0.264475 0.268199C0.0970561 0.437976 0.00209149 0.667643 3.41348e-05 0.907734C-0.00202322 1.14783 0.0889914 1.37913 0.253475 1.55183L5.3616 6.7319Z" fill="white" fill-opacity="0.6"/>
</svg>
