<svg width="32" height="32" viewBox="0 0 32 32" fill="none" xmlns="http://www.w3.org/2000/svg">
<path d="M25.3346 5.33073H22.668V3.9974C22.668 3.64377 22.5275 3.30464 22.2774 3.05459C22.0274 2.80454 21.6883 2.66406 21.3346 2.66406C20.981 2.66406 20.6419 2.80454 20.3918 3.05459C20.1418 3.30464 20.0013 3.64377 20.0013 3.9974V5.33073H12.0013V3.9974C12.0013 3.64377 11.8608 3.30464 11.6108 3.05459C11.3607 2.80454 11.0216 2.66406 10.668 2.66406C10.3143 2.66406 9.97521 2.80454 9.72516 3.05459C9.47511 3.30464 9.33463 3.64377 9.33463 3.9974V5.33073H6.66797C5.6071 5.33073 4.58969 5.75216 3.83954 6.5023C3.0894 7.25245 2.66797 8.26986 2.66797 9.33073V25.3307C2.66797 26.3916 3.0894 27.409 3.83954 28.1592C4.58969 28.9093 5.6071 29.3307 6.66797 29.3307H25.3346C26.3955 29.3307 27.4129 28.9093 28.1631 28.1592C28.9132 27.409 29.3346 26.3916 29.3346 25.3307V9.33073C29.3346 8.26986 28.9132 7.25245 28.1631 6.5023C27.4129 5.75216 26.3955 5.33073 25.3346 5.33073ZM26.668 25.3307C26.668 25.6843 26.5275 26.0235 26.2774 26.2735C26.0274 26.5236 25.6883 26.6641 25.3346 26.6641H6.66797C6.31435 26.6641 5.97521 26.5236 5.72516 26.2735C5.47511 26.0235 5.33464 25.6843 5.33464 25.3307V15.9974H26.668V25.3307ZM26.668 13.3307H5.33464V9.33073C5.33464 8.97711 5.47511 8.63797 5.72516 8.38792C5.97521 8.13787 6.31435 7.9974 6.66797 7.9974H9.33463V9.33073C9.33463 9.68435 9.47511 10.0235 9.72516 10.2735C9.97521 10.5236 10.3143 10.6641 10.668 10.6641C11.0216 10.6641 11.3607 10.5236 11.6108 10.2735C11.8608 10.0235 12.0013 9.68435 12.0013 9.33073V7.9974H20.0013V9.33073C20.0013 9.68435 20.1418 10.0235 20.3918 10.2735C20.6419 10.5236 20.981 10.6641 21.3346 10.6641C21.6883 10.6641 22.0274 10.5236 22.2774 10.2735C22.5275 10.0235 22.668 9.68435 22.668 9.33073V7.9974H25.3346C25.6883 7.9974 26.0274 8.13787 26.2774 8.38792C26.5275 8.63797 26.668 8.97711 26.668 9.33073V13.3307Z" fill="white"/>
</svg>
