<svg width="18" height="17" viewBox="0 0 18 17" fill="none" xmlns="http://www.w3.org/2000/svg">
<path fill-rule="evenodd" clip-rule="evenodd" d="M9 1.41477C13.1422 1.41477 16.5 4.58598 16.5 8.4981C16.5006 9.54175 16.2571 10.5726 15.7867 11.517L16.4842 14.7307C16.5091 14.8455 16.5034 14.9642 16.4677 15.0764C16.432 15.1886 16.3675 15.2906 16.2798 15.3734C16.1921 15.4563 16.084 15.5172 15.9653 15.5509C15.8465 15.5847 15.7207 15.59 15.5992 15.5666L12.1965 14.9078C11.226 15.3399 10.1415 15.5807 9 15.5807C4.85775 15.5807 1.5 12.4102 1.5 8.4974C1.5 4.58598 4.85775 1.41406 9 1.41406" fill="white" fill-opacity="0.6"/>
</svg>
