<svg width="44" height="44" viewBox="0 0 44 44" fill="none" xmlns="http://www.w3.org/2000/svg">
<path d="M15.4013 31.1641L22.0013 24.5641L28.6013 31.1641L31.168 28.5974L24.568 21.9974L31.168 15.3974L28.6013 12.8307L22.0013 19.4307L15.4013 12.8307L12.8346 15.3974L19.4346 21.9974L12.8346 28.5974L15.4013 31.1641ZM22.0013 40.3307C19.4652 40.3307 17.0819 39.8492 14.8513 38.8861C12.6208 37.923 10.6805 36.617 9.03047 34.9682C7.38047 33.3195 6.07453 31.3792 5.11264 29.1474C4.15075 26.9156 3.66919 24.5323 3.66797 21.9974C3.66675 19.4625 4.1483 17.0792 5.11264 14.8474C6.07697 12.6156 7.38292 10.6753 9.03047 9.02656C10.678 7.37778 12.6183 6.07184 14.8513 5.10873C17.0843 4.14562 19.4676 3.66406 22.0013 3.66406C24.535 3.66406 26.9183 4.14562 29.1513 5.10873C31.3843 6.07184 33.3246 7.37778 34.9721 9.02656C36.6197 10.6753 37.9263 12.6156 38.8918 14.8474C39.8574 17.0792 40.3383 19.4625 40.3346 21.9974C40.331 24.5323 39.8494 26.9156 38.89 29.1474C37.9305 31.3792 36.6246 33.3195 34.9721 34.9682C33.3197 36.617 31.3794 37.9236 29.1513 38.8879C26.9232 39.8522 24.5399 40.3332 22.0013 40.3307Z" fill="#666F8D"/>
</svg>
