<svg width="20" height="21" viewBox="0 0 20 21" fill="none" xmlns="http://www.w3.org/2000/svg">
<path d="M18.75 8.36719C18.75 14.1094 10.6414 18.7573 10.2961 18.9492C10.2051 19.0006 10.1033 19.0275 10 19.0275C9.89665 19.0275 9.79492 19.0006 9.70391 18.9492C9.35859 18.7573 1.25 14.1094 1.25 8.36719C1.25145 7.01878 1.76223 5.72603 2.6703 4.77257C3.57837 3.8191 4.80955 3.28277 6.09375 3.28125C7.70703 3.28125 9.11953 4.00969 10 5.24098C10.8805 4.00969 12.293 3.28125 13.9062 3.28125C15.1904 3.28277 16.4216 3.8191 17.3297 4.77257C18.2378 5.72603 18.7486 7.01878 18.75 8.36719Z" fill="white" fill-opacity="0.6"/>
</svg>
