<svg width="55" height="55" viewBox="0 0 55 55" fill="none" xmlns="http://www.w3.org/2000/svg">
<path d="M37.1658 55H17.8342C7.98605 55 0 47.0139 0 37.1658V17.8342C0 7.98605 7.98605 0 17.8342 0H37.1658C47.0139 0 55 7.98605 55 17.8342V37.1658C55.0096 47.0139 47.0235 55 37.1658 55Z" fill="url(#paint0_linear_7429_125168)"/>
<path d="M37.8132 4.57812H17.1858C10.1884 4.57812 4.51562 10.2509 4.51562 17.2483V37.8756C4.51562 44.873 10.1884 50.5458 17.1858 50.5458H37.8132C44.8105 50.5458 50.4833 44.873 50.4833 37.8756V17.2483C50.4833 10.2509 44.8105 4.57812 37.8132 4.57812ZM46.7686 37.8277C46.7686 42.7997 42.7372 46.8408 37.7555 46.8408H17.2338C12.2617 46.8408 8.22067 42.8093 8.22067 37.8277V17.3058C8.22067 12.3338 12.2521 8.29278 17.2338 8.29278H37.7555C42.7276 8.29278 46.7686 12.3242 46.7686 17.3058V37.8277Z" fill="white"/>
<path d="M27.508 15.4688C20.8177 15.4688 15.3945 20.892 15.3945 27.5822C15.3945 34.2724 20.8177 39.6956 27.508 39.6956C34.1982 39.6956 39.6214 34.2724 39.6214 27.5822C39.6214 20.892 34.1982 15.4688 27.508 15.4688ZM27.508 35.4818C23.1406 35.4818 19.6083 31.9399 19.6083 27.5822C19.6083 23.2148 23.1502 19.6825 27.508 19.6825C31.8753 19.6825 35.4076 23.2244 35.4076 27.5822C35.4076 31.9399 31.8657 35.4818 27.508 35.4818Z" fill="white"/>
<path d="M42.7453 15.0445C42.7453 16.5419 41.5263 17.7609 40.0289 17.7609C38.5315 17.7609 37.3125 16.5419 37.3125 15.0445C37.3125 13.5471 38.5315 12.3281 40.0289 12.3281C41.5263 12.3281 42.7453 13.5375 42.7453 15.0445Z" fill="white"/>
<defs>
<linearGradient id="paint0_linear_7429_125168" x1="6.77585" y1="6.56036" x2="49.4069" y2="49.622" gradientUnits="userSpaceOnUse">
<stop offset="0.0215" stop-color="#5342D6"/>
<stop offset="0.0806" stop-color="#7739C6"/>
<stop offset="0.1666" stop-color="#A52DB0"/>
<stop offset="0.2097" stop-color="#B729A8"/>
<stop offset="0.3195" stop-color="#CE257E"/>
<stop offset="0.4544" stop-color="#E82250"/>
<stop offset="0.5222" stop-color="#F2203E"/>
<stop offset="0.6889" stop-color="#F2203E"/>
<stop offset="0.7089" stop-color="#F32D40"/>
<stop offset="0.8103" stop-color="#F86C48"/>
<stop offset="0.896" stop-color="#FB994E"/>
<stop offset="0.9619" stop-color="#FDB652"/>
<stop offset="1" stop-color="#FEC053"/>
</linearGradient>
</defs>
</svg>
