<svg width="21" height="20" viewBox="0 0 21 20" fill="none" xmlns="http://www.w3.org/2000/svg">
<rect width="21" height="20" rx="2" fill="url(#paint0_linear_7429_127807)"/>
<path d="M13.8642 2.39844H7.13397C4.85089 2.39844 3 4.27518 3 6.59016V13.4144C3 15.7294 4.85089 17.6061 7.13397 17.6061H13.8642C16.1473 17.6061 17.9982 15.7294 17.9982 13.4144V6.59016C17.9982 4.27518 16.1473 2.39844 13.8642 2.39844ZM16.7862 13.3985C16.7862 15.0435 15.4708 16.3804 13.8454 16.3804H7.14963C5.52736 16.3804 4.20887 15.0466 4.20887 13.3985V6.60921C4.20887 4.96428 5.52423 3.62737 7.14963 3.62737H13.8454C15.4677 3.62737 16.7862 4.9611 16.7862 6.60921V13.3985Z" fill="white"/>
<path d="M10.5031 6C8.32025 6 6.55078 7.79419 6.55078 10.0075C6.55078 12.2209 8.32025 14.0151 10.5031 14.0151C12.686 14.0151 14.4554 12.2209 14.4554 10.0075C14.4554 7.79419 12.686 6 10.5031 6ZM10.5031 12.621C9.07814 12.621 7.92565 11.4492 7.92565 10.0075C7.92565 8.56267 9.08127 7.39406 10.5031 7.39406C11.9281 7.39406 13.0806 8.56584 13.0806 10.0075C13.0806 11.4492 11.9249 12.621 10.5031 12.621Z" fill="white"/>
<path d="M15.4757 5.85961C15.4757 6.355 15.078 6.7583 14.5894 6.7583C14.1009 6.7583 13.7031 6.355 13.7031 5.85961C13.7031 5.36423 14.1009 4.96094 14.5894 4.96094C15.078 4.96094 15.4757 5.36105 15.4757 5.85961Z" fill="white"/>
<defs>
<linearGradient id="paint0_linear_7429_127807" x1="2.58714" y1="2.38558" x2="18.0633" y2="18.7997" gradientUnits="userSpaceOnUse">
<stop offset="0.0215" stop-color="#5342D6"/>
<stop offset="0.0806" stop-color="#7739C6"/>
<stop offset="0.1666" stop-color="#A52DB0"/>
<stop offset="0.2097" stop-color="#B729A8"/>
<stop offset="0.3195" stop-color="#CE257E"/>
<stop offset="0.4544" stop-color="#E82250"/>
<stop offset="0.5222" stop-color="#F2203E"/>
<stop offset="0.6889" stop-color="#F2203E"/>
<stop offset="0.7089" stop-color="#F32D40"/>
<stop offset="0.8103" stop-color="#F86C48"/>
<stop offset="0.896" stop-color="#FB994E"/>
<stop offset="0.9619" stop-color="#FDB652"/>
<stop offset="1" stop-color="#FEC053"/>
</linearGradient>
</defs>
</svg>
