<svg width="23" height="23" viewBox="0 0 23 23" fill="none" xmlns="http://www.w3.org/2000/svg">
<path d="M11.5 23C14.55 23 17.4751 21.7884 19.6317 19.6317C21.7884 17.4751 23 14.55 23 11.5C23 8.45001 21.7884 5.52494 19.6317 3.36827C17.4751 1.2116 14.55 0 11.5 0C8.45001 0 5.52494 1.2116 3.36827 3.36827C1.2116 5.52494 0 8.45001 0 11.5C0 14.55 1.2116 17.4751 3.36827 19.6317C5.52494 21.7884 8.45001 23 11.5 23ZM10.0625 9.34375C10.0625 10.0639 9.82675 9.913 9.46594 9.68156C9.22875 9.52919 8.93837 9.34375 8.625 9.34375C8.31163 9.34375 8.02125 9.53063 7.78406 9.68156C7.42325 9.913 7.1875 10.0625 7.1875 9.34375C7.1875 8.1535 7.8315 7.1875 8.625 7.1875C9.4185 7.1875 10.0625 8.1535 10.0625 9.34375ZM17.7258 13.6562C17.852 13.8748 17.9184 14.1227 17.9184 14.375C17.9184 14.6273 17.852 14.8752 17.7258 15.0938C17.0949 16.1866 16.1873 17.094 15.0945 17.7249C14.0016 18.3557 12.7619 18.6877 11.5 18.6875C10.2384 18.6875 8.99896 18.3553 7.90635 17.7245C6.81375 17.0937 5.90644 16.1864 5.27563 15.0938C5.14952 14.8753 5.0831 14.6276 5.08304 14.3754C5.08297 14.1232 5.14926 13.8754 5.27526 13.6569C5.40125 13.4384 5.58251 13.2569 5.80083 13.1306C6.01915 13.0044 6.26685 12.9378 6.51906 12.9375H16.4809C16.7333 12.9375 16.9811 13.0039 17.1997 13.1301C17.4182 13.2563 17.5996 13.4377 17.7258 13.6562ZM15.2159 9.68156C14.9788 9.52919 14.6884 9.34375 14.375 9.34375C14.0616 9.34375 13.7712 9.53063 13.5341 9.68156C13.1733 9.913 12.9375 10.0625 12.9375 9.34375C12.9375 8.1535 13.5815 7.1875 14.375 7.1875C15.1685 7.1875 15.8125 8.1535 15.8125 9.34375C15.8125 10.0639 15.5767 9.913 15.2159 9.68156Z" fill="white" fill-opacity="0.6"/>
</svg>
