<svg width="26" height="19" viewBox="0 0 26 19" fill="none" xmlns="http://www.w3.org/2000/svg">
<path d="M16.5455 11.875C13.39 11.875 7.09091 13.4544 7.09091 16.625V19H26V16.625C26 13.4544 19.7009 11.875 16.5455 11.875ZM5.90909 7.125V3.5625H3.54545V7.125H0V9.5H3.54545V13.0625H5.90909V9.5H9.45455V7.125M16.5455 9.5C17.7992 9.5 19.0016 8.99956 19.8881 8.10876C20.7747 7.21796 21.2727 6.00978 21.2727 4.75C21.2727 3.49022 20.7747 2.28204 19.8881 1.39124C19.0016 0.500445 17.7992 0 16.5455 0C15.2917 0 14.0893 0.500445 13.2028 1.39124C12.3162 2.28204 11.8182 3.49022 11.8182 4.75C11.8182 6.00978 12.3162 7.21796 13.2028 8.10876C14.0893 8.99956 15.2917 9.5 16.5455 9.5Z" fill="white" fill-opacity="0.6"/>
</svg>
