<svg width="20" height="20" viewBox="0 0 20 20" fill="none" xmlns="http://www.w3.org/2000/svg">
<rect x="0.926471" y="0.926471" width="18.1471" height="18.1471" rx="1.07353" fill="url(#paint0_linear_7429_127814)" stroke="#4D4D4D" stroke-width="1.85294"/>
<path fill-rule="evenodd" clip-rule="evenodd" d="M12.838 8.96842C13.6599 9.55674 14.7237 9.94895 15.7874 9.94895V7.79179C15.594 7.79179 15.3522 7.79179 15.1588 7.74276V9.45868C14.0467 9.45868 13.0314 9.1155 12.2094 8.47816V12.8905C12.2094 15.0967 10.4688 16.8617 8.29298 16.8617C7.47101 16.8617 6.74575 16.6165 6.11719 16.1753C6.84245 16.9107 7.80946 17.3519 8.92154 17.3519C11.0973 17.3519 12.838 15.587 12.838 13.3808V8.96842ZM13.6116 6.76223C13.1764 6.27197 12.8863 5.68365 12.838 4.99728V4.70312H12.2578C12.4028 5.5856 12.9347 6.321 13.6116 6.76223ZM7.47101 14.4594C7.22925 14.1652 7.08421 13.773 7.08421 13.3318C7.08421 12.3022 7.90618 11.5178 8.8732 11.5178C9.0666 11.5178 9.25999 11.5668 9.40505 11.6158V9.40966C9.21164 9.36063 8.96989 9.36063 8.77649 9.36063V11.0766C8.58309 11.0275 8.43803 10.9785 8.24463 10.9785C7.22926 10.9785 6.45565 11.812 6.45565 12.7925C6.504 13.5279 6.8908 14.1652 7.47101 14.4594Z" fill="#FF1753"/>
<path fill-rule="evenodd" clip-rule="evenodd" d="M12.2541 8.42913C13.0761 9.01745 14.1398 9.40966 15.2035 9.40966V7.69374C14.575 7.54666 14.0431 7.2525 13.6079 6.76223C12.8827 6.321 12.3992 5.5856 12.2541 4.70312H10.7069V13.3318C10.7069 14.3613 9.88491 15.1457 8.91789 15.1457C8.33768 15.1457 7.80582 14.8516 7.46737 14.4104C6.88715 14.1162 6.50035 13.4788 6.50035 12.7925C6.50035 11.7629 7.32232 10.9785 8.28934 10.9785C8.48274 10.9785 8.67615 11.0275 8.8212 11.0766V9.36063C6.69376 9.40966 4.95312 11.1746 4.95312 13.3318C4.95312 14.4103 5.38828 15.3909 6.06519 16.1263C6.69375 16.5675 7.46737 16.8126 8.24098 16.8126C10.4168 16.8126 12.1574 15.0477 12.1574 12.8415V8.42913H12.2541Z" fill="white"/>
<path fill-rule="evenodd" clip-rule="evenodd" d="M15.2095 7.69181V7.25057C14.6293 7.25057 14.0974 7.1035 13.6139 6.80934C14.0491 7.25058 14.581 7.54473 15.2095 7.69181ZM12.2601 4.75023C12.2601 4.65218 12.2118 4.60315 12.2118 4.5051V4.21094H10.0843V12.8396C10.0843 13.8691 9.26235 14.6536 8.29534 14.6536C8.00523 14.6536 7.71512 14.6045 7.47336 14.4575C7.81182 14.8987 8.34368 15.1929 8.92389 15.1929C9.93926 15.1929 10.7129 14.3594 10.7129 13.3789V4.75023H12.2601ZM8.8272 9.35871V8.86844C8.63379 8.81942 8.48874 8.81942 8.29534 8.81942C6.11954 8.81942 4.37891 10.5844 4.37891 12.7906C4.37891 14.1633 5.05582 15.389 6.11954 16.1244C5.44263 15.389 5.00748 14.4084 5.00748 13.3298C5.00748 11.1727 6.69976 9.40774 8.8272 9.35871Z" fill="#00C9D0"/>
<defs>
<linearGradient id="paint0_linear_7429_127814" x1="2.90223" y1="2.91769" x2="17.0631" y2="17.0785" gradientUnits="userSpaceOnUse">
<stop stop-color="#5B5760"/>
<stop offset="0.645" stop-color="#020003"/>
<stop offset="1"/>
</linearGradient>
</defs>
</svg>
