<svg width="21" height="21" viewBox="0 0 21 21" fill="none" xmlns="http://www.w3.org/2000/svg">
<path d="M2.33333 21C1.69167 21 1.14256 20.7717 0.686 20.3152C0.229444 19.8586 0.000777778 19.3091 0 18.6667V2.33333C0 1.69167 0.228667 1.14256 0.686 0.686C1.14333 0.229444 1.69244 0.000777778 2.33333 0H18.6667C19.3083 0 19.8578 0.228667 20.3152 0.686C20.7725 1.14333 21.0008 1.69244 21 2.33333V18.6667C21 19.3083 20.7717 19.8578 20.3152 20.3152C19.8586 20.7725 19.3091 21.0008 18.6667 21H2.33333ZM3.5 16.3333H17.5L13.125 10.5L9.625 15.1667L7 11.6667L3.5 16.3333Z" fill="white" fill-opacity="0.6"/>
</svg>
