<svg width="198" height="200" viewBox="0 0 198 200" fill="none" xmlns="http://www.w3.org/2000/svg">
<path d="M25.9036 83.2467L45.11 136.77L118.683 110.369L92.2817 36.7962L38.7584 56.0027C27.7748 59.9441 21.9622 72.2631 25.9036 83.2467ZM100.678 101.874L53.7797 118.703L39.3905 78.6038C38.0767 74.9426 39.977 70.9152 43.6382 69.6014L83.7371 55.2122L100.504 101.936L100.678 101.874Z" fill="black" fill-opacity="0.16"/>
<path d="M69.1332 203.718C73.1372 214.876 85.4562 220.688 96.4398 216.747L149.963 197.54L123.499 123.793L49.9268 150.194L69.1332 203.718ZM68.1684 158.801L115.067 141.972L131.896 188.871L91.7969 203.26C88.1357 204.574 84.1083 202.673 82.7945 199.012L68.3427 158.739L68.1684 158.801Z" fill="black" fill-opacity="0.16"/>
<path d="M136.924 118.976L163.325 192.548L216.848 173.342C228.006 169.338 233.644 157.081 229.703 146.098L210.497 92.5745L136.924 118.976ZM216.453 150.852C217.767 154.514 215.866 158.541 212.205 159.855L172.106 174.244L155.34 127.52L202.238 110.691L216.627 150.79L216.453 150.852Z" fill="black" fill-opacity="0.16"/>
<path d="M158.956 95.9176L172.38 91.1004L162.808 64.4259L189.482 54.854L184.665 41.4296L157.991 51.0015L148.356 24.1527L134.932 28.97L144.566 55.8188L117.718 65.4533L122.535 78.8777L149.384 69.2432L158.956 95.9176Z" fill="black" fill-opacity="0.16"/>
</svg>
