<svg width="300" height="200" viewBox="0 0 300 200" fill="none" xmlns="http://www.w3.org/2000/svg">
<g clip-path="url(#clip0_2466_34075)">
<path d="M127.906 83.2526L147.112 136.776L220.685 110.375L194.284 36.8021L140.76 56.0085C129.777 59.9499 123.964 72.269 127.906 83.2526ZM202.68 101.879L155.782 118.708L141.392 78.6096C140.079 74.9484 141.979 70.9211 145.64 69.6073L185.739 55.2181L202.506 101.942L202.68 101.879Z" fill="black" fill-opacity="0.16"/>
<path d="M171.136 203.726C175.14 214.884 187.459 220.697 198.443 216.756L251.966 197.549L225.502 123.802L151.93 150.203L171.136 203.726ZM170.171 158.81L217.07 141.981L233.899 188.879L193.8 203.269C190.139 204.582 186.111 202.682 184.797 199.021L170.346 158.748L170.171 158.81Z" fill="black" fill-opacity="0.16"/>
<path d="M238.93 118.984L265.331 192.557L318.854 173.351C330.012 169.347 335.65 157.09 331.709 146.107L312.502 92.5833L238.93 118.984ZM318.459 150.861C319.773 154.522 317.872 158.55 314.211 159.864L274.112 174.253L257.346 127.529L304.244 110.7L318.633 150.799L318.459 150.861Z" fill="black" fill-opacity="0.16"/>
<path d="M260.958 95.9225L274.383 91.1053L264.811 64.4308L291.485 54.8589L286.668 41.4345L259.994 51.0064L250.359 24.1576L236.935 28.9749L246.569 55.8237L219.72 65.4582L224.538 78.8826L251.386 69.2481L260.958 95.9225Z" fill="black" fill-opacity="0.16"/>
</g>
<defs>
<clipPath id="clip0_2466_34075">
<rect width="300" height="200" fill="white"/>
</clipPath>
</defs>
</svg>
