<svg width="300" height="200" viewBox="0 0 300 200" fill="none" xmlns="http://www.w3.org/2000/svg">
<g clip-path="url(#clip0_2466_43344)">
<path d="M313.851 55.894C312.754 52.8374 311.657 49.7808 309.796 46.9984C305.467 37.3387 297.592 29.8142 288.246 25.4047C275.238 17.9971 261.092 17.0354 246.573 22.2454C232.054 27.4554 217.535 32.6654 203.017 37.8754C188.498 43.0853 173.979 48.2953 160.224 53.2311C156.404 54.6021 153.621 56.4631 149.8 57.8342C142.707 62.1045 136.927 67.629 132.459 74.4076C125.541 86.3779 123.267 99.2697 126.4 112.809C127.281 117.668 128.653 121.488 130.024 125.309C137.153 145.177 144.282 165.045 151.138 184.149C152.235 187.205 153.331 190.262 155.192 193.044C166.084 208.974 186.734 213.64 203.213 204.276C215.871 196.284 221.534 185.626 220.419 170.501C220.734 161.762 219.246 152.808 218.522 143.58C218.248 142.816 219.012 142.542 219.012 142.542C232.002 137.88 244.229 133.493 257.219 128.831C257.983 128.557 257.983 128.557 258.258 129.321C263.292 136.14 267.837 143.997 272.871 150.816C284.037 167.51 304.687 172.176 321.656 161.774C333.06 155.094 338.723 144.436 338.921 130.565C339.078 126.196 337.433 121.611 335.787 117.026C328.384 96.3938 320.98 75.7618 313.851 55.894ZM202.003 162.446C202.336 165.777 202.668 169.107 203.001 172.438C203.666 179.1 200.453 184.566 194.888 188.288C186.541 193.871 176.216 191.538 170.633 183.191C170.084 181.663 168.772 180.408 168.223 178.88C164.933 169.71 161.916 161.305 158.626 152.135L158.352 151.371C172.34 156.702 186.428 155.097 199.908 149.397C201.279 153.218 201.396 158.351 202.003 162.446ZM311.038 146.608C302.907 150.388 294.384 148.271 289.35 141.453C284.589 135.398 280.319 128.305 276.049 121.212C290.078 117.04 301.971 109.322 309.379 96.3132C309.653 97.0774 309.653 97.0774 309.653 97.0774C312.943 106.247 316.234 115.417 319.525 124.587C322.541 132.992 319.17 142.828 311.038 146.608ZM297.314 62.6907C300.173 75.4655 297.076 86.0648 287.533 95.527C284.535 99.1905 279.95 100.836 275.365 102.481C272.308 103.578 270.016 104.4 266.959 105.497C247.856 112.353 228.752 119.208 208.884 126.337C201.243 129.079 194.365 131.547 186.724 134.289C180.611 136.483 174.713 136.874 168.757 134.699C159.196 132.092 152.144 126.86 147.325 118.238C140.371 106.07 142.312 89.8478 152.345 79.3473C156.871 75.1354 161.672 71.6876 167.021 69.7681C180.776 64.8324 194.53 59.8966 209.049 54.6866C223.568 49.4766 238.087 44.2667 251.842 39.3309C256.426 37.6856 260.521 37.0787 264.891 37.236C273.629 37.5505 281.662 40.7059 287.46 47.2505C292.436 51.5027 295.12 56.5775 297.314 62.6907Z" fill="#15181E" fill-opacity="0.2"/>
<path d="M191.57 87.6969C189.278 88.5196 187.75 89.068 185.457 89.8906C184.635 87.5982 183.812 85.3057 182.989 83.0133C181.344 78.4284 177.191 76.4686 172.332 77.3497C168.237 77.9566 164.749 82.6585 165.355 86.7534C165.63 87.5176 166.178 89.0459 166.452 89.81C167.001 91.3383 167.823 93.6308 168.646 95.9232C166.354 96.7458 164.061 97.5685 162.533 98.1169C157.948 99.7621 155.498 104.954 156.869 108.775C156.986 113.908 161.414 116.632 166.273 115.751C167.801 115.202 169.33 114.654 171.622 113.831C172.386 113.557 173.15 113.283 174.679 112.734C175.501 115.027 176.324 117.319 176.872 118.848C178.518 123.433 183.709 125.882 188.294 124.237C193.643 122.318 195.329 117.4 193.684 112.815C193.135 111.287 192.312 108.994 191.764 107.466L191.49 106.702C193.782 105.879 196.075 105.057 197.603 104.508C203.716 102.315 205.833 93.7919 200.857 89.5397C198.232 87.0315 195.391 86.3259 191.57 87.6969Z" fill="black" fill-opacity="0.2"/>
<path d="M243.53 69.052C238.945 70.6973 236.495 75.8891 238.14 80.4739C239.785 85.0588 244.977 87.5085 249.562 85.8633C254.147 84.218 256.597 79.0262 254.951 74.4413C253.306 69.8564 247.84 66.6426 243.53 69.052Z" fill="black" fill-opacity="0.2"/>
<path d="M273.331 58.3545C268.746 59.9998 266.297 65.1915 267.942 69.7764C269.587 74.3613 274.779 76.811 279.364 75.1658C283.949 73.5205 286.398 68.3287 284.753 63.7438C282.834 58.3948 277.642 55.9451 273.331 58.3545Z" fill="black" fill-opacity="0.2"/>
<path d="M264.023 78.0853C259.438 79.7305 256.988 84.9223 258.633 89.5072C260.279 94.0921 265.745 97.3059 270.33 95.6607C274.915 94.0154 277.364 88.8236 275.719 84.2387C273.8 78.8897 268.608 76.44 264.023 78.0853Z" fill="black" fill-opacity="0.2"/>
<path d="M259.359 65.0976C263.944 63.4524 266.394 58.2606 264.748 53.6757C263.103 49.0908 257.637 45.877 253.326 48.2864C248.741 49.9316 246.292 55.1234 247.937 59.7083C249.582 64.2932 254.01 67.0171 259.359 65.0976Z" fill="black" fill-opacity="0.2"/>
</g>
<defs>
<clipPath id="clip0_2466_43344">
<rect width="300" height="200" fill="white"/>
</clipPath>
</defs>
</svg>
