<svg width="300" height="200" viewBox="0 0 300 200" fill="none" xmlns="http://www.w3.org/2000/svg">
<g clip-path="url(#clip0_2466_4040)">
<g clip-path="url(#clip1_2466_4040)">
<path d="M294.986 38.2005L141.203 49.883C139.877 50.359 138.55 50.835 137.447 51.9327C136.343 53.0303 135.903 53.8899 135.686 55.3711L137.089 82.2314C137.318 84.9558 139.536 86.9661 142.413 86.6357L259.685 77.5301L148.916 117.279C145.6 118.469 144.502 121.669 145.395 124.156L181.083 223.611C181.976 226.097 184.858 227.869 188.174 226.679L334.097 174.316C336.75 173.364 338.734 170.547 337.619 167.439L302.153 68.6055L301.196 42.9883C300.304 40.502 297.862 37.87 294.986 38.2005ZM146.985 59.736L158.713 59.0357L147.695 76.3204L146.985 59.736ZM160.086 75.3821L171.104 58.0974L186.371 56.8287L175.354 74.1133L160.086 75.3821ZM188.408 72.937L199.426 55.6524L214.693 54.3836L203.676 71.6682L188.408 72.937ZM216.29 71.3515L227.307 54.0669L242.575 52.7981L231.557 70.0828L216.29 71.3515ZM243.948 69.1445L254.966 51.8598L270.233 50.5911L259.879 67.6377L243.948 69.1445ZM325.222 166.274L189.248 215.068L163.597 143.584L299.57 94.7911L325.222 166.274ZM296.225 85.4672L160.251 134.26L156.905 124.936L292.879 76.1433L296.225 85.4672ZM290.637 65.7218L272.27 66.6994L283.288 49.4148L290.59 48.8994L290.637 65.7218Z" fill="black" fill-opacity="0.2"/>
<path d="M242.928 178.964L268.527 152.237C271.837 148.944 269.83 143.35 265.181 142.913L228.207 137.938C223.558 137.502 219.807 141.654 221.369 146.005L232.744 177.707C234.083 181.436 239.618 182.257 242.928 178.964Z" fill="black" fill-opacity="0.2"/>
</g>
</g>
<defs>
<clipPath id="clip0_2466_4040">
<rect width="300" height="200" fill="white"/>
</clipPath>
<clipPath id="clip1_2466_4040">
<rect width="198.121" height="198.121" fill="white" transform="translate(102.977 54.8281) rotate(-19.7402)"/>
</clipPath>
</defs>
</svg>
