<svg width="300" height="200" viewBox="0 0 300 200" fill="none" xmlns="http://www.w3.org/2000/svg">
<g clip-path="url(#clip0_2466_49615)">
<path d="M298.178 19.5596C297.621 18.0056 297.063 16.4516 295.728 15.1765C291.167 9.797 284.334 7.86376 276.564 10.6519C255.585 18.18 234.606 25.7081 213.627 33.2362C186.433 42.9949 159.238 52.7535 132.043 62.5121C130.21 62.2928 127.88 63.1292 126.106 65.5197C120.727 70.0812 119.57 76.6354 122.08 83.6283C131.281 109.269 140.482 134.91 149.683 160.551C153.029 169.874 156.374 179.198 159.441 187.745C162.23 195.515 171.453 199.222 178.446 196.712C183.885 194.761 190.101 192.53 195.54 190.578C196.317 190.3 197.592 188.965 198.369 188.686C199.365 186.575 199.306 183.965 197.971 182.69C196.358 180.637 194.246 179.641 191.915 180.478C187.253 182.15 181.814 184.102 177.152 185.775C173.267 187.169 170.1 185.675 168.706 181.79C158.39 153.041 148.073 124.292 137.757 95.5435C137.478 94.7665 137.478 94.7665 137.199 93.9896C189.258 75.3087 240.539 56.9067 292.598 38.2259C292.877 39.0029 292.877 39.0029 293.155 39.7799C303.472 68.5286 313.788 97.2773 324.104 126.026C325.498 129.911 324.004 133.078 320.119 134.473C315.457 136.145 310.795 137.818 305.356 139.77C302.248 140.885 300.754 144.053 301.869 147.161C302.984 150.269 306.152 151.763 309.26 150.648C314.698 148.696 320.137 146.744 324.799 145.072C333.346 142.005 337.83 132.502 334.763 123.955C322.993 88.7119 310.446 53.7473 298.178 19.5596ZM133.854 84.6657C133.017 82.3347 132.181 80.0037 131.623 78.4497C131.564 75.8399 132.56 73.7283 135.668 72.613C143.438 69.8248 151.208 67.0367 158.978 64.2485C199.381 49.7499 239.785 35.2514 280.188 20.7528C284.073 19.3587 287.241 20.8533 288.635 24.7382C289.193 26.2922 289.75 27.8462 290.308 29.4002C237.971 47.304 185.912 65.9848 133.854 84.6657Z" fill="black" fill-opacity="0.2"/>
<path d="M298.862 107.017C297.189 102.355 293.743 100.084 289.3 99.9239C270.195 98.0092 251.588 95.0386 232.483 93.1239C226.985 92.4658 222.323 94.1387 218.498 98.1426C205.746 111.489 192.217 125.114 179.744 139.237C176.417 142.185 175.48 146.907 176.874 150.792C178.547 155.454 181.993 157.725 186.436 157.885C189.325 158.603 191.934 158.543 194.544 158.484C195.6 158.982 196.377 158.703 196.935 160.257C201.396 172.689 205.578 184.344 210.039 196.776C210.876 199.107 212.21 200.382 214.043 200.601C231.155 206.739 247.87 206.881 265.741 200.468C267.295 199.91 271.18 198.516 274.009 196.624C286.66 190.33 295.586 180.987 302.62 168.816C303.617 166.704 303.836 164.871 302.999 162.54C298.817 150.886 294.356 138.454 290.174 126.799C289.895 126.022 289.616 125.245 290.393 124.966C292.445 123.353 294.219 120.962 295.992 118.572C299.319 115.624 300.535 111.679 298.862 107.017ZM291.345 166.723C283.035 180.229 270.444 189.133 255.123 192.876C243.19 196.281 231.695 196.021 220.638 192.095C219.861 192.374 219.582 191.597 219.304 190.82C215.679 180.719 212.333 171.395 208.709 161.294C208.709 161.294 208.709 161.294 208.43 160.517C210.263 160.737 212.095 160.956 213.928 161.175C223.092 162.272 233.033 163.09 242.476 164.964C247.974 165.622 253.413 163.67 257.239 159.666C259.012 157.276 261.841 155.384 263.615 152.993C263.893 153.77 264.451 155.324 264.73 156.101C265.845 159.209 266.96 162.317 268.076 165.425C268.912 167.756 271.303 169.529 273.912 169.47C276.522 169.41 278.574 167.797 278.515 165.187C279.013 164.131 278.455 162.577 278.177 161.8C276.225 156.362 274.273 150.923 272.321 145.484C272.043 144.707 271.764 143.93 272.541 143.651C275.091 140.982 277.641 138.312 280.192 135.643C280.471 136.42 280.471 136.42 280.749 137.197C284.095 146.521 287.441 155.845 290.787 165.169C291.564 164.89 291.843 165.667 291.345 166.723ZM265.31 135.721L264.254 135.223C256.864 131.736 248.417 127.75 241.026 124.263C238.915 123.267 237.082 123.047 235.03 124.661C233.755 125.995 232.479 127.33 232.539 129.94C232.598 132.55 233.933 133.825 235.766 134.044C242.101 137.033 248.436 140.022 254.77 143.011C254.77 143.011 255.826 143.509 256.603 143.231C253.276 146.179 251.004 149.625 248.454 152.294C247.179 153.629 245.625 154.186 243.792 153.967C227.297 151.993 211.579 149.74 195.083 147.766C192.474 147.825 190.362 146.829 187.752 146.888L188.25 145.832C201.002 132.486 213.754 119.14 226.505 105.794C227.781 104.459 229.335 103.901 231.944 103.842C250.272 106.035 269.377 107.95 287.984 110.921C280.333 118.928 272.682 126.936 265.31 135.721Z" fill="black" fill-opacity="0.2"/>
</g>
<defs>
<clipPath id="clip0_2466_49615">
<rect width="300" height="200" fill="white"/>
</clipPath>
</defs>
</svg>
