<svg width="300" height="200" viewBox="0 0 300 200" fill="none" xmlns="http://www.w3.org/2000/svg">
<g clip-path="url(#clip0_2466_47648)">
<g clip-path="url(#clip1_2466_47648)">
<path d="M328.661 141.11L316.274 145.555L311.893 133.345L318.086 131.123L309.323 106.703L284.55 115.593L286.74 121.698L274.353 126.143L269.972 113.933C268.658 110.27 270.259 106.939 273.975 105.606L311.135 92.2709C314.851 90.9374 318.205 92.4904 319.519 96.1534L332.664 132.783C333.978 136.446 331.758 139.999 328.661 141.11Z" fill="black" fill-opacity="0.18"/>
<path d="M308.645 182.743L271.485 196.078C267.769 197.411 264.415 195.858 263.101 192.195L249.956 155.566C248.642 151.903 250.243 148.572 253.959 147.238L291.12 133.904C294.836 132.57 298.189 134.123 299.504 137.786L312.648 174.416C313.962 178.079 311.742 181.632 308.645 182.743ZM273.297 181.646L298.07 172.756L289.308 148.336L264.534 157.226L273.297 181.646Z" fill="black" fill-opacity="0.18"/>
<path d="M230.78 141.084C216.46 142.089 203.808 132.157 202.085 117.615C201.2 103.461 211.359 90.8579 226.079 89.0209C238.323 88.073 249.26 95.1739 253.203 106.163L265.59 101.718C258.361 81.5716 235.724 71.0889 215.285 78.423C194.847 85.7572 184.04 108.241 191.269 128.387C197.622 146.092 216.105 156.687 235.162 153.294L230.78 141.084Z" fill="black" fill-opacity="0.18"/>
<path d="M303.072 71.7371L293.208 89.0586L281.471 83.6231L291.734 65.4689L267.888 45.7725L249.459 60.6548C242.971 58.1593 236.302 57.1071 229.232 56.8876L216.391 36.6878L187.282 47.1334L190.833 70.6669C185.516 75.3313 181.037 80.384 177.616 86.4354L153.929 86.6659L147.828 116.42L169.808 125.071C170.76 131.62 173.17 138.336 176.599 143.996L165.354 165.259L188.981 184.345L207.41 169.463C213.898 171.958 220.567 173.01 227.637 173.23L239.64 193.041L248.311 189.93L252.692 202.14L244.021 205.251C237.828 207.474 231.34 204.978 228.129 199.928L219.556 185.777C216.021 185.667 212.886 184.725 209.752 183.782L196.859 194.611C195.84 195.666 194.601 196.11 193.362 196.555C189.027 198.11 183.815 197.224 180.643 194.228L157.016 175.142C152.166 171.369 150.995 164.21 154.016 158.991L162.06 144.39C161.402 142.558 160.964 141.337 160.307 139.506C159.65 137.674 159.212 136.453 158.554 134.622L143.063 128.466C137.413 126.359 133.983 120.698 135.109 114.093L140.59 84.5614C141.753 80.0094 144.593 76.234 148.929 74.6782C150.787 74.0115 152.025 73.567 153.483 73.733L170.1 73.283C171.92 70.5626 174.579 68.2304 176.399 65.5099L174.019 49.1363C173.286 43.1974 176.707 37.146 182.9 34.9235L212.009 24.4779C218.203 22.2554 224.691 24.7509 227.901 29.8009L236.475 43.952C240.01 44.0617 243.144 45.0042 246.279 45.9467L259.39 35.7289C260.41 34.6739 262.268 34.0072 263.507 33.5627C267.842 32.0069 273.054 32.8932 276.226 35.8894L299.853 54.9752C304.922 59.3585 305.874 65.9079 303.072 71.7371Z" fill="black" fill-opacity="0.18"/>
</g>
</g>
<defs>
<clipPath id="clip0_2466_47648">
<rect width="300" height="200" fill="white"/>
</clipPath>
<clipPath id="clip1_2466_47648">
<rect width="181.611" height="181.611" fill="white" transform="translate(113.531 59.8125) rotate(-19.7402)"/>
</clipPath>
</defs>
</svg>
