<svg width="198" height="200" viewBox="0 0 198 200" fill="none" xmlns="http://www.w3.org/2000/svg">
<g clip-path="url(#clip0_8799_23732)">
<path d="M215.455 97.8664C214.894 97.8004 214.333 97.7343 213.772 97.6683C208.093 97.5668 202.415 97.4654 197.059 97.5155C192.741 97.4607 188.507 97.6429 184.019 97.1144C175.603 96.1235 169.431 91.6532 164.178 85.2491C158.839 78.6081 153.024 72.138 147.448 65.5824C146.955 64.9571 145.663 64.3512 144.711 64.6929C143.673 64.7977 142.976 65.85 142.925 67.2053C142.704 75.5739 142.636 83.6202 142.415 91.9889C142.177 95.8179 142.177 99.5614 141.378 103.324C140.426 107.41 138.113 111.448 135.053 114.151C129.17 119.47 123.202 124.553 117.235 129.636C114.956 131.523 112.678 133.41 110.57 135.771C109.941 136.264 109.652 137.705 109.907 138.416C110.162 139.126 111.369 139.495 112.1 140.035C112.423 140.187 112.984 140.253 113.46 140.082C121.859 140.277 130.173 140.235 138.487 140.193C147.6 140.131 155.574 142.885 161.797 149.744C165.809 154.187 169.583 158.715 173.273 163.006C175.653 165.896 178.271 168.7 180.736 171.826C181.638 172.84 182.692 173.531 184.443 173.17C184.817 171.966 185.514 170.914 185.412 169.881C185.718 161.749 185.701 153.466 185.769 145.42C185.752 137.137 187.589 129.525 193.216 123.495C196.107 120.318 199.49 117.767 202.789 114.979C207.498 110.883 212.531 106.938 217.155 102.604C217.938 101.789 218.55 100.5 218.686 99.3812C218.193 98.756 216.339 98.084 215.455 97.8664Z" fill="black" fill-opacity="0.18"/>
<path d="M30.3968 107.12C36.6368 107.266 42.8767 107.411 49.0325 107.322C55.2724 107.468 60.7419 109.214 64.9086 114.078C66.2132 115.465 67.5179 116.852 68.9068 118.473C72.0914 122.1 75.0377 125.812 78.2223 129.438C78.7134 130.057 79.9195 130.419 81.0557 131.336C81.4337 130.141 81.9803 129.415 81.9659 128.625C82.2578 122.691 82.2271 116.608 82.2807 110.759C82.2357 103.886 84.4486 98.0577 89.8032 93.4866C94.5269 89.4068 99.3349 85.5618 103.974 81.2473C104.759 80.4357 105.137 79.2401 105.838 78.1938C104.87 77.7462 103.664 77.384 102.781 77.1711C97.1017 77.0893 91.4226 77.0074 85.7436 76.9256C77.9893 77.0584 71.8604 74.2234 66.9499 68.0364C63.4283 63.4708 59.4301 59.0763 55.5161 54.9165C55.025 54.2978 53.9032 54.1704 53.1738 53.6372C52.7115 54.598 51.9266 55.4096 52.0252 56.4341C51.8032 61.8131 51.5812 67.1922 51.6817 72.7204C51.5583 79.1239 50.1445 84.9306 45.3509 89.5654C43.7812 91.1886 41.8888 92.6625 40.2348 94.051C36.5343 97.2337 32.9879 100.096 29.2874 103.279C28.6566 103.77 28.6011 105.115 28.0545 105.841C28.7839 106.374 29.5133 106.907 30.3968 107.12Z" fill="black" fill-opacity="0.18"/>
<path d="M107.264 176.539C101.293 176.661 96.2025 174.445 92.4071 169.455C89.4161 165.908 86.4252 162.362 83.4342 158.815C82.9052 158.139 81.9604 157.9 81.2694 157.571C80.9456 158.264 80.368 159.049 80.3897 159.908C80.3144 163.688 80.331 167.725 80.2557 171.505C80.4074 177.514 79.2688 183.12 74.4215 187.17C72.6671 188.665 70.9128 190.161 68.9966 192.004C66.8266 193.937 64.403 195.962 62.233 197.896C61.9092 198.589 61.5854 199.283 61.7689 199.794C61.9525 200.306 62.8972 200.545 63.2427 200.709C64.1875 200.948 65.2941 200.839 66.4925 200.987C70.5035 200.991 74.5144 200.996 78.5253 201C83.3892 200.987 87.4434 202.708 90.7799 206.42C94.5536 210.552 97.7281 214.61 101.502 218.742C102.031 219.418 102.884 219.401 103.575 219.73C103.899 219.036 104.476 218.252 104.546 217.649C104.805 214.38 104.81 211.202 104.816 208.024C104.912 205.102 104.918 201.924 105.268 198.911C105.899 193.487 109.915 190.313 113.84 186.884C116.425 184.513 119.103 182.397 121.688 180.025C122.358 179.496 122.843 178.456 123.837 177.233C122.546 176.83 121.855 176.5 121.002 176.518C116.484 176.696 111.874 176.617 107.264 176.539Z" fill="black" fill-opacity="0.18"/>
</g>
<defs>
<clipPath id="clip0_8799_23732">
<rect width="198.121" height="198.121" fill="white" transform="translate(0.978516 54.8262) rotate(-19.7402)"/>
</clipPath>
</defs>
</svg>
