<svg width="289" height="209" viewBox="0 0 289 209" fill="none" xmlns="http://www.w3.org/2000/svg">
<path d="M202.754 208.854C206.256 208.854 208.813 205.504 207.864 202.125C203.438 186.348 188.974 174.781 171.813 174.781H117.048C99.8857 174.781 85.4223 186.348 80.9961 202.125C80.0481 205.504 82.6038 208.854 86.1068 208.854H202.754Z" fill="#F7F7F7"/>
<path d="M125.2 174.781H120.196C102.92 174.781 88.7335 189.749 87.1953 208.854H99.0135C100.234 189.749 111.491 174.781 125.2 174.781Z" fill="#E5E5E5"/>
<path d="M168.667 174.781H163.664C177.373 174.781 188.631 189.749 189.851 208.854H201.669C200.132 189.749 185.944 174.781 168.667 174.781Z" fill="white"/>
<path d="M200.159 28.3047H191.148V52.6415H200.159V28.3047Z" fill="#F7F7F7"/>
<path d="M194.369 28.3047H192.133V52.6415H194.369V28.3047Z" fill="#E5E5E5"/>
<path d="M195.655 22.624C192.133 22.624 189.268 19.7531 189.268 16.2244C189.268 12.6957 192.133 9.82496 195.655 9.82496C199.177 9.82496 202.041 12.6957 202.041 16.2244C202.041 19.7531 199.177 22.624 195.655 22.624ZM195.655 0.796875C187.163 0.796875 180.258 7.71778 180.258 16.2244C180.258 24.731 187.163 31.6519 195.655 31.6519C204.146 31.6519 211.054 24.731 211.054 16.2244C211.054 7.71778 204.146 0.796875 195.655 0.796875Z" fill="#F7F7F7"/>
<path d="M195.655 22.6125C192.137 22.6125 189.277 19.746 189.277 16.2223C189.277 12.6987 192.137 9.83221 195.655 9.83221C199.172 9.83221 202.032 12.6987 202.032 16.2223C202.032 19.746 199.172 22.6125 195.655 22.6125ZM195.655 5.16406C189.569 5.16406 184.617 10.1249 184.617 16.2223C184.617 22.3198 189.569 27.2806 195.655 27.2806C201.741 27.2806 206.692 22.3198 206.692 16.2223C206.692 10.1249 201.741 5.16406 195.655 5.16406Z" fill="#E5E5E5"/>
<path d="M97.7145 28.3047H88.7031V52.6415H97.7145V28.3047Z" fill="#F7F7F7"/>
<path d="M91.9246 28.3047H89.6875V52.6415H91.9246V28.3047Z" fill="#E5E5E5"/>
<path d="M93.2106 22.624C89.6886 22.624 86.8233 19.7531 86.8233 16.2244C86.8233 12.6957 89.6886 9.82496 93.2106 9.82496C96.7326 9.82496 99.598 12.6957 99.598 16.2244C99.598 19.7531 96.7326 22.624 93.2106 22.624ZM93.2106 0.796875C84.7202 0.796875 77.8125 7.71778 77.8125 16.2244C77.8125 24.731 84.7202 31.6519 93.2106 31.6519C101.701 31.6519 108.61 24.731 108.61 16.2244C108.61 7.71778 101.701 0.796875 93.2106 0.796875Z" fill="#F7F7F7"/>
<path d="M93.2088 22.6125C89.6919 22.6125 86.8311 19.746 86.8311 16.2223C86.8311 12.6987 89.6919 9.83221 93.2088 9.83221C96.726 9.83221 99.5868 12.6987 99.5868 16.2223C99.5868 19.746 96.726 22.6125 93.2088 22.6125ZM93.2088 5.16406C87.1231 5.16406 82.1719 10.1249 82.1719 16.2223C82.1719 22.3198 87.1231 27.2806 93.2088 27.2806C99.2948 27.2806 104.247 22.3198 104.247 16.2223C104.247 10.1249 99.2948 5.16406 93.2088 5.16406Z" fill="#E5E5E5"/>
<path d="M118.484 160.83H170.381C178.933 160.83 185.865 153.945 185.865 145.451V145.383H103V145.451C103 153.945 109.932 160.83 118.484 160.83Z" fill="#F7F7F7"/>
<path d="M19.2512 116.835H37.6539V79.7969H19.2512C8.9988 79.7969 0.6875 88.0517 0.6875 98.2349V98.3955C0.6875 108.578 8.9988 116.835 19.2512 116.835Z" fill="#F7F7F7"/>
<path d="M9.88823 98.3152C9.88823 88.0878 18.1634 79.7969 28.3713 79.7969H22.9596C12.7518 79.7969 4.47656 88.0878 4.47656 98.3152C4.47656 108.542 12.7518 116.835 22.9596 116.835H28.3713C18.1634 116.835 9.88823 108.542 9.88823 98.3152Z" fill="#E5E5E5"/>
<path d="M269.613 79.7969H251.211V116.835H269.613C279.866 116.835 288.178 108.578 288.178 98.3955V98.2349C288.178 88.0517 279.866 79.7969 269.613 79.7969Z" fill="#F7F7F7"/>
<path d="M278.974 98.3152C278.974 108.542 270.699 116.835 260.492 116.835H265.903C276.112 116.835 284.385 108.542 284.385 98.3152C284.385 88.0878 276.112 79.7969 265.903 79.7969H260.492C270.699 79.7969 278.974 88.0878 278.974 98.3152Z" fill="white"/>
<path d="M211.962 40.2969H76.8962C44.9167 40.2969 18.9922 66.2709 18.9922 98.3114C18.9922 130.351 44.9167 156.326 76.8962 156.326H211.962C243.941 156.326 269.866 130.351 269.866 98.3116C269.866 66.2711 243.941 40.2969 211.962 40.2969Z" fill="#F7F7F7"/>
<path d="M30.2497 98.3116C30.2497 66.2711 53.8475 40.2969 82.957 40.2969H76.8962C44.9167 40.2969 18.9922 66.2709 18.9922 98.3114C18.9922 130.351 44.9167 156.326 76.8962 156.326H82.957C53.8475 156.326 30.2497 130.351 30.2497 98.3116Z" fill="#E5E5E5"/>
<path d="M211.967 40.2969H205.906C235.016 40.2969 258.615 66.2709 258.615 98.3114C258.615 130.351 235.016 156.326 205.906 156.326H211.967C243.947 156.326 269.871 130.351 269.871 98.3116C269.871 66.2711 243.947 40.2969 211.967 40.2969Z" fill="white"/>
<path d="M211.962 138.114H76.8955C54.9918 138.114 37.1719 120.262 37.1719 98.3149C37.1719 76.3698 54.9918 58.5156 76.8955 58.5156H211.962C233.865 58.5156 251.686 76.3698 251.686 98.3149C251.686 120.262 233.865 138.114 211.962 138.114Z" fill="#18162E"/>
<path d="M76.8955 64.8874H211.962C233.311 64.8874 250.777 80.491 251.648 99.9742C251.67 99.4236 251.686 98.8709 251.686 98.3149C251.686 76.3698 233.865 58.5156 211.962 58.5156H76.8955C54.9918 58.5156 37.1719 76.3698 37.1719 98.3149C37.1719 98.8709 37.1864 99.4236 37.2089 99.9742C38.0805 80.491 55.5467 64.8874 76.8955 64.8874Z" fill="#0A0A11"/>
<path d="M164.613 111.426C163.298 109.198 160.429 108.461 158.208 109.78C148.94 115.271 139.928 115.271 130.659 109.78C128.437 108.459 125.568 109.2 124.254 111.426C122.939 113.652 123.675 116.526 125.898 117.842C132.047 121.488 138.241 123.312 144.434 123.312C150.626 123.312 156.821 121.488 162.969 117.842C165.192 116.526 165.929 113.652 164.613 111.426Z" fill="#F7F7F7"/>
<path d="M94.469 95.0527C94.469 103.478 87.652 110.308 79.2424 110.308C70.8329 110.308 64.0156 103.478 64.0156 95.0527C64.0156 86.6271 70.8329 79.7969 79.2424 79.7969C87.652 79.7969 94.469 86.6271 94.469 95.0527Z" fill="#46E6F2"/>
<path d="M224.852 95.0527C224.852 103.478 218.033 110.308 209.624 110.308C201.215 110.308 194.398 103.478 194.398 95.0527C194.398 86.6271 201.215 79.7969 209.624 79.7969C218.033 79.7969 224.852 86.6271 224.852 95.0527Z" fill="#46E6F2"/>
</svg>
