<svg width="29" height="35" viewBox="0 0 29 35" fill="none" xmlns="http://www.w3.org/2000/svg">
<path d="M0 0H28.2382V34.582L0 29.4588V0Z" fill="#F04438"/>
<rect width="23.7796" height="23.0547" transform="translate(1.07812 3.84375)" fill="#F04438"/>
<path d="M5.80273 6.3125V14.8438H4.34375V6.3125H5.80273ZM8.48047 6.3125V7.48438H1.68945V6.3125H8.48047ZM16.2441 10.3438V10.8125C16.2441 11.457 16.1602 12.0352 15.9922 12.5469C15.8242 13.0586 15.584 13.4941 15.2715 13.8535C14.9629 14.2129 14.5918 14.4883 14.1582 14.6797C13.7246 14.8672 13.2441 14.9609 12.7168 14.9609C12.1934 14.9609 11.7148 14.8672 11.2812 14.6797C10.8516 14.4883 10.4785 14.2129 10.1621 13.8535C9.8457 13.4941 9.59961 13.0586 9.42383 12.5469C9.25195 12.0352 9.16602 11.457 9.16602 10.8125V10.3438C9.16602 9.69922 9.25195 9.12305 9.42383 8.61523C9.5957 8.10352 9.83789 7.66797 10.1504 7.30859C10.4668 6.94531 10.8398 6.66992 11.2695 6.48242C11.7031 6.29102 12.1816 6.19531 12.7051 6.19531C13.2324 6.19531 13.7129 6.29102 14.1465 6.48242C14.5801 6.66992 14.9531 6.94531 15.2656 7.30859C15.5781 7.66797 15.8184 8.10352 15.9863 8.61523C16.1582 9.12305 16.2441 9.69922 16.2441 10.3438ZM14.7734 10.8125V10.332C14.7734 9.85547 14.7266 9.43555 14.6328 9.07227C14.543 8.70508 14.4082 8.39844 14.2285 8.15234C14.0527 7.90234 13.8359 7.71484 13.5781 7.58984C13.3203 7.46094 13.0293 7.39648 12.7051 7.39648C12.3809 7.39648 12.0918 7.46094 11.8379 7.58984C11.584 7.71484 11.3672 7.90234 11.1875 8.15234C11.0117 8.39844 10.877 8.70508 10.7832 9.07227C10.6895 9.43555 10.6426 9.85547 10.6426 10.332V10.8125C10.6426 11.2891 10.6895 11.7109 10.7832 12.0781C10.877 12.4453 11.0137 12.7559 11.1934 13.0098C11.377 13.2598 11.5957 13.4492 11.8496 13.5781C12.1035 13.7031 12.3926 13.7656 12.7168 13.7656C13.0449 13.7656 13.3359 13.7031 13.5898 13.5781C13.8438 13.4492 14.0586 13.2598 14.2344 13.0098C14.4102 12.7559 14.543 12.4453 14.6328 12.0781C14.7266 11.7109 14.7734 11.2891 14.7734 10.8125ZM20.9551 11.6621H18.7344V10.4961H20.9551C21.3418 10.4961 21.6543 10.4336 21.8926 10.3086C22.1309 10.1836 22.3047 10.0117 22.4141 9.79297C22.5273 9.57031 22.584 9.31641 22.584 9.03125C22.584 8.76172 22.5273 8.50977 22.4141 8.27539C22.3047 8.03711 22.1309 7.8457 21.8926 7.70117C21.6543 7.55664 21.3418 7.48438 20.9551 7.48438H19.1855V14.8438H17.7148V6.3125H20.9551C21.6152 6.3125 22.1758 6.42969 22.6367 6.66406C23.1016 6.89453 23.4551 7.21484 23.6973 7.625C23.9395 8.03125 24.0605 8.49609 24.0605 9.01953C24.0605 9.57031 23.9395 10.043 23.6973 10.4375C23.4551 10.832 23.1016 11.1348 22.6367 11.3457C22.1758 11.5566 21.6152 11.6621 20.9551 11.6621Z" fill="white"/>
<path d="M10.2295 16.1577V26.8438H8.12012V18.5894L5.58594 19.395V17.7324L10.0024 16.1577H10.2295ZM20.8789 20.5742V22.4199C20.8789 23.2207 20.7935 23.9116 20.6226 24.4927C20.4517 25.0688 20.2051 25.5425 19.8828 25.9136C19.5654 26.2798 19.187 26.5508 18.7476 26.7266C18.3081 26.9023 17.8198 26.9902 17.2827 26.9902C16.853 26.9902 16.4526 26.9365 16.0815 26.8291C15.7104 26.7168 15.376 26.5435 15.0781 26.3091C14.7852 26.0747 14.5312 25.7793 14.3164 25.4229C14.1064 25.0615 13.9453 24.6318 13.833 24.1338C13.7207 23.6357 13.6646 23.0645 13.6646 22.4199V20.5742C13.6646 19.7734 13.75 19.0874 13.9209 18.5161C14.0967 17.9399 14.3433 17.4688 14.6606 17.1025C14.9829 16.7363 15.3638 16.4678 15.8032 16.2969C16.2427 16.1211 16.731 16.0332 17.2681 16.0332C17.6978 16.0332 18.0957 16.0894 18.4619 16.2017C18.833 16.3091 19.1675 16.4775 19.4653 16.707C19.7632 16.9365 20.0171 17.2319 20.2271 17.5933C20.437 17.9497 20.5981 18.377 20.7104 18.875C20.8228 19.3682 20.8789 19.9346 20.8789 20.5742ZM18.7622 22.6982V20.2886C18.7622 19.9028 18.7402 19.5659 18.6963 19.2778C18.6572 18.9897 18.5962 18.7456 18.5132 18.5454C18.4302 18.3403 18.3276 18.1743 18.2056 18.0474C18.0835 17.9204 17.9443 17.8276 17.7881 17.769C17.6318 17.7104 17.4585 17.6812 17.2681 17.6812C17.0288 17.6812 16.8164 17.7275 16.6309 17.8203C16.4502 17.9131 16.2964 18.062 16.1694 18.2671C16.0425 18.4673 15.9448 18.7358 15.8765 19.0728C15.813 19.4048 15.7812 19.8101 15.7812 20.2886V22.6982C15.7812 23.084 15.8008 23.4233 15.8398 23.7163C15.8838 24.0093 15.9473 24.2607 16.0303 24.4707C16.1182 24.6758 16.2207 24.8442 16.3379 24.9761C16.46 25.103 16.5991 25.1958 16.7554 25.2544C16.9165 25.313 17.0923 25.3423 17.2827 25.3423C17.5171 25.3423 17.7246 25.2959 17.9053 25.2031C18.0908 25.1055 18.2471 24.9541 18.374 24.749C18.5059 24.5391 18.6035 24.2656 18.667 23.9287C18.7305 23.5918 18.7622 23.1816 18.7622 22.6982Z" fill="white"/>
</svg>
