<svg width="29" height="30" viewBox="0 0 29 30" fill="none" xmlns="http://www.w3.org/2000/svg">
<path d="M24.8809 13.6562H3.98511C2.33648 13.6562 1 14.8591 1 16.3428V25.7459C1 27.2297 2.33648 28.4325 3.98511 28.4325H24.8809C26.5295 28.4325 27.866 27.2297 27.866 25.7459V16.3428C27.866 14.8591 26.5295 13.6562 24.8809 13.6562Z" stroke="#F0F2F5" stroke-width="1.3" stroke-linecap="round" stroke-linejoin="round"/>
<path d="M6.96875 13.6561V8.2829C6.96875 6.50158 7.755 4.79321 9.15455 3.53362C10.5541 2.27403 12.4523 1.56641 14.4315 1.56641C16.4108 1.56641 18.309 2.27403 19.7085 3.53362C21.108 4.79321 21.8943 6.50158 21.8943 8.2829V13.6561" stroke="#F0F2F5" stroke-width="1.3" stroke-linecap="round" stroke-linejoin="round"/>
</svg>
