<svg width="27" height="27" viewBox="0 0 27 27" fill="none" xmlns="http://www.w3.org/2000/svg">
<path d="M15.3697 23.5736C15.1729 23.9129 14.8904 24.1945 14.5506 24.3902C14.2107 24.586 13.8254 24.689 13.4331 24.689C13.0409 24.689 12.6556 24.586 12.3157 24.3902C11.9758 24.1945 11.6934 23.9129 11.4966 23.5736M20.1496 9.02118C20.1496 7.23986 19.442 5.53149 18.1824 4.2719C16.9228 3.01232 15.2145 2.30469 13.4331 2.30469C11.6518 2.30469 9.94345 3.01232 8.68386 4.2719C7.42427 5.53149 6.71665 7.23986 6.71665 9.02118C6.71665 16.8571 3.3584 19.0959 3.3584 19.0959H23.5079C23.5079 19.0959 20.1496 16.8571 20.1496 9.02118Z" stroke="#F0F2F5" stroke-width="1.3" stroke-linecap="round" stroke-linejoin="round"/>
</svg>
