<svg width="76" height="85" viewBox="0 0 76 85" fill="none" xmlns="http://www.w3.org/2000/svg">
<path d="M35.1407 40.6445L0.3125 77.1337C0.703574 78.5197 1.40639 79.7981 2.36722 80.8709C3.32805 81.9437 4.52146 82.7827 5.85622 83.3236C7.19097 83.8645 8.63173 84.0931 10.0684 83.9918C11.505 83.8906 12.8995 83.4622 14.1452 82.7394L53.3333 60.4203L35.1407 40.6445Z" fill="#EA4335"/>
<path d="M70.3736 34.4445L53.4266 24.7383L34.3516 41.4776L53.5045 60.371L70.3217 50.7686C71.8115 49.9885 73.0595 48.8155 73.9302 47.3767C74.801 45.938 75.2613 44.2883 75.2613 42.6065C75.2613 40.9248 74.801 39.2751 73.9302 37.8363C73.0595 36.3976 71.8115 35.2246 70.3217 34.4445H70.3736Z" fill="#FBBC04"/>
<path d="M0.311532 7.88281C0.101003 8.6611 -0.00374869 9.46419 0.000102439 10.2704V74.7363C0.00220817 75.5422 0.106859 76.3445 0.311532 77.1239L36.3335 41.5691L0.311532 7.88281Z" fill="#4285F4"/>
<path d="M35.4002 42.5083L53.4112 24.7309L14.2749 2.30797C12.8026 1.44567 11.128 0.988979 9.42181 0.984394C7.36114 0.98031 5.35564 1.65015 3.71105 2.89179C2.06645 4.13344 0.872955 5.87879 0.3125 7.86179L35.4002 42.5083Z" fill="#34A853"/>
</svg>
