<svg width="33" height="31" viewBox="0 0 33 31" fill="none" xmlns="http://www.w3.org/2000/svg">
<rect x="0.5" y="1" width="32" height="29" rx="7.5" stroke="white"/>
<path d="M14.3111 14.6662H12.3168C12.2401 14.2401 12.0973 13.8651 11.8885 13.5412C11.6797 13.2173 11.424 12.9425 11.1214 12.7166C10.8189 12.4908 10.4801 12.3203 10.1051 12.2053C9.73438 12.0902 9.3402 12.0327 8.92259 12.0327C8.16832 12.0327 7.4929 12.2223 6.89631 12.6016C6.30398 12.9808 5.83523 13.5369 5.49006 14.2699C5.14915 15.0028 4.97869 15.8977 4.97869 16.9545C4.97869 18.0199 5.14915 18.919 5.49006 19.652C5.83523 20.3849 6.30611 20.9389 6.9027 21.3139C7.49929 21.6889 8.17045 21.8764 8.91619 21.8764C9.32955 21.8764 9.72159 21.821 10.0923 21.7102C10.4673 21.5952 10.8061 21.4268 11.1087 21.2053C11.4112 20.9837 11.6669 20.7131 11.8757 20.3935C12.0888 20.0696 12.2358 19.6989 12.3168 19.2812L14.3111 19.2876C14.2045 19.9311 13.9979 20.5234 13.6911 21.0646C13.3885 21.6016 12.9986 22.0661 12.5213 22.4581C12.0483 22.8459 11.5071 23.1463 10.8977 23.3594C10.2884 23.5724 9.62358 23.679 8.90341 23.679C7.76989 23.679 6.75994 23.4105 5.87358 22.8736C4.98722 22.3324 4.28835 21.5589 3.77699 20.5533C3.26989 19.5476 3.01634 18.348 3.01634 16.9545C3.01634 15.5568 3.27202 14.3572 3.78338 13.3558C4.29474 12.3501 4.99361 11.5788 5.87997 11.0419C6.76634 10.5007 7.77415 10.2301 8.90341 10.2301C9.59801 10.2301 10.2457 10.3303 10.8466 10.5305C11.4517 10.7266 11.995 11.0163 12.4766 11.3999C12.9581 11.7791 13.3565 12.2436 13.6719 12.7933C13.9872 13.3388 14.2003 13.9631 14.3111 14.6662ZM27.5474 14.6662H25.5531C25.4764 14.2401 25.3336 13.8651 25.1248 13.5412C24.916 13.2173 24.6603 12.9425 24.3578 12.7166C24.0552 12.4908 23.7164 12.3203 23.3414 12.2053C22.9707 12.0902 22.5765 12.0327 22.1589 12.0327C21.4047 12.0327 20.7292 12.2223 20.1326 12.6016C19.5403 12.9808 19.0716 13.5369 18.7264 14.2699C18.3855 15.0028 18.215 15.8977 18.215 16.9545C18.215 18.0199 18.3855 18.919 18.7264 19.652C19.0716 20.3849 19.5424 20.9389 20.139 21.3139C20.7356 21.6889 21.4068 21.8764 22.1525 21.8764C22.5659 21.8764 22.9579 21.821 23.3287 21.7102C23.7037 21.5952 24.0424 21.4268 24.345 21.2053C24.6475 20.9837 24.9032 20.7131 25.112 20.3935C25.3251 20.0696 25.4721 19.6989 25.5531 19.2812L27.5474 19.2876C27.4409 19.9311 27.2342 20.5234 26.9274 21.0646C26.6248 21.6016 26.2349 22.0661 25.7576 22.4581C25.2846 22.8459 24.7434 23.1463 24.1341 23.3594C23.5247 23.5724 22.8599 23.679 22.1397 23.679C21.0062 23.679 19.9963 23.4105 19.1099 22.8736C18.2235 22.3324 17.5247 21.5589 17.0133 20.5533C16.5062 19.5476 16.2527 18.348 16.2527 16.9545C16.2527 15.5568 16.5083 14.3572 17.0197 13.3558C17.5311 12.3501 18.2299 11.5788 19.1163 11.0419C20.0027 10.5007 21.0105 10.2301 22.1397 10.2301C22.8343 10.2301 23.4821 10.3303 24.0829 10.5305C24.688 10.7266 25.2314 11.0163 25.7129 11.3999C26.1944 11.7791 26.5929 12.2436 26.9082 12.7933C27.2235 13.3388 27.4366 13.9631 27.5474 14.6662Z" fill="white"/>
</svg>
