<svg width="88" height="28" viewBox="0 0 88 28" fill="none" xmlns="http://www.w3.org/2000/svg">
<path d="M38.0009 7.8C38.9476 7.8 39.7609 7.96667 40.4409 8.3C41.1343 8.63333 41.6743 9.10667 42.0609 9.72C42.4476 10.3333 42.6409 11.0733 42.6409 11.94C42.6409 12.7933 42.4476 13.5333 42.0609 14.16C41.6743 14.7733 41.1343 15.2467 40.4409 15.58C39.7609 15.9133 38.9476 16.08 38.0009 16.08H35.0609V21H32.9209V7.8H38.0009ZM37.6609 14.24C38.6076 14.24 39.3009 14.0467 39.7409 13.66C40.1943 13.26 40.4209 12.6867 40.4209 11.94C40.4209 11.18 40.1943 10.6067 39.7409 10.22C39.3009 9.82 38.6076 9.62 37.6609 9.62H35.0609V14.24H37.6609ZM50.82 21.2C49.58 21.2 48.5067 20.9267 47.6 20.38C46.6933 19.8333 45.9867 19.06 45.48 18.06C44.9733 17.0467 44.72 15.8267 44.72 14.4C44.72 13 44.98 11.7933 45.5 10.78C46.0333 9.76667 46.78 8.98667 47.74 8.44C48.7133 7.88 49.8267 7.6 51.08 7.6C52.4533 7.6 53.56 7.85333 54.4 8.36C55.2533 8.86667 55.9333 9.65333 56.44 10.72L54.46 11.66C54.2067 10.9267 53.7867 10.38 53.2 10.02C52.6267 9.64667 51.9267 9.46 51.1 9.46C50.2733 9.46 49.5467 9.65333 48.92 10.04C48.3067 10.4267 47.8267 10.9933 47.48 11.74C47.1333 12.4733 46.96 13.36 46.96 14.4C46.96 15.4533 47.1133 16.3533 47.42 17.1C47.7267 17.8333 48.1867 18.3933 48.8 18.78C49.4267 19.1667 50.1933 19.36 51.1 19.36C51.5933 19.36 52.0533 19.3 52.48 19.18C52.9067 19.0467 53.28 18.86 53.6 18.62C53.92 18.3667 54.1667 18.0533 54.34 17.68C54.5267 17.2933 54.62 16.84 54.62 16.32V15.94H50.78V14.2H56.52V21H54.92L54.8 18.34L55.2 18.54C54.88 19.38 54.3467 20.0333 53.6 20.5C52.8667 20.9667 51.94 21.2 50.82 21.2ZM66.5327 14.74V16.72H59.7127V14.74H66.5327ZM71.5053 21V11.94C71.5053 11.6733 71.5053 11.4 71.5053 11.12C71.5186 10.8267 71.532 10.52 71.5453 10.2C71.092 10.64 70.572 11.02 69.9853 11.34C69.412 11.6467 68.8186 11.8667 68.2053 12L67.8053 10.14C68.0853 10.1 68.412 10.0067 68.7853 9.86C69.1586 9.71333 69.5453 9.52667 69.9453 9.3C70.3453 9.07333 70.712 8.83333 71.0453 8.58C71.3786 8.31333 71.6386 8.05333 71.8253 7.8H73.6253V21H71.5053ZM81.6922 7.62C82.5855 7.62 83.3589 7.76667 84.0122 8.06C84.6789 8.34 85.1922 8.74 85.5522 9.26C85.9122 9.78 86.0922 10.4067 86.0922 11.14C86.0922 11.82 85.9255 12.42 85.5922 12.94C85.2722 13.4467 84.7989 13.8333 84.1722 14.1V14.12C84.9322 14.4 85.5322 14.82 85.9722 15.38C86.4255 15.9267 86.6522 16.6067 86.6522 17.42C86.6522 18.2067 86.4455 18.88 86.0322 19.44C85.6322 20 85.0589 20.4333 84.3122 20.74C83.5789 21.0467 82.7055 21.2 81.6922 21.2C80.6789 21.2 79.7989 21.0467 79.0522 20.74C78.3189 20.4333 77.7455 20 77.3322 19.44C76.9189 18.88 76.7122 18.2067 76.7122 17.42C76.7122 16.62 76.9322 15.94 77.3722 15.38C77.8122 14.82 78.4255 14.4 79.2122 14.12V14.1C78.6122 13.8467 78.1389 13.4667 77.7922 12.96C77.4455 12.44 77.2722 11.8333 77.2722 11.14C77.2722 10.4067 77.4522 9.78 77.8122 9.26C78.1722 8.74 78.6855 8.34 79.3522 8.06C80.0189 7.76667 80.7989 7.62 81.6922 7.62ZM81.6922 9.42C80.9855 9.42 80.4189 9.59333 79.9922 9.94C79.5789 10.2867 79.3722 10.76 79.3722 11.36C79.3722 11.96 79.5855 12.4333 80.0122 12.78C80.4389 13.1133 80.9989 13.28 81.6922 13.28C82.3855 13.28 82.9389 13.1133 83.3522 12.78C83.7789 12.4333 83.9922 11.96 83.9922 11.36C83.9922 10.76 83.7855 10.2867 83.3722 9.94C82.9589 9.59333 82.3989 9.42 81.6922 9.42ZM81.6922 19.4C82.2789 19.4 82.7789 19.3133 83.1922 19.14C83.6055 18.9667 83.9255 18.7133 84.1522 18.38C84.3789 18.0467 84.4922 17.66 84.4922 17.22C84.4922 16.7533 84.3722 16.36 84.1322 16.04C83.9055 15.7067 83.5855 15.4533 83.1722 15.28C82.7589 15.1067 82.2655 15.02 81.6922 15.02C81.1322 15.02 80.6389 15.1067 80.2122 15.28C79.7855 15.4533 79.4522 15.7067 79.2122 16.04C78.9855 16.36 78.8722 16.7533 78.8722 17.22C78.8722 17.66 78.9855 18.0467 79.2122 18.38C79.4389 18.7133 79.7655 18.9667 80.1922 19.14C80.6189 19.3133 81.1189 19.4 81.6922 19.4Z" fill="white"/>
<path d="M22.9609 14.0818V15.0018C22.9597 17.1582 22.2614 19.2565 20.9703 20.9836C19.6791 22.7108 17.8642 23.9743 15.7963 24.5857C13.7284 25.1971 11.5182 25.1237 9.49541 24.3764C7.47262 23.6291 5.74559 22.2479 4.5719 20.4389C3.3982 18.6299 2.84073 16.4899 2.98261 14.3381C3.1245 12.1864 3.95814 10.1381 5.35922 8.49889C6.76029 6.85964 8.65372 5.7172 10.7571 5.24196C12.8605 4.76673 15.0612 4.98415 17.0309 5.86182" stroke="#E7202C" stroke-width="2" stroke-linecap="round" stroke-linejoin="round"/>
<path d="M22.9609 7L12.9609 17.01L9.96094 14.01" stroke="#E7202C" stroke-width="2" stroke-linecap="round" stroke-linejoin="round"/>
</svg>
