<svg width="19" height="20" viewBox="0 0 19 20" fill="none" xmlns="http://www.w3.org/2000/svg">
<path d="M0 2.875V9.2207H8.7207V0.5H2.375C1.07617 0.5 0 1.57617 0 2.875ZM7.125 7.625H1.5957V2.875C1.5957 2.42969 1.9668 2.0957 2.375 2.0957H7.125V7.625Z" fill="#514A81"/>
<path d="M0 17.125C0 18.4238 1.07617 19.5 2.375 19.5H8.7207V10.7793H0V17.125ZM1.5957 12.375H7.125V17.9043H2.375C1.92969 17.9043 1.5957 17.5332 1.5957 17.125V12.375Z" fill="#514A81"/>
<path d="M10.2812 10.7793V19.5H16.627C17.9258 19.5 19.002 18.4238 19.002 17.125V10.7793H10.2812ZM17.4063 17.125C17.4063 17.5703 17.0352 17.9043 16.627 17.9043H11.877V12.375H17.4063V17.125Z" fill="#514A81"/>
<path d="M13.4668 9.2207H15.0625V6.06641H18.2168V4.4707H15.0625V1.2793H13.4668V4.43359H10.3125V6.0293H13.4668V9.2207Z" fill="#514A81"/>
</svg>
