<svg width="25" height="24" viewBox="0 0 25 24" fill="none" xmlns="http://www.w3.org/2000/svg">
<g clip-path="url(#clip0_6891_31046)">
<g clip-path="url(#clip1_6891_31046)">
<path d="M22.7208 8.98575L22.2111 8.90024V8.81473C22.2111 7.53207 21.5314 6.37767 20.427 5.7791C19.4925 5.26603 18.0482 4.79572 15.8819 4.49644C15.627 3.64133 14.9049 3 12.2288 3C9.59513 3 8.87301 3.59857 8.61814 4.49644C6.23938 4.75297 4.71018 5.26603 3.73319 5.7791C2.67124 6.37767 1.94912 7.57482 1.94912 8.81473V8.94299L1.7792 8.98575C0.887168 9.11401 0.25 9.88361 0.25 10.7815V14.6722C0.25 15.5701 0.887168 16.3397 1.7792 16.4679L1.94912 16.5107C1.94912 17.7506 2.62876 18.905 3.73319 19.5036C5.13496 20.2732 7.64115 20.9572 12.0588 20.9572C16.4765 20.9572 18.9827 20.2304 20.3845 19.5036C21.4465 18.905 22.1686 17.7933 22.1686 16.5534L22.6783 16.4679C23.5704 16.3397 24.2075 15.5701 24.2075 14.6722V10.7815C24.25 9.88361 23.5704 9.11401 22.7208 8.98575ZM21.2765 16.5534C21.2765 17.4086 20.8093 18.2209 20.0447 18.6485C18.9403 19.247 16.6465 19.9739 12.2288 19.9739C7.81106 19.9739 5.55973 19.247 4.45531 18.6485C3.69071 18.2209 3.22345 17.4513 3.22345 16.5534V10.1829C3.22345 9.32779 3.69071 8.51544 4.45531 8.08789C5.55973 7.48931 7.85354 6.76247 12.2712 6.76247C16.6889 6.76247 18.9403 7.48931 20.0872 8.08789C20.8518 8.51544 21.319 9.28504 21.319 10.1829V16.5534H21.2765Z" fill="#000096"/>
<path d="M9.34017 13.2617C9.34017 14.0313 8.74548 13.6465 7.98087 13.6465C7.21627 13.6465 6.62158 14.0313 6.62158 13.2617C6.62158 12.4921 7.21627 11.8936 7.98087 11.8936C8.74548 11.8936 9.34017 12.4921 9.34017 13.2617Z" fill="#000096"/>
<path d="M13.3331 15.5704C13.3331 15.8697 13.2057 16.169 12.9933 16.34C12.7809 16.5111 12.526 16.6821 12.2287 16.6821C11.634 16.6821 11.1243 16.169 11.1243 15.5704C11.1243 15.5277 11.1243 15.4849 11.1667 15.4422C11.2092 15.3994 11.2517 15.3994 11.2942 15.3994H13.1632C13.2906 15.3994 13.3331 15.4849 13.3331 15.5704Z" fill="#000096"/>
<path d="M17.8783 13.2617C17.8783 14.0313 17.2836 13.6465 16.519 13.6465C15.7544 13.6465 15.1597 14.0313 15.1597 13.2617C15.1597 12.4921 15.7544 11.8936 16.519 11.8936C17.2836 11.8936 17.8783 12.4921 17.8783 13.2617Z" fill="#000096"/>
</g>
</g>
<defs>
<clipPath id="clip0_6891_31046">
<rect width="24" height="24" fill="white" transform="translate(0.25)"/>
</clipPath>
<clipPath id="clip1_6891_31046">
<rect width="24" height="18" fill="white" transform="translate(0.25 3)"/>
</clipPath>
</defs>
</svg>
