<svg width="24" height="25" viewBox="0 0 24 25" fill="none" xmlns="http://www.w3.org/2000/svg">
<path d="M23.7 4.46569C23.7 4.26569 23.7 4.06569 23.6 3.86569C23.3 3.06569 22.6 2.56569 21.6 2.56569C18.9 2.56569 16.2 2.56569 13.5 2.56569C10 2.56569 6.5 2.56569 3 2.56569C2.8 2.46569 2.5 2.46569 2.2 2.66569C1.4 2.96569 1 3.66569 1 4.56569C1 7.86569 1 11.1657 1 14.4657C1 15.6657 1 16.8657 1 17.9657C1 18.9657 1.9 19.7657 2.8 19.7657C3.5 19.7657 4.3 19.7657 5 19.7657C5.1 19.7657 5.3 19.6657 5.4 19.6657C5.6 19.4657 5.7 19.1657 5.6 18.9657C5.5 18.6657 5.3 18.4657 5 18.4657C4.4 18.4657 3.7 18.4657 3.1 18.4657C2.6 18.4657 2.3 18.1657 2.3 17.6657C2.3 13.9657 2.3 10.2657 2.3 6.56569C2.3 6.46569 2.3 6.46569 2.3 6.36569C9 6.36569 15.6 6.36569 22.3 6.36569C22.3 6.46569 22.3 6.46569 22.3 6.56569C22.3 10.2657 22.3 13.9657 22.3 17.6657C22.3 18.1657 22 18.4657 21.5 18.4657C20.9 18.4657 20.3 18.4657 19.6 18.4657C19.2 18.4657 18.9 18.7657 18.9 19.1657C18.9 19.5657 19.2 19.8657 19.6 19.8657C20.3 19.8657 21 19.8657 21.6 19.8657C22.7 19.8657 23.6 18.9657 23.6 17.8657C23.7 13.3657 23.7 8.86569 23.7 4.46569ZM2.3 5.16569C2.3 4.86569 2.3 4.56569 2.3 4.36569C2.4 4.06569 2.6 3.86569 3 3.86569C4 3.86569 5 3.86569 6 3.86569C11.2 3.86569 16.4 3.86569 21.6 3.86569C22.1 3.86569 22.4 4.16569 22.4 4.66569C22.4 4.86569 22.4 5.06569 22.4 5.26569C15.7 5.16569 9 5.16569 2.3 5.16569Z" fill="#514A81"/>
<path d="M20.2 14.4664C20.2 13.8664 19.9 13.4664 19.4 13.2664C17.3 12.2664 15.3 11.1664 13.2 10.1664C12.6 9.86641 12 9.86641 11.4 10.1664C9.4 11.1664 7.3 12.1664 5.3 13.2664C4.8 13.4664 4.5 13.9664 4.5 14.4664C4.5 15.0664 4.8 15.4664 5.3 15.6664C5.6 15.8664 5.9 15.9664 6.2 16.0664C6.3 16.1664 6.4 16.1664 6.4 16.3664C6.4 17.9664 6.4 19.4664 6.4 21.0664C6.4 21.3664 6.5 21.5664 6.7 21.6664C8.4 23.0664 10.3 23.7664 12.6 23.7664C12.8 23.7664 13.3 23.7664 13.7 23.6664C15.4 23.4664 16.8 22.7664 18.1 21.6664C18.3 21.4664 18.4 21.2664 18.4 20.9664C18.4 19.4664 18.4 17.8664 18.4 16.3664C18.4 16.2664 18.4 16.1664 18.5 16.1664C18.8 16.0664 19.1 15.8664 19.4 15.6664C19.9 15.4664 20.2 15.0664 20.2 14.4664ZM16.9 20.9664C15.4 22.1664 13.6 22.6664 11.7 22.4664C10.2 22.3664 8.9 21.8664 7.8 20.9664C7.7 20.9664 7.7 20.8664 7.7 20.7664C7.7 19.4664 7.7 18.2664 7.7 16.9664C7.7 16.9664 7.7 16.9664 7.7 16.8664C7.9 16.9664 8.1 17.0664 8.3 17.1664C9.3 17.6664 10.4 18.1664 11.4 18.7664C12 19.0664 12.7 19.0664 13.3 18.7664C13.6 18.5664 14 18.4664 14.3 18.2664C14.3 18.3664 14.3 18.5664 14.3 18.6664C14.3 19.0664 14.3 19.4664 14.3 19.8664C14.3 20.1664 14.5 20.4664 14.8 20.5664C15.1 20.6664 15.4 20.5664 15.5 20.2664C15.6 20.1664 15.6 19.9664 15.6 19.8664C15.6 19.1664 15.6 18.4664 15.6 17.7664C15.6 17.6664 15.6 17.5664 15.7 17.5664C16.1 17.3664 16.5 17.1664 16.9 16.9664C16.9 17.0664 16.9 17.0664 16.9 17.1664C16.9 18.3664 16.9 19.5664 16.9 20.7664C17 20.7664 17 20.8664 16.9 20.9664ZM15.2 16.3664L15.1 16.2664C14.4 15.5664 13.6 14.7664 12.9 14.0664C12.7 13.8664 12.5 13.7664 12.2 13.8664C12 13.9664 11.8 14.0664 11.7 14.3664C11.6 14.6664 11.7 14.8664 11.9 14.9664C12.5 15.5664 13.1 16.1664 13.7 16.7664C13.7 16.7664 13.8 16.8664 13.9 16.8664C13.4 17.0664 13 17.3664 12.6 17.5664C12.4 17.6664 12.2 17.6664 12 17.5664C10.2 16.6664 8.5 15.7664 6.7 14.8664C6.4 14.7664 6.2 14.5664 5.9 14.4664L6 14.3664C8 13.3664 10 12.3664 12 11.3664C12.2 11.2664 12.4 11.2664 12.7 11.3664C14.7 12.3664 16.8 13.3664 18.8 14.4664C17.6 15.0664 16.4 15.6664 15.2 16.3664Z" fill="#514A81"/>
</svg>
