<svg width="22" height="22" viewBox="0 0 22 22" fill="none" xmlns="http://www.w3.org/2000/svg">
<path d="M21.6937 12.1828C21.6324 12.1523 21.5711 12.1218 21.5098 12.0913C20.8665 11.8474 20.2232 11.6035 19.6105 11.3901C19.1203 11.2072 18.6302 11.0547 18.14 10.8108C17.221 10.3535 16.7002 9.59128 16.3632 8.64614C16.0263 7.67052 15.628 6.69489 15.2604 5.71926C15.2298 5.6278 15.1072 5.50584 14.9847 5.50584C14.8621 5.47535 14.7396 5.56682 14.6783 5.71926C14.3107 6.6644 13.9737 7.57905 13.6061 8.52419C13.4223 8.95103 13.2691 9.37786 13.0241 9.77421C12.7484 10.201 12.3195 10.5669 11.86 10.7498C10.9716 11.1157 10.0832 11.4511 9.19475 11.7864C8.85777 11.9084 8.52079 12.0304 8.18381 12.2133C8.0919 12.2438 8 12.3962 8 12.4877C8 12.5791 8.12254 12.6706 8.18381 12.7621C8.21444 12.7926 8.27571 12.823 8.33698 12.823C9.28665 13.1889 10.2363 13.5243 11.186 13.8597C12.2276 14.2255 13.0241 14.8658 13.453 15.9024C13.7287 16.5731 13.9737 17.2439 14.2188 17.8841C14.372 18.311 14.5558 18.7378 14.709 19.1951C14.7702 19.3476 14.8621 19.4695 15.0766 19.5C15.1685 19.378 15.291 19.2866 15.3217 19.1646C15.6893 18.25 16.0263 17.3048 16.3632 16.3902C16.7002 15.445 17.221 14.6523 18.1094 14.195C18.5689 13.9511 19.0591 13.7987 19.5492 13.6157C20.2538 13.3414 20.9891 13.0974 21.6937 12.7926C21.8162 12.7316 21.9387 12.6096 22 12.4877C21.9694 12.3962 21.7856 12.2438 21.6937 12.1828Z" fill="#514A81"/>
<path d="M0.214724 5.66616C0.920245 5.93807 1.62577 6.20997 2.33129 6.45166C3.03681 6.72356 3.58896 7.14653 3.86503 7.8716C3.95706 8.08308 4.04908 8.29456 4.1411 8.53625C4.35583 9.08006 4.53988 9.62387 4.7546 10.1677C4.78528 10.2583 4.90798 10.3489 5 10.5C5.09203 10.3792 5.18405 10.3187 5.21472 10.2281C5.4908 9.56344 5.7362 8.86858 5.9816 8.20393C6.25767 7.41843 6.74847 6.84441 7.54601 6.5423C8.25153 6.27039 8.95706 6.0287 9.66258 5.72659C9.78528 5.66616 9.8773 5.54532 10 5.45468C9.90798 5.36405 9.78528 5.27341 9.69325 5.21299C9.04908 4.9713 8.40491 4.72961 7.76074 4.48792C6.87117 4.1858 6.28834 3.61178 5.9816 2.70544C5.76687 2.04079 5.4908 1.37613 5.21472 0.741692C5.18405 0.651057 5.06135 0.590634 5 0.5C4.90798 0.590634 4.78528 0.651057 4.7546 0.771903C4.5092 1.37613 4.2638 1.98036 4.04908 2.6148C3.77301 3.33988 3.37423 3.94411 2.63804 4.27643C2.39264 4.39728 2.11656 4.48792 1.87117 4.57855C1.31902 4.79003 0.797546 4.9713 0.245399 5.18278C0.153374 5.21299 0.0920245 5.36405 0 5.42447C0.0613497 5.51511 0.122699 5.60574 0.214724 5.66616Z" fill="#514A81"/>
<path d="M6.13878 16.7263C5.45306 16.4959 4.96327 16.035 4.73469 15.3107C4.53878 14.784 4.34286 14.2572 4.14694 13.7305C4.11429 13.6317 4.01633 13.5658 3.95102 13.5C3.88571 13.5658 3.78776 13.6317 3.7551 13.7305C3.59184 14.1584 3.42857 14.6193 3.26531 15.0473C3.03673 15.7387 2.67755 16.3313 1.95918 16.5947C1.69796 16.6934 1.43673 16.7922 1.14286 16.9239C0.816327 17.0556 0.457143 17.1872 0.130612 17.3189C0.0653061 17.3848 0 17.4506 0 17.5165C0 17.5823 0.0979592 17.6481 0.130612 17.6811C0.228571 17.7469 0.359184 17.7798 0.489796 17.8457C0.946939 18.0103 1.40408 18.1749 1.86122 18.3395C2.41633 18.537 2.80816 18.8992 3.03673 19.4588C3.29796 20.0844 3.49388 20.677 3.7551 21.3025C3.78776 21.4012 3.88571 21.4342 3.95102 21.5C4.01633 21.4342 4.11429 21.3683 4.14694 21.3025C4.3102 20.9403 4.44082 20.5782 4.57143 20.2161C4.70204 19.8868 4.83265 19.5247 4.99592 19.1955C5.2898 18.6029 5.87755 18.4054 6.46531 18.1749C6.85714 18.0103 7.24898 17.8786 7.64082 17.714C7.73878 17.6811 7.83673 17.5823 8 17.4835C7.86939 17.3848 7.80408 17.3189 7.70612 17.286C7.18367 17.1214 6.66122 16.9239 6.13878 16.7263Z" fill="#514A81"/>
</svg>
