<svg width="24" height="25" viewBox="0 0 24 25" fill="none" xmlns="http://www.w3.org/2000/svg">
<path d="M16.4988 11H14.2488C14.0498 11 13.8591 10.921 13.7184 10.7803C13.5778 10.6397 13.4988 10.4489 13.4988 10.25C13.4988 10.0511 13.5778 9.86032 13.7184 9.71967C13.8591 9.57902 14.0498 9.5 14.2488 9.5H16.4988C16.6977 9.5 16.8884 9.57902 17.0291 9.71967C17.1697 9.86032 17.2488 10.0511 17.2488 10.25C17.2488 10.4489 17.1697 10.6397 17.0291 10.7803C16.8884 10.921 16.6977 11 16.4988 11ZM9.74875 9.5H8.99875V8.75C8.99875 8.55109 8.91973 8.36032 8.77908 8.21967C8.63843 8.07902 8.44766 8 8.24875 8C8.04984 8 7.85907 8.07902 7.71842 8.21967C7.57777 8.36032 7.49875 8.55109 7.49875 8.75V9.5H6.74875C6.54984 9.5 6.35907 9.57902 6.21842 9.71967C6.07777 9.86032 5.99875 10.0511 5.99875 10.25C5.99875 10.4489 6.07777 10.6397 6.21842 10.7803C6.35907 10.921 6.54984 11 6.74875 11H7.49875V11.75C7.49875 11.9489 7.57777 12.1397 7.71842 12.2803C7.85907 12.421 8.04984 12.5 8.24875 12.5C8.44766 12.5 8.63843 12.421 8.77908 12.2803C8.91973 12.1397 8.99875 11.9489 8.99875 11.75V11H9.74875C9.94766 11 10.1384 10.921 10.2791 10.7803C10.4197 10.6397 10.4988 10.4489 10.4988 10.25C10.4988 10.0511 10.4197 9.86032 10.2791 9.71967C10.1384 9.57902 9.94766 9.5 9.74875 9.5ZM22.6375 19.3109C22.3548 19.7146 21.9872 20.0514 21.5605 20.2978C21.1337 20.5442 20.6582 20.6941 20.1673 20.7371C19.6764 20.7801 19.1821 20.7151 18.719 20.5466C18.2559 20.3781 17.8354 20.1103 17.4869 19.7619C17.4756 19.7506 17.4644 19.7394 17.4541 19.7272L13.7313 15.5H10.2625L6.54344 19.7272L6.51063 19.7619C5.87707 20.3941 5.01877 20.7494 4.12375 20.75C3.63104 20.7498 3.14434 20.6418 2.69784 20.4334C2.25135 20.2251 1.85589 19.9215 1.53924 19.544C1.22259 19.1665 0.992438 18.7242 0.864944 18.2483C0.737451 17.7724 0.715711 17.2743 0.801252 16.7891C0.8008 16.7847 0.8008 16.7803 0.801252 16.7759L2.33594 8.8925C2.56434 7.59225 3.24368 6.41409 4.25459 5.56504C5.26549 4.71599 6.54328 4.25037 7.86344 4.25H16.1238C17.4399 4.2521 18.7138 4.71506 19.7242 5.55849C20.7346 6.40193 21.4178 7.57258 21.655 8.86719C21.655 8.87281 21.655 8.87844 21.655 8.88406L23.1897 16.775C23.1901 16.7794 23.1901 16.7838 23.1897 16.7881C23.2691 17.2243 23.2612 17.6718 23.1664 18.1049C23.0716 18.5379 22.8919 18.9479 22.6375 19.3109ZM16.1238 14C17.2178 14 18.267 13.5654 19.0406 12.7918C19.8142 12.0182 20.2488 10.969 20.2488 9.875C20.2488 8.78098 19.8142 7.73177 19.0406 6.95818C18.267 6.1846 17.2178 5.75 16.1238 5.75H7.86344C6.89496 5.75087 5.9578 6.09325 5.21685 6.71691C4.4759 7.34057 3.97862 8.20556 3.8125 9.15969V9.17188L2.27688 17.0553C2.209 17.4461 2.26683 17.8484 2.44204 18.2043C2.61726 18.5602 2.90084 18.8514 3.25198 19.0359C3.60313 19.2204 4.00376 19.2889 4.39625 19.2313C4.78874 19.1738 5.15286 18.9932 5.43625 18.7156L9.36625 14.2541C9.43662 14.1742 9.52317 14.1103 9.62016 14.0665C9.71714 14.0227 9.82233 14 9.92875 14H16.1238ZM21.7206 17.0553L20.9013 12.8366C20.3973 13.6503 19.6941 14.322 18.858 14.7881C18.022 15.2542 17.0809 15.4992 16.1238 15.5H15.73L18.5613 18.7166C18.7747 18.9242 19.0344 19.0783 19.3189 19.1661C19.6035 19.2539 19.9048 19.273 20.1981 19.2219C20.6868 19.1356 21.1214 18.8591 21.4066 18.453C21.6918 18.0469 21.8044 17.5443 21.7197 17.0553H21.7206Z" fill="#514A81"/>
</svg>
