<svg width="24" height="25" viewBox="0 0 24 25" fill="none" xmlns="http://www.w3.org/2000/svg">
<path d="M22.5732 6.46L4.56098 1.5C4.39024 1.5 4.21951 1.5 4.04878 1.58C3.87805 1.66 3.79268 1.74 3.70732 1.9L2.76829 5.02C2.68293 5.34 2.85366 5.66 3.19512 5.74L16.939 9.5H2.68293C2.2561 9.5 2 9.82 2 10.14V22.94C2 23.26 2.2561 23.58 2.68293 23.58H21.4634C21.8049 23.58 22.1463 23.34 22.1463 22.94V10.22L23.0854 7.26C23.0854 6.94 22.9146 6.54 22.5732 6.46ZM4.81707 2.86L6.18293 3.26L4.21951 4.78L4.81707 2.86ZM5.67073 5.18L7.63415 3.66L9.42683 4.14L7.46341 5.66L5.67073 5.18ZM9 6.06L10.9634 4.54L12.7561 5.02L10.7927 6.54L9 6.06ZM12.2439 7.02L14.2073 5.5L16 5.98L14.0366 7.5L12.2439 7.02ZM15.4878 7.9L17.4512 6.38L19.2439 6.86L17.3659 8.38L15.4878 7.9ZM20.7805 22.3H3.28049V13.1H20.7805V22.3ZM20.7805 11.9H3.28049V10.7H20.7805V11.9ZM20.9512 9.42L18.8171 8.78L20.7805 7.26L21.6341 7.5L20.9512 9.42Z" fill="#514A81"/>
<path d="M10.8754 20.3802L14.8876 18.3802C15.3998 18.1402 15.3998 17.4202 14.8876 17.1802L10.8754 15.1002C10.3632 14.8602 9.76562 15.1802 9.76562 15.7402V19.8202C9.76562 20.3002 10.3632 20.6202 10.8754 20.3802Z" fill="#514A81"/>
</svg>
