<svg width="24" height="25" viewBox="0 0 24 25" fill="none" xmlns="http://www.w3.org/2000/svg">
<g clip-path="url(#clip0_34_113211)">
<path d="M22.2047 19.5709H20.6105V17.9994H21.4076V14.8566H18.2192V15.6423H16.625V14.0709C16.625 13.5994 16.9438 13.2852 17.4221 13.2852H22.2047C22.683 13.2852 23.0018 13.5994 23.0018 14.0709V18.7852C23.0018 19.2566 22.6033 19.5709 22.2047 19.5709Z" fill="#514A81"/>
<path d="M18.2203 23.5006H13.4377C12.9595 23.5006 12.6406 23.1863 12.6406 22.7148V18.0006C12.6406 17.5291 12.9595 17.2148 13.4377 17.2148H18.2203C18.6986 17.2148 19.0174 17.5291 19.0174 18.0006V22.7148C19.0174 23.1863 18.6189 23.5006 18.2203 23.5006ZM14.2348 21.9291H17.4232V18.7863H14.2348V21.9291Z" fill="#514A81"/>
<path d="M11.0402 15.5637C9.36628 15.0923 8.33005 13.4423 8.7286 11.7137C9.20686 10.0637 10.8808 9.0423 12.6344 9.43516C14.0692 9.82801 15.0257 11.0852 15.0257 12.4994H16.6199C16.6199 9.90658 14.4677 7.78516 11.8373 7.78516C9.20686 7.78516 7.05469 9.90658 7.05469 12.4994C7.05469 14.778 8.7286 16.7423 11.0402 17.1352V15.5637Z" fill="#514A81"/>
<path d="M22.1211 10.6143L20.2877 12.1857L19.1718 11.0857L21.0848 9.43572L19.1718 6.21429L16.4617 7.15714C15.824 6.60714 15.1066 6.21429 14.3095 5.9L13.6718 3.07143H9.92542L9.36745 5.9C8.57035 6.21429 7.85296 6.60714 7.21528 7.15714L4.50513 6.21429L2.59209 9.35714L4.74426 11.2429C4.58484 12.0286 4.58484 12.8929 4.74426 13.6786L2.59209 15.6429L4.50513 18.7857L7.21528 17.8429C7.85296 18.3929 8.57035 18.7857 9.36745 19.1L9.92542 21.85H11.0414V23.4214H9.92542C9.12832 23.4214 8.49064 22.8714 8.33122 22.1643L7.93267 20.2C7.53412 20.0429 7.21528 19.8071 6.89644 19.5714L4.98339 20.2786C4.82397 20.3571 4.66455 20.3571 4.50513 20.3571C3.94716 20.3571 3.38919 20.0429 3.15006 19.5714L1.23702 16.4286C0.838466 15.8 0.997886 14.9357 1.55586 14.4643L3.07035 13.1286C3.07035 12.8929 3.07035 12.7357 3.07035 12.5C3.07035 12.2643 3.07035 12.1071 3.07035 11.8714L1.55586 10.5357C0.997886 10.0643 0.838466 9.27857 1.23702 8.57143L3.07035 5.42857C3.38919 4.95714 3.86745 4.64286 4.42542 4.64286C4.66455 4.64286 4.82397 4.64286 4.98339 4.72143L6.89644 5.35C7.21528 5.11429 7.61383 4.95714 7.93267 4.72143L8.33122 2.75714C8.49064 2.05 9.12832 1.5 9.92542 1.5H13.6718C14.4689 1.5 15.1066 2.05 15.266 2.75714L15.6646 4.72143C16.0631 4.87857 16.3819 5.11429 16.7008 5.35L18.6138 4.72143C18.7733 4.64286 19.0124 4.64286 19.1718 4.64286C19.7298 4.64286 20.2877 4.95714 20.5269 5.42857L22.4399 8.57143C22.8385 9.27857 22.679 10.0643 22.1211 10.6143Z" fill="#514A81"/>
</g>
<defs>
<clipPath id="clip0_34_113211">
<rect width="22" height="22" fill="white" transform="translate(1 1.5)"/>
</clipPath>
</defs>
</svg>
