<svg width="20" height="20" viewBox="0 0 20 20" fill="none" xmlns="http://www.w3.org/2000/svg">
<g id="Icons">
<path id="Vector" d="M17.9132 7.06249C18.5853 8.86769 18.6194 10.8485 18.01 12.6758C17.4006 14.5031 16.1843 16.0669 14.5632 17.1073C12.942 18.1477 11.0137 18.6021 9.09865 18.395C7.18357 18.1879 5.39701 17.3317 4.03583 15.9687C2.5068 14.4448 1.62009 12.3927 1.55816 10.2347C1.49624 8.07681 2.26381 5.97723 3.70292 4.36806C5.14203 2.7589 7.1432 1.76256 9.29462 1.58408C11.446 1.4056 13.584 2.05856 15.2686 3.40858L16.839 1.83749C16.9262 1.75028 17.0297 1.68111 17.1436 1.63391C17.2576 1.58672 17.3797 1.56243 17.503 1.56243C17.6263 1.56243 17.7485 1.58672 17.8624 1.63391C17.9763 1.68111 18.0799 1.75028 18.1671 1.83749C18.2543 1.9247 18.3235 2.02823 18.3707 2.14217C18.4178 2.25611 18.4421 2.37823 18.4421 2.50155C18.4421 2.62488 18.4178 2.747 18.3707 2.86094C18.3235 2.97488 18.2543 3.07841 18.1671 3.16562L10.6671 10.6656C10.5799 10.7528 10.4763 10.822 10.3624 10.8692C10.2485 10.9164 10.1263 10.9407 10.003 10.9407C9.87969 10.9407 9.75757 10.9164 9.64363 10.8692C9.52969 10.822 9.42616 10.7528 9.33895 10.6656C9.25175 10.5784 9.18257 10.4749 9.13538 10.3609C9.08818 10.247 9.06389 10.1249 9.06389 10.0016C9.06389 9.87823 9.08818 9.75611 9.13538 9.64217C9.18257 9.52823 9.25175 9.4247 9.33895 9.33749L11.214 7.46249C10.6855 7.21001 10.0914 7.1288 9.51458 7.2302C8.93775 7.3316 8.40697 7.61054 7.99629 8.0281C7.58562 8.44566 7.31555 8.98101 7.22376 9.55944C7.13197 10.1379 7.22304 10.7305 7.48428 11.2547C7.74551 11.7789 8.16386 12.2085 8.68096 12.4834C9.19806 12.7584 9.78811 12.8651 10.3688 12.7886C10.9494 12.7122 11.4917 12.4563 11.92 12.0568C12.3482 11.6573 12.6411 11.1341 12.7577 10.5601C12.8068 10.3164 12.9507 10.1021 13.1578 9.96445C13.3649 9.8268 13.6182 9.77706 13.862 9.82616C14.1058 9.87527 14.32 10.0192 14.4577 10.2263C14.5953 10.4334 14.6451 10.6867 14.596 10.9305C14.3963 11.9142 13.8861 12.8078 13.1404 13.4799C12.3948 14.1519 11.4531 14.5668 10.454 14.6636C9.45492 14.7603 8.45113 14.5338 7.5904 14.0174C6.72967 13.5009 6.05746 12.7218 5.6727 11.7946C5.28795 10.8675 5.21097 9.84137 5.45309 8.86722C5.69522 7.89307 6.24366 7.02237 7.01771 6.38327C7.79175 5.74417 8.75051 5.37043 9.75288 5.31704C10.7552 5.26365 11.7483 5.53344 12.5858 6.08671L13.9319 4.7453C12.6675 3.80097 11.1051 3.34393 9.53101 3.45793C7.95697 3.57194 6.47673 4.24936 5.36155 5.36605C4.24638 6.48274 3.57097 7.9639 3.4591 9.53809C3.34723 11.1123 3.80639 12.6741 4.75244 13.9372C5.69848 15.2004 7.06805 16.0804 8.61015 16.4158C10.1523 16.7513 11.7636 16.5198 13.1489 15.7638C14.5342 15.0077 15.6006 13.7778 16.1528 12.2994C16.705 10.821 16.7059 9.19309 16.1554 7.71405C16.1115 7.59842 16.091 7.47526 16.095 7.35166C16.099 7.22807 16.1274 7.10648 16.1785 6.9939C16.2297 6.88133 16.3026 6.77998 16.3931 6.69571C16.4836 6.61144 16.5899 6.54591 16.7058 6.50288C16.8218 6.45986 16.9451 6.44019 17.0686 6.44502C17.1922 6.44985 17.3136 6.47908 17.4258 6.53102C17.538 6.58297 17.6389 6.6566 17.7225 6.74768C17.8062 6.83876 17.8709 6.94548 17.9132 7.06171V7.06249Z" fill="black"/>
</g>
</svg>
