<svg width="351" height="52" viewBox="0 0 351 52" fill="none" xmlns="http://www.w3.org/2000/svg">
<g clip-path="url(#clip0_3596_21319)">
<path d="M53.5022 35.4608L46.0178 50.9649H0.25L23.0801 0.0536499H43.2179L27.4415 35.4608H53.5022Z" fill="url(#paint0_linear_3596_21319)"/>
<path d="M42.5718 0.482828L27.0646 35.2999L26.7953 35.8363H27.3876H52.8022L45.8024 50.5357H0.84229L23.3493 0.482828H42.5718ZM43.2179 0.0536499H23.0801L0.25 50.9649H46.0178L53.5022 35.4608H27.4415L43.2179 0.0536499Z" fill="url(#paint1_linear_3596_21319)"/>
<path d="M66.9633 15.665H51.2946L66.9633 50.9649V15.665Z" fill="url(#paint2_linear_3596_21319)"/>
<path d="M66.5325 16.0942V49.0873L51.9407 16.0942H66.5325ZM66.9633 15.665H51.3484L66.9633 50.9113V15.665Z" fill="url(#paint3_linear_3596_21319)"/>
<path d="M66.9634 1.23389V0H44.1333L44.7256 1.23389H66.9634Z" fill="url(#paint4_linear_3596_21319)"/>
<path d="M50.1101 12.9825L50.5409 13.9482H66.9634V12.9825H50.1101Z" fill="url(#paint5_linear_3596_21319)"/>
<path d="M48.4409 9.33459L48.8717 10.3002H66.9634V9.33459H48.4409Z" fill="url(#paint6_linear_3596_21319)"/>
<path d="M49.2485 11.1586L49.6793 12.1243H66.9634V11.1586H49.2485Z" fill="url(#paint7_linear_3596_21319)"/>
<path d="M45.1025 2.09222L45.5333 3.05787H66.9634V2.09222H45.1025Z" fill="url(#paint8_linear_3596_21319)"/>
<path d="M45.964 3.91614L46.3947 4.82814H66.9633V3.91614H45.964Z" fill="url(#paint9_linear_3596_21319)"/>
<path d="M47.5793 7.5105L48.0639 8.47615H66.9634V7.5105H47.5793Z" fill="url(#paint10_linear_3596_21319)"/>
<path d="M46.7717 5.68658L47.2025 6.65223H66.9634V5.68658H46.7717Z" fill="url(#paint11_linear_3596_21319)"/>
<path d="M82.955 15.2358H88.7163L85.5395 31.0081H95.2854L94.37 35.5681H78.8628L82.955 15.2358Z" fill="white"/>
<path d="M105.947 35.0853C104.654 34.4951 103.685 33.6368 102.985 32.5638C102.285 31.4372 101.962 30.1497 101.962 28.6476C101.962 28.0038 102.016 27.3064 102.178 26.5017L104.439 15.2358H110.2L107.939 26.448C107.831 27.0382 107.777 27.5746 107.777 28.0575C107.777 30.2034 108.908 31.2763 111.17 31.2763C112.408 31.2763 113.377 30.9008 114.077 30.1497C114.777 29.3986 115.316 28.1648 115.693 26.448L117.954 15.2358H123.661L121.346 26.7699C120.108 32.8857 116.5 35.9973 110.523 35.9973C108.747 35.9973 107.239 35.6754 105.947 35.0853Z" fill="white"/>
<path d="M130.392 35.3535C128.884 34.9244 127.646 34.4415 126.677 33.7978L128.938 29.506C129.961 30.1497 131.092 30.6862 132.223 31.0081C133.407 31.33 134.538 31.4909 135.723 31.4909C136.853 31.4909 137.715 31.33 138.307 31.0081C138.899 30.6862 139.223 30.257 139.223 29.6669C139.223 29.1841 138.953 28.8086 138.415 28.5403C137.876 28.2721 137.015 28.0039 135.83 27.682C134.484 27.3064 133.407 26.9846 132.546 26.609C131.684 26.2335 130.93 25.697 130.284 24.946C129.638 24.1949 129.315 23.2293 129.315 22.049C129.315 20.6005 129.692 19.313 130.5 18.2401C131.307 17.1671 132.438 16.3088 133.892 15.7186C135.346 15.1285 137.123 14.8066 139.061 14.8066C140.515 14.8066 141.861 14.9676 143.153 15.2358C144.392 15.5577 145.522 15.9869 146.438 16.5234L144.338 20.8151C143.53 20.3323 142.669 19.9031 141.699 19.6885C140.73 19.4203 139.761 19.313 138.738 19.313C137.607 19.313 136.692 19.4739 136.046 19.8495C135.4 20.225 135.076 20.7078 135.076 21.298C135.076 21.7808 135.346 22.21 135.938 22.4782C136.476 22.7464 137.392 23.0147 138.576 23.3365C139.923 23.6584 140.999 23.9803 141.861 24.3558C142.722 24.6777 143.476 25.2142 144.069 25.9653C144.715 26.6627 144.984 27.6283 144.984 28.8086C144.984 30.257 144.553 31.4909 143.799 32.6175C142.992 33.6905 141.861 34.5488 140.353 35.1389C138.846 35.7291 137.123 36.0509 135.184 36.0509C133.515 35.9973 131.9 35.7827 130.392 35.3535Z" fill="white"/>
<path d="M153.33 35.3535C151.822 34.9244 150.584 34.4415 149.615 33.7978L151.876 29.506C152.899 30.1497 154.03 30.6862 155.16 31.0081C156.345 31.33 157.476 31.4909 158.66 31.4909C159.791 31.4909 160.653 31.33 161.245 31.0081C161.837 30.6862 162.16 30.257 162.16 29.6669C162.16 29.1841 161.891 28.8086 161.353 28.5403C160.814 28.2721 159.953 28.0039 158.768 27.682C157.422 27.3064 156.345 26.9846 155.484 26.609C154.622 26.2335 153.868 25.697 153.222 24.946C152.576 24.1949 152.253 23.2293 152.253 22.049C152.253 20.6005 152.63 19.313 153.437 18.2401C154.245 17.1671 155.376 16.3088 156.83 15.7186C158.283 15.1285 160.06 14.8066 161.999 14.8066C163.453 14.8066 164.799 14.9676 166.091 15.2358C167.329 15.5577 168.46 15.9869 169.375 16.5234L167.276 20.8151C166.468 20.3323 165.606 19.9031 164.637 19.6885C163.668 19.4203 162.699 19.313 161.676 19.313C160.545 19.313 159.63 19.4739 158.983 19.8495C158.337 20.225 158.014 20.7078 158.014 21.298C158.014 21.7808 158.283 22.21 158.876 22.4782C159.414 22.7464 160.33 23.0147 161.514 23.3365C162.86 23.6584 163.937 23.9803 164.799 24.3558C165.66 24.6777 166.414 25.2142 167.006 25.9653C167.652 26.6627 167.922 27.6283 167.922 28.8086C167.922 30.257 167.491 31.4909 166.737 32.6175C165.929 33.6905 164.799 34.5488 163.291 35.1389C161.783 35.7291 160.06 36.0509 158.122 36.0509C156.453 35.9973 154.837 35.7827 153.33 35.3535Z" fill="white"/>
<path d="M179.121 34.8707C177.614 34.1196 176.429 33.0467 175.568 31.7055C174.76 30.3643 174.329 28.8086 174.329 27.0382C174.329 24.7314 174.868 22.6391 175.945 20.7615C177.021 18.8838 178.529 17.4354 180.468 16.4161C182.406 15.3431 184.614 14.8603 187.09 14.8603C189.136 14.8603 190.967 15.2358 192.475 15.9869C193.982 16.7379 195.167 17.8109 196.029 19.1521C196.836 20.4932 197.267 22.049 197.267 23.8194C197.267 26.1262 196.729 28.2184 195.652 30.0961C194.575 31.9738 193.067 33.4222 191.129 34.4415C189.19 35.5145 186.983 35.9973 184.506 35.9973C182.46 35.9973 180.629 35.6218 179.121 34.8707ZM188.383 30.257C189.352 29.6133 190.106 28.7549 190.644 27.682C191.183 26.609 191.452 25.4288 191.452 24.1413C191.452 22.7464 191.021 21.6735 190.16 20.8688C189.298 20.0641 188.113 19.6349 186.606 19.6349C185.314 19.6349 184.183 19.9568 183.214 20.6005C182.244 21.2443 181.491 22.1027 180.952 23.1756C180.414 24.2486 180.144 25.4288 180.144 26.7163C180.144 28.1112 180.575 29.1841 181.437 29.9888C182.298 30.7935 183.483 31.2227 184.99 31.2227C186.283 31.2227 187.413 30.9008 188.383 30.257Z" fill="white"/>
<path d="M202.49 35.0853C202.005 34.6024 201.736 33.9587 201.736 33.2076C201.736 32.2956 202.005 31.5982 202.598 31.0081C203.19 30.4716 203.89 30.1497 204.751 30.1497C205.505 30.1497 206.151 30.418 206.636 30.9008C207.121 31.3836 207.39 32.0274 207.39 32.7784C207.39 33.6368 207.067 34.3878 206.474 34.9243C205.882 35.5144 205.182 35.7827 204.374 35.7827C203.621 35.7827 202.975 35.5681 202.49 35.0853Z" fill="white"/>
<path d="M82.955 15.2358H88.7163L85.5395 31.0081H95.2854L94.37 35.5681H78.8628L82.955 15.2358Z" fill="#F2F2F2"/>
<path d="M105.947 35.0853C104.654 34.4951 103.685 33.6368 102.985 32.5638C102.285 31.4372 101.962 30.1497 101.962 28.6476C101.962 28.0038 102.016 27.3064 102.178 26.5017L104.439 15.2358H110.2L107.939 26.448C107.831 27.0382 107.777 27.5746 107.777 28.0575C107.777 30.2034 108.908 31.2763 111.17 31.2763C112.408 31.2763 113.377 30.9008 114.077 30.1497C114.777 29.3986 115.316 28.1648 115.693 26.448L117.954 15.2358H123.661L121.346 26.7699C120.108 32.8857 116.5 35.9973 110.523 35.9973C108.747 35.9973 107.239 35.6754 105.947 35.0853Z" fill="#F2F2F2"/>
<path d="M130.392 35.3535C128.884 34.9244 127.646 34.4415 126.677 33.7978L128.938 29.506C129.961 30.1497 131.092 30.6862 132.223 31.0081C133.407 31.33 134.538 31.4909 135.723 31.4909C136.853 31.4909 137.715 31.33 138.307 31.0081C138.899 30.6862 139.223 30.257 139.223 29.6669C139.223 29.1841 138.953 28.8086 138.415 28.5403C137.876 28.2721 137.015 28.0039 135.83 27.682C134.484 27.3064 133.407 26.9846 132.546 26.609C131.684 26.2335 130.93 25.697 130.284 24.946C129.638 24.1949 129.315 23.2293 129.315 22.049C129.315 20.6005 129.692 19.313 130.5 18.2401C131.307 17.1671 132.438 16.3088 133.892 15.7186C135.346 15.1285 137.123 14.8066 139.061 14.8066C140.515 14.8066 141.861 14.9676 143.153 15.2358C144.392 15.5577 145.522 15.9869 146.438 16.5234L144.338 20.8151C143.53 20.3323 142.669 19.9031 141.699 19.6885C140.73 19.4203 139.761 19.313 138.738 19.313C137.607 19.313 136.692 19.4739 136.046 19.8495C135.4 20.225 135.076 20.7078 135.076 21.298C135.076 21.7808 135.346 22.21 135.938 22.4782C136.476 22.7464 137.392 23.0147 138.576 23.3365C139.923 23.6584 140.999 23.9803 141.861 24.3558C142.722 24.6777 143.476 25.2142 144.069 25.9653C144.715 26.6627 144.984 27.6283 144.984 28.8086C144.984 30.257 144.553 31.4909 143.799 32.6175C142.992 33.6905 141.861 34.5488 140.353 35.1389C138.846 35.7291 137.123 36.0509 135.184 36.0509C133.515 35.9973 131.9 35.7827 130.392 35.3535Z" fill="#F2F2F2"/>
<path d="M153.33 35.3535C151.822 34.9244 150.584 34.4415 149.615 33.7978L151.876 29.506C152.899 30.1497 154.03 30.6862 155.16 31.0081C156.345 31.33 157.476 31.4909 158.66 31.4909C159.791 31.4909 160.653 31.33 161.245 31.0081C161.837 30.6862 162.16 30.257 162.16 29.6669C162.16 29.1841 161.891 28.8086 161.353 28.5403C160.814 28.2721 159.953 28.0039 158.768 27.682C157.422 27.3064 156.345 26.9846 155.484 26.609C154.622 26.2335 153.868 25.697 153.222 24.946C152.576 24.1949 152.253 23.2293 152.253 22.049C152.253 20.6005 152.63 19.313 153.437 18.2401C154.245 17.1671 155.376 16.3088 156.83 15.7186C158.283 15.1285 160.06 14.8066 161.999 14.8066C163.453 14.8066 164.799 14.9676 166.091 15.2358C167.329 15.5577 168.46 15.9869 169.375 16.5234L167.276 20.8151C166.468 20.3323 165.606 19.9031 164.637 19.6885C163.668 19.4203 162.699 19.313 161.676 19.313C160.545 19.313 159.63 19.4739 158.983 19.8495C158.337 20.225 158.014 20.7078 158.014 21.298C158.014 21.7808 158.283 22.21 158.876 22.4782C159.414 22.7464 160.33 23.0147 161.514 23.3365C162.86 23.6584 163.937 23.9803 164.799 24.3558C165.66 24.6777 166.414 25.2142 167.006 25.9653C167.652 26.6627 167.922 27.6283 167.922 28.8086C167.922 30.257 167.491 31.4909 166.737 32.6175C165.929 33.6905 164.799 34.5488 163.291 35.1389C161.783 35.7291 160.06 36.0509 158.122 36.0509C156.453 35.9973 154.837 35.7827 153.33 35.3535Z" fill="#F2F2F2"/>
<path d="M179.121 34.8707C177.614 34.1196 176.429 33.0467 175.568 31.7055C174.76 30.3643 174.329 28.8086 174.329 27.0382C174.329 24.7314 174.868 22.6391 175.945 20.7615C177.021 18.8838 178.529 17.4354 180.468 16.4161C182.406 15.3431 184.614 14.8603 187.09 14.8603C189.136 14.8603 190.967 15.2358 192.475 15.9869C193.982 16.7379 195.167 17.8109 196.029 19.1521C196.836 20.4932 197.267 22.049 197.267 23.8194C197.267 26.1262 196.729 28.2184 195.652 30.0961C194.575 31.9738 193.067 33.4222 191.129 34.4415C189.19 35.5145 186.983 35.9973 184.506 35.9973C182.46 35.9973 180.629 35.6218 179.121 34.8707ZM188.383 30.257C189.352 29.6133 190.106 28.7549 190.644 27.682C191.183 26.609 191.452 25.4288 191.452 24.1413C191.452 22.7464 191.021 21.6735 190.16 20.8688C189.298 20.0641 188.113 19.6349 186.606 19.6349C185.314 19.6349 184.183 19.9568 183.214 20.6005C182.244 21.2443 181.491 22.1027 180.952 23.1756C180.414 24.2486 180.144 25.4288 180.144 26.7163C180.144 28.1112 180.575 29.1841 181.437 29.9888C182.298 30.7935 183.483 31.2227 184.99 31.2227C186.283 31.2227 187.413 30.9008 188.383 30.257Z" fill="#F2F2F2"/>
<path d="M202.49 35.0853C202.005 34.6024 201.736 33.9587 201.736 33.2076C201.736 32.2956 202.005 31.5982 202.598 31.0081C203.19 30.4716 203.89 30.1497 204.751 30.1497C205.505 30.1497 206.151 30.418 206.636 30.9008C207.121 31.3836 207.39 32.0274 207.39 32.7784C207.39 33.6368 207.067 34.3878 206.474 34.9243C205.882 35.5144 205.182 35.7827 204.374 35.7827C203.621 35.7827 202.975 35.5681 202.49 35.0853Z" fill="#F2F2F2"/>
<path d="M230.112 31.2227H220.582L217.943 35.5681H212.882L226.074 15.2358H230.758L235.766 35.5681H231.027L230.112 31.2227ZM229.304 27.6283L227.581 19.7958L222.789 27.6283H229.304Z" stroke="black" stroke-width="1.056" stroke-miterlimit="10"/>
<path d="M245.512 15.2358H250.25L246.158 35.5681H241.419L245.512 15.2358Z" stroke="black" stroke-width="1.056" stroke-miterlimit="10"/>
<path d="M230.112 31.2227H220.582L217.943 35.5681H212.882L226.074 15.2358H230.758L235.766 35.5681H231.027L230.112 31.2227ZM229.304 27.6283L227.581 19.7958L222.789 27.6283H229.304Z" stroke="#F2F2F2" stroke-width="1.32" stroke-miterlimit="10"/>
<path d="M245.512 15.2358H250.25L246.158 35.5681H241.419L245.512 15.2358Z" stroke="#F2F2F2" stroke-width="1.32" stroke-miterlimit="10"/>
<path d="M286.992 37.3672C286.992 38.0599 286.819 38.6165 286.473 39.0371C286.126 39.4824 285.594 39.7051 284.877 39.7051C284.308 39.7051 283.776 39.5319 283.281 39.1855C282.811 38.8392 282.366 38.4186 281.945 37.9238C281.549 37.4043 281.191 36.86 280.869 36.291C280.572 35.722 280.325 35.2272 280.127 34.8066C279.607 33.7676 279.088 32.7285 278.568 31.6895C278.074 30.6504 277.579 29.599 277.084 28.5352L274.857 29.9082C274.882 30.6257 274.845 31.3431 274.746 32.0605C274.647 32.778 274.573 33.4954 274.523 34.2129C274.474 34.7077 274.387 35.252 274.264 35.8457C274.165 36.4147 273.992 36.959 273.744 37.4785C273.497 37.9733 273.163 38.3939 272.742 38.7402C272.322 39.0866 271.802 39.2598 271.184 39.2598C270.615 39.2598 270.145 39.1484 269.773 38.9258C269.402 38.6784 269.093 38.3691 268.846 37.998C268.623 37.627 268.462 37.2064 268.363 36.7363C268.264 36.2663 268.215 35.7839 268.215 35.2891V34.9922C268.215 33.5326 268.289 32.0729 268.438 30.6133C268.611 29.1289 268.722 27.6445 268.771 26.1602C268.821 24.2057 268.883 22.2513 268.957 20.2969C269.031 18.3424 269.13 16.388 269.254 14.4336C269.279 13.9883 269.353 13.5553 269.477 13.1348C269.6 12.7142 269.786 12.3431 270.033 12.0215C270.281 11.6751 270.577 11.403 270.924 11.2051C271.295 11.0072 271.728 10.9082 272.223 10.9082C272.99 10.9082 273.559 11.1803 273.93 11.7246C274.326 12.2689 274.598 12.9245 274.746 13.6914C274.895 14.4583 274.956 15.25 274.932 16.0664C274.932 16.8828 274.932 17.5632 274.932 18.1074C274.932 19.666 274.895 21.2246 274.82 22.7832C275.538 22.1895 276.23 21.5091 276.898 20.7422C277.591 19.9753 278.197 19.196 278.717 18.4043C279.038 17.9342 279.41 17.291 279.83 16.4746C280.251 15.6335 280.708 14.8294 281.203 14.0625C281.698 13.2708 282.242 12.5905 282.836 12.0215C283.43 11.4277 284.061 11.1309 284.729 11.1309C285.446 11.1309 285.965 11.3411 286.287 11.7617C286.633 12.1576 286.807 12.6895 286.807 13.3574C286.807 14.347 286.646 15.3613 286.324 16.4004C286.027 17.4395 285.619 18.4661 285.1 19.4805C284.58 20.4701 283.986 21.4225 283.318 22.3379C282.675 23.2285 282.02 24.0078 281.352 24.6758C282.044 25.8385 282.7 27.0137 283.318 28.2012C283.937 29.3639 284.555 30.5391 285.174 31.7266C285.396 32.1224 285.607 32.5553 285.805 33.0254C286.027 33.4954 286.225 33.9779 286.398 34.4727C286.572 34.9674 286.708 35.4622 286.807 35.957C286.93 36.4518 286.992 36.9219 286.992 37.3672ZM296.351 13.0977C296.351 13.444 296.252 13.7533 296.054 14.0254C295.881 14.2975 295.646 14.5449 295.349 14.7676C295.052 14.9655 294.731 15.1263 294.384 15.25C294.038 15.349 293.716 15.3984 293.42 15.3984C292.925 15.3984 292.492 15.2747 292.121 15.0273C291.75 14.7799 291.564 14.3965 291.564 13.877C291.564 13.5059 291.651 13.1842 291.824 12.9121C292.022 12.6152 292.257 12.3802 292.529 12.207C292.801 12.0091 293.11 11.8607 293.457 11.7617C293.803 11.6628 294.137 11.6133 294.459 11.6133C294.929 11.6133 295.362 11.7246 295.757 11.9473C296.153 12.1699 296.351 12.5534 296.351 13.0977ZM296.648 25.7148C296.648 26.0612 296.648 26.4323 296.648 26.8281C296.648 27.1992 296.636 27.5579 296.611 27.9043C296.586 28.3249 296.574 28.8939 296.574 29.6113C296.574 30.304 296.549 31.0586 296.5 31.875C296.45 32.6914 296.364 33.5202 296.24 34.3613C296.141 35.2025 295.968 35.9694 295.72 36.6621C295.473 37.3548 295.139 37.9238 294.718 38.3691C294.323 38.7897 293.815 39.0124 293.197 39.0371C292.727 39.0618 292.331 38.8763 292.009 38.4805C291.688 38.0846 291.416 37.5775 291.193 36.959C290.995 36.3158 290.847 35.6107 290.748 34.8438C290.649 34.0521 290.574 33.2975 290.525 32.5801C290.476 31.8379 290.451 31.1576 290.451 30.5391C290.451 29.9206 290.451 29.4629 290.451 29.166C290.451 28.7702 290.451 28.2135 290.451 27.4961C290.451 26.7539 290.476 25.9622 290.525 25.1211C290.574 24.2799 290.661 23.4264 290.785 22.5605C290.933 21.6947 291.131 20.903 291.379 20.1855C291.651 19.4681 291.997 18.8867 292.418 18.4414C292.838 17.9961 293.37 17.7734 294.013 17.7734C294.681 17.7734 295.188 18.1074 295.535 18.7754C295.881 19.4434 296.141 20.2227 296.314 21.1133C296.487 22.0039 296.586 22.8945 296.611 23.7852C296.636 24.651 296.648 25.2943 296.648 25.7148ZM317.177 14.582C317.177 16.388 317.103 18.1816 316.954 19.9629C316.831 21.7441 316.769 23.5378 316.769 25.3438C316.769 26.8034 316.806 28.2507 316.88 29.6855C316.979 31.1204 317.029 32.5677 317.029 34.0273C317.029 34.4232 317.016 34.9056 316.991 35.4746C316.967 36.0189 316.88 36.5508 316.732 37.0703C316.608 37.5898 316.385 38.0352 316.064 38.4062C315.767 38.7773 315.334 38.9629 314.765 38.9629C314.023 38.9629 313.404 38.6908 312.909 38.1465C312.439 37.5775 312.142 36.9466 312.019 36.2539C311.549 37.1445 310.868 37.8991 309.978 38.5176C309.087 39.1361 308.122 39.4453 307.083 39.4453C305.97 39.4453 305.005 39.0618 304.189 38.2949C303.397 37.528 302.729 36.6003 302.185 35.5117C301.665 34.4232 301.269 33.2852 300.997 32.0977C300.75 30.9102 300.626 29.8835 300.626 29.0176C300.626 28.3991 300.663 27.694 300.737 26.9023C300.812 26.1107 300.935 25.3066 301.109 24.4902C301.307 23.6738 301.554 22.8822 301.851 22.1152C302.148 21.3236 302.519 20.6185 302.964 20C303.434 19.3815 303.978 18.8867 304.597 18.5156C305.24 18.1445 305.97 17.959 306.786 17.959C307.677 17.959 308.53 18.2188 309.347 18.7383C310.163 19.2578 310.782 19.901 311.202 20.668L311.536 14.7676C311.561 14.2975 311.598 13.7533 311.648 13.1348C311.697 12.4915 311.796 11.8854 311.945 11.3164C312.118 10.7474 312.377 10.265 312.724 9.86914C313.07 9.47331 313.577 9.27539 314.245 9.27539C314.963 9.27539 315.519 9.44857 315.915 9.79492C316.311 10.1413 316.596 10.5866 316.769 11.1309C316.967 11.6504 317.078 12.2194 317.103 12.8379C317.152 13.4564 317.177 14.0378 317.177 14.582ZM311.128 31.0586C311.128 30.4896 311.116 29.9329 311.091 29.3887C311.066 28.8444 311.066 28.2878 311.091 27.7188C310.943 27.3971 310.769 27.0508 310.571 26.6797C310.374 26.2839 310.126 25.9251 309.829 25.6035C309.557 25.2572 309.248 24.9727 308.902 24.75C308.555 24.5273 308.184 24.416 307.788 24.416C307.343 24.416 306.984 24.5521 306.712 24.8242C306.44 25.0964 306.242 25.4303 306.118 25.8262C305.995 26.1973 305.908 26.6055 305.859 27.0508C305.834 27.4961 305.821 27.8796 305.821 28.2012C305.821 28.498 305.846 28.9434 305.896 29.5371C305.945 30.1061 306.032 30.6875 306.155 31.2812C306.304 31.875 306.502 32.3945 306.749 32.8398C306.997 33.2852 307.331 33.5078 307.751 33.5078C308.073 33.5078 308.394 33.446 308.716 33.3223C309.038 33.1738 309.335 33.0007 309.607 32.8027C309.904 32.5801 310.176 32.3451 310.423 32.0977C310.695 31.8255 310.93 31.5781 311.128 31.3555V31.0586ZM332.399 18.5898C332.399 19.3073 332.152 19.8392 331.657 20.1855C331.187 20.5319 330.655 20.8659 330.061 21.1875C329.468 21.4844 328.923 21.8431 328.429 22.2637C327.958 22.6842 327.723 23.3151 327.723 24.1562C327.723 24.6016 327.822 24.985 328.02 25.3066C328.243 25.6283 328.503 25.9251 328.8 26.1973C329.121 26.4447 329.468 26.7044 329.839 26.9766C330.21 27.2487 330.544 27.5579 330.841 27.9043C331.162 28.2507 331.422 28.6712 331.62 29.166C331.843 29.6608 331.954 30.2669 331.954 30.9844C331.954 32.0234 331.682 33.0501 331.138 34.0645C330.618 35.054 329.938 35.9447 329.096 36.7363C328.28 37.5033 327.352 38.1217 326.313 38.5918C325.274 39.0618 324.248 39.2969 323.233 39.2969C322.813 39.2969 322.392 39.2598 321.971 39.1855C321.551 39.1361 321.167 39.0247 320.821 38.8516C320.499 38.6784 320.227 38.4434 320.005 38.1465C319.782 37.8249 319.671 37.4167 319.671 36.9219C319.671 36.2292 319.807 35.6973 320.079 35.3262C320.351 34.9303 320.697 34.6211 321.118 34.3984C321.539 34.1758 321.984 34.0026 322.454 33.8789C322.949 33.7552 323.406 33.6068 323.827 33.4336C324.248 33.2357 324.594 32.9883 324.866 32.6914C325.138 32.3945 325.274 31.974 325.274 31.4297C325.274 30.9102 325.064 30.3783 324.643 29.834C324.248 29.265 323.802 28.6712 323.307 28.0527C322.813 27.4095 322.355 26.7292 321.934 26.0117C321.539 25.2943 321.341 24.5026 321.341 23.6367C321.341 22.5729 321.551 21.5957 321.971 20.7051C322.417 19.7897 322.998 18.998 323.716 18.3301C324.458 17.6621 325.299 17.1426 326.239 16.7715C327.179 16.3757 328.169 16.1777 329.208 16.1777C329.604 16.1777 329.987 16.2148 330.358 16.2891C330.754 16.3633 331.1 16.4993 331.397 16.6973C331.694 16.8704 331.929 17.1178 332.102 17.4395C332.3 17.7363 332.399 18.1198 332.399 18.5898Z" fill="white"/>
<path d="M286.992 37.3672C286.992 38.0599 286.819 38.6165 286.473 39.0371C286.126 39.4824 285.594 39.7051 284.877 39.7051C284.308 39.7051 283.776 39.5319 283.281 39.1855C282.811 38.8392 282.366 38.4186 281.945 37.9238C281.549 37.4043 281.191 36.86 280.869 36.291C280.572 35.722 280.325 35.2272 280.127 34.8066C279.607 33.7676 279.088 32.7285 278.568 31.6895C278.074 30.6504 277.579 29.599 277.084 28.5352L274.857 29.9082C274.882 30.6257 274.845 31.3431 274.746 32.0605C274.647 32.778 274.573 33.4954 274.523 34.2129C274.474 34.7077 274.387 35.252 274.264 35.8457C274.165 36.4147 273.992 36.959 273.744 37.4785C273.497 37.9733 273.163 38.3939 272.742 38.7402C272.322 39.0866 271.802 39.2598 271.184 39.2598C270.615 39.2598 270.145 39.1484 269.773 38.9258C269.402 38.6784 269.093 38.3691 268.846 37.998C268.623 37.627 268.462 37.2064 268.363 36.7363C268.264 36.2663 268.215 35.7839 268.215 35.2891V34.9922C268.215 33.5326 268.289 32.0729 268.438 30.6133C268.611 29.1289 268.722 27.6445 268.771 26.1602C268.821 24.2057 268.883 22.2513 268.957 20.2969C269.031 18.3424 269.13 16.388 269.254 14.4336C269.279 13.9883 269.353 13.5553 269.477 13.1348C269.6 12.7142 269.786 12.3431 270.033 12.0215C270.281 11.6751 270.577 11.403 270.924 11.2051C271.295 11.0072 271.728 10.9082 272.223 10.9082C272.99 10.9082 273.559 11.1803 273.93 11.7246C274.326 12.2689 274.598 12.9245 274.746 13.6914C274.895 14.4583 274.956 15.25 274.932 16.0664C274.932 16.8828 274.932 17.5632 274.932 18.1074C274.932 19.666 274.895 21.2246 274.82 22.7832C275.538 22.1895 276.23 21.5091 276.898 20.7422C277.591 19.9753 278.197 19.196 278.717 18.4043C279.038 17.9342 279.41 17.291 279.83 16.4746C280.251 15.6335 280.708 14.8294 281.203 14.0625C281.698 13.2708 282.242 12.5905 282.836 12.0215C283.43 11.4277 284.061 11.1309 284.729 11.1309C285.446 11.1309 285.965 11.3411 286.287 11.7617C286.633 12.1576 286.807 12.6895 286.807 13.3574C286.807 14.347 286.646 15.3613 286.324 16.4004C286.027 17.4395 285.619 18.4661 285.1 19.4805C284.58 20.4701 283.986 21.4225 283.318 22.3379C282.675 23.2285 282.02 24.0078 281.352 24.6758C282.044 25.8385 282.7 27.0137 283.318 28.2012C283.937 29.3639 284.555 30.5391 285.174 31.7266C285.396 32.1224 285.607 32.5553 285.805 33.0254C286.027 33.4954 286.225 33.9779 286.398 34.4727C286.572 34.9674 286.708 35.4622 286.807 35.957C286.93 36.4518 286.992 36.9219 286.992 37.3672ZM296.351 13.0977C296.351 13.444 296.252 13.7533 296.054 14.0254C295.881 14.2975 295.646 14.5449 295.349 14.7676C295.052 14.9655 294.731 15.1263 294.384 15.25C294.038 15.349 293.716 15.3984 293.42 15.3984C292.925 15.3984 292.492 15.2747 292.121 15.0273C291.75 14.7799 291.564 14.3965 291.564 13.877C291.564 13.5059 291.651 13.1842 291.824 12.9121C292.022 12.6152 292.257 12.3802 292.529 12.207C292.801 12.0091 293.11 11.8607 293.457 11.7617C293.803 11.6628 294.137 11.6133 294.459 11.6133C294.929 11.6133 295.362 11.7246 295.757 11.9473C296.153 12.1699 296.351 12.5534 296.351 13.0977ZM296.648 25.7148C296.648 26.0612 296.648 26.4323 296.648 26.8281C296.648 27.1992 296.636 27.5579 296.611 27.9043C296.586 28.3249 296.574 28.8939 296.574 29.6113C296.574 30.304 296.549 31.0586 296.5 31.875C296.45 32.6914 296.364 33.5202 296.24 34.3613C296.141 35.2025 295.968 35.9694 295.72 36.6621C295.473 37.3548 295.139 37.9238 294.718 38.3691C294.323 38.7897 293.815 39.0124 293.197 39.0371C292.727 39.0618 292.331 38.8763 292.009 38.4805C291.688 38.0846 291.416 37.5775 291.193 36.959C290.995 36.3158 290.847 35.6107 290.748 34.8438C290.649 34.0521 290.574 33.2975 290.525 32.5801C290.476 31.8379 290.451 31.1576 290.451 30.5391C290.451 29.9206 290.451 29.4629 290.451 29.166C290.451 28.7702 290.451 28.2135 290.451 27.4961C290.451 26.7539 290.476 25.9622 290.525 25.1211C290.574 24.2799 290.661 23.4264 290.785 22.5605C290.933 21.6947 291.131 20.903 291.379 20.1855C291.651 19.4681 291.997 18.8867 292.418 18.4414C292.838 17.9961 293.37 17.7734 294.013 17.7734C294.681 17.7734 295.188 18.1074 295.535 18.7754C295.881 19.4434 296.141 20.2227 296.314 21.1133C296.487 22.0039 296.586 22.8945 296.611 23.7852C296.636 24.651 296.648 25.2943 296.648 25.7148ZM317.177 14.582C317.177 16.388 317.103 18.1816 316.954 19.9629C316.831 21.7441 316.769 23.5378 316.769 25.3438C316.769 26.8034 316.806 28.2507 316.88 29.6855C316.979 31.1204 317.029 32.5677 317.029 34.0273C317.029 34.4232 317.016 34.9056 316.991 35.4746C316.967 36.0189 316.88 36.5508 316.732 37.0703C316.608 37.5898 316.385 38.0352 316.064 38.4062C315.767 38.7773 315.334 38.9629 314.765 38.9629C314.023 38.9629 313.404 38.6908 312.909 38.1465C312.439 37.5775 312.142 36.9466 312.019 36.2539C311.549 37.1445 310.868 37.8991 309.978 38.5176C309.087 39.1361 308.122 39.4453 307.083 39.4453C305.97 39.4453 305.005 39.0618 304.189 38.2949C303.397 37.528 302.729 36.6003 302.185 35.5117C301.665 34.4232 301.269 33.2852 300.997 32.0977C300.75 30.9102 300.626 29.8835 300.626 29.0176C300.626 28.3991 300.663 27.694 300.737 26.9023C300.812 26.1107 300.935 25.3066 301.109 24.4902C301.307 23.6738 301.554 22.8822 301.851 22.1152C302.148 21.3236 302.519 20.6185 302.964 20C303.434 19.3815 303.978 18.8867 304.597 18.5156C305.24 18.1445 305.97 17.959 306.786 17.959C307.677 17.959 308.53 18.2188 309.347 18.7383C310.163 19.2578 310.782 19.901 311.202 20.668L311.536 14.7676C311.561 14.2975 311.598 13.7533 311.648 13.1348C311.697 12.4915 311.796 11.8854 311.945 11.3164C312.118 10.7474 312.377 10.265 312.724 9.86914C313.07 9.47331 313.577 9.27539 314.245 9.27539C314.963 9.27539 315.519 9.44857 315.915 9.79492C316.311 10.1413 316.596 10.5866 316.769 11.1309C316.967 11.6504 317.078 12.2194 317.103 12.8379C317.152 13.4564 317.177 14.0378 317.177 14.582ZM311.128 31.0586C311.128 30.4896 311.116 29.9329 311.091 29.3887C311.066 28.8444 311.066 28.2878 311.091 27.7188C310.943 27.3971 310.769 27.0508 310.571 26.6797C310.374 26.2839 310.126 25.9251 309.829 25.6035C309.557 25.2572 309.248 24.9727 308.902 24.75C308.555 24.5273 308.184 24.416 307.788 24.416C307.343 24.416 306.984 24.5521 306.712 24.8242C306.44 25.0964 306.242 25.4303 306.118 25.8262C305.995 26.1973 305.908 26.6055 305.859 27.0508C305.834 27.4961 305.821 27.8796 305.821 28.2012C305.821 28.498 305.846 28.9434 305.896 29.5371C305.945 30.1061 306.032 30.6875 306.155 31.2812C306.304 31.875 306.502 32.3945 306.749 32.8398C306.997 33.2852 307.331 33.5078 307.751 33.5078C308.073 33.5078 308.394 33.446 308.716 33.3223C309.038 33.1738 309.335 33.0007 309.607 32.8027C309.904 32.5801 310.176 32.3451 310.423 32.0977C310.695 31.8255 310.93 31.5781 311.128 31.3555V31.0586ZM332.399 18.5898C332.399 19.3073 332.152 19.8392 331.657 20.1855C331.187 20.5319 330.655 20.8659 330.061 21.1875C329.468 21.4844 328.923 21.8431 328.429 22.2637C327.958 22.6842 327.723 23.3151 327.723 24.1562C327.723 24.6016 327.822 24.985 328.02 25.3066C328.243 25.6283 328.503 25.9251 328.8 26.1973C329.121 26.4447 329.468 26.7044 329.839 26.9766C330.21 27.2487 330.544 27.5579 330.841 27.9043C331.162 28.2507 331.422 28.6712 331.62 29.166C331.843 29.6608 331.954 30.2669 331.954 30.9844C331.954 32.0234 331.682 33.0501 331.138 34.0645C330.618 35.054 329.938 35.9447 329.096 36.7363C328.28 37.5033 327.352 38.1217 326.313 38.5918C325.274 39.0618 324.248 39.2969 323.233 39.2969C322.813 39.2969 322.392 39.2598 321.971 39.1855C321.551 39.1361 321.167 39.0247 320.821 38.8516C320.499 38.6784 320.227 38.4434 320.005 38.1465C319.782 37.8249 319.671 37.4167 319.671 36.9219C319.671 36.2292 319.807 35.6973 320.079 35.3262C320.351 34.9303 320.697 34.6211 321.118 34.3984C321.539 34.1758 321.984 34.0026 322.454 33.8789C322.949 33.7552 323.406 33.6068 323.827 33.4336C324.248 33.2357 324.594 32.9883 324.866 32.6914C325.138 32.3945 325.274 31.974 325.274 31.4297C325.274 30.9102 325.064 30.3783 324.643 29.834C324.248 29.265 323.802 28.6712 323.307 28.0527C322.813 27.4095 322.355 26.7292 321.934 26.0117C321.539 25.2943 321.341 24.5026 321.341 23.6367C321.341 22.5729 321.551 21.5957 321.971 20.7051C322.417 19.7897 322.998 18.998 323.716 18.3301C324.458 17.6621 325.299 17.1426 326.239 16.7715C327.179 16.3757 328.169 16.1777 329.208 16.1777C329.604 16.1777 329.987 16.2148 330.358 16.2891C330.754 16.3633 331.1 16.4993 331.397 16.6973C331.694 16.8704 331.929 17.1178 332.102 17.4395C332.3 17.7363 332.399 18.1198 332.399 18.5898Z" fill="url(#paint12_linear_3596_21319)"/>
</g>
<defs>
<linearGradient id="paint0_linear_3596_21319" x1="18.7327" y1="59.537" x2="45.8" y2="1.27746" gradientUnits="userSpaceOnUse">
<stop stop-color="#F400F6"/>
<stop offset="0.0113494" stop-color="#F103F6"/>
<stop offset="0.2745" stop-color="#AB40F5"/>
<stop offset="0.5115" stop-color="#7471F4"/>
<stop offset="0.7142" stop-color="#4C94F3"/>
<stop offset="0.8748" stop-color="#34A9F3"/>
<stop offset="0.9732" stop-color="#2BB1F3"/>
</linearGradient>
<linearGradient id="paint1_linear_3596_21319" x1="14.9233" y1="59.3906" x2="47.5929" y2="2.59696" gradientUnits="userSpaceOnUse">
<stop stop-color="#EE7DE1"/>
<stop offset="0.4385" stop-color="#0050F2"/>
<stop offset="0.7542" stop-color="#00B5FF"/>
<stop offset="1" stop-color="white"/>
</linearGradient>
<linearGradient id="paint2_linear_3596_21319" x1="53.4151" y1="47.3767" x2="71.1345" y2="3.47592" gradientUnits="userSpaceOnUse">
<stop stop-color="#000096"/>
<stop offset="0.3855" stop-color="#1600E1"/>
<stop offset="0.7346" stop-color="#8423F4"/>
<stop offset="0.7758" stop-color="#8D20F4"/>
<stop offset="0.8423" stop-color="#A519F5"/>
<stop offset="0.9254" stop-color="#CB0DF5"/>
<stop offset="1" stop-color="#F400F6"/>
</linearGradient>
<linearGradient id="paint3_linear_3596_21319" x1="53.6447" y1="39.8312" x2="71.0007" y2="19.0711" gradientUnits="userSpaceOnUse">
<stop stop-color="#0024C1"/>
<stop offset="0.7123" stop-color="#772CE1"/>
<stop offset="1" stop-color="#BA50FF"/>
</linearGradient>
<linearGradient id="paint4_linear_3596_21319" x1="38.9144" y1="41.5237" x2="56.6338" y2="-2.37705" gradientUnits="userSpaceOnUse">
<stop stop-color="#000096"/>
<stop offset="0.3855" stop-color="#1600E1"/>
<stop offset="0.7346" stop-color="#8423F4"/>
<stop offset="0.7758" stop-color="#8D20F4"/>
<stop offset="0.8423" stop-color="#A519F5"/>
<stop offset="0.9254" stop-color="#CB0DF5"/>
<stop offset="1" stop-color="#F400F6"/>
</linearGradient>
<linearGradient id="paint5_linear_3596_21319" x1="45.9491" y1="44.363" x2="63.6685" y2="0.462204" gradientUnits="userSpaceOnUse">
<stop stop-color="#000096"/>
<stop offset="0.3855" stop-color="#1600E1"/>
<stop offset="0.7346" stop-color="#8423F4"/>
<stop offset="0.7758" stop-color="#8D20F4"/>
<stop offset="0.8423" stop-color="#A519F5"/>
<stop offset="0.9254" stop-color="#CB0DF5"/>
<stop offset="1" stop-color="#F400F6"/>
</linearGradient>
<linearGradient id="paint6_linear_3596_21319" x1="43.9674" y1="43.5632" x2="61.6868" y2="-0.337556" gradientUnits="userSpaceOnUse">
<stop stop-color="#000096"/>
<stop offset="0.3855" stop-color="#1600E1"/>
<stop offset="0.7346" stop-color="#8423F4"/>
<stop offset="0.7758" stop-color="#8D20F4"/>
<stop offset="0.8423" stop-color="#A519F5"/>
<stop offset="0.9254" stop-color="#CB0DF5"/>
<stop offset="1" stop-color="#F400F6"/>
</linearGradient>
<linearGradient id="paint7_linear_3596_21319" x1="44.9582" y1="43.9632" x2="62.6776" y2="0.0623575" gradientUnits="userSpaceOnUse">
<stop stop-color="#000096"/>
<stop offset="0.3855" stop-color="#1600E1"/>
<stop offset="0.7346" stop-color="#8423F4"/>
<stop offset="0.7758" stop-color="#8D20F4"/>
<stop offset="0.8423" stop-color="#A519F5"/>
<stop offset="0.9254" stop-color="#CB0DF5"/>
<stop offset="1" stop-color="#F400F6"/>
</linearGradient>
<linearGradient id="paint8_linear_3596_21319" x1="40.0039" y1="41.9635" x2="57.7234" y2="-1.93732" gradientUnits="userSpaceOnUse">
<stop stop-color="#000096"/>
<stop offset="0.3855" stop-color="#1600E1"/>
<stop offset="0.7346" stop-color="#8423F4"/>
<stop offset="0.7758" stop-color="#8D20F4"/>
<stop offset="0.8423" stop-color="#A519F5"/>
<stop offset="0.9254" stop-color="#CB0DF5"/>
<stop offset="1" stop-color="#F400F6"/>
</linearGradient>
<linearGradient id="paint9_linear_3596_21319" x1="40.9947" y1="42.3633" x2="58.7142" y2="-1.53747" gradientUnits="userSpaceOnUse">
<stop stop-color="#000096"/>
<stop offset="0.3855" stop-color="#1600E1"/>
<stop offset="0.7346" stop-color="#8423F4"/>
<stop offset="0.7758" stop-color="#8D20F4"/>
<stop offset="0.8423" stop-color="#A519F5"/>
<stop offset="0.9254" stop-color="#CB0DF5"/>
<stop offset="1" stop-color="#F400F6"/>
</linearGradient>
<linearGradient id="paint10_linear_3596_21319" x1="42.9764" y1="43.1632" x2="60.6959" y2="-0.737591" gradientUnits="userSpaceOnUse">
<stop stop-color="#000096"/>
<stop offset="0.3855" stop-color="#1600E1"/>
<stop offset="0.7346" stop-color="#8423F4"/>
<stop offset="0.7758" stop-color="#8D20F4"/>
<stop offset="0.8423" stop-color="#A519F5"/>
<stop offset="0.9254" stop-color="#CB0DF5"/>
<stop offset="1" stop-color="#F400F6"/>
</linearGradient>
<linearGradient id="paint11_linear_3596_21319" x1="41.9857" y1="42.7633" x2="59.7051" y2="-1.13744" gradientUnits="userSpaceOnUse">
<stop stop-color="#000096"/>
<stop offset="0.3855" stop-color="#1600E1"/>
<stop offset="0.7346" stop-color="#8423F4"/>
<stop offset="0.7758" stop-color="#8D20F4"/>
<stop offset="0.8423" stop-color="#A519F5"/>
<stop offset="0.9254" stop-color="#CB0DF5"/>
<stop offset="1" stop-color="#F400F6"/>
</linearGradient>
<linearGradient id="paint12_linear_3596_21319" x1="267.25" y1="21.5556" x2="333.25" y2="21.5556" gradientUnits="userSpaceOnUse">
<stop stop-color="#00DAF4"/>
<stop offset="0.2" stop-color="#5EDC99"/>
<stop offset="0.4" stop-color="#BADA6D"/>
<stop offset="0.6" stop-color="#FFC800"/>
<stop offset="0.8" stop-color="#FFAF00"/>
<stop offset="1" stop-color="#FF7800"/>
</linearGradient>
<clipPath id="clip0_3596_21319">
<rect width="350" height="52" fill="white" transform="translate(0.25)"/>
</clipPath>
</defs>
</svg>
