<svg width="327" height="47" viewBox="0 0 327 47" fill="none" xmlns="http://www.w3.org/2000/svg">
<path d="M306.861 24.8021C306.413 24.8413 305.961 24.8683 305.523 24.9272C305.239 24.9641 305.117 24.8561 304.927 24.7996C304.864 24.78 304.796 24.7407 304.737 24.7456C304.294 24.7849 303.851 24.8291 303.409 24.8733C303.273 24.969 303.187 25.0966 302.979 25.1432C302.776 25.1874 302.536 25.1874 302.311 25.2095C302.012 25.2365 301.714 25.2635 301.416 25.288C301.267 25.3003 301.145 25.3469 301.095 25.4353C301.086 25.45 301.185 25.4868 301.24 25.5089C301.42 25.5825 301.597 25.666 301.795 25.7224C301.985 25.7764 302.22 25.6881 302.424 25.7568C302.88 25.9114 302.884 25.909 303.232 25.8795C303.531 25.8525 303.829 25.8231 304.127 25.8034C304.186 25.7985 304.254 25.8353 304.317 25.855C304.507 25.909 304.629 26.0317 304.909 25.9851C305.121 25.9482 305.356 25.9409 305.577 25.9212C305.763 25.9924 305.934 26.0734 306.133 26.1299C306.318 26.1839 306.373 26.2256 306.273 26.2968C306.183 26.363 306.056 26.39 305.889 26.3949C305.74 26.3974 305.591 26.4195 305.442 26.4317C305.365 26.4391 305.293 26.444 305.22 26.4514C304.936 26.4784 304.936 26.4784 304.416 26.3213C304.213 26.2599 303.982 26.3458 303.788 26.2869C303.657 26.2477 303.544 26.1888 303.418 26.1471C303.363 26.1299 303.278 26.1274 303.21 26.1323C302.984 26.1495 302.758 26.1618 302.541 26.1937C302.387 26.2158 302.297 26.2845 302.315 26.3532C302.32 26.3802 302.428 26.4195 302.491 26.4219C302.636 26.4268 302.789 26.3925 302.93 26.4097C303.065 26.4268 303.205 26.4759 303.305 26.5299C303.508 26.6428 303.738 26.5422 303.933 26.5716C304.136 26.6036 304.303 26.7017 304.497 26.7606C304.547 26.7754 304.642 26.7508 304.719 26.7434C304.94 26.7263 305.162 26.7115 305.383 26.6944C305.568 26.7655 305.767 26.8293 305.934 26.9103C306.237 27.0576 306.562 27.114 306.956 27.0429C307.177 27.0036 307.394 27.0183 307.57 27.114C307.751 27.2122 307.959 27.2024 308.189 27.1828C308.402 27.1631 308.618 27.1091 308.835 27.1779C309.305 27.33 309.31 27.3374 309.866 27.2785C310.033 27.2613 310.159 27.2564 310.286 27.3129C310.403 27.3644 310.53 27.4086 310.652 27.4576C310.873 27.4405 311.099 27.4233 311.32 27.4037C311.605 27.3767 311.763 27.411 311.831 27.5485C311.872 27.6319 311.89 27.708 311.989 27.7644C312.107 27.8332 312.233 27.8307 312.405 27.8111C312.568 27.7939 312.685 27.7669 312.753 27.6785C312.78 27.6417 312.834 27.6074 312.884 27.5779C312.924 27.5558 312.988 27.5215 313.024 27.5264C313.092 27.5362 313.182 27.5632 313.205 27.5951C313.426 27.892 313.426 27.8945 313.652 27.9804C313.9 28.0761 314.158 28.162 314.384 28.27C314.587 28.3657 314.791 28.324 315.012 28.324C315.179 28.324 315.288 28.3878 315.274 28.4517C315.265 28.4885 315.202 28.5424 315.148 28.5473C314.705 28.5964 314.257 28.6382 313.81 28.6725C313.756 28.6774 313.688 28.6332 313.625 28.6112C313.498 28.567 313.385 28.4983 313.25 28.4835C313.114 28.4688 312.956 28.5056 312.807 28.5179C312.658 28.5302 312.5 28.5621 312.364 28.5425C312.229 28.5228 312.12 28.4516 311.994 28.405C311.935 28.3829 311.854 28.351 311.804 28.3584C311.474 28.4173 311.23 28.3363 310.995 28.2283C310.945 28.2062 310.86 28.1915 310.796 28.1964C310.272 28.2381 309.753 28.2872 309.228 28.3338C309.016 28.3535 308.844 28.2676 308.799 28.1228C308.776 28.0418 308.731 27.9608 308.731 27.8798C308.731 27.7325 308.483 27.6515 308.302 27.6687C308.004 27.6933 307.701 27.7129 307.407 27.7497C307.168 27.7791 306.965 27.7497 306.802 27.6613C306.612 27.5607 306.395 27.5804 306.178 27.6074C306.016 27.627 305.971 27.708 305.98 27.9117C305.989 28.0761 305.912 28.1277 305.618 28.1547C305.248 28.189 304.872 28.2234 304.497 28.2504C304.439 28.2553 304.371 28.2136 304.312 28.1915C304.186 28.1473 304.073 28.0761 303.937 28.0614C303.802 28.0442 303.643 28.081 303.494 28.0958C303.345 28.108 303.187 28.1424 303.052 28.1252C302.916 28.108 302.803 28.0344 302.681 27.9878C302.622 27.9657 302.55 27.9338 302.491 27.9387C302.193 27.9583 301.895 27.9878 301.597 28.0148C301.262 28.0442 301.262 28.0442 300.788 27.8921C300.571 27.8233 300.354 27.8773 300.142 27.897C299.916 27.9166 299.703 27.9264 299.527 27.8282C299.41 27.7644 299.279 27.7252 299.139 27.7374C298.764 27.7669 298.393 27.8037 298.018 27.8332C297.955 27.8381 297.869 27.8258 297.819 27.8037C297.58 27.7006 297.345 27.6196 297.01 27.6712C296.721 27.7153 296.409 27.7178 296.12 27.7595C295.962 27.7816 295.89 27.8602 295.921 27.9215C295.939 27.9534 296.034 27.9902 296.098 27.9902C296.242 27.9927 296.4 27.9559 296.536 27.9706C296.816 28 296.956 28.2062 297.322 28.1497C297.539 28.1154 297.765 28.1031 297.991 28.0933C298.05 28.0908 298.113 28.1375 298.176 28.162C298.357 28.2283 298.515 28.3142 298.777 28.27C298.994 28.2356 299.224 28.2259 299.446 28.2062C299.798 28.1743 299.798 28.1768 300.255 28.3265C300.472 28.3977 300.688 28.3412 300.901 28.324C301.059 28.3118 301.208 28.2872 301.335 28.3216C301.529 28.3731 301.669 28.4909 301.908 28.4835C302.134 28.4762 302.356 28.4418 302.582 28.4295C302.722 28.4222 302.853 28.4615 302.966 28.5277C303.083 28.594 303.21 28.6234 303.363 28.6087C303.585 28.5891 303.811 28.5645 304.037 28.5523C304.1 28.5498 304.172 28.5719 304.231 28.5915C304.357 28.6357 304.479 28.6872 304.601 28.7339C304.823 28.7191 305.049 28.7143 305.266 28.6848C305.433 28.6627 305.55 28.6725 305.686 28.7216C305.858 28.7879 305.998 28.9057 306.278 28.8492C306.418 28.8223 306.581 28.8296 306.721 28.8051C306.892 28.7732 307.01 28.7854 307.132 28.859C307.362 28.9989 307.651 29.0014 307.95 28.9474C308.275 28.8885 308.519 28.9572 308.763 29.0652C309.021 29.1781 309.021 29.1757 309.219 29.4481C309.278 29.5266 309.445 29.5634 309.585 29.5487C309.82 29.5242 310.024 29.5364 310.195 29.6297C310.376 29.7303 310.593 29.7181 310.814 29.6911C311.108 29.6542 311.402 29.6224 311.641 29.7647C311.759 29.8334 311.885 29.8506 312.043 29.8334C312.491 29.7892 312.943 29.7623 313.381 29.7083C313.648 29.6739 313.801 29.7524 313.982 29.8187C314.226 29.9095 314.492 29.9905 314.492 30.1844C314.492 30.2163 314.556 30.2531 314.61 30.2776C314.727 30.3292 314.854 30.3734 314.976 30.4224C315.157 30.4961 315.333 30.5574 315.581 30.5182C315.798 30.4863 316.029 30.4764 316.25 30.4543C316.471 30.4323 316.675 30.42 316.874 30.5132C317.104 30.6188 317.348 30.7194 317.61 30.798C317.795 30.8544 318.039 30.7587 318.238 30.8348C318.36 30.8814 318.478 30.9354 318.609 30.9747C318.663 30.9918 318.749 30.9796 318.821 30.9747C318.97 30.9648 319.124 30.9575 319.269 30.933C319.436 30.906 319.562 30.9109 319.689 30.9673C319.806 31.0189 319.924 31.09 320.059 31.1047C320.263 31.1268 320.488 31.0287 320.692 31.1416C320.796 31.198 320.927 31.252 321.062 31.2692C321.198 31.2864 321.356 31.2495 321.501 31.252C321.564 31.252 321.641 31.2913 321.677 31.3232C321.699 31.3404 321.668 31.387 321.636 31.4115C321.596 31.441 321.537 31.4803 321.478 31.4852C321.031 31.5294 320.583 31.5662 320.136 31.6079C319.869 31.6324 319.869 31.6324 319.332 31.4778C319.205 31.441 319.065 31.4483 318.907 31.4655C318.695 31.4876 318.478 31.5294 318.256 31.4852C317.967 31.3183 317.61 31.3035 317.231 31.3673C317.073 31.3943 316.928 31.3943 316.81 31.3477C316.562 31.2545 316.3 31.1686 316.078 31.0581C315.907 30.9722 315.825 30.9649 315.753 31.0827C315.731 31.1195 315.708 31.1587 315.712 31.1931C315.74 31.3158 315.789 31.4361 315.816 31.5588C315.825 31.5931 315.789 31.6324 315.767 31.6692C315.694 31.7723 315.6 31.7649 315.441 31.679C315.283 31.5931 315.093 31.5367 314.84 31.576C314.624 31.6103 314.389 31.6054 314.172 31.6423C313.837 31.6962 313.602 31.6177 313.363 31.5122C313.313 31.4901 313.227 31.4778 313.164 31.4827C312.491 31.5392 311.822 31.603 311.149 31.6594C311.004 31.6717 310.873 31.6349 310.76 31.5686C310.643 31.5023 310.512 31.468 310.367 31.4803C309.771 31.5318 309.174 31.5784 308.578 31.6423C308.334 31.6692 308.139 31.6373 307.972 31.5514C307.846 31.4876 307.728 31.468 307.57 31.4753C307.398 31.4827 307.276 31.5073 307.191 31.5784C307.109 31.6472 307.168 31.6889 307.349 31.7429C307.543 31.8018 307.724 31.8779 307.909 31.9466C308.058 31.9368 308.207 31.9171 308.352 31.9196C308.415 31.9196 308.474 31.9637 308.537 31.9883C308.718 32.0595 308.885 32.1306 309.143 32.0914C309.359 32.057 309.59 32.0497 309.811 32.0276C310.118 32.0006 310.118 32.0006 310.616 32.1552C310.742 32.1945 310.878 32.192 311.04 32.1699C311.18 32.1527 311.325 32.1871 311.424 32.2607C311.465 32.2902 311.452 32.3393 311.366 32.5013C311.366 32.6215 311.46 32.5675 311.492 32.489C311.542 32.3761 311.447 32.3393 311.266 32.4006C311.14 32.4448 311.076 32.5086 311.108 32.5602C311.126 32.5872 311.212 32.6215 311.366 32.5013C311.763 32.354 312.066 32.3368 312.355 32.2975C312.527 32.2754 312.635 32.2853 312.771 32.3491C312.934 32.4251 313.096 32.5062 313.363 32.4669C313.652 32.4227 313.959 32.4178 314.253 32.381C314.524 32.3466 314.664 32.4546 314.836 32.5184C315.044 32.5945 315.274 32.5086 315.464 32.5528C315.663 32.597 315.803 32.7049 316.033 32.7246C316.368 32.6583 316.58 32.781 316.833 32.862C317.032 32.9234 317.267 32.8694 317.479 32.8424C317.719 32.8129 317.917 32.84 318.085 32.9283C318.274 33.0289 318.487 33.0068 318.704 32.9847C319.21 32.9357 319.228 32.9283 319.521 33.0633C319.734 33.1614 319.937 33.1173 320.15 33.105C320.335 33.1713 320.516 33.2424 320.71 33.3013C320.76 33.3161 320.854 33.2915 320.931 33.2842C321.153 33.2645 321.379 33.2449 321.6 33.2253C321.749 33.213 321.907 33.1762 322.043 33.1909C322.178 33.2081 322.291 33.2793 322.413 33.3259C322.535 33.3725 322.662 33.4192 322.779 33.4682C322.96 33.5419 323.132 33.6032 323.385 33.5664C323.602 33.5345 323.828 33.5247 324.054 33.5026C324.338 33.4756 324.329 33.483 324.858 33.6302C325.143 33.7112 325.436 33.6131 325.725 33.6032C325.87 33.5983 326.01 33.6253 326.109 33.6965C326.15 33.726 326.137 33.775 326.15 33.8168C325.405 33.883 324.655 33.9395 323.918 34.0205C323.633 34.0524 323.484 33.964 323.331 33.8904C323.078 33.7726 322.743 33.9444 322.504 33.7922C322.359 33.7014 322.151 33.6499 321.903 33.694C321.758 33.7186 321.605 33.7161 321.455 33.7382C321.076 33.7922 320.728 33.7947 320.425 33.6253C320.321 33.5664 320.172 33.5345 320.064 33.4781C319.937 33.4167 319.815 33.3823 319.666 33.3946C318.993 33.4535 318.324 33.5124 317.655 33.5762C317.597 33.5811 317.538 33.6179 317.488 33.6449C317.362 33.7137 317.402 33.7677 317.606 33.8119C317.673 33.8266 317.728 33.8585 317.791 33.883C317.913 33.9296 318.026 34.0033 318.161 34.0205C318.297 34.0376 318.455 34.0033 318.604 33.991C318.753 33.9787 318.912 33.9419 319.047 33.9566C319.183 33.9738 319.296 34.045 319.422 34.0892C319.481 34.1113 319.553 34.1481 319.612 34.1456C319.91 34.1309 320.204 34.1039 320.502 34.0818C320.687 34.1481 320.845 34.2438 321.067 34.2659C321.207 34.2806 321.356 34.2536 321.501 34.2585C321.564 34.261 321.645 34.2978 321.677 34.3297C321.695 34.3493 321.636 34.3984 321.591 34.423C321.419 34.5162 321.184 34.499 320.972 34.5285C320.742 34.5604 320.534 34.5506 320.357 34.4549C320.24 34.3911 320.109 34.3567 319.964 34.369C319.589 34.4009 319.219 34.4377 318.844 34.4647C318.78 34.4696 318.704 34.4475 318.645 34.4303C318.171 34.2806 318.17 34.2757 317.836 34.3076C317.344 34.3543 317.344 34.3542 317.014 34.2242C316.951 34.1996 316.883 34.153 316.828 34.1555C316.304 34.1947 315.785 34.234 315.265 34.2904C315.093 34.3076 314.976 34.3076 314.849 34.2438C314.741 34.1898 314.614 34.1285 314.479 34.1137C314.339 34.099 314.185 34.1358 314.036 34.1481C313.887 34.1604 313.729 34.1923 313.598 34.1726C313.462 34.153 313.345 34.0843 313.227 34.0352C313.105 33.9837 312.974 33.9861 312.807 34.0057C312.292 34.0622 312.287 34.0548 311.777 33.9027C311.718 33.8855 311.641 33.8658 311.578 33.8708C311.203 33.9002 310.832 33.937 310.457 33.9665C310.313 33.9787 310.173 33.9468 310.073 33.8757C310.033 33.8462 310.046 33.7971 310.019 33.7014C309.988 33.6793 310.024 33.7186 310.033 33.7554C310.1 33.7505 310.182 33.7554 310.232 33.7358C310.358 33.6891 310.421 33.6278 310.39 33.5762C310.372 33.5492 310.286 33.5149 310.232 33.5149C310.132 33.5149 310.046 33.5689 310.019 33.7014C309.734 33.7824 309.432 33.7996 309.138 33.8388C308.966 33.8634 308.858 33.8511 308.722 33.7873C308.56 33.7088 308.392 33.6327 308.126 33.6719C307.837 33.7161 307.529 33.7235 307.231 33.7579C306.888 33.7971 306.739 33.5762 306.449 33.5811C306.151 33.586 305.853 33.6278 305.555 33.6572C305.293 33.6818 305.293 33.6818 304.751 33.5222C304.552 33.4633 304.317 33.5492 304.122 33.4879C303.991 33.4486 303.878 33.3897 303.752 33.348C303.698 33.3308 303.612 33.3308 303.544 33.3357C303.169 33.3652 302.79 33.3848 302.428 33.4388C302.017 33.5026 301.705 33.4339 301.411 33.2891C301.041 33.3161 300.666 33.3308 300.3 33.3774C300.033 33.4118 299.88 33.3308 299.699 33.2645C299.636 33.2425 299.581 33.2056 299.514 33.1958C299.446 33.186 299.364 33.2056 299.292 33.213C298.994 33.24 298.687 33.2523 298.397 33.2965C298.041 33.3529 297.905 33.1516 297.629 33.1271C297.444 33.2473 297.345 33.4118 296.979 33.424C296.681 33.4339 296.382 33.4732 296.084 33.5001C295.935 33.5124 295.786 33.5272 295.637 33.5394C295.397 33.5615 295.284 33.6572 295.334 33.8045C295.361 33.8855 295.384 33.9665 295.406 34.0475C295.451 34.1923 295.338 34.315 295.149 34.3322C294.625 34.3788 294.105 34.4279 293.581 34.4696C293.441 34.4819 293.305 34.4401 293.192 34.3739C293.075 34.3076 292.944 34.2782 292.799 34.2904C292.275 34.3371 291.755 34.3862 291.231 34.4279C291.172 34.4328 291.096 34.4082 291.037 34.3886C290.91 34.3444 290.788 34.2929 290.666 34.2463C290.368 34.2684 290.074 34.2831 289.781 34.3125C289.306 34.3567 289.306 34.3591 288.958 34.2242C288.895 34.1996 288.832 34.153 288.773 34.1555C288.547 34.1653 288.326 34.1898 288.1 34.2119C287.436 34.2757 287.436 34.2757 287.241 34.2021C287.065 34.1334 286.907 34.0499 286.64 34.0892C286.351 34.1334 286.044 34.1481 285.746 34.1726C285.524 34.1898 285.303 34.2094 285.081 34.2144C285.023 34.2168 284.96 34.1702 284.896 34.1456C284.716 34.0695 284.539 34.0082 284.291 34.0499C284.146 34.0745 283.993 34.0794 283.843 34.0916C283.455 34.126 283.455 34.126 282.818 33.9787C282.754 33.964 282.678 33.9468 282.614 33.9542C282.09 33.9984 281.571 34.0475 281.046 34.0892C280.983 34.0941 280.906 34.0793 280.843 34.0671C280.129 33.9247 280.129 33.9247 279.37 33.9935C279.081 34.018 279.072 34.0278 278.769 33.8977C278.634 33.8413 278.521 33.8143 278.363 33.8315C277.766 33.8904 277.165 33.9297 276.573 33.9984C276.307 34.0278 276.153 33.9542 275.972 33.8879C275.909 33.8658 275.841 33.8168 275.787 33.8192C275.191 33.8659 274.594 33.9223 273.998 33.9689C273.943 33.9738 273.876 33.9247 273.812 33.9027C273.69 33.8585 273.573 33.7922 273.437 33.7775C273.297 33.7628 273.144 33.7996 272.99 33.8119C272.615 33.8438 272.615 33.8413 272.181 33.6965C272.122 33.6769 272.046 33.6499 271.987 33.6548C271.39 33.7039 270.789 33.7456 270.198 33.8168C269.859 33.856 269.628 33.7848 269.389 33.6818C269.339 33.6597 269.253 33.6499 269.19 33.6548C268.517 33.7112 267.848 33.775 267.175 33.8315C267.035 33.8437 266.899 33.802 266.786 33.7382C266.605 33.6376 266.393 33.6498 266.167 33.6719C265.647 33.7235 265.643 33.721 265.336 33.6032C265.272 33.5787 265.218 33.5468 265.15 33.5345C265.087 33.5222 265.006 33.5296 264.938 33.5345C264.64 33.5591 264.342 33.586 264.043 33.613C263.745 33.64 263.442 33.6548 263.149 33.6965C262.787 33.748 262.615 33.5885 262.362 33.5149C261.992 33.5468 261.612 33.5664 261.246 33.618C260.966 33.6572 260.835 33.5492 260.65 33.4928C260.587 33.4731 260.519 33.4314 260.46 33.4363C259.787 33.4903 259.114 33.5492 258.445 33.6155C258.282 33.6302 258.174 33.6106 258.038 33.5517C257.736 33.4191 257.722 33.4241 257.216 33.4732C256.994 33.4952 256.782 33.5149 256.592 33.4143C256.425 33.3234 256.222 33.3013 255.982 33.3308C255.689 33.3676 255.386 33.3873 255.088 33.4118C254.789 33.4388 254.491 33.4756 254.193 33.4879C253.954 33.5001 253.809 33.3848 253.619 33.3259C253.56 33.3087 253.479 33.3063 253.411 33.3112C253.113 33.3333 252.806 33.3504 252.517 33.3921C252.164 33.4437 251.97 33.3087 251.721 33.2302C251.667 33.213 251.577 33.2228 251.509 33.2302C250.985 33.2744 250.465 33.3234 249.941 33.3701C249.756 33.3038 249.566 33.24 249.381 33.1737C249.083 33.1983 248.784 33.2253 248.486 33.2498C248.26 33.2694 248.03 33.2768 247.817 33.3136C247.542 33.3627 247.406 33.2474 247.221 33.1909C247.158 33.1713 247.09 33.1296 247.031 33.1345C246.656 33.1615 246.281 33.1909 245.911 33.2326C245.558 33.2744 245.418 33.0535 245.129 33.0559C244.831 33.0584 244.523 33.0903 244.234 33.1345C243.9 33.186 243.665 33.1075 243.425 33.0019C243.376 32.9798 243.29 32.9676 243.227 32.9725C242.852 33.0019 242.481 33.0387 242.106 33.0682C242.043 33.0731 241.966 33.0608 241.903 33.0461C241.189 32.9013 241.189 32.8989 240.877 32.9283C240.656 32.9479 240.43 32.9725 240.204 32.9847C240.141 32.9897 240.064 32.9676 240.005 32.9479C239.535 32.7982 239.535 32.7958 239.196 32.8252C238.898 32.8522 238.6 32.8792 238.301 32.9062C238.116 32.8399 237.926 32.7761 237.741 32.7099C237.371 32.7418 236.991 32.7663 236.625 32.8105C236.453 32.8301 236.34 32.8228 236.209 32.7614C236.047 32.6878 235.884 32.6019 235.613 32.6436C235.324 32.6878 235.016 32.6927 234.723 32.7295C234.37 32.7737 234.226 32.5503 233.941 32.5528C233.643 32.5552 233.336 32.5871 233.046 32.6313C232.712 32.6829 232.477 32.6043 232.238 32.4988C232.188 32.4767 232.102 32.4644 232.039 32.4694C231.216 32.5405 230.399 32.6117 229.576 32.6878C229.07 32.7344 229.07 32.7369 228.108 32.6019C228.04 32.592 227.968 32.5822 227.9 32.5872C227.602 32.6092 227.294 32.6264 227.005 32.6681C226.653 32.7197 226.458 32.5871 226.21 32.5061C226.156 32.489 226.07 32.4988 225.997 32.5037C225.772 32.5209 225.55 32.543 225.324 32.5626C225.026 32.5896 224.728 32.6166 224.43 32.6436C224.244 32.5798 224.055 32.5135 223.869 32.4497C223.499 32.4816 223.119 32.4988 222.753 32.5503C222.473 32.5896 222.342 32.4865 222.157 32.4276C222.094 32.408 222.026 32.3663 221.967 32.3687C221.294 32.4227 220.621 32.4792 219.952 32.5479C219.676 32.5773 219.55 32.4669 219.364 32.4104C219.301 32.3932 219.229 32.3614 219.17 32.3663C218.723 32.4006 218.275 32.4423 217.828 32.4841C217.575 32.5086 217.575 32.5086 217.024 32.3564C216.961 32.3393 216.888 32.3221 216.825 32.327C215.406 32.4497 213.992 32.5798 212.573 32.7025C212.428 32.7148 212.297 32.678 212.185 32.6117C212.067 32.5454 211.936 32.5111 211.791 32.5233C211.195 32.5749 210.594 32.6215 210.002 32.6853C209.758 32.7123 209.564 32.6804 209.397 32.5945C209.27 32.5307 209.153 32.5062 208.994 32.5209C208.696 32.5503 208.398 32.5749 208.1 32.6019C207.802 32.6289 207.503 32.6559 207.205 32.6829C206.907 32.7099 206.604 32.7246 206.31 32.7663C205.949 32.8179 205.773 32.6657 205.524 32.5896C205.077 32.6264 204.629 32.6632 204.187 32.7025C203.59 32.754 202.994 32.8105 202.397 32.8596C202.343 32.8645 202.275 32.8203 202.212 32.7982C202.027 32.7369 201.891 32.651 201.616 32.678C200.278 32.808 198.932 32.9185 197.59 33.0461C197.31 33.0731 197.188 32.9676 196.998 32.9111C196.935 32.8939 196.862 32.8596 196.803 32.8645C196.058 32.9258 195.312 32.9946 194.567 33.0608C194.264 33.0878 194.264 33.0878 193.758 32.9356C193.699 32.9185 193.622 32.8964 193.559 32.9013C192.588 32.9847 191.621 33.0731 190.649 33.159C190.505 33.1713 190.374 33.1369 190.256 33.0706C190.143 33.0044 190.008 32.9676 189.868 32.9798C188.973 33.0584 188.074 33.1345 187.184 33.2204C186.944 33.2449 186.745 33.2228 186.574 33.1345C186.452 33.0706 186.33 33.0436 186.176 33.0584C184.834 33.1786 183.492 33.294 182.15 33.4216C181.892 33.4462 181.712 33.3995 181.549 33.3185C181.418 33.2547 181.305 33.2424 181.142 33.2523C180.971 33.2645 180.867 33.2915 180.772 33.3652C180.65 33.4609 180.573 33.5811 180.284 33.5885C179.986 33.5959 179.683 33.6253 179.389 33.6671C179.109 33.7088 178.978 33.5983 178.802 33.5321C178.671 33.4854 178.549 33.4781 178.382 33.5001C178.228 33.5198 178.133 33.5615 178.043 33.64C177.844 33.8069 177.826 33.8069 177.582 33.7014C177.451 33.6449 177.333 33.6008 177.189 33.6106C176.592 33.6597 175.996 33.7137 175.399 33.7701C175.056 33.802 175.051 33.8069 174.794 33.6842C174.667 33.6229 174.545 33.5934 174.396 33.6081C172.756 33.7554 171.116 33.8977 169.476 34.0524C169.223 34.0769 169.051 34.0254 168.87 33.9517C168.811 33.9272 168.753 33.8928 168.685 33.883C168.617 33.8732 168.54 33.883 168.468 33.8879C167.275 33.9935 166.078 34.0941 164.889 34.2119C164.618 34.2389 164.474 34.1604 164.288 34.0966C164.225 34.0745 164.171 34.0401 164.103 34.0303C164.035 34.0229 163.954 34.0401 163.882 34.0475C162.689 34.153 161.491 34.2536 160.303 34.3714C160.018 34.3984 159.896 34.2953 159.711 34.2414C159.648 34.2217 159.58 34.1849 159.521 34.1898C159.146 34.2168 158.776 34.2536 158.401 34.2855C157.506 34.3665 156.611 34.4426 155.717 34.5261C155.373 34.558 155.224 34.3395 154.935 34.3493C154.56 34.3616 154.189 34.4107 153.814 34.445C153.516 34.472 153.218 34.4966 152.92 34.5261C152.626 34.5531 152.626 34.553 151.894 34.4107C151.831 34.3984 151.754 34.3812 151.691 34.3862C150.647 34.477 149.599 34.5678 148.559 34.6659C148.32 34.688 148.121 34.6758 147.949 34.585C147.827 34.5212 147.701 34.4892 147.552 34.504C145.984 34.6438 144.42 34.7838 142.852 34.9212C142.794 34.9261 142.717 34.9016 142.658 34.8819C142.532 34.8377 142.41 34.7862 142.288 34.7396C142.197 34.796 142.08 34.8476 142.021 34.9114C141.94 34.9973 141.831 35.0218 141.66 35.0365C141.488 35.0513 141.38 35.0464 141.244 34.9826C141.081 34.904 140.914 34.8426 140.648 34.8672C139.007 35.0218 137.367 35.1617 135.727 35.3139C135.456 35.3384 135.329 35.2304 135.139 35.174C135.076 35.1568 135.004 35.1298 134.945 35.1347C134.272 35.1912 133.603 35.2525 132.93 35.3114C131.064 35.4783 129.198 35.6379 127.336 35.8146C126.997 35.8465 126.767 35.7851 126.527 35.6796C126.477 35.6575 126.392 35.6452 126.328 35.6501C123.717 35.8808 121.105 36.114 118.498 36.3471C118.358 36.3594 118.222 36.3201 118.109 36.2563C117.992 36.1901 117.861 36.1582 117.716 36.1704C116.523 36.276 115.33 36.3815 114.137 36.4895C113.839 36.5165 113.835 36.5189 113.527 36.4011C113.464 36.3766 113.396 36.33 113.347 36.3349C113.243 36.3472 113.143 36.4085 113.071 36.4919C112.999 36.5803 112.886 36.6048 112.719 36.622C112.547 36.6392 112.434 36.6318 112.303 36.5729C112.136 36.4993 111.982 36.4281 111.711 36.4527C108.281 36.7668 104.852 37.0687 101.422 37.3804C101.147 37.4049 101.02 37.3019 100.83 37.2454C100.767 37.2282 100.704 37.2037 100.636 37.1988C100.564 37.1939 100.487 37.2086 100.415 37.216C94.8208 37.7142 89.227 38.2149 83.633 38.7131C83.2987 38.7425 83.3032 38.7426 82.9372 38.9683C82.892 38.9953 82.8332 39.0321 82.7699 39.037C81.0574 39.1941 79.3404 39.3463 77.6234 39.4985C76.8779 39.5647 76.1323 39.6335 75.3868 39.6973C75.1202 39.7194 75.1202 39.7194 74.4831 39.9844C74.4288 40.0065 74.3655 40.036 74.3023 40.0409C71.3201 40.3084 68.3378 40.5759 65.3511 40.8385C65.1161 40.8582 64.9264 40.9023 64.8179 41.0201C64.7411 41.1036 64.6417 41.1527 64.4926 41.1674C62.4051 41.3539 60.3176 41.5429 58.2255 41.7245C57.977 41.7466 57.8278 41.8154 57.7058 41.9184C57.6651 41.9528 57.629 41.992 57.5702 42.0166C57.516 42.0387 57.4347 42.046 57.3669 42.0534C55.5776 42.2129 53.7883 42.3774 51.9945 42.5296C51.7279 42.5516 51.6194 42.6424 51.4883 42.7382C51.4432 42.7701 51.4115 42.8143 51.3528 42.8363C51.294 42.856 51.2082 42.856 51.1359 42.8609C49.6448 42.9934 48.1537 43.1284 46.6626 43.2609C46.3734 43.2487 46.3101 43.391 46.1701 43.4769C46.1203 43.5064 46.0843 43.5456 46.0255 43.5653C45.9623 43.5849 45.8808 43.5824 45.804 43.5873C44.6111 43.6929 43.4183 43.8058 42.2209 43.904C41.9453 43.926 41.891 44.0512 41.7419 44.1371C41.6922 44.1641 41.6426 44.2058 41.5838 44.2132C40.8383 44.2844 40.0927 44.3506 39.3472 44.4144C39.0987 44.4365 39.0986 44.4341 38.6604 44.6771C38.6106 44.7041 38.5519 44.7335 38.4886 44.7409C37.3725 44.844 36.252 44.9421 35.1314 45.0428C34.9868 45.055 34.8874 45.1139 34.8151 45.1974C34.7428 45.2808 34.6389 45.3348 34.4943 45.3471C33.5996 45.4281 32.7049 45.5115 31.8102 45.5852C31.5617 45.6048 31.3991 45.6662 31.2906 45.7766C31.2093 45.86 31.1099 45.9018 30.9518 45.9165C30.0571 45.995 29.1625 46.0809 28.2633 46.1497C28.0012 46.1693 27.8656 46.2527 27.7571 46.3558C27.6713 46.4393 27.5719 46.4687 27.4047 46.4834C25.7645 46.6258 24.1198 46.7681 22.4841 46.9252C22.2085 46.9522 22.0683 46.8663 21.8876 46.8049C21.6301 46.719 21.3906 46.6258 21.3906 46.4343C21.3906 46.4049 21.3138 46.3705 21.2596 46.346C20.8574 46.1619 20.8574 46.1619 20.7942 45.9656C20.758 45.8453 20.7174 45.7226 20.6857 45.5999C20.627 45.3986 20.4823 45.3471 20.0666 45.3839C19.9175 45.3962 19.7684 45.4133 19.6193 45.4232C19.3979 45.4403 19.2307 45.3594 19.1901 45.2121C19.1675 45.1311 19.1404 45.0501 19.1178 44.9691C19.3437 44.9495 19.3392 44.947 19.7368 44.6501C19.904 44.5249 19.9041 44.5249 19.5832 44.3997C19.4612 44.3531 19.3437 44.3015 19.2127 44.2574C19.1539 44.2377 19.0772 44.2255 19.0139 44.2304C18.6389 44.2598 18.2684 44.2942 17.8978 44.3285C17.3014 44.3825 17.3013 44.3825 16.6959 44.1322C16.6461 44.1126 16.5693 44.0758 16.5784 44.0561C16.6281 43.9653 16.7501 43.926 16.9037 43.9162C17.1296 43.9015 17.351 43.8769 17.5724 43.8573C17.7215 43.845 17.8706 43.8303 18.0197 43.8181C18.1598 43.7248 18.3045 43.634 18.4355 43.5383C18.6434 43.391 18.6433 43.3861 18.3586 43.283C18.1779 43.2143 17.9836 43.1529 17.7983 43.0891C17.5769 43.1087 17.351 43.1308 17.1296 43.148C16.8495 43.1701 16.7365 43.1235 16.6642 42.9639C16.6009 42.824 16.6778 42.7038 16.8946 42.6743C17.116 42.6449 17.324 42.6253 17.4369 42.5001C17.5454 42.3798 17.7351 42.3332 17.9701 42.3234C18.1192 42.316 18.2683 42.2988 18.4174 42.2841C18.6117 42.2645 18.7157 42.1393 18.675 41.9994C18.6524 41.9086 18.6072 41.8325 18.431 41.8129C17.6493 41.727 17.6402 41.7294 17.2516 41.5625C17.2155 41.5478 17.1884 41.5036 17.202 41.4816C17.2246 41.4447 17.2743 41.3907 17.3285 41.3834C17.8481 41.3294 18.3677 41.2803 18.8874 41.2435C19.0591 41.2312 19.1856 41.214 19.2444 41.1232C19.3257 40.998 19.2895 40.8827 19.1314 40.7968C19.0817 40.7698 19.0003 40.7354 18.9461 40.7379C18.3496 40.7821 17.7577 40.8385 17.1613 40.8827C17.107 40.8876 17.0077 40.8459 16.9851 40.814C16.9399 40.7551 17.0076 40.6765 17.1658 40.6495C17.3736 40.6127 17.586 40.6103 17.7261 40.4876C17.9204 40.3133 18.1598 40.1538 18.3767 39.9869C18.4129 39.9574 18.4717 39.901 18.4581 39.8961C18.3452 39.8421 18.2141 39.8003 18.0966 39.7488C17.8978 39.6629 17.8978 39.5427 17.943 39.4273C17.9791 39.334 18.1147 39.2972 18.2819 39.2972C18.3541 39.2972 18.4445 39.2972 18.5033 39.2751C18.6569 39.2211 18.7066 39.1524 18.6298 39.1009C18.5846 39.0714 18.5033 39.0297 18.4491 39.0346C17.4821 39.1156 16.5106 39.1941 15.5481 39.2948C15.2635 39.3242 15.1325 39.2309 14.9608 39.1647C14.8298 39.1131 14.7077 39.0935 14.545 39.1303C14.3914 39.1647 14.2424 39.1451 14.1475 39.0641C14.0707 38.9978 14.2062 38.9414 14.5722 38.8775C14.64 38.8653 14.7167 38.8579 14.7664 38.8334C15.2906 38.5683 15.2906 38.5658 15.6521 38.5315C16.0045 38.4996 16.0046 38.4971 16.1898 38.3548C16.2757 38.2885 16.3705 38.2222 16.4518 38.1535C16.4835 38.1265 16.5378 38.0774 16.5197 38.0627C16.4203 37.9866 16.2847 37.9694 16.1265 37.9866C15.7741 38.0284 15.3584 37.994 15.1732 38.2271C15.1009 38.3155 14.9879 38.34 14.8252 38.3548C13.1895 38.4971 11.5538 38.6493 9.91357 38.7867C9.64698 38.8088 9.52505 38.8996 9.42113 39.0003C9.33076 39.0837 9.23133 39.1082 9.05962 39.123C8.88792 39.1377 8.7523 39.1451 8.65289 39.0641C8.59415 39.015 8.64387 38.9463 8.77942 38.8775C8.97372 38.7794 8.93755 38.6567 8.8743 38.5413C8.82911 38.4652 8.68904 38.4112 8.53993 38.4161C8.31852 38.4259 8.10621 38.4529 7.92095 38.3548C7.81251 38.2983 7.67693 38.259 7.55493 38.2099C7.31996 38.1093 7.08499 38.0063 6.75514 38.0725C6.52922 38.048 6.37107 37.9596 6.19033 37.8909C5.88759 37.778 5.86048 37.7608 6.07737 37.6406C6.32137 37.5056 6.13155 37.3288 6.26711 37.1963C6.4117 37.054 6.61058 36.9288 6.7868 36.7963C6.83199 36.7619 6.87267 36.73 6.91786 36.6957C6.81393 36.6466 6.71906 36.5852 6.59706 36.5509C6.43891 36.5067 6.35758 36.4527 6.36661 36.3005C6.33498 36.2784 6.34845 36.3349 6.38459 36.3496C6.42526 36.3643 6.52474 36.3521 6.57445 36.3349C6.70096 36.2883 6.76416 36.2269 6.73253 36.1754C6.71445 36.1483 6.62867 36.114 6.57445 36.114C6.47504 36.114 6.3892 36.168 6.36209 36.3005C5.85602 36.4011 5.33179 36.4502 4.80764 36.4895C4.75342 36.4944 4.68568 36.4453 4.62242 36.4208C4.41457 36.3373 4.41454 36.3398 3.80455 36.3152C3.74129 36.3128 3.65548 36.2784 3.62385 36.2441C3.49281 36.0944 3.49737 35.9299 3.43411 35.7704C3.55159 35.6673 3.66898 35.5667 3.79098 35.466C4.03498 35.2623 4.35134 35.0832 4.54112 34.8598C4.50045 34.7396 4.44622 34.6193 4.64504 34.5211C5.20985 34.3984 5.20537 34.3984 5.35899 34.2806C5.79729 33.9468 6.23104 33.6106 6.68741 33.2817C6.80941 33.1958 6.80943 33.1492 6.59254 33.1124C6.52476 33.1026 6.45237 33.1001 6.38007 33.105C6.15415 33.1222 5.92823 33.1664 5.70682 33.1565C5.48541 33.1492 5.32275 33.0412 5.14201 32.9749C4.95675 32.9062 4.7715 32.835 4.58624 32.7639C4.37387 32.7712 4.16154 32.8399 3.94917 32.7295C3.7865 32.6436 3.58318 32.5822 3.39792 32.5111C3.538 32.3245 3.80011 32.1822 4.00344 32.0177C4.1887 31.868 4.19312 31.8705 4.69016 31.7551C4.92512 31.7011 5.00645 31.4238 4.80764 31.3428C4.56816 31.2446 4.31518 31.1538 4.07118 31.0606C3.85881 31.0679 3.64196 31.1342 3.43863 31.0238C3.28048 30.9403 3.09971 30.8839 2.83763 30.9158C2.39482 30.9698 1.94298 30.9968 1.49565 31.0409C1.34202 31.0557 1.17479 31.0459 1.10701 30.9624C1.06183 30.9035 1.19287 30.8225 1.34198 30.8053C1.56791 30.7808 1.77122 30.7513 1.88418 30.6286C1.99263 30.5059 2.19142 30.4691 2.42638 30.4519C2.48964 30.447 2.56199 30.4175 2.59362 30.3881C2.75628 30.2457 2.93704 30.123 3.28496 30.1279C3.42955 30.0788 3.50632 30.0175 3.46113 29.9586C3.43402 29.9267 3.33918 29.885 3.28496 29.8899C2.90993 29.9144 2.5349 29.939 2.1689 29.9831C1.9972 30.0028 1.86609 30.0077 1.75765 29.934C1.68084 29.8849 1.7215 29.8187 1.86609 29.7475C1.99261 29.6861 2.0288 29.615 2.01976 29.5315C1.99717 29.3376 1.86158 29.2812 1.42781 29.2935C1.11603 29.3033 1.03921 29.2714 0.971434 29.1045C0.95336 29.0652 0.908255 29.0112 0.939884 28.9842C1.13418 28.8173 1.26071 28.6112 1.62671 28.5326C1.7713 28.5032 1.92487 28.5032 2.01524 28.4394C2.10561 28.3756 2.18698 28.3019 2.28187 28.2406C2.39935 28.1669 2.4806 28.0982 2.42638 28.0516C2.33601 27.9682 2.19147 27.9608 2.02428 27.9902C1.87969 28.0148 1.72606 28.0172 1.57695 28.0319C1.31036 28.0589 1.09352 27.9951 1.06189 27.8871C0.976041 27.6025 0.885645 27.3202 0.80883 27.0355C0.799793 27.0012 0.822324 26.957 0.858472 26.9275C0.98499 26.8244 1.1206 26.7263 1.25163 26.6256C1.40526 26.5103 1.6493 26.5324 1.85715 26.5103C2.15086 26.4784 2.15076 26.4808 2.54387 26.2452C2.69749 26.1519 2.9641 26.1888 3.12225 26.1053C3.17195 26.0783 3.24877 26.0341 3.23521 26.0096C3.21714 25.9777 3.12681 25.9531 3.05904 25.9384C2.99578 25.9237 2.91898 25.9163 2.8512 25.9237C2.02884 25.9949 1.21101 26.071 0.38864 26.1397C0.248566 26.152 0.0949327 26.098 0.0452292 26.0219C-0.00447438 25.9507 0.00903701 25.8648 0 25.7838C0.131037 25.6832 0.28009 25.5899 0.393053 25.4819C0.478904 25.3985 0.578329 25.3617 0.750032 25.3567C0.975957 25.3494 1.19739 25.3199 1.45042 25.2978C1.92035 24.9395 2.3812 24.564 2.88728 24.2057C3.09061 24.0609 3.04098 23.9136 3.08165 23.759C3.12232 23.6166 3.42504 23.6388 3.62837 23.597C3.79104 23.5627 3.84519 23.4841 3.78193 23.4301C3.74578 23.3982 3.66449 23.3614 3.60124 23.3614C3.45212 23.3614 3.30302 23.3835 3.15391 23.3958C3.0048 23.408 2.8331 23.4007 2.7111 23.4424C2.59362 23.4817 2.51676 23.5651 2.43995 23.6363C2.3541 23.7148 2.24121 23.7418 2.06951 23.7467C1.8481 23.7516 1.62671 23.7737 1.4053 23.7909C1.1613 23.6952 0.908215 23.6019 0.673253 23.5013C0.628068 23.4817 0.618982 23.4252 0.623501 23.3884C0.632538 23.2927 0.564778 23.2338 0.415667 23.1871C0.289149 23.1479 0.185215 23.0914 0.0677334 23.0424C0.158104 22.9761 0.257546 22.9123 0.329842 22.8411C0.48799 22.6914 0.686826 22.5834 1.03023 22.5883C1.16579 22.4926 1.2742 22.3748 1.45042 22.3085C1.61761 22.2447 1.90229 22.3085 2.0288 22.1637C2.09206 22.0925 2.187 22.0115 2.309 21.9821C2.5033 21.9354 2.75633 21.96 2.86929 21.8226C2.93707 21.744 3.03644 21.6728 3.16748 21.6532C3.31659 21.6311 3.47018 21.6262 3.57862 21.5796C3.63736 21.555 3.70063 21.5158 3.70063 21.4814C3.70063 21.4593 3.61033 21.425 3.54707 21.4102C3.48833 21.3931 3.41143 21.3808 3.34365 21.3857C3.11772 21.4004 2.89632 21.4274 2.6704 21.4421C2.60714 21.447 2.53486 21.4299 2.46709 21.4151C2.26827 21.3759 2.2818 21.3268 2.43995 21.2384C2.5981 21.1525 2.71112 21.0421 2.84216 20.9415C2.98675 20.9243 3.16746 20.9316 3.26687 20.885C3.43405 20.8089 3.55151 20.6985 3.68706 20.6028C3.83617 20.588 3.98979 20.5831 4.12986 20.5561C4.18861 20.5463 4.21574 20.4923 4.26544 20.4604C4.35581 20.3991 4.43269 20.3107 4.55469 20.2813C4.7535 20.2371 4.9975 20.2542 5.11498 20.1193C5.18276 20.0407 5.28664 19.9573 5.41316 19.9524C5.7656 19.9426 5.91472 19.8076 6.09546 19.6799C6.23101 19.5842 6.52021 19.6333 6.66932 19.5376C6.76872 19.4762 6.84106 19.4001 6.94047 19.3412C6.98114 19.3167 7.06696 19.3044 7.13474 19.2971C7.50525 19.2603 7.88028 19.2333 8.25079 19.194C8.30954 19.1866 8.3638 19.1498 8.40899 19.1204C8.50387 19.0566 8.56255 18.9682 8.68003 18.9265C8.79751 18.8848 8.96467 18.8848 9.10927 18.8725C9.57467 18.8357 9.61086 18.8455 9.82323 18.6369C9.99493 18.4675 10.4152 18.5878 10.5553 18.4012C10.6366 18.2933 10.7857 18.2049 11.0522 18.1926C11.4273 18.1755 11.7978 18.1288 12.1728 18.0969C12.5072 18.0675 12.5027 18.0675 12.8642 17.8392C13.0268 17.7361 13.2664 17.7509 13.4787 17.7312C13.7047 17.7116 13.9125 17.6822 14.0209 17.5594C14.1294 17.4392 14.3282 17.3999 14.5586 17.3827C14.771 17.3655 15.0105 17.3778 15.1777 17.2796C15.5844 17.044 15.5799 17.0416 15.8645 17.017C16.3119 16.9777 16.7592 16.9385 17.2065 16.8968C17.5047 16.8698 17.8165 16.8649 18.0966 16.8109C18.3 16.7716 18.3903 16.6342 18.5213 16.5384C18.8919 16.5016 19.2624 16.4648 19.6329 16.4304C20.1525 16.3813 20.6766 16.3372 21.2008 16.2906C21.4267 16.1973 21.4584 15.9911 21.838 15.9813C22.0639 15.9764 22.2853 15.9445 22.5112 15.9249C22.8863 15.8905 23.2568 15.8463 23.6318 15.8291C23.9165 15.8169 23.9661 15.6843 24.1152 15.6009C24.1649 15.5714 24.2101 15.5297 24.2689 15.5224C24.8563 15.4536 25.4617 15.4389 26.0356 15.3383C26.0943 15.3285 26.1485 15.2769 26.1621 15.2401C26.1711 15.2205 26.0943 15.1837 26.0446 15.1665C25.9859 15.1469 25.9091 15.1272 25.8458 15.1321C23.9797 15.2966 22.1136 15.4635 20.2474 15.6279C19.9854 15.6524 19.9854 15.65 19.3483 15.9199C19.294 15.942 19.2307 15.9666 19.1629 15.9739C18.8647 16.0034 18.562 16.0206 18.2683 16.0574C18.0288 16.0869 17.8301 16.0574 17.6584 15.969C17.5364 15.9052 17.4098 15.8856 17.2561 15.8905C17.0844 15.8979 16.9715 15.9249 16.8721 15.9911C16.7411 16.0819 16.6733 16.1997 16.3977 16.2243C15.128 16.3298 13.8582 16.4476 12.593 16.5605C12.4168 16.5262 12.331 16.4746 12.3761 16.4133C12.4032 16.3765 12.4575 16.3274 12.5117 16.3225C13.0313 16.2709 13.5555 16.2267 14.0751 16.1777C14.1474 16.1703 14.2468 16.1752 14.2875 16.1506C14.4863 16.0402 14.5586 15.861 14.9337 15.8488C15.1506 15.8414 15.3719 15.8046 15.5798 15.7702C15.6385 15.7604 15.6928 15.7089 15.7063 15.6721C15.7108 15.6524 15.6385 15.6156 15.5843 15.5984C15.3855 15.5272 15.1551 15.6132 14.9563 15.5641C14.8885 15.5469 14.7936 15.5224 14.78 15.4929C14.771 15.4659 14.8478 15.4217 14.902 15.3947C14.9517 15.3702 15.0195 15.3481 15.0872 15.3407C15.6837 15.2843 16.2802 15.2254 16.8767 15.1812C17.1207 15.164 17.2923 15.1027 17.4008 14.9898C17.4821 14.9063 17.5815 14.8621 17.7351 14.8499C18.7789 14.7591 19.8227 14.6584 20.8709 14.575C21.133 14.5554 21.2686 14.4744 21.3771 14.3688C21.4629 14.2854 21.5623 14.2559 21.7295 14.2412C23.2252 14.1136 24.7117 13.9712 26.2073 13.8485C26.483 13.8264 26.5643 13.7209 26.7044 13.6301C26.7541 13.5982 26.7857 13.5589 26.8489 13.5393C26.9122 13.5196 26.9935 13.5221 27.0703 13.5172C28.2632 13.4116 29.4562 13.2988 30.6536 13.2006C30.9337 13.1785 30.9879 13.0558 31.1325 12.9699C31.1822 12.9429 31.2274 12.8987 31.2861 12.8913C32.1808 12.8079 33.0754 12.7294 33.9701 12.6484C34.5665 12.5944 35.163 12.5404 35.7594 12.4888C36.0531 12.4643 36.0531 12.4618 36.4507 12.2287C36.4959 12.2017 36.5592 12.1698 36.618 12.1624C38.335 12.0053 40.0475 11.8556 41.7645 11.701C41.9091 11.6887 42.013 11.6323 42.0853 11.5488C42.1576 11.4654 42.2616 11.4089 42.4017 11.3966C43.7437 11.2739 45.0856 11.1537 46.4322 11.0383C46.6762 11.0187 46.8478 10.9598 46.9563 10.8493C47.0376 10.7659 47.137 10.7217 47.2906 10.7095C48.6326 10.5917 49.9747 10.4665 51.3212 10.3536C51.5788 10.3315 51.7052 10.248 51.8317 10.1499C51.8769 10.1155 51.9131 10.0591 51.9673 10.0541C52.6361 9.98543 53.3003 9.91425 53.9735 9.86762C54.2537 9.84799 54.3486 9.7449 54.4616 9.64673C54.5519 9.56819 54.6559 9.5412 54.8276 9.53138C55.2026 9.50929 55.5731 9.46759 55.9391 9.42586C55.9933 9.4185 56.0611 9.3645 56.0656 9.33014C56.0747 9.26633 55.9707 9.22214 55.799 9.20006C54.0097 9.35959 52.2159 9.5191 50.4266 9.67863C50.1329 9.70563 50.1328 9.70565 49.7352 9.9388C49.69 9.9658 49.6267 9.99771 49.5635 10.0051C47.8464 10.1597 46.134 10.3119 44.4169 10.4665C44.2723 10.4788 44.1684 10.5352 44.0961 10.6187C44.0238 10.7021 43.9198 10.7585 43.7797 10.7708C42.1395 10.9181 40.4994 11.0678 38.8546 11.2077C38.6106 11.2273 38.439 11.2838 38.3305 11.3966C38.2492 11.4801 38.1498 11.5243 37.9961 11.5366C36.4282 11.674 34.8647 11.8188 33.2923 11.9513C33.1342 11.9636 33.0168 11.8924 33.0258 11.8262C33.0303 11.7918 33.098 11.7354 33.1522 11.7305C33.9701 11.6495 34.7835 11.566 35.6058 11.5047C35.8815 11.485 35.9627 11.377 36.1028 11.2862C36.148 11.2543 36.1842 11.2126 36.2429 11.1954C36.3062 11.1758 36.3875 11.1782 36.4643 11.1733C38.4027 10.9991 40.3412 10.8224 42.2842 10.6579C42.5644 10.6334 42.6185 10.5131 42.7631 10.4272C42.8128 10.3978 42.858 10.3536 42.9167 10.3487C43.5132 10.2898 44.1096 10.2382 44.7061 10.1867C45.7498 10.0934 46.7936 10.0002 47.8419 9.9069C48.1446 9.8799 48.1446 9.87989 48.5332 9.64918C48.5784 9.62219 48.6417 9.58785 48.7005 9.58294C51.4613 9.33506 54.2221 9.08717 56.9829 8.84174C57.1275 8.82946 57.2314 8.77302 57.3037 8.68957C57.376 8.60858 57.4799 8.54967 57.62 8.53495C61.3523 8.20116 65.08 7.86736 68.8123 7.53849C69.0563 7.5164 69.228 7.46485 69.3364 7.3495C69.4132 7.26605 69.5172 7.22189 69.6708 7.20716C73.7736 6.84147 77.8764 6.47578 81.9837 6.10764C84.7445 5.8622 87.5054 5.61187 90.2662 5.37134C90.5192 5.34925 90.6547 5.27316 90.7812 5.17253C90.8219 5.13817 90.8626 5.08172 90.9168 5.07681C91.5087 5.01545 92.1006 4.95901 92.6926 4.90256C92.8778 4.96883 93.0631 5.03265 93.2483 5.09892C93.3884 5.00565 93.524 4.90993 93.6641 4.81667C94.5588 4.74549 95.4398 4.63505 96.3435 4.60069C96.4023 4.59823 96.4655 4.64487 96.5288 4.66941C96.949 4.82404 97.1885 4.81176 97.4551 4.6056C97.55 4.53197 97.6313 4.46571 97.7759 4.45343C98.2232 4.40926 98.6752 4.3798 99.118 4.32826C99.3575 4.30127 99.5562 4.3258 99.7279 4.41416C99.8499 4.47797 99.9765 4.50498 100.126 4.49026C100.948 4.41663 101.766 4.34544 102.588 4.26691C102.647 4.262 102.701 4.22026 102.746 4.19081C102.841 4.127 102.922 4.05829 103.013 3.99202C103.135 4.03375 103.27 4.06566 103.37 4.11965C103.496 4.18346 103.614 4.18345 103.786 4.16627C107.066 3.8693 110.351 3.57969 113.631 3.28027C113.911 3.25573 114.034 3.35882 114.223 3.41281C114.287 3.43245 114.35 3.45698 114.418 3.46189C114.49 3.46679 114.567 3.45208 114.639 3.44472C117.102 3.22383 119.564 3.00538 122.027 2.78449C122.352 2.75504 122.352 2.75504 122.836 2.90721C122.894 2.92684 122.971 2.94894 123.034 2.94157C124.155 2.84586 125.276 2.74278 126.392 2.64461C126.536 2.63234 126.658 2.6716 126.789 2.72805C127.047 2.83849 127.065 2.8385 127.255 2.67652C127.345 2.60044 127.44 2.55378 127.589 2.53169C127.752 2.50715 127.883 2.51454 128.009 2.55872C128.19 2.62007 128.321 2.72314 128.597 2.69614C129.79 2.58079 130.987 2.48508 132.175 2.36727C132.446 2.34028 132.591 2.42372 132.772 2.48508C132.835 2.50716 132.894 2.54153 132.962 2.54889C133.029 2.55625 133.111 2.53906 133.183 2.53169C134.674 2.39916 136.17 2.26911 137.656 2.12676C137.936 2.09976 138.058 2.20527 138.248 2.25927C138.311 2.2789 138.384 2.31328 138.442 2.30837C139.337 2.23229 140.236 2.15127 141.131 2.07028C141.452 2.04083 141.452 2.04329 141.94 2.193C141.998 2.21263 142.075 2.23227 142.139 2.22736C143.182 2.13655 144.231 2.04329 145.274 1.95002C145.595 1.92057 145.595 1.92058 146.522 2.0482C146.589 2.05802 146.662 2.07276 146.729 2.06786C147.922 1.96232 149.12 1.85923 150.313 1.74633C150.552 1.72424 150.751 1.74387 150.923 1.83222C151.045 1.89603 151.171 1.92305 151.32 1.90832C152.662 1.78806 154.009 1.67271 155.346 1.54509C155.604 1.52054 155.771 1.57452 155.952 1.64569C156.01 1.67024 156.069 1.7046 156.137 1.71442C156.205 1.72424 156.282 1.71441 156.354 1.70705C157.696 1.58679 159.042 1.4739 160.38 1.34382C160.651 1.31682 160.796 1.40026 160.976 1.46162C161.04 1.48371 161.107 1.52789 161.161 1.52543C161.686 1.48371 162.21 1.44691 162.729 1.38555C163.01 1.35119 163.132 1.46407 163.321 1.51806C163.385 1.53524 163.457 1.57208 163.516 1.56717C164.636 1.47145 165.757 1.37083 166.873 1.26775C167.031 1.25302 167.148 1.27509 167.275 1.3389C167.442 1.4248 167.637 1.45917 167.881 1.43217C168.4 1.37572 168.924 1.33646 169.448 1.28983C169.756 1.26283 169.756 1.26284 170.696 1.39046C170.763 1.40028 170.836 1.415 170.903 1.41009C171.798 1.33155 172.697 1.25547 173.587 1.16957C173.827 1.14503 174.026 1.16711 174.197 1.25547C174.319 1.31928 174.441 1.34629 174.595 1.33156C175.417 1.25793 176.235 1.1843 177.058 1.11067C177.356 1.08367 177.654 1.03703 177.952 1.03703C178.169 1.03948 178.327 1.15729 178.522 1.21619C178.576 1.23337 178.666 1.21376 178.739 1.20885C179.782 1.11558 180.831 1.02968 181.87 0.92414C182.141 0.897143 182.286 0.980585 182.466 1.04194C182.53 1.06403 182.597 1.10821 182.652 1.10576C183.027 1.07876 183.397 1.04194 183.772 1.01004C184.219 0.970766 184.671 0.941315 185.114 0.88732C185.476 0.843142 185.611 1.05666 185.9 1.06402C186.122 1.07139 186.348 1.02967 186.569 1.01004C187.016 0.970766 187.464 0.926593 187.911 0.892233C188.069 0.879962 188.191 0.840676 188.241 0.752321C188.25 0.735141 188.173 0.698342 188.123 0.676253C187.523 0.425914 187.522 0.425902 186.917 0.479896C186.542 0.514257 186.171 0.548623 185.796 0.578075C185.733 0.582983 185.661 0.56335 185.598 0.548624C185.417 0.506901 185.435 0.45782 185.589 0.369465C185.742 0.28111 185.86 0.17313 185.991 0.0725031C186.176 0.136315 186.357 0.200104 186.542 0.263916C186.691 0.251645 186.84 0.23694 186.989 0.224669C187.735 0.160857 188.48 0.0945859 189.226 0.0356825C189.28 0.0307739 189.348 0.0798672 189.411 0.10441C189.592 0.175585 189.755 0.236926 190.017 0.209929C190.685 0.138754 191.359 0.0872134 192.027 0.0258557C192.321 -0.00114166 192.321 -0.00113926 192.836 0.151028C192.895 0.168208 192.972 0.187844 193.035 0.182935C193.708 0.126486 194.377 0.0651354 195.05 0.00623205C195.195 -0.00603949 195.335 0.0258653 195.439 0.0970402C195.48 0.126492 195.471 0.175568 195.642 0.578075C196.175 0.904498 196.541 0.870154 196.912 0.840702C197.07 0.828431 197.21 0.816147 197.314 0.767061C197.368 0.740064 197.436 0.700789 197.436 0.668883C197.436 0.64434 197.337 0.605064 197.273 0.600155C196.826 0.551069 196.401 0.654164 195.963 0.676253C195.76 0.68607 195.583 0.600168 195.547 0.460273C195.538 0.421004 195.525 0.379283 195.511 0.340014C195.498 0.300745 195.489 0.259024 195.475 0.219756C195.299 0.207484 195.195 0.251654 195.118 0.335101C195.055 0.403821 194.964 0.482359 194.842 0.519174C194.72 0.558443 194.553 0.551093 194.404 0.563364C194.26 0.575636 194.101 0.607538 193.966 0.590358C193.83 0.570724 193.722 0.499537 193.595 0.455359C193.537 0.433271 193.464 0.401377 193.406 0.406285C192.886 0.448008 192.371 0.489716 191.856 0.543711C191.585 0.573162 191.449 0.470097 191.277 0.406285C191.142 0.357199 191.006 0.369455 190.984 0.482353C190.925 0.752327 191.133 0.865219 191.594 0.813679C191.973 0.769501 192.317 0.762161 192.615 0.929054C192.656 0.951143 192.75 0.960956 192.809 0.956048C193.18 0.926596 193.546 0.889778 193.916 0.860326C193.984 0.855417 194.056 0.865219 194.12 0.875036C195.041 1.00757 195.041 1.01004 195.353 0.980585C195.502 0.965859 195.647 0.953586 195.633 0.580531C195.918 0.180479 196.37 0.153487 196.808 0.0945835C197.093 0.0577689 197.215 0.165763 197.4 0.222212C197.463 0.241847 197.531 0.281108 197.59 0.2762C198.561 0.195208 199.528 0.109295 200.495 0.0184856C200.658 0.00375977 200.775 0.018488 200.902 0.0823C201.064 0.163292 201.245 0.214843 201.503 0.185392C202.018 0.126488 202.542 0.0896821 203.066 0.0405959C203.333 0.0160529 203.333 0.0160277 203.87 0.168195C203.929 0.185375 204.006 0.205011 204.069 0.200102C204.593 0.158379 205.113 0.106854 205.633 0.0626763C205.777 0.0504048 205.908 0.0847615 206.021 0.151028C206.134 0.217294 206.27 0.251651 206.41 0.239379C206.934 0.195202 207.454 0.146131 207.973 0.101954C208.036 0.097045 208.113 0.114224 208.172 0.131404C208.723 0.283571 208.723 0.283546 208.976 0.259003C209.347 0.222188 209.726 0.205027 210.092 0.155941C210.449 0.106855 210.635 0.249193 210.879 0.327731C211.547 0.271282 212.221 0.224662 212.885 0.155941C213.156 0.126489 213.301 0.207474 213.481 0.271286C213.545 0.293375 213.608 0.340012 213.666 0.337557C213.892 0.32774 214.114 0.300748 214.335 0.281113C214.557 0.261479 214.783 0.241847 215.004 0.222212C215.257 0.293387 215.424 0.460278 215.786 0.403829C216.003 0.369468 216.233 0.362105 216.454 0.342471C216.676 0.322836 216.902 0.303204 217.123 0.28357C217.272 0.271298 217.426 0.263925 217.571 0.241836C217.837 0.205021 217.968 0.325297 218.158 0.379291C218.221 0.396472 218.293 0.425904 218.352 0.420996C218.8 0.386635 219.251 0.357186 219.69 0.300737C220.029 0.256559 220.259 0.330198 220.499 0.433279C220.548 0.455368 220.634 0.467638 220.697 0.46273C221.221 0.421006 221.741 0.369451 222.261 0.325274C222.401 0.313002 222.536 0.35227 222.649 0.416082C222.767 0.482348 222.898 0.514278 223.042 0.502007C223.562 0.457829 224.086 0.408729 224.606 0.364551C224.669 0.359643 224.746 0.379281 224.805 0.398915C225.311 0.551082 225.311 0.553539 225.609 0.524087C225.681 0.516724 225.758 0.511796 225.83 0.504434C226.201 0.470073 226.585 0.457819 226.946 0.398915C227.362 0.332649 227.665 0.416099 227.959 0.555994C228.329 0.526543 228.709 0.509359 229.07 0.460273C229.341 0.423458 229.486 0.516717 229.667 0.578075C229.73 0.600164 229.798 0.644341 229.852 0.639432C230.376 0.597709 230.9 0.560908 231.415 0.49955C231.695 0.46519 231.817 0.575613 232.007 0.632062C232.07 0.651697 232.138 0.686075 232.197 0.681166C232.495 0.661532 232.793 0.632066 233.092 0.605069C233.44 0.573163 233.439 0.575614 233.9 0.725327C234.117 0.796502 234.334 0.740051 234.547 0.72287C234.773 0.703236 234.985 0.688515 235.166 0.789142C235.279 0.852953 235.414 0.892224 235.554 0.882406C235.852 0.860318 236.155 0.83824 236.449 0.801425C236.684 0.771973 236.887 0.791597 237.059 0.882406C237.181 0.946218 237.307 0.978144 237.456 0.963418C238.125 0.904514 238.798 0.843134 239.467 0.786685C239.526 0.781776 239.607 0.803873 239.661 0.825962C239.788 0.87014 239.91 0.919215 240.032 0.968301C240.326 0.946212 240.628 0.93642 240.918 0.90206C241.225 0.8677 241.505 0.855425 241.745 0.990412C241.794 1.01986 241.866 1.06156 241.925 1.05911C242.151 1.04929 242.373 1.02476 242.594 1.00512C242.815 0.985487 243.041 0.965855 243.263 0.946221C243.52 1.00758 243.683 1.18429 244.044 1.12784C244.261 1.09348 244.492 1.08611 244.713 1.06648C244.935 1.04684 245.161 1.02476 245.382 1.00758C245.454 1.00267 245.536 0.990391 245.599 1.00021C245.667 1.01003 245.725 1.04439 245.784 1.06894C245.965 1.14011 246.132 1.21129 246.39 1.16957C246.606 1.13521 246.837 1.12785 247.058 1.10576C247.361 1.07876 247.361 1.07876 247.863 1.23339C248.066 1.2972 248.296 1.21375 248.491 1.26775C248.622 1.30456 248.735 1.36591 248.861 1.40763C248.915 1.42481 249.001 1.43216 249.064 1.42726C249.363 1.40517 249.665 1.38309 249.959 1.34627C250.199 1.31682 250.397 1.34627 250.565 1.43463C250.687 1.49844 250.809 1.52545 250.962 1.51072C251.708 1.442 252.453 1.38308 253.194 1.307C253.447 1.28 253.651 1.32173 253.791 1.41009C254.03 1.56226 254.369 1.38309 254.618 1.50581C254.771 1.58189 254.925 1.67025 255.205 1.63344C255.72 1.56963 256.244 1.53525 256.764 1.49107C256.949 1.55734 257.135 1.62362 257.324 1.68988C257.623 1.66289 257.921 1.63587 258.219 1.61133C258.44 1.59169 258.666 1.56961 258.888 1.55243C258.96 1.54752 259.037 1.5377 259.105 1.54997C259.172 1.56224 259.227 1.59416 259.29 1.6187C259.602 1.73896 259.602 1.74143 260.117 1.69234C260.338 1.67025 260.551 1.65553 260.736 1.7537C260.908 1.84451 261.111 1.86168 261.346 1.83468C261.789 1.78559 262.236 1.74878 262.688 1.71442C262.828 1.70215 262.959 1.74387 263.076 1.80768C263.253 1.90831 263.47 1.8985 263.691 1.8715C263.985 1.83714 264.274 1.80279 264.522 1.94023C264.572 1.96968 264.649 2.01138 264.703 2.00892C265.074 1.98929 265.449 1.97458 265.81 1.92794C266.172 1.88131 266.348 2.03347 266.596 2.1071C266.967 2.0752 267.342 2.04329 267.712 2.01138C267.785 2.00402 267.871 1.98194 267.934 1.99421C268.2 2.04576 268.354 2.22982 268.72 2.17337C268.932 2.14147 269.163 2.13166 269.384 2.1243C269.443 2.12185 269.52 2.16355 269.56 2.19545C269.583 2.21263 269.56 2.25926 269.533 2.28381C269.452 2.35253 269.353 2.41636 269.28 2.48753C269.271 2.49735 269.357 2.54151 269.407 2.56114C269.529 2.60532 269.669 2.59798 269.832 2.57834C269.972 2.56116 270.116 2.59552 270.216 2.66915C270.256 2.6986 270.243 2.74768 270.157 2.90967C270.157 3.02993 270.252 2.97592 270.283 2.89738C270.333 2.78448 270.238 2.74767 270.057 2.80903C269.931 2.85321 269.868 2.91703 269.899 2.96857C269.917 2.99556 270.003 3.02993 270.157 2.90967C270.554 2.76241 270.853 2.73542 271.151 2.70843C271.228 2.70106 271.318 2.6765 271.372 2.69123C271.567 2.75013 271.747 2.82132 271.937 2.88759C272.154 2.87286 272.357 2.83603 272.57 2.93175C272.868 3.06673 272.882 3.05447 273.171 3.02747C273.32 3.01274 273.469 3.00049 273.618 2.98822C273.767 2.97595 273.885 3.01275 274.016 3.0692C274.282 3.18455 274.305 3.18454 274.481 3.02747C274.585 2.93175 274.657 2.89985 274.788 2.94403C275.222 3.09374 275.227 3.10355 275.597 3.05938C275.904 3.02256 276.194 3.01274 276.42 3.15264C276.573 3.25081 276.623 3.22873 276.745 3.12565C277.07 2.85322 277.219 2.85812 277.829 3.05446C278.114 3.14773 278.408 3.04711 278.697 3.03484C278.941 3.02502 279.113 3.08391 279.131 3.23853C279.144 3.33425 279.185 3.40299 279.348 3.43489C279.411 3.44716 279.488 3.46434 279.551 3.45943C279.926 3.42998 280.296 3.39561 280.671 3.36125C280.861 3.34407 280.965 3.22874 280.929 3.07657C280.888 2.91459 280.961 2.85566 281.232 2.80903C281.394 2.78203 281.525 2.78696 281.657 2.83114C281.801 2.88023 281.76 2.9244 281.634 3.01276C281.331 3.22874 281.367 3.36125 281.756 3.51096C281.891 3.5625 282 3.60915 282.031 3.68524C282.05 3.7245 282.032 3.77604 282.072 3.80549C282.294 3.96993 282.601 4.07548 282.944 4.15402C283.274 4.08775 283.5 4.19817 283.753 4.28653C283.952 4.35525 284.187 4.29636 284.399 4.27182C284.639 4.24482 284.837 4.26445 285.009 4.35526C285.131 4.41907 285.258 4.44851 285.407 4.43624C285.705 4.40924 286.008 4.39207 286.301 4.3528C286.554 4.31844 286.744 4.36753 286.902 4.45098C287.101 4.55651 287.323 4.48533 287.531 4.50005C287.811 4.51723 287.951 4.73566 288.317 4.67675C288.534 4.6424 288.76 4.63013 288.986 4.62031C289.044 4.61786 289.117 4.65959 289.166 4.68904C289.406 4.82403 289.686 4.81666 289.993 4.77739C290.206 4.75039 290.413 4.72586 290.621 4.81912C290.965 4.9762 291.344 5.11365 291.706 5.25845C291.755 5.37135 291.719 5.50386 291.977 5.57013C292.112 5.60449 292.239 5.65605 292.343 5.7125C292.469 5.77876 292.587 5.79595 292.749 5.77877C293.043 5.74441 293.35 5.73702 293.64 5.69284C293.906 5.65357 294.073 5.73459 294.236 5.81067C294.367 5.87203 294.489 5.90147 294.647 5.85729C294.81 5.81557 294.927 5.84256 295.058 5.90882C295.244 5.99963 295.257 5.98983 295.872 6.01683C295.935 6.01928 296.012 6.05608 296.048 6.08798C296.066 6.10516 296.025 6.15428 295.994 6.17882C295.953 6.20827 295.89 6.24261 295.831 6.24997C295.162 6.31379 294.489 6.37023 293.82 6.43405C293.753 6.44141 293.68 6.45861 293.631 6.48315C293.576 6.51015 293.509 6.54694 293.509 6.5813C293.509 6.60584 293.599 6.6353 293.662 6.65248C293.861 6.70893 294.096 6.62304 294.29 6.68685C294.421 6.72857 294.53 6.78746 294.661 6.82673C294.715 6.84391 294.801 6.84147 294.869 6.83656C295.095 6.81938 295.316 6.79484 295.542 6.78011C295.605 6.77766 295.677 6.80221 295.736 6.82185C296.17 6.96911 296.17 6.9691 296.545 6.93719C296.694 6.92492 296.852 6.8881 296.992 6.90283C297.128 6.91755 297.245 6.98382 297.367 7.02554C297.62 7.1139 297.86 7.1998 297.878 7.39123C297.887 7.46486 298.036 7.52866 298.185 7.53357C298.33 7.53848 298.483 7.51151 298.632 7.49678C298.985 7.46733 298.985 7.46733 299.441 7.61704C299.568 7.65876 299.703 7.66366 299.866 7.63912C299.929 7.6293 300.006 7.63913 300.074 7.6514C300.295 7.68822 300.295 7.73484 300.151 7.82319C299.947 7.95327 299.965 7.96555 300.535 8.07599C300.752 8.11772 300.919 8.19626 301.1 8.26498C301.393 8.37542 301.389 8.3754 301.195 8.52021C301.149 8.55211 301.109 8.58648 301.063 8.62084C300.932 8.71656 300.828 8.81964 300.557 8.82945C300.259 8.83927 299.961 8.87855 299.663 8.90555C299.374 8.93255 299.297 8.99143 299.324 9.15832C299.355 9.35958 299.414 9.38167 299.934 9.37922C300.083 9.37922 300.214 9.39884 300.327 9.46511C300.273 9.54365 300.173 9.60501 300.029 9.61973C299.658 9.65655 299.283 9.68846 298.913 9.72037C298.614 9.74736 298.316 9.77435 298.018 9.80135C297.833 9.81853 297.715 9.94616 297.765 10.0885C297.792 10.1695 297.815 10.2505 297.837 10.3315C297.887 10.4935 297.982 10.5352 298.285 10.5278C298.361 10.5254 298.434 10.5057 298.506 10.5106C298.8 10.5278 298.94 10.7315 299.292 10.6898C299.586 10.6554 299.893 10.6481 300.182 10.6039C300.449 10.5646 300.598 10.653 300.783 10.7193C300.847 10.7414 300.914 10.788 300.969 10.7855C301.344 10.7585 301.719 10.7316 302.085 10.6849C302.256 10.6653 302.36 10.68 302.496 10.7389C302.821 10.8813 302.83 10.8739 303.314 10.8297C303.666 10.7954 303.671 10.8003 304.122 10.95C304.249 10.9917 304.385 10.9917 304.547 10.9721C304.76 10.9475 304.981 10.9082 305.202 10.9451C305.27 10.9549 305.356 10.9843 305.379 11.0162C305.392 11.0383 305.329 11.0923 305.275 11.1095C304.877 11.2371 304.412 11.2151 303.978 11.2666C303.842 11.2813 303.707 11.2347 303.594 11.1684C303.476 11.1021 303.35 11.0752 303.196 11.0874C302.898 11.1144 302.595 11.1316 302.302 11.1709C302.048 11.2052 301.872 11.1488 301.696 11.0727C301.637 11.0482 301.57 11.0015 301.511 11.004C300.842 11.0531 300.169 11.1022 299.505 11.1709C299.238 11.2003 299.084 11.1218 298.904 11.0555C298.84 11.0334 298.777 10.9868 298.718 10.9893C298.492 10.9991 298.271 11.0261 298.045 11.0457C297.223 11.1193 296.405 11.193 295.582 11.2617C295.528 11.2666 295.461 11.215 295.397 11.193C295.275 11.1488 295.149 11.107 295.022 11.0653C294.796 11.085 294.575 11.1095 294.349 11.1242C294.186 11.134 294.042 11.1684 294.019 11.2617C294.006 11.323 294.155 11.3795 294.313 11.3746C294.466 11.3697 294.62 11.3402 294.747 11.3721C295.375 11.5292 295.375 11.5316 295.768 11.4997C296.111 11.4703 296.075 11.4457 296.378 11.5807C296.509 11.6396 296.626 11.674 296.775 11.6593C297.146 11.6249 297.521 11.5905 297.896 11.5611C297.955 11.5562 298.032 11.5807 298.09 11.6004C298.533 11.7476 298.533 11.7525 298.899 11.7157C299.378 11.6715 299.396 11.6593 299.717 11.809C299.938 11.9121 300.142 11.8409 300.354 11.836C300.598 11.9317 300.865 12.0176 301.086 12.1256C301.348 12.2532 301.624 12.2311 301.922 12.1943C302.143 12.1673 302.36 12.1575 302.541 12.2581C302.713 12.3514 302.921 12.3612 303.155 12.3367C303.368 12.3146 303.585 12.2679 303.806 12.3219C303.865 12.3367 303.955 12.3735 303.951 12.3956C303.946 12.4299 303.887 12.479 303.829 12.4937C303.413 12.5944 302.957 12.5919 302.518 12.6385C302.46 12.6459 302.383 12.6189 302.324 12.5993C302.198 12.5551 302.076 12.5036 301.954 12.4569C301.732 12.4717 301.506 12.4765 301.289 12.506C301.122 12.5281 300.996 12.5257 300.874 12.4668C300.761 12.4128 300.639 12.3465 300.503 12.3293C300.368 12.3121 300.209 12.3489 300.06 12.3637C299.911 12.3784 299.74 12.371 299.622 12.4103C299.505 12.4495 299.432 12.5355 299.355 12.6042C299.27 12.6803 299.152 12.7048 298.98 12.7122C298.822 12.7195 298.696 12.7097 298.578 12.641C298.529 12.6115 298.461 12.5894 298.393 12.5698C298.33 12.5526 298.257 12.5256 298.199 12.5305C297.525 12.587 296.857 12.6484 296.183 12.7073C295.849 12.7367 295.854 12.7367 295.158 12.5919C295.094 12.5796 295.018 12.5624 294.954 12.5674C294.579 12.5968 294.209 12.6312 293.834 12.6655C293.454 12.6999 293.459 12.695 292.813 12.5404C292.695 12.5109 292.523 12.5502 292.383 12.5453C292.09 12.533 291.945 12.3268 291.602 12.3661C291.308 12.4005 291.001 12.4078 290.707 12.452C290.44 12.4913 290.287 12.4054 290.106 12.3391C290.043 12.317 289.975 12.2679 289.921 12.2729C289.247 12.3268 288.579 12.3882 287.684 12.3956C287.463 12.3956 287.562 12.4471 287.707 12.4643C287.915 12.4913 287.982 12.4398 287.869 12.3416C287.788 12.2729 287.671 12.2385 287.576 12.2557C287.526 12.2655 287.463 12.3121 287.684 12.3956C287.919 12.4888 287.906 12.5404 287.946 12.5698C288.046 12.641 288.186 12.6704 288.33 12.6606C288.556 12.6434 288.778 12.6189 289.004 12.6042C289.067 12.5993 289.144 12.6165 289.202 12.6361C289.699 12.7883 289.704 12.7981 290.233 12.7392C290.4 12.722 290.522 12.722 290.653 12.7686C290.834 12.8324 290.965 12.9404 291.24 12.9061C291.606 12.8594 291.981 12.8324 292.356 12.8054C292.415 12.8005 292.478 12.8447 292.546 12.8643C292.731 12.9233 292.867 13.0337 293.143 12.9871C293.355 12.9502 293.585 12.9404 293.811 12.933C293.87 12.9306 293.96 12.9699 293.987 13.0018C294.042 13.0582 293.974 13.1245 293.82 13.1711C293.757 13.1908 293.671 13.1859 293.599 13.1932C293.301 13.2202 293.002 13.2497 292.704 13.2717C292.546 13.284 292.397 13.3208 292.379 13.4117C292.365 13.473 292.528 13.527 292.682 13.5221C292.908 13.5147 293.133 13.4951 293.35 13.4632C293.734 13.4092 294.069 13.4239 294.381 13.5785C294.602 13.6865 294.588 13.6473 294.823 13.9663C294.882 14.0473 295.058 14.0547 295.212 14.0498C295.583 14.0375 295.754 14.0743 295.723 14.1504C295.682 14.2437 295.551 14.2731 295.384 14.2854C295.085 14.305 294.787 14.3369 294.489 14.3639C294.417 14.3713 294.335 14.386 294.268 14.3811C294.2 14.3762 294.137 14.3467 294.078 14.3246C293.951 14.278 293.843 14.2068 293.707 14.1897C293.572 14.1725 293.414 14.2093 293.265 14.224C293.115 14.2363 292.957 14.2731 292.822 14.2559C292.686 14.2387 292.573 14.1651 292.451 14.121C292.392 14.0989 292.32 14.0645 292.261 14.0669C291.963 14.0866 291.665 14.1185 291.367 14.143C291.001 14.1749 291.001 14.1749 290.558 14.0228C290.431 13.9786 290.3 13.9811 290.133 14.0007C289.772 14.04 289.767 14.0326 289.108 13.8902C289.044 13.8755 288.967 13.8583 288.904 13.8657C288.231 13.9221 287.562 13.9835 286.893 14.0424C286.32 14.0939 286.32 14.094 286.003 14.3394C285.768 14.521 285.764 14.521 285.994 14.6044C286.179 14.6732 286.347 14.7738 286.55 14.8106C286.74 14.845 286.975 14.7345 287.183 14.8474C287.287 14.9039 287.422 14.9652 287.553 14.975C287.761 14.9873 287.982 14.9161 288.181 15.0241C288.281 15.0781 288.43 15.1346 288.556 15.137C288.778 15.1419 289.004 15.1027 289.225 15.0855C289.293 15.0806 289.37 15.0806 289.433 15.0928C289.501 15.1076 289.559 15.137 289.618 15.1616C289.799 15.245 289.993 15.2843 290.228 15.2426C290.612 15.1738 290.956 15.2082 291.254 15.3653C291.294 15.3874 291.394 15.3898 291.457 15.38C291.62 15.3555 291.76 15.353 291.882 15.3996C291.932 15.4193 292.004 15.4536 291.995 15.4757C291.981 15.5125 291.927 15.5616 291.868 15.5739C291.444 15.6573 290.987 15.6672 290.549 15.7113C290.49 15.7162 290.418 15.6843 290.359 15.6622C290.233 15.6181 290.124 15.5444 289.989 15.5273C289.853 15.5101 289.695 15.542 289.546 15.5543C289.397 15.5665 289.239 15.6033 289.103 15.5886C288.967 15.5714 288.841 15.5101 288.732 15.4561C288.606 15.3947 288.484 15.3874 288.317 15.4119C288.1 15.4438 287.874 15.4487 287.653 15.4659C287.531 15.4193 287.409 15.3677 287.282 15.3235C287.223 15.3015 287.151 15.2745 287.088 15.2769C286.79 15.2966 286.491 15.326 286.193 15.353C285.895 15.38 285.895 15.38 285.389 15.2278C285.33 15.2107 285.253 15.191 285.19 15.1959C284.815 15.2254 284.444 15.2622 284.069 15.2916C283.925 15.3039 283.794 15.2695 283.676 15.2033C283.563 15.137 283.428 15.1002 283.288 15.1125C282.691 15.164 282.095 15.2131 281.498 15.2745C281.259 15.299 281.055 15.2769 280.893 15.1886C280.703 15.0879 280.491 15.1125 280.269 15.1321C279.768 15.1812 279.763 15.1787 279.442 15.0536C279.379 15.029 279.316 14.9824 279.257 14.9848C278.738 15.0217 278.213 15.056 277.698 15.1149C277.427 15.1468 277.283 15.0609 277.102 14.9971C277.039 14.975 276.971 14.9284 276.917 14.9333C276.542 14.9603 276.166 14.9849 275.8 15.0339C275.434 15.083 275.294 14.8548 275.019 14.8572C274.644 14.8597 274.273 14.9161 273.903 14.9505C273.604 14.9775 273.306 15.0045 273.008 15.0315C272.71 15.0585 272.412 15.0806 272.113 15.1125C271.955 15.1297 271.838 15.1076 271.707 15.0462C271.54 14.9652 271.341 14.9014 271.16 14.8278C270.884 14.7223 270.884 14.7222 270.55 14.7517C270.478 14.7591 270.401 14.764 270.329 14.7713C269.782 14.8253 269.782 14.8204 269.086 14.6658C269.054 14.6584 268.973 14.6854 268.941 14.7051C268.846 14.7689 268.761 14.8376 268.675 14.9039C268.553 14.8646 268.404 14.8425 268.322 14.7861C268.092 14.6265 267.73 14.845 267.495 14.6879C267.41 14.629 267.26 14.5774 267.125 14.5627C266.985 14.548 266.827 14.5823 266.682 14.5971C266.307 14.6339 266.307 14.6314 265.986 14.8499C265.824 14.9579 265.589 14.9382 265.376 14.9628C265.155 14.9898 264.943 15.0045 264.757 14.9039C264.59 14.8131 264.387 14.791 264.147 14.8204C263.854 14.8572 263.551 14.8793 263.253 14.9014C263.189 14.9063 263.112 14.8941 263.049 14.8793C262.358 14.7345 262.358 14.7321 262.024 14.764C261.874 14.7787 261.721 14.7836 261.576 14.8057C261.332 14.845 261.147 14.7934 260.971 14.7149C260.912 14.6903 260.844 14.6437 260.785 14.6462C260.487 14.6584 260.194 14.6805 259.9 14.7026C259.674 14.7198 259.448 14.7296 259.231 14.764C258.87 14.8204 258.693 14.6609 258.445 14.5872C258.074 14.6192 257.699 14.6412 257.329 14.6854C257.157 14.7051 257.044 14.6977 256.913 14.6388C256.746 14.5652 256.592 14.4817 256.321 14.5185C255.96 14.5676 255.58 14.5848 255.21 14.6143C254.961 14.5382 254.78 14.3835 254.423 14.44C254.207 14.4744 253.976 14.4817 253.755 14.5014C253.457 14.5283 253.158 14.5529 252.86 14.5824C252.539 14.6118 252.544 14.6045 252.051 14.4596C251.767 14.3737 251.473 14.4695 251.184 14.4842C250.958 14.4965 250.845 14.6093 250.899 14.7542C250.953 14.899 250.831 15.0119 250.623 15.0315C250.104 15.0781 249.58 15.1272 249.06 15.1689C248.997 15.1738 248.92 15.1566 248.861 15.1395C248.305 14.9848 248.305 14.9873 248.057 15.0094C247.686 15.0462 247.307 15.0658 246.941 15.1125C246.688 15.1444 246.502 15.0929 246.34 15.0094C246.213 14.9456 246.096 14.9309 245.933 14.9456C244.144 15.11 242.354 15.2622 240.57 15.4315C240.303 15.4561 240.15 15.3849 239.969 15.3187C239.906 15.2966 239.847 15.2499 239.783 15.2499C239.634 15.2499 239.485 15.272 239.336 15.2867C238.667 15.3457 237.999 15.4168 237.325 15.461C237.041 15.4806 236.964 15.5935 236.842 15.6868C236.747 15.758 236.639 15.7874 236.471 15.7972C236.309 15.807 236.191 15.7948 236.065 15.731C235.902 15.6475 235.717 15.596 235.464 15.6303C235.17 15.6696 234.872 15.6868 234.569 15.7138C234.415 15.7261 234.298 15.7702 234.248 15.8586C234.239 15.8733 234.334 15.9101 234.388 15.9322C234.569 16.0059 234.741 16.0918 234.944 16.1433C235.152 16.1948 235.378 16.1359 235.595 16.1212C235.672 16.1163 235.744 16.1016 235.816 16.104C235.884 16.1065 235.965 16.1188 236.015 16.1408C236.25 16.2513 236.498 16.3274 236.824 16.2611C237.104 16.293 237.249 16.4967 237.606 16.4427C237.823 16.4108 238.048 16.3961 238.274 16.3838C238.333 16.3814 238.396 16.4255 238.46 16.4476C238.64 16.509 238.785 16.6072 239.056 16.5654C239.345 16.5213 239.652 16.5139 239.946 16.4795C240.109 16.4599 240.226 16.4771 240.353 16.5409C240.515 16.6219 240.701 16.6832 240.954 16.644C241.171 16.6096 241.401 16.6022 241.623 16.5801C241.912 16.5531 241.912 16.5556 242.427 16.7078C242.486 16.725 242.562 16.7446 242.626 16.7397C243.001 16.7102 243.371 16.6734 243.746 16.644C243.891 16.6317 244.031 16.6636 244.13 16.7348C244.171 16.7642 244.157 16.8133 244.171 16.8551C243.425 16.9213 242.68 16.9778 241.939 17.0588C241.659 17.0907 241.532 16.99 241.347 16.9336C241.284 16.9139 241.216 16.8722 241.157 16.8771C240.633 16.9189 240.113 16.963 239.594 17.017C239.431 17.0342 239.309 17.0244 239.187 16.9532C238.875 16.7642 238.496 16.8673 238.143 16.8943C237.872 16.9139 237.786 16.99 237.818 17.152C237.859 17.3435 238.021 17.4024 238.437 17.368C238.586 17.3557 238.735 17.3385 238.884 17.3287C239.029 17.3189 239.16 17.3508 239.277 17.4171C239.39 17.4833 239.526 17.5177 239.666 17.5079C239.964 17.4858 240.267 17.4637 240.556 17.4269C240.796 17.3974 240.994 17.422 241.162 17.5128C241.347 17.6134 241.564 17.5913 241.781 17.5692C242.287 17.5201 242.291 17.5226 242.608 17.6453C242.671 17.6699 242.734 17.7165 242.793 17.7141C243.312 17.6772 243.837 17.6453 244.347 17.5864C244.614 17.557 244.767 17.6355 244.944 17.6993C245.007 17.7214 245.07 17.7705 245.129 17.7656C245.504 17.7386 245.879 17.7116 246.245 17.665C246.417 17.6429 246.521 17.6576 246.661 17.7165C246.995 17.8613 247.004 17.8564 247.478 17.8098C247.623 17.795 247.781 17.768 247.917 17.7877C248.052 17.8073 248.161 17.8785 248.287 17.9227C248.346 17.9423 248.418 17.9693 248.482 17.9644C248.78 17.9447 249.078 17.9153 249.376 17.8883C249.656 17.8613 249.656 17.8638 250.181 18.0159C250.393 18.0797 250.614 18.0257 250.827 18.0061C251.057 17.984 251.265 17.984 251.441 18.0798C251.617 18.1755 251.83 18.1705 252.056 18.1509C252.268 18.1313 252.485 18.0773 252.702 18.1436C253.199 18.2957 253.199 18.2982 253.506 18.2687C253.954 18.227 254.396 18.1877 254.848 18.1509C254.907 18.146 254.984 18.1755 255.042 18.1951C255.169 18.2393 255.277 18.3129 255.413 18.3301C255.549 18.3497 255.707 18.3203 255.851 18.3055C256.317 18.2589 256.348 18.2417 256.66 18.4037C256.922 18.5362 257.248 18.3448 257.492 18.497C257.632 18.5829 257.821 18.6516 258.083 18.6099C258.3 18.5755 258.526 18.5657 258.752 18.546C259.109 18.5141 259.109 18.5166 259.561 18.6639C259.62 18.6835 259.696 18.708 259.755 18.7031C260.053 18.6835 260.356 18.6663 260.645 18.6221C260.984 18.5706 261.201 18.6639 261.454 18.7547C261.653 18.8259 261.888 18.7669 262.1 18.7424C262.331 18.7179 262.539 18.7252 262.71 18.8209C262.891 18.9191 263.104 18.9068 263.329 18.8872C263.542 18.87 263.759 18.8136 263.976 18.8823C264.441 19.0345 264.441 19.0345 264.78 19.005C265.078 18.978 265.376 18.9486 265.674 18.9289C265.733 18.924 265.806 18.9559 265.864 18.978C265.991 19.0222 266.099 19.0958 266.235 19.113C266.37 19.1302 266.529 19.0983 266.678 19.086C266.827 19.0737 266.985 19.0369 267.12 19.0516C267.256 19.0664 267.383 19.1277 267.491 19.1817C267.617 19.2455 267.735 19.2529 267.907 19.2283C268.124 19.1964 268.349 19.1891 268.571 19.1719C268.693 19.2185 268.819 19.2652 268.937 19.3167C269.059 19.3707 269.19 19.3658 269.357 19.3486C269.913 19.2897 269.917 19.2971 270.383 19.4492C270.595 19.518 270.817 19.4615 271.029 19.4443C271.255 19.4247 271.467 19.4149 271.643 19.5131C271.815 19.6063 272.028 19.6186 272.253 19.5891C272.398 19.5695 272.552 19.5572 272.701 19.5499C272.769 19.5474 272.85 19.5572 272.9 19.5769C273.139 19.68 273.374 19.7732 273.704 19.707C273.993 19.7266 274.138 19.9278 274.486 19.8886C274.779 19.8542 275.087 19.8468 275.376 19.8026C275.642 19.7634 275.832 19.8321 275.968 19.918C276.212 20.0702 276.555 19.864 276.799 20.0137C276.939 20.0996 277.12 20.1684 277.391 20.1315C277.689 20.0923 277.784 20.1438 277.87 20.2984C277.92 20.3868 277.911 20.458 277.82 20.5267C277.73 20.5979 277.631 20.5856 277.486 20.5046C277.319 20.4138 277.12 20.3966 276.88 20.4162C276.645 20.4359 276.501 20.3083 276.307 20.2592C276.112 20.2076 275.882 20.2935 275.679 20.2273C275.2 20.0726 275.2 20.0726 274.874 20.1021C274.653 20.1217 274.422 20.1315 274.206 20.1659C273.948 20.2076 273.781 20.1315 273.605 20.0628C273.541 20.0383 273.478 19.9916 273.424 19.9941C272.904 20.0309 272.38 20.0653 271.865 20.1266C271.594 20.1585 271.449 20.0702 271.268 20.0088C271.205 19.9867 271.137 19.9426 271.083 19.9475C270.636 19.9818 270.193 20.026 269.746 20.0677C269.66 20.134 269.565 20.1978 269.484 20.269C269.398 20.3426 269.28 20.3745 269.109 20.3721C268.824 20.3721 268.544 20.4751 268.259 20.3451C267.965 20.2125 267.943 20.2199 267.658 20.2518C267.297 20.2935 266.913 20.2837 266.574 20.3794C266.515 20.3966 266.452 20.4432 266.452 20.4776C266.447 20.4997 266.542 20.5316 266.601 20.5512C266.8 20.6101 267.03 20.5242 267.229 20.5856C267.36 20.6249 267.468 20.6837 267.599 20.7255C267.654 20.7426 267.735 20.7402 267.807 20.7378C267.884 20.7353 267.956 20.7181 268.029 20.7206C268.096 20.723 268.169 20.7377 268.223 20.7598C268.472 20.8531 268.734 20.939 268.955 21.0495C269.172 21.1574 269.375 21.0838 269.592 21.0789C270.46 21.2507 270.46 21.2532 271.043 21.1992C271.187 21.1869 271.336 21.1722 271.485 21.1746C271.549 21.1746 271.607 21.2188 271.671 21.2433C271.851 21.317 272.023 21.3832 272.276 21.344C272.493 21.3096 272.723 21.3022 272.945 21.2801C273.243 21.2531 273.243 21.2532 273.749 21.4078C273.876 21.447 274.011 21.4421 274.174 21.4225C274.314 21.4053 274.458 21.4421 274.558 21.5133C274.599 21.5428 274.585 21.5919 274.599 21.6336C274.151 21.6728 273.699 21.6999 273.266 21.7588C272.985 21.7956 272.859 21.69 272.674 21.6336C272.61 21.6139 272.543 21.5722 272.484 21.5771C272.041 21.614 271.598 21.6556 271.156 21.7047C271.101 21.7096 271.034 21.7661 271.029 21.8005C271.02 21.8643 271.133 21.9256 271.296 21.9232C271.512 21.9207 271.725 21.879 271.919 21.9796C272.082 22.068 272.285 22.1073 272.525 22.068C272.669 22.0459 272.823 22.0459 272.967 22.0263C273.352 21.9674 273.699 21.9796 273.989 22.1465C274.21 22.1907 274.427 22.149 274.639 22.1269C274.797 22.1097 274.951 22.0925 275.064 22.1392C275.303 22.2373 275.538 22.3355 275.868 22.2692C276.225 22.338 276.496 22.4828 276.795 22.6006C276.935 22.657 277.043 22.6889 277.206 22.6521C277.274 22.6374 277.355 22.6374 277.427 22.63C277.576 22.6177 277.734 22.5809 277.87 22.5956C278.005 22.6128 278.118 22.684 278.241 22.7282C278.299 22.7503 278.367 22.7871 278.426 22.7846C278.652 22.7724 278.873 22.7478 279.094 22.7282C279.316 22.711 279.537 22.6938 279.759 22.6767C279.944 22.7405 280.134 22.8043 280.319 22.8681C280.617 22.8411 280.915 22.8141 281.209 22.7896C281.539 22.7601 281.539 22.7626 282.013 22.9147C282.226 22.9834 282.452 22.9393 282.655 22.9074C282.994 22.8558 283.22 22.9491 283.459 23.0473C283.509 23.0669 283.599 23.0792 283.658 23.0693C283.893 23.035 284.096 23.062 284.268 23.1528C284.39 23.2166 284.512 23.2461 284.661 23.2338C285.181 23.1872 285.701 23.1381 286.22 23.0963C286.283 23.0914 286.356 23.1135 286.414 23.1332C286.875 23.2829 286.88 23.2902 287.219 23.251C287.521 23.2166 287.802 23.2019 288.041 23.3369C288.091 23.3663 288.168 23.408 288.222 23.4056C288.592 23.381 288.967 23.354 289.333 23.3123C289.501 23.2927 289.618 23.3001 289.749 23.3565C289.916 23.4277 290.065 23.5136 290.341 23.4817C291.105 23.3909 291.109 23.4056 292.013 23.5749C292.076 23.5872 292.162 23.5676 292.234 23.5577C292.388 23.5332 292.501 23.5676 292.636 23.624C292.939 23.7516 292.948 23.7443 293.237 23.7173C293.459 23.6952 293.689 23.6903 293.906 23.6535C294.24 23.5995 294.462 23.6952 294.71 23.786C294.909 23.8572 295.14 23.7983 295.352 23.7762C295.582 23.7516 295.79 23.759 295.962 23.8523C296.08 23.9161 296.206 23.9505 296.355 23.9382C296.875 23.894 297.394 23.8449 297.914 23.8007C297.977 23.7958 298.054 23.8155 298.113 23.8326C298.628 23.9848 298.628 23.9922 299.139 23.9357C299.301 23.9185 299.437 23.9136 299.559 23.9652C299.676 24.0143 299.803 24.0609 299.925 24.1075C300.146 24.0903 300.372 24.0854 300.589 24.056C300.756 24.0339 300.874 24.0437 301.005 24.0953C301.176 24.1615 301.321 24.2768 301.592 24.2204C301.732 24.1934 301.895 24.2008 302.035 24.1762C302.202 24.1443 302.315 24.164 302.446 24.2278C302.609 24.3039 302.776 24.3824 303.038 24.3431C303.327 24.2989 303.634 24.2916 303.928 24.2572C304.091 24.2376 304.204 24.2572 304.335 24.321C304.498 24.402 304.683 24.4536 304.936 24.4217C305.451 24.3603 305.455 24.3726 305.957 24.5272C306.083 24.5665 306.219 24.5616 306.382 24.5419C306.522 24.5247 306.666 24.5616 306.766 24.6327C306.861 24.7113 306.852 24.7603 306.861 24.8021ZM266.596 2.66669C266.447 2.67896 266.298 2.69369 266.081 2.48016C266.068 2.44335 266.077 2.39918 266.045 2.36727C265.973 2.30101 265.86 2.25438 265.724 2.24702C265.48 2.2372 265.186 2.32063 265.191 2.38444C265.196 2.43844 265.272 2.48506 265.421 2.52924C265.485 2.54642 265.534 2.57587 265.593 2.59551C265.765 2.65196 265.9 2.76242 266.149 2.70597C266.104 2.5538 266.126 2.62989 266.149 2.70597C266.126 2.79923 266.194 2.8655 266.357 2.8925C266.402 2.89986 266.47 2.89494 266.506 2.88022C266.646 2.82622 266.669 2.75261 266.565 2.55872C266.547 2.59062 266.56 2.64705 266.601 2.66178C266.641 2.6765 266.741 2.66425 266.791 2.64707C266.917 2.60044 266.98 2.53907 266.949 2.48753C266.931 2.46054 266.845 2.42617 266.791 2.42617C266.696 2.42617 266.61 2.48017 266.596 2.66669ZM303.133 31.1293C302.803 31.1759 302.424 31.1587 302.094 31.2545C302.035 31.2716 301.976 31.3158 301.972 31.3502C301.967 31.3723 302.058 31.4042 302.112 31.4214C302.234 31.4606 302.369 31.4483 302.527 31.4361C302.767 31.4189 302.907 31.5318 303.092 31.5882C303.151 31.6054 303.228 31.6177 303.291 31.6128C303.657 31.5833 304.018 31.5514 304.384 31.5171C304.448 31.5097 304.516 31.4925 304.57 31.4704C304.751 31.3993 304.732 31.3526 304.556 31.2986C304.362 31.2397 304.208 31.1415 304.01 31.0949C303.725 31.0287 303.436 31.117 303.133 31.1293ZM277.472 32.9209C277.251 32.9406 277.034 32.9602 276.813 32.9798C276.74 32.9872 276.663 32.9896 276.596 32.9995C276.456 33.0166 276.352 33.0682 276.284 33.1492C276.388 33.213 276.514 33.2498 276.655 33.2424C276.876 33.2277 277.093 33.1958 277.314 33.1884C277.554 33.1786 277.694 33.2891 277.879 33.3455C277.938 33.3627 278.01 33.3652 278.078 33.3676C278.412 33.3774 278.616 33.2498 278.552 33.0706C278.507 32.9307 278.335 32.8473 278.128 32.8645C277.911 32.8817 277.689 32.9013 277.472 32.9209ZM304.678 27.5018C304.732 27.4601 304.791 27.4306 304.818 27.3938C304.9 27.2687 304.868 27.1754 304.719 27.0772C304.538 26.957 304.317 27.038 304.113 27.0502C304.064 27.0527 304.01 27.1042 303.982 27.1361C303.964 27.1582 303.964 27.2049 303.991 27.2171C304.213 27.3153 304.448 27.4061 304.678 27.5018ZM265.48 20.2518C265.263 20.2714 265.042 20.2862 264.825 20.3132C264.771 20.3205 264.721 20.3672 264.69 20.3991C264.631 20.458 264.694 20.5389 264.879 20.5463C265.092 20.5561 265.313 20.5144 265.534 20.4948C265.815 20.4702 265.982 20.3794 265.878 20.3009C265.778 20.2248 265.643 20.2101 265.48 20.2518ZM27.6306 15.007C27.7752 14.9947 27.9243 14.9849 28.0689 14.9677C28.2044 14.9505 28.3085 14.8965 28.3762 14.8155C28.2633 14.7517 28.1367 14.7173 27.9966 14.7247C27.7752 14.7394 27.5584 14.7591 27.3415 14.7836C27.2059 14.7983 27.0749 14.8523 27.0433 14.9358C27.0117 14.9996 27.3143 15.0364 27.6306 15.007ZM246.371 14.629C246.43 14.6511 246.489 14.6953 246.548 14.6953C246.692 14.6953 246.841 14.6805 246.977 14.656C247.036 14.6462 247.081 14.602 247.108 14.5676C247.126 14.5455 247.122 14.5063 247.094 14.4866C246.963 14.3688 246.439 14.4106 246.353 14.5455C246.344 14.5701 246.367 14.602 246.371 14.629ZM232.116 1.18919C232.129 1.22846 232.134 1.26773 232.152 1.307C232.188 1.38063 232.287 1.43463 232.432 1.47145C232.545 1.41009 232.604 1.34138 232.599 1.26775C232.595 1.22848 232.581 1.18919 232.563 1.14992C232.527 1.07629 232.427 1.02231 232.283 0.985498C232.17 1.0444 232.116 1.11311 232.116 1.18919ZM315.12 33.348C315.08 33.3799 315.039 33.4118 314.994 33.4412C315.116 33.5124 315.229 33.5345 315.315 33.4952C315.369 33.4707 315.401 33.4339 315.441 33.402C315.319 33.3308 315.211 33.3112 315.12 33.348ZM312.31 33.6818C312.369 33.7039 312.423 33.7333 312.486 33.748C312.59 33.7726 312.685 33.7308 312.757 33.6425C312.699 33.6204 312.644 33.5909 312.581 33.5762C312.477 33.5517 312.382 33.5934 312.31 33.6818ZM314.09 33.2326C314.059 33.2915 314.122 33.3406 314.289 33.3823C314.33 33.3504 314.384 33.321 314.411 33.2866C314.456 33.2302 314.379 33.1786 314.217 33.1394C314.172 33.1688 314.131 33.2007 314.09 33.2326ZM304.552 30.5869C304.52 30.6458 304.583 30.6949 304.751 30.7366C304.791 30.7047 304.845 30.6752 304.873 30.6409C304.918 30.5844 304.841 30.5329 304.678 30.4936C304.633 30.5231 304.592 30.555 304.552 30.5869ZM291.557 13.2202C291.516 13.2521 291.475 13.284 291.43 13.3135C291.552 13.3847 291.665 13.4067 291.751 13.3675C291.805 13.3429 291.837 13.3061 291.877 13.2742C291.755 13.203 291.647 13.1834 291.557 13.2202ZM279.108 4.00673C279.216 4.02391 279.307 3.98957 279.384 3.89876C279.325 3.87667 279.271 3.84721 279.207 3.83249C279.103 3.80795 279.009 3.84968 278.936 3.93804C278.995 3.96258 279.054 3.98465 279.108 4.00673ZM272.497 3.42998C272.457 3.46188 272.416 3.49379 272.371 3.52324C272.493 3.59442 272.606 3.6165 272.692 3.57723C272.746 3.55269 272.778 3.51587 272.818 3.48397C272.696 3.41279 272.588 3.39562 272.497 3.42998ZM227.669 1.18674C227.629 1.21864 227.588 1.25055 227.543 1.28C227.665 1.35118 227.778 1.37326 227.864 1.33399C227.918 1.30945 227.95 1.27263 227.99 1.24073C227.868 1.16955 227.76 1.15238 227.669 1.18674ZM4.45971 21.155C4.40097 21.1329 4.34228 21.1108 4.28806 21.0863C4.15702 21.1525 4.11637 21.2139 4.18866 21.2605C4.23385 21.29 4.30157 21.3072 4.36031 21.3293C4.49587 21.263 4.52748 21.2041 4.45971 21.155Z" fill="#5B2AE9"/>
</svg>
