<svg width="760" height="401" viewBox="0 0 760 401" fill="none" xmlns="http://www.w3.org/2000/svg">
<path d="M679.868 316.868C679.868 151.255 545.613 17 380 17C214.388 17 80.1328 151.255 80.1328 316.868" stroke="#A7CEFC" stroke-width="2" stroke-dasharray="15 15"/>
<line x1="78.5078" y1="315.367" x2="679.868" y2="315.367" stroke="#A7CEFC" stroke-width="3" stroke-dasharray="15 15"/>
<line x1="200.812" y1="75.4536" x2="326.773" y2="250.986" stroke="#A7CEFC" stroke-width="3" stroke-dasharray="15 15"/>
<line x1="581.473" y1="94.4154" x2="456.755" y2="251.975" stroke="#A7CEFC" stroke-width="3" stroke-dasharray="15 15"/>
<rect x="324.617" y="250.109" width="133.525" height="133.525" rx="8.5" stroke="#A7CEFC" stroke-width="3" stroke-dasharray="15 15"/>
<g filter="url(#filter0_d_2154_35880)">
<rect x="350.742" y="276.234" width="81.2649" height="81.2649" rx="10" fill="#262242"/>
</g>
<g filter="url(#filter1_d_2154_35880)">
<rect x="39.5" y="276.234" width="81.2649" height="81.2649" rx="10" fill="#262242"/>
</g>
<path d="M78.3048 320C77.9147 320 77.5246 319.851 77.2275 319.553C76.6325 318.958 76.6325 317.994 77.2275 317.399L87.1019 307.524C87.6962 306.929 88.6622 306.929 89.2565 307.524C89.8515 308.119 89.8515 309.084 89.2565 309.679L79.382 319.553C79.0849 319.851 78.6948 320 78.3048 320Z" fill="#FFE492"/>
<path d="M78.3062 320.001C77.9161 320.001 77.5268 319.852 77.2289 319.555L72.2509 314.577C71.6559 313.982 71.6559 313.018 72.2509 312.423C72.8452 311.828 73.8105 311.828 74.4055 312.423L79.3835 317.4C79.9785 317.995 79.9785 318.96 79.3835 319.555C79.0863 319.852 78.6963 320.001 78.3062 320.001Z" fill="#FFE492"/>
<path d="M80.1281 335.87C79.9696 335.87 79.8088 335.845 79.6504 335.793C69.9108 332.58 63.3672 323.531 63.3672 313.274C63.3672 312.433 64.0498 311.75 64.8909 311.75C65.732 311.75 66.4146 312.433 66.4146 313.274C66.4146 322.212 72.1171 330.099 80.605 332.898C81.4042 333.162 81.8384 334.024 81.5748 334.823C81.3638 335.464 80.768 335.87 80.1281 335.87Z" fill="#FFE492"/>
<path d="M64.8909 314.796C64.0498 314.796 63.3672 314.113 63.3672 313.272V302.492C63.3672 301.651 64.0498 300.969 64.8909 300.969C65.732 300.969 66.4146 301.651 66.4146 302.492V313.272C66.4146 314.114 65.732 314.796 64.8909 314.796Z" fill="#FFE492"/>
<path d="M64.8896 304.015C64.1415 304.015 63.4885 303.463 63.3819 302.701C63.2661 301.867 63.8474 301.098 64.6816 300.982C69.8287 300.267 74.7968 298.728 79.4487 296.41C80.2022 296.035 81.1172 296.341 81.492 297.094C81.8676 297.848 81.5606 298.762 80.8079 299.138C75.8596 301.603 70.5753 303.239 65.1006 304.001C65.0298 304.01 64.9589 304.015 64.8896 304.015Z" fill="#FFE492"/>
<path d="M80.1332 335.87C79.494 335.87 78.8975 335.464 78.6865 334.823C78.4229 334.024 78.8571 333.162 79.6563 332.898C88.1442 330.099 93.8467 322.213 93.8467 313.274C93.8467 312.433 94.5293 311.75 95.3704 311.75C96.2115 311.75 96.8941 312.433 96.8941 313.274C96.8941 323.53 90.3505 332.58 80.6102 335.793C80.4517 335.845 80.2917 335.87 80.1332 335.87Z" fill="#FFE492"/>
<path d="M95.3675 314.796C94.5264 314.796 93.8438 314.113 93.8438 313.272V302.492C93.8438 301.651 94.5264 300.969 95.3675 300.969C96.2086 300.969 96.8912 301.651 96.8912 302.492V313.272C96.8912 314.114 96.2086 314.796 95.3675 314.796Z" fill="#FFE492"/>
<path d="M95.3729 304.015C95.3028 304.015 95.2319 304.01 95.1611 304.001C89.6864 303.239 84.4021 301.603 79.4538 299.138C78.7011 298.762 78.3941 297.848 78.7697 297.094C79.1445 296.341 80.0595 296.035 80.813 296.41C85.4649 298.728 90.433 300.267 95.5801 300.982C96.4136 301.098 96.9956 301.868 96.8798 302.701C96.7747 303.463 96.1218 304.015 95.3729 304.015Z" fill="#FFE492"/>
<g filter="url(#filter2_d_2154_35880)">
<rect x="639.234" y="276.234" width="81.2649" height="81.2649" rx="10" fill="#221C3E"/>
</g>
<g clip-path="url(#clip0_2154_35880)">
<path d="M693.578 310.396H690.146V302.565C690.146 297.011 685.533 292.492 679.861 292.492C674.19 292.492 669.576 297.011 669.576 302.565V310.396H666.151C663.001 310.396 660.438 312.959 660.438 316.11V335.537C660.438 338.688 663.001 341.251 666.151 341.251H693.578C696.729 341.251 699.292 338.688 699.292 335.537V316.11C699.292 312.959 696.729 310.396 693.578 310.396ZM673.386 302.565C673.386 299.111 676.291 296.301 679.861 296.301C683.432 296.301 686.337 299.111 686.337 302.565V310.396H673.386V302.565ZM695.483 335.537C695.483 336.587 694.629 337.442 693.578 337.442H666.151C665.101 337.442 664.247 336.587 664.247 335.537V316.11C664.247 315.06 665.101 314.205 666.151 314.205H693.578C694.629 314.205 695.483 315.06 695.483 316.11V335.537Z" fill="#4F9CF9"/>
<path d="M679.867 319.727C677.921 319.727 676.344 321.304 676.344 323.25C676.344 324.493 676.988 325.584 677.959 326.212V330.393C677.959 331.444 678.812 332.297 679.864 332.297C680.916 332.297 681.768 331.444 681.768 330.393V326.216C682.744 325.59 683.391 324.496 683.391 323.25C683.391 321.304 681.813 319.727 679.867 319.727Z" fill="#4F9CF9"/>
</g>
<g filter="url(#filter3_d_2154_35880)">
<rect x="539.281" y="35.6953" width="81.2649" height="81.2649" rx="10" fill="#262242"/>
</g>
<g clip-path="url(#clip1_2154_35880)">
<path d="M572.207 51.9453C562.38 51.9453 555.531 55.3579 555.531 58.4208C555.531 61.4836 562.38 64.8962 572.207 64.8962C582.034 64.8962 588.883 61.4835 588.883 58.4208C588.883 55.358 582.035 51.9453 572.207 51.9453Z" fill="#FFE492"/>
<path d="M555.531 88.1719V94.2284C555.531 97.2912 562.38 100.704 572.207 100.704C576.612 100.704 580.769 100.01 583.913 98.7504C585.963 97.9294 587.48 96.9111 588.269 95.8529C586.782 94.6893 585.065 93.0163 583.569 90.7081C580.276 91.7624 576.384 92.3157 572.207 92.3157C566.952 92.3157 562.036 91.4104 558.365 89.7664C557.294 89.287 556.347 88.7526 555.531 88.1719V88.1719Z" fill="#FFE492"/>
<path d="M555.531 76.2656L555.531 82.2395C555.531 85.3023 562.38 88.7149 572.207 88.7149C575.692 88.7149 579.037 88.2778 581.838 87.4691C580.822 85.1204 580.165 82.5276 579.876 79.7219C577.479 80.1726 574.868 80.4078 572.207 80.4078C566.918 80.4078 561.979 79.4923 558.3 77.8298C557.256 77.3578 556.33 76.8338 555.531 76.2656Z" fill="#FFE492"/>
<path d="M555.531 64.3516V70.3295C555.531 73.3923 562.38 76.805 572.207 76.805C574.836 76.805 577.398 76.5573 579.704 76.084C579.708 75.5179 579.877 74.0446 581.241 73.6701C583.39 73.08 584.894 71.6635 585.027 69.7205C585.082 68.9205 586.083 67.7996 586.829 67.8107H588.883V64.3516C588.084 64.9197 587.159 65.4438 586.115 65.9163C582.431 67.5829 577.492 68.5008 572.207 68.5008C566.923 68.5008 561.984 67.5829 558.3 65.9163C557.255 65.4438 556.33 64.9197 555.531 64.3516V64.3516Z" fill="#FFE492"/>
<path d="M599.182 71.4141H588.434C587.833 73.9128 585.911 75.9626 583.312 76.8564C583.515 88.8504 590.409 93.4239 593.448 94.8578C593.622 94.9397 593.828 94.9309 593.999 94.8345C597.051 93.115 603.969 87.9969 604.291 76.8523C601.699 75.9564 599.782 73.909 599.182 71.4141ZM593.164 87.0333C592.434 87.7835 591.179 87.7424 590.5 86.946L587.075 82.9271L589.818 80.5904L591.959 83.103L597.933 76.959L600.517 79.4702L593.164 87.0333Z" fill="#FFE492"/>
</g>
<g filter="url(#filter4_d_2154_35880)">
<rect x="158.961" y="35.6953" width="81.2649" height="81.2649" rx="10" fill="#262242"/>
</g>
<g clip-path="url(#clip2_2154_35880)">
<path d="M217.749 56.5409C211.622 50.4134 201.651 50.4135 195.524 56.5409C191.339 60.726 189.886 66.8951 191.697 72.4907L174.004 90.1834C173.736 90.4513 173.586 90.8147 173.586 91.1936V99.2756C173.586 100.065 174.226 100.704 175.015 100.704H183.097C183.476 100.704 183.839 100.554 184.107 100.286L186.128 98.2649C186.436 97.9561 186.587 97.5233 186.537 97.0896L186.284 94.9199L189.292 94.6364C189.975 94.5721 190.516 94.0312 190.581 93.3482L190.864 90.34L193.034 90.5922C193.439 90.6395 193.845 90.5112 194.149 90.24C194.454 89.969 194.628 89.5807 194.628 89.173V86.5124H197.24C197.616 86.5124 197.977 86.3642 198.244 86.0998L201.794 82.5913C207.391 84.4055 213.563 82.9526 217.749 78.7661C223.877 72.6387 223.877 62.6684 217.749 56.5409ZM215.729 76.7458C212.123 80.3518 206.714 81.4773 201.948 79.6136C201.423 79.408 200.825 79.5312 200.424 79.9281L196.653 83.6551H193.199C192.41 83.6551 191.77 84.2948 191.77 85.0838V87.5687L189.744 87.3332C189.362 87.2889 188.979 87.4001 188.68 87.6418C188.381 87.8836 188.192 88.2355 188.156 88.6181L187.847 91.9026L184.562 92.2121C184.18 92.2482 183.828 92.4368 183.586 92.7356C183.344 93.0342 183.233 93.4178 183.277 93.7995L183.618 96.7331L182.505 97.847H176.443V91.7856L194.356 73.8726C194.757 73.4713 194.883 72.8705 194.676 72.342C192.813 67.5767 193.938 62.1677 197.544 58.5616C202.558 53.5482 210.715 53.5482 215.729 58.5616C220.742 63.5749 220.742 71.7324 215.729 76.7458Z" fill="#4F9CF9"/>
<path d="M213.705 60.5815C212.034 58.9103 209.315 58.9104 207.644 60.5815C205.973 62.2526 205.973 64.9718 207.644 66.643C209.315 68.3141 212.034 68.3143 213.705 66.643C215.377 64.9718 215.377 62.2526 213.705 60.5815ZM211.685 64.6225C211.128 65.1795 210.222 65.1796 209.665 64.6225C209.108 64.0655 209.108 63.1592 209.665 62.6021C210.223 62.0436 211.127 62.0436 211.685 62.6021C212.243 63.1605 212.243 64.0641 211.685 64.6225Z" fill="#4F9CF9"/>
</g>
<circle cx="382.44" cy="17.0024" r="13.0024" fill="#A7CEFC"/>
<circle cx="284.104" cy="194.159" r="13.0024" fill="#A7CEFC"/>
<circle cx="562.846" cy="316.87" r="13.0024" fill="#A7CEFC"/>
<g clip-path="url(#clip3_2154_35880)">
<path d="M364.5 300.181V309.262C364.5 312.028 367.954 313.504 370.065 311.567L380.141 302.486C382.348 300.504 380.908 297 377.886 297H367.81C365.987 297 364.5 298.429 364.5 300.181Z" fill="#5986EF"/>
<path d="M412.192 297H402.117C399.142 297 397.655 300.504 399.862 302.486L409.937 311.567C412.048 313.457 415.503 312.028 415.503 309.262V300.181C415.503 298.429 414.015 297 412.192 297Z" fill="#5986EF"/>
<path d="M392.279 319.173L409.935 335.123C412.046 337.013 415.5 335.584 415.5 332.818V323.644C415.5 322.769 415.116 321.939 414.444 321.339L392.279 301.286C390.984 300.134 389.016 300.134 387.721 301.286L365.556 321.339C364.884 321.939 364.5 322.769 364.5 323.644V332.818C364.5 335.584 367.954 337.059 370.065 335.123L387.721 319.173C389.016 318.02 390.984 318.02 392.279 319.173Z" fill="#5986EF"/>
</g>
<defs>
<filter id="filter0_d_2154_35880" x="311.742" y="241.234" width="159.266" height="159.266" filterUnits="userSpaceOnUse" color-interpolation-filters="sRGB">
<feFlood flood-opacity="0" result="BackgroundImageFix"/>
<feColorMatrix in="SourceAlpha" type="matrix" values="0 0 0 0 0 0 0 0 0 0 0 0 0 0 0 0 0 0 127 0" result="hardAlpha"/>
<feMorphology radius="11" operator="erode" in="SourceAlpha" result="effect1_dropShadow_2154_35880"/>
<feOffset dy="4"/>
<feGaussianBlur stdDeviation="25"/>
<feComposite in2="hardAlpha" operator="out"/>
<feColorMatrix type="matrix" values="0 0 0 0 0 0 0 0 0 0 0 0 0 0 0 0 0 0 0.2 0"/>
<feBlend mode="normal" in2="BackgroundImageFix" result="effect1_dropShadow_2154_35880"/>
<feBlend mode="normal" in="SourceGraphic" in2="effect1_dropShadow_2154_35880" result="shape"/>
</filter>
<filter id="filter1_d_2154_35880" x="0.5" y="241.234" width="159.266" height="159.266" filterUnits="userSpaceOnUse" color-interpolation-filters="sRGB">
<feFlood flood-opacity="0" result="BackgroundImageFix"/>
<feColorMatrix in="SourceAlpha" type="matrix" values="0 0 0 0 0 0 0 0 0 0 0 0 0 0 0 0 0 0 127 0" result="hardAlpha"/>
<feMorphology radius="11" operator="erode" in="SourceAlpha" result="effect1_dropShadow_2154_35880"/>
<feOffset dy="4"/>
<feGaussianBlur stdDeviation="25"/>
<feComposite in2="hardAlpha" operator="out"/>
<feColorMatrix type="matrix" values="0 0 0 0 0 0 0 0 0 0 0 0 0 0 0 0 0 0 0.2 0"/>
<feBlend mode="normal" in2="BackgroundImageFix" result="effect1_dropShadow_2154_35880"/>
<feBlend mode="normal" in="SourceGraphic" in2="effect1_dropShadow_2154_35880" result="shape"/>
</filter>
<filter id="filter2_d_2154_35880" x="600.234" y="241.234" width="159.266" height="159.266" filterUnits="userSpaceOnUse" color-interpolation-filters="sRGB">
<feFlood flood-opacity="0" result="BackgroundImageFix"/>
<feColorMatrix in="SourceAlpha" type="matrix" values="0 0 0 0 0 0 0 0 0 0 0 0 0 0 0 0 0 0 127 0" result="hardAlpha"/>
<feMorphology radius="11" operator="erode" in="SourceAlpha" result="effect1_dropShadow_2154_35880"/>
<feOffset dy="4"/>
<feGaussianBlur stdDeviation="25"/>
<feComposite in2="hardAlpha" operator="out"/>
<feColorMatrix type="matrix" values="0 0 0 0 0 0 0 0 0 0 0 0 0 0 0 0 0 0 0.2 0"/>
<feBlend mode="normal" in2="BackgroundImageFix" result="effect1_dropShadow_2154_35880"/>
<feBlend mode="normal" in="SourceGraphic" in2="effect1_dropShadow_2154_35880" result="shape"/>
</filter>
<filter id="filter3_d_2154_35880" x="500.281" y="0.695312" width="159.266" height="159.266" filterUnits="userSpaceOnUse" color-interpolation-filters="sRGB">
<feFlood flood-opacity="0" result="BackgroundImageFix"/>
<feColorMatrix in="SourceAlpha" type="matrix" values="0 0 0 0 0 0 0 0 0 0 0 0 0 0 0 0 0 0 127 0" result="hardAlpha"/>
<feMorphology radius="11" operator="erode" in="SourceAlpha" result="effect1_dropShadow_2154_35880"/>
<feOffset dy="4"/>
<feGaussianBlur stdDeviation="25"/>
<feComposite in2="hardAlpha" operator="out"/>
<feColorMatrix type="matrix" values="0 0 0 0 0 0 0 0 0 0 0 0 0 0 0 0 0 0 0.2 0"/>
<feBlend mode="normal" in2="BackgroundImageFix" result="effect1_dropShadow_2154_35880"/>
<feBlend mode="normal" in="SourceGraphic" in2="effect1_dropShadow_2154_35880" result="shape"/>
</filter>
<filter id="filter4_d_2154_35880" x="119.961" y="0.695312" width="159.266" height="159.266" filterUnits="userSpaceOnUse" color-interpolation-filters="sRGB">
<feFlood flood-opacity="0" result="BackgroundImageFix"/>
<feColorMatrix in="SourceAlpha" type="matrix" values="0 0 0 0 0 0 0 0 0 0 0 0 0 0 0 0 0 0 127 0" result="hardAlpha"/>
<feMorphology radius="11" operator="erode" in="SourceAlpha" result="effect1_dropShadow_2154_35880"/>
<feOffset dy="4"/>
<feGaussianBlur stdDeviation="25"/>
<feComposite in2="hardAlpha" operator="out"/>
<feColorMatrix type="matrix" values="0 0 0 0 0 0 0 0 0 0 0 0 0 0 0 0 0 0 0.2 0"/>
<feBlend mode="normal" in2="BackgroundImageFix" result="effect1_dropShadow_2154_35880"/>
<feBlend mode="normal" in="SourceGraphic" in2="effect1_dropShadow_2154_35880" result="shape"/>
</filter>
<clipPath id="clip0_2154_35880">
<rect width="48.7589" height="48.7589" fill="white" transform="translate(655.484 292.492)"/>
</clipPath>
<clipPath id="clip1_2154_35880">
<rect width="48.7589" height="48.7589" fill="white" transform="translate(555.531 51.9453)"/>
</clipPath>
<clipPath id="clip2_2154_35880">
<rect width="48.7589" height="48.7589" fill="white" transform="translate(173.586 51.9453)"/>
</clipPath>
<clipPath id="clip3_2154_35880">
<rect width="51" height="39" fill="white" transform="translate(364.5 297)"/>
</clipPath>
</defs>
</svg>
