<svg width="13" height="12" viewBox="0 0 13 12" fill="none" xmlns="http://www.w3.org/2000/svg">
<path d="M12.2431 4.61287C12.2004 4.48532 12.0899 4.3924 11.957 4.37195L8.42769 3.8327L6.84636 0.464111C6.78716 0.338179 6.66051 0.257812 6.52149 0.257812C6.38246 0.257812 6.25599 0.338179 6.19661 0.464111L4.61529 3.8327L1.08596 4.37213C0.953037 4.3924 0.842712 4.4855 0.799838 4.61305C0.757143 4.74041 0.789254 4.88105 0.883254 4.97739L3.44746 7.60671L2.84148 11.3208C2.81923 11.4564 2.87646 11.5929 2.98894 11.6719C3.05065 11.7155 3.12294 11.7375 3.19541 11.7375C3.25497 11.7375 3.31489 11.7225 3.36906 11.6927L6.52131 9.94918L9.67355 11.6927C9.72773 11.7225 9.78764 11.7375 9.8472 11.7375C9.91967 11.7375 9.99215 11.7155 10.0537 11.6719C10.1662 11.5929 10.2234 11.4564 10.2011 11.3208L9.59516 7.60671L12.1594 4.97739C12.2535 4.88088 12.2858 4.74023 12.2431 4.61287Z" fill="#EABA12"/>
</svg>
