<svg width="313" height="63" viewBox="0 0 313 63" fill="none" xmlns="http://www.w3.org/2000/svg">
<path d="M117.875 47.2434V57.5809L114.933 47.2434H110.151V60.2638H113.094V49.5394L116.036 60.2638H120.449V47.2434H117.875ZM58.6609 47.2434L56.0864 60.2638H59.7643L61.6032 48.3932L63.4422 60.2638H66.7523L64.1777 47.2434H58.6609ZM77.4181 47.2434L75.947 57.1976L74.4758 47.2434H69.3268L68.959 60.2638H72.2691V48.3932L74.4758 60.2638H77.7859L79.9926 48.3932V60.2638H83.3027L82.9349 47.2434H77.4181ZM50.9373 56.8144C50.9373 57.1976 50.9373 57.5809 50.9373 57.9642C50.9373 57.9642 50.5696 58.3475 49.834 58.3475C48.7306 58.3475 48.3628 57.9642 48.3628 57.1976V56.0514H45.0527V57.1976C45.0527 60.2638 47.2595 61.0268 49.4662 61.0268C51.6729 61.0268 53.5119 60.2638 53.8797 57.9642C53.8797 56.8144 53.8797 56.0514 53.8797 55.6682C53.5119 52.9852 48.7306 52.2223 48.3628 50.6892C48.3628 50.3059 48.3628 50.3059 48.3628 49.9227C48.3628 49.5394 48.7306 49.1561 49.4662 49.1561C50.2018 49.1561 50.5696 49.5394 50.5696 50.306V51.0725H53.8797V50.306C53.8797 47.2434 51.3051 46.8601 49.4662 46.8601C47.2595 46.8601 45.4205 47.6266 45.0527 49.9227C45.0527 50.3059 45.0527 50.6892 45.0527 51.4558C45.7883 54.1351 50.2018 54.9016 50.9373 56.8144ZM91.7619 56.8144C91.7619 57.1976 91.7619 57.5809 91.7619 57.9642C91.7619 58.3474 91.3941 58.7307 90.6585 58.7307C89.9229 58.7307 89.5551 58.3475 89.5551 57.5809V56.0514H86.245V57.1976C86.245 60.2638 88.4518 61.0268 90.6585 61.0268C92.8652 61.0268 94.7042 60.2638 95.072 57.9642C95.072 56.8144 95.072 56.0514 95.072 55.6682C94.7042 52.9852 89.9229 52.2223 89.5551 50.6892C89.5551 50.3059 89.5551 50.3059 89.5551 49.9227C89.5551 49.5394 89.9229 49.1561 90.6585 49.1561C91.3941 49.1561 91.7619 49.5394 91.7619 50.306V51.0725H94.7042V50.306C94.7042 47.6267 92.1297 46.8601 90.6585 46.8601C88.4518 46.8601 86.6128 47.6266 86.245 49.9227C86.245 50.3059 86.245 51.0725 86.245 51.8391C86.9806 54.1351 91.3941 54.9016 91.7619 56.8144ZM102.428 58.3475C103.163 58.3475 103.531 57.5809 103.531 57.1976V56.8144V47.2434H106.841V56.8144C106.841 57.1976 106.841 57.5809 106.841 57.5809C106.473 59.8806 104.634 60.6435 102.428 60.6435C100.221 60.6435 98.3821 59.8806 98.0143 57.5809V56.8144V47.2434H101.324V56.8144V57.1976C101.324 57.9642 101.692 58.3475 102.428 58.3475ZM128.909 58.3475C130.012 58.3475 130.012 57.5809 130.38 57.1976V56.8144V54.9016H128.909V52.9852H133.322V56.4347C133.322 56.8144 133.322 56.8144 133.322 57.1976C132.954 59.4973 131.115 60.2638 128.909 60.2638C126.702 60.2638 124.863 59.4973 124.495 57.1976C124.495 56.8144 124.495 56.4347 124.495 56.4347V51.0725C124.495 50.6892 124.495 50.306 124.495 50.306C124.863 47.6267 126.702 46.8601 128.909 46.8601C131.115 46.8601 132.954 47.6266 133.322 49.9227C133.322 50.3059 133.322 50.6892 133.322 50.6892V51.0725H130.012V50.6892V50.306C130.012 49.9227 129.644 49.1561 128.909 49.1561C127.805 49.1561 127.805 49.9227 127.805 50.306C127.805 50.306 127.805 50.6892 127.805 51.0725V57.1976V57.5809C127.437 57.5809 127.805 58.3475 128.909 58.3475Z" fill="white"/>
<mask id="mask0_6534_88737" style="mask-type:luminance" maskUnits="userSpaceOnUse" x="160" y="45" width="26" height="18">
<path d="M185.425 45.7654H160.443V62.2311H185.425V45.7654Z" fill="white"/>
</mask>
<g mask="url(#mask0_6534_88737)">
<path fill-rule="evenodd" clip-rule="evenodd" d="M173.25 49.1829C174.655 47.3205 176.371 45.7654 178.402 45.7654C182.306 45.7654 185.427 50.7344 185.427 56.4827C185.427 60.0576 183.864 62.2311 181.054 62.2311C178.713 62.2311 177.307 60.8333 174.966 56.9511L174.029 55.2423L173.718 54.9313C173.561 54.463 173.25 53.9982 172.935 53.5335L171.061 56.7938C168.409 61.298 167.004 62.2311 164.973 62.2311C162.163 62.2311 160.443 60.0576 160.443 56.6401C160.443 51.0454 163.568 45.7654 167.626 45.7654C168.094 45.7654 168.562 45.7654 169.031 45.9191C169.499 46.0764 169.967 46.2301 170.436 46.5411C171.372 47.1631 172.309 47.9388 173.25 49.1829ZM175.591 52.7542C175.277 52.1358 174.808 51.5138 174.497 50.8917C175.745 48.8719 176.839 47.7852 178.244 47.7852C180.897 47.7852 183.085 51.6674 183.085 56.6401C183.085 58.5025 182.459 59.5893 181.212 59.5893C179.96 59.5893 179.492 58.8135 177.15 55.085L175.591 52.7542ZM167.94 48.5609C169.031 48.7182 170.125 49.494 171.53 51.6674C170.75 52.9115 169.967 54.1519 169.188 55.5533C167.004 58.8135 166.221 59.5893 165.13 59.5893C163.879 59.5893 163.099 58.5025 163.099 56.6401C163.099 52.6005 165.13 48.4072 167.472 48.4072C167.783 48.4072 167.94 48.4072 167.94 48.5609Z" fill="white"/>
</g>
<mask id="mask1_6534_88737" style="mask-type:luminance" maskUnits="userSpaceOnUse" x="212" y="46" width="56" height="16">
<path d="M267.361 46.6917H212.864V61.3278H267.361V46.6917Z" fill="white"/>
</mask>
<g mask="url(#mask1_6534_88737)">
<path d="M266.834 46.6917H265.264C264.95 46.6917 264.529 47.0063 264.427 47.3173C264.427 47.3173 264.427 47.5296 264.32 47.7381L262.121 57.6688C262.121 57.8774 262.015 58.0859 262.015 58.0859C261.909 58.4006 262.121 58.7153 262.538 58.7153H264.214C264.529 58.7153 264.95 58.4006 265.056 58.0859L267.361 47.3173C267.464 47.0063 267.149 46.6917 266.834 46.6917ZM258.66 56.4137C258.451 56.5198 258.243 56.6223 257.928 56.7284C257.613 56.8309 257.299 56.937 256.984 56.937C256.567 56.937 256.252 56.8309 255.938 56.7284C255.725 56.6223 255.623 56.4137 255.623 56.0991C255.623 55.788 255.725 55.4734 255.831 55.2648C256.04 55.0563 256.252 54.8477 256.567 54.7416C256.878 54.6354 257.299 54.533 257.719 54.4269C258.137 54.4269 258.975 54.3244 259.081 54.3244C259.187 54.3244 259.289 54.2183 259.187 54.533C259.187 54.6355 258.975 55.5795 258.872 55.9966C258.872 56.0991 258.766 56.3113 258.66 56.4137ZM261.807 49.725C261.177 49.3042 260.025 49.2018 258.66 49.2018C257.928 49.2018 257.193 49.3042 256.461 49.4103C255.938 49.5128 255.831 49.5128 255.517 49.6189C254.887 49.6189 254.785 50.3507 254.785 50.3507L254.573 51.2911C254.47 51.8143 254.785 51.8143 254.887 51.8143C255.202 51.7082 255.308 51.6058 255.938 51.4996C256.461 51.3972 257.09 51.2911 257.613 51.2911C258.345 51.2911 258.872 51.3972 259.187 51.4996C259.501 51.6058 259.71 51.9205 259.71 52.3376C259.71 52.44 259.71 52.5461 259.71 52.5461C259.71 52.6522 259.604 52.6522 259.501 52.7547C258.451 52.8608 257.72 52.8608 256.878 53.0694C256.04 53.1718 255.202 53.3841 254.573 53.6951C253.947 54.0098 253.42 54.4269 253.003 54.9501C252.688 55.4733 252.48 56.0991 252.48 56.8309C252.48 57.5627 252.688 58.0859 253.212 58.5067C253.735 58.9239 254.364 59.1324 255.1 59.1324C255.623 59.1324 255.938 59.1324 256.252 59.0263C256.567 58.9238 256.775 58.8177 257.09 58.7153C257.299 58.6092 257.613 58.5067 257.822 58.2945C258.034 58.0859 258.243 57.9835 258.451 57.8773L258.345 58.1921C258.243 58.5067 258.451 58.8177 258.872 58.8177C259.081 58.8177 259.919 58.8177 260.233 58.8177H260.442C260.757 58.8177 261.177 58.5067 261.177 58.1921L262.432 52.6523C262.432 52.5461 262.538 52.3376 262.538 52.2315C262.538 52.0229 262.538 51.9204 262.538 51.8143C262.853 50.6654 262.432 50.1421 261.807 49.725ZM253.947 48.4699C253.735 48.0492 253.42 47.7381 253.003 47.4235C252.582 47.1088 252.059 47.0063 251.43 46.9002C250.8 46.7977 250.171 46.6917 249.333 46.6917H245.56C245.143 46.6917 244.829 47.0063 244.723 47.3173L242.311 58.1921C242.209 58.6092 242.523 58.8177 242.838 58.8177H244.616C245.037 58.8177 245.352 58.5067 245.458 58.1921L246.084 55.5795C246.19 55.1587 246.504 54.9501 246.925 54.9501H247.449C249.648 54.9501 251.323 54.533 252.48 53.5926C253.735 52.6522 254.258 51.4996 254.258 50.036C254.258 49.4103 254.156 48.8871 253.947 48.4699ZM250.171 52.0229C249.648 52.44 248.916 52.6523 247.972 52.6523H247.449C247.028 52.6523 246.819 52.3375 246.925 52.0229L247.449 49.6189C247.551 49.3042 247.866 48.9932 248.286 48.9932H248.916C249.648 48.9932 250.068 49.0957 250.486 49.3042C250.8 49.5128 251.012 49.9336 251.012 50.3507C250.906 51.0825 250.698 51.6057 250.171 52.0229Z" fill="white"/>
<path d="M241.372 49.2018C241.057 49.2018 240.64 49.5128 240.432 49.8274C240.432 49.8274 238.123 53.6951 237.914 54.1159C237.812 54.3244 237.706 54.2183 237.6 54.1159C237.6 54.0098 236.868 49.8274 236.868 49.8274C236.762 49.5128 236.447 49.2018 236.03 49.2018H234.665C234.35 49.2018 234.142 49.5128 234.142 49.8274C234.142 49.8274 235.192 55.9966 235.401 57.3541C235.503 58.192 235.401 58.2945 235.401 58.2945L234.036 60.7022C233.827 61.0132 233.933 61.3278 234.248 61.3278H235.924C236.239 61.3278 236.762 61.0132 236.868 60.7022L243.154 50.036C243.154 50.036 243.783 49.0956 243.154 49.0956C242.839 49.2017 241.372 49.2018 241.372 49.2018ZM229.531 56.4137C229.323 56.5198 229.111 56.6223 228.796 56.7284C228.481 56.8309 228.17 56.937 227.856 56.937C227.435 56.937 227.12 56.8309 226.805 56.7284C226.597 56.6223 226.491 56.4137 226.491 56.0991C226.491 55.788 226.597 55.4734 226.703 55.2648C226.912 55.0563 227.12 54.8477 227.435 54.7416C227.75 54.6354 228.17 54.533 228.587 54.533C229.008 54.533 229.846 54.4269 229.846 54.4269C229.949 54.4269 230.055 54.3244 229.949 54.6354C229.949 54.7415 229.74 55.6819 229.638 56.0991C229.74 56.0991 229.638 56.3113 229.531 56.4137ZM232.675 49.725C232.045 49.3042 230.893 49.2018 229.531 49.2018C228.796 49.2018 228.064 49.3042 227.329 49.4103C226.805 49.5128 226.703 49.5128 226.388 49.6189C225.759 49.725 225.653 50.4568 225.653 50.4568L225.444 51.1886C225.338 51.7082 225.653 51.7082 225.759 51.7082C226.074 51.6057 226.176 51.4996 226.805 51.3972C227.329 51.2911 227.958 51.1886 228.481 51.1886C229.217 51.1886 229.74 51.2911 230.055 51.3972C230.476 51.6057 230.684 51.8143 230.684 52.2315C230.684 52.3376 230.684 52.44 230.684 52.44C230.684 52.5461 230.578 52.5461 230.476 52.6523C229.425 52.7547 228.694 52.7547 227.856 52.9633C227.014 53.0694 226.282 53.2779 225.547 53.5926C224.921 53.9036 224.394 54.3244 223.977 54.7416C223.662 55.2648 223.454 55.8905 223.454 56.6223C223.454 57.3541 223.662 57.8773 224.186 58.2945C224.709 58.7153 225.338 58.9239 226.074 58.9239C226.597 58.9239 226.912 58.9239 227.226 58.8177C227.541 58.7153 227.75 58.6092 228.064 58.5067C228.273 58.4006 228.587 58.2945 228.796 58.0859C229.008 57.8774 229.217 57.7749 229.425 57.6688L229.323 57.9835C229.217 58.2945 229.425 58.6092 229.846 58.6092C230.055 58.6092 230.893 58.6092 231.207 58.6092H231.416C231.731 58.6092 232.151 58.2945 232.151 57.9835L233.41 52.44C233.41 52.3375 233.513 52.129 233.513 52.0229C233.513 51.8143 233.513 51.7082 233.513 51.6058C233.725 50.6654 233.304 50.1421 232.675 49.725ZM224.606 48.4699C224.394 48.0492 224.083 47.7381 223.662 47.4235C223.139 47.1088 222.616 47.0063 222.089 46.9002C221.46 46.7977 220.728 46.6917 219.992 46.6917H216.22C215.803 46.6917 215.488 47.0063 215.382 47.3173L212.868 58.1921C212.762 58.6092 213.077 58.8177 213.391 58.8177H215.173C215.594 58.8177 216.011 58.5067 216.011 58.1921L216.641 55.5795C216.747 55.1587 217.061 54.9501 217.479 54.9501H218.002C220.205 54.9501 221.88 54.533 223.033 53.5926C224.186 52.6522 224.815 51.4996 224.815 50.036C224.921 49.4103 224.815 48.8871 224.606 48.4699ZM220.728 52.0229C220.205 52.3375 219.469 52.5461 218.529 52.5461H218.002C217.687 52.5461 217.372 52.2315 217.479 51.9204L218.002 49.6189C218.108 49.2018 218.529 48.8871 218.84 48.9932H219.469C220.205 48.9932 220.622 49.0957 221.042 49.3042C221.357 49.5128 221.566 49.9336 221.566 50.3507C221.566 51.0825 221.251 51.6057 220.728 52.0229Z" fill="white"/>
</g>
<path d="M26.2624 10.5297C26.2624 13.4108 24.0217 15.5289 21.2715 15.5289C18.5214 15.5289 16.2803 13.4108 16.2803 10.5297C16.2803 7.63192 18.5214 5.53052 21.2715 5.53052C24.0217 5.53052 26.2624 7.63192 26.2624 10.5297ZM24.0776 10.5297C24.0776 8.72849 22.7788 7.49849 21.2715 7.49849C19.7639 7.49849 18.4651 8.72849 18.4651 10.5297C18.4651 12.31 19.7639 13.5609 21.2715 13.5609C22.7788 13.5609 24.0776 12.31 24.0776 10.5297Z" fill="white"/>
<path d="M37.0225 10.5297C37.0225 13.4108 34.7815 15.5289 32.0313 15.5289C29.2811 15.5289 27.04 13.4108 27.04 10.5297C27.04 7.63192 29.2811 5.53052 32.0313 5.53052C34.7815 5.53052 37.0225 7.63192 37.0225 10.5297ZM34.8373 10.5297C34.8373 8.72849 33.5386 7.49849 32.0313 7.49849C30.524 7.49849 29.2248 8.72849 29.2248 10.5297C29.2248 12.31 30.524 13.5609 32.0313 13.5609C33.5386 13.5609 34.8373 12.31 34.8373 10.5297Z" fill="white"/>
<path d="M47.3457 5.83071V14.8076C47.3457 18.5017 45.1788 20.011 42.6171 20.011C40.2055 20.011 38.7541 18.3891 38.2066 17.0632L40.1092 16.2669C40.4477 17.0841 41.2779 18.0431 42.6146 18.0431C44.2544 18.0431 45.2705 17.0257 45.2705 15.1119V14.3906H45.1942C44.7056 14.9993 43.7633 15.5289 42.5741 15.5289C40.0866 15.5289 37.8076 13.3524 37.8076 10.5464C37.8076 7.72366 40.0866 5.53052 42.5741 5.53052C43.7612 5.53052 44.7031 6.06001 45.1942 6.6479H45.2705V5.83488H47.3457V5.83071ZM45.4256 10.5464C45.4256 8.78687 44.2569 7.49849 42.7697 7.49849C41.262 7.49849 39.9991 8.78687 39.9991 10.5464C39.9991 12.2892 41.262 13.5609 42.7697 13.5609C44.2569 13.5609 45.4256 12.2892 45.4256 10.5464Z" fill="white"/>
<path d="M50.7638 0.57019V15.2258H48.6328V0.57019H50.7638Z" fill="white"/>
<path d="M59.0731 12.1726L60.7693 13.3067C60.2218 14.1198 58.903 15.5249 56.6236 15.5249C53.7971 15.5249 51.6865 13.3276 51.6865 10.5215C51.6865 7.54869 53.8154 5.52234 56.3792 5.52234C58.961 5.52234 60.2239 7.58622 60.6367 8.70363L60.8635 9.27067L54.2124 12.0392C54.7215 13.044 55.5133 13.5569 56.6236 13.5569C57.7364 13.5569 58.5082 13.0065 59.0731 12.1726ZM53.8534 10.3714L58.2993 8.51598C58.055 7.89056 57.319 7.45697 56.4535 7.45697C55.3427 7.45697 53.7971 8.44096 53.8534 10.3714Z" fill="white"/>
<path d="M8.2087 9.23118V7.10894H15.3218C15.3914 7.48002 15.4273 7.91779 15.4273 8.38894C15.4273 9.98167 14.9945 11.9497 13.599 13.3548C12.2418 14.7724 10.5082 15.5312 8.21079 15.5312C3.95336 15.5312 0.373047 12.0456 0.373047 7.76352C0.373047 3.48566 3.95336 0 8.21079 0C10.5661 0 12.2443 0.92979 13.5047 2.13893L12.0154 3.63575C11.1115 2.78518 9.88649 2.12224 8.2087 2.12224C5.09954 2.12224 2.66791 4.6406 2.66791 7.76352C2.66791 10.8906 5.09954 13.409 8.2087 13.409C10.2255 13.409 11.3737 12.5959 12.1096 11.8538C12.7063 11.2576 13.0991 10.3986 13.2537 9.22701L8.2087 9.23118Z" fill="white"/>
<mask id="mask2_6534_88737" style="mask-type:luminance" maskUnits="userSpaceOnUse" x="92" y="1" width="93" height="21">
<path d="M184.93 1.28638H92.1406V21.2998H184.93V1.28638Z" fill="white"/>
</mask>
<g mask="url(#mask2_6534_88737)">
<path d="M184.932 10.3265V8.67958H182.905V6.11535L182.837 6.13622L180.934 6.72407L180.896 6.73659V8.67958H177.892V7.59553C177.892 7.09519 178.004 6.70744 178.223 6.4531C178.441 6.19876 178.754 6.06949 179.152 6.06949C179.438 6.06949 179.734 6.1362 180.032 6.26962L180.107 6.30296V4.5685L180.072 4.55598C179.794 4.45591 179.415 4.40588 178.946 4.40588C178.355 4.40588 177.818 4.5351 177.35 4.78944C176.881 5.04795 176.513 5.41903 176.255 5.88601C175.997 6.35299 175.866 6.89089 175.866 7.49129V8.67958H174.455V10.3265H175.866V17.2686H177.892V10.3265H180.896V14.7378C180.896 16.5557 181.745 17.4729 183.419 17.4729C183.694 17.4729 183.983 17.4438 184.279 17.3771C184.58 17.3145 184.785 17.2478 184.905 17.1769L184.932 17.1602V15.5008L184.849 15.555C184.74 15.6301 184.603 15.6884 184.442 15.7343C184.281 15.7801 184.146 15.801 184.042 15.801C183.65 15.801 183.36 15.6967 183.18 15.4841C182.998 15.2715 182.906 14.9004 182.906 14.3792V10.3265H184.932ZM169.932 15.801C169.197 15.801 168.617 15.555 168.209 15.0713C167.798 14.5835 167.589 13.8872 167.589 13.0075C167.589 12.0944 167.798 11.3814 168.209 10.8852C168.617 10.3932 169.191 10.1431 169.915 10.1431C170.618 10.1431 171.177 10.3807 171.577 10.856C171.98 11.3272 172.184 12.036 172.184 12.9574C172.184 13.8872 171.992 14.6044 171.613 15.0839C171.237 15.5592 170.672 15.801 169.932 15.801ZM170.022 8.4711C168.619 8.4711 167.505 8.88803 166.711 9.70525C165.917 10.5225 165.514 11.6566 165.514 13.0742C165.514 14.4168 165.907 15.5008 166.682 16.2888C167.457 17.0769 168.512 17.4729 169.817 17.4729C171.177 17.4729 172.269 17.0518 173.062 16.2221C173.856 15.3966 174.259 14.2708 174.259 12.8907C174.259 11.5231 173.881 10.4349 173.137 9.65104C172.391 8.86718 171.343 8.4711 170.022 8.4711ZM162.248 8.4711C161.295 8.4711 160.505 8.7171 159.902 9.20493C159.296 9.69276 158.988 10.3348 158.988 11.1103C158.988 11.5106 159.054 11.8692 159.185 12.1736C159.316 12.478 159.52 12.7489 159.79 12.9741C160.059 13.1951 160.473 13.4286 161.021 13.6704C161.483 13.8622 161.827 14.0206 162.045 14.1499C162.259 14.275 162.411 14.4001 162.497 14.5252C162.58 14.6419 162.622 14.8086 162.622 15.0088C162.622 15.5883 162.194 15.8677 161.313 15.8677C160.986 15.8677 160.614 15.801 160.206 15.6634C159.801 15.53 159.418 15.334 159.072 15.0839L158.988 15.0213V16.9934L159.018 17.006C159.305 17.1394 159.667 17.252 160.092 17.3395C160.518 17.4313 160.904 17.4729 161.239 17.4729C162.275 17.4729 163.109 17.2269 163.717 16.7391C164.329 16.2471 164.64 15.5884 164.64 14.7878C164.64 14.2083 164.472 13.7121 164.143 13.3118C163.816 12.9157 163.249 12.5488 162.457 12.2278C161.827 11.9734 161.422 11.7608 161.256 11.5982C161.095 11.4398 161.013 11.2188 161.013 10.9353C161.013 10.6851 161.114 10.4849 161.321 10.3223C161.529 10.1597 161.819 10.0763 162.183 10.0763C162.52 10.0763 162.866 10.1305 163.209 10.2389C163.552 10.3432 163.854 10.4849 164.105 10.6559L164.188 10.7143V8.84636L164.156 8.83384C163.924 8.72961 163.618 8.64622 163.246 8.57534C162.876 8.50446 162.54 8.4711 162.248 8.4711ZM153.707 15.801C152.972 15.801 152.392 15.555 151.984 15.0713C151.573 14.5835 151.365 13.8872 151.365 13.0075C151.365 12.0944 151.573 11.3814 151.985 10.8852C152.393 10.3932 152.967 10.1431 153.691 10.1431C154.393 10.1431 154.952 10.3807 155.353 10.856C155.755 11.3272 155.96 12.036 155.96 12.9574C155.96 13.8872 155.767 14.6044 155.388 15.0839C155.012 15.5592 154.447 15.801 153.707 15.801ZM153.797 8.4711C152.394 8.4711 151.28 8.88803 150.486 9.70525C149.693 10.5225 149.29 11.6566 149.29 13.0742C149.29 14.4168 149.683 15.5008 150.458 16.2888C151.233 17.0769 152.288 17.4729 153.592 17.4729C154.952 17.4729 156.044 17.0518 156.838 16.2221C157.632 15.3966 158.034 14.2708 158.034 12.8907C158.034 11.5231 157.657 10.4349 156.912 9.65104C156.166 8.86718 155.119 8.4711 153.797 8.4711ZM146.215 10.1639V8.67958H144.214V17.2686H146.215V12.874C146.215 12.1277 146.383 11.5148 146.713 11.0478C147.04 10.5892 147.476 10.3599 148.008 10.3599C148.188 10.3599 148.39 10.389 148.609 10.4474C148.826 10.5058 148.983 10.5725 149.076 10.6392L149.16 10.7018V8.66288L149.128 8.65036C148.941 8.57114 148.678 8.52948 148.344 8.52948C147.841 8.52948 147.391 8.69205 147.006 9.0131C146.668 9.29662 146.423 9.68439 146.236 10.1639H146.215ZM140.631 8.4711C139.713 8.4711 138.894 8.6712 138.197 9.06313C137.499 9.45506 136.96 10.0138 136.593 10.7268C136.227 11.4398 136.041 12.2695 136.041 13.1951C136.041 14.0081 136.221 14.7545 136.577 15.4091C136.933 16.0679 137.437 16.5807 138.074 16.9392C138.711 17.2936 139.447 17.4729 140.262 17.4729C141.213 17.4729 142.025 17.2812 142.676 16.9059L142.702 16.8892V15.038L142.618 15.1005C142.323 15.3174 141.994 15.4883 141.639 15.6134C141.285 15.7385 140.963 15.801 140.68 15.801C139.895 15.801 139.265 15.555 138.807 15.0672C138.349 14.5752 138.116 13.8872 138.116 13.0241C138.116 12.1527 138.359 11.4481 138.837 10.9269C139.313 10.4057 139.944 10.1431 140.713 10.1431C141.371 10.1431 142.012 10.3682 142.618 10.8143L142.702 10.8727V8.92556L142.675 8.90886C142.446 8.77961 142.135 8.67125 141.749 8.59203C141.364 8.51281 140.988 8.4711 140.631 8.4711ZM134.663 8.67958H132.662V17.2686H134.663V8.67958ZM133.683 5.01878C133.354 5.01878 133.067 5.13138 132.831 5.35653C132.594 5.58168 132.474 5.86516 132.474 6.19872C132.474 6.52811 132.592 6.8075 132.827 7.02431C133.06 7.2453 133.348 7.35367 133.684 7.35367C134.018 7.35367 134.307 7.2453 134.543 7.02431C134.781 6.8075 134.901 6.52811 134.901 6.19872C134.901 5.87767 134.784 5.59415 134.553 5.36483C134.322 5.13551 134.03 5.01878 133.683 5.01878ZM128.691 8.04581V17.2686H130.733V5.28146H127.907L124.314 14.1832L120.828 5.28146H117.887V17.2686H119.805V8.04164H119.871L123.553 17.2686H125.001L128.625 8.04581H128.691Z" fill="white"/>
<path d="M101.554 10.7886H92.1406V1.28638H101.554V10.7886Z" fill="white"/>
<path d="M111.955 10.7886H102.542V1.28638H111.955V10.7886Z" fill="white"/>
<path d="M101.553 21.2876H92.1406V11.7854H101.553V21.2876Z" fill="white"/>
<path d="M111.955 21.2876H102.542V11.7854H111.955V21.2876Z" fill="white"/>
</g>
<mask id="mask3_6534_88737" style="mask-type:luminance" maskUnits="userSpaceOnUse" x="216" y="1" width="19" height="23">
<path d="M234.539 1.47327H216.221V23.9883H234.539V1.47327Z" fill="white"/>
</mask>
<g mask="url(#mask3_6534_88737)">
<path d="M231.528 13.4218C231.482 10.5824 233.857 9.21062 233.948 9.11889C232.624 7.19677 230.568 6.92158 229.837 6.87572C228.101 6.69226 226.411 7.9306 225.544 7.9306C224.675 7.9306 223.305 6.92162 221.844 6.96749C219.925 7.01335 218.189 8.06403 217.184 9.80686C215.174 13.2383 216.636 18.3626 218.6 21.1519C219.559 22.5278 220.656 24.0372 222.163 23.9914C223.579 23.9455 224.128 23.0741 225.863 23.0741C227.599 23.0741 228.056 23.9914 229.563 23.9914C231.116 23.9455 232.075 22.6196 232.989 21.2437C234.085 19.6426 234.497 18.1333 234.542 18.0415C234.497 17.9957 231.528 16.8533 231.528 13.4218Z" fill="white"/>
<path d="M228.689 5.0882C229.465 4.12923 230.014 2.79915 229.876 1.47327C228.734 1.51913 227.364 2.20711 226.588 3.16609C225.857 3.99164 225.217 5.36338 225.4 6.6434C226.588 6.78099 227.867 6.00548 228.689 5.0882Z" fill="white"/>
</g>
<mask id="mask4_6534_88737" style="mask-type:luminance" maskUnits="userSpaceOnUse" x="265" y="3" width="48" height="20">
<path d="M312.626 3.13H265.784V22.3095H312.626V3.13Z" fill="white"/>
</mask>
<g mask="url(#mask4_6534_88737)">
<path d="M274.901 3.13H265.784V4.39754H274.901V3.13Z" fill="white"/>
<path d="M274.901 5.67126H265.784V6.9388H274.901V5.67126Z" fill="white"/>
<path d="M272.223 8.19629H268.293V9.46794H272.223V8.19629Z" fill="white"/>
<path d="M272.223 10.7456H268.293V12.0131H272.223V10.7456Z" fill="white"/>
<path d="M272.223 13.2788H268.293V14.5463H272.223V13.2788Z" fill="white"/>
<path d="M272.223 15.9667H268.293V17.2342H272.223V15.9667Z" fill="white"/>
<path d="M274.901 18.5079H265.784V19.7755H274.901V18.5079Z" fill="white"/>
<path d="M274.901 21.041H265.784V22.3085H274.901V21.041Z" fill="white"/>
<path d="M299.112 3.13L299.583 4.39754H291.881V3.13H299.112Z" fill="white"/>
<path d="M312.624 3.13V4.39754H304.921L305.236 3.13H312.624Z" fill="white"/>
<path d="M300.055 5.67126L300.526 6.9388H291.881V5.67126H300.055Z" fill="white"/>
<path d="M312.63 5.67126V6.9388H303.984L304.456 5.67126H312.63Z" fill="white"/>
<path d="M301 8.19629L301.471 9.46794H294.398V8.19629H301Z" fill="white"/>
<path d="M310.113 8.19629V9.46794H303.04L303.511 8.19629H310.113Z" fill="white"/>
<path d="M310.117 10.7456V12.1716H306.187V11.3794L305.873 12.1716H298.642L298.328 11.3794V12.1716H294.398V10.7456H301.943L302.257 11.6963L302.572 10.7456H310.117Z" fill="white"/>
<path d="M298.328 13.2788H294.398V14.5463H298.328V13.2788Z" fill="white"/>
<path d="M299.105 13.2788H305.393L304.921 14.7048H299.577L299.105 13.2788Z" fill="white"/>
<path d="M310.113 13.2788H306.184V14.5463H310.113V13.2788Z" fill="white"/>
<path d="M298.328 15.9667H294.398V17.2342H298.328V15.9667Z" fill="white"/>
<path d="M300.042 15.9667H304.444L304.129 17.2342H300.357L300.042 15.9667Z" fill="white"/>
<path d="M310.113 15.9667H306.184V17.2342H310.113V15.9667Z" fill="white"/>
<path d="M298.483 18.5079H291.881V19.7755H298.483V18.5079Z" fill="white"/>
<path d="M300.833 18.5079H303.662L303.191 19.7755H301.304L300.833 18.5079Z" fill="white"/>
<path d="M312.786 18.5079H306.184V19.7755H312.786V18.5079Z" fill="white"/>
<path d="M298.483 21.041H291.881V22.3085H298.483V21.041Z" fill="white"/>
<path d="M301.777 21.041H302.72L302.249 22.3075L301.777 21.041Z" fill="white"/>
<path d="M312.786 21.041H306.184V22.3085H312.786V21.041Z" fill="white"/>
<path d="M282.607 8.19629H278.678V9.46794H282.607V8.19629Z" fill="white"/>
<path d="M285.594 10.7456H278.678V12.0131H288.895C289.367 11.6963 289.681 11.2209 289.995 10.7456H285.594Z" fill="white"/>
<path d="M285.75 3.28222H276.161V4.54975H289.208C288.265 3.59912 287.007 3.12378 285.75 3.28222Z" fill="white"/>
<path d="M290.78 6.9388C290.78 6.46348 290.622 5.98814 290.308 5.67126H276.161V6.9388H290.78Z" fill="white"/>
<path d="M290.779 8.19629C290.779 8.67161 290.622 8.98845 290.622 9.46794H286.692V8.19629H290.779Z" fill="white"/>
<path d="M282.607 15.9667H278.678V17.2342H282.607V15.9667Z" fill="white"/>
<path d="M290.152 14.701C289.838 14.2257 289.524 13.7504 289.052 13.4335H278.678V14.701H290.152Z" fill="white"/>
<path d="M285.75 21.041H276.161V22.3085H285.75C287.007 22.3085 288.265 21.8332 289.208 21.041H285.75Z" fill="white"/>
<path d="M285.278 18.5079H276.161V19.7755H290.308C290.465 19.3001 290.622 18.9833 290.78 18.5079H285.278Z" fill="white"/>
<path d="M290.779 17.2342C290.779 16.7588 290.622 16.442 290.622 15.9667H286.692V17.2342H290.779Z" fill="white"/>
</g>
</svg>
