<svg width="48" height="31" viewBox="0 0 48 31" fill="none" xmlns="http://www.w3.org/2000/svg">
<path d="M47.2638 0.734375H0.210938V30.2661H47.2638V0.734375Z" fill="#FF3B45"/>
<path d="M35.5291 0.730469H12.0732V30.2622H35.5291V0.730469Z" fill="white"/>
<path d="M23.0949 20.5124V25.7405H23.9427V20.3711L28.8882 21.5015L28.1817 19.8059L32.9859 15.4256L31.5729 15.143L32.4207 12.0344L29.736 12.5996L29.1708 11.0453L26.6274 13.5887L27.3339 7.65413L25.6383 8.50193L23.6601 4.82812L21.6819 8.64322L19.7037 7.51282L20.6928 13.5887L18.0081 10.7627L17.7255 12.4583L14.8995 11.8931L15.8886 14.8604L14.4756 15.4256L18.9972 19.5233L18.2907 21.2189L23.0949 20.5124Z" fill="#FF3B45"/>
</svg>
