<svg width="48" height="31" viewBox="0 0 48 31" fill="none" xmlns="http://www.w3.org/2000/svg">
<path d="M47.1216 0.542969H0.209961V30.0747H47.1216V0.542969Z" fill="#FF9A15"/>
<path d="M47.1216 14.8164H0.209961V30.0768H47.1216V14.8164Z" fill="#37AA41"/>
<path d="M47.1216 10.2969H0.209961V20.1879H47.1216V10.2969Z" fill="white"/>
<path d="M25.3803 15.5099C25.239 15.6512 25.3803 15.6512 25.3803 15.5099L27.9237 16.7816L25.239 15.7925C25.239 15.7925 25.239 15.7925 25.239 15.9338L27.4998 17.6294L25.0977 16.2164C25.0977 16.2164 25.0977 16.2164 25.0977 16.3577L27.0759 18.4772L24.9564 16.6403L26.5107 19.0424L24.8151 16.7816C24.8151 16.7816 24.8151 16.7816 24.6738 16.7816L25.6629 19.4663L24.5325 16.9229C24.5325 16.9229 24.5325 16.9229 24.3912 16.9229L24.8151 19.7489L24.1086 17.0642C24.1086 17.0642 24.1086 17.0642 23.9673 17.0642L23.826 19.8902L23.6847 17.0642L22.9782 19.8902L23.4021 17.0642C23.4021 17.0642 23.4021 17.0642 23.2608 17.0642L21.9891 19.6076L22.9782 16.9229L21.2826 19.1837L22.6956 16.7816C22.6956 16.7816 22.6956 16.7816 22.5543 16.7816L20.4348 18.7598L22.413 16.6403L20.0109 18.1946L22.2717 16.499C22.2717 16.499 22.2717 16.499 22.2717 16.3577L19.587 17.3468L22.1304 16.0751L19.3044 16.499L21.9891 15.7925V15.6512L19.1631 15.5099L21.9891 15.3686C21.9891 15.3686 21.9891 15.3686 21.9891 15.2273L19.3044 14.6621L22.1304 15.086C22.1304 15.086 22.1304 15.086 22.1304 14.9447L19.587 13.8143L22.2717 14.8034L20.0109 13.1078L22.413 14.5208C22.413 14.5208 22.413 14.5208 22.413 14.3795L20.4348 12.26L22.5543 14.2382L21 11.8361L22.6956 14.0969C22.6956 14.0969 22.6956 14.0969 22.8369 14.0969L21.8478 11.4122L22.9782 13.9556C22.9782 13.9556 22.9782 13.9556 23.1195 13.9556L22.6956 11.1296L23.4021 13.8143H23.5434L23.6847 10.9883L23.826 13.8143C23.826 13.8143 23.826 13.8143 23.9673 13.8143L24.6738 11.1296L24.2499 13.9556H24.3912L25.5216 11.4122L24.5325 14.0969L26.2281 11.8361L24.8151 14.2382C24.8151 14.2382 24.8151 14.2382 24.9564 14.2382L27.0759 12.26L25.0977 14.3795L27.4998 12.8252L25.239 14.5208C25.239 14.5208 25.239 14.5208 25.239 14.6621L27.9237 13.673L25.3803 14.9447L28.2063 14.5208L25.5216 15.2273C25.5216 15.2273 25.5216 15.2273 25.5216 15.3686L28.3476 15.5099L25.5216 15.6512L28.3476 16.3577L25.3803 15.5099Z" fill="#2D3A8E"/>
<path d="M23.6688 19.7399C21.1254 19.7399 19.0059 17.6203 19.0059 15.0769C19.0059 12.5335 21.1254 10.4141 23.6688 10.4141C26.2122 10.4141 28.3317 12.5335 28.3317 15.0769C28.1904 17.7616 26.2122 19.7399 23.6688 19.7399ZM23.6688 10.8379C21.2667 10.8379 19.2885 12.8162 19.2885 15.2183C19.2885 17.6204 21.2667 19.5986 23.6688 19.5986C26.0709 19.5986 28.0491 17.6204 28.0491 15.2183C27.9078 12.8162 26.0709 10.8379 23.6688 10.8379Z" fill="#2D3A8E"/>
</svg>
