<svg width="48" height="30" viewBox="0 0 48 30" fill="none" xmlns="http://www.w3.org/2000/svg">
<path d="M47.2629 0.433594V29.9653H0.209961V0.433594H47.2629Z" fill="#2E4593"/>
<path d="M47.2638 26.8567V29.9653H42.3183L27.9057 20.9221L26.4927 19.933L24.7971 18.9439L24.2319 18.52L22.395 17.5309L21.8298 17.107L21.2646 16.6831L20.1342 16.1179L19.8516 15.8353L19.2864 15.5527L14.1996 12.3028L11.7975 10.8898L0.210938 3.54221V0.433594H0.352237H5.15644L19.8516 9.7594L21.2646 10.6072L21.6885 10.8898L23.9493 12.3028L24.2319 12.4441L25.0797 13.0093L26.4927 13.8571L26.634 13.9984L27.9057 14.7049L29.0361 15.5527L32.286 17.5309L34.5468 18.9439L47.2638 26.8567Z" fill="#FCF5FF"/>
<path d="M47.2638 29.824V29.9653H44.1552L27.9057 19.7917L26.4927 18.9439L25.0797 17.9548L24.2319 17.5309L22.6776 16.5418L21.2646 15.694L20.982 15.5527L20.1342 14.9875L19.8516 14.7049L15.8952 12.3028L13.6344 10.8898L0.210938 2.41179V0.433594H0.352237L16.8843 10.8898L19.1451 12.3028L19.8516 12.7267L21.2646 13.5745L21.8298 13.9984L22.6776 14.4223L24.3732 15.5527L26.4927 16.8244L26.634 16.9657L27.4818 17.5309L27.9057 17.8135L29.7426 18.9439L47.2638 29.824Z" fill="#F42525"/>
<path d="M47.2638 0.998785V4.1074L36.525 10.8898L34.2642 12.3028L29.0361 15.5527L27.9057 16.2592L26.634 16.9657L26.4927 17.107L25.9275 17.5309L25.0797 17.9548L24.2319 18.52L23.6667 18.9439L21.2646 20.3569L19.8516 21.346L6.00424 29.9653H0.210938V27.4219L13.7757 18.9439L16.1778 17.5309L19.2864 15.5527L19.8516 15.1288L20.1342 14.9875L21.2646 14.281L21.8298 13.9984L24.2319 12.4441L24.3732 12.3028L26.4927 11.0311L26.7753 10.8898L27.9057 10.042L43.3074 0.433594H46.8399L47.2638 0.998785Z" fill="#FCF5FF"/>
<path d="M47.1225 1.2814L31.7208 10.8898L29.46 12.3028L27.9057 13.2919L26.634 13.9984L26.4927 14.1397L24.3732 15.5527L22.6776 16.5418L21.8298 17.107L21.2646 17.3896L21.1233 17.5309L19.8516 18.3787L18.8625 18.9439L1.20004 29.9653H0.210938V28.5523L15.6126 18.9439L17.8734 17.5309L19.8516 16.2592L20.1342 16.1179L20.982 15.5527L21.2646 15.4114L22.6776 14.4223L25.0797 13.0093L26.2101 12.3028L26.4927 12.1615L27.9057 11.1724L28.4709 10.8898L45.003 0.433594H46.6986H47.2638V1.14009L47.1225 1.2814Z" fill="#F42525"/>
<path d="M47.2629 10.8789H0.209961V18.933H47.2629V10.8789Z" fill="white"/>
<path d="M47.2629 12.3086H0.209961V17.5367H47.2629V12.3086Z" fill="#F42525"/>
<path d="M26.4888 0.433594H21.2607V29.9653H26.4888V0.433594Z" fill="#CD002A"/>
<path d="M26.4946 18.9439H27.9076V29.9653H19.8535V18.9439H21.2665V10.8898H19.8535V0.433594H27.9076V10.8898H26.4946V18.9439Z" fill="white"/>
<path d="M26.4967 0.433594H21.2686V29.9653H26.4967V0.433594Z" fill="#F42525"/>
</svg>
