<svg width="50" height="31" viewBox="0 0 50 31" fill="none" xmlns="http://www.w3.org/2000/svg">
<path d="M49.3302 9.83203H0.864258V12.0928H49.3302V9.83203Z" fill="#DB2E2E"/>
<path d="M49.3302 5.3125H0.864258V7.57327H49.3302V5.3125Z" fill="#DB2E2E"/>
<path d="M49.3302 0.640625H0.864258V2.90143H49.3302V0.640625Z" fill="#DB2E2E"/>
<path d="M49.3302 14.5039H0.864258V16.7647H49.3302V14.5039Z" fill="#DB2E2E"/>
<path d="M49.3302 19.0156H0.864258V21.2764H49.3302V19.0156Z" fill="#DB2E2E"/>
<path d="M49.3302 23.6719H0.864258V25.9326H49.3302V23.6719Z" fill="#DB2E2E"/>
<path d="M49.3302 28.3398H0.864258V30.6007H49.3302V28.3398Z" fill="#DB2E2E"/>
<path d="M49.3321 7.58594H0.866211V9.84675H49.3321V7.58594Z" fill="white"/>
<path d="M49.3321 2.91406H0.866211V5.17487H49.3321V2.91406Z" fill="white"/>
<path d="M49.3321 12.2383H0.866211V14.4991H49.3321V12.2383Z" fill="white"/>
<path d="M49.3321 16.7617H0.866211V19.0225H49.3321V16.7617Z" fill="white"/>
<path d="M49.3321 21.4258H0.866211V23.6866H49.3321V21.4258Z" fill="white"/>
<path d="M49.3321 25.9453H0.866211V28.2061H49.3321V25.9453Z" fill="white"/>
<path d="M18.9546 0.796875H0.868164V14.7856H18.9546V0.796875Z" fill="#2E4593"/>
<path d="M15.9979 3.49625L16.1392 4.06144L15.7153 3.77886L15.2914 4.06144L15.4327 3.49625L15.0088 3.21367H15.574L15.7153 2.64844L15.8566 3.21367H16.4218L15.9979 3.49625Z" fill="white"/>
<path d="M15.9979 6.2814L16.1392 6.84659L15.7153 6.56402L15.2914 6.84659L15.4327 6.2814L15.0088 5.99883H15.574L15.7153 5.43359L15.8566 5.99883H16.4218L15.9979 6.2814Z" fill="white"/>
<path d="M15.9979 9.12515L16.1392 9.69034L15.7153 9.40777V9.26646V9.40777L15.2914 9.69034L15.4327 9.12515L15.0088 8.84258H15.574L15.7153 8.27734L15.8566 8.84258H16.4218L15.9979 9.12515Z" fill="white"/>
<path d="M15.9979 11.9572L16.1392 12.5224L15.7153 12.0985L15.2914 12.5224L15.4327 11.9572L15.0088 11.6746H15.574L15.7153 11.1094L15.8566 11.6746H16.4218L15.9979 11.9572Z" fill="white"/>
<path d="M13.0272 3.49625L13.1685 4.06144L12.7446 3.77886L12.3207 4.06144L12.462 3.49625L12.0381 3.21367H12.6033L12.7446 2.64844L12.8859 3.21367H13.4511L13.0272 3.49625Z" fill="white"/>
<path d="M13.0272 6.2814L13.1685 6.84659L12.7446 6.56402L12.3207 6.84659L12.462 6.2814L12.0381 5.99883H12.6033L12.7446 5.43359L12.8859 5.99883H13.4511L13.0272 6.2814Z" fill="white"/>
<path d="M13.0272 9.12515L13.1685 9.69034L12.7446 9.40777V9.26646V9.40777L12.3207 9.69034L12.462 9.12515L12.0381 8.84258H12.6033L12.7446 8.27734L12.8859 8.84258H13.4511L13.0272 9.12515Z" fill="white"/>
<path d="M13.0272 11.9572L13.1685 12.5224L12.7446 12.0985L12.3207 12.5224L12.462 11.9572L12.0381 11.6746H12.6033L12.7446 11.1094L12.8859 11.6746H13.4511L13.0272 11.9572Z" fill="white"/>
<path d="M10.0425 3.49625L10.1838 4.06144L9.75991 3.77886L9.19471 4.06144L9.47731 3.49625L8.91211 3.21367H9.47731L9.75991 2.64844L9.90121 3.21367H10.4664L10.0425 3.49625Z" fill="white"/>
<path d="M10.0425 6.2814L10.1838 6.84659L9.75991 6.56402L9.19471 6.84659L9.47731 6.2814L8.91211 5.99883H9.47731L9.75991 5.43359L9.90121 5.99883H10.4664L10.0425 6.2814Z" fill="white"/>
<path d="M10.0425 9.12515L10.1838 9.69034L9.75991 9.40777V9.26646V9.40777L9.19471 9.69034L9.47731 9.12515L8.91211 8.84258H9.47731L9.75991 8.27734L9.90121 8.84258H10.4664L10.0425 9.12515Z" fill="white"/>
<path d="M10.0425 11.9572L10.1838 12.5224L9.75991 12.0985L9.19471 12.5224L9.47731 11.9572L8.91211 11.6746H9.47731L9.75991 11.1094L9.90121 11.6746H10.4664L10.0425 11.9572Z" fill="white"/>
<path d="M7.08675 3.49625L7.22805 4.06144L6.80416 3.77886L6.38025 4.06144L6.52155 3.49625L6.09766 3.21367H6.66286L6.80416 2.64844L6.94545 3.21367H7.51066L7.08675 3.49625Z" fill="white"/>
<path d="M7.08675 6.2814L7.22805 6.84659L6.80416 6.56402L6.38025 6.84659L6.52155 6.2814L6.09766 5.99883H6.66286L6.80416 5.43359L6.94545 5.99883H7.51066L7.08675 6.2814Z" fill="white"/>
<path d="M7.08675 9.12515L7.22805 9.69034L6.80416 9.40777V9.26646V9.40777L6.38025 9.69034L6.52155 9.12515L6.09766 8.84258H6.66286L6.80416 8.27734L6.94545 8.84258H7.51066L7.08675 9.12515Z" fill="white"/>
<path d="M7.08675 11.9572L7.22805 12.5224L6.80416 12.0985L6.38025 12.5224L6.52155 11.9572L6.09766 11.6746H6.66286L6.80416 11.1094L6.94545 11.6746H7.51066L7.08675 11.9572Z" fill="white"/>
<path d="M4.11605 3.49625L4.25735 4.06144L3.83345 3.77886L3.40955 4.06144L3.55085 3.49625L3.12695 3.21367H3.69214L3.83345 2.64844L3.97475 3.21367H4.53995L4.11605 3.49625Z" fill="white"/>
<path d="M4.11605 6.2814L4.25735 6.84659L3.83345 6.56402L3.40955 6.84659L3.55085 6.2814L3.12695 5.99883H3.69214L3.83345 5.43359L3.97475 5.99883H4.53995L4.11605 6.2814Z" fill="white"/>
<path d="M4.11605 9.12515L4.25735 9.69034L3.83345 9.40777V9.26646V9.40777L3.40955 9.69034L3.55085 9.12515L3.12695 8.84258H3.69214L3.83345 8.27734L3.97475 8.84258H4.53995L4.11605 9.12515Z" fill="white"/>
<path d="M4.11605 11.9572L4.25735 12.5224L3.83345 12.0985L3.40955 12.5224L3.55085 11.9572L3.12695 11.6746H3.69214L3.83345 11.1094L3.97475 11.6746H4.53995L4.11605 11.9572Z" fill="white"/>
<path d="M17.3758 4.85953L17.6584 5.42472L17.0932 5.14214L16.6693 5.42472L16.8106 4.85953L16.3867 4.57695H16.9519L17.0932 4.01172L17.2345 4.57695H17.941L17.3758 4.85953Z" fill="white"/>
<path d="M17.3758 7.69156L17.6584 8.25675L17.0932 7.97418L16.6693 8.25675L16.8106 7.69156L16.3867 7.40898H16.9519L17.0932 6.84375L17.2345 7.40898H17.941L17.3758 7.69156Z" fill="white"/>
<path d="M17.3758 10.5197L17.6584 11.0849L17.0932 10.661L16.6693 11.0849L16.8106 10.5197L16.3867 10.2371H16.9519L17.0932 9.67188L17.2345 10.2371H17.941L17.3758 10.5197Z" fill="white"/>
<path d="M17.3758 13.3478L17.6584 13.913L17.0932 13.4891L16.6693 13.913L16.8106 13.3478L16.3867 13.0652H16.9519L17.0932 12.5L17.2345 13.0652H17.941L17.3758 13.3478Z" fill="white"/>
<path d="M17.3758 2.01578L17.6584 2.58097L17.0932 2.29839L16.6693 2.58097L16.8106 2.01578L16.3867 1.7332H16.9519L17.0932 1.16797L17.2345 1.7332H17.941L17.3758 2.01578Z" fill="white"/>
<path d="M14.4168 4.85953L14.6994 5.42472L14.2755 5.14214L13.7103 5.42472L13.9929 4.85953L13.4277 4.57695H13.9929L14.2755 4.01172L14.4168 4.57695H14.982L14.4168 4.85953Z" fill="white"/>
<path d="M14.4168 7.69156L14.6994 8.25675L14.2755 7.97418L13.7103 8.25675L13.9929 7.69156L13.4277 7.40898H13.9929L14.2755 6.84375L14.4168 7.40898H14.982L14.4168 7.69156Z" fill="white"/>
<path d="M14.4168 10.5197L14.6994 11.0849L14.2755 10.661L13.7103 11.0849L13.9929 10.5197L13.4277 10.2371H13.9929L14.2755 9.67188L14.4168 10.2371H14.982L14.4168 10.5197Z" fill="white"/>
<path d="M14.4168 13.3478L14.6994 13.913L14.2755 13.4891L13.7103 13.913L13.9929 13.3478L13.4277 13.0652H13.9929L14.2755 12.5L14.4168 13.0652H14.982L14.4168 13.3478Z" fill="white"/>
<path d="M14.4168 2.01578L14.6994 2.58097L14.2755 2.29839L13.7103 2.58097L13.9929 2.01578L13.4277 1.7332H13.9929L14.2755 1.16797L14.4168 1.7332H14.982L14.4168 2.01578Z" fill="white"/>
<path d="M11.4676 4.85953L11.6089 5.42472L11.185 5.14214L10.7611 5.42472L10.9024 4.85953L10.4785 4.57695H11.0437L11.185 4.01172L11.3263 4.57695H11.8915L11.4676 4.85953Z" fill="white"/>
<path d="M11.4676 7.69156L11.6089 8.25675L11.185 7.97418L10.7611 8.25675L10.9024 7.69156L10.4785 7.40898H11.0437L11.185 6.84375L11.3263 7.40898H11.8915L11.4676 7.69156Z" fill="white"/>
<path d="M11.4676 10.5197L11.6089 11.0849L11.185 10.661L10.7611 11.0849L10.9024 10.5197L10.4785 10.2371H11.0437L11.185 9.67188L11.3263 10.2371H11.8915L11.4676 10.5197Z" fill="white"/>
<path d="M11.4676 13.3478L11.6089 13.913L11.185 13.4891L10.7611 13.913L10.9024 13.3478L10.4785 13.0652H11.0437L11.185 12.5L11.3263 13.0652H11.8915L11.4676 13.3478Z" fill="white"/>
<path d="M11.4676 2.01578L11.6089 2.58097L11.185 2.29839L10.7611 2.58097L10.9024 2.01578L10.4785 1.7332H11.0437L11.185 1.16797L11.3263 1.7332H11.8915L11.4676 2.01578Z" fill="white"/>
<path d="M8.48617 4.85953L8.62746 5.42472L8.20357 5.14214L7.77967 5.42472L7.92096 4.85953L7.49707 4.57695H8.06227L8.20357 4.01172L8.34487 4.57695H8.91007L8.48617 4.85953Z" fill="white"/>
<path d="M8.48617 7.69156L8.62746 8.25675L8.20357 7.97418L7.77967 8.25675L7.92096 7.69156L7.49707 7.40898H8.06227L8.20357 6.84375L8.34487 7.40898H8.91007L8.48617 7.69156Z" fill="white"/>
<path d="M8.48617 10.5197L8.62746 11.0849L8.20357 10.661L7.77967 11.0849L7.92096 10.5197L7.49707 10.2371H8.06227L8.20357 9.67188L8.34487 10.2371H8.91007L8.48617 10.5197Z" fill="white"/>
<path d="M8.48617 13.3478L8.62746 13.913L8.20357 13.4891L7.77967 13.913L7.92096 13.3478L7.49707 13.0652H8.06227L8.20357 12.5L8.34487 13.0652H8.91007L8.48617 13.3478Z" fill="white"/>
<path d="M8.48617 2.01578L8.62746 2.58097L8.20357 2.29839L7.77967 2.58097L7.92096 2.01578L7.49707 1.7332H8.06227L8.20357 1.16797L8.34487 1.7332H8.91007L8.48617 2.01578Z" fill="white"/>
<path d="M5.54183 4.85953L5.82443 5.42472L5.25923 5.14214L4.83533 5.42472L4.97663 4.85953L4.55273 4.57695H5.11793L5.25923 4.01172L5.40053 4.57695H6.10703L5.54183 4.85953Z" fill="white"/>
<path d="M5.54183 7.69156L5.82443 8.25675L5.25923 7.97418L4.83533 8.25675L4.97663 7.69156L4.55273 7.40898H5.11793L5.25923 6.84375L5.40053 7.40898H6.10703L5.54183 7.69156Z" fill="white"/>
<path d="M5.54183 10.5197L5.82443 11.0849L5.25923 10.661L4.83533 11.0849L4.97663 10.5197L4.55273 10.2371H5.11793L5.25923 9.67188L5.40053 10.2371H6.10703L5.54183 10.5197Z" fill="white"/>
<path d="M5.54183 13.3478L5.82443 13.913L5.25923 13.4891L4.83533 13.913L4.97663 13.3478L4.55273 13.0652H5.11793L5.25923 12.5L5.40053 13.0652H6.10703L5.54183 13.3478Z" fill="white"/>
<path d="M5.54183 2.01578L5.82443 2.58097L5.25923 2.29839L4.83533 2.58097L4.97663 2.01578L4.55273 1.7332H5.11793L5.25923 1.16797L5.40053 1.7332H6.10703L5.54183 2.01578Z" fill="white"/>
<path d="M2.57114 4.85953L2.85373 5.42472L2.28853 5.14214L1.86464 5.42472L2.00594 4.85953L1.58203 4.57695H2.14723L2.28853 4.01172L2.42984 4.57695H3.13634L2.57114 4.85953Z" fill="white"/>
<path d="M2.57114 7.69156L2.85373 8.25675L2.28853 7.97418L1.86464 8.25675L2.00594 7.69156L1.58203 7.40898H2.14723L2.28853 6.84375L2.42984 7.40898H3.13634L2.57114 7.69156Z" fill="white"/>
<path d="M2.57114 10.5197L2.85373 11.0849L2.28853 10.661L1.86464 11.0849L2.00594 10.5197L1.58203 10.2371H2.14723L2.28853 9.67188L2.42984 10.2371H3.13634L2.57114 10.5197Z" fill="white"/>
<path d="M2.57114 13.3478L2.85373 13.913L2.28853 13.4891L1.86464 13.913L2.00594 13.3478L1.58203 13.0652H2.14723L2.28853 12.5L2.42984 13.0652H3.13634L2.57114 13.3478Z" fill="white"/>
<path d="M2.57114 2.01578L2.85373 2.58097L2.28853 2.29839L1.86464 2.58097L2.00594 2.01578L1.58203 1.7332H2.14723L2.28853 1.16797L2.42984 1.7332H3.13634L2.57114 2.01578Z" fill="white"/>
</svg>
