<svg width="61" height="61" viewBox="0 0 61 61" fill="none" xmlns="http://www.w3.org/2000/svg">
<path d="M40.8071 60.3795H19.5811C8.76364 60.3795 0 51.6071 0 40.7984V19.5811C0 8.76364 8.77234 0 19.5811 0H40.7984C51.6158 0 60.3795 8.77234 60.3795 19.5811V40.7984C60.3882 51.6158 51.6245 60.3795 40.8071 60.3795Z" fill="url(#paint0_linear_3995_40923)"/>
<path d="M44.8174 30.9561H38.8772V50.522H30.0646V30.9561H25.875V23.2949H30.0646V18.3382C30.0646 14.7902 31.7132 9.24219 38.9537 9.24219L45.4803 9.26827V16.7033H40.7468C39.9735 16.7033 38.8772 17.1034 38.8772 18.7904V23.2949H45.5908L44.8174 30.9561Z" fill="white"/>
<defs>
<linearGradient id="paint0_linear_3995_40923" x1="5.2299" y1="55.1528" x2="54.8697" y2="5.51301" gradientUnits="userSpaceOnUse">
<stop stop-color="#1C36B7"/>
<stop offset="0.9989" stop-color="#1C98D3"/>
</linearGradient>
</defs>
</svg>
