<svg width="61" height="60" viewBox="0 0 61 60" fill="none" xmlns="http://www.w3.org/2000/svg">
<path d="M41.4781 60H20.3891C9.64565 60 0.933594 51.2879 0.933594 40.5445V19.4555C0.933594 8.71206 9.64565 0 20.3891 0H41.4781C52.2215 0 60.9336 8.71206 60.9336 19.4555V40.5445C60.9441 51.2879 52.232 60 41.4781 60Z" fill="url(#paint0_linear_3995_41441)"/>
<path d="M42.182 4.98438H19.6794C12.0459 4.98438 5.85742 11.1728 5.85742 18.8063V41.3089C5.85742 48.9424 12.0459 55.1309 19.6794 55.1309H42.182C49.8155 55.1309 56.004 48.9424 56.004 41.3089V18.8063C56.004 11.1728 49.8155 4.98438 42.182 4.98438ZM51.9516 41.2566C51.9516 46.6807 47.5537 51.0891 42.1192 51.0891H19.7318C14.3077 51.0891 9.89929 46.6912 9.89929 41.2566V18.8692C9.89929 13.4451 14.2972 9.03672 19.7318 9.03672H42.1192C47.5432 9.03672 51.9516 13.4346 51.9516 18.8692V41.2566Z" fill="white"/>
<path d="M30.9314 16.8516C23.633 16.8516 17.7168 22.7678 17.7168 30.0662C17.7168 37.3646 23.633 43.2809 30.9314 43.2809C38.2299 43.2809 44.1461 37.3646 44.1461 30.0662C44.1461 22.7678 38.2299 16.8516 30.9314 16.8516ZM30.9314 38.684C26.1671 38.684 22.3137 34.8201 22.3137 30.0662C22.3137 25.3018 26.1775 21.4484 30.9314 21.4484C35.6958 21.4484 39.5493 25.3123 39.5493 30.0662C39.5493 34.8201 35.6854 38.684 30.9314 38.684Z" fill="white"/>
<path d="M47.5693 16.4086C47.5693 18.0422 46.2395 19.372 44.6059 19.372C42.9724 19.372 41.6426 18.0422 41.6426 16.4086C41.6426 14.7751 42.9724 13.4453 44.6059 13.4453C46.2395 13.4453 47.5693 14.7647 47.5693 16.4086Z" fill="white"/>
<defs>
<linearGradient id="paint0_linear_3995_41441" x1="8.32543" y1="7.15675" x2="54.832" y2="54.1331" gradientUnits="userSpaceOnUse">
<stop stop-color="#FEC053"/>
<stop offset="0.0381" stop-color="#FDB652"/>
<stop offset="0.104" stop-color="#FB994E"/>
<stop offset="0.1897" stop-color="#F86C48"/>
<stop offset="0.2911" stop-color="#F32D40"/>
<stop offset="0.3111" stop-color="#F2203E"/>
<stop offset="0.4778" stop-color="#F2203E"/>
<stop offset="0.5456" stop-color="#E82250"/>
<stop offset="0.6805" stop-color="#CE257E"/>
<stop offset="0.7903" stop-color="#B729A8"/>
<stop offset="0.8334" stop-color="#A52DB0"/>
<stop offset="0.9194" stop-color="#7739C6"/>
<stop offset="0.9785" stop-color="#5342D6"/>
</linearGradient>
</defs>
</svg>
