<svg width="46" height="46" viewBox="0 0 46 46" fill="none" xmlns="http://www.w3.org/2000/svg">
<path d="M31.0822 46H14.9178C6.67977 46 0 39.3202 0 31.0822V14.9178C0 6.67977 6.67977 0 14.9178 0H31.0822C39.3202 0 46 6.67977 46 14.9178V31.0822C46 39.3202 39.3202 46 31.0822 46Z" fill="url(#paint0_linear_47_2129)"/>
<path d="M36.4354 25.2044V35.0599H30.7026V25.8653C30.7026 23.5554 29.8717 21.9834 27.7976 21.9834C26.213 21.9834 25.2726 23.0421 24.8539 24.0751C24.7057 24.4409 24.6671 24.9542 24.6671 25.4675V35.0663H18.9343C18.9343 35.0663 19.0116 19.4939 18.9343 17.8834H24.6671V20.3152C24.6542 20.3344 24.6413 20.3537 24.6284 20.3729H24.6671V20.3152C25.4272 19.1474 26.7863 17.4792 29.833 17.4792C33.6076 17.4728 36.4354 19.9238 36.4354 25.2044ZM10.0195 35.0535H15.7523V17.8706H10.0195V35.0535ZM15.9262 12.0446C15.9262 13.6679 14.6057 14.9832 12.9761 14.9832C11.3464 14.9832 10.026 13.6679 10.026 12.0446C10.026 10.4212 11.3464 9.1059 12.9761 9.1059C14.6057 9.09949 15.9262 10.4212 15.9262 12.0446Z" fill="white"/>
<defs>
<linearGradient id="paint0_linear_47_2129" x1="4.99185" y1="42.0647" x2="42.9352" y2="1.88934" gradientUnits="userSpaceOnUse">
<stop stop-color="#2797CF"/>
<stop offset="0.166" stop-color="#2B99D0"/>
<stop offset="0.3386" stop-color="#389FD3"/>
<stop offset="0.5143" stop-color="#4CA9D7"/>
<stop offset="0.6919" stop-color="#6AB7DE"/>
<stop offset="0.8695" stop-color="#8FC9E6"/>
<stop offset="1" stop-color="#AFD9ED"/>
</linearGradient>
</defs>
</svg>
