<svg width="35" height="35" viewBox="0 0 35 35" fill="none" xmlns="http://www.w3.org/2000/svg">
<path d="M23.496 34.9249H11.3234C5.12234 34.9249 0.09375 29.8963 0.09375 23.6952V11.5227C0.09375 5.32156 5.12234 0.292969 11.3234 0.292969H23.496C29.6971 0.292969 34.7257 5.32156 34.7257 11.5227V23.6952C34.7317 29.8963 29.7031 34.9249 23.496 34.9249Z" fill="url(#paint0_linear_5137_63908)"/>
<path d="M23.9021 3.16797H10.9136C6.50752 3.16797 2.93555 6.73994 2.93555 11.146V24.1345C2.93555 28.5405 6.50752 32.1125 10.9136 32.1125H23.9021C28.3081 32.1125 31.8801 28.5405 31.8801 24.1345V11.146C31.8801 6.73994 28.3081 3.16797 23.9021 3.16797ZM29.5411 24.1043C29.5411 27.235 27.0026 29.7795 23.8658 29.7795H10.9438C7.81303 29.7795 5.26851 27.2411 5.26851 24.1043V11.1823C5.26851 8.05148 7.80698 5.50698 10.9438 5.50698H23.8658C26.9965 5.50698 29.5411 8.04544 29.5411 11.1823V24.1043Z" fill="white"/>
<path d="M17.4156 10.0273C13.2029 10.0273 9.78809 13.4422 9.78809 17.6548C9.78809 21.8675 13.2029 25.2823 17.4156 25.2823C21.6282 25.2823 25.043 21.8675 25.043 17.6548C25.043 13.4422 21.6282 10.0273 17.4156 10.0273ZM17.4156 22.629C14.6656 22.629 12.4414 20.3988 12.4414 17.6548C12.4414 14.9048 14.6716 12.6806 17.4156 12.6806C20.1656 12.6806 22.3898 14.9109 22.3898 17.6548C22.3898 20.3988 20.1595 22.629 17.4156 22.629Z" fill="white"/>
<path d="M27.0058 9.7534C27.0058 10.6963 26.2383 11.4639 25.2954 11.4639C24.3526 11.4639 23.585 10.6963 23.585 9.7534C23.585 8.81054 24.3526 8.04297 25.2954 8.04297C26.2383 8.04297 27.0058 8.8045 27.0058 9.7534Z" fill="white"/>
<defs>
<linearGradient id="paint0_linear_5137_63908" x1="4.36031" y1="4.42384" x2="31.2039" y2="31.5385" gradientUnits="userSpaceOnUse">
<stop offset="0.0215" stop-color="#5342D6"/>
<stop offset="0.0806" stop-color="#7739C6"/>
<stop offset="0.1666" stop-color="#A52DB0"/>
<stop offset="0.2097" stop-color="#B729A8"/>
<stop offset="0.3195" stop-color="#CE257E"/>
<stop offset="0.4544" stop-color="#E82250"/>
<stop offset="0.5222" stop-color="#F2203E"/>
<stop offset="0.6889" stop-color="#F2203E"/>
<stop offset="0.7089" stop-color="#F32D40"/>
<stop offset="0.8103" stop-color="#F86C48"/>
<stop offset="0.896" stop-color="#FB994E"/>
<stop offset="0.9619" stop-color="#FDB652"/>
<stop offset="1" stop-color="#FEC053"/>
</linearGradient>
</defs>
</svg>
