<svg width="27" height="28" viewBox="0 0 27 28" fill="none" xmlns="http://www.w3.org/2000/svg">
<rect y="0.765625" width="27" height="27" rx="6" fill="url(#paint0_linear_5137_65741)"/>
<path d="M17.6158 14.0077C17.7073 14.0077 17.7988 14.1025 17.7988 14.1025C18.8963 14.6709 19.628 15.4288 19.9939 16.3762C20.5427 17.7025 20.6341 19.9762 18.8963 21.7762C17.6158 23.1025 15.9695 23.7656 13.6829 23.7656C11.122 23.7656 9.20121 22.8183 7.82927 21.113C6.64024 19.5972 6.09146 17.4183 6 14.7656C6 12.113 6.64024 9.93404 7.82927 8.41825C9.10975 6.71299 11.122 5.76562 13.6829 5.76562C16.2439 5.76562 18.1646 6.71299 19.5366 8.41825C20.1768 9.27089 20.7256 10.313 21 11.4498L19.5366 11.8288C19.2622 10.8814 18.8963 10.0288 18.3475 9.36562C17.25 8.03931 15.6951 7.37615 13.5914 7.28141C11.4878 7.28141 9.93293 7.94457 8.92684 9.36562C8.0122 10.5972 7.46339 12.3972 7.46339 14.7656C7.46339 17.0393 8.0122 18.934 8.92684 20.1656C9.93293 21.4919 11.4878 22.1551 13.5914 22.2498C15.4207 22.2498 16.7012 21.7762 17.7073 20.734C18.8963 19.5025 18.8963 18.0814 18.439 17.1341C18.2561 16.5656 17.7988 16.1867 17.25 15.8077C17.1585 16.8498 16.7927 17.6077 16.3353 18.2709C15.6951 19.1235 14.872 19.5025 13.6829 19.5972C12.8598 19.6919 12.0366 19.4077 11.3964 19.0288C10.6646 18.5551 10.2073 17.7025 10.1158 16.8498C10.0244 15.0498 11.3963 13.7235 13.5914 13.6288C14.3231 13.6288 15.0548 13.6288 15.6951 13.7235C15.6036 13.1551 15.4207 12.6814 15.1463 12.3972C14.7805 11.9235 14.2317 11.734 13.5 11.734C12.8598 11.734 12.128 11.9235 11.5792 12.6814L10.2988 11.8288C11.0305 10.6919 12.1281 10.1235 13.5 10.1235C16.061 9.93405 17.4329 11.4498 17.6158 14.0077ZM11.9451 16.5656C12.0366 17.513 12.9512 17.9867 13.9573 17.8919C14.8719 17.7972 15.9695 17.4183 16.1524 15.1446C15.6951 15.0498 15.1463 14.9551 14.5976 14.9551C14.4146 14.9551 14.2317 14.9551 14.0488 14.9551C12.4024 15.1446 11.8537 15.9025 11.9451 16.5656Z" fill="white"/>
<defs>
<linearGradient id="paint0_linear_5137_65741" x1="3.91801" y1="4.70451" x2="23.0351" y2="23.8216" gradientUnits="userSpaceOnUse">
<stop stop-color="#5B5760"/>
<stop offset="0.645" stop-color="#020003"/>
<stop offset="1"/>
</linearGradient>
</defs>
</svg>
