<svg width="36" height="36" viewBox="0 0 36 36" fill="none" xmlns="http://www.w3.org/2000/svg">
<rect x="0.488281" y="0.714844" width="34.6319" height="34.6319" rx="9.61998" fill="url(#paint0_linear_5137_63994)"/>
<path d="M18.2224 21.5378C18.2224 22.1101 18.127 22.6823 17.8409 23.1592C17.5547 23.6361 17.2686 24.0176 16.7917 24.3038C16.3148 24.5899 15.8379 24.876 15.2657 25.0668C14.6934 25.2576 14.1211 25.3529 13.4535 25.3529H6.39551V10.8555H14.2165C14.6934 10.8555 15.1703 10.9508 15.5518 11.1416C15.9333 11.3324 16.3148 11.6185 16.6009 12C16.8871 12.3815 17.0778 12.763 17.2686 13.1445C17.4594 13.6214 17.4594 14.0029 17.4594 14.4798C17.4594 15.1475 17.2686 15.8151 16.8871 16.4828C16.5056 17.1504 16.0287 17.5319 15.361 17.8181C16.2194 18.1042 16.8871 18.4857 17.364 19.1534C18.0316 19.821 18.2224 20.584 18.2224 21.5378ZM9.35223 13.2399V16.8643H13.1674C13.6442 16.8643 14.0257 16.6735 14.4073 16.3874C14.7888 16.1013 14.8841 15.6244 14.8841 15.0521C14.8841 14.4798 14.6934 14.0029 14.4073 13.7168C14.1211 13.4307 13.7396 13.2399 13.2627 13.2399H9.35223ZM15.4564 21.0609C15.4564 20.7748 15.4564 20.584 15.361 20.2979C15.2657 20.0118 15.1703 19.821 14.9795 19.6302C14.7888 19.4395 14.6934 19.3441 14.4073 19.2487C14.2165 19.1534 13.9304 19.058 13.7396 19.058H9.35223V22.8731H13.5489C13.835 22.8731 14.0257 22.7777 14.3119 22.6823C14.5026 22.587 14.6934 22.4916 14.8841 22.3008C15.0749 22.1101 15.1703 21.9193 15.2657 21.7286C15.361 21.5378 15.4564 21.347 15.4564 21.0609Z" fill="white"/>
<path d="M24.4264 25.3464C23.568 25.3464 22.805 25.251 22.1374 24.9649C20.8021 24.3926 19.8483 23.4388 19.276 22.1036C18.9899 21.4359 18.8945 20.7683 18.8945 20.1006C18.8945 19.3376 18.9899 18.6699 19.276 18.0023C19.8483 16.667 20.8021 15.7132 22.1374 15.141C22.805 14.8548 23.568 14.6641 24.4264 14.6641C25.2848 14.6641 26.0479 14.8548 26.7155 15.141C28.9092 16.0947 29.9584 18.193 29.863 20.5775C29.863 20.7683 29.863 20.8636 29.7676 20.959H21.7559C21.7559 21.3405 21.8512 21.722 22.042 22.0082C22.2327 22.2943 22.4235 22.5804 22.6143 22.8666C22.9004 23.0573 23.1865 23.2481 23.4727 23.3435C23.7588 23.4388 24.1403 23.5342 24.4264 23.5342C24.9987 23.5342 25.4756 23.4388 25.9525 23.1527C26.4294 22.8666 26.7155 22.5804 26.9063 22.1036L29.1953 22.7712C28.8138 23.5342 28.2416 24.2019 27.3832 24.6788C26.5248 25.0603 25.571 25.3464 24.4264 25.3464ZM27.097 19.0515C27.0016 18.2884 26.7155 17.6208 26.2386 17.1439C25.7617 16.667 25.0941 16.4763 24.4264 16.4763C24.0449 16.4763 23.7588 16.5716 23.3773 16.667C23.0911 16.7624 22.805 16.9531 22.5189 17.2393C22.3281 17.43 22.042 17.7162 21.9466 18.0977C21.7559 18.3838 21.6605 18.7653 21.6605 19.1468L27.097 19.0515Z" fill="white"/>
<path d="M20.8936 11.4375H27.8562V13.1543H20.8936V11.4375Z" fill="white"/>
<defs>
<linearGradient id="paint0_linear_5137_63994" x1="5.51377" y1="5.80268" x2="30.0346" y2="30.3235" gradientUnits="userSpaceOnUse">
<stop stop-color="#006EF8"/>
<stop offset="0.7752" stop-color="#212CB1"/>
<stop offset="1" stop-color="#2B189C"/>
</linearGradient>
</defs>
</svg>
