<svg width="36" height="36" viewBox="0 0 36 36" fill="none" xmlns="http://www.w3.org/2000/svg">
<path d="M24.3813 35.5968H12.2068C6.00216 35.5968 0.975586 30.5652 0.975586 24.3656V12.196C0.975586 5.99142 6.00715 0.964844 12.2068 0.964844H24.3763C30.5809 0.964844 35.6075 5.99641 35.6075 12.196V24.3656C35.6125 30.5702 30.5859 35.5968 24.3813 35.5968Z" fill="url(#paint0_linear_5137_63941)"/>
<path fill-rule="evenodd" clip-rule="evenodd" d="M14.0986 14.0504H9.90497V27.4391H14.0986V14.0504ZM14.3929 9.8573C14.3929 8.53315 13.2893 7.42969 11.965 7.42969C10.6407 7.42969 9.53711 8.53315 9.53711 9.8573C9.53711 11.1814 10.6407 12.2849 11.965 12.2849C13.2893 12.2849 14.3929 11.1814 14.3929 9.8573ZM20.6468 14.0563H16.6738V27.5185H20.8675V20.8977C20.8675 19.1322 21.1618 17.4402 23.3689 17.4402C25.5025 17.4402 25.5025 19.4264 25.5025 20.9712V20.9713V27.5185H29.6962V20.1621C29.6962 16.5575 28.8869 13.762 24.6932 13.762C22.6332 13.762 21.3089 14.8655 20.7203 15.8954H20.6468V14.0563Z" fill="white"/>
<defs>
<linearGradient id="paint0_linear_5137_63941" x1="1.01667" y1="18.2538" x2="35.5999" y2="18.2538" gradientUnits="userSpaceOnUse">
<stop stop-color="#007BB8"/>
<stop offset="1" stop-color="#0044E9"/>
</linearGradient>
</defs>
</svg>
