<svg width="36" height="36" viewBox="0 0 36 36" fill="none" xmlns="http://www.w3.org/2000/svg">
<rect x="0.993694" y="1.19584" width="33.6699" height="33.6699" rx="9.13898" fill="url(#paint0_linear_5137_63956)" stroke="#4D4D4D" stroke-width="0.961998"/>
<path fill-rule="evenodd" clip-rule="evenodd" d="M22.7637 15.5848C24.187 16.5895 26.0289 17.2593 27.8708 17.2593V13.5754C27.5359 13.5754 27.1173 13.5754 26.7824 13.4917V16.422C24.8568 16.422 23.0986 15.836 21.6752 14.7476V22.2827C21.6752 26.0503 18.6612 29.0644 14.8936 29.0644C13.4703 29.0644 12.2144 28.6458 11.126 27.8923C12.3818 29.1481 14.0563 29.9017 15.982 29.9017C19.7496 29.9017 22.7637 26.8876 22.7637 23.12V15.5848ZM24.1032 11.8172C23.3497 10.98 22.8474 9.97527 22.7637 8.80313V8.30078H21.759C22.0101 9.80782 22.9311 11.0637 24.1032 11.8172ZM13.4702 24.9619C13.0516 24.4596 12.8005 23.7898 12.8005 23.0363C12.8005 21.2781 14.2238 19.9385 15.8983 19.9385C16.2332 19.9385 16.568 20.0222 16.8192 20.1059V16.3383C16.4843 16.2546 16.0657 16.2546 15.7308 16.2546V19.1849C15.3959 19.1012 15.1447 19.0175 14.8098 19.0175C13.0516 19.0175 11.7121 20.4408 11.7121 22.1153C11.7958 23.3712 12.4656 24.4596 13.4702 24.9619Z" fill="#FF1753"/>
<path fill-rule="evenodd" clip-rule="evenodd" d="M21.7576 14.6638C23.1809 15.6685 25.0228 16.3383 26.8648 16.3383V13.408C25.7764 13.1568 24.8554 12.6544 24.1019 11.8172C22.846 11.0637 22.0088 9.80782 21.7576 8.30078H19.0784V23.0363C19.0784 24.7945 17.6551 26.1341 15.9806 26.1341C14.9759 26.1341 14.055 25.6317 13.4689 24.8782C12.4642 24.3759 11.7944 23.2874 11.7944 22.1153C11.7944 20.3571 13.2177 19.0175 14.8922 19.0175C15.2271 19.0175 15.562 19.1012 15.8132 19.1849V16.2546C12.1293 16.3383 9.11523 19.3524 9.11523 23.0363C9.11523 24.8782 9.86874 26.5527 11.0409 27.8086C12.1293 28.5621 13.4689 28.9807 14.8085 28.9807C18.5761 28.9807 21.5902 25.9666 21.5902 22.199V14.6638H21.7576Z" fill="white"/>
<path fill-rule="evenodd" clip-rule="evenodd" d="M26.8636 13.4093V12.6558C25.8589 12.6558 24.938 12.4046 24.1007 11.9022C24.8542 12.6558 25.7752 13.1581 26.8636 13.4093ZM21.7565 8.38581C21.7565 8.21836 21.6727 8.13464 21.6727 7.96719V7.46484H17.9889V22.2003C17.9889 23.9585 16.5655 25.2981 14.8911 25.2981C14.3887 25.2981 13.8863 25.2144 13.4677 24.9632C14.0538 25.7168 14.9748 26.2191 15.9795 26.2191C17.7377 26.2191 19.0773 24.7958 19.0773 23.1213V8.38581H21.7565ZM15.812 16.2559V15.4187C15.4771 15.3349 15.2259 15.3349 14.8911 15.3349C11.1235 15.3349 8.10938 18.349 8.10938 22.1166C8.10938 24.4609 9.28152 26.554 11.1235 27.8099C9.95132 26.554 9.19781 24.8795 9.19781 23.0376C9.19781 19.3537 12.1282 16.3396 15.812 16.2559Z" fill="#00C9D0"/>
<defs>
<linearGradient id="paint0_linear_5137_63956" x1="5.53818" y1="5.7671" x2="30.059" y2="30.288" gradientUnits="userSpaceOnUse">
<stop stop-color="#5B5760"/>
<stop offset="0.645" stop-color="#020003"/>
<stop offset="1"/>
</linearGradient>
</defs>
</svg>
