<svg width="36" height="35" viewBox="0 0 36 35" fill="none" xmlns="http://www.w3.org/2000/svg">
<path d="M24.2407 34.671H12.0661C5.86153 34.671 0.834961 29.6394 0.834961 23.4398V11.2702C0.834961 5.06563 5.86652 0.0390625 12.0661 0.0390625H24.2357C30.4403 0.0390625 35.4669 5.07063 35.4669 11.2702V23.4398C35.4719 29.6444 30.4453 34.671 24.2407 34.671Z" fill="url(#paint0_linear_5137_63880)"/>
<path d="M26.5445 17.7943H23.1374V29.0168H18.0827V17.7943H15.6797V13.4001H18.0827V10.557C18.0827 8.52204 19.0283 5.33984 23.1812 5.33984L26.9247 5.35481V9.61934H24.2097C23.7662 9.61934 23.1374 9.84878 23.1374 10.8164V13.4001H26.9881L26.5445 17.7943Z" fill="white"/>
<defs>
<linearGradient id="paint0_linear_5137_63880" x1="3.83468" y1="31.6731" x2="32.3066" y2="3.20116" gradientUnits="userSpaceOnUse">
<stop stop-color="#1C36B7"/>
<stop offset="0.9989" stop-color="#1C98D3"/>
</linearGradient>
</defs>
</svg>
