<svg width="36" height="36" viewBox="0 0 36 36" fill="none" xmlns="http://www.w3.org/2000/svg">
<rect x="0.768555" y="0.984375" width="34.6319" height="34.6319" rx="9.61998" fill="url(#paint0_linear_5137_63893)"/>
<path d="M26.961 16.3088C26.961 14.2649 25.2862 12.5859 23.2473 12.5859H13.7811C11.7422 12.5859 10.0674 14.2649 10.0674 16.3088V20.6886C10.0674 22.7325 11.7422 24.4115 13.7811 24.4115H23.2473C25.2862 24.4115 26.961 22.7325 26.961 20.6886V16.3088ZM21.4269 18.8637L17.2035 20.9806C17.0579 21.0536 16.4753 20.9806 16.4753 20.7616V16.4548C16.4753 16.2358 17.0579 16.1628 17.2035 16.2358L21.2813 18.4257C21.4269 18.4987 21.5725 18.7907 21.4269 18.8637Z" fill="white"/>
<defs>
<linearGradient id="paint0_linear_5137_63893" x1="5.79477" y1="6.07221" x2="30.3156" y2="30.5931" gradientUnits="userSpaceOnUse">
<stop stop-color="#FF0000"/>
<stop offset="1" stop-color="#9B0000"/>
</linearGradient>
</defs>
</svg>
