<svg width="27" height="28" viewBox="0 0 27 28" fill="none" xmlns="http://www.w3.org/2000/svg">
<rect y="0.765625" width="27" height="27" rx="6" fill="url(#paint0_linear_5137_65723)"/>
<path d="M13.2433 21.4559C12.6337 21.4559 12.0241 21.2527 11.4822 20.9141C11.279 20.7786 11.0081 20.6432 10.8048 20.5077L10.5339 20.3045C10.3307 20.1691 10.1275 20.1013 9.85654 20.0336C9.78881 20.0336 9.65332 20.0336 9.58558 20.0336C9.38238 20.0336 9.11144 20.0336 8.90823 20.1013C8.77276 20.1013 8.70503 20.1013 8.56956 20.1691C8.50182 20.1691 8.50186 20.1691 8.43412 20.1691C8.02771 20.1691 7.68901 19.8982 7.68901 19.5595C7.68901 19.2209 7.55357 19.0854 7.07942 19.0854C6.80848 19.0854 6.53753 18.95 6.26659 18.8145C5.86018 18.6791 5.65695 18.4082 5.52148 18.1373V18.0695V17.6632L5.58924 17.5954C5.72471 17.46 5.86018 17.3245 6.13112 17.2568C7.14714 17.0536 7.95994 16.4441 8.56956 15.3605C8.8405 14.8864 8.84052 14.7509 8.84052 14.7509C8.84052 14.7509 8.77276 14.6155 8.23088 14.4123C8.16315 14.4123 8.09542 14.3446 8.02769 14.3446C7.82448 14.2768 7.55354 14.1414 7.35034 13.9382C7.0794 13.6673 6.94393 13.3964 7.01166 13.0577C7.0794 12.7191 7.41808 12.4482 7.82449 12.3127C7.89223 12.3127 7.95998 12.3127 8.09545 12.3127C8.29865 12.3127 8.50183 12.3805 8.70504 12.4482C8.77277 12.4482 8.84052 12.5159 8.97599 12.5159C8.90826 11.9064 8.90826 11.2968 8.97599 10.5518C9.04373 9.19731 9.72107 8.11367 10.8726 7.4364C11.6854 6.96231 12.5659 6.69141 13.4465 6.69141C14.327 6.69141 15.1399 6.96231 15.9527 7.4364C17.0365 8.11367 17.7138 9.06185 17.8493 10.2809C17.917 11.0259 17.917 11.8387 17.8493 12.5159C17.917 12.5159 17.9847 12.4482 18.0525 12.4482C18.2557 12.3805 18.4589 12.3127 18.6621 12.3127C18.7976 12.3127 19.0008 12.3127 19.1362 12.3805C19.5427 12.5159 19.7458 12.9223 19.7458 13.2609C19.7458 13.5318 19.6104 13.735 19.4072 13.9382C19.204 14.1414 18.933 14.2091 18.6621 14.3446C18.5266 14.4123 18.4589 14.4123 18.3911 14.48C18.2557 14.5477 18.188 14.5477 18.1202 14.6155C17.9847 14.6832 17.917 14.7509 17.917 14.7509C17.917 14.7509 17.917 14.8186 17.9847 14.9541C18.5944 16.3086 19.4749 17.0536 20.6264 17.3245C20.8974 17.3923 21.1005 17.5277 21.236 17.7309L21.3038 17.7986V18.205V18.2727C21.1683 18.6114 20.8974 18.8145 20.4909 18.95H20.4232C20.1522 19.0854 19.8813 19.1532 19.5426 19.1532C19.2717 19.1532 19.204 19.2209 19.204 19.4918C19.1362 19.8304 19.0008 20.2368 18.4589 20.2368C18.3912 20.2368 18.3234 20.2368 18.2557 20.2368C18.188 20.2368 18.0525 20.2368 17.9847 20.1691C17.7138 20.1013 17.5106 20.1013 17.3751 20.1013C16.8332 20.1013 16.4268 20.2368 16.0204 20.5754C15.8849 20.6432 15.7495 20.7786 15.6817 20.8463L15.614 20.9141C14.598 21.185 13.9206 21.4559 13.2433 21.4559Z" fill="white"/>
<path d="M13.2428 6.89602C14.0556 6.89602 14.8007 7.0992 15.6135 7.57329C16.5618 8.11511 17.2391 8.99555 17.3746 10.1469C17.4423 10.8919 17.4423 11.6369 17.3746 12.3819C17.3746 12.6528 17.3746 12.7205 17.5101 12.7205C17.5778 12.7205 17.6456 12.7205 17.7133 12.7205C17.9842 12.6528 18.2552 12.5174 18.5261 12.5174C18.6616 12.5174 18.7293 12.5174 18.8648 12.5851C19.068 12.6528 19.2712 12.9237 19.2712 13.1269C19.2712 13.2624 19.2035 13.4655 19.068 13.5333C18.8648 13.6687 18.5938 13.8042 18.3906 13.8719C18.1874 13.9396 18.052 14.0073 17.8488 14.0751C17.5101 14.2783 17.3746 14.4814 17.5778 14.8201C18.1875 16.0392 19.068 16.9873 20.4227 17.326C20.6259 17.3937 20.7614 17.4614 20.8291 17.5969C20.8291 17.6646 20.8291 17.7323 20.8291 17.8001C20.6937 18.071 20.4904 18.2064 20.2195 18.3419C19.9486 18.4773 19.6776 18.5451 19.4067 18.6128C19.0003 18.6128 18.797 18.816 18.7293 19.2223C18.6616 19.561 18.5939 19.6287 18.3229 19.6287C18.2552 19.6287 18.1874 19.6287 18.1874 19.6287C18.1197 19.6287 17.9843 19.6287 17.9165 19.561C17.7133 19.4932 17.4424 19.4932 17.2392 19.4932C16.6973 19.4932 16.1554 19.6287 15.6812 20.0351C15.5458 20.1705 15.4103 20.2382 15.2748 20.306C14.6652 20.7123 14.0556 20.9155 13.446 20.9155C12.9041 20.9155 12.3623 20.78 11.8204 20.4414C11.4817 20.2382 11.2107 20.035 10.8721 19.8319C10.6011 19.6964 10.3302 19.561 10.0592 19.4932C9.92377 19.4932 9.85604 19.4932 9.72057 19.4932C9.38189 19.4932 8.9755 19.561 8.63682 19.6287H8.56906C8.36586 19.6287 8.16267 19.561 8.16267 19.3578C8.16267 18.7482 7.75624 18.6128 7.21436 18.5451C6.94342 18.5451 6.74022 18.4096 6.53701 18.3419C6.26607 18.2064 6.06289 18.071 5.92742 17.8678C5.92742 17.8001 5.92742 17.7323 5.92742 17.6646C5.99516 17.5292 6.13063 17.4614 6.2661 17.3937C7.48533 17.1228 8.29815 16.3778 8.9755 15.2942C9.51738 14.4137 9.44965 14.2105 8.43362 13.8719C8.36589 13.8719 8.29815 13.8042 8.29815 13.8042C8.09494 13.7364 7.89172 13.601 7.68852 13.4655C7.28211 13.0592 7.48531 12.5174 8.02719 12.4496C8.09493 12.4496 8.16265 12.4496 8.23039 12.4496C8.50133 12.4496 8.84003 12.6528 9.11097 12.6528H9.17869C9.3819 12.6528 9.44963 12.5851 9.38189 12.3142C9.31416 11.6369 9.31417 10.9596 9.31417 10.3501C9.38191 9.06328 9.99151 8.11511 11.0753 7.50556C11.6171 7.16693 12.43 6.89602 13.2428 6.89602ZM13.2428 6.21875C12.2945 6.21875 11.4139 6.48966 10.5334 7.03147C9.24643 7.77647 8.50136 8.99555 8.43362 10.4178C8.43362 10.9596 8.43362 11.5015 8.43362 11.9078C8.29815 11.8401 8.16268 11.8401 7.95947 11.8401C7.824 11.8401 7.75627 11.8401 7.6208 11.9078C7.07892 12.0433 6.67251 12.3819 6.60477 12.9237C6.4693 13.3978 6.67249 13.8042 7.01117 14.1428C7.28211 14.346 7.55307 14.4814 7.75627 14.6169C7.82401 14.6169 7.82398 14.6846 7.89171 14.6846H7.95947C8.09494 14.7523 8.23041 14.7523 8.29815 14.8201C8.29815 14.8878 8.2304 14.9555 8.16267 15.091C7.55305 16.1069 6.80798 16.6487 5.92742 16.8519C5.58875 16.9196 5.31778 17.1228 5.18231 17.326L5.04688 17.5292V17.8001V18.0032V18.1387L5.11459 18.2741C5.3178 18.6805 5.58876 18.9514 6.0629 19.1546C6.33384 19.2901 6.60477 19.3578 6.94345 19.4255C7.14665 19.4255 7.21436 19.4932 7.21436 19.4932C7.21436 19.4932 7.21436 19.561 7.21436 19.6287C7.21436 20.1705 7.68853 20.5769 8.29815 20.5769C8.36588 20.5769 8.43361 20.5769 8.50134 20.5769C8.63681 20.5769 8.77228 20.5769 8.84002 20.5091C9.04322 20.5091 9.31416 20.4414 9.51737 20.4414C9.5851 20.4414 9.65285 20.4414 9.78832 20.4414C9.99153 20.5091 10.1947 20.5091 10.3979 20.6446C10.4657 20.7123 10.6011 20.78 10.6689 20.8478C10.8721 20.9832 11.143 21.1187 11.3462 21.3219C11.9558 21.7282 12.6332 21.8637 13.3105 21.8637C14.0556 21.8637 14.8007 21.5928 15.5458 21.1864L15.6135 21.1187C15.749 21.051 15.8844 20.9832 16.0199 20.8478C16.3586 20.5769 16.6973 20.4414 17.1714 20.4414C17.3069 20.4414 17.5101 20.4414 17.7133 20.5091C17.8488 20.5091 17.9842 20.5769 18.052 20.5769C18.1197 20.5769 18.1875 20.5769 18.2552 20.5769C18.8648 20.5769 19.2712 20.2382 19.3389 19.561C19.3389 19.561 19.3389 19.561 19.3389 19.4932C19.3389 19.4932 19.3389 19.4932 19.4067 19.4932C19.7453 19.4932 20.084 19.3578 20.355 19.2223H20.4227C20.8968 19.0191 21.2355 18.7482 21.4387 18.3419L21.5065 18.2064V18.071V17.8678V17.6646L21.371 17.4614C21.1678 17.1905 20.8968 17.0551 20.5582 16.9873C19.5421 16.7164 18.7971 16.1069 18.1874 14.9555C18.2552 14.9555 18.3229 14.8878 18.3906 14.8878C18.4584 14.8878 18.5261 14.8201 18.5939 14.8201H18.6616C18.9325 14.7523 19.2035 14.6169 19.4744 14.346C19.7454 14.0751 19.9486 13.7364 19.9486 13.3978C19.9486 12.9237 19.6099 12.4496 19.1357 12.1787C18.9325 12.111 18.7293 12.0433 18.5261 12.0433C18.3229 12.0433 18.1874 12.0433 18.052 12.111C18.052 11.5015 18.1197 10.8919 17.9842 10.2824C17.8488 8.92783 17.1037 7.91193 15.9522 7.16693C15.0716 6.48966 14.1233 6.21875 13.2428 6.21875Z" fill="black"/>
<defs>
<linearGradient id="paint0_linear_5137_65723" x1="23.0376" y1="23.8049" x2="3.95973" y2="4.72714" gradientUnits="userSpaceOnUse">
<stop stop-color="#FFFA00"/>
<stop offset="1" stop-color="#FFBB36"/>
</linearGradient>
</defs>
</svg>
