<svg width="36" height="35" viewBox="0 0 36 35" fill="none" xmlns="http://www.w3.org/2000/svg">
<path d="M24.0116 34.9132H11.8391C5.63796 34.9132 0.609375 29.8846 0.609375 23.6835V11.5109C0.609375 5.30984 5.63796 0.28125 11.8391 0.28125H24.0116C30.2127 0.28125 35.2413 5.30984 35.2413 11.5109V23.6835C35.2474 29.8846 30.2188 34.9132 24.0116 34.9132Z" fill="white"/>
<path d="M24.5632 7.05469H28.1288L20.3388 15.9589L29.5036 28.0731H22.3279L16.7083 20.7249L10.2768 28.0731H6.70926L15.0418 18.5488L6.25 7.05566H13.6078L18.6878 13.7721L24.5632 7.05469ZM23.3123 25.9395H25.2879L12.5343 9.07678H10.4143L23.3123 25.9395Z" fill="black"/>
</svg>
