<svg width="27" height="28" viewBox="0 0 27 28" fill="none" xmlns="http://www.w3.org/2000/svg">
<rect y="0.765625" width="27" height="27" rx="6" fill="url(#paint0_linear_5137_65716)"/>
<path fill-rule="evenodd" clip-rule="evenodd" d="M12.9543 17.5329C12.9543 17.5917 12.9543 17.6505 12.8951 17.6505C12.2446 20.2377 12.1854 20.8257 11.4757 22.0016C11.18 22.5896 10.766 23.1188 10.3521 23.648C10.2929 23.7068 10.2929 23.7656 10.1746 23.7656C10.0564 23.7656 10.0564 23.648 10.0564 23.5892C9.93807 22.8248 9.87893 22.0016 9.93807 21.2372C9.99721 20.1789 10.1155 19.8261 11.4166 14.2401C11.4166 14.1813 11.4166 14.0637 11.3575 14.0049C11.0617 13.1229 11.0026 12.2997 11.2392 11.3589C11.8306 9.47734 14.0188 9.30095 14.4328 10.8885C14.6693 11.8881 14.0188 13.1229 13.5457 15.0045C13.1317 16.5333 14.9651 17.6505 16.5619 16.5333C18.0404 15.4749 18.5727 13.0053 18.4544 11.1825C18.2178 7.65456 14.3145 6.89017 11.8306 8.00736C8.99181 9.30095 8.34127 12.8289 9.64237 14.4165C9.81979 14.5929 9.93807 14.7693 9.87893 14.9457C9.81979 15.2397 9.70151 15.5925 9.64237 15.8865C9.58323 16.1217 9.34666 16.2393 9.11009 16.1217C8.63697 15.9453 8.22298 15.6513 7.92727 15.2397C6.86273 13.8873 6.50789 11.2413 7.98642 9.00695C9.58323 6.53737 12.5403 5.47898 15.2608 5.83177C18.5135 6.18457 20.5243 8.41895 20.9383 10.8885C21.1157 12.0057 20.9974 14.8281 19.4006 16.8273C17.5673 19.1205 14.5511 19.2381 13.1908 17.8857C13.1317 17.7681 13.0725 17.6505 12.9543 17.5329Z" fill="white"/>
<defs>
<linearGradient id="paint0_linear_5137_65716" x1="22.5693" y1="21.5608" x2="6.52449" y2="0.811983" gradientUnits="userSpaceOnUse">
<stop stop-color="#FF4C3C"/>
<stop offset="0.9565" stop-color="#EF053E"/>
<stop offset="1" stop-color="#EE023E"/>
</linearGradient>
</defs>
</svg>
