<svg width="60" height="60" viewBox="0 0 60 60" fill="none" xmlns="http://www.w3.org/2000/svg">
<path d="M40.5352 60H19.458C8.71274 60 0 51.2873 0 40.542V19.458C0 8.71274 8.71274 0 19.458 0H40.542C51.2873 0 60 8.71274 60 19.458V40.542C59.9932 51.2873 51.2873 60 40.5352 60Z" fill="url(#paint0_linear_3995_41449)"/>
<path d="M50.2055 20.4793C48.9021 21.0472 47.4901 21.4257 46.0237 21.5998C47.5289 20.7216 48.6849 19.3286 49.228 17.663C47.8159 18.4807 46.2565 19.0712 44.604 19.3891C43.2773 18.0113 41.3842 17.1406 39.2817 17.1406C35.2551 17.1406 31.9965 20.3279 31.9965 24.2496C31.9965 24.8098 32.0586 25.3474 32.1827 25.8697C26.1234 25.5745 20.7546 22.743 17.1625 18.4428C16.5341 19.4951 16.1772 20.714 16.1772 22.0162C16.1772 24.4843 17.4651 26.6571 19.4202 27.9365C18.2254 27.8987 17.1004 27.5807 16.1229 27.0432C16.1229 27.0735 16.1229 27.1038 16.1229 27.134C16.1229 30.5787 18.6366 33.4557 21.9727 34.1067C21.3598 34.2733 20.7158 34.3566 20.0564 34.3566C19.5831 34.3566 19.1331 34.3111 18.6831 34.2278C19.6141 37.0517 22.2985 39.111 25.4873 39.164C22.989 41.0718 19.8547 42.2074 16.4332 42.2074C15.8436 42.2074 15.2617 42.1772 14.6953 42.109C17.915 44.1304 21.7477 45.3039 25.8674 45.3039C39.2739 45.3039 46.5979 34.4701 46.5979 25.0672C46.5979 24.7568 46.5901 24.454 46.5746 24.1512C47.9944 23.1594 49.228 21.9102 50.2055 20.4793Z" fill="white"/>
<defs>
<linearGradient id="paint0_linear_3995_41449" x1="4.86599" y1="54.7378" x2="55.3766" y2="5.02263" gradientUnits="userSpaceOnUse">
<stop stop-color="#04ADE4"/>
<stop offset="1" stop-color="#77CEEB"/>
</linearGradient>
</defs>
</svg>
